<svg enable-background="new 0 0 394.6 80.1" height="80" width="394" xmlns="http://www.w3.org/2000/svg"><g fill="#fff"><path d="m12.7 32.1 5.4 2.4 6.4.9s5.1-22.2 26.9-21.7c22.6.5 26 21.9 26 21.9l6.6-1.1 5.1-2s-6.2-31.2-37.8-31.2c-32.9 0-38.6 30.8-38.6 30.8z"/><path d="m11.8 41.4 6.8 2.8 6.4 2.2s3 19.9 26.8 20.9c14.5-.7 21.2-12 21.2-12s1 1.1 5.6 2.4 6.6 1 6.6 1-9.3 20.7-35.8 20.7c-36.3-3.3-37.6-38-37.6-38z"/><path d="m0 27.4v8.8s24.2 14.2 52.8 14.2 51.2-14.4 51.2-14.4v-8.8s-24.5 11.2-52.1 11.1c-27.6-.2-51.9-10.9-51.9-10.9z"/><path d="m175.4 25.6c-3-5.5-6.6-9.6-10.9-12.2s-9.4-3.9-15.3-3.9c-7.8 0-14.4 3-19.8 8.9s-8.1 13.2-8.1 21.9 2.7 16 8.2 21.8c5.4 5.8 12.2 8.8 20.2 8.8 5.9 0 11-1.4 15.5-4.3s7.9-6.9 10.2-12.2h10.7c-2.9 8.2-7.5 14.5-13.8 19s-13.7 6.7-22.2 6.7c-10.9 0-20.2-3.9-27.7-11.6-7.5-7.8-11.3-17.1-11.3-28 0-11.2 3.8-20.6 11.4-28.4s16.9-11.6 27.8-11.6c8.2 0 15.4 2.2 21.7 6.6 6.2 4.4 10.9 10.6 14 18.6h-10.6z"/><path d="m196 40.2c0-11.1 3.8-20.6 11.4-28.4 7.6-7.9 16.6-11.8 27-11.8 10.9 0 20.3 3.9 28 11.6s11.6 17 11.6 27.7c0 11.3-3.8 20.9-11.3 28.8-7.6 8-16.7 11.9-27.5 11.9-10.9 0-20.2-3.9-27.8-11.7-7.6-7.7-11.4-17.1-11.4-28.1zm10.2-.1c0 8.7 2.8 16 8.3 21.9s12.4 8.8 20.7 8.8c8.1 0 14.9-2.9 20.4-8.8s8.2-13.2 8.2-22c0-8.9-2.8-16.3-8.3-22-5.6-5.7-12.6-8.6-21.2-8.6-7.7 0-14.3 3-19.8 8.9-5.5 5.8-8.3 13.1-8.3 21.8z"/><path d="m295.1 77.9h-9.8v-75.5h9.1v8.7c2.4-3.3 5-5.8 7.8-7.3 2.8-1.6 6.1-2.4 9.9-2.5l.1 10.5c-6.1.5-10.4 2.4-13.1 5.5-2.6 3.1-3.9 8.1-3.9 15.1v45.5z"/><path d="m394.6 43.3h-68.2c.6 8.2 3.6 14.9 8.9 19.9 5.4 5.1 12 7.6 20.1 7.6 5.7 0 10.8-1.5 15.3-4.4s8-7 10.5-12.3h11c-3.5 8.4-8.4 14.8-14.7 19.2-6.3 4.5-13.6 6.7-21.9 6.7-11 0-20.3-3.9-27.9-11.7s-11.4-17.2-11.4-28.2c0-11.5 3.7-21 11.2-28.5 7.4-7.5 16.9-11.3 28.5-11.3 11.4 0 20.6 3.9 27.8 11.7s10.7 18 10.7 30.5v.8zm-10.7-8.5c-1.8-8.4-5.2-14.7-10.1-19-4.9-4.2-11.3-6.4-19.2-6.4-7.3 0-13.5 2.3-18.6 6.8-5.1 4.6-8.2 10.7-9.3 18.5h57.2z"/></g></svg>