<svg id="Layer_1" xmlns="http://www.w3.org/2000/svg" width="357" height="91"><style>.st0{fill:#fff}</style><path class="st0" d="M10.3 36.9l4.4 2 5.2.8S24 21.6 41.8 22C60.2 22.4 63 39.8 63 39.8l5.4-.9 4.2-1.6s-5-25.5-30.8-25.5c-26.8 0-31.5 25.1-31.5 25.1m-.7 7.6l5.6 2.3 5.3 1.8S23 64.8 42.4 65.7c11.8-.6 17.3-9.8 17.3-9.8s.9.9 4.6 1.9c3.8 1.1 5.4.8 5.4.8s-7.6 16.9-29.2 16.9c-29.8-2.7-30.9-31-30.9-31"/><path class="st0" d="M0 33.1v7.2s19.7 11.6 43.1 11.6C66.4 51.8 84.8 40 84.8 40v-7.2s-20 9.1-42.5 9C19.8 41.9 0 33.1 0 33.1m138.7-6.4c2.3-3.2 5.1-5.6 8.4-7.3 3.3-1.7 7.1-2.5 11.2-2.5 7.5 0 13 2.3 16.5 6.8 3.4 4.5 5.1 11.8 5.1 21.8v28h-6.8V44c0-7.3-1.2-12.6-3.6-15.7-2.4-3.1-6.4-4.7-11.9-4.7-3.2 0-6 .7-8.4 1.9-2.4 1.3-4.3 3.2-5.7 5.6-.8 1.5-1.4 3.2-1.8 5.2-.4 1.9-.6 5.3-.6 10.1v27h-6.7v-31c0-6.4-1.3-11.1-3.9-14.2-2.6-3-6.6-4.6-11.9-4.6-3.2 0-6.1.7-8.5 1.9-2.4 1.3-4.4 3.2-5.8 5.6-.9 1.5-1.5 3.2-1.8 5.2-.3 1.9-.5 5.3-.5 10.1v27h-7V18h7v6.3c2.1-2.5 4.6-4.3 7.5-5.6 2.9-1.2 6.1-1.9 9.8-1.9 4.2 0 8 .9 11.5 2.7 3.5 1.8 6.1 4.2 7.9 7.2m99.6 18.7c0-5.9-2.1-11-6.3-15.4-4.2-4.4-9.1-6.6-14.5-6.6-6 0-11 2.2-15.2 6.6-4.2 4.4-6.3 9.8-6.3 16.3 0 6.2 2.1 11.4 6.3 15.7 4.2 4.3 9.2 6.4 15 6.4 5.7 0 10.6-2.2 14.8-6.7 4.1-4.6 6.2-10 6.2-16.3m0 19.3c-2.2 3.2-5.2 5.7-9 7.5-3.8 1.8-7.9 2.7-12.2 2.7-8.1 0-14.9-2.8-20.3-8.4-5.4-5.6-8.1-12.4-8.1-20.6 0-8.3 2.8-15.3 8.3-20.8 5.5-5.6 12.5-8.4 20.8-8.4 4.3 0 8.2.9 11.8 2.6 3.6 1.7 6.5 4.2 8.9 7.5V18h7v55.5h-7v-8.8zm25.4-53.2h-7.1V0h7.1v11.5zm0 6.5v55.7c0 6.7-.9 11.4-2.8 13.9s-5.1 3.8-9.6 3.8h-1.5v-6.6c2.7 0 4.5-.5 5.4-1.5.9-1 1.4-3.8 1.4-8.5V18h7.1zm16 27.7c0 6.4 2 11.8 6.1 16.1 4.1 4.3 9.1 6.5 15.2 6.5 6 0 11-2.2 15-6.5s6.1-9.7 6.1-16.2c0-6.6-2-12-6.1-16.2-4.1-4.2-9.3-6.3-15.6-6.3-5.7 0-10.5 2.2-14.6 6.5s-6.1 9.7-6.1 16.1m-7.5.1c0-8.1 2.8-15.1 8.4-20.9 5.6-5.8 12.2-8.7 19.8-8.7 8 0 14.9 2.8 20.6 8.5 5.7 5.7 8.5 12.5 8.5 20.3 0 8.3-2.8 15.4-8.3 21.2-5.6 5.9-12.3 8.8-20.2 8.8-8 0-14.8-2.9-20.4-8.6-5.6-5.7-8.4-12.6-8.4-20.6M345 73.5h-7.2V18h6.7v6.4c1.8-2.5 3.7-4.3 5.7-5.4 2.1-1.1 4.5-1.7 7.2-1.8v7.7c-4.5.4-7.7 1.7-9.6 4-1.9 2.3-2.9 6-2.9 11.1v33.5z"/></svg>