<svg viewBox="0 0 189 189" width="189" height="189" xmlns="http://www.w3.org/2000/svg"><g fill="none" stroke="#fff" stroke-width="5.3903"><path d="m52.8 74.7h12.7v57.5h-12.7z"/><path d="m124.8 74.7h12.7v57.6h-12.7z"/><path d="m101.1 74.7h12.7v57.5h-12.7z"/><path d="m76.8 74.5h12.7v57.9h-12.7z"/><path d="m45.9 139.7h99.4v8.1h-99.4z"/><path d="m44.2 66.5 50.8-44.1 49.7 44.1z"/></g><path d="m25.1 157.9-2.9-3.4c-1.7-2-1.7-3.2-.5-4.3.9-.8 1.9-.7 2.8.1-.8-1.3-.5-2.5.3-3.2 1.1-.9 2.7-.9 4.3 1.1l3.1 3.7zm2.2-3.7-2.2-2.7c-.7-.9-1.5-1.1-2.3-.5-.7.6-.8 1.3.3 2.7l1.9 2.3zm3.4-2.8-2.1-2.5c-1.2-1.4-2.1-1.3-2.8-.7-.8.7-.8 1.7.3 2.9l2 2.4zm-16-7.1c-2.1-3.4-.5-6 1.4-7.2s4.9-1.5 7.1 1.9c2.1 3.4.5 6-1.4 7.2-2 1.2-5 1.5-7.1-1.9zm7.5-4.7c-1.2-1.9-3.4-2.5-5.4-1.2-2 1.2-2.5 3.4-1.3 5.4 1.2 1.9 3.4 2.5 5.4 1.2 2-1.2 2.5-3.4 1.3-5.4zm-8.2-12.5 2.4 5.3 2.8.1.6 1.4-10.6-.6-.6-1.5 6.7-8.3.6 1.4zm-.8.9-3.4 4.1 5.3.2zm1.1-7.1.4 1.3-9.1 2.7-1.3-4.5c-.8-2.8-.1-3.7 1.4-4.1 1.1-.3 2.2.2 2.7 1.5-.2-1.3.2-1.7 1.7-2.4.9-.4 1.7-.8 2.2-1.2l.4 1.4c-.6.4-1.8.9-2.8 1.5-.6.3-1 .9-.4 2.6l.7 2.5zm-5.1 1.5-.9-3c-.4-1.4-1-2.1-2.1-1.8s-1.3 1-.8 2.6l.9 3zm-6.8-9.1-.6-3.6c-.6-4.2.9-5.8 3.9-6.3 2.9-.4 4.8 1 5.4 4.7l.6 3.8zm8.1-2.6-.4-2.5c-.5-3.1-2.4-3.6-4.2-3.3-2.4.4-3.5 1.6-3 4.8l.3 2.2zm-10-20.7c.2-4 3-5.2 5.2-5.1 2.3.1 4.9 1.6 4.7 5.6s-3 5.2-5.2 5.1c-2.2-.2-4.9-1.6-4.7-5.6zm8.9.4c.1-2.3-1.4-4-3.7-4.1s-4 1.4-4.1 3.7 1.4 4 3.7 4.1 4-1.4 4.1-3.7zm-7.9-9.2 1.2-6.6 1.1.2-.9 5.3 3.1.5.9-5 1.1.2-.9 5 4.2.7-.2 1.3-9.6-1.6zm12.7-12.9-.5 1.3-8.9-3.2 1.7-4.4c1-2.8 2.1-3 3.6-2.5 1.1.4 1.6 1.5 1.3 2.8.6-1.1 1.2-1.3 2.8-1 1 .2 1.8.4 2.5.3l-.5 1.4c-.7 0-2-.3-3.1-.4-.7-.1-1.3.2-1.9 1.8l-.9 2.5zm-4.9-1.8 1.1-2.9c.5-1.4.5-2.3-.7-2.7-1.1-.4-1.7.1-2.2 1.6l-1.1 2.9zm-.1-11.3 3.2-6.3 1 .5-2.6 5.1 2.7 1.4 2.4-4.8 1 .5-2.4 4.8 2.9 1.5 2.7-5.2 1 .5-3.3 6.5zm11.9-11.7 2.5-3.6 3.5 2.4c-.4 1.7-1 3.1-1.8 4.3-2.2 3.2-5.1 3.3-7.3 1.8-2-1.3-3.3-4-1.1-7.3 1.5-2.2 3.1-3.1 4.9-2.3l-.8 1.2c-1.2-.4-2.2.4-3.1 1.6-1.5 2.2-.9 4.4.9 5.6 1.7 1.2 4.1 1 5.6-1.2.6-.9 1.1-2 1.3-2.9l-2-1.4-1.7 2.4zm1.4-9.3 4.7-5.3.8.7-3.8 4.3 2.2 2 3.6-4 .8.7-3.6 4 2.4 2.2 3.9-4.4.8.7-4.8 5.4zm13.2-12.9 1-.9 6.2 7.2-1.4 1.2-9.7-2.3 5.3 6.1-1 .9-6.2-7.2 1.4-1.2 9.7 2.3zm7.1-3.8-3.3 2.2-.6-1 7.8-5.2.6 1-3.3 2.2 4.6 6.9-1.1.8zm13.3-6c-.7-1.1-2.1-.9-3.5-.2-1.2.6-1.9 1.7-1.5 2.7.2.5.7.8 1.9.4l3.4-1c1.5-.5 2.5 0 3 1.1.8 1.7-.2 3.5-2.7 4.7-2.4 1.2-4.3 1-5.3-.8l1.3-.6c.6 1.1 2 1.2 3.6.4 1.8-.9 2.4-2.1 1.9-3-1.2-2.3-6.6 3-8.4-.5-.8-1.6.1-3.3 2.4-4.4 1.8-.9 3.9-1.3 5 .6zm13.5-7.8c3.8-1.1 5.9 1.2 6.5 3.4s0 5.2-3.8 6.2c-3.8 1.1-5.9-1.2-6.5-3.4s0-5.1 3.8-6.2zm2.4 8.6c2.2-.6 3.3-2.5 2.7-4.8s-2.6-3.4-4.8-2.7c-2.2.6-3.3 2.5-2.7 4.8.6 2.2 2.5 3.3 4.8 2.7zm6.2-10.3 6.7-1 .1 1.1-5.3.8.4 3.1 5.1-.7.2 1.1-5.1.6.6 4.2-1.4.2zm18-.2-4-.1v-1.2l9.4.2v1.2l-4-.1-.2 8.3h-1.4zm14.8 5.3-6-.9-.7 4.4-1.3-.2 1.4-9.4 1.4.2-.6 3.9 6 .9.6-3.9 1.3.2-1.4 9.4-1.3-.2zm6.1-3.8 6.8 2-.3 1-5.5-1.6-.8 2.9 5.2 1.5-.3 1-5.2-1.5-.9 3.1 5.7 1.6-.3 1-7-2zm22.1 8.5 1.2.6-2.5 5.1c-1.2 2.4-3.5 2.8-5.8 1.7-2.3-1.2-3.3-3.2-2.1-5.6l2.5-5.1 1.2.6-2.6 5.1c-.8 1.6-.3 3.1 1.4 4 1.8.9 3.2.4 4-1.3zm11 7 1.1.8-5.4 7.8-1.5-1.1-.2-10-4.6 6.7-1.1-.8 5.4-7.8 1.5 1.1.2 10zm3.8 3 1.1.9-6.1 7.3-1.1-.9zm2.8 2.3 1.1 1.1-3.2 8.5 8.5-3.3 1 1-9.8 3.7-1.2-1.2zm9.2 9.3 4.4 5.6-.8.7-3.6-4.5-2.3 1.9 3.3 4.2-.8.7-3.3-4.2-2.6 2 3.7 4.6-.8.7-4.5-5.7zm-.9 14.7-.7-1.2 8.1-5 2.4 4c1.5 2.5 1 3.6-.3 4.4-1 .6-2.2.3-3-.7.5 1.2.3 1.7-1 2.8-.8.7-1.4 1.2-1.8 1.8l-.8-1.2c.4-.6 1.5-1.4 2.3-2.1.5-.5.7-1.1-.3-2.6l-1.4-2.2zm4.5-2.8 1.6 2.7c.8 1.2 1.5 1.8 2.5 1.2s1-1.3.1-2.8l-1.6-2.7zm9.4 14.1c1.2-.7.9-2 .3-3.4-.6-1.2-1.6-2-2.6-1.6-.5.2-.8.7-.5 1.9l.9 3.5c.4 1.5-.1 2.5-1.2 3-1.7.8-3.5-.3-4.6-2.9-1.1-2.5-.8-4.3 1-5.3l.6 1.3c-1.1.6-1.3 2-.6 3.6.8 1.8 2 2.5 2.9 2 2.4-1.1-2.8-6.7.9-8.3 1.7-.7 3.3.2 4.3 2.6.8 1.8 1.1 3.9-.8 5zm4 3.4.5 1.3-8.9 3.1-.4-1.3zm1.1 7.5-1-3.9 1.1-.3 2.4 9.1-1.1.3-1-3.9-8.1 2.1-.3-1.3zm-6 12.1 3.9-.5 4.9-5.2.2 1.7-3.9 4 4.8 2.8.2 1.7-6.1-3.7-3.9.5zm7.6 19.3c1.3-.1 1.8-1.4 1.8-2.9.1-1.3-.5-2.5-1.6-2.6-.5 0-1.1.3-1.3 1.4l-.8 3.5c-.3 1.5-1.2 2.2-2.4 2.1-1.9-.1-2.9-1.8-2.8-4.6.1-2.7 1.2-4.2 3.3-4.3l-.1 1.4c-1.3 0-2.1 1.2-2.2 3-.1 2 .6 3.1 1.7 3.1 2.6.1.6-7.2 4.6-7.1 1.8.1 2.8 1.7 2.7 4.3-.1 2-.8 4-3 4.1zm-7.9 6.9 3.9.7 6.2-3.5-.3 1.7-4.9 2.6 3.7 4.1-.3 1.7-4.7-5.4-3.9-.7zm3.2 15.7c1.3.3 2.1-.9 2.5-2.4.4-1.3.1-2.6-.9-2.9-.5-.2-1.1 0-1.6 1l-1.6 3.2c-.7 1.4-1.8 1.8-2.9 1.5-1.8-.6-2.4-2.5-1.6-5.2.8-2.6 2.2-3.8 4.3-3.3l-.4 1.4c-1.2-.3-2.3.6-2.8 2.3-.6 1.9-.2 3.1.8 3.5 2.5.8 2.4-6.9 6.2-5.7 1.7.5 2.3 2.3 1.5 4.8-.6 1.9-1.8 3.7-3.9 3.2zm-1.6 7.6 1.7-3.7 1.1.5-3.9 8.6-1.1-.5 1.7-3.7-7.6-3.4.6-1.2zm-2.5 7.7-3.6 6.1-.9-.6 2.9-4.9-2.6-1.5-2.7 4.6-.9-.6 2.7-4.6-2.8-1.7-3 5-.9-.6 3.7-6.2zm-7.4 10-6.6-5.4.9-1.1 7.3 6-1.4 1.7-9.1-2.1 3.8 8.5-1.4 1.7-7.3-6 .9-1.1 6.6 5.4-3.9-8.7.9-1.1z" fill="#fff"/><path d="m38.9 162.1c1 .8 1.2 2.3.3 3.3-.8 1-2.3 1.2-3.3.3-1-.8-1.2-2.3-.3-3.3.8-1 2.3-1.2 3.3-.3zm13.8 6.3c3.5 2 3.3 5 2.2 7s-3.6 3.7-7.1 1.7-3.3-5-2.2-7 3.6-3.7 7.1-1.7zm-4.5 7.7c2 1.1 4.2.6 5.3-1.5 1.2-2 .6-4.2-1.4-5.3s-4.2-.6-5.3 1.5c-1.1 2-.6 4.2 1.4 5.3zm11.2-3.9 6.2 2.6-.4 1-5-2-1.2 2.9 4.7 1.9-.4 1-4.7-1.9-1.6 3.9-1.3-.5zm15.8 10 4.3 1-1 4.2c-1.7.3-3.2.2-4.7-.1-3.8-.9-4.9-3.5-4.3-6.1.5-2.3 2.6-4.5 6.4-3.7 2.6.6 4.1 1.7 3.9 3.7l-1.4-.3c-.1-1.3-1.1-1.9-2.6-2.3-2.6-.6-4.4.8-4.9 2.9-.5 2 .5 4.2 3.2 4.8 1 .2 2.2.3 3.2.1l.5-2.4-3-.7zm9-3 7.1.6-.1 1.1-5.7-.5-.2 3 5.3.4-.1 1.1-5.3-.4-.3 3.2 5.9.5-.1 1.1-7.2-.6zm14.8.2c4-.2 5.5 2.5 5.6 4.7.1 2.3-1.1 5-5.1 5.3-4 .2-5.5-2.5-5.6-4.7-.1-2.3 1.1-5.1 5.1-5.3zm.5 8.9c2.3-.1 3.8-1.8 3.7-4.1s-1.8-3.8-4.1-3.7-3.8 1.8-3.7 4.1 1.8 3.8 4.1 3.7zm10.3-.2-1.3.3-1.8-9.3 4.6-.9c2.9-.5 3.7.3 4 1.8.2 1.1-.4 2.1-1.7 2.6 1.3-.1 1.7.4 2.3 1.9.3 1 .6 1.8 1 2.3l-1.4.3c-.4-.6-.8-1.9-1.2-2.9-.3-.6-.8-1-2.6-.7l-2.6.5zm-.9-5.2 3.1-.6c1.4-.3 2.2-.8 2-2-.2-1.1-.9-1.4-2.5-1.1l-3.1.6zm15.3-3.5 4.2-1.4 1.4 4.1c-1.3 1.1-2.6 1.9-4 2.3-3.6 1.2-6-.4-6.9-2.9-.8-2.2-.2-5.2 3.5-6.5 2.5-.9 4.4-.7 5.3 1.1l-1.4.5c-.7-1-2-1-3.4-.5-2.5.9-3.3 3-2.6 5s2.6 3.3 5.2 2.4c1-.3 2-.9 2.8-1.6l-.8-2.3-2.9 1zm5.2-6.9 1.2-.6 3.9 8.6-1.2.6zm13.6.7-5 2.9.2 2.7-1.3.8-.5-10.6 1.4-.8 8.9 5.8-1.4.8zm-.9-.7-4.4-3 .3 5.3zm8.1-10.2c1-.8 2.5-.7 3.3.3s.7 2.5-.3 3.3-2.5.7-3.3-.3c-.8-.9-.7-2.4.3-3.3z" fill="#fff"/></svg>