<svg id="Layer_1" data-name="Layer 1" xmlns="http://www.w3.org/2000/svg" viewBox="0 0 147.72 193.5"><defs><style>.cls-1,.cls-2,.cls-3{fill:#fff;}.cls-2,.cls-3{stroke:#fff;stroke-miterlimit:10;}.cls-2{stroke-width:3px;}.cls-3{stroke-width:2px;}</style></defs><title>atlanta-metropolitan-state-college</title><path class="cls-1" d="M30.4,104.43l-9,2.95-1.4-2.1,6.26-7.13,1.11,1.68L26,101.37l1.44,2.18,2-.69Zm-8.2,1L26,104l-1-1.52Zm-6.5-8,1.36-.69,1,1.9,6.8-3.47.87,1.71L18.9,100.4l1,1.9-1.36.69Zm8-4.8-8.57,3.26-.68-1.79,7.14-2.71-1-2.68L22,88.22Z" transform="translate(0)"/><path class="cls-1" d="M21.92,88.34l-9.51-.27-.6-2.45L20.12,81l.48,2-1.85,1,.63,2.54h2.1Zm-8.07-1.82,4-.1-.44-1.77ZM20,80.4l-9.12.87-.24-2.58,6.09-3-6.32.6-.17-1.78,9.12-.87.24,2.51-6.4,3.08,6.67-.63ZM10.48,66.47l1.52.06-.08,2.13,7.63.29-.07,1.91-7.63-.29-.08,2.13-1.52-.06Zm9,1.14-8.68-3.88.38-2.5,9.43-1.09-.3,2-2.08.2-.39,2.58,1.93.82Zm-6.76-4.76,3.78,1.46.27-1.81Z" transform="translate(0)"/><path class="cls-1" d="M21,51.76a2.31,2.31,0,1,1,0-.08Z" transform="translate(0)"/><path class="cls-1" d="M26.67,44.82,19.2,39.51,21,37l5.91,2.44-4.2-4.85,1.73-2.43,7.47,5.31L30.83,39l-5.76-4.1,4.74,5.53-1.06,1.49L22,39.18l5.76,4.1Zm6.16-8.23-6.58-6.38,3.48-3.59,1,1-2.13,2.2,1.62,1.57,2-2,1,1-2,2,1.92,1.86L35.36,32l1,1Zm2.7-14.87,1,1.18-1.65,1.35,4.85,5.91-1.48,1.22L33.4,25.47l-1.65,1.35-1-1.18Zm7.94,5.72-1.62,1-4.92-7.73,3-1.9a2.09,2.09,0,0,1,3.1.87,2,2,0,0,1-.23,2.81,1.63,1.63,0,0,1,2.26.44l.11.19a12.24,12.24,0,0,0,1.63,2.16l-1.59,1a4.2,4.2,0,0,1-1.12-1.39c-.59-.92-1-1.76-2.24-1l-.42.27ZM40.67,23l.72-.46c.64-.41.42-1.17.1-1.66-.47-.74-1-.82-1.47-.49l-.72.46Zm4.95-2.25c-1-2.2-2-4.3.88-5.62s3.84.77,4.85,3,2,4.3-.88,5.62S46.63,22.93,45.62,20.75Zm4-1.84c-1-2.13-1.54-3-2.52-2.54s-.68,1.43.3,3.56,1.54,3,2.52,2.54.66-1.47-.32-3.56Zm2.16-5.83,3.3-1c1.67-.51,2.64.31,3.13,1.91a2.36,2.36,0,0,1-1.12,3.14,2.55,2.55,0,0,1-.53.18l-1.36.42,1.09,3.57-1.83.56Zm3,3.28,1-.31a1.14,1.14,0,0,0,.56-1.46c-.22-.72-.6-1.26-1.42-1l-.92.28Zm5.33-.95c-.39-2.39-.77-4.67,2.35-5.18S66,12,66.35,14.38s.77,4.67-2.35,5.18S60.5,17.78,60.11,15.41Zm4.32-.71c-.38-2.32-.68-3.3-1.75-3.12s-1,1.2-.66,3.52.68,3.3,1.75,3.12S64.81,17,64.43,14.7Zm3.95,4.14L68,9.69l1.91-.08.32,7.63,2.87-.12.06,1.52Zm5.44-.13.35-9.16,1.91.07-.35,9.15Zm9.91-8.27L83.54,12l-2.11-.27-1,7.58L78.55,19l1-7.58-2.11-.27.19-1.51Zm-2,8.9,4.66-8.29,2.45.6.22,9.49-2-.48V18.57l-2.54-.63-1,1.85ZM87.14,13l-1.8,3.64,1.77.44Zm2.55,8.36,3.47-8.48,2.4,1-.15,6.8,2.41-5.87,1.66.68L96,24l-2.34-1,.23-7.15L91.34,22Z" transform="translate(0)"/><path class="cls-1" d="M102.36,25a2.28,2.28,0,1,1,3.15-.71,2.28,2.28,0,0,1-3.15.71Z" transform="translate(0)"/><path class="cls-1" d="M105.69,30.37c-1.85-1.49-1.32-2.85-.25-4l1.49,1.2c-.55.68-1,1.28-.16,1.94a.92.92,0,0,0,1.3-.07l.1-.14c1-1.29-1.91-3.78-.2-5.91.9-1.12,2.15-1.58,4-.12,1.45,1.17,1.65,2.4.35,3.82l-1.45-1.17c.43-.53.78-1.15.17-1.63a.9.9,0,0,0-1.26,0,1.58,1.58,0,0,0-.12.15c-1.09,1.36,2,3.65.21,5.9C108.36,32.15,106.83,31.28,105.69,30.37Zm13.75.14-1.09,1.06-1.49-1.52L111.4,35.4,110.06,34l5.46-5.34L114,27.16l1.09-1.06Zm-7,5.78,8.79-3.63,1.55,2L117,42.25l-1.24-1.59L117.08,39l-1.61-2.06-1.92.84Zm8.11-1.63-3.66,1.74L118,37.84Zm7.07,7.44-1.3.79-1.11-1.82-6.52,4-1-1.64,6.52-4-1.11-1.82,1.3-.79ZM120,47.47l8.32-3.84,2.1,4.54-1.28.59L127.87,46l-2.05,1L127,49.49l-1.28.59-1.19-2.58-2.43,1.12,1.34,2.89-1.28.59Z" transform="translate(0)"/><path class="cls-1" d="M126.11,56.78a2.28,2.28,0,1,1,2.82,1.58,2.28,2.28,0,0,1-2.82-1.58Z" transform="translate(0)"/><path class="cls-1" d="M129.8,62.59c2.41-.27,4.7-.53,5.06,2.61.22,1.94-.76,2.84-2.73,3l-.21-1.87c1.21-.14,1.64-.4,1.58-1-.12-1.07-1.14-1.1-3.48-.83s-3.33.52-3.2,1.59c.1.88,1.23.72,2,.66l.21,1.88c-2.43.27-3.32-.61-3.53-2.39-.4-3.12,1.92-3.38,4.3-3.65Zm.73,7.35c2.42,0,4.73.1,4.67,3.25s-2.37,3.11-4.8,3.06-4.73-.1-4.67-3.25S128.13,69.89,130.53,69.94Zm-.09,4.38c2.35,0,3.36-.07,3.39-1.15s-1-1.24-3.34-1.29S127.13,72,127.1,73s1,1.24,3.34,1.28Zm-4.78,3.11,9.07,1.28-.27,1.9-7.57-1.07-.4,2.84L125,82.17Zm-.83,5.36,8.89,2.2-.46,1.86L125.84,85l-.69,2.78-1.48-.37ZM123.48,88l8.6,3.15-1.72,4.7L129,95.36l1.06-2.9L128,91.69l-1,2.67-1.32-.48,1-2.67-2.51-.92-1.1,3-1.32-.48ZM125,100.34c.75.4,1.48.62,2-.28.55-1.06-.88-1.8-2.46-2.62-2.54-1.32-3.12-1.31-3.63-.34a3,3,0,0,0-.28.93l1.8.94.48-.92,1.25.65-1.36,2.62-4.12-2.14a17.47,17.47,0,0,1,.92-2.44c1.49-2.86,2.84-2.57,5.92-1,2,1.07,4.08,2.25,2.63,5-.87,1.67-2.34,2.22-4,1.23Zm-7.21-.07,7.53,5.22-2.85,4.11-1.16-.8,1.76-2.53L121.21,105l-1.62,2.34-1.16-.8,1.62-2.34-2.2-1.53L116,105.26l-1.16-.8Z" transform="translate(0)"/><path class="cls-1" d="M38.91,142,48,127.71h62.56L76.14,65.15,26.83,142l7.34,12.51h76.36l3-4.31h19l-16.4,19.41H26.83L7.85,142,78.17,36.67l54.37,104.42Z" transform="translate(0)"/><path class="cls-2" d="M16.82,192H131.24" transform="translate(0)"/><path class="cls-1" d="M61.58,149.05a.75.75,0,1,1,.75-.75A.77.77,0,0,1,61.58,149.05Zm21.57,0a.75.75,0,1,1,.75-.75A.77.77,0,0,1,83.15,149.05ZM21.78,180.83v-.17H24v.17h-.24a.64.64,0,0,0-.57.31,1.39,1.39,0,0,0-.1.67v2.55a4.57,4.57,0,0,1-.19,1.47,1.79,1.79,0,0,1-.74.89,2.61,2.61,0,0,1-1.49.37,2.83,2.83,0,0,1-1.56-.36,1.89,1.89,0,0,1-.76-1,5.08,5.08,0,0,1-.15-1.55v-2.46A1.27,1.27,0,0,0,18,181a.67.67,0,0,0-.52-.18H17.3v-.17H20v.17h-.24a.61.61,0,0,0-.56.25,1.4,1.4,0,0,0-.12.7v2.74a6,6,0,0,0,.07.84,1.79,1.79,0,0,0,.24.74,1.28,1.28,0,0,0,.51.44,1.74,1.74,0,0,0,.81.17,2.24,2.24,0,0,0,1.1-.27,1.45,1.45,0,0,0,.67-.69,4,4,0,0,0,.18-1.42v-2.54a1.27,1.27,0,0,0-.13-.74.68.68,0,0,0-.54-.2Zm3.86,2.65a2,2,0,0,1,1.42-.9,1,1,0,0,1,.6.17,1.11,1.11,0,0,1,.4.57,2.71,2.71,0,0,1,.1.85V186a1.69,1.69,0,0,0,.06.55.35.35,0,0,0,.16.18,1,1,0,0,0,.42.06V187H26.7v-.17h.09a.73.73,0,0,0,.41-.09.47.47,0,0,0,.16-.27,3.23,3.23,0,0,0,0-.44v-1.74a1.72,1.72,0,0,0-.15-.84.53.53,0,0,0-.51-.26,1.49,1.49,0,0,0-1.1.6V186a1.57,1.57,0,0,0,0,.53.49.49,0,0,0,.18.2,1.19,1.19,0,0,0,.46.06V187h-2.1v-.17h.09a.52.52,0,0,0,.44-.16,1.24,1.24,0,0,0,.11-.63v-1.58a7.21,7.21,0,0,0,0-.93.38.38,0,0,0-.11-.23.31.31,0,0,0-.19-.06.82.82,0,0,0-.31.07l-.07-.17,1.28-.52h.2Zm5-.9V186a1.57,1.57,0,0,0,.06.53.41.41,0,0,0,.17.2,1,1,0,0,0,.41.06V187H29.19v-.17a1,1,0,0,0,.42-.06.41.41,0,0,0,.17-.2,1.57,1.57,0,0,0,.06-.53v-1.64a6.61,6.61,0,0,0,0-.89.35.35,0,0,0-.1-.21.31.31,0,0,0-.19-.06.88.88,0,0,0-.32.07l-.06-.17,1.28-.52Zm-.38-2.22a.47.47,0,0,1,.47.47h0a.47.47,0,1,1-.47-.47Zm1.33,2.34h2v.17h-.13a.37.37,0,0,0-.28.09.31.31,0,0,0-.1.24,1,1,0,0,0,.1.38l1,2.35,1-2.43a1,1,0,0,0,.11-.39.21.21,0,0,0,0-.11.3.3,0,0,0-.13-.09h-.32v-.17H36.2v.17a.64.64,0,0,0-.33.1,1.24,1.24,0,0,0-.29.46L34,187.08h-.19l-1.52-3.58a1.55,1.55,0,0,0-.19-.36.69.69,0,0,0-.24-.18,1.09,1.09,0,0,0-.31-.08Zm5.68,1.6a2.2,2.2,0,0,0,.46,1.48,1.37,1.37,0,0,0,1.09.54,1.14,1.14,0,0,0,.73-.23,1.69,1.69,0,0,0,.52-.79l.14.09a2.23,2.23,0,0,1-.57,1.16,1.49,1.49,0,0,1-1.17.52,1.74,1.74,0,0,1-1.31-.6,2.28,2.28,0,0,1-.54-1.6,2.38,2.38,0,0,1,.56-1.7,1.82,1.82,0,0,1,1.4-.61,1.6,1.6,0,0,1,1.17.47,1.73,1.73,0,0,1,.46,1.26Zm0-.27h2a1.85,1.85,0,0,0-.1-.57.93.93,0,0,0-.35-.41.83.83,0,0,0-.48-.15,1,1,0,0,0-.69.3,1.28,1.28,0,0,0-.38.8ZM42,182.58v1c.35-.67.72-1,1.09-1a.58.58,0,0,1,.42.16.46.46,0,0,1,.17.36.43.43,0,0,1-.12.31.39.39,0,0,1-.29.13.62.62,0,0,1-.36-.16.59.59,0,0,0-.3-.16.31.31,0,0,0-.18.09,2.27,2.27,0,0,0-.43.63v2a1.21,1.21,0,0,0,.09.53.53.53,0,0,0,.21.21,1,1,0,0,0,.44.08v.17H40.55v-.17a.89.89,0,0,0,.48-.1.4.4,0,0,0,.16-.24,3.38,3.38,0,0,0,0-.45v-1.65a6.46,6.46,0,0,0,0-.88.29.29,0,0,0-.31-.27.88.88,0,0,0-.32.07v-.17l1.28-.52Zm4.65,0V184H46.5a1.89,1.89,0,0,0-.45-.93,1,1,0,0,0-.7-.25.76.76,0,0,0-.52.17.51.51,0,0,0-.2.38.69.69,0,0,0,.15.44,1.67,1.67,0,0,0,.58.4l.68.33a1.38,1.38,0,0,1,.94,1.21,1.13,1.13,0,0,1-.44.93,1.53,1.53,0,0,1-1,.35,3.37,3.37,0,0,1-.89-.14H44.4a.18.18,0,0,0-.17.12h-.15V185.5h.15a1.74,1.74,0,0,0,.5,1,1.18,1.18,0,0,0,.82.33.72.72,0,0,0,.52-.19.59.59,0,0,0,.2-.45.7.7,0,0,0-.22-.54,4,4,0,0,0-.9-.55,2.65,2.65,0,0,1-.88-.6,1,1,0,0,1-.21-.67,1.17,1.17,0,0,1,.36-.88,1.29,1.29,0,0,1,.93-.35,2.12,2.12,0,0,1,.61.11,1.14,1.14,0,0,0,.32.07h.12a.45.45,0,0,0,.1-.14Zm2.41,0V186a1.57,1.57,0,0,0,.06.53.41.41,0,0,0,.17.2,1,1,0,0,0,.41.06V187H47.64v-.17a1,1,0,0,0,.42-.06.41.41,0,0,0,.17-.2,1.57,1.57,0,0,0,.06-.53v-1.64a6.61,6.61,0,0,0,0-.89.35.35,0,0,0-.1-.21.31.31,0,0,0-.19-.06.88.88,0,0,0-.32.07l-.06-.17,1.28-.52Zm-.38-2.22a.47.47,0,0,1,.47.47h0a.47.47,0,1,1-.47-.47Zm2.79.95v1.4h1V183h-1v2.75a.92.92,0,0,0,.12.56.37.37,0,0,0,.3.14.53.53,0,0,0,.3-.09.6.6,0,0,0,.22-.28h.18a1.38,1.38,0,0,1-.46.68,1,1,0,0,1-.61.23.79.79,0,0,1-.42-.12.76.76,0,0,1-.3-.34,1.76,1.76,0,0,1-.1-.68V183H50v-.15a1.64,1.64,0,0,0,.52-.35A2.84,2.84,0,0,0,51,182c.11-.21.21-.42.3-.64Zm1.16,1.39h2v.17h-.1a.44.44,0,0,0-.31.09.3.3,0,0,0-.1.22,1.21,1.21,0,0,0,.15.5l1,2.14,1-2.35a1,1,0,0,0,.08-.38.29.29,0,0,0,0-.13.2.2,0,0,0-.12-.08H56v-.17h1.38v.17a.77.77,0,0,0-.26.07.8.8,0,0,0-.2.21c-.06.12-.11.24-.16.36L55,187.76a2.18,2.18,0,0,1-.66.93,1.32,1.32,0,0,1-.78.32.62.62,0,0,1-.45-.16.47.47,0,0,1-.18-.36.4.4,0,0,1,.13-.31.5.5,0,0,1,.35-.12,1.23,1.23,0,0,1,.42.1l.23.07a.49.49,0,0,0,.3-.14,1.51,1.51,0,0,0,.33-.56l.3-.74-1.52-3.2a2.16,2.16,0,0,0-.22-.36.68.68,0,0,0-.53-.35ZM64,180.52v2.17h-.17a2.7,2.7,0,0,0-.3-1,1.57,1.57,0,0,0-.61-.59,1.68,1.68,0,0,0-.82-.22,1.13,1.13,0,0,0-.8.29.88.88,0,0,0-.32.67.77.77,0,0,0,.2.52,5.1,5.1,0,0,0,1.37.93,9.14,9.14,0,0,1,1.2.73,1.81,1.81,0,0,1,.5.6,1.62,1.62,0,0,1,.17.72,1.64,1.64,0,0,1-.55,1.23,2,2,0,0,1-1.43.52h-.51a4.5,4.5,0,0,1-.6-.17,2.82,2.82,0,0,0-.57-.15.24.24,0,0,0-.18.07.63.63,0,0,0-.1.29h-.17V185h.17a3.16,3.16,0,0,0,.32,1,1.59,1.59,0,0,0,.62.56,2,2,0,0,0,.92.22,1.29,1.29,0,0,0,.92-.31,1,1,0,0,0,.34-.72,1,1,0,0,0-.13-.47,1.53,1.53,0,0,0-.4-.44c-.32-.21-.66-.41-1-.59a9.2,9.2,0,0,1-1.15-.72,2,2,0,0,1-.52-.59,1.47,1.47,0,0,1-.18-.71,1.58,1.58,0,0,1,.52-1.17,1.84,1.84,0,0,1,1.32-.49,2.58,2.58,0,0,1,1.06.25,1.23,1.23,0,0,0,.37.12.29.29,0,0,0,.2-.07.5.5,0,0,0,.12-.29Zm1,2.18h2v.17h-.1a.44.44,0,0,0-.31.09.3.3,0,0,0-.1.22,1.21,1.21,0,0,0,.15.5l1,2.14,1-2.35a1,1,0,0,0,.08-.38.29.29,0,0,0,0-.13.2.2,0,0,0-.12-.08h-.28v-.17H69.7v.17a.77.77,0,0,0-.26.07.8.8,0,0,0-.2.21c-.06.12-.11.24-.16.36l-1.73,4.24a2.18,2.18,0,0,1-.66.93,1.32,1.32,0,0,1-.78.32.62.62,0,0,1-.45-.16.47.47,0,0,1-.18-.36.4.4,0,0,1,.13-.31.5.5,0,0,1,.35-.12,1.23,1.23,0,0,1,.42.1l.23.07a.49.49,0,0,0,.3-.14,1.51,1.51,0,0,0,.33-.56l.3-.74-1.52-3.2a2.16,2.16,0,0,0-.22-.36.68.68,0,0,0-.53-.35Zm7.76-.12V184h-.15a1.89,1.89,0,0,0-.45-.93,1,1,0,0,0-.7-.25.76.76,0,0,0-.52.17.51.51,0,0,0-.2.38.69.69,0,0,0,.15.44,1.67,1.67,0,0,0,.58.4l.68.33a1.38,1.38,0,0,1,.94,1.21,1.13,1.13,0,0,1-.44.93,1.53,1.53,0,0,1-1,.35,3.37,3.37,0,0,1-.89-.14h-.25a.18.18,0,0,0-.17.12H70.2V185.5h.15a1.74,1.74,0,0,0,.5,1,1.18,1.18,0,0,0,.82.33.72.72,0,0,0,.52-.19.59.59,0,0,0,.2-.45.7.7,0,0,0-.22-.54,4,4,0,0,0-.9-.55,2.65,2.65,0,0,1-.88-.6,1,1,0,0,1-.21-.67,1.17,1.17,0,0,1,.36-.88,1.29,1.29,0,0,1,.93-.35,2.12,2.12,0,0,1,.61.11,1.14,1.14,0,0,0,.32.07h.12a.45.45,0,0,0,.1-.14Zm2.18-1.27v1.4h1V183h-1v2.75a.92.92,0,0,0,.12.56.37.37,0,0,0,.3.14.53.53,0,0,0,.3-.09.6.6,0,0,0,.22-.28h.18a1.38,1.38,0,0,1-.46.68,1,1,0,0,1-.6.24.79.79,0,0,1-.42-.12.76.76,0,0,1-.3-.34,1.76,1.76,0,0,1-.1-.68V183h-.67v-.15a1.64,1.64,0,0,0,.52-.35,2.91,2.91,0,0,0,.47-.58c.11-.21.21-.42.3-.64Zm2.12,3a2.2,2.2,0,0,0,.46,1.48,1.37,1.37,0,0,0,1.09.54,1.14,1.14,0,0,0,.73-.23,1.69,1.69,0,0,0,.52-.79l.14.09a2.23,2.23,0,0,1-.57,1.16,1.49,1.49,0,0,1-1.17.52,1.74,1.74,0,0,1-1.31-.6,2.28,2.28,0,0,1-.54-1.6,2.38,2.38,0,0,1,.56-1.7,1.82,1.82,0,0,1,1.4-.61,1.6,1.6,0,0,1,1.17.47A1.7,1.7,0,0,1,80,184.3Zm0-.27h2a1.85,1.85,0,0,0-.1-.57.93.93,0,0,0-.35-.41.83.83,0,0,0-.48-.15,1,1,0,0,0-.69.3,1.28,1.28,0,0,0-.38.8Zm4.76-.55.55-.53a1.86,1.86,0,0,1,.45-.27,1.33,1.33,0,0,1,.48-.1,1,1,0,0,1,.69.23,1.16,1.16,0,0,1,.38.67,3.12,3.12,0,0,1,.81-.73,1.46,1.46,0,0,1,.68-.17,1.07,1.07,0,0,1,.6.17,1.12,1.12,0,0,1,.41.57,2.65,2.65,0,0,1,.1.84V186a1.69,1.69,0,0,0,.06.55.46.46,0,0,0,.17.17.83.83,0,0,0,.41.07V187h-2.1v-.17h.09a.73.73,0,0,0,.43-.11.38.38,0,0,0,.15-.24,3.38,3.38,0,0,0,0-.45v-1.83a1.53,1.53,0,0,0-.13-.73.62.62,0,0,0-.58-.3,1,1,0,0,0-.49.12,2.66,2.66,0,0,0-.6.46V186a1.63,1.63,0,0,0,0,.54.39.39,0,0,0,.18.18,1,1,0,0,0,.46.07V187H82.94v-.17a1,1,0,0,0,.48-.08.45.45,0,0,0,.18-.25,3.53,3.53,0,0,0,0-.46v-1.83a1.39,1.39,0,0,0-.15-.75.65.65,0,0,0-.57-.3,1,1,0,0,0-.5.13,1.78,1.78,0,0,0-.59.46V186a1.66,1.66,0,0,0,.06.54.35.35,0,0,0,.17.19,1.19,1.19,0,0,0,.46.06V187h-2.1v-.17a1,1,0,0,0,.41-.06.39.39,0,0,0,.18-.2A1.57,1.57,0,0,0,81,186v-1.62a6.76,6.76,0,0,0,0-.9.35.35,0,0,0-.1-.21.31.31,0,0,0-.19-.06.82.82,0,0,0-.31.07l-.07-.17,1.28-.52h.2Zm10.57-.9a1.88,1.88,0,0,1,1.55.73,2.23,2.23,0,0,1,.5,1.44,2.7,2.7,0,0,1-.27,1.15,1.94,1.94,0,0,1-1.82,1.18,1.8,1.8,0,0,1-1.52-.76,2.38,2.38,0,0,1-.48-1.45,2.49,2.49,0,0,1,.29-1.16,1.94,1.94,0,0,1,1.75-1.13Zm-.14.3a1.08,1.08,0,0,0-.49.15,1,1,0,0,0-.4.51,2.51,2.51,0,0,0-.15.94,3.28,3.28,0,0,0,.37,1.6,1.09,1.09,0,0,0,1,.67.9.9,0,0,0,.74-.37,2.1,2.1,0,0,0,.29-1.27,3,3,0,0,0-.49-1.78A1,1,0,0,0,92.25,182.88Zm4.47.12v2.79a1.38,1.38,0,0,0,.13.75.57.57,0,0,0,.46.2h.38v.17H95.16v-.17h.19a.67.67,0,0,0,.34-.09.47.47,0,0,0,.21-.25,2.07,2.07,0,0,0,.06-.61V183h-.82v-.33H96v-.28a2.66,2.66,0,0,1,.2-1.08,1.64,1.64,0,0,1,.62-.71,1.74,1.74,0,0,1,.94-.27,1.45,1.45,0,0,1,.89.32.59.59,0,0,1,.27.47.41.41,0,0,1-.38.38.4.4,0,0,1-.23-.08,1.15,1.15,0,0,1-.29-.33,1.15,1.15,0,0,0-.32-.34.62.62,0,0,0-.32-.09.57.57,0,0,0-.36.11.61.61,0,0,0-.21.35,6.34,6.34,0,0,0-.06,1.23v.31h1.09V183Zm9.41-2.48.16,2h-.16a2.71,2.71,0,0,0-.63-1.12,2,2,0,0,0-1.44-.54,2.06,2.06,0,0,0-1.83,1,3.4,3.4,0,0,0-.52,1.91,3.7,3.7,0,0,0,.35,1.64,2.48,2.48,0,0,0,.91,1.09,2.28,2.28,0,0,0,1.16.35,2.52,2.52,0,0,0,.67-.09,2.89,2.89,0,0,0,.63-.26v-1.82a1.62,1.62,0,0,0-.07-.62.47.47,0,0,0-.22-.22,1.37,1.37,0,0,0-.53-.08v-.18H107v.18h-.12a.53.53,0,0,0-.5.24,1.58,1.58,0,0,0-.09.68v1.92a4.8,4.8,0,0,1-1.05.42,4.46,4.46,0,0,1-1.15.13,3.34,3.34,0,0,1-2.77-1.17,3.15,3.15,0,0,1-.71-2,3.54,3.54,0,0,1,1.7-3,3.11,3.11,0,0,1,1.63-.4,3.18,3.18,0,0,1,.62.06,5.57,5.57,0,0,1,.79.25,1.4,1.4,0,0,0,.35.1.18.18,0,0,0,.15-.08.61.61,0,0,0,.08-.32Zm2,3.78a2.2,2.2,0,0,0,.46,1.48,1.37,1.37,0,0,0,1.09.54,1.14,1.14,0,0,0,.73-.23,1.69,1.69,0,0,0,.52-.79l.14.09a2.23,2.23,0,0,1-.57,1.16,1.49,1.49,0,0,1-1.17.52,1.74,1.74,0,0,1-1.31-.6,2.28,2.28,0,0,1-.54-1.6,2.38,2.38,0,0,1,.56-1.7,1.82,1.82,0,0,1,1.4-.61,1.6,1.6,0,0,1,1.17.47,1.73,1.73,0,0,1,.46,1.26Zm0-.27h2a1.85,1.85,0,0,0-.1-.57.93.93,0,0,0-.35-.41.83.83,0,0,0-.48-.15,1,1,0,0,0-.69.3,1.28,1.28,0,0,0-.38.8Zm5.58-1.45a1.88,1.88,0,0,1,1.55.73,2.23,2.23,0,0,1,.5,1.44,2.7,2.7,0,0,1-.27,1.15,1.94,1.94,0,0,1-1.82,1.18,1.8,1.8,0,0,1-1.52-.76,2.38,2.38,0,0,1-.48-1.45,2.49,2.49,0,0,1,.29-1.16,1.94,1.94,0,0,1,1.75-1.13Zm-.14.3a1.08,1.08,0,0,0-.49.15,1,1,0,0,0-.4.51,2.51,2.51,0,0,0-.15.94,3.28,3.28,0,0,0,.37,1.6,1.09,1.09,0,0,0,1,.67.9.9,0,0,0,.74-.37,2.1,2.1,0,0,0,.29-1.27,3,3,0,0,0-.49-1.78A1,1,0,0,0,113.6,182.88Zm4.05-.3v1c.35-.67.72-1,1.09-1a.58.58,0,0,1,.42.16.46.46,0,0,1,.17.36.43.43,0,0,1-.12.31.39.39,0,0,1-.29.13.62.62,0,0,1-.36-.16.59.59,0,0,0-.3-.16.31.31,0,0,0-.18.09,2.27,2.27,0,0,0-.43.63v2a1.21,1.21,0,0,0,.09.53.53.53,0,0,0,.21.21,1,1,0,0,0,.44.08v.17h-2.17v-.17a.89.89,0,0,0,.48-.1.4.4,0,0,0,.16-.24,3.38,3.38,0,0,0,0-.45v-1.65a6.46,6.46,0,0,0,0-.88.29.29,0,0,0-.31-.27.88.88,0,0,0-.32.07v-.17l1.28-.52Zm2.89,2.82a1.4,1.4,0,0,1-.81-1.28,1.48,1.48,0,0,1,.47-1.08,1.67,1.67,0,0,1,1.22-.45,1.86,1.86,0,0,1,1,.3h1.13a.38.38,0,0,1,0,.15.49.49,0,0,1,0,.17h-.79a1.44,1.44,0,0,1-.19,1.87,1.75,1.75,0,0,1-1.22.42,2.3,2.3,0,0,1-.64-.09,1.18,1.18,0,0,0-.28.31.48.48,0,0,0-.07.23.22.22,0,0,0,.08.15.55.55,0,0,0,.3.11h.65a7.22,7.22,0,0,1,1.24.06,1.2,1.2,0,0,1,.69.32.86.86,0,0,1,.26.64,1.34,1.34,0,0,1-.49,1,2.65,2.65,0,0,1-1.89.68,2.68,2.68,0,0,1-1.51-.4c-.23-.15-.35-.31-.35-.48a.54.54,0,0,1,0-.22,3.08,3.08,0,0,1,.32-.48l.47-.5a1.46,1.46,0,0,1-.34-.26.35.35,0,0,1-.1-.26.72.72,0,0,1,.13-.38,3.16,3.16,0,0,1,.62-.53Zm0,1.55a2,2,0,0,0-.33.44.76.76,0,0,0-.11.38.47.47,0,0,0,.27.39,2.51,2.51,0,0,0,1.34.29,2.12,2.12,0,0,0,1.23-.29.8.8,0,0,0,.4-.63.35.35,0,0,0-.24-.34,3.34,3.34,0,0,0-1-.12,14.35,14.35,0,0,1-1.61-.12Zm.85-4.15a.74.74,0,0,0-.57.27,1.31,1.31,0,0,0-.23.84,1.83,1.83,0,0,0,.32,1.14.74.74,0,0,0,.61.31.72.72,0,0,0,.58-.26,1.28,1.28,0,0,0,.23-.83,1.88,1.88,0,0,0-.32-1.15.75.75,0,0,0-.67-.32Zm4.22-.22V186a1.57,1.57,0,0,0,.06.53.41.41,0,0,0,.17.2,1,1,0,0,0,.42.06V187H124.2v-.17a1,1,0,0,0,.42-.06.41.41,0,0,0,.17-.2,1.57,1.57,0,0,0,.06-.53v-1.64a6.61,6.61,0,0,0,0-.89.35.35,0,0,0-.1-.21.31.31,0,0,0-.19-.06.88.88,0,0,0-.32.07l-.06-.17,1.28-.52Zm-.38-2.22a.47.47,0,0,1,.47.47h0a.47.47,0,1,1-.47-.47Zm4,6a6.74,6.74,0,0,1-.82.58,1.24,1.24,0,0,1-.53.12,1,1,0,0,1-.73-.3,1.09,1.09,0,0,1-.29-.79.93.93,0,0,1,.14-.54,1.87,1.87,0,0,1,.66-.59,9.82,9.82,0,0,1,1.56-.68V184a1.4,1.4,0,0,0-.2-.87.74.74,0,0,0-.59-.24.65.65,0,0,0-.46.16.47.47,0,0,0-.18.36v.27a.44.44,0,0,1-.11.33.39.39,0,0,1-.56,0,.44.44,0,0,1-.11-.33,1,1,0,0,1,.41-.73,1.72,1.72,0,0,1,1.14-.33,2,2,0,0,1,.93.19.92.92,0,0,1,.4.45,2.52,2.52,0,0,1,.08.82v1.44c0,.25,0,.49,0,.74a.3.3,0,0,0,.08.18h.25a3.07,3.07,0,0,0,.38-.34v.26c-.35.47-.68.7-1,.7a.45.45,0,0,1-.36-.16A.9.9,0,0,1,129.19,186.34Zm0-.3v-1.62a7.19,7.19,0,0,0-.9.39,1.54,1.54,0,0,0-.52.43.84.84,0,0,0-.16.49.8.8,0,0,0,.2.55.58.58,0,0,0,.46.22,1.68,1.68,0,0,0,.92-.5Z" transform="translate(0)"/><path class="cls-1" d="M73.87,0A73.87,73.87,0,0,0,25.43,129.64a14.5,14.5,0,0,1,1.29-2.09,71.7,71.7,0,1,1,101.17-6.87,73.41,73.41,0,0,1-6.33,6.39,6.25,6.25,0,0,1,.6.4c.24-.24.43-.36.53-.32a5.1,5.1,0,0,1,1.26,1A73.87,73.87,0,0,0,73.87,0Z" transform="translate(0)"/><path class="cls-3" d="M73.87,25.69a46.48,46.48,0,0,0-35.91,76l0-.08c0-.06.41-.6.84-1.2a45.11,45.11,0,1,1,65.59,4.73l1.25-.79c.49-.31-.41,1.64-.44,1.7l-.41.79a46.48,46.48,0,0,0-31-81.13Z" transform="translate(0)"/><path class="cls-1" d="M38.35,150.86v-5.18H40a1.18,1.18,0,0,1,1.15.53,1.43,1.43,0,0,1,.21.69,1.09,1.09,0,0,1-.89,1.23,1.1,1.1,0,0,1,1.07,1.13s0,.07,0,.11A1.36,1.36,0,0,1,40,150.83Zm.66-3h1a.81.81,0,0,0,0-1.61H39Zm0,2.42h.93a.86.86,0,0,0,1-.73.76.76,0,0,0,0-.15c0-.82-.51-1-1.18-1H39Zm4.17-1c0,1,.27,1.21.73,1.21a.65.65,0,0,0,.63-.67v0h.65a1.1,1.1,0,0,1-1,1.18,1,1,0,0,1-.25,0c-.77,0-1.38-.23-1.38-1.83,0-1.06.12-1.94,1.38-1.94,1,0,1.29.57,1.29,1.76v.31Zm1.41-.44c0-1.05-.29-1.18-.72-1.18s-.68.18-.69,1.18Zm2.18,2.06h-.59v-5.18h.59Zm1-5.18h.66v.63h-.66Zm.62,5.18h-.59v-3.62h.59ZM50,149.24c0,1,.27,1.21.73,1.21a.65.65,0,0,0,.63-.67v0H52a1.1,1.1,0,0,1-1,1.18,1,1,0,0,1-.25,0c-.77,0-1.38-.23-1.38-1.83,0-1.06.12-1.94,1.38-1.94,1,0,1.29.57,1.29,1.76v.31Zm1.41-.44c0-1.05-.29-1.18-.72-1.18s-.68.18-.69,1.18Zm1.14-1.57h.66L54,150.3l.87-3.07h.62l-1.13,3.62h-.77Zm4.18,2c0,1,.27,1.21.73,1.21a.65.65,0,0,0,.63-.67v0h.65a1.1,1.1,0,0,1-1,1.18,1,1,0,0,1-.25,0c-.77,0-1.38-.23-1.38-1.83,0-1.06.12-1.94,1.38-1.94,1,0,1.29.57,1.29,1.76v.31Zm1.41-.44c0-1.05-.29-1.18-.72-1.18s-.68.18-.69,1.18Zm6.75,2.13v-5.12h1.67a1.17,1.17,0,0,1,1.14.52,1.36,1.36,0,0,1,.21.68,1.07,1.07,0,0,1-.88,1.21,1.1,1.1,0,0,1,1,1.17.13.13,0,0,0,0,.06,1.34,1.34,0,0,1-1.54,1.44Zm.65-3h1a.8.8,0,0,0,0-1.59h-.92Zm0,2.4h.92a.87.87,0,0,0,.94-.8v-.07c0-.82-.5-1-1.17-1h-.7Zm4.13-1c0,1,.27,1.2.72,1.2a.64.64,0,0,0,.62-.66v0h.64a1.09,1.09,0,0,1-1,1.16h-.22c-.76,0-1.36-.23-1.36-1.81,0-1,.12-1.92,1.36-1.92,1,0,1.28.56,1.28,1.74v.3Zm1.4-.44c0-1-.29-1.17-.72-1.17s-.67.18-.68,1.17Zm3.47-1.54h.58v3.94c0,.8-.53,1-1.32,1-.6,0-1.13-.3-1.09-1h.65a.5.5,0,0,0,.48.52h.07a.57.57,0,0,0,.62-.52v-.84a.88.88,0,0,1-.79.45c-1,0-1.16-.84-1.16-1.9,0-1.65.83-1.75,1.12-1.75a.87.87,0,0,1,.84.51Zm-.68.41c-.66,0-.68.79-.68,1.27,0,1.15.26,1.42.7,1.42.7,0,.68-.83.68-1.33S74.59,147.76,73.86,147.76Zm2.29-1.95h.65v.62h-.65Zm.62,5.12h-.58v-3.58h.58Zm3,0v-2.48c0-.38-.13-.7-.63-.7s-.73.57-.73,1.06v2.12h-.58v-3.58h.62v.46a.94.94,0,0,1,1-.53c.77,0,1,.46,1,1.17v2.48Zm6.65-.1v-5.12H88a1.15,1.15,0,0,1,1.14.53,1.36,1.36,0,0,1,.21.68,1.07,1.07,0,0,1-.88,1.21,1.09,1.09,0,0,1,1.06,1.12s0,.07,0,.11A1.34,1.34,0,0,1,88,150.8Zm.65-3h1a.8.8,0,0,0,0-1.59H87Zm0,2.4h.92a.87.87,0,0,0,.94-.8v-.07c0-.82-.5-1-1.17-1H87Zm4.13-1c0,1,.27,1.2.72,1.2a.64.64,0,0,0,.62-.66v0h.64a1.09,1.09,0,0,1-1,1.17,1,1,0,0,1-.25,0c-.76,0-1.36-.23-1.36-1.81,0-1,.12-1.92,1.36-1.92,1,0,1.28.56,1.28,1.75v.31Zm1.4-.44c0-1-.29-1.17-.72-1.17s-.67.18-.68,1.17ZM96,148.4c0-.59-.28-.75-.5-.75-.45,0-.75.21-.75,1.19,0,1.16.15,1.58.75,1.58.13,0,.54-.14.52-.79h.61a1.13,1.13,0,0,1-1,1.25H95.5c-.76,0-1.36-.23-1.36-1.81,0-1.05.12-1.92,1.36-1.92a1,1,0,0,1,1.12.87,1,1,0,0,1,0,.35Zm1.58.69c0-1.05.12-1.92,1.36-1.92s1.36.87,1.36,1.92c0,1.58-.6,1.81-1.36,1.81S97.58,150.67,97.58,149.09Zm2.11-.25c0-1-.31-1.19-.75-1.19s-.75.21-.75,1.19c0,1.16.15,1.58.75,1.58s.76-.42.76-1.58Zm3.31,2v-2.48c0-.36-.1-.7-.57-.7a.65.65,0,0,0-.5.24,1.07,1.07,0,0,0-.14.52v2.41h-.58v-3.57h.62v.45a.87.87,0,0,1,.89-.52.86.86,0,0,1,.84.46.86.86,0,0,1,.85-.46.84.84,0,0,1,1,.68.7.7,0,0,1,0,.25v2.72h-.58v-2.48c0-.36-.1-.7-.57-.7a.51.51,0,0,0-.44.13,1,1,0,0,0-.2.63v2.41Zm3.92-1.6c0,1,.27,1.2.72,1.2a.64.64,0,0,0,.62-.66v0h.64a1.09,1.09,0,0,1-1,1.17,1,1,0,0,1-.25,0c-.76,0-1.36-.23-1.36-1.81,0-1,.12-1.92,1.36-1.92,1,0,1.28.56,1.28,1.75v.31Zm1.4-.44c0-1-.29-1.17-.72-1.17s-.67.18-.68,1.17Z" transform="translate(0)"/></svg>