<svg id="Layer_1" data-name="Layer 1" xmlns="http://www.w3.org/2000/svg" viewBox="0 0 139.83 96.48"><defs><style>.cls-1{fill:#fff;}</style></defs><title>augusta-university</title><path class="cls-1" d="M73.65,19.69H72.13a.09.09,0,0,0-.08.08s0,0,0,0a2.24,2.24,0,0,1,.16.5c0,.14.06.59.06.67a4.3,4.3,0,0,0,1.31,3.1.48.48,0,0,1,.14.34v1.08c0,.56-1.71,1-3.82,1s-3.82-.45-3.82-1V24.41a.46.46,0,0,1,0-.2c.31-.38,1.7-.83,5.06-.62,0,0-.18-.39-1.85-.76a2.09,2.09,0,0,1-1.79-2.07,3.23,3.23,0,0,1,0-.44,2.24,2.24,0,0,1,.16-.5.07.07,0,0,0,0-.1h-1.5l-1.67,8.2H75.32Z"/><path class="cls-1" d="M69.91,25.33a.84.84,0,0,1-.76-.47c-1.08.06-1.87.23-1.87.43s1.18.45,2.63.45,2.63-.2,2.63-.45-.79-.37-1.87-.43a.84.84,0,0,1-.76.47Z"/><path class="cls-1" d="M83.08,8.77H56.74L56.28,11H83.55Z"/><path class="cls-1" d="M59.59,44.32l.39.21a21.27,21.27,0,0,0,19.86,0l.39-.21a21.29,21.29,0,0,0,11-18.64V2.19H48.61V25.68A21.29,21.29,0,0,0,59.59,44.32ZM78.2,42.91,76,36.4H63.82l-2.2,6.51c-.53-.26-1.06-.54-1.57-.85l1.61-7.9-1.12-1.49H79.28l-1.12,1.49,1.61,7.9c-.51.31-1,.59-1.56.85ZM64,15.94H75.85l-1.12,1.51L76.85,27.9h2.21l.31,1.5H60.46l.31-1.5H63l2.13-10.45ZM50.8,4.38H89v21.3a19,19,0,0,1-4.84,12.71l-4.8-23.18,1.37-1.82v-.75H59.08v.75l1.37,1.82-4.8,23.18A19,19,0,0,1,50.8,25.68Z"/><path class="cls-1" d="M46.42,25.68A23.49,23.49,0,0,0,69.9,49.18h0A23.49,23.49,0,0,0,93.41,25.7V0h-47ZM48.61,2.19H91.22V25.68a21.29,21.29,0,0,1-11,18.64l-.39.21a21.14,21.14,0,0,1-19.83,0l-.39-.21a21.29,21.29,0,0,1-11-18.64Z"/><path class="cls-1" d="M60.45,15.21l-1.37-1.82v-.75H80.75v.75l-1.37,1.82,4.8,23.18A19,19,0,0,0,89,25.68V4.38H50.8v21.3a19,19,0,0,0,4.84,12.71Zm-3.7-6.44H83.09L83.55,11H56.28Z"/><path class="cls-1" d="M59.59,44.32l.4.21"/><path class="cls-1" d="M79.28,32.67H60.54l1.12,1.49-1.61,7.9c.51.31,1,.59,1.57.85l2.2-6.51H76l2.21,6.51c.54-.26,1.06-.54,1.57-.85l-1.61-7.9Z"/><path class="cls-1" d="M80.23,44.32l-.39.21"/><path class="cls-1" d="M60.76,27.89l-.31,1.5H79.37l-.31-1.5H76.85L74.72,17.45l1.12-1.51H64l1.13,1.5L63,27.89Zm5.42-8.2h1.51a.09.09,0,0,1,.08.08s0,0,0,0a2.24,2.24,0,0,0-.16.5,3.23,3.23,0,0,0,0,.44,2.09,2.09,0,0,0,1.79,2.07c1.67.37,1.85.76,1.85.76-3.37-.21-4.75.24-5.06.62a.46.46,0,0,0-.05.2v1.08c0,.56,1.71,1,3.82,1s3.82-.45,3.82-1V24.41a.48.48,0,0,0-.14-.34A4.31,4.31,0,0,1,72.28,21a2.81,2.81,0,0,0-.06-.67,2.24,2.24,0,0,0-.16-.5.07.07,0,0,1,0-.1h1.55l1.67,8.2H64.51Zm6.36,5.6c0,.25-1.18.45-2.63.45s-2.63-.2-2.63-.45.79-.37,1.87-.43a.85.85,0,0,0,1.14.38.87.87,0,0,0,.38-.38c1.08.06,1.87.23,1.87.44ZM17.4,78.13l1.83,1.6v.08H12.17v-.08L14,78.13l-1.62-4h-7l-1.62,4,1.83,1.6v.08H0v-.08l1.81-1.6,6.9-16.64h1.54ZM11.62,72.5,8.76,65.83,6,72.5Zm26.5-9.34v8.76c0,5.55-3.82,8.14-7.8,8.14s-8.48-2.17-8.48-8.48V63.16L20,61.57v-.08h7v.08l-1.75,1.6V72c0,4.19,2.15,6.36,5.44,6.36,3.11,0,5.47-2,5.47-6.23v-9l-1.83-1.6v-.08h5.6v.08Zm21.45-.78v4.16h-.08c-2.28-3-4.29-3.64-6.2-3.64-3.92,0-6.57,3.14-6.57,7.51v.34c0,4.53,3,7.64,6.85,7.64a6.29,6.29,0,0,0,2.64-.52c.89-.37,1.18-.86,1.18-2V73L54.07,71.3v-.08h6.31v6.44a12,12,0,0,1-7,2.41c-5.42,0-10.07-3.48-10.07-9.37v-.23c0-5.65,4.71-9.24,10-9.24A18.55,18.55,0,0,1,59.57,62.38Zm23.33.78v8.76c0,5.55-3.82,8.14-7.8,8.14s-8.48-2.17-8.48-8.48V63.16l-1.83-1.6v-.08h7v.08L70,63.16V72c0,4.19,2.15,6.36,5.44,6.36,3.11,0,5.47-2,5.47-6.23v-9l-1.83-1.6v-.08h5.6v.08Zm17.68-.78v4.16h-.08c-1.57-2.28-3.56-3.64-5.73-3.64-2.46,0-3.24,1.47-3.24,2.56v.13c0,1.81,1.65,2.43,4.16,3.11,4.08,1.07,6.38,2.75,6.38,6.07v.16c0,2.72-2.38,5.13-6.75,5.13a18.83,18.83,0,0,1-6.85-1.86V73.6h.08c2.12,2.9,4.21,4.79,6.78,4.79S99,77.11,99,75.59v-.13c0-2.25-2.17-3.11-5-3.85-3.51-.92-5.36-2.64-5.36-5.31v-.18c0-2.56,2.35-4.89,6.12-4.89A17.08,17.08,0,0,1,100.58,62.38Zm20.3,4-2.28-3.22h-4.47v15l1.83,1.6v.08h-6.75v-.08l1.81-1.6v-15h-4.45l-2.3,3.22h-.08V61.49H121v4.89ZM138,78.13l1.83,1.6v.08h-7.06v-.08l1.83-1.6-1.62-4h-7l-1.62,4,1.83,1.6v.08h-5.55v-.08l1.81-1.6,6.91-16.64h1.54Zm-5.78-5.63-2.85-6.67-2.75,6.67ZM28.71,88h1.37v5a3.11,3.11,0,0,1-1,2.47,4.39,4.39,0,0,1-3.11,1,4.62,4.62,0,0,1-3.17-1A3,3,0,0,1,21.91,93V88H23.8v4.9a2.19,2.19,0,0,0,1.94,2.43,2,2,0,0,0,.42,0,2.25,2.25,0,0,0,2.54-2.48Zm11.47,8.24-4.89-6v6H33.91V88H36l4.4,5.42V88h1.37v8.24Zm5.74,0V88h1.91v8.24Zm8.56,0L50.37,88h2.19l3,6,2.9-6H60l-4.32,8.24Zm7.85,0V88h7v1.18h-5.1v2.16h3.22v1.17H64.24V95h5.4v1.19ZM72.83,88h4.69c1.82,0,2.63.24,3.25.85a2.28,2.28,0,0,1,.61,1.61,1.81,1.81,0,0,1-.57,1.28A3.1,3.1,0,0,1,79,92.5l2.44,3.74H79.09L76.92,92.8H74.73v3.44h-1.9Zm4.69,3.7c1,0,1.81-.44,1.81-1.28,0-1.13-1-1.31-2.1-1.31h-2.5V91.7Zm14-1.87a7,7,0,0,0-3.48-1c-.88,0-2,.14-2,1.09s1.6,1,2.85,1c1.65.11,3.85.52,3.85,2.54,0,2.24-2.35,2.92-4.26,2.92a7.5,7.5,0,0,1-4.67-1.53l.8-1a6,6,0,0,0,3.81,1.36c1.41,0,2.48-.28,2.48-1.31s-1.31-1-2.54-1.09c-1.7-.08-4.13-.56-4.13-2.48s2-2.72,3.8-2.72a7.22,7.22,0,0,1,4.17,1.12ZM96,96.24V88h1.91v8.24Zm7.54,0v-7h-2.8V88h7.54v1.18h-2.85v7.06Zm9.39,0V93l-3.7-5h2.34l2.71,3.78L116.91,88h1.72l-3.79,5v3.28Z"/></svg>