<svg id="Layer_1" data-name="Layer 1" xmlns="http://www.w3.org/2000/svg" viewBox="0 0 158 40.9"><defs><style>.cls-1{fill:#fff;}</style></defs><title>clayton-state-university</title><path class="cls-1" d="M57.3,40.7a5.7,5.7,0,0,0-1.3-.1l-5.8-.5-5.4-.6c-1.8-.2-3.7-.5-5.6-.7s-4-.6-5.9-1-4-.8-5.9-1.2c-2.3-.5-4.6-1.1-6.9-1.7-2-.6-3.9-1.2-5.9-1.9a46.51,46.51,0,0,1-8.7-4.2,17.25,17.25,0,0,1-4.5-4A7.27,7.27,0,0,1,0,21.7a.37.37,0,0,0-.1-.3V19.5c.2-.1.2-.3.2-.5a8.5,8.5,0,0,1,2.5-4,24.22,24.22,0,0,1,5.5-4,62.59,62.59,0,0,1,8-3.5c2.2-.8,4.4-1.4,6.6-2S27,4.4,29.1,4l4.7-.9c1.6-.3,3.2-.6,4.8-.8,1.9-.3,3.9-.6,5.9-.8L49.7.9c2.3-.2,4.7-.4,7-.5,3-.2,6.1-.3,9.2-.4.2,0,.5.1.7-.1h7.3a4.1,4.1,0,0,1-1.1.1c-1.2.1-2.4.1-3.5.1-2.8.1-5.6.3-8.4.5L54,1.2c-1.9.2-3.8.4-5.7.7s-3.6.5-5.3.8c-1.5.2-3,.5-4.5.8L32.6,4.7,26.9,6.2c-1.4.4-2.9.9-4.3,1.4-1.7.6-3.4,1.3-5,2a35.92,35.92,0,0,0-3.4,1.7,22.53,22.53,0,0,0-4.7,3.4A9.77,9.77,0,0,0,7,18.3a5.26,5.26,0,0,0-.1,3.9A10.74,10.74,0,0,0,10,26.7a31.46,31.46,0,0,0,6.5,4.2A72.82,72.82,0,0,0,24.2,34a49.13,49.13,0,0,0,5.1,1.5c1.9.5,3.9,1,5.9,1.4l4.4.9,5.4.9,4.1.6,4.9.6,6.4.6,3.7.3c-2.3-.1-4.5-.1-6.8-.1ZM157.9,19.5l-.7,2.3c-.1.2-.2.3-.4.3h-7.5c-.1,0-.2,0-.2-.1a.1.1,0,0,1,.1-.1,1.27,1.27,0,0,0,.6-.1.86.86,0,0,0,.7-.8V13c0-.9-.3-1.2-1.2-1.2-.1,0-.2.1-.2-.1l.2-.1h7.3a.27.27,0,0,1,.3.3l.1,1.8c0,.1.1.2-.1.2s-.1-.1-.1-.2c-.1-.3-.1-.6-.3-.8a1,1,0,0,0-1-.7c-1.1-.1-2.2-.1-3.2-.1a.22.22,0,0,0-.2.2v3.8c0,.1,0,.2.2.2a11.33,11.33,0,0,0,2.6-.1c.8-.1,1.1-.4,1.1-1.2v-.2c0-.1,0-.2.2-.2s.1.1.1.2v3.3c0,.1.1.2-.1.2l-.2-.2c0-.2,0-.3-.1-.4a1.06,1.06,0,0,0-.9-.9l-2.7-.1c-.2,0-.2.1-.2.2V21c0,.4.2.5.5.5h2.8a2.45,2.45,0,0,0,1.8-1.1,3,3,0,0,0,.4-.8c.1-.2.1-.2.3-.1ZM69.9,2.9c-1.4.1-2.8.1-4.3.2-2.2.1-4.4.2-6.5.4L53.6,4l-4.2.6c-1.6.2-3.1.5-4.7.8-1.3.3-2.6.5-3.8.8-1.4.4-2.9.7-4.4,1.1a58.44,58.44,0,0,0-5.9,2,34.48,34.48,0,0,0-5.4,2.8,9.53,9.53,0,0,0-2.7,2.6,4.7,4.7,0,0,0,.3,6.1A17.08,17.08,0,0,0,26.7,24,35.55,35.55,0,0,0,33,26.8a39.74,39.74,0,0,0,4.9,1.5c1.3.3,2.6.7,3.9.9l3.3.7,5.6.9c1.9.3,3.8.5,5.7.7,1.4.1,2.7.2,4.1.4.4,0,.8.1,1.3.1h-.2c-2,0-4.1,0-6.1-.2l-4.7-.4L47.2,31c-1.3-.2-2.5-.4-3.8-.5-.8-.1-1.6-.3-2.5-.4a23.25,23.25,0,0,0-2.8-.5c-1-.2-2-.4-3-.7l-3.9-1c-1.5-.5-3-.9-4.5-1.5a34.89,34.89,0,0,1-4.4-2,14.8,14.8,0,0,1-4.4-3.5,5.23,5.23,0,0,1-1.2-3.4,5.32,5.32,0,0,1,1.2-2.9,14.12,14.12,0,0,1,4-3.3A34,34,0,0,1,29,8.2c1.6-.5,3.2-1,4.8-1.4,1.9-.5,3.8-.9,5.7-1.3l3.8-.7c1.3-.2,2.5-.4,3.8-.5l3.7-.4c1.5-.2,3.1-.3,4.7-.4a54.41,54.41,0,0,1,5.7-.3c2.6-.1,5.1-.2,7.7-.1a2,2,0,0,1,1-.2ZM60,26.4a17.09,17.09,0,0,1-3.2,0c-1.6-.1-3.2-.2-4.9-.4-1.2-.1-2.4-.3-3.6-.5-.6-.1-1.2-.2-1.7-.3l-3.8-.7c-1.4-.3-2.8-.6-4.1-1a26.73,26.73,0,0,1-7.8-3.2,8,8,0,0,1-2.3-2.2,3.5,3.5,0,0,1,.4-4.5,12.15,12.15,0,0,1,3.7-2.7,30.72,30.72,0,0,1,6-2.2,60.12,60.12,0,0,1,6.1-1.4q3-.6,6-.9l6.1-.6c2.2-.2,4.4-.2,6.6-.2h2.4c-1.6,0-3.2.1-4.7.2l-4.5.3c-1.4.1-2.7.3-4.1.5s-3,.4-4.4.7a60.12,60.12,0,0,0-6.1,1.4A35.65,35.65,0,0,0,35.9,11a9.66,9.66,0,0,0-3.3,2.4,3.93,3.93,0,0,0-1.3,2.9,5.18,5.18,0,0,0,1.2,2.6,13,13,0,0,0,3.9,2.7,45.69,45.69,0,0,0,6.2,2.2c2,.5,4,1,6,1.3,1.5.3,3,.5,4.5.7l5.7.6A4.82,4.82,0,0,1,60,26.4Zm42.7,6.2,1.5-3.9,1-2.6a.75.75,0,0,0,.1-.5c0-.6-.2-.8-.8-.8h-.2a.1.1,0,1,1,0-.2h2.6c.1,0,.2-.1.2.1s-.1.1-.2.1a.88.88,0,0,0-.7.6,15.71,15.71,0,0,0-.9,2.3c-1,2.5-1.9,5-2.9,7.4,0,.1,0,.2-.2.2l-.2-.2c-1.2-3.1-2.3-6.2-3.5-9.2-.4-1-.6-1.2-1.9-.9a.66.66,0,0,0-.6.7l-.1.6v7.6c.1.7.4,1,1.1,1h.2c.1,0,.2,0,.2.1s-.1.1-.2.1h-4c-.1,0-.3.1-.3-.1s.2-.1.2-.1c.2,0,.4-.1.7-.1s.5-.4.5-.8V25.7a.9.9,0,0,0-.9-.9H93c-.1,0-.1,0-.1-.1a.1.1,0,0,1,.1-.1h7.8c.1,0,.2-.1.2.1s-.1.1-.2.1h-.4a.66.66,0,0,0-.6.7l.1.5,2.4,6.3C102.7,32.5,102.7,32.6,102.7,32.6ZM80.5,28V24.4c0-.8-.3-1-1-1.1a.9.9,0,0,1-.5-.1c-.1,0-.2,0-.2-.2s.1-.1.2-.1h3.6c.1,0,.2-.1.2.1s-.1.1-.2.1a1.48,1.48,0,0,1-.7.1,1,1,0,0,0-.8.9V31a5.38,5.38,0,0,1-.4,2.2,3.69,3.69,0,0,1-2.7,2,5.78,5.78,0,0,1-3.2-.2,3.21,3.21,0,0,1-2.3-3l-.1-1.6V24.3a1.18,1.18,0,0,0-1.3-1.2h-.2c-.1,0-.2,0-.2-.1s0-.2.2-.2h4.9c.1,0,.2,0,.2.1s-.1.1-.2.1a1.27,1.27,0,0,0-.6.1,1,1,0,0,0-.9,1.2v6.5a13.66,13.66,0,0,0,.2,1.9,2.12,2.12,0,0,0,1.9,1.7,5.45,5.45,0,0,0,2.2-.1A2.71,2.71,0,0,0,80.4,32a6.6,6.6,0,0,0,.1-1.4A11.27,11.27,0,0,0,80.5,28Zm40.6,2.1a34.57,34.57,0,0,0,2.2,3.1l.7,1a1.52,1.52,0,0,0,1.2.7c.1,0,.2,0,.2.1s-.1.1-.2.1h-2c-.1,0-.2-.1-.3-.2l-3.2-4.5a1,1,0,0,0-1-.3c-.1.1-.1.1-.1.2v3.5c0,.7.4,1,1.1,1h.2c.1,0,.2,0,.2.1s-.1.1-.2.1H116c-.1,0-.3.1-.3-.1s.2-.1.3-.1a.9.9,0,0,0,.5-.1,1,1,0,0,0,.7-.8V26c0-1-.2-1.2-1.2-1.3-.1,0-.2.1-.2-.1s.1-.1.2-.1a36.88,36.88,0,0,1,4.7.1,5,5,0,0,1,1.2.2,2.31,2.31,0,0,1,1.7,2.5,2.65,2.65,0,0,1-2.2,2.5c-.1.3-.2.3-.3.3Zm-2.4-2.6v2c0,.2.1.3.2.3h.8a3,3,0,0,0,1.8-.8,2.72,2.72,0,0,0,.1-3,2.25,2.25,0,0,0-2.7-.7c-.2.1-.2.1-.2.3Zm-22-5.3a4.66,4.66,0,0,1-4.8-4.4,5.82,5.82,0,0,1,.5-3.7,4.46,4.46,0,0,1,4.4-2.7,4.68,4.68,0,0,1,4.8,4.5,5.61,5.61,0,0,1-.5,3.6,4.75,4.75,0,0,1-4,2.8A.76.76,0,0,0,96.7,22.2Zm3.2-5.5a8.6,8.6,0,0,0-.1-1.6,4.87,4.87,0,0,0-1.2-2.5,2.83,2.83,0,0,0-4.5.9,7.27,7.27,0,0,0-.7,2.9,7,7,0,0,0,.6,3.5,2.71,2.71,0,0,0,2.6,1.8,2.84,2.84,0,0,0,2.7-1.8A6.78,6.78,0,0,0,99.9,16.7Zm16.5,3.5V18.3c0-.1-.1-.2.1-.2s.2.1.2.2a5,5,0,0,0,.9,2.3,2.72,2.72,0,0,0,2.9,1,2.06,2.06,0,0,0,1-3.5,14.91,14.91,0,0,0-2-1.5,12.42,12.42,0,0,1-2.3-1.7,3.09,3.09,0,0,1-.6-3.2A3,3,0,0,1,119,9.8a3.39,3.39,0,0,1,2.4.3,1.69,1.69,0,0,0,.5.2c.4.1.6,0,.8-.4a.22.22,0,0,1,.2-.2c.2,0,.1.1.1.2v3.5c0,.1,0,.2-.1.2s-.1-.1-.2-.2a4.3,4.3,0,0,0-1-2.3,2.6,2.6,0,0,0-2.5-.8,1.83,1.83,0,0,0-1.1,2.9,3.48,3.48,0,0,0,1.3,1.1,18.72,18.72,0,0,1,2.9,2,3.57,3.57,0,0,1,1.2,3.6,3.35,3.35,0,0,1-2.7,2.4,4.62,4.62,0,0,1-2.6-.4l-.8-.3a.51.51,0,0,0-.7.5c0,.1,0,.2-.2.2l-.1-.2V20.2ZM46.6,15.8a8.08,8.08,0,0,0,.5,3.1,4.15,4.15,0,0,0,6.4,1.8,8,8,0,0,0,1.3-1.3c.1-.1.2-.2.3-.1s.1.2,0,.3A5.42,5.42,0,0,1,47,21.1a6.25,6.25,0,0,1-2.3-4.6,6.64,6.64,0,0,1,1.1-4.3A6.08,6.08,0,0,1,53,10l.7.3a.62.62,0,0,0,.8-.5c0-.1-.1-.3.2-.3s.1.2.1.3l.3,3.3c0,.1.1.2-.1.3s-.1-.1-.2-.2a5.13,5.13,0,0,0-1.5-2.3,4,4,0,0,0-5.8,1.3A5.72,5.72,0,0,0,46.6,15.8ZM84.7,26.7v7.2c0,.9.3.9,1,1.1.1,0,.4-.1.4.1s-.3.1-.4.1H82.9c-.1,0-.3.1-.3-.1s.2-.1.2-.1h.1c.9-.1,1.1-.3,1.1-1.2V26c0-.6-.5-1-1.2-1-.1,0-.4.1-.4-.1s.3-.1.4-.1h1.9a.55.55,0,0,1,.5.3L90.4,32l.2.2V26.1c0-.7-.3-.9-.9-1h-.3c-.1,0-.2,0-.2-.1s.1-.1.2-.1h3.1c.1,0,.2-.1.2.1s-.1.1-.2.1c-1.2.1-1.2.4-1.2,1.4v8.7c0,.1.1.2-.1.3a.22.22,0,0,1-.2-.2c-2-2.7-4-5.3-6.1-8C85,27.1,84.9,26.9,84.7,26.7Zm18.9-13.1v7.2c0,.8.2,1,1,1.1.1,0,.4-.1.4.2s-.3.1-.4.1h-2.8c-.1,0-.2.1-.2-.1a.22.22,0,0,1,.2-.2l.6-.1a.74.74,0,0,0,.6-.6,4.33,4.33,0,0,1,.1-.5V13.1a1.16,1.16,0,0,0-1.2-1.2c-.1,0-.4.1-.4-.1s.3-.1.4-.1h1.8a.6.6,0,0,1,.6.3c1.7,2.3,3.5,4.6,5.2,6.8l.2.2V13c0-.9-.2-1.1-1.1-1.2h-.3c-.1,0-.1,0-.1-.1l.1-.1h3.3c.1,0,.1,0,.1.1a.1.1,0,0,1-.1.1l-.7.1q-.6.15-.6.6a4.33,4.33,0,0,1-.1.5v8.9c0,.1,0,.2-.1.2a.35.35,0,0,1-.2-.1l-1-1.3-5.2-6.9C103.8,13.8,103.7,13.7,103.6,13.6Zm7.5,21.7h-3.8c-.1,0-.1,0-.1-.1a.1.1,0,0,1,.1-.1,1.27,1.27,0,0,0,.6-.1.85.85,0,0,0,.7-.7l.1-.6V26.1c-.1-.7-.3-1-1-1h-.2c-.1,0-.2,0-.2-.1s.1-.1.2-.1h7.3c.2,0,.2,0,.2.2l.1,1.8c0,.1.1.2-.1.2s-.1-.1-.1-.2l-.1-.3a1.32,1.32,0,0,0-1.4-1.2c-1-.1-2,0-3,0a.22.22,0,0,0-.2.2v3.8c0,.1,0,.2.2.2a12.21,12.21,0,0,0,2.7-.1,1,1,0,0,0,1-1,.37.37,0,0,1,.1-.3c0-.1,0-.2.1-.2s.1.1.1.2v3.3c0,.1,0,.2-.1.2s-.1-.1-.1-.2c-.1-1-.4-1.4-1.6-1.4h-2.1c-.2,0-.2.1-.2.2v3.9c0,.5.1.6.6.6a26.13,26.13,0,0,0,2.8,0,2.26,2.26,0,0,0,1.7-1.1,3,3,0,0,0,.4-.8c.1-.1.1-.2.2-.1s0,.1,0,.2l-.7,2.3c-.1.2-.2.2-.3.2A26.82,26.82,0,0,0,111.1,35.3Zm14.6-1.7V32c0-.1-.1-.2.1-.2l.2.2a3.26,3.26,0,0,0,.8,1.9,2.55,2.55,0,0,0,2.6.9,1.82,1.82,0,0,0,1-2.8,3.48,3.48,0,0,0-1.3-1.1,18.82,18.82,0,0,1-2.3-1.6,2.59,2.59,0,0,1-.7-2.9,2.5,2.5,0,0,1,2.3-1.7,2.89,2.89,0,0,1,1.8.3.6.6,0,0,0,.4.1c.3.1.5,0,.7-.3.1-.1.1-.1.2-.1s.1.1.1.2V28c0,.1.1.2-.1.2s-.1-.1-.2-.2a5.73,5.73,0,0,0-.4-1.4,2.38,2.38,0,0,0-2.3-1.3,1.52,1.52,0,0,0-1.3,1,1.75,1.75,0,0,0,.3,1.7,6.41,6.41,0,0,0,1.9,1.3,7.57,7.57,0,0,1,2.2,1.8,2.86,2.86,0,0,1-1.3,4.3,3.61,3.61,0,0,1-2.7-.1l-.9-.3c-.4-.1-.6,0-.7.4,0,.1,0,.2-.2.2s-.1-.2-.1-.2A11.48,11.48,0,0,1,125.7,33.6ZM72.8,22.1H71.2c-.1,0-.2.1-.2-.1s.1-.1.2-.1c.7-.1.9-.4.7-1a20.94,20.94,0,0,0-.8-2.3c-.1-.1-.1-.1-.2-.1H67.6c-.1,0-.2,0-.2.2L66.5,21c-.2.6-.1.9.6,1h.2c.1,0,.2-.1.2.1s-.2.1-.2.1H65c-.1,0-.2.1-.2-.1s.1-.1.2-.2a1,1,0,0,0,.8-.8c.4-.9.8-1.8,1.2-2.8l2.8-6.7c0-.1,0-.2.2-.2s.1.1.2.2l3.4,9,.3.7a1,1,0,0,0,.9.6c.1,0,.2,0,.2.1s-.1.1-.2.1Zm-5.2-4.2h3c.3,0,.2-.1.1-.3l-1-2.7-.4-1.1C68.7,15.2,68.1,16.5,67.6,17.9Zm71.7,4.2h-1.7c-.1,0-.2.1-.2-.1s.1-.1.2-.1c.7-.1.9-.4.7-1.1a19.45,19.45,0,0,0-.8-2.2c-.1-.1-.1-.2-.2-.2H134c-.1,0-.2,0-.3.2l-.9,2.3c-.3.7-.1.9.7,1h.2c.1,0,.2,0,.2.1s-.1.1-.2.1h-2.4c-.1,0-.1,0-.1-.1s0-.1.1-.2c.6-.1.8-.5,1-1,.5-1.2,1-2.5,1.6-3.7.8-1.8,1.5-3.7,2.3-5.6.1-.1,0-.3.2-.2s.1.2.2.3c1.2,3.1,2.4,6.1,3.5,9.2a2.51,2.51,0,0,0,.4.7,1.61,1.61,0,0,0,.7.4c.1,0,.2,0,.2.1s-.2.1-.2.1Zm-3.5-8.3c-.6,1.4-1.2,2.7-1.7,4.1h3.2c0-.3-.2-.5-.3-.8A21.9,21.9,0,0,0,135.8,13.8Zm15.6,16.1c.7-1,1.3-2,1.9-3a4.05,4.05,0,0,0,.5-.9c.3-.7.1-1-.6-1.1-.1,0-.3.1-.2-.1s.2-.1.3-.1H156c.1,0,.2-.1.2.1s-.1.1-.2.2a1.78,1.78,0,0,0-1.2.9c-.6.9-1.2,1.8-1.8,2.8a17.39,17.39,0,0,0-1.1,1.8.37.37,0,0,0-.1.3v3.4c0,.6.3.9,1.1,1h.3a.1.1,0,0,1,.1.1c0,.1,0,.1-.1.1H149c-.1,0-.1,0-.1-.1a.1.1,0,0,1,.1-.1.9.9,0,0,0,.5-.1c.5-.1.8-.3.8-.9V30.9l-.1-.3-2.6-4.5a1.5,1.5,0,0,0-1.4-1c-.1,0-.2,0-.1-.1s.1-.1.2-.1h3.9c.1,0,.2,0,.2.1s-.1.1-.2.1a1.27,1.27,0,0,0-.6.1c-.3.1-.5.3-.4.6,0,.1.1.2.2.3.7,1.2,1.4,2.5,2.2,3.7-.3,0-.3,0-.2.1ZM77.9,16.7c.6-.9,1.2-1.8,1.8-2.8a4.73,4.73,0,0,0,.7-1.2c.3-.6.1-1-.6-1h-.1c-.1,0-.1,0-.1-.1a.1.1,0,0,1,.1-.1h2.9c.1,0,.1,0,.1.1s0,.1-.1.1a2.07,2.07,0,0,0-1.3.9,34.47,34.47,0,0,0-2,3.2,2.51,2.51,0,0,0-.4.7,2.7,2.7,0,0,0-.6,1.9,17.63,17.63,0,0,1,0,2.3c0,.8.3,1.1,1,1.2.1,0,.4-.1.4.1s-.3.1-.4.1H75.4c-.1,0-.1,0-.1-.1a.1.1,0,0,1,.1-.1,2,2,0,0,0,.7-.1.88.88,0,0,0,.6-.7,1.27,1.27,0,0,0,.1-.6,12.05,12.05,0,0,1,0-1.9,3.32,3.32,0,0,0-.5-2c-.8-1.2-1.5-2.5-2.2-3.8a1.61,1.61,0,0,0-1.4-1c-.1,0-.1,0-.1-.1a.1.1,0,0,1,.1-.1h3.8c.1,0,.2,0,.2.1s-.1.1-.2.1a1.27,1.27,0,0,0-.6.1.42.42,0,0,0-.3.6c0,.1.1.2.2.3A37.16,37.16,0,0,0,77.9,16.7Zm64.2,13.1v4c0,.8.2,1.2,1.2,1.2.1,0,.2,0,.2.1s-.1.1-.2.1h-3.8c-.1,0-.2,0-.2-.1s.1-.1.2-.1c.9-.1,1.1-.4,1.1-1.2V25.7a.27.27,0,0,0-.3-.3,8.6,8.6,0,0,0-1.6.1c-.9.1-1.2.5-1.4,1.4V27a.22.22,0,0,1-.2.2c-.1,0-.1-.1-.1-.2.1-.5.1-1,.2-1.6s.1-.5.6-.5h7.4c.2,0,.3,0,.3.3a11,11,0,0,0,.2,1.8c0,.1.1.2-.1.2s-.1-.1-.1-.2a.37.37,0,0,0-.1-.3,1.39,1.39,0,0,0-1.1-1.1,8.13,8.13,0,0,0-2.2-.1c-.2,0-.1.1-.1.2v2.2a10.89,10.89,0,0,1,.1,1.9ZM86.4,16.6V12.4c0-.3-.1-.3-.3-.3a8.6,8.6,0,0,0-1.6.1,1.5,1.5,0,0,0-1.4,1.1.6.6,0,0,0-.1.4c0,.1-.1.1-.2.1a.1.1,0,0,1-.1-.1c.1-.7.2-1.3.3-1.9,0-.2.1-.2.3-.2h7.8a.27.27,0,0,1,.3.3l.2,1.8c0,.1.1.2-.1.2s-.1-.1-.1-.2c-.2-1-.5-1.3-1.5-1.5a2.77,2.77,0,0,0-.9-.1h-.8c-.3,0-.3.1-.3.3v8.4a.9.9,0,0,0,.9.9c.1,0,.4-.1.4.1s-.3.1-.4.1H85.1c-.1,0-.2,0-.2-.1s.1-.1.2-.1c.9,0,1.2-.4,1.2-1.2C86.4,19.3,86.4,17.9,86.4,16.6Zm42.5,0V21c.1.5.3.8.8.8h.4a.1.1,0,0,1,0,.2h-3.8c-.1,0-.2.1-.2-.1s.1-.1.2-.1h.3a1,1,0,0,0,.9-.9V12.5c0-.3-.1-.3-.3-.3a7.57,7.57,0,0,0-1.5.1,1.42,1.42,0,0,0-1.4,1.3l-.1.3a.1.1,0,0,1-.1.1c-.1,0-.1-.1-.1-.2a12.25,12.25,0,0,0,.2-1.9c0-.2.1-.2.2-.2h7.9c.2,0,.2.1.2.2l.2,1.9c0,.1,0,.2-.1.2s-.1,0-.2-.1v-.1c-.2-1-.5-1.3-1.5-1.4a10.28,10.28,0,0,0-1.7-.1c-.3,0-.2.2-.2.3-.1,1.2-.1,2.6-.1,4Zm16.1,0v4c0,.8.2,1.1,1.1,1.2h.2a.1.1,0,0,1,0,.2h-4c-.1,0-.1,0-.1-.1a.1.1,0,0,1,.1-.1,4.33,4.33,0,0,0,.5-.1,1,1,0,0,0,.7-.8V12.4q0-.45-.3-.3a7.57,7.57,0,0,0-1.5.1,1.43,1.43,0,0,0-1.5,1.3c0,.1.1.4-.2.3s-.1-.3,0-.4l.2-1.7c0-.2.1-.2.3-.2h7.8c.2,0,.2.1.3.3.1.6.1,1.2.2,1.9,0,.1.1.2-.1.2s-.1-.1-.1-.2c-.1-1-.6-1.4-1.6-1.5a8.6,8.6,0,0,0-1.6-.1.27.27,0,0,0-.3.3c-.1,1.4-.1,2.8-.1,4.2ZM60,22.1H56.4c-.1,0-.2.1-.2-.1s.2-.1.3-.1h.2c.7-.1,1-.4,1-1.1V13.1c0-.8-.3-1.1-1.1-1.2-.1,0-.3.1-.3-.1s.2-.1.4-.1h3.9c.1,0,.1,0,.1.1a.1.1,0,0,1-.1.1.9.9,0,0,0-.5.1.81.81,0,0,0-.8.9v7.9c0,.8.1.9.9.9h2a2.48,2.48,0,0,0,2.2-1.6c.1-.2.2-.3.2-.5a.22.22,0,0,1,.2-.2c.1.1,0,.1,0,.2L64.1,22c-.1.2-.2.2-.3.2C62.4,22.1,61.2,22.1,60,22.1ZM135.3,30v3.8c0,.9.3,1.2,1.2,1.2h.2a.1.1,0,0,1,.1.1l-.1.1h-4.2c-.1,0-.1,0-.1-.1a.1.1,0,0,1,.1-.1.9.9,0,0,0,.5-.1.86.86,0,0,0,.8-.7,1.09,1.09,0,0,0,.1-.5V26.2c0-.9-.3-1.1-1.1-1.2h-.2c-.1,0-.2,0-.2-.1s.1-.1.2-.1h4c.1,0,.2-.1.2.1s-.1.1-.2.1c-1,.1-1.3.3-1.3,1.4Z" transform="translate(0.1 0.1)"/></svg>