<svg xmlns="http://www.w3.org/2000/svg" xmlns:xlink="http://www.w3.org/1999/xlink" viewBox="0 0 81.426 26.4" enable-background="new 0 0 81.426 26.4"><defs><path id="a" d="M0 0h81.425v26.4h-81.425z"/></defs><clipPath id="b"><use xlink:href="#a" overflow="visible"/></clipPath><path clip-path="url(#b)" fill="#fff" d="M0 .271c.041-.206.187-.212.362-.209.608.008 1.217.007 1.826 0 .152 0 .236.063.282.198.248.74.446 1.49.522 2.268.034.354.086.709.071 1.063-.022.537-.078 1.076-.153 1.608-.162 1.179-.46 2.328-.86 3.45-.459 1.29-1.056 2.516-1.781 3.677l-.076.128c-.048.091-.108.117-.193.046v-.082l.034-.153v-11.763l-.034-.151v-.08zM40.909 5.281l.217-.002.317-.051c.813-.196 1.395-.672 1.652-1.474.265-.815.121-1.576-.466-2.21-.544-.589-1.24-.779-2.026-.689-1.519.173-2.242 1.539-1.9 2.818.261.975 1.146 1.611 2.206 1.608m.188-5.281c.225.038.454.059.673.118 1.194.327 2.011 1.06 2.247 2.298.314 1.636-.547 3.194-2.364 3.554-.842.167-1.663.105-2.424-.321-.898-.501-1.369-1.285-1.456-2.304-.07-.834.128-1.592.666-2.242.489-.592 1.128-.923 1.881-1.044l.368-.059h.409zM65.498 0c.23.038.465.06.688.118.313.083.618.192.927.29.179.054.247.185.242.359l-.03.571-.403-.172c-.531-.225-1.076-.388-1.659-.385-1.333.005-2.038.908-2.259 1.868-.259 1.133.604 2.484 1.862 2.639.437.054.862.045 1.279-.102.44-.154.617-.457.543-.914-.068-.416-.084-.432-.506-.435l-.418.023c-.151.003-.242-.063-.261-.214-.016-.141-.011-.289.017-.426.011-.052.108-.121.166-.123.542-.009 1.083-.007 1.624-.003.124.001.182.082.182.235l.002 1.474-.001.568c-.001.184-.036.238-.209.301-.635.223-1.283.402-1.961.4-1.149-.005-2.141-.394-2.787-1.395-.921-1.433-.479-3.671 1.537-4.447.262-.101.547-.135.823-.199l.117-.031h.485zM34.035 0c.225.037.455.056.674.117.372.102.738.229 1.102.351.045.015.104.068.107.105.015.215.031.433.012.646-.015.171-.094.201-.241.109-.357-.223-.751-.35-1.158-.427-.845-.164-1.627-.032-2.278.57-.431.402-.639.913-.665 1.503-.05 1.194.768 2.073 1.856 2.271.57.104 1.12 0 1.656-.194.282-.103.554-.231.868-.362.008.242.03.473.019.703-.008.181-.146.29-.309.338-.316.092-.631.186-.952.252-.623.129-1.249.138-1.87-.037-1.183-.338-2.015-1.341-2.149-2.56-.181-1.642.959-2.982 2.447-3.298l.502-.087h.379zM81.164 0l.131.064c.106.06.152.15.12.272l-.088.307-.317-.193c-.225-.117-.362-.081-.472.149-.095.198-.165.408-.238.615l-.156.516c-.066.25.041.382.298.387l.162-.003c.087-.001.154.024.146.129-.009.107-.086.129-.174.124l-.173-.027c-.228-.027-.378.061-.433.29-.062.257-.091.523-.142.782-.114.6-.223 1.202-.357 1.798-.099.451-.351.784-.824.907-.23.059-.373-.077-.312-.308l.02-.05.141-.204.15.157c.115.151.219.149.275-.035.079-.253.137-.512.188-.772l.423-2.251c.055-.284-.032-.389-.319-.382l-.155-.026-.043-.125c.028-.046.087-.088.141-.101l.172.019c.195.024.311-.039.381-.22l.097-.323c.137-.459.382-.852.701-1.203.142-.155.33-.228.522-.293h.135zM.197 26.295l.395-.165c3.7-1.229 7.401-2.456 11.098-3.685l5.648-1.887c.433-.144.875-.245 1.337-.229.679.022 1.281.263 1.831.646l.304.225c.3.219.649.186.919-.074.546-.526 1.084-1.057 1.647-1.564.504-.452 1.074-.817 1.672-1.139l.288-.184-.015-.043h-.209l-2.22.157-1.427.086-1.79.13-1.345.086-1.371.103-.848.059-1.452.105-.89.057-1.479.105-.916.057-1.562.104-.901.059-1.385.104-.834.058-1.453.106-.916.057-1.466.104-.956.058-1.547.104-.081.004c-.179.002-.208-.025-.208-.198v-2.854c0-.166.037-.205.201-.224.527-.062 1.051-.131 1.58-.183.415-.041.833-.074 1.249-.087.921-.025 1.839-.057 2.758-.047.64.007 1.283.071 1.923.124 1.032.088 2.052.258 3.053.518.539.141 1.073.308 1.604.476.335.106.409.072.454-.274l.165-1.391c.017-.153.087-.225.253-.214.269.019.537.046.804.081.898.122 1.78.312 2.641.601.663.222 1.303.499 1.92.828l.155.081c.176.085.257.05.303-.142.098-.403.191-.806.282-1.209.06-.275.106-.312.385-.329 1.447-.084 2.772.283 3.983 1.07.225.146.286.127.406-.11.412-.813.714-1.666.818-2.574.22-1.924-.259-3.63-1.634-5.043-1.006-1.033-2.184-1.804-3.5-2.377l-.228-.072.053.181c.32.772.562 1.568.682 2.395.081.559.115 1.118.07 1.681-.065.85-.249 1.666-.627 2.429-.386.78-.963 1.41-1.619 1.971l-.284.232c-.146.113-.272.131-.483.06l.12-.126c.62-.543 1.154-1.154 1.535-1.889.325-.623.542-1.28.597-1.989.048-.644-.092-1.259-.234-1.877-.339-1.456-1.054-2.702-2.105-3.759-.743-.747-1.595-1.354-2.515-1.855-.633-.346-1.289-.646-1.936-.963l-.249-.09.092.265c.32.796.619 1.598.785 2.441.113.579.202 1.167.258 1.756.047.461.049.928.026 1.39-.066 1.307-.405 2.544-.982 3.719-.472.964-1.06 1.853-1.735 2.685-.144.178-.24.229-.579.292l.097-.182c.825-1.196 1.458-2.484 1.831-3.891.149-.552.246-1.113.292-1.685.129-1.621-.163-3.18-.68-4.707-.231-.684-.522-1.342-.846-1.986-.273-.542-.691-.953-1.145-1.336-.63-.533-1.313-.982-2.067-1.319l-.089-.088.118-.038c6.781-.002 13.563-.002 20.345-.002.176 0 .214.031.238.202l.006.135c0 1.596.002 3.192 0 4.788-.006 6.966-.014 13.931-.022 20.899 0 .249-.025.276-.279.276h-1.678c-8.708-.008-17.42-.015-26.131-.022h-.293l-.01-.048M43.254 9.829l-.47.038c-.645.083-1.21.337-1.675.794-.603.589-.867 1.319-.861 2.154.006.763.259 1.433.799 1.973.771.768 1.711 1.01 2.767.832 1.757-.292 2.753-1.991 2.299-3.684-.332-1.23-1.505-2.128-2.859-2.107m.036 6.883c-1.647-.055-2.86-.634-3.665-1.94-.424-.693-.569-1.458-.509-2.267.056-.752.269-1.449.705-2.069.64-.908 1.525-1.421 2.615-1.582.95-.139 1.88-.041 2.756.372 1.177.553 1.85 1.499 2.09 2.762.164.872.102 1.725-.308 2.526-.555 1.087-1.464 1.737-2.628 2.031-.39.098-.797.129-1.056.167M49.308 20.03l-.423.036c-.555.068-1.052.271-1.471.645-.528.468-.796 1.062-.865 1.76-.063.643.065 1.235.421 1.774.688 1.041 2.104 1.475 3.333 1.03 1.6-.58 2.306-2.408 1.471-3.862-.54-.937-1.395-1.352-2.466-1.383m-.048 6.37c-1.013-.008-1.925-.291-2.675-1.003-.599-.568-.936-1.278-1.073-2.09-.118-.723-.051-1.429.254-2.099.411-.907 1.104-1.527 2.03-1.875 1.021-.381 2.061-.375 3.078-.001 1.229.452 1.929 1.395 2.219 2.632.417 1.784-.623 3.598-2.363 4.19-.518.177-.918.243-1.47.246M71.48 10.57l-.079.168-.767 1.843-.226.549c-.059.149-.016.21.141.226l.107.004 1.69-.001.161-.013c.107-.021.159-.08.118-.193l-.043-.114-.833-1.873-.269-.596m-3.687 6.038l.104-.257c1.011-2.376 2.026-4.75 3.024-7.132.186-.442.58-.422.92-.277.098.042.169.183.217.294.505 1.13 1.001 2.263 1.503 3.394.539 1.213 1.081 2.424 1.623 3.637.134.299.1.35-.231.348l-.434-.006c-.224.003-.373-.109-.469-.304l-.314-.688c-.146-.324-.298-.645-.428-.976-.095-.236-.25-.334-.497-.326-.333.01-.667.014-1 .014l-1.568-.012c-.267-.001-.373.072-.475.316l-.691 1.656c-.112.271-.29.361-.591.328-.174-.019-.351-.008-.525-.011l-.168.002M51.316 10.569l-.083.181c-.308.751-.612 1.504-.931 2.253-.146.341.005.371.267.367h.013c.541-.001 1.08-.006 1.62.001.28.003.346-.081.233-.335l-.005-.013-1.04-2.309-.074-.145m2.995 6.034c-.135.04-.238-.016-.314-.121l-.152-.271c-.236-.527-.47-1.059-.7-1.592-.094-.22-.266-.309-.492-.309l-2.485.006c-.386.001-.46.052-.604.411l-.58 1.453c-.136.345-.361.478-.769.447l-.389-.049c-.087-.011-.114-.064-.098-.144l.049-.153c1-2.361 1.999-4.724 3.002-7.083.134-.316.242-.353.59-.339.299.012.443.159.558.418.995 2.258 2 4.516 3.002 6.773l.124.313c.052.155.009.229-.15.235l-.592.005M37.197 24.301l-.001 1.257c0 .212-.053.287-.251.364-.729.279-1.481.46-2.262.467-.983.01-1.917-.178-2.708-.818-.704-.57-1.105-1.315-1.243-2.204-.143-.945-.003-1.836.539-2.635.733-1.076 1.761-1.629 3.065-1.663.823-.024 1.609.141 2.369.446.121.048.2.127.252.246.097.237.15.481.128.737-.012.141-.1.185-.221.123-.589-.311-1.208-.531-1.873-.612-.582-.071-1.153-.027-1.685.242-.943.477-1.484 1.239-1.549 2.3-.063 1.008.294 1.837 1.126 2.434.441.313.943.456 1.482.48.499.023.986-.052 1.466-.189.269-.076.33-.149.334-.426.005-.257.01-.515-.013-.768-.021-.212-.121-.305-.33-.333l-.632-.045-.174-.008c-.159-.018-.221-.079-.225-.232l-.002-.445c.005-.177.084-.256.261-.256l.647.021c.397-.003.794-.012 1.19-.022.231-.008.31.062.31.294v1.245M65.954 19.05c.699.011 1.364.157 2.021.383.354.12.508.367.568.698.023.125.025.261.002.384-.027.149-.118.17-.248.097-.558-.313-1.154-.517-1.791-.6-.555-.071-1.099-.039-1.616.188-.951.418-1.514 1.143-1.643 2.175-.118.942.138 1.769.858 2.416.479.433 1.063.642 1.7.665.37.014.75-.018 1.114-.08.555-.096.785-.401.771-.965-.004-.174-.04-.347-.067-.521-.02-.132-.104-.194-.234-.193l-.717.006c-.306.012-.392-.061-.415-.371-.038-.47.073-.579.538-.573.513.008 1.025.005 1.539.001.271-.002.356.1.345.371-.016.328-.008.657-.011.987l-.009 1.256c-.005.392-.096.525-.469.641-.567.177-1.143.314-1.737.363-.734.062-1.449-.003-2.128-.304-1.153-.511-1.913-1.36-2.13-2.618-.396-2.3 1.154-3.985 2.955-4.321.264-.05.536-.056.804-.085M34.92 16.699c-.913-.008-1.781-.188-2.545-.716-.92-.632-1.437-1.514-1.611-2.609-.303-1.912.763-3.428 2.111-4.124.507-.264 1.05-.374 1.615-.429.944-.092 1.821.155 2.694.449.295.098.395.251.384.559l-.025.444c-.014.179-.089.234-.261.172l-.769-.297c-.603-.221-1.226-.329-1.867-.276-1.544.129-2.543 1.123-2.747 2.459-.245 1.616.824 3.046 2.393 3.287 1.068.164 2.055-.079 2.982-.609l.131-.071c.166-.081.235-.05.24.138.005.257-.004.515-.026.77-.02.201-.165.315-.346.377-.341.114-.679.244-1.03.316-.434.093-.879.134-1.318.196l-.005-.036M56.48 21.37l.029.002.002.311.052.306c.061.235.196.355.436.335.262-.023.526-.068.78-.134.478-.124.784-.509.801-.969.017-.526-.252-.935-.738-1.103-.344-.119-.695-.121-1.054-.08-.264.03-.368.16-.319.417.026.135.059.273.059.411-.001.167-.031.336-.048.504m2.04 1.552c.742.637 1.192 1.453 1.691 2.234.199.311.414.609.625.916.106.15.086.227-.097.234-.233.008-.471.009-.699-.03-.327-.06-.54-.288-.701-.57-.172-.304-.339-.614-.52-.916-.308-.514-.678-.977-1.149-1.352-.218-.175-.466-.251-.734-.272-.205-.019-.321.071-.372.273-.029.117-.049.24-.049.36l.007 2.137-.014.188c-.018.116-.088.188-.209.189h-.591c-.129-.004-.205-.073-.212-.214-.012-.221-.012-.441-.012-.663l.006-2.73c.004-1.096.003-2.192.004-3.285 0-.226.037-.261.255-.259.523 0 1.045-.009 1.566 0 .458.008.905.075 1.322.282.578.282.88.763.983 1.384.137.827-.195 1.444-.86 1.912l-.24.182M78.81 23.221l-1.107-2.485-.042.001-1.026 2.484h2.175zm-1.103-4.113c.264-.027.408.114.506.34l1.859 4.195 1.014 2.28c.143.326.112.373-.238.379l-.324.022c-.168.019-.301-.039-.392-.181l-.102-.191c-.216-.48-.432-.959-.638-1.444-.1-.229-.255-.336-.512-.333-.766.01-1.531.004-2.299.004-.286.001-.401.085-.51.351-.196.474-.392.948-.596 1.417-.038.083-.112.167-.192.217-.214.134-.453.19-.709.18-.232-.008-.29-.125-.197-.335.247-.56.483-1.123.724-1.686.692-1.631 1.385-3.263 2.075-4.896.102-.242.282-.338.531-.319"/><path clip-path="url(#b)" fill="#fff" d="M42.271 20.066h-1.149c-.296 0-.377.082-.372.378l.012 1.162-.007.365c.014.194.102.274.296.274l2.203-.003.095-.001c.274 0 .33.062.317.339l.005.298c-.002.224-.075.3-.304.298l-.62-.02c-.536-.004-1.073-.003-1.609-.002-.307.002-.397.112-.39.413.011.446.012.894-.004 1.339-.01.33.093.462.421.463l.702-.012 1.678-.005c.269-.001.332.062.333.335v.324c-.001.216-.083.303-.304.303l-1.001-.016-2.175.015-.458-.012c-.118-.009-.191-.077-.201-.199l-.015-.309.013-4.72-.013-1.515.018-.188c.015-.142.108-.207.24-.207l1.094.009 1.541-.008.936-.002c.142.002.213.081.218.221l.007.434c-.005.175-.071.248-.247.252-.421.006-.84.001-1.259.001v-.004zM56.144 14.679c.244.203.471.42.721.598.438.312.926.478 1.473.422.286-.029.541-.138.748-.339.317-.308.379-.742.157-1.139-.18-.326-.459-.557-.763-.753-.395-.258-.808-.492-1.199-.755-.234-.157-.46-.334-.664-.531-.966-.94-.674-2.843.915-3.271.809-.217 1.578-.112 2.318.261.184.092.269.229.26.442-.013.31-.003.622-.003.957l-.131-.092c-.365-.277-.743-.527-1.202-.62-.389-.08-.771-.06-1.14.093-.535.222-.706.808-.354 1.269.136.18.312.34.499.466.419.28.859.531 1.285.799.464.29.88.632 1.135 1.131.667 1.315-.119 2.84-1.577 3.044-.677.097-1.324-.038-1.951-.29-.338-.135-.509-.398-.524-.753-.015-.313-.003-.628-.003-.939"/><path clip-path="url(#b)" fill="#fff" d="M64.263 13.21v-3.03c0-.237-.046-.284-.283-.284l-2.03.003c-.234 0-.305-.066-.311-.303v-.419c.005-.154.061-.222.213-.246l.323-.023h4.544l1.002-.003c.263.001.35.088.352.346l-.007.326c-.005.247-.087.33-.338.329l-1.216-.01-.745-.002c-.244.002-.376.126-.38.374l.007.81c0 1.539-.005 3.074-.007 4.613l.007.595c-.007.281-.127.369-.409.332-.117-.016-.244-.011-.362.003-.23.028-.356-.065-.359-.3l-.002-1.109v-2.002h.001zM77.718 11.986v2.609c0 .216-.01.434.003.647.012.246.123.347.373.347l.771-.011h1.934l.189.013c.113.012.188.082.191.191.007.226-.004.449-.012.675-.003.111-.071.157-.178.156l-.312-.006h-3.057l-.606.021c-.302-.001-.418-.12-.417-.423l.014-1.175-.013-3.07.013-1.447-.014-1.257c-.001-.281.086-.361.365-.354h.431c.239-.002.324.078.327.324v2.759h-.002zM69.903 3.067v-2.582c.004-.327.078-.4.412-.396l1.944.013.69-.013c.228-.001.297.064.319.289l.006.081c-.007.351-.062.402-.413.4l-1.799-.002c-.208 0-.293.091-.291.3l-.002 1.161c-.001.226.084.332.312.333.56.001 1.116-.011 1.675-.016h.162l.163.052c.098.061.142.406.08.575-.038.114-.141.167-.311.165l-1.741-.021c-.262-.003-.333.081-.336.339-.002.279-.023.559-.035.837v.135c.01.418.235.616.652.576l.429-.04c.432-.012.864-.018 1.295-.024.132-.004.222.061.228.195.008.143.009.29-.016.428-.02.117-.128.151-.241.15l-.945-.004-1.878.005c-.301 0-.358-.057-.357-.352l.008-2.339v-.244l-.01-.001M56.848 3.048v-2.61c.001-.276.075-.349.355-.349l1.973.013.689-.013c.243-.001.323.08.327.321.006.407-.039.451-.444.449l-1.743-.002c-.236 0-.32.101-.318.333.007.37.007.738-.001 1.107-.006.246.076.348.334.346l1.703-.01c.135-.002.289-.01.352.141.074.175.083.368-.019.531-.039.061-.159.098-.246.104-.233.013-.466.006-.701.005l-.946-.011-.147.002c-.241.025-.346.165-.339.403l-.018.618c-.002.166-.018.335.011.496.041.231.209.357.441.359l.526-.024 1.036-.013.352-.014c.182 0 .25.068.255.253l-.008.31c-.005.142-.067.204-.21.207l-.461-.001-2.435.003c-.259 0-.317-.061-.317-.318l-.001-2.636M12.722 21.548l-.814.215c-2.588.661-5.177 1.321-7.766 1.981l-3.844.979-.104.021c-.107.02-.161-.02-.16-.136v-.88c-.003-.115.059-.162.16-.178.962-.155 1.924-.308 2.888-.466l3.217-.532 3.525-.577 2.525-.42.368-.039.005.032"/><path clip-path="url(#b)" fill="#fff" d="M71.607 22.982v-3.041c0-.183-.005-.367.015-.55.015-.155.105-.226.265-.23l.46.001c.217.004.315.096.312.317l-.019.958c-.002.836.005 1.677.006 2.515l.001 2.594c0 .174.012.351-.006.525s-.103.242-.281.242l-.605-.021c-.096-.004-.142-.055-.143-.146l.004-.379v-2.784h-.009zM46.08 3.043v-2.624c0-.273.08-.347.35-.33l.202.001c.239-.016.329.066.324.312l-.019.634.007 2.271-.009 1.514c-.003.303.096.408.4.407l1.936-.012c.255-.001.323.063.32.316l-.008.255c-.009.139-.074.208-.211.211h-.461l-2.501.004c-.271 0-.33-.057-.33-.334v-2.625zM52.314 2.475v2.014l.002.404c.014.22.139.337.358.337l1.947-.012.173.012c.064.033.153.09.162.148.022.15.02.306.006.458-.011.112-.104.163-.214.163h-.46l-2.474.003c-.279 0-.349-.069-.348-.353.004-1.117.011-2.235.012-3.352l-.011-1.852c-.002-.276.073-.353.349-.357h.191c.222.007.31.096.312.316l-.003 1.001v1.069h-.002zM10.385 21.381l-1.711.165-1.33.113-1.622.158-1.33.113-1.355.13-1.33.113-1.328.128-.095.005c-.228.003-.247-.013-.248-.242l.003-.447c.004-.162.071-.224.235-.231l.081-.001 10.008-.004h.022zM76.394 3.901c.02.109.034.308.09.496.113.403.587.54.906.264.091-.076.172-.174.232-.277.31-.513.387-1.076.319-1.661-.027-.232-.141-.413-.386-.485-.293-.088-.56.012-.755.296-.261.384-.39.814-.406 1.367m-.456-.071c.005-.451.11-.837.336-1.187.246-.38.593-.617 1.057-.631.599-.017 1.017.326 1.079.922.056.557-.045 1.096-.398 1.557-.24.316-.564.505-.962.531-.588.038-1.044-.374-1.1-.971l-.012-.221"/></svg>