<svg xmlns="http://www.w3.org/2000/svg" viewBox="0 0 170.2 90.7" enable-background="new 0 0 170.2 90.7"><style type="text/css">.st0{fill-rule:evenodd;clip-rule:evenodd;fill:#FFFFFF;}</style><path class="st0" d="M0 64.5l.3-1.2c1.1-3.9 4.3-6.1 8.5-5.9 1.7.1 3.4.5 5 1.1.1 0 .3.2.3.4v2c0 .1-.1.2-.2.4-.1-.1-.3-.1-.3-.3-1.7-2.6-5.3-3.6-8.1-2.3-1.1.5-2 1.4-2.5 2.5-.9 1.9-1.1 3.8-.5 5.9.9 3.3 4.1 5.1 7.6 4.2 1.3-.3 2.4-1 3.4-2l.7-.8c.3 1.1.2 1.6-.6 2.2-3.2 2.4-8.4 2.2-11.4-.5-1-.9-1.7-2.1-2-3.5l-.1-.5c-.1-.5-.1-1.1-.1-1.7zM79.5 9l-.6-.1.3-5.9h3.3c.4 0 .7-.1.9-.5.5-.9 1.1-1.7 1.7-2.6l4 6h.1c-.4-.9-.8-1.8-1.2-2.8h3c.1 1.9.2 3.8.4 5.8h-.9c-.3.1-.5.3-.5.4v6.8c0 .3.3.6.4.9h.2v-5.5c.3.1.6.1.8.2 2.5.6 4.9 1.6 7.1 3.1.3.2.5.5.5.9v19.1c0 .5-.2.6-.6.7-1.1.2-2.2.4-3.3.7-.4.1-.8.3-1.1.5-.5.3-.5.6-.1 1s.5.6 0 .8c-.9.4-1.7.9-2.6 1.2-4.7 1.6-9.6 2.7-14.5 3.7-1.8.4-3.7.8-5.6 1.2v-28.7c0-.4.1-.7.5-1 2.1-1.5 4.5-2.4 6.9-3.1.9-.2.8 0 .8-1 .1-.7.1-1.2.1-1.8zm9.8 8.2v-7.6c0-.3-.1-.6-.2-.8l-3.7-5.3c-.1-.1-.2-.2-.3-.4-1.4 1.9-2.7 3.8-4 5.6-.1.2-.1.4-.1.6v10.1h8.3v.8h-8.3v19.4h.3l10.4-2.2c.5-.1.4-.4.4-.7v-16.5h-1.4v-.8h1c.1 0 .3-.2.4-.3-.1-.1-.3-.2-.4-.2h-1v-1.8c-.6.1-.9.1-1.4.1zm-11.1 22.9c.7.1.8-.2.8-.8v-13.6c0-.5.1-1.1.3-1.5.5-1.3.1-2.6.3-3.9h-1.3c-.1 6.6-.1 13.2-.1 19.8zm.7-21.1h-.4c-.1 0-.2.1-.3.2l.3.3h.8c.1 0 .2-.2.2-.3 0-.1-.1-.2-.2-.2-.2-.1-.3 0-.4 0zM99 36v9.9c0 .5-.2.9-.6 1.2-2.3 1.6-4.8 2.6-7.5 3.1-4.8 1-9.5.8-14.1-.7l-.5-.2c1.1-.4 2.1-.7 3.1-1 4.6-1.8 9.3-3.6 13.6-6.3 1.2-.7 2.3-1.7 3.4-2.6.2-.2.4-.5.5-.8.3-.7.2-1.1-.4-1.5l-.3-.4c.2-.1.3-.3.5-.3.7-.2 1.4-.3 2.3-.4zM40.2 60c.1-.1.3-.3.4-.3h4c.3 0 .5.1.3.5h-.3c-.8.1-1.1.3-1.2 1-.1.9-.1 1.8-.1 2.8v3.9c0 3 2.5 4.3 5 3.7 2-.5 3.1-1.7 3.2-3.8.1-2.1 0-4.2-.1-6.3-.1-1.1-.3-1.3-1.4-1.4v-.4h.5c1.8 0 3.7.1 5.5 0 1-.1 1.4.3 1.7 1.1 1.4 2.9 2.8 5.7 4.3 8.6.1.2.2.3.3.6.1-.3.2-.5.3-.6l4-9.1c.2-.4.4-.5.8-.5h2.8v.5h-.3c-1 0-1.4.4-1.4 1.4l.1 5.4v2.7c0 .3 0 .6.1.8.1.9.4 1 1.2 1.1h.3c.1.4 0 .5-.4.5h-4c-.3 0-.5-.1-.4-.5h.3c.8 0 1-.2 1.1-1v-9.299999999999999c0-.1 0-.2-.1-.3l-.3.5-4.5 10.2-.4.5c-.2-.2-.4-.3-.5-.5-1.5-3.1-3.1-6.2-4.6-9.2-.1-.2-.2-.3-.3-.6 0 .3-.1.4-.1.5v7.9c.1 1 .3 1.2 1.4 1.3.1.3.1.5-.4.5h-3.1c-.4 0-.5-.1-.4-.4 1.3-.3 1.5-.5 1.6-2.1l.2-5.4c0-.9.1-1.8 0-2.8 0-1-.4-1.3-1.4-1.3-1.6 0-1.8.1-1.8 1.7l-.1 4.9c0 .6-.1 1.2-.2 1.8-.7 3-3.2 3.9-5.7 3.8-.6 0-1.1-.1-1.7-.3-2.2-.8-3.2-2.3-3.3-4.7v-5.6c0-1.2-.2-1.5-1.4-1.6.6-.1.6-.2.5-.2zM85.1 77.8h-61.800000000000004c-.1 0-.3-.2-.4-.3l.4-.3h123.10000000000001c.3 0 .8.2.8.3-.1.5-.5.3-.8.3h-61.3zM71.5 60.1v-.4h6.3c.3 0 .6.1.9.2.9.3 1.6.9 1.8 1.9.2 1.1 0 2.1-.9 2.9l-1.2.8.5.2c1.6.5 2.4 1.5 2.5 3 0 1.4-.9 2.8-2.4 3.2-1 .3-2.2.3-3.2.3-1.3.1-2.5 0-3.8 0-.4 0-.6-.1-.4-.5h.6c.5-.1.8-.3.9-.8l.1-.8v-8.2c-.1-1.4-.3-1.6-1.7-1.8zm3.2 8.1v2.1c.1.8.5 1.2 1.2 1.3.7 0 1.4 0 2.1-.1 1.1-.3 1.7-1 1.7-2.1s-.4-2-1.4-2.6c-1-.7-2.2-.7-3.4-.6-.1 0-.3.3-.3.4.1.4.1 1 .1 1.6zm1.2-2.8c.7-.1 1.4-.2 2-.4.7-.2 1.1-.7 1.2-1.4.3-1.3-.4-2.6-1.6-3-.6-.2-1.3-.2-1.9-.3-.7 0-.9.2-.9.9v2.9c0 1.2 0 1.2 1.2 1.3zM29.1 65.9c0 3.2-2.6 6-5.9 6.4-2.1.2-4-.1-5.7-1.4-3.1-2.4-3.3-6.9-.4-9.6 3-2.9 8.1-2.5 10.7.8.8 1.2 1.3 2.4 1.3 3.8zm-6.9-5.8c-2.3 0-3.9 1-4.7 2.8-1.1 2.4-.5 5.4 1.2 7.3 2.3 2.5 7 2 8.2-1.6.6-1.9.6-3.7-.3-5.5-1-1.8-2.5-2.9-4.4-3zM114.3 68.6c.1.4.2.8.4 1.2 1.1 2.1 4.2 2.6 5.9 1.1 1.1-1 1.2-2.7.1-3.8-.5-.5-1.2-.8-1.9-1.1-.9-.4-1.8-.8-2.6-1.2-1.1-.5-2.1-1.3-2.5-2.6-.4-1.6.4-3.3 2-4.2 1.3-.7 2.7-.7 4-.6.9.1 1.7.3 2.7.4v3.4h-.6c-.1-.9-.3-1.7-1-2.3-1.2-1.1-3.6-1.1-4.8 0-1 .9-1 2.5.1 3.4.5.4 1.1.7 1.6 1l2.7 1.2c2 1 2.8 2.4 2.6 4.2-.3 1.9-1.7 3.2-3.8 3.6-1.7.3-3.4.1-5-.3-.2 0-.4-.2-.4-.3v-3.1h.5zM167.8 64v3.2l-.1.1-.4-.4c-.1-.5-.4-.8-.8-.8-1-.1-2.1-.1-3.2-.2v4.3c0 .8.3 1.2 1.1 1.2 1 0 2.1 0 3.1-.1 1.1-.1 1.9-.8 2.1-1.9.1-.3.2-.5.6-.3-.1 1-.2 2-.4 3h-3.2c-2 0-4 0-6.1.1-.3 0-.6 0-.5-.4l.1-.1c1.3 0 1.4-.6 1.5-1.6v-8.3c0-1.3-.2-1.5-1.5-1.7-.1-.5-.1-.5.4-.5h8.5c.1.9.1 1.8.1 2.7 0 .1-.1.2-.2.3l-.3-.1v-.1c-.2-1.5-1.2-1.9-2.5-2-1-.1-1.9 0-2.9 0v5c1.1-.1 2.2-.1 3.4-.3.4 0 .6-.4.6-.8 0-.2.2-.3.3-.5.2.1.2.1.3.2zM81.6 60.1c-.1-.3-.1-.5.3-.5h4.3v.4c-1.4.3-1.5.4-1.5 1.9l-.1 5.7c0 2.5 1.3 4 3.7 4.1 2.1.1 4.3-1 4.5-3.6.2-2.3.1-4.6-.2-6.8-.1-.9-.3-1-1.3-1.1-.1-.3-.1-.5.3-.5h3.2c.2 0 .3.2.4.3-1.2.3-1.4.5-1.4 1.8v5c0 .6-.1 1.3-.2 1.9-.4 1.7-1.4 2.8-3.1 3.4-1.2.4-2.5.5-3.7.1-2.4-.7-3.7-2.3-3.7-5v-5.5c0-1.2-.2-1.5-1.5-1.6zM138.8 71.7c0 .3.1.5-.3.5h-3.8v-.5c1.3.1 1.7-.8 2.1-1.7 1.4-3.4 2.7-6.8 4.1-10.1 0-.1 0-.1.1-.2l.3-.5.4.4c.7 1.6 1.5 3.3 2.2 5l2.3 5.1.3.6c.4.8 1 1.4 2 1.4.1.5.1.5-.3.5h-4.3c-.4 0-.5-.1-.4-.5h.2c1.2 0 1.4-.3.9-1.4l-1.2-2.8c-.1-.3-.3-.4-.6-.4h-3.5c-.3 0-.5.1-.6.4l-1 3c-.3.9-.1 1.2.8 1.2h.3zm4.2-5.4c-.7-1.6-1.3-3.1-2.1-4.8-.6 1.7-1.2 3.2-1.7 4.8h3.8zM103.9 59.9v2.9h-.5c0-.1-.1-.2-.1-.2-.4-2.2-2.5-3.2-4.5-2.1-1.2.7-1.5 2.3-.4 3.2.5.4 1 .7 1.6 1l2.5 1.1c1.5.9 2.1 1.9 1.9 3.5-.2 1.5-1.2 2.6-2.9 3-1.6.4-3.2.2-4.8-.2-.1 0-.3-.2-.3-.4-.1-.8-.1-1.5-.1-2.3 0-.1.1-.2.2-.3.1.1.4.2.4.3.4 2 2.8 3.1 4.9 2 1.6-.8 1.8-2.8.3-3.8-.8-.6-1.8-.9-2.7-1.4-.5-.2-1-.4-1.5-.7-2.2-1.4-2.1-4.2.2-5.5 1.2-.7 2.6-.7 3.9-.5.6.1 1.2.3 1.9.4zM158.9 59.7v3.1c-.4.1-.6.1-.6-.4-.2-1.4-.8-2-2.3-2h-2.2v9.4c0 1.7 0 1.7 1.6 1.9.1.3 0 .5-.4.5h-4.1c-.4 0-.4 0-.3-.5 1.6-.1 1.5-.4 1.5-1.8v-9.4c-1 0-1.9-.1-2.8 0-1 .1-1.5.7-1.6 1.9-.1.5-.2.6-.6.4v-3.1h11.8zM132.8 71.7c.1.3 0 .5-.4.5h-4.1c-.3 0-.5-.1-.4-.5h.1c1 0 1.5.1 1.5-1.6v-9.7c-1.1.1-2.1 0-3.1.2-.9.1-1.2.9-1.3 1.8-.1.5-.1.5-.7.5v-3.1h11.8v3c-.4.2-.5 0-.6-.4-.3-1.6-.8-2-2.4-2h-2.1v9.5c.1 1.9.3 1.7 1.7 1.8zM39.3 69.1h.4v3.1h-9.6c-.3 0-.6 0-.4-.5h.4c.7-.1 1-.3 1-1 .1-.5.1-.9.1-1.4v-8c-.1-.9-.3-1.1-1.3-1.2-.1 0-.1 0-.3-.2.1-.1.3-.3.4-.3h4.4c.1.3.1.5-.3.5-1 0-1.3.4-1.3 1.3v8.5c0 .9.3 1.4 1.2 1.5 1.2.1 2.4 0 3.5-.1.7-.1 1.2-.6 1.4-1.3.2-.3.3-.6.4-.9zM90.7 90.3c.9-.4 1-.4 1-1.5v-4.8c0-.9 0-.9-.9-1.2 0 0-.1-.1-.1-.2l.4-.1h3.3c1.4 0 2.3 1.2 2 2.5-.1.6-.5 1-1 1.3-.2.1-.3.2-.6.3l2 3c.3.3.8.5 1.2.7-.9.3-1.9.1-2.5-.8-.5-.7-.9-1.4-1.3-2-.1-.2-.2-.4-.4-.5-.3-.1-.6-.2-1-.2-.1 0-.1.4-.1.6v1.2c0 1.1 0 1.1 1 1.6-1 .1-2 .1-3 .1zm2-3.9c.9.1 1.8.2 2.4-.6.4-.5.4-1.3-.1-2s-1.3-.9-2.4-.7c.1 1.1.1 2.2.1 3.3zM49.4 82.9c-1.1.1-1 .9-1 1.6l-.2 5.7c0 .1 0 .3-.1.6-.3-.2-.5-.4-.6-.6-1.6-1.8-3.2-3.7-4.8-5.6-.2-.2-.3-.4-.6-.7v4.8c0 .7-.1 1.5 1.1 1.5l-.1.2h-2.5c1-.2.9-.9.9-1.6l.1-4.6c0-1-.1-1-1-1.2-.1 0-.1-.1-.2-.3h1.9c.1 0 .3.2.4.4l4.7 5.4c.1.1.2.3.4.5 0-.3.1-.5.1-.6 0-1.2 0-2.5-.1-3.7 0-.7.1-1.6-.9-1.9h2.4c.1 0 .1 0 .1.1zM83.1 85.3v2h-.2c-.2-.7-.8-.7-1.4-.7h-1.2v2.9c0 .4.3.6.7.6.7 0 1.4 0 2.1-.1.6-.1.9-.5 1.1-1 0-.2.1-.3.2-.4.1 0 .1 0 .2.1l-.2 1.8c0 .1-.2.2-.3.2h-5.4c-.1 0-.2-.1-.4-.2.2-.1.4-.1.5-.1.4-.1.6-.3.6-.7v-5.7c0-.4-.2-.7-.6-.7-.1 0-.2-.1-.3-.2h5.5l.1 1.7c-.1 0-.1 0-.2.1l-.2-.3c-.1-.7-.6-1-1.2-1.1-.6-.5-1.1-.5-1.7-.5-.3 0-.4.1-.4.4v2.3c0 .3.1.4.4.4h1.1c.6 0 1.1-.2 1.1-1 0 .1.1.2.1.2zM28.9 82.8l-.3.1c-.4 0-.6.3-.6.7 0 1.5-.1 3.1 0 4.6.1 1.1 1 1.9 2.1 1.9 1.8.1 2.9-1 3-2.7v-3c0-.7.1-1.5-.9-1.7h2.4v.1c-.9.2-.9.9-.9 1.6v3.1c-.1 1.5-.8 2.4-2.2 2.8-1.5.4-3.2 0-3.9-1.1-.3-.5-.5-1.2-.5-1.7-.1-1.1 0-2.3 0-3.5 0-.9 0-.9-.9-1.2l-.2-.2h3l-.1.2zM67.3 82.7v.1c-.9.5-.9.5-.5 1.5.6 1.4 1.2 2.8 1.8 4.3.1.2.2.3.3.6.6-1.3 1.2-2.6 1.7-3.8.2-.5.4-1 .7-1.5.2-.5.3-.9-.4-1 0 0 0-.1-.1-.1v-.1h2.3v.2c-.8.1-1.1.7-1.4 1.3l-2.7 6c-.1.2-.3.3-.4.4l-.4-.4-2.3-5.1c-.2-.5-.4-1-.7-1.4-.3-.4-.7-.6-1-.9 1-.1 2-.1 3.1-.1zM103.9 88.5c.1.1.2.3.2.4.5 1.3 2.2 1.7 3.3.9.6-.5.7-1.5.1-2-.2-.2-.5-.4-.8-.6-.6-.3-1.2-.5-1.8-.9-.7-.4-1.1-.9-1.1-1.7 0-.8.5-1.4 1.2-1.8.2-.1.5-.3.8-.3l2.7.1v1.9s-.1 0-.1.1c-.1-.1-.2-.2-.2-.4-.2-1.3-1.8-1.7-2.8-1.1-.8.4-.9 1.5-.2 2.1.4.3.9.5 1.4.7.5.2.9.4 1.4.7 1.3.9 1.2 2.8-.2 3.6-1.2.6-2.4.4-3.7.2-.1 0-.2-.2-.2-.3v-1.5c-.1 0 0-.1 0-.1zM127.2 83.1h-1.7c-.6 0-.9.3-1.1 1.1 0 .1-.2.3-.3.4-.1-.1-.2-.3-.2-.4v-1.5h7.4v1.8l-.1.1c-.1-.1-.2-.2-.3-.4-.2-.9-.5-1.1-1.4-1.2h-1.4v5.800000000000001c0 1.1 0 1.1 1 1.5h-3c0-.1 0-.1.1-.1 1-.1.9-.3.9-1.3v-5.2c.1-.1.1-.3.1-.6zM136.4 82.7h2.9v.1c-.1.1-.2.1-.2.1-.4.1-.4.3-.3.6.6 1.1 1.2 2.2 1.9 3.4.7-1.2 1.2-2.3 1.8-3.3.3-.6-.3-.6-.7-.8h2.4c0 .1 0 .1-.1.1-.8 0-1.1.7-1.4 1.2l-1.2 2.2c-.7.9-.7 2-.6 3 0 .5.2.9.8.9.1 0 .1.1.2.2h-2.9v-.1c.9-.3.9-.3.9-1.3.1-.9-.2-1.7-.7-2.5-.6-.8-1.1-1.7-1.6-2.6-.3-.5-.5-.9-1.1-.9 0-.1 0-.2-.1-.3zM58.5 90.4h-2.9v-.2c.9-.3.9-.3.9-1.3v-4.9c0-.9 0-.9-.8-1.2l-.2-.2h3.1c-.1.1-.2.2-.3.2-.6 0-.8.4-.8.9v5.5c0 .6.4.9 1 .9.1.1 0 .2 0 .3zM117.8 90.4h-2.9v-.2c.9-.3.9-.3.9-1.3v-4.8c0-.9 0-.9-.9-1.3 0 0-.1-.1-.1-.2h3.1l-.2.2c-.6 0-.8.4-.8.9v5c-.1 1.2 0 1.2.9 1.7zM82.9 22.8v11c-.2-.1-.4-.2-.6-.4-.1-.1-.2-.3-.2-.4v-9.9c0-.6.4-.2.8-.3zM84.6 22.7v11.1c-.2-.1-.5-.2-.7-.4-.1-.1-.1-.3-.1-.4v-9.9c0-.6.5-.2.8-.4zM86.3 22.8v11c-.2-.1-.5-.2-.7-.4-.1-.1-.1-.4-.1-.6v-9.4c0-.7 0-.7.8-.6zM88 33.9c-.1-.2-.2-.3-.3-.3-.7-.1-.5-.7-.5-1.1v-9c0-.7 0-.7.8-.6v11zM83.2 9.5c1-1.2 2.9-1.3 4.1-.1 1.1 1.1 1.1 2.9-.1 4 .5-.9.6-1.9.1-2.8-.5-1-1.3-1.4-2.5-1.5.3.8.5 1.4.8 2.1.1.3.2.5-.2.7-.4.2-.8.3-1.4.4 1.4-.8.7-2 .7-3.2-.5 0-1 .2-1.5.4zM86.2 14.6c-1.4.8-3 .5-3.9-.6-.9-1-1-2.5-.3-3.5-.5 2.3 1.3 4.6 4.2 4.1zM96.8 51c0-.7.6-1.3 1.3-1.3.7 0 1.3.6 1.3 1.4 0 .7-.6 1.3-1.3 1.3-.8-.1-1.3-.7-1.3-1.4zm1.9.8c.1-.2.3-.4.3-.6.1-.5-.2-1.1-.8-1.2-.5-.1-1 .2-1.1.7-.1.5 0 .9.4 1.1.5.4.9.3 1.2 0zM98.3 51.2h-.4s.1.4 0 .6h-.1v-1.5s.6-.1.7.2c.1.4-.1.6-.2.7l.2.6h-.1l-.1-.6zm-.4-.7v.3s.3.1.4-.2c0-.1-.4-.1-.4-.1z"/></svg>