<svg xmlns="http://www.w3.org/2000/svg" width="349.5" height="249.2" viewBox="0 0 349.5 249.2"><style type="text/css">.st0{fill:none;} .st1{fill:#FFFFFF;}</style><g id="Layer_1"><path class="st0" d="M10 97.2c-.2.1-.3.2-.5.2l.5-.2zM10.1 97.1c.4-.3.8-.6 1.3-.8-.5.3-.9.6-1.3.8zM11.3 96.3z"/><path d="M11.4 96.3l1.3-1.4c-.4.4-.9.9-1.3 1.4z"/><path class="st1" d="M130.6 111.8c.1-1.4-.4-2.4-1.4-3.3-4.2-4-9.2-6.7-14.6-8.9-14-5.7-28.6-7.4-43.5-7.9-15-.5-29.9.5-44.5 4.1-.4.1-.9-.2-1.3-.3l-.1.1c-.4.3-.8.6-1.3.8h-.1c-.2.1-.3.2-.5.2l-16.1 6.8c-.2.1-.3.1-.9.1 12.7-17.2 27.1-32.4 40.6-48.4.1.1.3.2.4.2-.3.6-.6 1.2-1 1.9-6.6 12.5-13.5 24.8-20.4 37.2-.2.4-.4.8-.5 1.3v.1l1.3-1.4c9.7-13.9 19.4-27.7 29-41.6.4-.6.9-1.2 1.4-1.8l.3.2-10.2 38.5.3.1c5.4-13.4 10.8-26.9 16.1-40.3l.5.2c.3 13.4.6 26.8 1 40.1h.2l3.6-35.1h.5c2.6 11.7 5.2 23.5 7.8 35.3 19.1 1.4 37.6 4.2 53 17.5-.2-.6-.2-.9-.3-1.1-1.5-1.9-3-3.7-4.4-5.6-18.3-24.6-36.6-49.2-54.9-73.9-.5-.7-.8-1.6-.9-2.4-.5-4.1-.9-8.1-1.3-12.2-.5-4-.9-7.9-1.4-12.3-.3.6-.4.7-.4.9l-2 19.3c-.2 1.6-.4 3.5-1.3 4.8-19.2 25.8-38.5 51.6-57.8 77.4-1.7 2.3-3.7 4.4-5.5 6.6v7.9c4.5-4.6 10.2-7.5 16.2-9.5 13.7-4.6 27.9-6 42.2-6.2 9.9-.1 19.9.3 29.7 1 9.6.7 19.1 2.5 28.1 6 5 1.9 9.7 4.2 13.4 8.2.3.3.6.5 1 .9 0-2-.1-3.8 0-5.5zM4.7 144.7v-16.4c-.1-.1-.3-.2-.4-.2-1.4 1.7-2.8 3.4-4.3 5.1v8.3c1.4 1.2 2.4 3.1 4.7 3.2zM98.9 123.4v-.6c.2-1.2-.4-1.6-1.5-1.8-13.6-2.6-27.3-3.5-41.1-3.1-13.5.4-26.9 2-40.1 5.1-3 .7-2.7.1-2.7 3.4 0 27.9 0 55.9-.1 83.8 0 2.2.5 3.5 2.6 4.5 4.2 1.9 8.3 4.2 12.7 6.5v-88.60000000000001c0-1.8.4-2.5 2.2-2.7 14.2-1.9 28.5-2.7 42.9-1.5 3.5.3 7 .9 10.6 1.4v2.3l.1 58.7v49.4c0 .7.1 1.7.6 2 4.5 2.4 9 4.7 13.8 7.1v-2.5c.1-41.3 0-82.3 0-123.4zM127.3 133.9c-3.5-4.4-8.4-6.9-13.5-9-1.1-.5-2.2-.8-3.4-1.3v120.2c2.3-2.9 4.3-5.4 6.3-7.7 1-1.1 1.4-2.3 1.4-3.7 0-25.6 0-51.2-.1-76.8 0-1.4.4-2 1.8-2.5 2.2-.8 4.5-1.7 6.4-3 3.4-2.3 5.1-5.7 4.2-9.8-.5-2.3-1.7-4.6-3.1-6.4zM260.8 217.5c-.1-.3-.2-.6-.4-.9l-15.8-40.9c-.3-.9-.8-1.7-1.2-2.5h-.7l-1.2 2.7-10.2 27.8c-2.1 5.8-4.3 11.7-6.5 17.5-1 2.7-2.9 4.3-6 4.5-.5 0-.9.2-1.4.3l.1.3h15.4c-.4-.4-.6-.6-.7-.6-3.7-.2-3.9-1.9-3-4.8 1.4-4.5 2.9-9 4.5-13.4.2-.6 1.3-1.3 2.1-1.4l12.5-.1c1.2 0 1.9.4 2.4 1.6l5.5 14.6c.4 1.1.3 2.5.4 3.8h13.3l.2-.5c-5.7.4-7.5-3.8-9.3-8zm-25.5-14c2.2-6.7 4.3-13.2 6.4-19.6l.6-.1c2.3 6.5 4.6 12.9 7 19.7h-14zM347.2 218.8c-1 3.7-2.2 4.8-6 5-2.4.1-4.9.1-7.3 0-3-.2-4.2-1.5-4.3-4.4-.1-6-.1-12-.1-17.9 0-1 .3-1.6 1.4-1.5 3.2.1 6.4.2 9.6.4 2 .2 2.9 1.3 3.2 3.3.1.6.3 1.1.5 1.7.1 0 .2-.1.4-.1l.9-9.6c-5.1 3.2-10.5 1.1-15.9 1.9 0-6.8 0-13.2.1-19.6 0-.3.8-.9 1.2-.9 2.8 0 5.5-.1 8.3.2 4.5.4 4.9.8 5.8 5.3 0 .1.2.1.7.5.4-3.1.7-6 1-8.6h-28.5v.5c.2.1.4.3.6.3 4.7.2 5 2.1 5 6.2l.1 31.5c0 2.6 0 5.3-.3 7.9-.4 4-.5 4-4.4 5-.1 0-.1.2-.3.5.6.1 1.1.2 1.6.2 7 .1 14 .3 20.9.2 6.3 0 5.9 1.4 6.8-6.3.1-1 .2-2 .2-3-.2 0-.4-.1-.7-.1-.2.4-.4.9-.5 1.4zM267.8 173.7c-.6 2.5-1.7 5.3-1.3 8.4.6-.6.9-1.5 1.4-2 1-.9 2-2.2 3.2-2.4 4.7-.5 9.5-.5 14.4-.7v34.3c0 2.8 0 5.5-.1 8.3-.2 3.1-.2 6.4-5 6l.4.5h17c-.8-.5-1.7-.7-2.6-.8-2.5-.4-3.1-.9-3.4-3.4-.2-1.5-.3-3-.3-4.5-.1-12.7-.1-25.4-.1-38.1v-2.1c2 0 3.8-.1 5.5 0 2.8.2 5.6.3 8.4.7 2 .3 3.3 1.5 3.4 3.7 0 .4.3.8.5 1.2l.5-.1v-8.6c-14 .2-27.8.9-41.9-.4zM219 182.9c.1 0 .3 0 .4-.1v-9c-1.4.2-2.8.4-4.1.4-9.8.1-19.6.1-29.4.1-2.6 0-5.2-.5-8.1-.7-.6 2.6-1.6 5.4-1.5 8.5.4-.2.6-.4.7-.7 1.1-3 3.5-4.1 6.5-4.2l8.3-.1h3.6c0 .8.1 1.3.1 1.9v35.5c0 2.1-.1 4.1-.3 6.2-.3 3.6-.7 4.1-4.1 4.9-.2 0-.3.1-.5.2l.2.4h17c0-.2 0-.3.1-.5-1-.1-1.9-.4-2.9-.4-2.1-.1-3-1.3-3.3-3.2-.2-1.5-.3-3-.3-4.5-.1-13.1-.1-26.3-.1-39.4 0-.3.1-.6.2-1.2 4.4.3 8.8.3 13.1.8 2.9.3 3.6 1.4 4 4.3.1.4.2.6.4.8zM156.1 194.4c-1.9-1.7-3.9-3.3-5.4-5.2-4-5-1.6-12.1 4.5-13.3 1.7-.3 3.6-.2 5.4.1 3.5.6 5.8 2.6 6.2 6.3l.3 1.3c.2 0 .4 0 .5-.1v-9.2c-1.1-.2-2.1-.5-3.2-.5-3.2-.2-6.4-.6-9.5-.2-6.7.8-11 6.1-10.8 12.6.2 3.7 1.4 7 4 9.5 2.9 2.9 6.1 5.5 9 8.3 1.9 1.9 4 3.7 5.5 5.9 3.6 5.3 1.3 12.4-4.5 14.4-3.3 1.2-6.7.9-9.9-.8-2.6-1.3-4-3.6-4.3-6.5l-.3-2.4h-.8c-.1 2.8-.1 5.7-.3 8.5-.1 1.4.5 2.2 1.8 2.7 5.4 2 10.8 2.2 16.2 0 5.4-2.2 8.1-6.5 8.5-12.3.3-4.5-1.1-8.4-4.2-11.5-2.6-2.5-5.8-5-8.7-7.6zM72.2 191.4c-7.9-5.8-20.3-5.7-28.1.1-4.5 3.3-4.4 6 .5 8.8 4.2 2.5 8.9 3.5 13.6 3.4 4.9 0 9.4-.9 13.5-3.3 5.1-2.8 5.2-5.6.5-9zM75.2 190.1c-.3-2.8-1.7-4.8-3.4-6.3-2.5-2.2-3.5-5.1-4.2-8.2-.3-1.4-.8-2.9-1.8-3.8-3.5-3.5-7.8-4.1-12.4-2.7-4.2 1.2-6.3 4.4-6.8 8.6-.3 2.2-1.1 4-2.7 5.6-2.1 2.1-3.8 4.5-3.9 8 11.5-10.3 23.2-8.6 35.2-1.2zM177.3 143.4c-1.3-7.6-7.3-13.1-15.6-13.6-6.4-.4-12.8-.3-19.2-.4-.2 0-.4.2-.7.4 3.7.8 3.9 1 3.9 4.8.1 6.5 0 13.1 0 19.6 0 2.4-.1 4.8-.2 7.2-.1 1.9-.8 3.2-3 3.1l.2.5c2 0 3.9-.1 5.9 0 3.5.1 6.9.5 10.4.5 12.2-.1 20.4-10 18.3-22.1zm-6.5 14.5c-3.2 4.9-8.3 6.2-13.9 6.1-1.2 0-2.5-.2-3.7-.5-2.8-.6-3.3-1.3-3.4-4.1v-13h-.1v-13c0-1.5.5-2.2 2-2.2 5.5-.2 10.8.1 15.4 3.7 7.6 5.9 7.7 16.9 3.7 23zM343.8 134.8c.1 4.6.2 9.2.2 13.8v9.9c-9.3-10-18.4-19.9-27.6-29.7l-.5.3c-.1 1.1-.2 2.1-.2 3.2v27c0 2.5.5 5.3-3.3 5.7h10.3c-3.5-.8-4.1-1.4-4.2-5.1l-.4-13.2c-.1-3.2 0-6.5 0-10.1 9.2 10 18 19.9 27.8 28.9.3-.8.4-1.5.4-2.2 0-9.4 0-18.7.1-28.1 0-2.3-.5-5 3-5.4h-9.9c3.9.8 4.2 1.1 4.3 5zM289 165.7c11 0 18.9-8 19-19.1.1-10.5-7.4-17.7-18.5-17.8-10.4-.1-18.8 8.2-18.7 18.6.1 10.8 7.6 18.3 18.2 18.3zm-10.4-30.7c5.8-7 17.4-5.9 22.2 2.1 2 3.3 2.6 7 2.8 11.8-.2 1.3-.4 3.6-1.1 5.7-2.5 8.6-11.9 12-19.5 7.3-9.1-5.6-9.5-20.6-4.4-26.9zM73.2 168c-.9-1.4-1.5-3.1-2.7-4.2-2.5-2.3-3.5-5.1-4-8.3-.5-3.5-2.7-5.6-6-6.4-6.6-1.7-11.6 1.7-12.6 8.5-.3 2-1 3.7-2.5 5.1-1.8 1.7-3.2 3.8-3.4 6.8 10.1-9.1 20.3-7.2 31.2-1.5zM185.8 161c.9-2.9 1.8-5.7 2.9-8.6.2-.6 1.1-1.1 1.7-1.2l7.9-.1c1.2 0 1.7.4 2.1 1.4l3.5 9.5c.3.8.3 1.7.5 2.7h8.7c-3-.2-4.4-2.3-5.5-4.7-.3-.6-.6-1.3-.8-1.9l-10.6-27.4c-.3-.7-.6-1.3-1.2-2.4-.5 1.1-.8 1.7-1.1 2.4-3.5 9.5-7 19.1-10.5 28.7-1 2.7-2 5.3-5.5 5.4h9.8c-2.4-.8-2.7-1.2-1.9-3.8zm8.2-24.8c.2 0 .3 0 .5-.1 1.5 4.3 3 8.6 4.7 13.2h-9.4c1.4-4.4 2.8-8.8 4.2-13.1zM70 148.2c-.5-.8-.7-1.9-1.4-2.5-2.2-1.8-2.7-4.3-2.9-6.9-.2-2.4-1.3-4.3-3.4-5.6-5.6-3.2-12.3 0-13 6.4-.3 2.2-1.1 4-2.5 5.8-.8 1-1.2 2.2-1.8 3.3 8.3-5.2 16.4-3.9 25-.5zM251.2 131.7c.1.4.2.8.2 1.2 0 9.1-.1 18.1-.2 27.2 0 2.1 0 4.3-2.9 4.8h11.2c-4-1.1-3.7-.3-4.2-5.5v-.6l-.1-25.6c0-.5.1-1 .1-1.6h5.7c2.7.1 5.7-.2 6.6 3.5v-5.6c-.1-.1-.2-.1-.2-.1-9.2.4-18.3.8-27.4-.3-.3 0-.9.3-1 .6-.4 1.6-.7 3.3-1.1 4.8 1.4-1 2.5-2.5 3.9-2.7 3.1-.3 6.2-.1 9.4-.1zM221.3 133.7v26c0 2.2.1 4.6-3.1 5.1 2.7.2 5.3.1 7.8.2 3.7 0 7.4.2 11.1.1.6 0 1.5-.5 1.6-.9.5-1.7.7-3.5 1-5.2l-.6-.2c-.7 2-1.4 4.1-3.9 4.3-2.2.2-4.5.1-6.8 0-1.6-.1-2.7-1-2.8-2.8-.1-1.8-.3-3.6-.3-5.5v-22.1c0-1.7.8-2.7 2.6-2.8.3 0 .6-.1.9-.2v-.3h-11.2c3.4 1.5 3.7 1.7 3.7 4.3zM11.4 96.3zM11.9 95c-.2.4-.4.8-.5 1.3.1-.5.3-.9.5-1.3zM10.1 97.1zM11.4 96.3zM11.3 96.3z"/></g></svg>