<svg xmlns="http://www.w3.org/2000/svg" width="516.2" height="516.9" viewBox="0 0 516.2 516.9"><style type="text/css">.st0{fill:#FFFFFF;}</style><g id="XMLID_61_"><path id="XMLID_584_" class="st0" d="M213.6 503c-6.4-.6-12.9-.9-19.3-1.8-11.4-1.5-22.8-3.2-34.2-4.9-1.5-.2-3.1-.7-4.5-1.4-80.8-37.2-132.5-98.9-150.3-186.3-27.4-133.8 54.3-264 186.1-299.8 29.5-8 59.6-10.5 90-7.7 110.8 10.2 202 89.4 228 198.1 6.3 26.5 8.1 53.4 5.9 80.6-8 97.1-70.8 180.5-158.3 216.6-5.8 2.4-12.5 3-18.9 3.8-9.4 1.1-18.9 1.9-28.3 2.7l-6.7.6c-1.3.1-2.5-.3-1.5-.5 100.1-17.6 172.7-94.8 194.5-174.3l-2.7-.1h-34.9c-1.3 0-2.8.2-3.9.9-11.7 7.4-24.4 8.6-37.6 5.8-2.2-.5-3 .1-4 2-23.1 45.5-58.5 76.8-107.6 91.4-63.8 19-133.1-1.8-176.7-52.2-10.9-12.7-20.1-26.4-27.2-41.6-.8-1.8-1.8-2.4-3.8-2.4-17.6.1-35.3 0-52.9 0h-3.5l-.3-3.9h-20.7c18.8 70 84.2 153.8 193.3 174.4zm284.8-307.2c-26.5-105.3-127.6-193.2-255.4-185.6-119.2 7.1-203.5 95.4-225.1 185.6h23.2v-6.6h3.2c16.8 0 33.6 0 50.5.1 2 0 2.8-.7 3.6-2.4 10.2-24.1 24.6-45.3 44.2-62.6 43.6-38.8 94.4-53.3 151.4-40.9 56.8 12.4 96.6 47 121.4 99.3.7 1.5 1.4 3 2.1 4.6 14.3-3.3 27.8-1.4 40.1 5.9 1.7-1.4 3-3.3 4.5-3.5 3.8-.5 7.7-.2 11.7-.2.1 2.3.2 4.3.3 6.3h24.3zm-287.5-5.7c-1.8.1-3.3.1-4.9.3-1.6.2-3.1.4-4.6.7-19 3.9-31.7 15.5-39.3 32.9-8.8 20.4-9.4 41.5-4.7 63 1.7 7.7 4.7 15 9.1 21.6 11.3 17.2 27.5 25.1 47.9 23.4 14.4-1.1 27.7-6.1 40.1-13.3 2.2-1.3 3.1-2.8 3-5.5-.3-8.4-.2-16.8-.2-25.2 0-10.1 1.7-12.1 11.6-14.1.7-.1 1.5-1.1 1.6-1.8.2-1.8.1-3.6.1-5.5h-54.1c0 1.8.1 3.4 0 5.1-.1 1.6.5 2.2 2.1 2.5 2.2.4 4.3 1 6.4 1.8 5.4 2 7.4 5 7.4 10.7 0 8.6.1 17.2 0 25.8 0 1.1-.5 2.6-1.3 3.4-8.9 8.5-26.8 11.8-36-3.6-3.3-5.5-5.8-11.6-7.3-17.8-4.8-19.1-4.8-38.6-2.2-58.1 1.2-9.3 3.7-18.3 9-26.2 9.3-14.1 27.4-15.1 37.5-1.6 4.1 5.4 6.9 11.9 9.7 18.2 2.2 5.1 3.5 10.6 5.2 16h6v-80.6c2.8.2 6 .8 8.9.4 2.3-.4 4.3-.2 6.5.5.3.1.8.2 1.1 0 2.8-2 3.7.4 5.7 2.4-2.7.6-4.8 1-7.1 1.5.7.7 1.6 2.4 2.7 2.6 2.5.4 5 .1 7.6 0 3.9-.2 7.8-.4 11.8-.6 0 6.4-.1 12.6.1 18.8 0 1.2 1.1 2.4 1.7 3.6.4-1.2 1.2-2.3 1.3-3.5.1-6.1.1-12.1.1-18.5 7.5.7 15.1 2.4 22.5-2.2-3.1-.8-5.8-1.4-8.4-2.1l.1-.6 6.3-.4v-.6c-.8-.1-1.6-.1-2.6-.2l3.5-3.1c-2.8-.5-5-.8-7.2-1.2.4-.4.9-.8 1.4-1.3-1.7-1.5-5 2-5.5-2.1h5c-.9-.5-1.4-.7-1.7-.8 2-.8 3.8-1.5 5.7-2.3-.1-.2-.1-.4-.2-.5-1.9.1-3.8.2-5.6.4l-.2-.9c1.5-.5 3.1-.8 4.4-1.6 1-.6 1.7-1.9 2.7-3.2-3 .9-5.3 1.5-7.5 2.2 1-1.4.1-3.9 2.8-3.9 1.8-.1 3.6-.8 5.4-1.2l-.1-.6c-1.8.1-3.6.2-5.9.3 1.5-.8 2.5-1.3 3.9-2h-6.1c.7-1 1.5-2.1 2.4-3.4-3.5 0-6.1 3.5-10.2 1.7l9.1-3.7c-1.4-.3-2.2-.5-3.1-.7.6-.7 1-1.3 1.7-2.1-1.4.3-2.4.4-3.7.7.5-.8.7-1.2 1.1-1.7h-4.5c2.4-2.6 7.7.1 8.1-5.3-.7.3-1.4.5-2.1.7-.7.2-1.4.3-2.3.4.1-.9.2-1.5.3-2.3-3.6 1.7-4.5 1.7-5.4.1 2.6-1.2 5.2-2.4 7.6-3.5-.1-1.1-.2-1.9-.3-2.7-.9.1-2 .2-3.2.4.1-1.2.1-2 .1-2.5-2.2.5-4.1.9-6.9 1.5 1.8-2.7 4.3-2.8 6.3-3.6-1.8-1.9-3.4-2.3-4.3 1.3l-.6-.8c.7-1.7 1.3-3.4 2-5.3-.9.2-1.7.5-3.3.9.9-1.4 1.4-2.2 2.1-3.3-.8-.3-1.6-.5-2.3-.8l-.3-2.8-.8-.1-3.2 6.5c.3.4 1 1.1 2.1 2.2h-3.6c1.3 1.6 2.6 3.3 4.1 5.2l-3.9.8c.4-1 .6-1.6.6-1.5-1.3-1.1-2.3-2-3.4-2.9 1.9 2.4-1.4 1.7-1.7 2.5 1.5 3.8 4.5 5.4 8.3 6l-.4 1.2-8.1-1.3c.2 1 .4 1.9.5 2.4 2.9 1.4 5.4 2.6 7.9 3.8-1.5.6-2.9.7-4.2.3-1.3-.4-2.3-1.8-3.6-2.1-1.7-.4-3.6-.3-5.4-.3l-.3.9c1.1.7 2.4 1.2 3.2 2.1.6.7.7 1.9 1 2.9-.9 0-1.7.1-2.6 0-.9-.1-1.7-.5-2.4-.8v2.7c1.2.3 2.9.7 4.6 1.1v.8c-1.5.4-2.9.8-5.1 1.4 5.2.6 10.2 0 14.2 3.5l-8.4-1.9c-.1.7-.3 1.5-.5 2.6-1.2-.8-2-1.6-2.9-2.1-.7-.3-1.7-.4-2.4-.1-1.3.6-2.3 1.5-3.6 2.3 0 0 .2.9.1.9-.7.2-1.4.3-2.1.4l.4-3.6c-2.9-1.7-5.4.4-8.1 1.6-.7.3-1.7.1-2.5.2v-.6c.9-.1 1.7-.3 2.5-.4v-3.1c-.7-.1-1.6-.2-2.5-.3v-.6h7.9c.1-.2.1-.4.2-.7-.8-.4-1.7-.7-2.7-1.2 2.1-1.4 5.3-.4 6.9-3.3-1.1.1-1.7.1-2.5.2.5-1.1.9-2 1.8-3.8-2.9 2.4-3.1 0-4-1-.9.3-1.7.6-2.5.9-.1-.2-.2-.4-.2-.5 2-1 4-2 6.3-3.2-2.5-.6-5.2-.4-6.2-1.6-2.2-2.6-4-1.5-6.2-.6-1 .4-2.1.5-3.7.9.7-1.4 1-2 1.4-2.6-1.1-.4-1.9-.7-2.7-1 1.7-.6 3.8-.1 4.6-.9 2.8-2.5 5.8-2.7 9.2-2.4.7.1 1.7-.3 2.2-.8.8-.7 1.3-1.7 1.9-2.4-1.6.1-3.5.3-6 .5 1.4-1.8 2.5-3 3.6-4.4-4.4.5-8.5 1-12.6 1.4-.7.1-1.5.1-2.2-.1-.5-.2-1.1-.8-1.2-1.2-.1-.5.4-1.4.8-1.5 1.6-.4 3.3-.5 4.9-1 1.9-.7 4.5 1.3 6.1-1.7-.8.1-1.2.2-1.1.2-.9-1.1-1.6-1.9-1.8-2.3-2.3.8-4 1.4-5.7 2l-.4-1.1c1.1-.5 2.2-1.1 3.2-1.6-.6-.9-1.2-1.6-1.5-2-1.9-.7-3.5-1.3-5.7-2.1 1.7-1.4 2.9-2.4 4.3-3.6-1.1-.2-1.8-.4-2.4-.5.8-1.3 1.4-2.4 2.2-3.8-1.2.3-1.9.5-2.1.5-1.2-2.4-2.2-4.6-3.3-6.7l-.8.3c.1.9.4 2.5.2 2.6-2.7.9-.6 2.2-.1 3.8-1.7-.5-2.9-.8-3.7-1v4.1c.3.2 1 .6 1.6.9-.1.2-.2.5-.2.7-1-.3-2-.5-3.2-.8-.1.5 0 1-.2 1.3-1.4 2.6-.6 4.3 2 5.3.4.2.6.9.9 1.4.1.2-.1.4-.1.8-.7-.4-1.3-.7-2.2-1.2.3 1.1.5 1.8.7 2.5l-.6.5c-.7-.7-1.5-1.4-2.1-2-.7-.1-1.9.1-2.3-.3-.7-.7-1-1.9-1.5-2.9-3 5.8 2.2 4.4 3.8 6.9-1.3.4-2.5.9-3.7 1.1-1 .2-2.1 0-3.2 0l.1.5 6 3-.4 1.2c-2-.4-4-.8-5.7-1.2-.4.8-.7 1.3-1 1.8 4.4.3 8.8.7 14 1.1-2.6 1.4-3.1 5.8-7.1 1.9.6 1.8.9 2.6 1.3 3.6-.9-.2-1.7-.3-2.7-.6.4.9.6 1.5 1 2.5l-8-.6c1.3 1.7 1.3 1.8 5 2.2 1.6.2 3.3 0 4.9 0h4.8v.5l-7.3 3 .7.7c-.4 1-.6 2.4-1.3 2.8-.8.4-2-.3-3.1-.6-.5-.1-1.1-.5-1.3-.3-.5.4-.9 1-1.1 1.6-.1.4.2.9.3 1.2-2.4.9-4.7-.9-7.3.4 6.5 4.9 12.9 1.7 18.7 1.4.7 1 1.3 1.8 2.4 3.2-2.8.2-5 .3-7.1.5.1 2.3-.9 3.2-3.4 3.2-.5 0-1.3-.2-1.6.1-1.8 1.8-3.5.6-5.3 0-1.2-.4-2.6-.3-3.9-.3-.8 0-1.6.5-2.8.9 1.1-1.6 1.8-2.6 2.6-3.9-3.5 0-6.1 3.5-10.2 1.7l9.1-3.7c-1.5-.4-2.2-.5-3-.7.7-.7 1.1-1.2 1.8-2-1.5.2-2.5.4-3.8.5.5-.8.7-1.1 1.1-1.7h-4.3c1.6-.9 3.2-1.3 4.9-1.5 2-.3 2.7-1.7 3-3.6-1.5.4-2.9.7-4.3 1.1.1-1 .1-1.6.1-2.4-3.2 1.8-4.2 1.8-5.4.2 2.6-1.2 5.3-2.5 8.8-4.1-3.3-.2-1.4-1.3-.9-2.5-2.7 1.2-4.5 1.3-3.7-1.8-2 .5-4 .9-6.7 1.6 1.5-2.9 4.2-2.7 6.1-3.7-1.9-1.8-3.5-2.5-4.1 1.5l-.7-.8 2-5.3c-.9.2-1.8.4-3.2.7.9-1.3 1.5-2.2 2.2-3.3-1-.2-1.7-.4-2.4-.6l-.4-2.9h-.8c-1 2-2 4.1-3.1 6.4.2.3 1 1.1 2 2.3h-3.5c1.2 1.6 2.5 3.2 4 5.1-1.4.2-2.5.4-4.1.7.6-1.1.8-1.6.8-1.6-1.3-1-2.4-1.9-3.1-2.4-.5.8-1.2 1.7-1.8 2.7 1.4 3.2 4.2 5 7.9 5.9-2.9 1-5.6-.1-8.3-.7.2 1.1.4 2.1.5 2.6 2.8 1.3 5.4 2.5 7.9 3.7-1.4.5-2.8.8-4.1.4l-3.6-2.2c-1.7-.4-3.6-.2-5.5-.3-.1.3-.1.6-.2.8.9.6 2.1 1.1 2.8 2 .7.8.9 1.9 1.3 2.9-.9 0-1.9.1-2.8 0-.8-.1-1.6-.4-2-.5-.2 1.1-.3 1.9-.4 2.5 1.5.4 3.2.8 4.9 1.3l-.1.8-4.4 1.1c2.4.4 4.9.1 7.2.5 2.2.4 4.3 1.6 6.5 2.5l-.3.6-8.3-1.9c-.1.7-.2 1.5-.4 2.6-1.1-.8-2-1.5-2.9-2-.6-.3-1.6-.5-2.1-.3-1.4.6-2.6 1.6-4 2.4 1.4.5 3.2.7 4.6 1.5 1.7 1 3.1 1.5 5.1.8 1.8-.7 2-.4 2.3 1.6l-3.6.2c.4.9.6 1.5 1 2.6-1.3-.7-2.1-1.2-2.2-1.2-3 1.2-5.4 2.2-8.6 3.4 2.8-.3 3.1 3.5 6.6 1.8 2.7-1.3 6.3-.9 9.8-1.3-2.3 4.9-5.2 2.2-7.3 1.4-.5 1.1-.7 2.1-1.3 2.6-.5.5-1.4.7-1.8.9l-8.6-1.8c.3 1.7.6 3.3 1 5.6 2.4.2 5.6.5 8.8.8v.8c-2.3.3-4.5.6-7.1 1 .7.6 1.2 1.1 2 1.7-2.3 1-4 3.4-7 1.3 1 1.5 1.9 3.2 3.1 3.3 2.6.3 5.2-.1 7.8-.2 3.6-.1 7.2 0 11 0-.4 6.5-.4 13.4-.4 20.6zm135.7 9.2l-.6-.1-2.1-1.2c-9-5.4-18.6-8.6-29.2-7.7-11.2 1-20.6 5.5-27.5 14.6-8.2 11-9.8 23.4-7.2 36.6 2.6 13.3 9.9 23 22.5 28.5 4.8 2.1 9.7 4.1 14.5 6.3 4.3 2 8.7 3.7 12.6 6.3 11.1 7.4 13.3 22.9 4.9 33.3-6.5 8.2-20.2 9.4-29.4 2.6-5.7-4.2-10.1-9.6-13.2-15.8-3.3-6.7-6-13.6-8.8-20.6-.6-1.5-1.2-2.3-2.9-2.1-1.2.1-2.5 0-4 0 .3 16.3.6 32.3.9 47.9 6.6 3 8.2-2.6 11.2-5.8.6.3 1.1.6 1.5.8 10.3 6.7 21.5 10 33.8 9.3 12.4-.7 23-5.4 30.7-15.3 7.6-9.6 9.9-20.8 9-32.8-1.2-14.6-7.8-25.6-21-32.3-3.8-2-7.9-3.6-11.8-5.4-6.2-2.9-12.5-5.5-18.4-8.9-6-3.4-9-8.9-9.7-15.9-1.4-14.9 11.2-25.8 24.8-21.1 6.4 2.2 10.8 6.9 13.7 12.7 3.5 7 6.2 14.3 9.1 21.6 1.9 4.9 1.7 5 7 4.7.2 0 .3-.1.3-.1v-45.1c-5.9-2.3-8.4 1.4-10.7 5zm-203.3 128.8c.7-14 1.3-27.8 2-41.6-5-.5-4.7-.4-6.5 3.5-3.5 7.6-7.2 15.1-10.9 22.6-1.6 3.2-4.3 4.9-7.8 5.7-8 1.8-16.2 1.7-24.2.9-5.3-.5-7.8-3.4-8.5-8.7-.4-2.7-.6-5.5-.6-8.3-.1-12.2 0-24.4 0-36.6 0-1 .1-1.9.1-3 4.5 0 8.8-.1 13 0 7 .3 11.5 4.1 13.5 10.7 1.3 4.4 2.5 8.8 3.8 13.3h4.9v-55.8h-4.7c-1.5 4.8-2.8 9.5-4.5 14.1-1.6 4.3-4.8 7.6-9.3 8.3-5.4.8-10.9.8-16.5 1.1v-52.2c8 0 15.7-.1 23.5 0 5.1.1 9.3 2.3 12 6.4 3.3 5.1 6.3 10.4 9 15.8 1.8 3.5 2.2 4 6.4 2.7v-33.5h-92.2v6.9c2.2.6 4.3 1.1 6.3 1.8 6.9 2.2 8.8 4.6 8.8 11.8v94.5c0 7.8-2.1 10.1-9.7 11.5-6.2 1.1-6.2 1.1-5.3 7.6 0 .1.1.1.2.4 32 .1 64.4.1 97.2.1zm325.1-37.7c-.6 1.2-1 2.1-1.5 3.1-3.5 7-7.5 13.6-13.5 18.8-12.6 11-30.8 8.9-39.6-5.2-3.3-5.3-5.7-11.5-7.1-17.5-4.6-19.2-4.1-38.6-.9-58 1.3-8.2 3.7-16 8.6-22.9 8.1-11.5 23.1-13 32.8-2.8 3.8 4 6.9 9 9.1 14 3 6.7 5 13.9 7.1 20.9.6 1.8 1.3 2.4 3 2.2 1.2-.1 2.5 0 3.4 0v-48.6c-5.6-2.1-8.3 1.2-10.9 4.7-1.2-.7-2-1.2-2.9-1.7-18-10.6-39.3-9.3-55.9 3.2-7.7 5.8-13.2 13.3-17.3 22-8.9 18.7-10.3 38.3-6.9 58.4 2.2 13.1 7.1 25.2 16.2 35.2 14.8 16.3 39.9 21.1 57.9 11 10.6-6 17.3-15.2 22.2-26.1 2.8-6.2 2.8-6.2-2.7-10.1-.2-.3-.5-.3-1.1-.6zm-286.7 96h23.9c.5-2.7 1-5.4 1.5-8h-.8c-.4.5-.8 1-1.1 1.6-2.4 4.4-6.3 5.8-10.9 5.4-.9-.1-2.3-1.2-2.4-1.9-.3-3.4-.1-6.8-.1-10.1 4.9-.7 6.1 2.5 7.4 5.9v-13.4c-1.6 3.1-2.5 6.7-7.3 5.6 0-.8-.1-1.6-.1-2.5 0-2.3-.2-4.6.1-6.9.1-.7 1.3-1.8 2.1-1.9 5.3-.9 8.2 1 10.2 6.1.1.3.3.5.9 1.4v-8.5h-23.9c4.1 1.9 4.1 1.9 4.1 6.2v14.7c-.2 2.5.6 5.7-3.6 6.3zm99.1.1c5.7 1.3 14-3.6 16.7-9.5 2-4.5 2.2-9.2 0-13.7-2.2-4.4-6.9-6.1-11.2-4.5-4.3 1.6-6.6 6.6-5.5 11.5 1 4.2 4.1 6.1 9.4 5.6.4 0 .9-.1 1.5-.1-1.5 6-5.2 9.3-10.9 10.7zm42.2-21.8c1.9-2 3.9-4.2 6.9-2.8 1.2.6 2.5 2.2 2.6 3.4.5 3.7-2.6 4.8-5.5 6.2 1.9 1 3.5 1.6 4.9 2.5 2.9 1.8 4.2 4.9 3.5 7.8-.9 3.4-3.8 4.4-6.5 2.2-1.1-.9-2.1-2.1-3.3-2.4-1.2-.2-3.1.2-3.7 1.1-1 1.4 0 3.1 1.5 3.5 2.2.6 4.5.9 6.7.8 4.5-.3 8.7-3.9 9.6-8 .9-4.2-.2-7.7-4.2-9.8 3.8-3.9 3.8-7.5.3-9.8-4.4-2.7-11.4 0-12.8 5.3zm-16.5 21.5c2.7 1 3.9.1 4.6-2.4 2.4-7.3 5-14.5 7.5-21.7.4-1 .6-2.1 1-3.3h-16.9l-1.7 8.5c3.7-5.5 8.8-2 13.5-3.3-2.8 8-5.4 15.1-8 22.2zm-44.7-23.5l.2.7c1.9-.3 4.5-1.9 4.6 1.6.2 5.8.1 11.6 0 17.4 0 1.7-.9 3-2.9 3.1-.5 0-1.1.3-2.2.7h15.7c-4.5-1.6-4.5-1.6-4.5-6v-19.1c0-.9-.1-1.9-.2-3.2-3.9 1.9-7.3 3.4-10.7 4.8zm-25.3 6.6l.4-1.1c-1.3-.3-2.5-.5-4.2-.9v-7.2c-2.9 3.3-5.3 6-7 8 .7 1.6 1.5 2.6 1.5 3.5l.1 10.8c0 3.3 1.4 4.7 4.4 4.7 3.1 0 5.3-1.8 5.5-5-.6.6-1 1.2-1.4 1.5-1.4 1.1-2.8.7-2.9-1.1-.1-4.3 0-8.6 0-13 1.4-.1 2.5-.1 3.6-.2zm-14.4-1.3c-1.8-.2-3.4-.4-4.9-.7-3.3-.6-6.3.8-7.4 3.5-1.2 3-.1 5.8 3.2 7.6 1.6.9 3.4 1.5 4.8 2.6.7.6 1.3 2.1 1.1 3-.2.8-1.5 1.7-2.4 1.8-2.4.2-4.2-.9-5.4-3.1l-1.1-2.2-.5.2v5.6c1.7.2 3.3.3 4.7.6 4 .9 7.3-.4 8.5-3.7 1.3-3.3 0-6-3.9-8-1.4-.7-2.9-1.3-4.1-2.3-.7-.6-1.3-2.1-1-2.7.4-.8 2-1.8 2.7-1.6 1.5.4 2.7 1.6 4 2.6.5.4.8 1.2 1.2 1.9l.5-.2v-4.9zm21.1 19.2c1.9 0 3.4-1.4 3.4-3.3.1-1.9-1.5-3.5-3.5-3.5-2.1 0-3.2 1.3-3.4 3.3-.1 1.9 1.5 3.5 3.5 3.5z"/><path id="XMLID_573_" class="st0" d="M148.4 423c9.3 5.9 18 12.3 27.6 17.3 9.5 4.9 19.8 8.4 30 12.6-1.1 2.7-2.1 5.3-3.4 8.4-.8-.8-1.7-1.3-1.7-1.9-.2-5.9-4-8.3-9-9.7-.9-.2-1.7-.6-2.7-1-1.6 4-3.1 7.8-4.6 11.6 4.5 3.2 6.5 3 10.5-.4.5-.4 1.4-.4 2.7-.8-1.8 4.7-3.4 8.6-5 12.5-.2.5-.9.7-1.3 1-.3-.6-.9-1.1-.9-1.7-.1-5.2-1.3-6.5-7.2-7.8l-4 10.2c-.6 1.6 0 3 1.6 3.6 2.4 1 4.8 2 7.2 2.7 3.5 1 5.5-1.9 8-3.5.8-.5 1.8-.8 2.7-1.3l.6.8c-1.5 3.1-3 6.2-4.5 9.6-10.3-4.1-20.3-8.1-30.4-12.1l-.2-.9c.7-.3 1.5-.9 2.1-.7 2.9 1.1 4.2-.3 5.1-2.8 2.3-6.2 4.9-12.3 7.3-18.5 1.8-4.4 1.7-4.7-2.8-7.2-1.4 2.1-2.8 4.2-4.5 7-.6-1.2-1-1.9-1.2-2.6-.1-.5 0-1.1.1-1.6.6-4.2-.6-7.5-5.3-9-1.9 2.9-3.9 6-5.8 9.1-2.6 4-5.1 8.2-7.8 12.1-1.5 2.2-1.3 3.8.7 5.5.6.5.7 1.5 1 2.3l-.9.5-16-10.2c.8-1.8.9-1.9 2.4-1.1 2.4 1.4 3.8.8 5.2-1.5l13.6-21.5c-3.9-3.6-5.8-3.7-10.9-.8-.9.5-2.1.6-3.1.9l-.4-.8 2.6-4.2c.8-1.4 1.6-2.7 2.6-4.1z"/><path id="XMLID_570_" class="st0" d="M307.2 475.2c0 10.6-8.2 18.2-19.7 18.3-10.6 0-18.5-7.7-18.4-18.3 0-10.3 8.5-18.1 19.7-18.2 10.6 0 18.4 7.6 18.4 18.2zm-9.7 4.3c-.4-6.5-1-11.7-4.1-16.2-1.7-2.5-4-3.8-7.1-3.5-3 .3-5.4 1.8-6.3 4.7-2.5 8.2-1.4 16.1 3.3 23.3 1.6 2.5 4.3 3.4 7.3 2.9s5-2.4 5.8-5.3c.8-2.2.9-4.7 1.1-5.9z"/><path id="XMLID_569_" class="st0" d="M411.4 379.8c2.3 1.7 5.1 3.8 7.9 5.8l2 1.7c-1.6.4-2.5.9-3.5.8-2.3-.2-4.5-.9-6.8-.9-6.5 0-10.9 6.4-8.1 12.1 3.6 7.4 9.8 11.9 17.9 13.4 5 .9 9.3-2.8 9.8-7.9.1-.7-.3-1.6-.8-2.1l-3-2.4c-2.1-2.1-4.1-2.2-6.2 0-.5.5-1.5.4-2.2.6l-.4-.9 10.2-13.3c.3-.4 1-.4 1.6-.6.1.5.5 1.3.3 1.6-1.7 2.7-.2 4.1 1.9 5.7 5.3 3.9 5.2 4 2.7 10.2-1.8 4.5-4.1 8.7-7.8 11.9-6.3 5.5-14 6-20.9 1.5-7.5-4.9-10.7-12.8-7.8-20.5 1.2-3.4 3.4-6.5 5.7-9.3 1.9-2.6 4.7-4.7 7.5-7.4z"/><path id="XMLID_568_" class="st0" d="M102.9 369.3c-3.6 1.7-7 3.4-11.3 5.4.3-1.6.3-2.7.8-3.5 1.1-1.8 2.6-3.3 3.6-5.2 1.7-3.3 1.2-6.8-1.1-9.2-1.4-1.5-3.2-2.2-5.3-1.5-2.1.7-3.2 2.3-3.1 4.4.1 3.3.4 6.6.8 9.9.6 5.7-1.3 9.8-5.7 11.8-4.2 1.9-9.1.6-12.7-3.4-3.1-3.6-4.9-7.8-5.4-12.5-.2-1.8.1-3.9-2.4-4.7-.4-.1-.5-.9-.9-1.7 1.8-.9 3.6-1.9 5.4-2.7 1.8-.9 3.6-1.8 6.3-2.3-.2 1-.3 2-.8 2.9-1.4 3.1-3.2 5.9-4.3 9.1-.9 2.7.4 5.3 2.2 7.4 1.5 1.7 3.4 2.5 5.7 1.8 2.3-.8 3.4-2.5 3.3-4.9-.2-3.3-.5-6.6-.8-9.9-.5-5.2 1.5-9.3 5.8-11.2 4-1.9 8.4-.8 12 3.1 2.7 2.9 4.1 6.3 4.7 10.1.3 2-.3 4.3 2.3 5.3.4 0 .5.7.9 1.5z"/><path id="XMLID_567_" class="st0" d="M427 346.5c2.4 1.1 4.6 2.1 6.7 3.2.4.2 1 .9.9 1.1-.2.5-.8 1.3-1.2 1.3-7.6-.3-9.2 5.5-11.5 11 3.8 1.8 7.6 3.6 11.3 5.3 3.4-4.8 3.3-6.3 0-10.6-.4-.5-.3-1.3-.6-2.7 4.7 2.2 8.6 4.1 12.6 6 .3.2.7 1 .6 1.2-.3.4-.9.9-1.4.9-6 .2-6.3.4-8.6 6.6 3.3 1.5 6.6 3.1 10 4.6 1.7.7 3.1.2 4-1.4 1.1-2.2 2.3-4.5 3-6.8 1.2-3.5-1.6-5.8-3.1-8.5-.5-.8-.6-1.8-.9-2.8.2-.1.5-.2.7-.4 3 1.6 6 3.3 9.3 5.1-4.7 10-9.4 19.8-14 29.7-.3 0-.6 0-.9.1-.2-.7-.6-1.6-.4-2.1 1.1-2.8 0-4.2-2.6-5.3-6.3-2.8-12.6-5.8-18.8-8.9-2.4-1.2-4.1-1.1-5.7 1.2-.4.6-1.4.8-2.2 1.1l-.5-.8c4.5-9.3 8.8-18.5 13.3-28.1z"/><path id="XMLID_566_" class="st0" d="M376.8 420.4c2.8 3.3 5.5 6.4 8.2 9.5 4.9-2.9 5.6-4.4 4.4-9.6-.1-.6.2-1.4.5-2.9 3.6 4.2 6.6 7.7 10.1 11.7-1.2.2-2 .7-2.5.5-5.7-2.1-6.4-2-10.5 2.6 2.3 2.7 4.6 5.4 7 8.1 1.3 1.5 2.8 1.6 4.4.4.7-.5 1.3-1.1 2-1.5 4.6-3 5.9-7 4.2-12.2-.3-.9 0-2 0-3l1-.2c2.1 2.7 4.2 5.5 6.5 8.5-8.3 7.2-16.6 14.3-24.8 21.3-.3 0-.6-.1-.8-.1.1-.8-.1-1.9.3-2.3 2.1-2 1.7-3.7-.1-5.7-4.5-5-8.9-10.1-13.2-15.3-1.9-2.4-3.7-3.5-6.5-1.6-.4.3-1.2-.1-1.8-.2.2-.5.2-1.2.5-1.6 7.4-6.5 14.9-12.9 22.6-19.5 1.9 2.2 3.7 4.3 5.9 6.8-1 .3-1.9 1-2.4.8-5.5-2.6-9.4 0-13 3.7-.5.6-1.1 1-2 1.8z"/><path id="XMLID_563_" class="st0" d="M113.2 436.9c2.6-2.5 3.7 1.5 6.2.5.7-1.9 1.8-4.3 2.6-6.8.2-.5-.4-1.5-.9-2-2-2-4.1-4-6.3-5.9-.6-.5-1.8-.6-2.6-.4-1 .2-1.8.8-2.7 1.3-3.5 1.8-3.5 2.1-1.4 5.4.4.6.4 1.5.6 2.3l-.9.5c-1.7-1.6-3.4-3.2-5.2-4.8-1.7-1.6-3.5-3.3-5.9-5.6 1.4-.2 2.4-.6 2.8-.3 2.7 1.8 5.2 1.2 7.9 0 8.4-3.7 16.8-7.2 25.1-11 1.8-.8 2.8-.3 4 .9 1.4 1.2 1.7 2.3 1 4-3.4 8.7-6.7 17.4-10.1 26-.9 2.4-1.3 4.6.4 6.8.3.4.1 1.1.1 1.7-.5-.1-1.3 0-1.6-.3-4.4-4-8.7-8-13.1-12.3zm10.1-9.7c1.6-4.1 3-7.8 4.7-12.1-4.3 2-7.9 3.6-11.7 5.4 2.3 2.3 4.5 4.3 7 6.7z"/><path id="XMLID_562_" class="st0" d="M263.4 485.3c.5.3 1.1.7 1.7 1-.1.4-.1.7-.2.9-4.5 7.4-13 10-21.8 6.7-7.8-2.9-12.4-10.7-11.1-18.9 1.7-11.3 11.6-18 22.9-15.6 1.7.4 3.3 1.3 5 1.6 1.6.2 3.3-.1 5.2-.2-.2 4.2-.4 8.2-.6 12.2-.2.2-.4.3-.7.5-.7-.7-1.6-1.2-2.1-2-1.1-2.1-1.8-4.5-3.1-6.4-3.8-5.3-11.2-4.9-14.1.9-3.2 6.3-3.7 13.1-1.2 19.8 2.2 5.9 9.6 7.8 15.1 4 1.8-1.1 3.3-2.9 5-4.5z"/><path id="XMLID_561_" class="st0" d="M90.8 412.8c-3.7-5.2-7.3-10.4-11-15.5.1-.3.2-.6.3-.8.7.2 1.8.2 2.2.7 1.8 2.4 3.6 2.1 5.9.5 6.8-4.9 13.7-9.7 20.5-14.5-2.7-4.9-3.9-5.5-10.3-4.8-.9.1-1.8-.2-2.7-.3l-.2-1c2.6-1.8 5.2-3.7 8-5.7 6.6 9.3 13.1 18.5 19.7 27.9-2.7 1.9-5.3 3.8-8.6 6.1 0-1.5-.1-2.3 0-3.1.2-.7.6-1.3 1-2 2.2-3.7 1.4-6.8-1.8-9.8-7.2 5.1-14.5 10.3-21.8 15.5-1.7 1.2-.8 2.7-.3 4.2.3.8.1 1.8.2 2.7-.3-.1-.7-.1-1.1-.1z"/><path id="XMLID_560_" class="st0" d="M306 454.9c5.5-1.9 10.9-3.9 16.4-5.7.5-.2 1.2.2 1.8.4-.3.5-.5 1.3-1 1.6-3.3 2.2-3.3 2.2-2 6 2.2 6.3 4.5 12.7 6.8 19 1.4 3.8 2.1 3.8 6 2.9 5.7-1.3 8.3-4.9 8.7-10.5.1-.9.8-1.7 1.2-2.6.3.1.6.2.8.3 1 3.4 1.9 6.8 3 10.4-9.8 3.5-19.4 6.9-29.1 10.3-.5.2-1.2-.3-1.8-.4.3-.5.6-1.4 1-1.6 2.8-1.1 2.9-2.9 1.9-5.5-2.5-6.5-4.8-13.2-7-19.8-.8-2.4-2.1-3.5-4.7-3-.7.1-1.5-.4-2.3-.7.1-.4.2-.8.3-1.1z"/><path id="XMLID_559_" class="st0" d="M376.6 448c.2.2.4.4.5.6 1.4 2.9 2.9 5.8 4.5 9-9.3 5.3-18.5 10.7-27.7 16-.3-.1-.5-.2-.8-.2.2-.7.2-1.8.6-2.2 2.6-1.7 2.3-3.4.9-5.8-3.6-5.9-7-11.9-10.3-18-1.3-2.4-2.7-3.2-5.3-2.2-.6.3-1.6-.3-2.4-.4 0-.3 0-.6.1-.9 5.4-3.1 10.8-6.3 16.3-9.4.3.1.6.3.8.4-.4.8-.5 1.8-1.1 2.2-2.2 1.6-2.3 3.1-.9 5.4 3.6 6 7 12.1 10.6 18.2 1.9 3.2 2.7 3.4 6 1.8l.7-.4c5.2-2.1 6.9-5.9 6.2-11.3-.1-1 .3-2 .4-3 .2.1.6.2.9.2z"/><path id="XMLID_497_" class="st0" d="M117.6 122.6c-2.5-2.3 1.7-3.4.7-6-2-.8-4.6-1.9-7.3-2.8-.4-.1-1.3.5-1.8 1-1.3 1.3-2.6 2.6-3.8 4-1 1.2-3 2.6-2.8 3.5.4 2.2 1.7 4.3 3 6.1 1.3 1.9 2.7.2 4.1-.4.8-.4 1.7-.4 2.7-.1-11.8 11.1-17.9 25.8-27.4 38.3-1.5-.1-1.8-.9-1-2.3 1.4-2.4.6-3.8-1.6-5.2-6.3-3.9-12.5-7.9-18.6-12-2.2-1.5-3.8-1.3-5.6.5-.5.5-1.5.6-2.3.9l-.5-.9c5.6-8.6 11.2-17.3 16.9-26.1 2.6 1.7 5 3.2 7.8 5-.8.6-1.4 1.4-1.9 1.4-6.7-1.1-9.7 3.1-12.4 8.1-.2.3-.4.6-.8 1.3l11.1 7.2c.8-1.2 1.5-2.3 2.2-3.4 1.4-2.3 1.2-4.5-.5-6.7-.5-.7-.7-1.7-1-2.6l.9-.5c4 2.6 8 5.2 12 7.7l.1.8c-.7.2-1.5.7-2.2.6-5.3-.8-6.6-.1-9.1 5.5 3.2 2 6.4 4.3 9.8 6 .9.5 3-.1 3.7-.9 1.6-1.8 2.8-4.1 4-6.3 1.7-3.4-.8-5.9-2-8.8-.4-.9-.6-1.9-.8-2.9.3-.1.6-.3.8-.4 2.2 1.6 4.4 3.2 6.6 4.7 2.6-2.5 3-4.2 1.4-7.7-3.8-8.7-7.7-17.4-11.6-26-.8-1.9-1-3.1.6-4.8 1.7-1.7 2.9-1.2 4.6-.5 8.7 3.5 17.5 6.9 26.2 10.5 2.8 1.2 5.4 1.1 7.7-1.3-2-2.6-4-5.2-6.5-8.6 1.6 0 2.7-.2 3.5 0 2.4.8 4.8 2 7.2 2.6 3.7.9 6.9-.3 9.5-3.2 1.6-1.8 1.9-3.9.9-6.2-1-2.3-3-3.1-5.2-2.6l-11.5 3.1c-5.7 1.4-11.4-2-12.4-7.7-.4-2.3 0-5.2 1.1-7.1 1.5-2.6 4-4.8 6.4-6.7 1.5-1.2 3.8-1.4 5.5-2.4 1.5-.9 2.7-2.3 4.1-3.5.3.3.7.6.9 1 2.1 2.7 4.1 5.4 6.1 9-.9 0-1.9.3-2.7-.1-1.9-.7-3.6-1.9-5.5-2.5-3.3-1.1-6.4-.6-8.9 2.1-1.6 1.8-2 3.9-.9 6.1 1.2 2.1 3.2 2.9 5.4 2.3 3.2-.8 6.4-1.9 9.6-2.8 5.8-1.6 9.9-.4 12.7 3.8 2.6 3.9 2.3 9.1-1.1 13.4-3.1 4-7.2 6.5-12.1 7.8-1.3.3-2.6.5-2.7 2.2 0 .3-.3.7-.5.9-4.6 5.1-9.6 9.7-14.8 14.6zm-16.5-3.1c2.4-2.5 4.5-4.7 6.8-7.1-4.2-1.7-7.9-3.2-12.3-4.9 1.9 4.3 3.6 8 5.5 12z"/><path id="XMLID_494_" class="st0" d="M421.6 94.9l12.9 14c-.1.3-.2.6-.4.9-.9-.2-1.9-.2-2.5-.7-1.9-1.7-3.4-1.4-5.2.3l-16.6 15.5c-2.2 2-2 4.5.3 6.3 3.3 2.6 6.6 3.5 10.9 2.4 8.8-2.2 17.7-3.7 26.5-5.6 1.9-.4 2.5.5 3.2 1.7.8 1.2 1.6 2.2.4 3.9-5.4 7.8-10.7 15.7-16 23.6-1.6 2.3-2.8 4.5-1.5 7.4.2.5-.4 1.3-.8 2.7-4-5.9-7.5-11.1-11.1-16.3l.5-.9c.8.4 1.8.5 2.4 1.1 2.4 2.2 2.4 2.2 4.3-.5 3.4-5 3.4-5 0-10.1l-.5-.7c-3.1-4.6-3.1-4.5-8.6-2.8-2.4.8-2.8 2-1.9 4.1.4.9.3 2-.2 3.2-5.8-10.1-15.3-16.7-22.2-25.6.1-.3.2-.6.3-.8.8.2 1.8.2 2.3.7 2 1.9 3.6 1.6 5.4-.2 5.4-5.2 10.9-10.3 16.5-15.3 1.9-1.7 2.1-3.2.8-5.3-.5-.7-.3-1.8-.5-2.7.6-.2.9-.3 1.3-.3zm6.8 40.1c1.9 2.9 3.6 5.4 5.5 8.1 2.5-3.7 4.8-7.1 7.5-11-4.7 1-8.6 1.9-13 2.9z"/><path id="XMLID_491_" class="st0" d="M345.1 43.8c6.3 3.1 12.5 6.2 18.8 9.4 1.4.7 2.7 1.6 3.9 2.6 3.6 3 4.6 6 3.2 9.4-1.6 3.9-4.8 5.9-9.2 5.7-.8 0-1.6-.2-3-.3 1.4 6 2.7 11.8 4.2 17.5.2.9 1.4 1.6 2.1 2.5.3.4.4 1.1.5 1.6-.5.1-1.2.5-1.6.3-3.4-1.6-6.8-3.3-10.1-5.1-.6-.3-.9-1.3-1-2-1-5.3-1.8-10.5-2.7-15.8-.1-.8-.6-1.6-1.2-2.9-1.9 3.8-3.5 7-5 10.3-.9 1.9.6 2.8 1.7 3.9.4.4.5 1.1.7 1.7-.6.1-1.3.5-1.8.2-5.1-2.5-10.2-5-15.3-7.6 0-.3 0-.6-.1-1 .9-.1 1.8-.6 2.5-.3 2.3.9 3.6.2 4.6-2 3.2-6.6 6.4-13.3 9.9-19.8 1.3-2.5 1.3-4.2-1.1-5.9-.5-.4-.6-1.5-.9-2.2.2 0 .5-.1.9-.2zm4.6 21c2.9 1.9 5.8 2.9 8.7 1 2.7-1.8 4.4-4.6 3.8-8-.5-3.3-3.2-4.6-6.2-5.7-2.1 4.3-4.1 8.4-6.3 12.7z"/><path id="XMLID_488_" class="st0" d="M313.2 71.1c-11.4-.1-20.2-8.3-20-18.6.2-10.8 8.3-19.1 18.6-19.1 11 0 20 8.3 19.9 18.5-.2 10.9-8.3 19.3-18.5 19.2zm9-24.3v-1.7c-.2-4.3-2.2-7.5-5.6-8.4-3.6-1-6.8.3-9.2 4-3.7 6-5.6 12.6-4.9 19.8.4 3.6 2 6.3 5.8 7.2 3.4.8 6.3-.4 8.7-4 3.6-5 4.8-10.8 5.2-16.9z"/><path id="XMLID_487_" class="st0" d="M241.5 27.4c.7 4.5 1.4 8.2 1.8 11.8.1.5-.4 1.5-.8 1.6-.5.1-1.4-.3-1.7-.8-1.3-1.8-2.3-3.8-3.7-5.5-2.4-2.8-5.4-4-9.1-3.2-3.7.9-5.7 3.4-6.5 6.9-1.6 7.2-.5 14.2 3.2 20.5 2.8 4.7 8 5.7 12.4 2.6.8-.6 1.3-2 1.4-3.1.2-1.1-.3-2.4-.4-3.6-.1-2.9-1.4-4.4-4.4-4.4-.7 0-1.3-.8-2-1.2l.3-.9 17.7-2.4.6.7c-.6.6-1 1.4-1.7 1.7-2 .8-2.7 2-2.2 4.1.2.7.2 1.5.3 2.2.6 5.6.7 5.8-4.7 8-3.6 1.5-7.5 2.9-11.4 3.3-11.9 1.2-20.4-7.5-19.7-19.8.6-10.4 8.5-17.5 19.7-17.6 3.7.2 7.3 2.5 10.9-.9z"/><path id="XMLID_486_" class="st0" d="M391 93.2c4.3 3.3 8.6 6.7 12.8 10.1.4.4.5 1.1.8 1.7-.7 0-1.6.4-2.1.1-2.1-1.1-3.5-.5-4.7 1.3-.5.8-1.1 1.5-1.7 2.2-2.9 3.8-3.1 4.1-7.4 2.1-4.2-1.9-8.6-4-12.1-7-6.9-5.7-7.9-14.5-3.4-22 5.1-8.4 13.8-11.9 22.2-8.9 4.6 1.7 8.4 4.6 11.2 8.7.9 1.4 1.4 3.3 3.8 2.9.4-.1.9.7 1.5 1.2-2.6 3.4-5.1 6.7-7.6 10l-.9.1c-.2-.9-.7-1.8-.6-2.7.3-2.4 1.2-4.7 1.2-7.1.1-6.9-6.6-11.3-12.7-8-7.3 3.9-11.9 10.2-13.5 18.3-.9 4.6 3 9.4 7.8 9.6.8 0 1.7-.4 2.3-1l2.4-3c2.1-2.1 2.1-4.1.1-6.3-.5-.5-.4-1.5-.5-2.3.5.2.8.1 1.1 0z"/><path id="XMLID_485_" class="st0" d="M268.6 46.4c-.2 3.7-.4 7.2-.7 10.7-.2 2.5 1.1 3.8 3.5 4 .6 0 1.1 0 1.7.1 5.6 1.1 9.4-1.1 11.9-6.1.4-.8 1.4-1.3 2.2-1.9.2.2.4.4.7.6-.4 3.4-.8 6.9-1.3 10.7-3.6-.2-7-.3-10.5-.5-6.7-.4-13.5-.7-20.2-1.2-.8-.1-1.5-.8-2.3-1.2.7-.4 1.4-1 2.2-1.1 2.2-.2 3.2-1.3 3.3-3.6.3-7.5.7-14.9 1.2-22.4.2-2.5-.5-4-3-4.7-.7-.2-1.3-1.1-1.9-1.6.2-.3.3-.6.5-.8 10.2.6 20.4 1.2 31 1.8-.2 3.1-.4 6-.6 9.4-1-.6-2-.8-2.2-1.3-2.6-7-8.4-6.6-14.5-6.5-.2 4.4-.5 8.6-.7 12.7 5.4 1.5 7.2.8 9.8-3.9.3-.5 1.1-.7 1.6-1.1.2.5.6 1.1.6 1.6-.2 4.3-.4 8.6-.7 13.8-1.1-.9-1.9-1.3-2.1-1.9-2.4-5.4-3.2-5.9-9.5-5.6z"/><path id="XMLID_484_" class="st0" d="M171.2 44.2c1.6 3.2 3 6.1 4.9 9.8-1.5-.3-2.4-.3-3.1-.6-1-.5-1.8-1.3-2.7-1.9-3.4-2.2-4.5-2.1-9.1.6 1 2.1 2 4.2 3.1 6.4 2.9 5.8 5.8 11.5 8.6 17.3 1 2.1 2.3 2.9 4.6 2.1 1.1-.4 2.6-1.2 2.8 1.4-5.7 2.8-11.4 5.7-17.2 8.6l-.8-.5c.3-.7.5-1.8 1-2.1 2.7-1.5 2.7-3.2 1.4-5.7-4-7.7-7.8-15.5-11.6-23.2-5.3 1.7-6.1 2.9-6.1 9 0 1.3.5 2.9-1.9 3l-1.2-2.1c-1.1-2.1-2.1-4.3-3.3-6.7 10.2-5.3 20.2-10.3 30.6-15.4z"/><path id="XMLID_483_" class="st0" d="M247.8 160.9v32.2l-1.2-1.1-4.8 7c-8.7-5-17.5-8.8-27.6-9v-21.1c7.4.9 15.2 2.3 23-2l-8.6-2.1v-.6l6.3-.5v-.7h-2.2c0-.3-.1-.6-.1-.8 5-.3 10-.8 15.2-1.3z"/><path id="XMLID_482_" class="st0" d="M273.7 144.6c1.9-1.3 4.2-2.2 6.7.2.5.5 2.1 0 3.1-.3 1.4-.3 2.5-.4 2.6 1.8h-3.9c.5.9.7 1.4 1.4 2.6-1.4-.6-2.2-1-3.1-1.4l.2.6c-2.2.7-4.3 1.4-6.5 2.2-.6.2-1.1.5-1.6.8-3.7 2.1-6 1-6.7-2.9 2.4.2 4.9.5 7.4.6.2 0 .7-.4.7-.6 0-1-.1-2-.3-3.6z"/><path id="XMLID_481_" class="st0" d="M281.3 153.1c.3 2.7-.5 3.1-2.7 2.6-1.7-.4-3.5.1-5.3 0-1 0-2-.4-3.2-.6-.1.6-.3 1.3-.6 2.6-.7-1.1-1.1-1.7-1.4-2.3-1.2.1-2.3.1-3.4.2l-.1-1.1c2.4-.1 4.3-2.9 7.2-.8.3.2.8.3 1 .2 1.5-1.3 2.9-.5 4.5-.3s3.3-.9 5-1.1c2.2-.3 4.4-.4 6.8-.5-2.2 2.8-2.2 2.8-7.8 1.1z"/><path id="XMLID_480_" class="st0" d="M241.8 146.2c-.5.5-1.3 1.2-2.2 1.9.3.3.6.6.8.9-1.1 1.5-5.2-.2-6.6-2.7-.9.5-1.9 1-2.7 1.5-1.1-.9-2-1.6-3.4-2.8 2.9.2 5.5.4 8 .5 1.2 0 2.8.3 3.7-.3 3.2-2.1 5.4 0 7.7 1.7-1.8-.2-3.5-.4-5.3-.7z"/><path id="XMLID_479_" class="st0" d="M270.6 131.7c-3.7 1.6-7.2 1.9-10.2-1.7 1.2-.5 2.6-1 3.9-1.5 1.3 3.2 4.3 2.1 6.3 3.2z"/><path id="XMLID_478_" class="st0" d="M264.4 115c-4.5 1.7-8.1.7-9.2-2.3 3.4-.8 6 1 9.2 2.3z"/><path id="XMLID_477_" class="st0" d="M260.5 139.2c-4.9.1-6.1-1-5.7-5.2 1.5.5 3 .9 5.7 1.8-.9 1.2-1.4 1.9-2 2.7-.3-.2-.6-.4-1-.6 1 .3 1.9.7 3 1.3z"/><path id="XMLID_476_" class="st0" d="M224.5 155.4c3.1.6 6.5-.5 8.8 2.4-.1.3-.2.6-.2.9-1-.4-2-.8-3.1-1.1-.7-.2-1.6-.5-2.2-.3-1.8.6-2.9.2-3.3-1.9z"/><path id="XMLID_475_" class="st0" d="M244.7 129c3.6-2.3 6-1.3 5.8 2-2.1-.8-3.9-1.4-5.8-2z"/><path id="XMLID_474_" class="st0" d="M262.3 125.6c-1.5.2-3 .4-5 .7 3.6-2.7 6.4-2.6 8.7.7l-3.8-.8c0-.2 0-.4.1-.6z"/><path id="XMLID_473_" class="st0" d="M258.8 130.8c-1.5-.2-3-.4-4.6-.6.1-.6 0-1.5.3-1.6 1.7-.8 3.3-.8 4.4 1.1l-.1 1.1z"/><path id="XMLID_472_" class="st0" d="M224.7 145.9c-2.5.6-4.9 1.3-7.4 1.8-.3.1-1-.4-1-.6.1-.4.4-1.2.6-1.2 2.5-.3 5.1-.4 7.6-.6.2.2.2.4.2.6z"/><path id="XMLID_471_" class="st0" d="M303.4 145.9c-2.5.6-4.9 1.3-7.4 1.8-.3.1-1-.4-1-.6.1-.4.4-1.2.7-1.2 2.5-.3 5.1-.4 7.6-.6.1.2.1.4.1.6z"/><path id="XMLID_470_" class="st0" d="M237.2 153.9c-1.1.4-2.2.7-3.7 1.2v-2.7l3.7.3v1.2z"/><path id="XMLID_469_" class="st0" d="M245.2 109.1c1-.2 2.1-.5 3.1-.4.5 0 1.1.7 1.6 1-.5.4-1.1 1.3-1.5 1.2-1.1-.1-2.2-.6-3.3-1 0-.2.1-.5.1-.8z"/><path id="XMLID_468_" class="st0" d="M297.7 136.1l-2.8-.9c1.8-1 3-1.7 4.2-2.5l.5.7c-.5.9-1.1 1.6-1.9 2.7z"/><path id="XMLID_467_" class="st0" d="M218.9 136.1c-.4-.1-1.2-.3-2.7-.7 1.7-1.1 2.9-1.8 4.1-2.6l.6.8c-.5.6-1.1 1.4-2 2.5z"/><path id="XMLID_466_" class="st0" d="M241.2 158l-5-.3c0-.4 0-.8.1-1.2l5 .3c-.1.4-.1.8-.1 1.2z"/><path id="XMLID_465_" class="st0" d="M292.6 368.2c-.1 1.3 0 2.6-.3 3.8-.2.8-.8 2.1-1.3 2.2-.9.1-2.2-.3-2.9-1-1.7-1.8-2.2-10.5-.8-12.5.5-.6 1.5-1.3 2.2-1.2.7.1 1.8.9 2 1.6.6 2.3.8 4.7 1.2 7l-.1.1z"/><path id="XMLID_112_" class="st0" d="M99.2 459.4s10.3 15.9 68.5 41.1c24.7 9.2 50.7 14.7 77 16 3.9.2 7.9.3 11.8.3 46.5.2 93-12.5 133-36.2 7.7-4.5 21.8-16.3 21.3-16.9-1.4-1.8-4.1-2.7-6.5-2.5-3.2.4-5.9 2.2-8.6 4-43.3 29-95.9 43.8-148 41.7s-103.3-21-144.2-53.4c.2.2-3.8 5.2-4.3 5.9"/></g></svg>