<svg xmlns="http://www.w3.org/2000/svg" width="180" height="96.2" viewBox="0 0 180 96.2"><style type="text/css">.st0{fill:#FFFFFF;}</style><path class="st0" d="M14.4 72c-1.9 1-4 1.5-6.3 1.5-4.7 0-8.1-3.2-8.1-8 0-4.9 3.4-8.1 8.1-8.1 2.3 0 4.4.5 6 1.9l-2 2c-1-1-2.5-1.5-4-1.5-3.2 0-5.3 2.4-5.3 5.5 0 3.3 2.1 5.7 5.3 5.7 1.4 0 2.6-.3 3.6-.8v-3.6h-3.1v-2.5h5.9v7.9zM19.5 68.9c.2 1.5 1.3 2.5 2.8 2.5 1.3 0 2.1-.6 2.8-1.4l1.9 1.4c-1.2 1.5-2.7 2.1-4.4 2.1-3.1 0-5.6-2.2-5.6-5.5s2.5-5.4 5.6-5.4c2.9 0 4.9 2 4.9 5.6v.7h-8zm5.3-2c0-1.5-1-2.5-2.6-2.5-1.5 0-2.5 1-2.7 2.5h5.3zM34.9 62.5c3.1 0 5.6 2.2 5.6 5.4s-2.5 5.5-5.6 5.5c-3.1 0-5.6-2.2-5.6-5.5s2.5-5.4 5.6-5.4zm0 8.6c1.9 0 3-1.5 3-3.1s-1.1-3.1-3-3.1-3 1.5-3 3.1 1.1 3.1 3 3.1zM43 62.8h2.6v1.6c.6-1.2 1.7-1.9 3.1-1.9.3 0 .6.1.9.2v2.5c-.4-.1-.8-.2-1.3-.2-2.4 0-2.8 2.1-2.8 2.6v5.6h-2.5v-10.4zM61.7 62.8v9.5c0 3.7-1.8 6.1-5.9 6.1-1.9 0-3.7-.4-5.1-1.7l1.6-2.1c1 1 2.1 1.5 3.6 1.5 2.5 0 3.3-1.4 3.3-3.5v-.8c-.8 1-2.1 1.5-3.4 1.5-3.1 0-5.2-2.4-5.2-5.3 0-3.1 1.9-5.4 5.1-5.4 1.4 0 2.8.6 3.6 1.8v-1.6h2.4zm-8.6 5.1c0 1.6 1.3 3 3 3 1.9 0 3.1-1.3 3.1-3 0-1.8-1.2-3-3.1-3-1.7 0-3 1.2-3 3zM66 57.7c1 0 1.7.7 1.7 1.6 0 .9-.7 1.6-1.7 1.6s-1.6-.7-1.6-1.6c-.1-.9.6-1.6 1.6-1.6zm-1.3 5.1h2.6v10.4h-2.6v-10.4zM76.8 71.7c-.8 1.2-2 1.7-3.4 1.7-1.9 0-3.8-1.1-3.8-3.1 0-3.4 3.9-3.6 6.5-3.6h.6v-.3c0-1.3-1-1.9-2.4-1.9-1.1 0-2.1.4-2.8 1.1l-1.4-1.4c1.1-1.2 2.8-1.7 4.4-1.7 4.4 0 4.4 3.2 4.4 4.7v6h-2.3v-1.5zm-.2-3.2h-.5c-1.4 0-3.9.1-3.9 1.6 0 1 1 1.4 1.8 1.4 1.8 0 2.6-.9 2.6-2.4v-.6zM102.1 72c-1.9 1-4 1.5-6.3 1.5-4.7 0-8.1-3.2-8.1-8 0-4.9 3.4-8.1 8.1-8.1 2.3 0 4.4.5 6 1.9l-2 2c-1-1-2.5-1.5-4-1.5-3.2 0-5.3 2.4-5.3 5.5 0 3.3 2.1 5.7 5.3 5.7 1.4 0 2.6-.3 3.6-.8v-3.6h-3.1v-2.5h5.9v7.9zM103.7 62.8h2.8l2.2 7.3 2.1-7.3h2.8l2.4 7.2 2.2-7.3h2.6l-3.5 10.4h-2.6l-2.5-7.1-2.2 7.1h-2.7l-3.6-10.3zM123.7 57.7c1 0 1.7.7 1.7 1.6 0 .9-.7 1.6-1.7 1.6s-1.6-.7-1.6-1.6c-.1-.9.6-1.6 1.6-1.6zm-1.3 5.1h2.6v10.4h-2.6v-10.4zM128 62.8h2.5v1.7c.5-1 1.4-1.9 3.2-1.9 2.8 0 3.8 2 3.8 4.1v6.6h-2.6v-5.3c0-1.1-.1-3-1.9-3-1.7 0-2.4 1.3-2.4 2.6v5.7h-2.6v-10.5zM140.4 62.8h2.5v1.7c.5-1 1.4-1.9 3.2-1.9 2.8 0 3.8 2 3.8 4.1v6.6h-2.6v-5.3c0-1.1-.1-3-1.9-3-1.7 0-2.4 1.3-2.4 2.6v5.7h-2.6v-10.5zM154.9 68.9c.2 1.5 1.3 2.5 2.8 2.5 1.3 0 2.1-.6 2.8-1.4l1.9 1.4c-1.2 1.5-2.7 2.1-4.4 2.1-3.1 0-5.6-2.2-5.6-5.5s2.5-5.4 5.6-5.4c2.9 0 4.9 2 4.9 5.6v.7h-8zm5.3-2c0-1.5-1-2.5-2.6-2.5-1.5 0-2.5 1-2.7 2.5h5.3zM164 65v-2.2h2.1v-3h2.6v3h2.9v2.2h-2.9v4.5c0 1 .3 1.7 1.4 1.7.5 0 1.1-.1 1.4-.3v2.2c-.5.3-1.4.3-2.1.3-2.7 0-3.4-1.2-3.4-3.7v-4.7h-2zM172.4 65v-2.2h2.1v-3h2.6v3h2.9v2.2h-2.9v4.5c0 1 .3 1.7 1.4 1.7.5 0 1.1-.1 1.4-.3v2.2c-.5.3-1.4.3-2.1.3-2.7 0-3.4-1.2-3.4-3.7v-4.7h-2zM56.7 88.2c-.8-.8-1.4-1-2.1-1-2.1 0-3.5 1.6-3.5 3.6 0 2.2 1.4 3.8 3.5 3.8.8 0 1.6-.4 2.3-1.2l1.5 1.1c-.9 1.3-2.3 1.8-3.8 1.8-3.1 0-5.4-2.1-5.4-5.3 0-3.3 2.2-5.4 5.4-5.4 1.4 0 2.6.4 3.6 1.6l-1.5 1zM67.3 85.5c3.2-.1 5.4 2.1 5.4 5.3 0 3.2-2.2 5.3-5.4 5.4-3.1 0-5.4-2.1-5.4-5.3 0-3.2 2.2-5.4 5.4-5.4zm0 9.1c2.1 0 3.5-1.6 3.5-3.8 0-2-1.4-3.6-3.5-3.6s-3.5 1.6-3.5 3.6c0 2.2 1.4 3.8 3.5 3.8zM77.3 85.8h1.8v8.6h4.3v1.6h-6.2v-10.2zM87.7 85.8h1.8v8.6h4.3v1.6h-6.2v-10.2zM98.1 85.8h6.8v1.6h-4.9v2.5h4.7v1.6h-4.7v2.8h5.2v1.7h-7v-10.2zM118.8 95.2c-1.2.7-2.7 1-4.2 1-3.1 0-5.4-2.1-5.4-5.3 0-3.3 2.2-5.4 5.4-5.4 1.6 0 3 .3 4 1.3l-1.3 1.4c-.6-.6-1.6-1-2.7-1-2.1 0-3.5 1.6-3.5 3.6 0 2.2 1.4 3.8 3.5 3.8.9 0 1.8-.2 2.4-.5v-2.4h-2.1v-1.7h3.9v5.2zM123.9 85.8h6.8v1.6h-4.9v2.5h4.7v1.6h-4.7v2.8h5.2v1.7h-7v-10.2zM87.4 24.5h33.5c-.1 15.3-10.4 20.3-15.1 21.7-4.8 1.4-20.9 2.5-29.2 0-18.3-5.3-21.6-24.4-13.8-35.7 8.5-12.2 24.8-13 35.8-6.2-25.3.9-28.3 30-7.6 37.4 4-1.5 10.2-5.7 10.6-12.7h-14.2v-4.5zm-4.6-20.2c-27.5 3.1-24 37.2 0 38.6-14.7-11.2-12-30.7 0-38.6zm32.9 24.7h-9.1c-.1 4-4.7 12.4-7.8 13.8 10.3.1 15.7-7 16.9-13.8z"/></svg>