<svg id="institutions" xmlns="http://www.w3.org/2000/svg" viewBox="0 0 210.84 89.84"><defs><style>.cls-1,.cls-2,.cls-3{fill:#fff;}.cls-2,.cls-3{stroke:#fff;}.cls-2{stroke-width:2.17px;}.cls-3{stroke-miterlimit:10;}</style></defs><title>georgia-tech</title><path class="cls-1" d="M33.08,78.09H27.29l-.53-3c-2.36,2.66-6.41,3.59-9.6,3.59C6.75,78.67,0,72.3,0,64.31S6.75,50,17.17,50c7.14,0,14.76,3,15.58,10h-9c-.29-2.35-3.18-3.78-6.8-3.78-5.79,0-8,4.09-8,8.18s2.22,8.18,8,8.18c4.44,0,7.43-1.66,7.91-4.17H18.61V63H33.08Zm10-8.41c.15,2.74,2.12,4.55,5.59,4.55,2,0,3.91-.73,4.68-2.2H61c-1.49,4.63-6.85,6.64-12.44,6.64-8.15,0-13.69-3.94-13.69-10.65,0-6.13,6.12-10.53,13.5-10.53,9,0,13.45,5.4,13.07,12.19ZM53.23,66a4.6,4.6,0,0,0-4.87-4.09A5,5,0,0,0,43.05,66Zm22.64-8.51c7.76,0,13.21,4.59,13.21,10.61S83.63,78.67,75.87,78.67,62.71,74.11,62.71,68.09,68.11,57.49,75.87,57.49Zm0,16.16c3.81,0,5-3,5-5.56s-1.21-5.59-5-5.59-5,3-5,5.59S72.06,73.65,75.87,73.65ZM90.44,58.06h8v3.51h.1c1.21-2.55,4-3.9,7.52-3.9a10.4,10.4,0,0,1,1.93.15v6a13.83,13.83,0,0,0-3.13-.39c-4,0-6.17,2.24-6.17,4.75v9.91h-8.2v-20Zm43.65,17.6c0,3.28-.77,9.45-12.49,9.45-5.84,0-11.33-1-12.3-6.4h8.2a2.19,2.19,0,0,0,1.4,1.74,8,8,0,0,0,3,.42c3.91,0,4.29-2.2,4.29-4.67V74.31h-.1a8.54,8.54,0,0,1-6.65,2.93c-7.57,0-11-4.32-11-10,0-5.32,3.91-9.8,11-9.8,3,0,5.26,1,6.7,3.09h.1V58.06h7.86v17.6ZM121.41,62.5c-3.62,0-4.77,2.54-4.77,5a4.4,4.4,0,0,0,4.08,4.7,3.53,3.53,0,0,0,.65,0c3.47,0,5-2.16,5-4.67S125.07,62.5,121.41,62.5Zm15.81-4.44h8.2v20h-8.2Zm8.2-2.51h-8.2v-5h8.2Zm2.4,8.69a6.12,6.12,0,0,1,3.91-5.36,19.9,19.9,0,0,1,8-1.39c5.93,0,11.67,1,11.67,6.71V73a9.58,9.58,0,0,0,1,5.13h-8.25a6.49,6.49,0,0,1-.48-1.89c-2.12,1.77-5.26,2.47-8.25,2.47-4.77,0-8.53-1.93-8.53-6.06,0-6.52,8.87-6,14.56-6.94,1.4-.23,2.17-.62,2.17-1.85,0-1.51-2.27-2.08-4-2.08-2.27,0-3.71.81-4.1,2.51h-7.67Zm10.61,10.38c3.91,0,5.21-1.77,5-5.9-1.16.58-3.28.69-5.06,1.08s-3.38,1-3.38,2.55,1.61,2.26,3.44,2.26ZM97.86,89.26H87.59v21.37h-9V89.26H68.35V83.09H97.86Z" transform="translate(0 -35.3)"/><path class="cls-1" d="M98.82,102.23c.14,2.74,2.12,4.55,5.59,4.55,2,0,3.91-.73,4.68-2.2h7.67c-1.49,4.63-6.85,6.64-12.44,6.64-8.15,0-13.69-3.94-13.69-10.65,0-6.13,6.12-10.53,13.5-10.53,9,0,13.45,5.4,13.07,12.19ZM109,98.56a4.6,4.6,0,0,0-4.87-4.09,5,5,0,0,0-5.3,4.09Zm27.52-.62c0-1.7-1.93-2.89-4-2.89-4.58,0-5.3,3.13-5.3,5.91,0,2.58,1.4,5.25,4.87,5.25,2.84,0,4.29-1.31,4.68-3.43h8c-.72,5.36-5.93,8.45-12.59,8.45-7.52,0-13.12-4.13-13.12-10.26-.06-6.38,5-11,13.07-11,6.22,0,11.77,2.62,12.34,7.91h-8Zm9.87-14.85h8.2V93.35h.1c1.25-2,4.63-3.32,7.62-3.32,8.34,0,9,4.86,9,7.75v12.85h-8.2V101c0-2.74.39-5.52-4.1-5.52a4.08,4.08,0,0,0-4.43,3.7,3.75,3.75,0,0,0,0,.58v10.92h-8.2V83.09Z" transform="translate(0 -35.3)"/><path class="cls-2" d="M182.31,83.46l8.49,31.84h-8.49V83.46Z" transform="translate(0 -35.3)"/><path class="cls-2" d="M199.29,83.46,190.8,115.3h8.49V83.46Z" transform="translate(0 -35.3)"/><path class="cls-2" d="M195,99.05,190.8,35.37l-4.24,63.68" transform="translate(0 -35.3)"/><path class="cls-2" d="M182.31,119.14h17v4.4h-17Z" transform="translate(0 -35.3)"/><path class="cls-3" d="M206.75,117.42a3.61,3.61,0,1,1-3.63,3.59,3.61,3.61,0,0,1,3.63-3.59Zm0,6.68a3.08,3.08,0,1,0-3-3.16V121a3,3,0,0,0,2.91,3.09Zm-1.41-5.19H207c1,0,1.47.4,1.47,1.21a1.08,1.08,0,0,1-1,1.15h-.1l1.21,1.86h-.7l-1.15-1.81H206v1.81h-.65v-4.21Zm.65,1.87h.68c.58,0,1.11,0,1.11-.69s-.48-.65-.93-.65H206v1.34Z" transform="translate(0 -35.3)"/></svg>