<?xml version="1.0" encoding="utf-8"?>
<!-- Generator: Adobe Illustrator 21.1.0, SVG Export Plug-In . SVG Version: 6.00 Build 0)  -->
<svg version="1.1" id="Layer_1" xmlns="http://www.w3.org/2000/svg" xmlns:xlink="http://www.w3.org/1999/xlink" x="0px" y="0px"
	 viewBox="0 0 669 291.7" style="enable-background:new 0 0 669 291.7;" xml:space="preserve">
<style type="text/css">
	.st0{fill:#FFFFFF;}
	.st1{fill:none;}
</style>
<g>
	<g>
		<path class="st0" d="M460.6,214.6c-6.4-0.2-12.6-0.4-18.8-0.5c-15.4-0.2-30.8-0.4-46.2-0.2c-8,0.1-15.9,0.1-23.9,0.3
			c-5.4,0.1-10.8,0.3-16.2,0.4c-1.5,0-1.6,0.3-1.6-1.5c0-1.5,0.1-2.9,0-4.4c-0.1-1.1,0.4-1.6,1.5-1.7c4.4-0.8,8.7-1.7,13-2.9
			c3.2-0.9,6.3-2.2,9.3-3.6c6.2-3.1,9.8-8,11-14.7c1.2-6.6,1.6-13.2,1.7-19.9c0.1-13,0.1-25.9,0.1-38.9c0-0.3,0-0.7,0-1
			c0-0.6-0.3-0.9-0.9-0.8c-0.5,0-1,0-1.5,0c-31,0-62,0-93,0c-2.8,0-2.5-0.3-2.5,2.4c0,12.5,0,25.1,0.1,37.6
			c0.1,5.5,0.3,11.1,1.1,16.6c0.3,2.3,0.7,4.6,1.4,6.9c1.5,5.2,4.7,8.9,9.4,11.4c4.7,2.5,9.7,4.2,14.8,5.3c2.8,0.6,5.6,1.2,8.3,1.7
			c1.1,0.2,1.5,0.6,1.5,1.8c-0.1,1.5,0,2.9,0,4.4c0,1.5,0,1.6-1.7,1.5c-5.8-0.1-11.5-0.3-17.3-0.4c-15.3-0.2-30.6-0.4-46-0.2
			c-8,0.1-16.1,0.1-24.1,0.3c-5.3,0.1-10.7,0.3-16,0.4c-1.7,0-1.7,0-1.7-1.6c0-1.3,0-2.6,0-4c0-1.7,0-1.7,1.8-2
			c3.8-0.6,7.5-1.4,11.1-2.5c3.5-1.1,6.8-2.5,9.8-4.5c3-2.1,5.2-4.7,6.5-8.2c1.7-4.7,2.5-9.5,3.1-14.4c0.9-7.7,1-15.5,1-23.3
			c0-22.8,0-45.6,0-68.4c0-7.6-0.1-15.1-1-22.6c-0.5-4.2-1.2-8.3-2.4-12.4c-1.5-5.1-4.6-8.8-9.1-11.3c-4-2.2-8.2-3.6-12.6-4.6
			c-2.2-0.5-4.5-0.9-6.7-1.3c-1.1-0.2-1.4-0.6-1.4-1.6c0.1-1.5,0.1-3.1,0-4.6c-0.1-1.1,0.4-1.4,1.4-1.4c4.5,0.2,9,0.3,13.5,0.4
			c7.4,0.1,14.8,0.2,22.2,0.3c7.3,0.1,14.7,0.2,22,0.1c15-0.1,30.1-0.3,45.1-0.7c0.3,0,0.7,0,1,0c1.1-0.1,1.4,0.4,1.4,1.4
			c-0.1,1.5-0.1,3.1,0,4.6c0,1-0.3,1.4-1.4,1.6c-5.4,1-10.7,2-16,3.7c-1.8,0.6-3.5,1.2-5.2,2c-6.5,2.9-10.5,7.8-12,14.7
			c-1,4.7-1.4,9.5-1.7,14.2c-0.4,7.8-0.4,15.5-0.4,23.3c0,5.2,0,10.4,0,15.6c0,1.7,0,1.7,1.7,1.7c0.3,0,0.6,0,0.8,0
			c30.9,0,61.8,0,92.8,0c2.7,0,2.5,0.4,2.5-2.4c0-11.2,0-22.3-0.1-33.5c-0.1-6.5-0.5-13-2-19.4c-1.4-6.2-5.1-10.7-10.7-13.6
			c-4.5-2.3-9.3-3.5-14.2-4.7c-2.8-0.6-5.6-1.2-8.3-1.7c-0.8-0.2-1.2-0.5-1.2-1.3c0-1.6,0-3.2,0-4.8c0-1.4,0-1.5,1.5-1.5
			c4.6,0.1,9.1,0.3,13.7,0.3c7.3,0.1,14.7,0.2,22,0.3c7.3,0.1,14.6,0.2,21.8,0.1c15-0.1,30.1-0.3,45.1-0.7c0.3,0,0.6,0,0.8,0
			c1.6,0,1.6,0,1.6,1.6c0,1.3,0,2.6,0,4c0,1.8,0,1.8-1.7,2.1c-4.2,0.7-8.3,1.5-12.3,2.9c-2.8,0.9-5.4,2.1-7.9,3.7
			c-3.5,2.2-6,5.2-7.4,9.2c-1.4,4-2.2,8-2.7,12.1c-1,7.9-1.3,15.9-1.3,23.9c0,23.9,0,47.8,0,71.8c0,8.3,0.4,16.5,1.6,24.7
			c0.5,3,1.2,6,2.1,8.9c1.4,4.4,4.1,7.7,7.9,10c4.1,2.5,8.5,4,13.1,5.1c2.4,0.6,4.7,1.1,7.1,1.3c1,0.1,1.4,0.5,1.4,1.6
			C460.6,210.5,460.6,212.4,460.6,214.6z"/>
		<path class="st0" d="M160.4,125.4c14.2,0.1,28.4-0.3,42.6-0.5c1.6,0,3.2-0.1,4.8-0.2c0.8-0.1,1.1,0.2,1.1,1c0,1.7,0,3.3,0,5
			c0,0.8-0.3,1.2-1.1,1.4c-2.4,0.5-4.7,1.2-6.9,2.1c-2.4,0.9-4.7,2.1-6.7,3.7c-1.7,1.3-2.9,2.9-3.6,5c-1.1,3.2-1.6,6.4-1.9,9.8
			c-0.3,3.4-0.5,6.8-0.5,10.2c0,9.2,0,18.4,0,27.7c0,0.3,0,0.6,0,0.8c-0.1,1.1,0.3,1.5,1.4,1.4c1.9-0.1,3.9,0,5.8,0
			c2.3,0,4.6,0,6.9,0c0.9,0,1.4,0.2,1.4,1.3c-0.1,1.7,0.6,3.7-0.3,5.1c-0.8,1.3-2.8,1.5-4.4,2.1c-15.4,6.2-31.2,11.4-47.5,14.7
			c-9,1.9-18.2,3.1-27.4,3.6c-7.3,0.4-14.6,0.4-21.8-0.1c-18.7-1.3-36.5-5.5-52.9-14.9c-17.6-10.1-30.9-24.2-39-42.9
			c-3.9-8.9-6.1-18.2-7-27.9C2,121.7,2.6,109.9,5.3,98.3c3.9-16.5,12.2-30.6,23.9-42.8c14.2-14.8,31.6-23.9,51.2-29
			c16-4.2,32.2-5.4,48.7-4.4c19.3,1.1,37.9,5.7,56.2,11.6c3.3,1.1,3.3,1.1,3.3,4.5c0,16,0,32,0,48.1c0,2.5,0.3,2.2-2.2,2.2
			c-1.2,0-2.4,0-3.5,0c-1.8,0-1.8,0.4-2.5-1.7c-1.9-5.7-4.2-11.2-7-16.4c-4.6-8.7-10.3-16.4-18-22.6c-9-7.3-19.3-11.5-30.9-12.6
			c-13.3-1.3-26.2,0.3-38.3,6.2c-15.8,7.7-26.8,20.1-33.8,36.1c-3.4,7.7-5.2,15.9-6,24.3c-1.3,15,0,29.8,4.7,44.1
			c4.9,14.8,12.5,27.9,24.1,38.6c12.1,11.2,26.1,18.7,42.3,21.7c6.9,1.3,13.9,1.7,20.9,1c1.9-0.2,3.7-0.6,5.5-1.2
			c2.7-1,4.6-2.7,5.5-5.5c0.9-2.5,1.4-5.1,1.5-7.7c0.2-10.1,0.3-20.2-0.1-30.4c-0.2-4.8-1-9.5-2.8-14c-1.8-4.8-4.9-8.2-9.6-10.4
			c-5-2.2-10.2-3.5-15.5-4.4c-3.3-0.6-6.6-1.1-9.9-1.3c-1.4-0.1-1.5-0.2-1.5-1.7c0-1.4,0-2.8,0-4.2c0-1.5,0-1.5,1.5-1.5
			c4.2,0.1,8.3,0.3,12.5,0.3C137.3,125.1,148.8,125.5,160.4,125.4z"/>
		<path class="st0" d="M657.4,62.7c0,8.3,0,16.6,0,25c0,2.1,0.3,2.1-2.2,2.1c-1.6,0-3.2-0.1-4.8,0c-1.2,0.1-1.7-0.4-1.9-1.5
			c-1.3-5.6-3-11.1-5.2-16.4c-2.8-6.8-6.2-13.3-11-19c-8.4-10-19.2-15.9-32.1-17.8c-10.2-1.5-20.3-0.9-30.2,2.3
			c-11.7,3.8-21.2,11-29.1,20.3c-8.9,10.6-14.6,22.9-17.3,36.4c-3.5,17.3-3.3,34.6,1.2,51.7c4,15.2,10.9,28.9,21.8,40.3
			c8.8,9.2,19,16.1,31.5,19.3c19.8,5.1,37.5,1.1,52.9-12.4c8.2-7.2,14.5-16,19.9-25.4c3.5-6.1,6.5-12.4,9.1-18.9
			c0.6-1.5,0.7-1.5,2.2-1.1c1.8,0.5,3.6,1,5.4,1.5c1,0.2,1.1,0.7,1,1.6c-2.4,11.4-4.9,22.9-8.4,34.1c-2.3,7.4-4.8,14.8-7.8,21.9
			c-0.6,1.4-1.5,2.2-2.8,2.8c-9.3,3.8-18.8,6.4-28.7,8.1c-11.5,1.9-23.1,2.7-34.8,2.3c-15.8-0.5-31.3-2.7-46.2-8.2
			c-16.7-6.1-31.2-15.6-42.6-29.4c-9.1-11-14.7-23.6-17.4-37.5c-2-10.1-2.4-20.4-1.6-30.6c3.6-42.7,30.8-70.3,61.2-82.4
			c13.5-5.4,27.5-8.5,42-9.5c25.9-1.8,50.6,2.8,74.4,13c1.3,0.6,1.6,1.3,1.6,2.6C657.3,46,657.4,54.4,657.4,62.7z"/>
	</g>
	<g>
		<path class="st0" d="M334.5,286.5c110.5,0,221,0,331.6,0c3,0,3,0,2.9,3c0,0.2,0,0.4,0,0.6c0,1.6,0,1.6-1.6,1.6c-0.4,0-0.8,0-1.2,0
			c-221.1,0-442.2,0-663.3,0c-3.1,0-2.7,0.4-2.7-2.8c0-0.2,0-0.4,0-0.6c0-1.8,0-1.8,1.8-1.8c14.3,0,28.6,0,42.8,0
			C141.4,286.5,237.9,286.5,334.5,286.5z"/>
		<path class="st0" d="M332.7,0c109.9,0,219.8,0,329.7,0c3,0,3,0,3,3.1c0,0.4,0,0.8,0,1.2c0,0.5-0.3,0.7-0.8,0.7c-0.5,0-1,0-1.5,0
			c-220.3,0-440.6,0-660.9,0C-0.3,5.1,0,5.4,0,2.8C0-0.4-0.4,0,2.8,0C112.7,0,222.7,0,332.7,0z"/>
		<path class="st0" d="M334.1,232.7c109.9,0,219.8,0,329.7,0c2.8,0,2.9,0,2.8,2.9c0,2.6,0.3,2.2-2.4,2.2c-187.6,0-375.2,0-562.9,0
			c-32.3,0-64.6,0-96.9,0c-3.1,0-2.6,0.3-2.6-2.7c0-0.2,0-0.4,0-0.6c0-1.8,0-1.8,1.8-1.8c0.6,0,1.1,0,1.7,0
			C114.9,232.7,224.5,232.7,334.1,232.7z"/>
	</g>
	<g>
		<path class="st0" d="M216.8,262.4c0-2.7,0-5.4,0-8.1c0-0.6,0-1.3-0.1-1.9c-0.5-4-1-4.6-4.9-5.7c-0.3-0.1-0.5-0.2-0.8-0.3
			c-0.4-0.2-0.4-0.5-0.3-0.9c0.1-0.3,0.3-0.4,0.6-0.4c0.3,0,0.7,0,1,0c5.5,0,11,0,16.4,0c0.2,0,0.4,0,0.6,0c0.4,0,0.9,0,0.9,0.5
			c0.1,0.6-0.3,0.9-0.8,1c-0.8,0.2-1.6,0.4-2.4,0.6c-2,0.6-3.1,1.9-3.3,4.1c-0.2,2.6-0.2,5.1-0.2,7.7c0,0.9,0.3,1.2,1.2,1.2
			c5.2,0,10.4,0,15.6,0c0.8,0,1.1-0.4,1-1.1c-0.1-2.5,0-5-0.1-7.5c-0.1-2.6-1.1-3.7-3.6-4.4c-0.6-0.2-1.2-0.3-1.8-0.4
			c-0.5-0.1-1.2-0.1-1.1-0.9c0-0.9,0.7-0.6,1.2-0.6c1,0,2.1,0,3.1,0c4.5,0,9,0,13.5,0c0.3,0,0.7,0,1,0c0.4,0,0.7,0.1,0.7,0.5
			c0,0.4,0,0.7-0.4,0.8c-0.6,0.2-1.2,0.3-1.8,0.5c-1.9,0.6-3.1,1.6-3.4,3.7c-0.2,1.3-0.3,2.6-0.3,3.9c0,5.2,0,10.4,0,15.6
			c0,1.3,0.1,2.6,0.3,3.9c0.3,2,1.4,3.1,3.3,3.6c0.5,0.1,0.9,0.3,1.4,0.4c0.6,0.1,1.1,0.3,1,1c-0.1,0.7-0.7,0.6-1.1,0.6
			c-2,0-4-0.1-6-0.1c-3.5,0-6.9,0-10.4,0c-0.4,0-0.8,0-1.2,0c-0.4,0-0.8-0.1-0.8-0.7c0-0.5,0.2-0.8,0.7-0.9c0.7-0.2,1.5-0.3,2.2-0.5
			c2.6-0.8,3.5-1.9,3.7-4.6c0.1-2.8,0.1-5.7,0.1-8.5c0-0.8-0.2-1.1-1.1-1.1c-5.2,0-10.4,0-15.6,0c-0.9,0-1.2,0.4-1.2,1.3
			c0,3,0,6,0.2,8.9c0.2,1.9,1.1,3.2,3,3.8c0.7,0.2,1.3,0.4,2,0.6c0.6,0.2,1.6,0,1.5,1c-0.1,1.2-1.2,0.7-1.8,0.7c-4,0-8,0-12.1,0
			c-1.6,0-3.2,0-4.8,0.1c-0.4,0-0.9,0-1-0.5c-0.1-0.6,0.2-0.9,0.8-1c0.1,0,0.1,0,0.2,0c4.9-0.9,4.8-2.9,5-6.2
			C216.9,268.8,216.7,265.6,216.8,262.4C216.8,262.4,216.8,262.4,216.8,262.4z"/>
		<path class="st0" d="M31.3,263.2c2.6,0,5.1,0,7.7,0c0.5,0,1-0.2,1.2,0.5c0.1,0.7-0.3,1-0.9,1.1c-1.9,0.5-2.6,1.7-2.8,3.6
			c-0.2,2.1,0,4.2-0.1,6.2c0,0.8,0.4,0.9,1,0.9c0.6,0.1,1.5-0.5,1.8,0.5c0.2,1.1-0.8,1.1-1.5,1.4c-5.6,2.2-11.4,3.5-17.4,3
			c-4.7-0.4-8.9-1.8-12.5-5c-7.5-6.6-8-21.5,3.4-28.1c5-2.9,10.4-3.5,16.1-2.9c2.8,0.3,5.4,1,8.1,1.8c0.9,0.3,1.3,0.7,1.2,1.6
			c0,2.5,0,5,0,7.5c0,0.5,0.1,1-0.6,1.2c-0.7,0.1-1-0.2-1.3-0.8c-0.3-0.7-0.5-1.4-0.9-2.1c-2.1-4.2-5.4-6.8-10.3-6.9
			c-5.1-0.1-9,2.1-11.4,6.6c-2.6,4.8-2.3,9.8-0.4,14.7c1.9,5,5.6,8.3,10.9,9.7c1.5,0.4,3.1,0.6,4.7,0.3c1.4-0.2,1.9-0.6,2.1-1.9
			c0.2-2.8,0.4-5.5-0.3-8.3c-0.3-1.3-1.2-2.2-2.5-2.6c-1.1-0.4-2.3-0.7-3.4-0.7c-0.6,0-0.9-0.3-0.9-0.9c0-0.7,0.6-0.6,1.1-0.6
			C26,263.2,28.6,263.2,31.3,263.2C31.3,263.2,31.3,263.2,31.3,263.2z"/>
		<path class="st0" d="M387.6,262.3c0,4.1,0.1,8.2,0.3,12.2c0.1,1.9,1.1,3.1,3,3.5c0.1,0,0.3,0.1,0.4,0.1c0.5,0.4,1.7,0,1.5,1
			c-0.2,0.8-1,0.4-1.6,0.4c-6.7,0-13.3,0-20,0c-0.4,0-0.8,0-1.2,0c-0.2,0-0.4-0.2-0.4-0.4c0-0.2,0.1-0.4,0.3-0.5
			c0.1-0.1,0.4-0.1,0.6-0.2c2.1-0.8,2.4-1.3,1.7-3.4c-0.4-1.4-1-2.7-1.5-4.1c-0.2-0.6-0.6-0.8-1.2-0.8c-1.9,0-3.7,0-5.6,0
			c-0.6,0-1.1,0.2-1.2,0.8c-0.4,1.3-0.9,2.6-1.2,4c-0.5,2.1,0.2,2.9,2.2,3.5c0.6,0.2,1.9-0.2,1.7,0.9c-0.1,0.7-1.2,0.3-1.8,0.4
			c-2.6,0-5.3,0-7.9,0c-0.3,0-0.7,0.1-0.9-0.3c-0.2-0.5,0.2-0.7,0.6-0.9c1.7-0.7,2.7-2.2,3.4-3.8c2.3-5.4,4.4-10.8,6.6-16.1
			c0.2-0.5,0.3-0.9,0.2-1.4c-0.1-0.5,0.2-0.8,0.6-1c0.9-0.4,1.6-1.1,2.2-1.9c0.5-0.6,1-0.5,1.3,0.2c0.2,0.4,0.4,0.9,0.5,1.4
			c2.2,5.8,4.4,11.6,6.6,17.5c0.6,1.6,1.3,3,2.5,4.2c2.2,2.2,5.9,0.4,6.2-2c0.1-1.2,0.4-2.5,0.4-3.7c0.2-3,0.3-6,0.3-8.9
			c0-0.8-0.1-1.7-0.2-2.5c-0.2-1.9-1.3-3-3-3.6c-0.2-0.1-0.4-0.1-0.6-0.2c-0.4-0.2-1.1-0.1-1-0.8c0.1-0.6,0.8-0.4,1.2-0.4
			c1.8,0,3.6,0.1,5.4,0c1.2-0.1,1.8,0.5,2.4,1.2c4.1,5,8.6,9.6,12.9,14.4c0.4,0.5,0.8,0.9,1.3,1.3c0.7-0.3,0.4-0.9,0.4-1.3
			c0-3.3,0-6.6-0.3-10c-0.3-3.3-1.2-4.2-4-4.6c-0.3,0-0.6-0.1-0.8-0.2c-0.2-0.1-0.4-0.2-0.3-0.5c0-0.2,0.1-0.4,0.4-0.4
			c0.2,0,0.4,0,0.6,0c2.9,0,5.8,0,8.7,0c0.4,0,0.8,0,0.9,0.4c0.1,0.4-0.3,0.6-0.6,0.7c-2,0.5-2.4,1.9-2.6,3.7
			c-0.5,5.7-0.4,11.5-0.3,17.3c0,0.3,0,0.7,0,1c0.1,0.8-0.1,1.3-0.8,1.7c-0.9,0.4-1.1-0.3-1.5-0.7c-4.2-4.5-8.4-9.1-12.6-13.6
			c-1.2-1.3-2.4-2.6-3.7-3.9C387.9,262.2,387.7,262.3,387.6,262.3z M363.9,267.8c1.7-0.1,3.5,0.3,5.5-0.2c-1-2.6-1.9-4.9-3-7.6
			c-0.8,2.3-1.5,4.1-2.2,6C364,266.5,363.7,267,363.9,267.8z"/>
		<path class="st0" d="M510.6,251.8c0,1.4,0,2.8,0,4.2c0,0.4-0.1,0.8-0.6,0.9c-0.5,0-1,0-1.1-0.6c-0.2-0.8-0.5-1.6-0.8-2.4
			c-3.1-9-13.4-8.6-17.9-3.8c-2.9,3.1-4.2,6.8-4.4,10.9c-0.2,5.3,1.2,10.2,5.2,14c5,4.8,11.8,4.4,16.3-0.8c1.3-1.5,2.3-3.3,3.2-5.1
			c0.2-0.4,0.4-0.8,0.5-1.1c0.2-0.5,0.5-0.6,1-0.4c0.6,0.2,0.8,0.5,0.7,1.1c-0.7,3.2-1.5,6.3-2.7,9.4c-0.3,0.7-0.8,0.9-1.4,1.1
			c-7.3,2.4-14.5,2.5-21.5-0.8c-6.4-3-9.4-8.4-9.3-15.4c0.1-7.3,3.4-12.8,10-16c6.5-3.2,13.2-3.1,20-1c2.9,0.9,2.9,1,2.9,4
			C510.6,250.4,510.6,251.1,510.6,251.8C510.6,251.8,510.6,251.8,510.6,251.8z"/>
		<path class="st0" d="M307.3,279.7c-1.9,0-3.7,0-5.6,0c-0.4,0-0.9,0.1-1-0.4c-0.1-0.5,0.3-0.7,0.8-0.8c2.5-0.3,3.3-1.9,3.3-4.2
			c0.1-4.6,0.2-9.3,0-13.9c-0.1-2-0.9-3.3-3-3.7c-0.3,0-0.5-0.1-0.8-0.3c-0.2-0.1-0.3-0.3-0.4-0.4c0-0.3,0.2-0.5,0.6-0.5
			c0.4,0,0.8,0,1.2,0c3.4,0,6.8,0,10.2,0c0.4,0,0.8,0,1.2,0c0.2,0,0.4,0.1,0.4,0.4c0,0.2,0,0.4-0.2,0.5c-0.5,0.2-0.9,0.3-1.4,0.4
			c-1.8,0.4-2.8,1.5-2.9,3.3c-0.1,1.6-0.1,3.2-0.1,4.8c0,0.8,0.2,1.1,1.1,1.1c3.5,0,6.9,0,10.4,0c0.7,0,1-0.2,1-1c0-1.7,0-3.3-0.1-5
			c-0.1-1.7-1-2.8-2.7-3.2c-0.1,0-0.3,0-0.4-0.1c-0.5-0.2-1.5,0-1.3-0.9c0.1-0.7,0.9-0.4,1.4-0.4c2.5,0,5,0,7.5,0c1.3,0,2.6,0,4,0
			c0.3,0,0.6,0,0.7,0.3c0.1,0.5-0.2,0.6-0.6,0.7c-3.1,0.4-3.6,2.6-3.6,5.2c0,4.1,0,8.2,0,12.3c0.1,3.2,0.4,3.5,3.4,4.6
			c0.3,0.1,0.7,0.2,0.7,0.6c0,0.6-0.5,0.5-0.9,0.5c-4,0-7.9,0-11.9,0c-0.3,0-0.7,0.1-0.8-0.4c-0.1-0.5,0.3-0.7,0.7-0.8
			c3.6-0.6,3.8-2,3.8-5.3c0-1.3,0-2.6,0-4c0-0.7-0.3-1-1-1c-3.5,0-6.9,0-10.4,0c-0.8,0-1.1,0.4-1.1,1.1c0,1.7,0,3.5,0.1,5.2
			c0.2,2.5,0.8,3.1,3.1,3.8c0.5,0.2,1.5-0.1,1.4,0.8c-0.1,0.9-1,0.4-1.6,0.5c-0.9,0.1-1.8,0-2.7,0
			C309.1,279.7,308.2,279.7,307.3,279.7C307.3,279.7,307.3,279.7,307.3,279.7z"/>
		<path class="st0" d="M104.1,279.7c-2,0-4,0-6,0c-0.4,0-0.9,0.1-1-0.4c-0.1-0.5,0.4-0.6,0.8-0.8c3-0.9,3.2-1.1,3.4-4.1
			c0.3-4.7,0.3-9.4,0-14.1c-0.2-2.4-0.6-2.8-2.8-3.5c-0.3-0.1-0.7-0.2-1-0.3c-0.2-0.1-0.3-0.2-0.3-0.4c0-0.3,0.2-0.5,0.5-0.5
			c0.8-0.1,1.5-0.1,2.3-0.1c3.8-0.1,7.6-0.4,11.4,0.2c1,0.2,2,0.4,3,0.8c4.2,1.8,4.9,6.6,1.3,9.5c-0.6,0.5-1.8,0.7-1.8,1.5
			c0,0.8,0.7,1.6,1.2,2.4c1.5,2.6,3.3,5,5.6,6.9c1.2,1,2.5,1.7,4,2.2c0.4,0.1,0.8,0.3,0.8,0.8c0,0.6-0.6,0.5-0.9,0.5
			c-2,0-4-0.2-6-0.6c-1.9-0.3-3.4-1.5-4.6-3c-1.4-1.7-2.4-3.6-3.5-5.4c-0.4-0.6-0.7-1.2-1.2-1.7c-0.7-0.7-1.7-0.9-2.5-0.7
			c-0.8,0.3-0.4,1.2-0.4,1.9c0,1.5,0,2.9,0.1,4.4c0.1,1.7,1,2.7,2.6,3.1c0.7,0.2,1.3,0.3,2,0.5c0.4,0.1,0.7,0.3,0.6,0.7
			c0,0.5-0.4,0.5-0.8,0.5C108.6,279.7,106.3,279.7,104.1,279.7z M106.2,267.2c1.6-0.2,2.9-0.5,4-1.2c1.3-0.8,2.1-2,2.2-3.5
			c0.2-3-2.3-5.6-5.4-5.6c-0.6,0-0.9,0.2-0.9,0.8C106.2,260.8,106.2,263.9,106.2,267.2z"/>
		<path class="st0" d="M419.4,279.7c-2.4,0-4.7,0-7.1,0c-0.3,0-0.7,0-0.8-0.5c0-0.4,0.3-0.6,0.6-0.7c0.5-0.1,0.9-0.2,1.4-0.4
			c1.2-0.4,1.8-1.2,2-2.4c0.1-0.8,0.3-1.7,0.3-2.5c0-4.3,0.2-8.6-0.1-12.9c-0.1-2.1-0.9-3.4-3.1-3.7c-0.3,0-0.5-0.2-0.8-0.3
			c-0.2-0.1-0.3-0.2-0.4-0.4c0-0.3,0.2-0.5,0.5-0.5c0.1,0,0.3-0.1,0.4-0.1c5.5-0.3,10.9-0.7,16.3,0.6c1.7,0.4,3.3,1.1,4.8,2
			c6.8,4.3,7.6,15.6-0.9,19.9c-2.3,1.2-4.8,1.7-7.4,1.8C423.3,279.7,421.4,279.7,419.4,279.7C419.4,279.7,419.4,279.7,419.4,279.7z
			 M420.8,266c0,2.4,0,4.7,0,7.1c0,0.8,0,1.5,0.2,2.3c0.4,1.7,1.3,2.5,3,2.7c2.8,0.3,5.2-0.6,7-2.8c1.3-1.6,1.9-3.4,2.1-5.4
			c0.4-4.6-1-9.4-5.8-11.6c-1.6-0.7-3.3-1.2-5-1.4c-1.3-0.2-1.4-0.1-1.5,1.2C420.8,260.8,420.8,263.4,420.8,266z"/>
		<path class="st0" d="M67.4,266.8c0-5.5,3.5-9.9,9.7-11.4c3.4-0.8,6.8-0.7,10,0.7c4.7,2,7.2,5.6,7.5,10.7c0.2,5.1-1.5,9.3-6.2,11.7
			c-4.8,2.5-9.8,2.5-14.6,0.1C69.3,276.4,67.3,272.6,67.4,266.8z M73,267.6c-0.1,2.7,1,6.3,3,8.5c3.1,3.7,8.2,3.4,11-0.6
			c1.3-1.9,1.8-4,1.9-6.3c0.2-3.5-0.4-6.9-2.6-9.8c-3.3-4.3-9-3.9-11.7,0.8C73.4,262.3,73.1,264.4,73,267.6z"/>
		<path class="st0" d="M543,267.7c0,6.5-4.1,11.3-10.5,12.4c-2.8,0.5-5.6,0.3-8.4-0.6c-5.5-1.9-8.6-6.7-8.3-12.5
			c0.3-7.5,6-11.3,11.4-11.9c2.2-0.3,4.4-0.2,6.6,0.4C539.6,257.2,543,261.5,543,267.7z M537.2,268.2c0.1-3-0.6-5.8-2.3-8.3
			c-3.3-4.9-9.7-4.6-12.2,0.8c-2.3,5-2,10.2,1.1,14.8c3.1,4.6,9,4.2,11.8-0.6C536.9,272.9,537.3,270.6,537.2,268.2z"/>
		<path class="st0" d="M638.1,268.1c1.8,0,3.6,0,5.4,0c0.3,0,0.7,0,0.8,0.4c0,0.4-0.2,0.7-0.6,0.7c-1.7,0.4-2,1.7-2.1,3.2
			c0,1,0,1.9,0,2.9c-0.1,1,0.2,1.6,1.3,1.5c0.3,0,0.6,0,0.6,0.4c0,0.3-0.1,0.6-0.4,0.7c-0.7,0.3-1.4,0.6-2.1,0.8
			c-4.5,1.5-9.1,2.3-13.9,1.1c-5.4-1.4-9-5.5-9.4-10.6c-0.4-5.8,2.4-10.5,7.6-12.8c3.8-1.6,7.7-1.7,11.6-1c1,0.2,2,0.5,3,0.7
			c1.6,0.5,1.6,0.5,1.6,2.1c0,1.5,0,3,0,4.6c0,0.4-0.1,0.7-0.5,0.7c-0.3,0-0.5-0.1-0.7-0.4c-0.2-0.4-0.3-0.8-0.5-1.1
			c-1.8-3.8-4.4-5.5-8.3-5.2c-3.7,0.2-6.7,2.7-7.8,6.4c-1.4,4.9,0.2,11.3,5.5,14.2c1.7,0.9,3.5,1.4,5.4,1.3c1.4-0.1,1.9-0.4,2-1.9
			c0.1-1.4,0.2-2.8-0.1-4.1c-0.3-2.1-0.9-2.7-2.9-3.2c-0.7-0.2-2.1,0.3-1.9-0.9c0.1-0.8,1.3-0.2,2-0.3c0.7-0.1,1.4,0,2.1,0
			C636.8,268.2,637.5,268.2,638.1,268.1C638.1,268.1,638.1,268.1,638.1,268.1z"/>
		<path class="st0" d="M146,268.1c1.8,0,3.6,0,5.4,0c0.3,0,0.7-0.1,0.8,0.4c0.1,0.4-0.2,0.7-0.5,0.8c-1.7,0.4-2,1.7-2,3.2
			c0,0.9,0,1.8-0.1,2.7c0,1-0.1,1.9,1.3,1.7c0.3,0,0.5,0.2,0.5,0.5c0,0.4-0.3,0.6-0.6,0.7c-2.1,0.9-4.3,1.5-6.6,2
			c-2.7,0.5-5.5,0.6-8.3,0c-6.1-1.3-9.9-5.6-10.3-11.4c-0.3-5.9,3.3-11,9.2-12.8c4.7-1.4,9.3-0.9,13.9,0.6c0.6,0.2,0.9,0.5,0.9,1.2
			c0,1.7,0,3.5,0,5.2c0,0.3,0,0.7-0.4,0.8c-0.4,0.1-0.7-0.1-0.8-0.5c-0.2-0.5-0.4-1-0.7-1.5c-1.5-3-3.7-4.8-7.2-4.8
			c-3.5-0.1-6.1,1.4-7.9,4.4c-2.8,4.7-1.5,14.5,6.7,17.1c1.2,0.4,2.4,0.5,3.7,0.4c1,0,1.6-0.5,1.7-1.5c0.1-1.7,0.2-3.3-0.1-5
			c-0.2-1.4-1-2.3-2.4-2.6c-0.6-0.1-1.2-0.2-1.8-0.3c-0.4-0.1-0.7-0.2-0.7-0.7c0-0.5,0.4-0.4,0.8-0.4
			C142.4,268.1,144.2,268.1,146,268.1C146,268.1,146,268.1,146,268.1z"/>
		<path class="st0" d="M292.7,268.1c1.8,0,3.6,0,5.4,0c0.3,0,0.7,0,0.8,0.4c0.1,0.4-0.2,0.7-0.5,0.8c-1.7,0.4-2,1.7-2,3.2
			c0,1,0,1.9,0,2.9c-0.1,1,0.1,1.6,1.3,1.5c0.3,0,0.6,0,0.6,0.4c0,0.3-0.1,0.5-0.4,0.7c-0.1,0.1-0.2,0.1-0.4,0.2
			c-5.1,2-10.3,3.1-15.8,1.7c-5.1-1.4-8.7-5.4-9.1-10.2c-0.5-5.8,1.9-10.4,6.8-12.9c4.1-2,8.4-2.1,12.8-1.2c1.4,0.3,3,0.3,3.9,1.2
			c0.8,0.9,0.2,2.5,0.3,3.8c0,0.8,0,1.7,0,2.5c0,0.2,0,0.4-0.3,0.5c-0.3,0.1-0.6,0-0.8-0.2c-0.2-0.4-0.4-0.9-0.6-1.3
			c-1.8-4-4.6-5.6-8.7-5.2c-3.7,0.4-6.7,3.2-7.5,7c-1.2,5.5,1.1,11,5.7,13.6c1.7,1,3.6,1.4,5.6,1.3c1.1-0.1,1.7-0.5,1.7-1.6
			c0-1.4,0.1-2.8,0-4.2c-0.1-2.2-0.8-2.9-2.9-3.4c-0.7-0.2-2.1,0.3-1.9-0.9c0.1-0.8,1.4-0.3,2.2-0.3
			C290,268.1,291.3,268.1,292.7,268.1C292.7,268.1,292.7,268.1,292.7,268.1z"/>
		<path class="st0" d="M656.4,279.7c-3.1,0-6.2,0-9.4,0c-0.4,0-0.9,0.1-1-0.5c-0.1-0.5,0.4-0.7,0.8-0.7c2.4-0.3,3.2-1.9,3.3-4.1
			c0.1-4.6,0.1-9.1,0-13.7c-0.1-2.1-0.9-3.8-3.3-4.1c-0.4-0.1-0.9-0.1-0.9-0.7c0.1-0.7,0.7-0.5,1.2-0.5c5.3,0,10.7,0.1,16-0.1
			c1,0,2.3-0.6,3,0.2c0.6,0.7-0.1,1.8-0.1,2.8c0,1-0.2,1.9-0.3,2.9c0,0.3-0.2,0.5-0.6,0.5c-0.3,0-0.5-0.2-0.6-0.5
			c0-0.1-0.1-0.3-0.1-0.4c-0.9-3-1.5-3.5-4.6-3.8c-4.9-0.5-4.9-0.5-4.9,4.3c0,1.1,0,2.2,0,3.3c0,0.9,0.3,1.3,1.2,1.2
			c1-0.1,1.9,0,2.9-0.1c1.9-0.1,3.4-0.6,4-2.6c0.1-0.4,0.3-0.8,0.9-0.6c0.4,0.1,0.3,0.6,0.3,0.9c-0.2,2.5-0.4,5,0,7.5
			c0,0.3,0,0.6-0.3,0.7c-0.4,0.1-0.7,0-0.8-0.4c-0.2-0.4-0.3-0.8-0.5-1.2c-0.4-0.8-1.1-1.5-2-1.7c-1.6-0.4-3.2-0.2-4.8-0.2
			c-0.6,0-0.9,0.3-0.9,0.9c0,2.2-0.2,4.4,0.2,6.6c0.2,1.3,1,2.1,2.6,2.2c4.4,0.5,7.5-0.7,8.9-5.2c0.1-0.2,0.1-0.4,0.2-0.6
			c0.1-0.5,0.3-0.8,0.8-0.7c0.5,0.1,0.4,0.5,0.4,0.8c0.1,2.3-0.4,4.5-0.9,6.8c-0.2,0.9-0.9,0.7-1.5,0.7c-1.6,0-3.2,0-4.8,0
			C659.5,279.7,658,279.7,656.4,279.7C656.4,279.7,656.4,279.7,656.4,279.7z"/>
		<path class="st0" d="M52.7,279.7c-3.1,0-6.2,0-9.3,0c-0.4,0-1.1,0.2-1.1-0.5c0-0.5,0.5-0.6,0.9-0.7c0.5-0.1,1.1-0.3,1.6-0.5
			c1-0.4,1.4-1.3,1.5-2.3c0.1-1.2,0.2-2.5,0.2-3.7c0-3.7,0.1-7.5-0.1-11.2c-0.1-2.2-1-3.7-3.3-4.1c-0.2,0-0.4-0.1-0.6-0.2
			c-0.2-0.1-0.4-0.2-0.3-0.5c0.1-0.2,0.2-0.4,0.4-0.4c0.3-0.1,0.7,0,1,0c5.9,0,11.8,0.2,17.7-0.2c0.9-0.1,1.4,0.1,1.3,1.2
			c-0.2,1.4-0.3,2.9-0.4,4.3c0,0.4-0.1,0.9-0.6,0.9c-0.4,0-0.6-0.3-0.6-0.7c-0.3-3.1-2.4-3.9-5.1-4.1c-1.1-0.1-2.2,0-3.3,0
			c-0.9,0-1.2,0.4-1.2,1.3c0,2.2,0,4.4,0,6.6c0,0.8,0.4,1.1,1.1,1.1c1,0,2.1,0,3.1-0.1c1.8-0.1,3.3-0.7,3.9-2.6
			c0.1-0.4,0.2-0.9,0.8-0.7c0.4,0.1,0.4,0.5,0.3,0.9c-0.2,2.5-0.2,5,0,7.5c0,0.4,0,0.7-0.4,0.8c-0.3,0-0.5-0.2-0.6-0.4
			c-0.1-0.3-0.2-0.7-0.4-1c-0.5-1.1-1.3-1.8-2.5-2c-1.4-0.2-2.9-0.1-4.4-0.1c-0.6,0-0.9,0.3-0.9,0.9c0,2.1-0.2,4.2,0.1,6.2
			c0.3,1.8,1,2.5,2.8,2.7c4.2,0.4,7.4-0.7,8.8-5.4c0.1-0.2,0.1-0.4,0.2-0.6c0.1-0.4,0.3-0.6,0.7-0.6c0.5,0,0.5,0.4,0.5,0.7
			c0.1,1.5-0.1,3.1-0.5,4.5c-0.8,3.5,0,3-3.6,3C57.8,279.7,55.3,279.7,52.7,279.7C52.7,279.7,52.7,279.7,52.7,279.7z"/>
		<path class="st0" d="M603.1,279.7c-3.1,0-6.2,0-9.4,0c-0.4,0-0.9,0.1-1-0.4c-0.1-0.5,0.4-0.7,0.8-0.7c2.4-0.3,3.2-1.8,3.3-4
			c0.2-4.7,0.2-9.4,0-14.1c-0.1-2-1-3.3-3-3.6c-0.3,0-0.5-0.2-0.8-0.3c-0.2-0.1-0.4-0.2-0.3-0.5c0.1-0.3,0.2-0.5,0.6-0.5
			c1.2,0,2.5,0,3.7,0c4.9,0.1,9.7,0.1,14.6-0.1c1.5-0.1,1.6,0,1.4,1.6c-0.1,1.4-0.3,2.8-0.4,4.1c0,0.4-0.2,0.7-0.6,0.7
			c-0.4,0-0.6-0.3-0.6-0.7c-0.3-3.1-2.4-3.9-5.1-4.1c-1-0.1-2.1,0-3.1-0.1c-0.9,0-1.4,0.3-1.4,1.3c0.1,2.1,0,4.3,0,6.4
			c0,0.9,0.2,1.3,1.2,1.2c1-0.1,2.1,0,3.1-0.1c1.8-0.1,3.3-0.7,3.9-2.6c0.1-0.4,0.3-0.8,0.8-0.7c0.4,0.1,0.4,0.5,0.3,0.9
			c-0.2,2.5-0.3,5-0.1,7.5c0,0.3,0.1,0.6-0.3,0.7c-0.4,0.1-0.7,0-0.8-0.4c-0.2-0.4-0.3-0.8-0.5-1.2c-0.5-0.9-1.2-1.5-2.2-1.7
			c-1.5-0.3-3-0.2-4.6-0.2c-0.6,0-0.9,0.3-0.9,0.9c0,2.1-0.2,4.2,0.2,6.2c0.3,1.7,0.9,2.5,2.7,2.7c4,0.5,7.4-0.5,8.9-5.2
			c0.2-0.5,0.1-1.5,1-1.3c0.8,0.2,0.5,1,0.5,1.6c0,1.8-0.5,3.6-0.8,5.3c-0.2,1-0.6,1.3-1.7,1.3C609.4,279.7,606.3,279.8,603.1,279.7
			C603.1,279.7,603.1,279.7,603.1,279.7z"/>
		<path class="st0" d="M189.7,279.7c-1.7,0-3.3,0-5,0c-0.4,0-0.9,0.1-1-0.5c0-0.4,0.3-0.5,0.7-0.7c2.3-0.9,2.5-1.5,1.8-3.7
			c-0.4-1.2-0.9-2.3-1.3-3.5c-0.3-0.8-0.7-1.2-1.6-1.2c-1.7,0.1-3.5,0.1-5.2,0c-0.8,0-1.3,0.3-1.5,1.1c-0.4,1.2-0.8,2.4-1.1,3.6
			c-0.6,2.1,0.1,3.1,2.2,3.7c0.6,0.2,1.9-0.3,1.7,0.9c-0.1,0.8-1.2,0.4-1.8,0.4c-2.6,0-5.3,0-7.9,0c-0.4,0-0.9,0.1-1-0.5
			c-0.1-0.4,0.3-0.6,0.6-0.7c2-0.8,3-2.5,3.7-4.3c2.2-5.2,4.4-10.3,6.2-15.6c0.5-1.5,1-2.8,2.4-3.6c0.3-0.2,0.4-0.5,0.7-0.8
			c0.5-0.5,1-0.5,1.3,0.2c0.2,0.6,0.5,1.2,0.7,1.7c2.2,5.7,4.3,11.4,6.5,17.1c0.9,2.2,1.9,4.3,4.3,5.3c0.4,0.1,0.5,0.4,0.4,0.8
			c-0.1,0.3-0.4,0.3-0.7,0.3C193.1,279.7,191.4,279.7,189.7,279.7C189.7,279.7,189.7,279.7,189.7,279.7z M180.8,260.4
			c-1.2,2.4-2.2,4.7-2.9,7.3c2,0.1,3.7,0.2,5.6-0.1C182.6,265.1,181.7,262.8,180.8,260.4z"/>
		<path class="st0" d="M450.6,280.5c-2.3-0.1-4.5-0.5-6.6-1.5c-0.7-0.3-1.2-0.8-1.3-1.7c-0.1-1.7-0.4-3.4-0.6-5.1
			c0-0.4-0.1-0.9,0.4-1c0.6-0.1,0.7,0.3,0.8,0.7c0.5,1.4,1.2,2.8,2.2,4c1.1,1.4,2.4,2.4,4.3,2.8c1.9,0.3,3.5-0.3,4.3-1.7
			c0.9-1.5,0.7-3.3-0.7-4.8c-1.1-1.2-2.4-2-3.8-2.8c-1.4-0.8-2.7-1.6-3.9-2.7c-2.5-2.3-2.8-6-0.7-8.6c3.2-3.9,9.6-3.6,13-1.7
			c0.5,0.3,0.6,0.7,0.5,1.2c-0.1,1.5-0.3,3-0.4,4.6c0,0.4-0.1,0.8-0.7,0.8c-0.6,0-0.6-0.5-0.7-0.9c-0.3-1.4-0.7-2.7-1.6-3.8
			c-1-1.3-2.3-1.9-4-1.6c-2.6,0.5-3.7,3.3-2.2,5.4c1.1,1.5,2.6,2.5,4.1,3.4c1.3,0.8,2.6,1.6,3.8,2.5c3.7,2.4,3.6,8.5-0.7,10.9
			C454.4,280,452.5,280.3,450.6,280.5z"/>
		<path class="st0" d="M579.2,279.7c-3.2,0-6.4,0-9.6,0c-0.4,0-0.9,0.1-1-0.5c-0.1-0.5,0.4-0.6,0.8-0.7c3-0.6,3.3-1.7,3.4-4.2
			c0.2-4.5,0.1-9,0-13.5c0-2.2-0.8-3.9-3.4-4.2c-0.3,0-0.5-0.2-0.8-0.3c-0.3-0.2-0.2-0.6,0.1-0.7c0.3-0.1,0.7-0.1,1-0.1
			c3.7,0,7.5,0,11.2,0c0.3,0,0.6,0,0.8,0c0.3,0,0.5,0.2,0.5,0.5c0,0.2-0.2,0.3-0.4,0.4c-0.3,0.1-0.5,0.2-0.8,0.2
			c-2.7,0.4-3.2,1.9-3.3,3.8c-0.2,5.3-0.1,10.7,0,16c0,1,0.4,1.5,1.4,1.6c4.8,0.5,8.6-1,11-5.4c0.2-0.3,0.3-0.6,0.5-0.9
			c0.2-0.4,0.4-0.8,0.9-0.5c0.4,0.2,0.4,0.5,0.3,0.9c-0.7,2.3-1.4,4.6-2.1,6.9c-0.2,0.8-0.9,0.7-1.5,0.7
			C585.3,279.7,582.2,279.7,579.2,279.7C579.2,279.7,579.2,279.7,579.2,279.7z"/>
		<path class="st0" d="M555.3,279.7c-3.2,0-6.4,0-9.6,0c-0.4,0-0.9,0.1-0.9-0.5c0-0.4,0.3-0.6,0.7-0.6c3.2-0.4,3.5-1.9,3.6-4.9
			c0.2-3.3,0.1-6.6,0-10c0-1.2,0-2.5-0.2-3.7c-0.2-1.8-1-3-2.9-3.3c-0.3-0.1-0.7-0.2-1-0.3c-0.2-0.1-0.3-0.3-0.3-0.5
			c0-0.2,0.2-0.4,0.4-0.4c0.3,0,0.7,0,1,0c3.6,0,7.2,0,10.8,0c0.3,0,0.6,0,0.8,0c0.3,0,0.6,0,0.6,0.4c0.1,0.4-0.2,0.5-0.4,0.6
			c-0.5,0.1-0.9,0.2-1.4,0.3c-1.5,0.3-2.2,1.3-2.4,2.7c-0.1,0.7-0.2,1.4-0.2,2.1c-0.1,4.9-0.2,9.8,0.1,14.7c0.1,1.5,0.1,1.5,1.7,1.7
			c4.8,0.5,8.4-1.2,10.7-5.5c0.3-0.5,0.3-1.7,1.3-1.3c1.1,0.4,0.2,1.3,0,2c-0.4,1.5-0.9,3-1.4,4.6c-0.7,2.4-0.5,2-2.6,2
			C561,279.7,558.2,279.7,555.3,279.7C555.3,279.7,555.3,279.7,555.3,279.7z"/>
		<path class="st0" d="M342.8,279.7c-3.1,0-6.2,0-9.4,0c-0.4,0-0.9,0.1-1-0.4c-0.1-0.5,0.3-0.7,0.8-0.7c2.4-0.3,3.3-1.4,3.4-4.4
			c0.1-4.4,0.1-8.7,0-13.1c-0.1-3-0.5-3.5-3.4-4.4c-0.1,0-0.3-0.1-0.4-0.1c-0.3-0.1-0.5-0.2-0.5-0.6c0-0.4,0.3-0.4,0.6-0.4
			c1.6,0,3.2,0,4.8,0c2.5,0,5,0,7.5,0c0.3,0,0.7,0,0.8,0.4c0.1,0.5-0.4,0.5-0.7,0.6c-3.4,1.1-3.7,1.4-3.8,4.9c-0.1,4.9,0,9.8,0,14.8
			c0,1.7,0.1,1.7,1.8,1.9c4.8,0.5,8.4-1.2,10.7-5.5c0.3-0.5,0.3-1.7,1.3-1.3c0.9,0.4,0.2,1.2,0,1.8c-0.5,1.8-1.2,3.6-1.6,5.4
			c-0.3,1.1-0.8,1.4-1.9,1.3C348.9,279.7,345.8,279.7,342.8,279.7C342.8,279.7,342.8,279.7,342.8,279.7z"/>
		<path class="st0" d="M161.1,255.5c1.9,0,3.7,0,5.6,0c0.4,0,0.9-0.1,1.1,0.4c0.1,0.6-0.4,0.6-0.8,0.7c-2.7,0.4-3.5,1.6-3.5,4.5
			c-0.1,4.4-0.2,8.7,0,13.1c0.1,3.2,0.5,3.5,3.5,4.4c0.4,0.1,0.8,0.2,0.8,0.8c-0.1,0.5-0.5,0.4-0.8,0.4c-4,0-8,0-12,0
			c-0.3,0-0.7,0.1-0.8-0.4c-0.1-0.6,0.3-0.7,0.7-0.8c3-0.9,3.5-1.3,3.6-4.4c0.1-4.4,0-8.7,0-13.1c0-0.4-0.1-0.8-0.2-1.2
			c-0.2-1.7-1.1-2.7-2.8-3.1c-0.5-0.1-1.6,0.1-1.4-0.8c0.1-0.7,1.1-0.4,1.6-0.4C157.5,255.5,159.3,255.5,161.1,255.5
			C161.1,255.5,161.1,255.5,161.1,255.5z"/>
		<path class="st0" d="M260.8,267.1c-0.1-2,0.1-4.4-0.2-6.8c-0.2-2-1-3.3-3.1-3.6c-0.3,0-0.5-0.1-0.8-0.2c-0.3-0.1-0.5-0.3-0.4-0.6
			c0.1-0.3,0.3-0.3,0.5-0.3c0.1,0,0.3,0,0.4,0c3.9,0,7.9,0,11.8,0c0.4,0,0.9-0.1,0.9,0.5c0,0.4-0.5,0.4-0.8,0.5
			c-0.3,0.1-0.7,0.2-1,0.3c-1.4,0.4-2.2,1.3-2.4,2.8c-0.1,0.8-0.2,1.7-0.2,2.5c0,3.7,0,7.3,0,11c0,0.7,0.1,1.4,0.2,2.1
			c0.3,2.1,0.8,2.7,2.9,3.3c0.3,0.1,0.7,0.1,1,0.2c0.1,0.1,0.3,0.3,0.3,0.5c0.1,0.3-0.2,0.5-0.5,0.5c-4.2,0-8.4,0-12.7,0
			c-0.3,0-0.5-0.2-0.5-0.5c0-0.3,0.2-0.5,0.5-0.6c3.7-0.3,3.8-3,3.9-5.7C260.9,271.1,260.8,269.3,260.8,267.1z"/>
	</g>
</g>
<rect x="-112.3" y="-56.9" class="st1" width="792" height="356.9"/>
</svg>
