<svg id="institutions" xmlns="http://www.w3.org/2000/svg" viewBox="0 0 195.84 159.36"><defs><style>.cls-1{fill:#fff;}</style></defs><title>georgia-state</title><path class="cls-1" d="M77.71,93.68c3.4-2.9,4.8-3.75,6.1-3.75A6.3,6.3,0,0,1,87,91l-1.35,3.4-.4-.2c-1.85-1-2.75-1.35-3.75-1.35s-2.15.55-3.75,2.1v8.85c0,2.8.45,3.4,2.45,3.4h.5v.8H71.3v-.85h.45c2,0,2.5-.6,2.5-3.4V94.23c0-2.45-.5-3-2.8-3h-.7v-.8l7-.55v3.8Zm66.74-8h-.85v-.4c-.55-2.25-1.15-3.4-2.4-4.35a6.34,6.34,0,0,0-3.9-1.35c-3,0-5.15,2-5.15,4.55a5.87,5.87,0,0,0,1.85,4A18.69,18.69,0,0,0,136.4,90c.65.4,1.75,1.1,3.3,2a17.37,17.37,0,0,1,4.45,3.55,7.6,7.6,0,0,1,1.9,5,8.15,8.15,0,0,1-8.15,8.15,13.37,13.37,0,0,1-4.75-1,9.36,9.36,0,0,0-1.8-.55,1.25,1.25,0,0,0-1.1,1.1h-.85v-7.75h.85l.05.55c.4,2.7.95,3.75,2.6,5a6.59,6.59,0,0,0,4.25,1.5c3.45,0,5.75-2.1,5.75-5.2,0-1.75-.65-3-2.4-4.35a26.88,26.88,0,0,0-3.35-2.45l-3.7-2.4a11.61,11.61,0,0,1-2-1.9,8,8,0,0,1-1.85-5.25c0-4.4,3.2-7.4,7.8-7.4a10.91,10.91,0,0,1,4,.7,4.93,4.93,0,0,0,1.65.4.65.65,0,0,0,.7-.6h0a.67.67,0,0,0,0-.2h.75v6.7Zm-16.82,19.2a3.47,3.47,0,0,1-3.34,3.6h-.16c-1.45,0-2.35-.7-3-2.4-1.75,1.8-2.85,2.4-4.7,2.4a4.91,4.91,0,0,1-5.1-4.65c0-2.55,1.6-4,5.9-5.15a16,16,0,0,0,3.9-1.35V96c0-2.55-1.6-4.35-3.95-4.35-2,0-3.55,1.15-4.55,3.45l-.15.4-.85-.25a6.61,6.61,0,0,1,6.55-5.35,6.43,6.43,0,0,1,5.55,2.85c.65,1.1.85,2,.85,4.55v6.6c0,2,.2,2.65,1,2.65.6,0,1-.55,1.25-1.7h.85Zm-6.14-6.45a12.44,12.44,0,0,1-2,.8c-3.35,1.1-4.3,2-4.3,4.2,0,1.85,1.25,3.35,2.75,3.35a4.3,4.3,0,0,0,3.6-2.25Zm-16.74-3.85v10.2c0,1.8-.65,2.45-2.45,2.45h-.9v.85h9.7v-.85c-2.65,0-3-.45-3-3.4V89.74l-4,.39H98.49A23.07,23.07,0,0,1,96,90H93.89c-4.35,0-7.5,3-7.5,7.15,0,3.5,2,5.9,5.6,6.85v.1c-4,1.5-5.55,2.85-5.55,5,0,1.55,1.4,2.75,3.8,3.3v.1c-4.55,2.15-5.7,3.3-5.7,5.55,0,3.25,3.5,5.4,8.75,5.4,6,0,10.85-3.25,10.85-7.35,0-2.6-2-4.25-6-5l-4.1-.8c-4.1-.8-4.9-1.25-4.9-2.55s2.2-2.75,5-3.4c4.25-.1,7.35-3.1,7.35-7.15a7.8,7.8,0,0,0-2-5,3.35,3.35,0,0,1,1.91-.6h1c1.65,0,2.35.7,2.35,2.25v.73Zm-12,18.4,3.4.7c5.1,1.1,6.5,1.9,6.5,3.9,0,2.35-2.75,4-6.65,4-5,0-8.9-2-8.9-4.5,0-1.8,1.8-3.3,5.15-4.2Zm1.5-9.65c-2.6,0-4.35-2.55-4.35-6.35s1.75-6.1,4.4-6.1,4.35,2.45,4.35,6c0,4-1.75,6.45-4.39,6.45Z" transform="translate(-7.06 -0.34)"/><path class="cls-1" d="M129.29,113.83H200.4v3.7H129.29Z" transform="translate(-7.06 -0.34)"/><path class="cls-1" d="M173.48,104.88c-.25,1.15-.65,1.7-1.25,1.7s-.95-.6-.95-2.65v-6.6c0-2.55-.2-3.45-.85-4.55a6.43,6.43,0,0,0-5.55-2.85,6.61,6.61,0,0,0-6.55,5.35l.85.25.15-.4c1-2.3,2.5-3.45,4.55-3.45,2.35,0,4,1.8,4,4.35v1.3a16,16,0,0,1-3.9,1.35c-4.3,1.2-5.9,2.6-5.9,5.15a4.33,4.33,0,0,0,.24,1.33,4,4,0,0,1-3.12,1.42c-2.45,0-3.2-1.15-3.2-5v-10h6.15v-1.2H152v-6.1h-.9a13.73,13.73,0,0,1-5.85,6.45v.8h3.3v11.8a4.94,4.94,0,0,0,4.77,5.1h.33a6.76,6.76,0,0,0,5.06-2.47,5.18,5.18,0,0,0,4.47,2.47c1.85,0,2.95-.6,4.7-2.4.65,1.7,1.55,2.4,3,2.4a3.47,3.47,0,0,0,3.5-3.44v-.16h-.9Zm-5.29-.35a4.3,4.3,0,0,1-3.6,2.25c-1.5,0-2.75-1.5-2.75-3.35,0-2.2.95-3.1,4.3-4.2a12.84,12.84,0,0,0,2-.8v6.1Zm-69,36.23V126.91l-6.7.65v.85h1c1.65,0,2.35.7,2.35,2.25v11c0,1.8-.65,2.45-2.45,2.45H93c-2,0-2.45-.6-2.45-3.4v-7.25c0-4.1-2.35-6.6-6-6.6-2.25,0-4.3,1.1-6.35,3.45v-3.5l-6.4.55v.85h.5c2,0,2.55.6,2.55,2.6v9.9c0,2.8-.5,3.4-2.5,3.4h-.36c-2,0-2.9-1.3-2.9-4.55v-17.8c0-3.25.85-4.55,2.9-4.55h.35v-.85H62.14v.85h.2c2,0,2.9,1.3,2.9,4.55V139A9.61,9.61,0,0,1,57,143.76a7.05,7.05,0,0,1-6-2.9c-.8-1.25-1.15-3.15-1.15-5.85V121.76c0-3.25.8-4.55,2.9-4.55H53v-.85H42.69v.85h.4c2,0,2.85,1.3,2.85,4.55v13.75c0,6.15,3.75,10,9.75,10a12.18,12.18,0,0,0,9.55-4.5v4H81v-.85h-.5c-2,0-2.45-.6-2.45-3.4V132c1.7-2.4,3.25-3.4,5-3.4,2.75,0,3.9,1.45,3.9,5v7.15c0,2.8-.45,3.4-2.5,3.4H84V145h18.17v-.85C99.52,144.11,99.17,143.71,99.17,140.76Zm21-12.5c-2,.15-2.7.65-3.4,2.45l-.3.85-5.4,13.85h-.8l-5.75-13.95c-1.2-2.9-1.45-3.15-3.7-3.2v-.85h8.6v.85c-1.15.1-1.75.6-1.75,1.45a5.57,5.57,0,0,0,.55,2l3.75,9,3.4-8.85a7.71,7.71,0,0,0,.55-2c0-1-.5-1.4-1.8-1.55-.1,0-.25-.05-.45-.05v-.85h6.5Zm41.31,4a2.17,2.17,0,0,0-.15-.35c-1-3-2.15-4.1-4.4-4.1-1.75,0-2.95.95-2.95,2.4s.9,2.45,3.55,3.6,3.25,1.5,4,2.25a5.42,5.42,0,0,1-3.9,9.4,7.92,7.92,0,0,1-3.2-.8,3,3,0,0,0-1.3-.4,1.05,1.05,0,0,0-1,.85,2,2,0,0,1-.1.35h-.85v-6H152c.9,3.35,2.85,5.15,5.7,5.15a3,3,0,0,0,3.1-2.9v-.1c0-1.9-1-2.8-5.15-4.55-2.9-1.25-4.25-2.8-4.25-5a5.28,5.28,0,0,1,5.4-5,6.91,6.91,0,0,1,1.75.25l1.2.4a3.28,3.28,0,0,0,.7.1,1,1,0,0,0,1-.7h.8v5.3h-.8Zm9.48,8.5c0,3,.35,3.35,3,3.4V145h-9.7v-.85h.9c1.8,0,2.45-.65,2.45-2.45v-11c0-1.55-.7-2.25-2.35-2.25h-1v-.85L171,127v13.81Zm25-13.35v.85c1.35.1,1.8.55,1.8,1.65a5.21,5.21,0,0,1-.35,1.7l-3.15,9.3-4-9.1a5.58,5.58,0,0,1-.6-2.15c0-.85.4-1.25,1.5-1.4v-.85H179.69v-6.1h-.9a13.73,13.73,0,0,1-5.85,6.45v.8h3.3v11.8a4.94,4.94,0,0,0,4.77,5.1h.33a6.91,6.91,0,0,0,5.4-2.85l-.55-.65a4,4,0,0,1-3.3,1.6c-2.45,0-3.2-1.15-3.2-4.95v-10h3.09c2,0,2.6.14,3.55,2.14l.35.8,6,14-2.15,6.4c-1,3-2.4,4.35-4.6,4.35a3.86,3.86,0,0,1-1.7-.4l-1.15,3.3a4.43,4.43,0,0,0,2,.5,4.67,4.67,0,0,0,3.6-1.9c1.25-1.5,1.65-2.4,3-6.35l6.45-19c1-2.95,2.15-4.1,4-4.1v-.85H196Z" transform="translate(-7.06 -0.34)"/><path class="cls-1" d="M130.09,29.61c-.41,3.08-.89,12.51,4.72,19.9C140,56.37,146.33,59.36,147.34,68a9.47,9.47,0,0,1-.2,4c-11.79-7.17-18.56-17.15-18.56-31.8A37.24,37.24,0,0,1,130.09,29.61Z" transform="translate(-7.06 -0.34)"/><path class="cls-1" d="M150.61,6.35a22,22,0,0,0-6.39,6.71C130.88,37.65,158,48.13,157,65a21.43,21.43,0,0,1-2.81,10,33.26,33.26,0,0,1-4.81-1.92A15.51,15.51,0,0,0,149.77,62c-2.52-8.41-14.89-17.54-15.11-30.38C134.48,21.59,139.86,10.53,150.61,6.35ZM169.8,37h30.87c.18,2.41.24,4,.24,5.14,0,13.21-6.23,22.1-17.08,29a36.28,36.28,0,0,1-18.12,5.51c5.83-5.63,10.39-13.56,9.91-22.45C175.21,46.28,172.13,42.39,169.8,37Z" transform="translate(-7.06 -0.34)"/><path class="cls-1" d="M165.87.34c-2,1.23-13.68,8.79-10,26.31,2,9.59,13.83,20.58,13.35,32.83-.34,8.81-5.4,15.32-6.77,17.13a29.25,29.25,0,0,1-5.43-.78,33.42,33.42,0,0,0,4.56-12.71c1.67-16-14.65-23-13.95-39.37.5-11.54,7.07-19.7,18.19-23.41Z" transform="translate(-7.06 -0.34)"/><path class="cls-1" d="M199.12,104.9c-1.76,1.75-3.29,2.53-4.94,2.53a6.74,6.74,0,0,1-5.25-3.2c-1.3-1.85-1.7-3.45-1.85-7h13v-.6c0-3.5-3.6-6.7-7.6-6.7a9.11,9.11,0,0,0-8.95,9.28v.17A9,9,0,0,0,185.4,105a4,4,0,0,1-3.28,1.58c-2.45,0-3.2-1.15-3.2-5v-10h6.15v-1.2H179v-6.1h-.9a13.73,13.73,0,0,1-5.85,6.45v.8h3.3v11.8a4.94,4.94,0,0,0,4.77,5.1h.33a6.91,6.91,0,0,0,5.39-2.84,9.68,9.68,0,0,0,7.12,2.84,8,8,0,0,0,6-2.26V104.9ZM192,90.9c3,0,4.75,2,4.75,5.5h-9.6c.45-3.77,2-5.52,4.82-5.52ZM50.63,104.56c-1.9,2-3.51,2.87-5.27,2.87a6.74,6.74,0,0,1-5.25-3.2c-1.3-1.85-1.7-3.45-1.85-7h13v-.6c.05-3.5-3.6-6.7-7.6-6.7a8.92,8.92,0,0,0-8.5,6.46H23.85v.9H25c2.4,0,3.15,1,3.15,4.6v1.63c0,3.1-1.15,4-4.85,4-6.85,0-11.9-5.47-11.9-13.87,0-7.75,4.3-13.15,10.45-13.15a9.77,9.77,0,0,1,6.54,2.65,9,9,0,0,1,2.9,5.2H32l-.25-8.45h-.86a1.5,1.5,0,0,1-1.6.95,1.38,1.38,0,0,1-.45,0,2.18,2.18,0,0,1-.84-.1c-.25,0-.75-.2-1.5-.4a16.66,16.66,0,0,0-4.69-.8c-8.3,0-14.75,7-14.75,15.9,0,8.65,6.5,13.52,16.65,13.52a37.21,37.21,0,0,0,8.15-.9v-5.93c0-3.69.7-4.79,3.08-4.8a10.52,10.52,0,0,0-.22,2.09c0,5.3,4,9.1,9.55,9.1a8,8,0,0,0,6.32-2.59v-1.33ZM43.58,90.88c3,0,4.75,2,4.75,5.5h-9.6C39.18,92.63,40.78,90.88,43.58,90.88Zm28.14,8.25c0,5.35-4.15,9.35-9.7,9.35s-9.7-4-9.7-9.35a9.31,9.31,0,0,1,9.27-9.35h.23C67.37,89.78,71.72,93.88,71.72,99.13ZM56.38,99c0,5.35,2.3,8.55,6,8.55s5.95-3.25,5.95-8.5-2.2-8.3-6.1-8.3C58.63,90.73,56.38,93.93,56.38,99Zm77.81,42.91c-1.75,1.73-3.27,2.5-4.91,2.5a6.74,6.74,0,0,1-5.25-3.2c-1.3-1.85-1.7-3.45-1.85-7h13v-.6c0-3.5-3.6-6.7-7.6-6.7a9.11,9.11,0,0,0-9,9.28v.17c0,5.3,4,9.1,9.55,9.1a8,8,0,0,0,6-2.23v-1.32Zm-7.06-14c3,0,4.75,2,4.75,5.5h-9.6c.45-3.8,2-5.55,4.85-5.55Z" transform="translate(-7.06 -0.34)"/><path class="cls-1" d="M142,130.66c3.4-2.9,4.8-3.75,6.1-3.75a6.2,6.2,0,0,1,3.15,1l-1.35,3.4-.4-.2c-1.85-1-2.75-1.35-3.75-1.35s-2.15.55-3.75,2.1v8.85c0,2.8.45,3.4,2.45,3.4H145V145h-9.4v-.85h.4c2.05,0,2.5-.6,2.5-3.4V131.2c0-2.45-.5-3-2.8-3H135v-.85l7-.55v3.86Zm58.25,14.19a2.65,2.65,0,1,1,2.65-2.65h0a2.64,2.64,0,0,1-2.63,2.65Zm0-4.85a2.21,2.21,0,1,0,2.21,2.21h0a2.19,2.19,0,0,0-2.2-2.2Zm-1.16.82h1.26a.79.79,0,0,1,.91.65.8.8,0,0,1-.66.91h-.12a1.57,1.57,0,0,1,.66.71l.34.55h-.56l-.25-.45c-.36-.64-.5-.76-.85-.76h-.27v1.21h-.46v-2.84Zm1.12,1.24a.48.48,0,0,0,.58-.36s0,0,0-.07a.44.44,0,0,0-.48-.42h-.77v.85Z" transform="translate(-7.06 -0.34)"/></svg>