<svg id="Layer_1" data-name="Layer 1" xmlns="http://www.w3.org/2000/svg" viewBox="0 0 279.1 149.8"><defs><style>.cls-1{fill:#fff;}</style></defs><title>georgia-southwestern-state-university</title><path class="cls-1" d="M37.2,73.1C15,73.1.1,57.3.1,37.1A37.22,37.22,0,0,1,8.4,13.2,33.39,33.39,0,0,1,34.7.3c8.6,0,13.4.8,15.9.8A10,10,0,0,0,55.1,0V18.1c-3.6-3.6-9.7-5.8-19.2-5.8-12.9,0-23.3,10.5-23.3,24S23.1,60.4,37.5,60.4c3.5,0,7.1-1.2,11.2-3.2V42.3H36.4a4.69,4.69,0,0,0-3.7,2.2V27.8a4.82,4.82,0,0,0,3.7,2.3H61.2V60.3A6.89,6.89,0,0,0,63,63.8C54.1,69.9,46.2,73.1,37.2,73.1ZM71,53.2c2.9,4,8.7,7.5,14.1,7.5,6.5,0,12.1-3.7,11.2-10.2-.9-6.1-7.1-9.6-14-14.3C75.1,31.3,71,26.8,71,17A16.82,16.82,0,0,1,87.84.2h.36c3.1,0,5.8,1,8.2,1A8.76,8.76,0,0,0,100.3.1v18c-3.2-4.4-6.3-6.6-10-6.6s-6.7,2.4-6.7,5.9c0,5.2,3.6,8.5,10,12.9,8.6,5.9,14.4,10.2,15.3,20.2C110,64.1,99.3,73,85.6,73c-3.8,0-8.5-1.2-11.1-1.2a8.93,8.93,0,0,0-3.5,1Zm83.1-6.5L147,66.1a13,13,0,0,0-.5,2.7,19.19,19.19,0,0,0,.3,2.4H132.5L110.1,6.9a16.7,16.7,0,0,0-3.4-5.7H124a11.12,11.12,0,0,0-1,4,8.6,8.6,0,0,0,.5,2.7l15.9,48.8L148,29.5,140.4,6.9A18.44,18.44,0,0,0,137,1.2h17.3a10.18,10.18,0,0,0-1,3.9,8.65,8.65,0,0,0,.5,2.8l15.9,48.9L185.4,7.9a8.6,8.6,0,0,0,.5-2.7,11.12,11.12,0,0,0-1-4h17.4a18.44,18.44,0,0,0-3.4,5.7L177.2,66.1a8.5,8.5,0,0,0-.4,2.7,19.42,19.42,0,0,0,.2,2.4H162.8ZM242.4.1A36.4,36.4,0,0,0,206,36.5V72.9h72.8V36.5A36.4,36.4,0,0,0,242.4.1ZM222.2,22.3h9.1a12.49,12.49,0,0,1,7.7-6.7v-2h7v1.9a11.54,11.54,0,0,1,7.8,6.8h9.1v7.4l-8.1-4.2-6.4-3.2-5.8-3-5.8,3-14.5,7.4Zm7.2,40.4h-7.2V38.4h7.2Zm11.1,0h-7.1V38.4h7.1Zm11.1,0h-7V38.4h7Zm11.2,0h-7.2V38.4h7.2Zm3.1-27H219.2V34.4l23.3-11.8,23.3,11.8v1.3Z"/><path class="cls-1" d="M0,89.4H279.1v3.1H0Z"/><path class="cls-1" d="M10.8,124.7c-5.5,0-9.2-3.9-9.2-8.9a9.34,9.34,0,0,1,2-5.9,8.42,8.42,0,0,1,6.6-3.2c1.3,0,2.3.2,3,.2a2,2,0,0,0,1.1-.3v4.6a5.29,5.29,0,0,0-3.8-1.6,5.89,5.89,0,0,0-5.8,5.9v.1a5.93,5.93,0,0,0,5.86,6h.34a5.64,5.64,0,0,0,2.8-.8v-3.7h-4a1,1,0,0,0-.9.6v-4.1a1.44,1.44,0,0,0,.9.6h7.2v7.5a2.05,2.05,0,0,0,.5.9A12.63,12.63,0,0,1,10.8,124.7Zm11.8-7.6v4.3H28a1,1,0,0,0,.9-.6v3.4h-10a1.05,1.05,0,0,0,.5-.9V107.9a1.05,1.05,0,0,0-.5-.9h10v3.4a1.05,1.05,0,0,0-.9-.5H22.6v4.4H26a1,1,0,0,0,.9-.6v3.9a1.44,1.44,0,0,0-.9-.6Zm10.2-7.9a9,9,0,0,1,12.6-.1l.1.1a9.11,9.11,0,0,1,0,12.8,8.54,8.54,0,0,1-6.3,2.6,9.21,9.21,0,0,1-9-9.2A9.33,9.33,0,0,1,32.8,109.2Zm6.4,12.4a6,6,0,1,0-5.7-6.3v.3a5.84,5.84,0,0,0,5.66,6Zm11.2,1.7V106.8a2,2,0,0,0,1.1.3c.6,0,1.6-.3,3.2-.3,3.3,0,5.3,2,5.3,5.1a4,4,0,0,1-2.6,4.1,6,6,0,0,1,4.2,4.4c.3,1.1.3,2.5,1.2,3.8H58.6a1.63,1.63,0,0,0,.5-1.1,6.21,6.21,0,0,0-5.6-5.8v6a1,1,0,0,0,.6.9H49.9A.94.94,0,0,0,50.4,123.3Zm4-8.6a2.51,2.51,0,0,0,2.5-2.4,2.39,2.39,0,0,0-2.28-2.5H54.5c-.3,0-.7.1-1,.1v4.6C53.8,114.6,54.1,114.6,54.4,114.7Zm17.7,10c-5.5,0-9.2-3.9-9.2-8.9a9.56,9.56,0,0,1,2-5.9,8.42,8.42,0,0,1,6.6-3.2c1.3,0,2.3.2,3,.2a2,2,0,0,0,1.1-.3v4.6a5.47,5.47,0,0,0-3.8-1.6,5.89,5.89,0,0,0-5.8,5.9v.1a5.93,5.93,0,0,0,5.86,6h.34a5.64,5.64,0,0,0,2.8-.8v-3.7H71a1,1,0,0,0-.9.6v-4.1a1.44,1.44,0,0,0,.9.6h7.2v7.5a3.64,3.64,0,0,0,.4.9A13.2,13.2,0,0,1,72.1,124.7ZM80.3,107h4.2a1.44,1.44,0,0,0-.6.9v15.4a1,1,0,0,0,.6.9H80.3a1.44,1.44,0,0,0,.6-.9V107.9A1.78,1.78,0,0,0,80.3,107ZM98,123.2a2.08,2.08,0,0,0-.1-.7l-.8-2.1H90.5l-.7,2.1a1.66,1.66,0,0,0-.1.7,3.78,3.78,0,0,0,.2,1H85.5a4.15,4.15,0,0,0,.9-1.4l5.5-14.6a1.51,1.51,0,0,0,.1-.7.87.87,0,0,0-.1-.5h3.6l5.7,15.8a4.15,4.15,0,0,0,.9,1.4H97.7A1.68,1.68,0,0,0,98,123.2Zm-1.9-5.8-2.3-6.8-2.3,6.8Zm14,2.2a3.57,3.57,0,0,0,3.2,2,2.69,2.69,0,0,0,2.8-2.58v-.12c0-1.6-1.2-2.5-3.1-3.7a5.19,5.19,0,0,1-2.7-4.4,4.13,4.13,0,0,1,4-4.2h.1c.8,0,1.4.2,2,.2a2,2,0,0,0,1-.3v4.4a3.13,3.13,0,0,0-2.5-1.6,1.33,1.33,0,0,0-1.49,1.13.91.91,0,0,0,0,.17v.2c0,1.1,1,1.6,2.6,2.7,2.1,1.5,3.1,3,3.1,5.4a5.47,5.47,0,0,1-5.2,5.7h-.5c-1,0-1.8-.3-2.4-.3a3.09,3.09,0,0,0-.9.2ZM123,109.2a9,9,0,0,1,12.6-.1l.1.1a9.11,9.11,0,0,1,0,12.8,8.54,8.54,0,0,1-6.3,2.6,9.21,9.21,0,0,1-6.3-2.6,8.61,8.61,0,0,1-2.6-6.4A8.13,8.13,0,0,1,123,109.2Zm6.3,12.4a6,6,0,1,0-5.7-6.3v.3A5.89,5.89,0,0,0,129.3,121.6ZM139.8,107H144a1.15,1.15,0,0,0-.6.9v9.6c0,2.7.4,4.1,3.1,4.1a2.83,2.83,0,0,0,2.3-1.1,3.54,3.54,0,0,0,.5-2.2V107.9a1,1,0,0,0-.6-.9h4.2a1.1,1.1,0,0,0-.6,1v10.4c0,4-2.5,6.2-6,6.2-3.8,0-6.2-2.2-6.2-6.3V107.8c.2-.2,0-.6-.3-.8Zm18,16.3V109.9h-2.7a1,1,0,0,0-.9.6v-3.4h10.3v3.4a1.44,1.44,0,0,0-.9-.6h-2.7v13.5a1,1,0,0,0,.6.9h-4.2a1.91,1.91,0,0,0,.5-1ZM176,107.9a1,1,0,0,0-.6-.9h4.2a1.05,1.05,0,0,0-.5.9v15.4a1.05,1.05,0,0,0,.5.9h-4.2a1.44,1.44,0,0,0,.6-.9V117h-6.6v6.3a1.05,1.05,0,0,0,.5.9h-4.2a1.44,1.44,0,0,0,.6-.9V107.9a1,1,0,0,0-.6-.9h4.2a1.05,1.05,0,0,0-.5.9v6.3h6.7Zm16.3,10.3-1.8,4.8a1.51,1.51,0,0,0-.1.7,1.23,1.23,0,0,0,.1.6h-3.6l-5.6-15.8a6.68,6.68,0,0,0-.8-1.4h4.3a3.78,3.78,0,0,0-.2,1,2.08,2.08,0,0,0,.1.7l3.9,12,2.1-6.7-1.9-5.6a6.68,6.68,0,0,0-.8-1.4h4.3a3.09,3.09,0,0,0-.2.9,1.66,1.66,0,0,0,.1.7l3.9,12,3.9-12a1.51,1.51,0,0,0,.1-.7,3.78,3.78,0,0,0-.2-1h4.3a2.86,2.86,0,0,0-.8,1.4L198,122.9a1.51,1.51,0,0,0-.1.7v.6h-3.5Zm16.5-1.1v4.3h5.4a1,1,0,0,0,.9-.6v3.4h-10a1.44,1.44,0,0,0,.6-.9V107.9a1,1,0,0,0-.6-.9h10v3.4a1.05,1.05,0,0,0-.9-.5h-5.4v4.4h3.4a1,1,0,0,0,.9-.6v3.9a1.44,1.44,0,0,0-.9-.6Zm8.2,2.5a3.57,3.57,0,0,0,3.2,2A2.69,2.69,0,0,0,223,119v-.12c0-1.6-1.2-2.5-3.1-3.7a5.19,5.19,0,0,1-2.7-4.4,4.13,4.13,0,0,1,4-4.2h.1c.8,0,1.4.2,2,.2a2,2,0,0,0,1-.3v4.4a3.13,3.13,0,0,0-2.5-1.6,1.33,1.33,0,0,0-1.49,1.13.91.91,0,0,0,0,.17v.2c0,1.1,1,1.6,2.6,2.7,2.1,1.5,3.1,3,3.1,5.4a5.47,5.47,0,0,1-5.2,5.7h-.5c-1,0-1.8-.3-2.4-.3a3.09,3.09,0,0,0-.9.2Zm12.7,3.7V109.9H227a1,1,0,0,0-.9.6v-3.4h10.3v3.4a1.44,1.44,0,0,0-.9-.6h-2.7v13.5a1.05,1.05,0,0,0,.5.9h-4.2a2.11,2.11,0,0,0,.6-1Zm11.6-6.2v4.3h5.4a1,1,0,0,0,.9-.6v3.4h-10a1.05,1.05,0,0,0,.5-.9V107.9a1.05,1.05,0,0,0-.5-.9h10v3.4a1.05,1.05,0,0,0-.9-.5h-5.4v4.4h3.4a1,1,0,0,0,.9-.6v3.9a1.44,1.44,0,0,0-.9-.6Zm8.7,6.2V106.8a2,2,0,0,0,1.1.3c.6,0,1.6-.3,3.1-.3,3.3,0,5.3,2,5.3,5.1A4,4,0,0,1,257,116a6.21,6.21,0,0,1,4.2,4.4c.3,1.1.3,2.5,1.2,3.8h-4.2a1.63,1.63,0,0,0,.5-1.1,6.21,6.21,0,0,0-5.6-5.8v6a1.05,1.05,0,0,0,.5.9h-4.2a.88.88,0,0,0,.6-.9Zm4-8.7a2.51,2.51,0,0,0,2.5-2.4,2.39,2.39,0,0,0-2.28-2.5h-.12c-.3,0-.7.1-1,.1v4.6C253.5,114.6,253.9,114.7,254,114.6Zm13.7,9.6h-4.2a1.05,1.05,0,0,0,.5-.9V107.9a1.05,1.05,0,0,0-.5-.9h3.7l5.5,9.5a24.54,24.54,0,0,1,1.5,3.3,18.25,18.25,0,0,1-.3-3.3v-8.6a1.05,1.05,0,0,0-.5-.9h4.2a1.05,1.05,0,0,0-.5.9v15.4a1.05,1.05,0,0,0,.5.9h-3.7l-5.8-10.1a9.09,9.09,0,0,1-1.1-2.7c.2,1.5.3,2.5.3,2.9v9A.75.75,0,0,0,267.7,124.2ZM3.1,146.4a4.28,4.28,0,0,0,3.2,1.4,3.91,3.91,0,0,0,4.1-3.7V144c0-2.1-1.3-2.9-3.5-4.1s-3.3-2.2-3.3-4.3a3.72,3.72,0,0,1,3.53-3.9H7.5a21,21,0,0,1,2.5.4.83.83,0,0,0,.6-.3v2.6a4.31,4.31,0,0,0-2.8-1.1,2.23,2.23,0,0,0-2.4,2v.3c0,1.2.8,1.8,2.4,2.7,2.6,1.6,4.5,2.6,4.5,5.7A5.58,5.58,0,0,1,7,149.8H6.7c-1-.1-2-.2-3-.4a.83.83,0,0,0-.6.3ZM20,133.7a1.16,1.16,0,0,0-1,.4V132H29v2.1a.86.86,0,0,0-.9-.4H24.9v14.8a1.19,1.19,0,0,0,.2.8H22.9a1.09,1.09,0,0,0,.2-.8V133.7Zm15.2,14.5,7.1-16.6,7.2,16.6a4.11,4.11,0,0,0,.7,1.1H47.4a2.29,2.29,0,0,0,.3-.5,1.94,1.94,0,0,0-.2-.7l-1.6-3.6H38.7l-1.5,3.7a1.42,1.42,0,0,0-.2.6.72.72,0,0,0,.2.5H34.5A6.61,6.61,0,0,0,35.2,148.2Zm7.1-12.7-2.9,7.2h5.8Zm13.3-1.8a1.16,1.16,0,0,0-1,.4V132h10v2.1a.86.86,0,0,0-.9-.4H60.6v14.8a1.19,1.19,0,0,0,.2.8H58.4a1.09,1.09,0,0,0,.2-.8V133.7ZM73,148.5V132.8a1.19,1.19,0,0,0-.2-.8h9.3v1.9c-.2-.2-.5-.2-1-.2H74.8v6H79c.7,0,1,0,1.1-.4v2.4a1.77,1.77,0,0,0-1.2-.3H74.7v6h6.2c.6,0,.9,0,1-.3v2H72.6c.2-.1.3-.4.4-.6Zm31.8-15.6a1.19,1.19,0,0,0-.2-.8h2.3a1.09,1.09,0,0,0-.2.8v10.6q0,4.5,3.9,4.5c2.6,0,4-1.5,4-4.4V132.9a1.19,1.19,0,0,0-.2-.8h2.2a1.09,1.09,0,0,0-.2.8v10.8c0,4-2.2,6-5.8,6s-5.8-2.1-5.8-6Zm23.3,3.6v11.9a1.19,1.19,0,0,0,.2.8h-2.2a1.09,1.09,0,0,0,.2-.8V131.5l10.2,13.1V132.8a2.41,2.41,0,0,0-.2-.8h2.2a1.09,1.09,0,0,0-.2.8v16.9Zm20.3,12V132.8a2.41,2.41,0,0,0-.2-.8h2.3a1.09,1.09,0,0,0-.2.8v15.7a.85.85,0,0,0,.2.7h-2.2a1.66,1.66,0,0,0,.1-.7Zm12.8-16a1.94,1.94,0,0,0,.2.7l5.3,12,5.2-12.1a1.42,1.42,0,0,0,.2-.6.72.72,0,0,0-.2-.5h2.8a3.47,3.47,0,0,0-.7,1l-7.4,16.6L159.2,133a4.11,4.11,0,0,0-.7-1.1h2.9a1.42,1.42,0,0,0-.2.6Zm20.8,16V132.8a1.19,1.19,0,0,0-.2-.8h9.3v1.9c-.2-.2-.5-.2-1-.2h-6.3v6H188c.6,0,1,0,1.1-.4v2.4a1.77,1.77,0,0,0-1.2-.3h-4.1v6H190c.6,0,.9,0,1-.3v2h-9.3a.71.71,0,0,0,.3-.6Zm19.4-.1a1.19,1.19,0,0,0,.2.8h-2.2a1.86,1.86,0,0,0,.2-.8V131.5a1.49,1.49,0,0,0,1.1.4,26.47,26.47,0,0,1,2.8-.5c2.9,0,4.9,2.1,4.9,5.4a4.39,4.39,0,0,1-2.1,4.1,7,7,0,0,1,3.8,4.1c.9,2.3.5,3.7,1.1,4h-2.3c0-4.5-2.5-7.5-6.7-8.1,2.8-.2,4.3-1.7,4.3-4.1s-1.5-3.7-3.2-3.7a2.59,2.59,0,0,0-1.9.5Zm17.5-2a4.28,4.28,0,0,0,3.2,1.4,3.91,3.91,0,0,0,4.1-3.7V144c0-2.1-1.3-2.9-3.5-4.1s-3.3-2.2-3.3-4.3a3.72,3.72,0,0,1,3.53-3.9h.37a21,21,0,0,1,2.5.4.83.83,0,0,0,.6-.3v2.6a4.31,4.31,0,0,0-2.8-1.1,2.23,2.23,0,0,0-2.4,2v.2c0,1.2.8,1.8,2.4,2.7,2.6,1.6,4.5,2.6,4.5,5.7a5.58,5.58,0,0,1-5.3,5.8h-.3c-1-.1-2-.2-3-.4a.83.83,0,0,0-.6.3Zm17.8,2.1V132.8a2.41,2.41,0,0,0-.2-.8h2.3a1.09,1.09,0,0,0-.2.8v15.7a.85.85,0,0,0,.2.7h-2.2c0-.2.1-.5.1-.7Zm11.2-14.8a1.16,1.16,0,0,0-1,.4V132h10v2.1a.86.86,0,0,0-.9-.4h-3.1v14.8a1.19,1.19,0,0,0,.2.8h-2.2a1.09,1.09,0,0,0,.2-.8V133.7Zm21.8,14.8v-7.4l-5.4-8c-.3-.4-.6-.7-.9-1.1h3.1a.76.76,0,0,0-.2.4c0,.2.1.3.1.4l4.2,6.2,4.2-6.2c.1-.1.1-.2.1-.4s-.1-.3-.3-.5h3.2a2.06,2.06,0,0,0-.6.8l-5.6,8.3v7.4a1.19,1.19,0,0,0,.2.8h-2.2c0-.2.1-.5.1-.7Z"/></svg>