<svg xmlns="http://www.w3.org/2000/svg" viewBox="0 0 78.1 103.6" enable-background="new 0 0 78.1 103.6"><style type="text/css">.st0{fill:#FFFFFF;} .st1{fill:#FFFFFF;stroke:#FFFFFF;}</style><path class="st0" d="M14 96.6v.5c0 3.5-2.5 6.3-6.1 6.3-3.6 0-6.5-3.1-6.5-6.7 0-3.7 3-6.8 6.7-6.8 2 0 4 .9 5.2 2.5l-1.1 1.1c-.9-1.3-2.5-2.1-4-2.1-2.9 0-5.1 2.3-5.1 5.2 0 2.7 2.2 5.3 5 5.3 2 0 4.1-1.7 4.2-3.8h-3.4v-1.5h5.1zM28.1 96.6c0 3.8-3 6.7-6.7 6.7s-6.7-2.9-6.7-6.7c0-3.7 3.1-6.7 6.7-6.7 3.7 0 6.7 3 6.7 6.7zm-1.6 0c0-2.8-2.1-5.2-5.1-5.2s-5.1 2.4-5.1 5.2c0 2.9 2.4 5.2 5.1 5.2 2.8 0 5.1-2.2 5.1-5.2zM37.7 103.1h-1.9l-3.8-5.5h-.7v5.5h-1.6v-12.9h1.9c1.1 0 2.4 0 3.4.6 1.1.6 1.7 1.8 1.7 3.1 0 1.8-1.2 3.4-3.1 3.6l4.1 5.6zm-6.4-6.8h.5c1.6 0 3.4-.3 3.4-2.4 0-2-1.9-2.3-3.5-2.3h-.4v4.7zM38.8 90.2h2.7c3.9 0 7.2 2.1 7.2 6.4 0 4.4-3.2 6.5-7.3 6.5h-2.6v-12.9zm1.6 11.4h.6c3.3 0 6.1-1.2 6.1-5s-2.8-5-6.1-5h-.6v10zM62.9 96.6c0 3.8-3 6.7-6.7 6.7s-6.7-2.9-6.7-6.7c0-3.7 3.1-6.7 6.7-6.7 3.7 0 6.7 3 6.7 6.7zm-1.6 0c0-2.8-2.1-5.2-5.1-5.2-3 0-5.1 2.4-5.1 5.2 0 2.9 2.4 5.2 5.1 5.2 2.8 0 5.1-2.2 5.1-5.2zM64.3 89.6l9.7 10.1v-9.5h1.6v13.4l-9.7-10.1v9.6h-1.6v-13.5zM78.1 41.6c.2 9.9-1.2 18.5-8.2 26.1-7.5 8.1-18.7 12.7-29.7 12.7-21.7 0-40.2-18.3-40.2-39.9 0-22.4 18.4-40.5 40.8-40.5 14.2 0 25.8 7.1 34 18.3l-4.1 3.2c-7-10.4-17.5-16.8-30.2-16.8-19.1 0-35.5 16.7-35.5 35.5 0 19.3 16 35.5 35.5 35.5 8.4 0 16.6-3.4 23.1-8.6 6.8-5.7 9.2-12.3 9.6-20.8h-28v-4.7h32.9z"/><path class="st1" d="M2.7 84.7l73 .1"/></svg>