<svg data-name="Layer 1" xmlns="http://www.w3.org/2000/svg" viewBox="0 0 254.8 257"><g data-name="KS &amp; rule"><path fill="none" stroke="#fff" stroke-miterlimit="10" d="M0 196.04L254.13 196.04"/><path d="M89.66 77.51l-8.61-1.35C74.8 75 68.39 72.44 68.39 70.24v-10.8c0-4.22 36.14-3.88 61-3.88L140 42.72H54.71l3.38 5.91c-3.21 1.69-4.73 3.71-4.73 6.08V76c0 4.73 7.77 9.12 24.82 12.66l11.65 1.86v-13zm80.89-21.28c8.95.51 15.7 1.52 15.7 3.21v10h15v-14.9c0-4.22-7.77-7.43-21.61-9.29zm-28.71 34.95l6.92 8.44 25 3.88c6.08 1.18 12.66 3.71 12.66 5.91v9.29c0 2.2-7.77 3.38-18.57 4.05l9.62 11.65c15.53-1.86 24.15-5.07 24.15-9.79V105.7c0-3.88-.51-5.07-.84-5.74-2.2-3.88-7.26-5.4-29.55-10.13l-25.33-3.55zm-73.45 28.88v-8.78h-15.2V125c0 8.11 32.76 12 77 12h7.09l-10.64-13c-14 0-58.26 0-58.26-3.88" fill="#fff"/><path d="M194.52 14.18h-32.08L167 22.8l-52 63.32V63.66c-5.57 0-11.31 0-16.89.17v51.84c5.57.17 11.31.17 16.89.17V96.42l52 63.49-4.39 8.27h31.75l-63-77z" fill="#fff"/><path fill="#fff" d="M97.94 34.28L114.82 34.28 114.82 14.18 92.36 14.18 97.94 24.82 97.94 34.28z"/><path d="M97.94 157.54l-5.57 10.64H115v-23.3c-5.57-.17-11.31-.34-16.89-.68v13.34z" fill="#fff"/><path d="M209.72 125v-19c0-3.55-.51-7.6-1.86-9.79-4.73-7.77-15-9.62-23.13-11.48-3.38-.84-16.72-3-32.93-5.74l12.33-14.86c4.9.34 9.62.68 14 1.35v12.19h31.41V54.54c.17-10.3-11.65-14-19.59-15.87-1.18-.34-2.53-.51-4.05-.84l26.18-31.75h-63l8.27 15.7-10.64 13c-7.77-.17-15.2-.34-21.11-.34h-2.2V5.91H79l11 20.94v7.43H40.86l6.93 12.32a14.19 14.19 0 0 0-2.53 7.77v21.28C45.08 90 66 94.05 76.66 96.25c4.39.68 8.95 1.52 13.34 2.2V115c-4.39-.17-8.78-.68-13-1.18v-11.16H45.42v22c-.17 14.69 23.3 16.55 33.77 17.73 3.71.51 7.26.84 11 1v11.82l-11 20.94h44.41v-31.61h5.74c5.07 0 10.13 0 15.2-.17l13 16-8.27 15.53h62.81l-28-34.28c10.81-1 25.67-4.73 25.67-16.72m-38.7-34.73c22.46 4.56 27.35 6.25 29.55 10.13.34.51.84 1.86.84 5.74V125c0 4.56-8.61 7.77-24.15 9.79l-9.62-11.65c10.81-.68 18.57-2 18.57-4.05v-9.29c0-2.36-6.75-4.73-12.66-5.91l-25-3.88-6.92-8.44 4.05-4.9zm-9.45 25.33l-5.4-6.59 15.87 2.53a51.05 51.05 0 0 1 5.93 1.36v1.2a131.2 131.2 0 0 1-16.38 1.52m39.68-61V69.4h-15v-10c0-1.69-6.75-2.53-15.7-3.21l9.12-11.14c14 2 21.61 5.07 21.61 9.46m-86.51-40.33v20.27H97.94V25l-5.58-10.65h22.46zM78 88.48c-17-3.55-24.81-7.94-24.81-12.66V54.54c0-2.36 1.52-4.39 4.73-6.08l-3.38-5.91h85.27l-10.63 12.84c-24.82 0-61-.34-61 3.88v10.81c0 2.36 6.42 4.73 12.66 5.91l8.61 1.35v12.83zM89.66 64v5.23q-2-.25-3.55-.51c-1.18-.17-7.94-1.69-9.62-2.2v-1.34c4.39-.51 8.78-.84 13.17-1.18m25.16 104.35H92.2l5.57-10.64v-13.34c5.57.34 11.31.51 16.89.68v23.3zm15.37-31.58c-44.24 0-77-3.88-77-12v-13.66h15.2v8.78c0 3.88 44.07 3.88 58.26 3.88l10.64 13h-7.09m64 31.58h-31.76l4.39-8.27-52-63.66v19.25c-5.57 0-11.31 0-16.89-.17V63.66c5.57-.17 11.31-.17 16.89-.17v22.46l52-63.32-4.56-8.63h32.08L131 91z" fill="none"/><path d="M86.12 68.72q1.52.25 3.55.51V64c-4.39.17-8.78.68-13 1.18v1.35c1.52.51 8.27 1.86 9.46 2.2m86.1 42.72l-15.87-2.53 5.4 6.59a134.24 134.24 0 0 0 16.38-1.51v-1.2a51.06 51.06 0 0 0-5.91-1.35" fill="#fff"/><path d="M207.86 147.07a6.07 6.07 0 0 0-3-4.9c6.25-3.55 10.81-9.62 10.81-17.05v-18.91c0-10.47-4.56-18.24-14.18-22.46h14v-23.3c0-3.38.34-7.09-.68-10.47-2.36-8.44-10.64-13-18.57-15.37L223.9.51h-84.76c3.55 6.92 7.26 14 10.81 20.94l-6.42 7.77c-5.23-.17-10.3-.17-14.69-.17V0H68.72l14.86 28.37v.17H30.23l10.3 18.24a20 20 0 0 0-1.69 7.77v21.27c-.17 10.64 8.61 17.56 17.56 21.28H38.84V125c-.51 21.11 29.89 22.8 44.75 24.15v5.07l-14.87 28.31H129v-31.4h12.16l8.78 10.81L139 182.7h84.9L200.43 154c4.39-1.35 7.43-3.88 7.43-6.92m3.71 29.38h-62.81l8.24-15.54-13-16c-5.07.17-10.13.17-15.2.17h-5.7v31.58H78.69l11-20.94v-11.86l-11-1c-10.3-1.18-33.77-3-33.77-17.73v-22h31.74v11.14c4.39.51 8.61.84 13 1.18V99c-4.39-.68-8.95-1.52-13.34-2.2-10.64-2.2-31.58-6.42-31.41-20.6V54.88a14.19 14.19 0 0 1 2.53-7.77l-6.91-12.33h49.13v-7.43l-11-20.94h44.44v28.37h2.2c5.91 0 13.34.17 21.11.34l10.64-13s-6.42-12.5-8.27-15.7h63l-26.21 31.74c1.52.34 2.87.51 4.05.84 8.11 1.86 19.76 5.74 19.59 15.87V78H178V65.85c-4.22-.68-8.95-1-14-1.35l-12.37 14.86c16 2.53 29.55 4.9 32.93 5.74 8.11 1.9 18.44 3.72 23.13 11.49 1.35 2.2 1.86 6.25 1.86 9.79v18.91c0 12-14.86 15.7-26.17 17.22zM202 147.07a3.21 3.21 0 1 1-6.42 0 3.21 3.21 0 1 1 6.42 0m-5.57 0a2.49 2.49 0 0 0 2.53 2.53 2.54 2.54 0 0 0 0-5.07 2.49 2.49 0 0 0-2.53 2.53m1.86 1.69h-.68v-3.21c.34 0 .68-.17 1.18-.17a3.68 3.68 0 0 1 1 .17.88.88 0 0 1 .34.68.73.73 0 0 1-.68.68.78.78 0 0 1 .51.84 2.26 2.26 0 0 1 .17.84h-.84c-.17-.17-.17-.34-.17-.84 0-.34-.17-.51-.68-.51h-.17zm0-1.86h.34c.34 0 .68-.17.68-.51s-.17-.51-.68-.51h-.34z" fill="#fff"/></g><path d="M0 249.74v-9.46h1.69v9.46c0 3.88 1.86 5.74 5.07 5.74s5.07-1.86 5.07-5.74v-9.46h1.69v9.46c0 4.73-2.53 7.26-6.75 7.26S0 254.47 0 249.74zm45.08-9.46v16.55h-1.51l-10.64-13.51v13.51h-1.69v-16.55h1.52l10.64 13.51v-13.51zm17.73 0h1.69v16.55h-1.69zm34.28 0l-7.26 16.55h-1.69l-7.26-16.55h1.86l6.42 14.35 6.42-14.35zm26.68 15.03v1.52h-11.65v-16.55h11.31v1.52h-9.62v5.91h8.61v1.52h-8.61v6.08h10zm27.86 1.52l-3.71-5.4h-5.74v5.23h-1.69v-16.55h6.25c4.22 0 6.75 2.2 6.75 5.74a5.27 5.27 0 0 1-3.71 5.23l4.05 5.74zm-.17-11c0-2.7-1.69-4.22-5.07-4.22H142v8.27h4.39c3.39.2 5.07-1.32 5.07-4.02zm17.23 8.97l.68-1.35a7.83 7.83 0 0 0 5.4 2c3 0 4.39-1.35 4.39-2.87 0-4.56-10.13-1.69-10.13-7.94 0-2.36 1.86-4.56 6.08-4.56a8.21 8.21 0 0 1 5.07 1.52l-.51 1.35a9 9 0 0 0-4.56-1.35c-3 0-4.39 1.35-4.39 3 0 4.56 10.13 1.86 10.13 7.77 0 2.36-1.86 4.56-6.25 4.56a8.17 8.17 0 0 1-5.91-2.13zm28.37-14.52h1.69v16.55h-1.69zm22.62 1.52h-5.74v-1.52h13.34v1.52h-5.74v15h-1.69v-15zm28.37 9.29v5.74h-1.69v-5.74l-6.59-10.81h1.86l5.74 9.29 5.74-9.29h1.69zM6.92 224.41l-2.53 2.7v4.73H0v-18.91h4.39v8.78l8.44-8.78h4.9L10 221.37l8.27 10.47h-5.1zm27.7 3.88v3.55H19.93v-18.91h14.35v3.55h-10v4.05h8.82v3.38h-8.78v4.39zm20.93-15.36v18.91H52l-9.46-11.48v11.48h-4.38v-18.91h3.55l9.46 11.48v-11.48zm21.62 0v18.91h-3.55l-9.46-11.48v11.48h-4.38v-18.91h3.55l9.46 11.48v-11.48zm19.08 15.36v3.55H81.56v-18.91h14.35v3.55h-10v4.05h8.78v3.38h-8.74v4.39zm2.02 1.52l1.52-3.38a11 11 0 0 0 6.25 2c2.53 0 3.71-.84 3.71-2 0-3.55-11-1.18-11-8.11 0-3.21 2.53-5.91 7.94-5.91a12.36 12.36 0 0 1 6.59 1.69l-1.28 3.39a10.35 10.35 0 0 0-5.23-1.52c-2.53 0-3.55 1-3.55 2.2 0 3.55 11 1 11 7.94 0 3.21-2.7 5.91-7.94 5.91-3.45-.02-6.28-.86-8.01-2.21zm30.73-2.02h-8.78l-1.69 4.05H114l8.44-18.91h4.39l8.44 18.91h-4.57zm-1.35-3.38l-3-7.26-3 7.26zm35.8-11.48l-6.25 18.91h-4.73L148.26 219 144 231.84h-4.73l-6.25-18.91h4.56l4.22 13.34 4.39-13.34h4.05l4.39 13.34 4.39-13.34zm8.95 16.88l1.52-3.38a11 11 0 0 0 6.25 2c2.53 0 3.71-.84 3.71-2 0-3.55-11-1.18-11-8.11 0-3.21 2.53-5.91 7.94-5.91a12.36 12.36 0 0 1 6.59 1.69l-1.35 3.38a10.35 10.35 0 0 0-5.23-1.52c-2.53 0-3.55 1-3.55 2.2 0 3.55 11 1 11 7.94 0 3.21-2.7 5.91-8.11 5.91-3.04-.01-6.08-.85-7.77-2.2zm22.29-13.34h-6.08v-3.55h16.55v3.55h-6.08v15.37h-4.39v-15.37zm22.8 11.32h-8.78l-1.71 4.05h-4.56l8.44-18.91h4.39l8.44 18.91h-4.56zm-1.35-3.38l-3-7.26-3 7.26zm10.97-7.94H221v-3.55h16.55v3.55h-6.05v15.37h-4.39v-15.37zm27.53 11.82v3.55h-14.69v-18.91h14.35v3.55h-10v4.05h8.78v3.38h-8.78v4.39z" fill="#fff"/></svg>