<svg xmlns="http://www.w3.org/2000/svg" width="416.2" height="256.6" viewBox="0 0 416.2 256.6"><style type="text/css">.st0{fill:#FFFFFF;}</style><path class="st0" d="M2.1 184.9c2.9 1.3 6.9 1.6 10.7 1.6 3.5 0 7.9-.4 11-2.6 4.8-3.4 6.6-7.2 6.6-11.9 0-5.8-2.7-10.6-11.4-15.4l-2.7-1.5c-5.9-3.3-7-5.5-7-8.4 0-4.3 4.3-6.8 9-6.8 4.3 0 6.4 1.8 7.3 3 1.4 1.6 1.7 3.6 1.7 4.2 0 .8.2 1.1.7 1.1.5 0 .8-.7.8-2 0-5 .2-6.8.2-7.6 0-.4-.3-.7-.9-.8-1.7-.5-5.1-1.1-9.4-1.1-9.1 0-16.6 5-16.6 12.8 0 5.6 2.6 9.9 10.4 14.5l3.8 2.2c5.9 3.5 6.5 6.2 6.5 9 0 4.5-3.4 8.1-9.2 8.1-4.1 0-9.1-1.6-10.5-6.3-.4-1.1-.6-2.5-.6-3.3 0-.4-.1-1.1-.7-1.1-.5 0-.8.7-.8 1.6-.1 1.1-.4 5-.4 8.5.2 1.5.4 1.8 1.5 2.2M64.6 166.1h-12.7c-.2 0-.4-.2-.2-.5l6.4-15.9c.1-.2.2-.6.4-.6.1 0 .2.4.3.6l6.2 16c0 .3-.1.4-.4.4m6.6 18.3c-.7.1-.8.3-.8.7 0 .4.7.4 1.9.5 5.6.1 10.4.1 12.7.1 2.5 0 2.9-.1 2.9-.7 0-.4-.3-.7-.9-.7-.7 0-1.5-.1-2.5-.2-1.2-.2-3.1-1.1-5.6-6.8-4.2-9.7-15.2-35.5-16.8-39-.7-1.4-1-2-2-2-.7 0-1.2.7-1.9 2.6l-17.3 39.8c-1.3 3.2-2.5 5.2-5.5 5.6l-1.9.1c-.5 0-.8.3-.8.7 0 .5.4.7 1.2.7 3.5 0 7-.2 7.7-.2 2.1 0 5.2.2 7.4.2.7 0 1.1-.1 1.1-.7 0-.4-.2-.7-1-.7h-1c-2 0-2.6-.7-2.6-1.8 0-.7.3-2.3 1-3.9l3.5-8.6c.2-.4.2-.4.6-.4h15.5c.3 0 .5.1.7.4l5.1 12.9c.2.7-.2 1.3-.7 1.4M105.2 186.6c.9 0 1.5-1 3.2-4.7 1.5-3.2 4.6-10.2 8.8-19.5 3.6-7.8 5.3-11.2 7.9-17.2 1.7-4.1 2.6-5 3.5-5.6 1.1-.8 2.5-.8 3.2-.8.7 0 1-.2 1-.7 0-.4-.5-.6-1.3-.6-2 0-5.1.2-6.2.2-.8 0-3.8-.2-7-.2-1.3 0-1.9.2-1.9.6 0 .4.5.7 1.1.7.8 0 1.9.1 2.6.3.6.2.9.5.9 1.1 0 .5-.3 1.5-.6 2.3-1.6 4.2-10 24.7-12.9 31.3h-.2l-11.1-28.6c-.9-2.2-1.5-4-1.5-4.8 0-.6.2-1 .7-1.3.5-.4 1.5-.5 2.5-.5.6 0 1-.2 1-.7 0-.4-.7-.6-1.6-.6-3.3 0-6.8.2-8.4.2-2.3 0-6.1-.2-9.6-.2-1 0-1.6.1-1.6.6 0 .4.2.7.7.7.5 0 1.6 0 2.6.2 2.4.6 3.4 1.2 4.9 4.7l16.7 39c1.2 3.3 1.7 4.1 2.6 4.1M154.2 166.1h-12.8c-.2 0-.4-.2-.2-.5l6.4-15.9c.1-.2.2-.6.4-.6.1 0 .2.4.3.6l6.2 16c.1.3 0 .4-.3.4m6.6 18.3c-.7.1-.8.3-.8.7 0 .4.7.4 1.9.5 5.6.1 10.4.1 12.7.1 2.5 0 2.9-.1 2.9-.7 0-.4-.3-.7-.9-.7-.7 0-1.5-.1-2.5-.2-1.2-.2-3.1-1.1-5.6-6.8-4.2-9.7-15.2-35.5-16.8-39-.7-1.4-1-2-2-2-.7 0-1.2.7-1.9 2.6l-17.3 39.8c-1.3 3.2-2.5 5.2-5.5 5.6l-1.9.1c-.5 0-.8.3-.8.7 0 .5.4.7 1.2.7 3.5 0 7-.2 7.6-.2 2.1 0 5.2.2 7.4.2.7 0 1.1-.1 1.1-.7 0-.4-.2-.7-1-.7h-1c-2 0-2.6-.7-2.6-1.8 0-.7.3-2.3 1-3.9l3.5-8.6c.2-.4.2-.4.6-.4h15.5c.3 0 .5.1.7.4l5.1 12.9c.3.7-.2 1.3-.6 1.4M205.2 166.8c6.9 6.7 15.1 14.5 19.3 18.4.7.7 1.6 1.4 2.7 1.4.5 0 1.1-.6 1.1-2l.7-40.2c.1-3.6.6-4.7 2.4-5.2.8-.2 1.4-.2 2-.2.7 0 1.1-.3 1.1-.7 0-.5-.6-.6-1.5-.6-3.2 0-5.7.1-6.5.1-1.4 0-5-.1-8.4-.1-1 0-1.6.1-1.6.6 0 .4.2.7 1.1.7.9 0 2.5 0 3.5.4 1.6.6 2.2 1.7 2.2 5.6l.7 28.3h-.3c-1-.9-9.8-9.9-14.3-14.3-9.6-9.4-19.5-19.5-20.3-20.3-1.1-1.1-2-2.1-2.9-2.1-.7 0-1.1.9-1.1 2.2l-.6 37.8c-.1 5.6-.3 7.3-2 7.7-.9.2-2.1.3-3 .3-.6 0-1.1.3-1.1.7 0 .6.6.7 1.5.7 3.4 0 6.5-.2 7.1-.2 1.2 0 4.3.2 8.6.2.9 0 1.5-.1 1.5-.7 0-.4-.4-.7-1.1-.7-1 0-2.3-.1-3.5-.5-1.3-.4-2.1-1.9-2.3-6.9l-.7-26h.2c1.3 1 8.3 8.7 15.5 15.6M269.8 166.8c6.9 6.7 15.2 14.5 19.3 18.4.7.7 1.6 1.4 2.7 1.4.5 0 1-.6 1-2l.8-40.2c.1-3.6.6-4.7 2.4-5.2.8-.2 1.4-.2 2-.2.7 0 1.1-.3 1.1-.7 0-.5-.6-.6-1.5-.6-3.2 0-5.7.1-6.5.1-1.4 0-4.9-.1-8.4-.1-1 0-1.7.1-1.7.6 0 .4.2.7 1.1.7.9 0 2.5 0 3.4.4 1.6.6 2.2 1.7 2.2 5.6l.7 28.3h-.3c-1-.9-9.7-9.9-14.2-14.3-9.6-9.4-19.5-19.5-20.3-20.3-1.1-1.1-2-2.1-2.8-2.1-.7 0-1.1.9-1.1 2.2l-.6 37.8c-.1 5.6-.3 7.3-2 7.7-.9.2-2.1.3-3 .3-.6 0-1.1.3-1.1.7 0 .6.6.7 1.5.7 3.4 0 6.5-.2 7.1-.2 1.2 0 4.3.2 8.5.2.9 0 1.5-.1 1.5-.7 0-.4-.4-.7-1.1-.7-1.1 0-2.3-.1-3.5-.5-1.3-.4-2.1-1.9-2.2-6.9l-.7-26h.2c1.3 1 8.3 8.7 15.5 15.6M332.2 166.1h-12.7c-.2 0-.4-.2-.2-.5l6.4-15.9c.1-.2.2-.6.4-.6s.2.4.3.6l6.2 16c0 .3-.1.4-.4.4m6.6 18.3c-.7.1-.8.3-.8.7 0 .4.7.4 1.9.5 5.5.1 10.4.1 12.7.1 2.5 0 2.9-.1 2.9-.7 0-.4-.3-.7-.9-.7-.8 0-1.5-.1-2.5-.2-1.2-.2-3.1-1.1-5.6-6.8-4.2-9.7-15.2-35.5-16.8-39-.7-1.4-1-2-1.9-2-.7 0-1.2.7-1.9 2.6l-17.2 39.8c-1.4 3.2-2.5 5.2-5.5 5.6l-1.9.1c-.5 0-.8.3-.8.7 0 .5.4.7 1.2.7 3.5 0 7-.2 7.6-.2l7.3.2c.7 0 1.1-.1 1.1-.7 0-.4-.2-.7-1-.7h-1c-2 0-2.6-.7-2.6-1.8 0-.7.3-2.3 1-3.9l3.5-8.6c.1-.4.2-.4.6-.4h15.5c.3 0 .5.1.7.4l5.1 12.9c.2.7-.2 1.3-.7 1.4M393.5 137.5c-1 0-1.4.2-1.4.6 0 .4.4.7 1.1.7.9 0 2 .1 2.5.2 2.1.6 2.7 1.3 2.8 3.5.1 2 .2 4.4.2 14v1.3c0 .4-.2.5-.4.5h-24.9c-.2 0-.5-.1-.5-.5v-1.3c0-9.7 0-12 .2-14 .1-2.2.7-3.1 2.5-3.5.7-.1 1.4-.2 1.9-.2.8 0 1.2-.2 1.2-.7 0-.4-.4-.6-1.3-.6-2.6 0-7.2.2-8.8.2-1.8 0-6.2-.2-9.7-.2-.9 0-1.4.2-1.4.6 0 .4.4.7 1.1.7 1 0 2.1.1 2.6.2 2.1.6 2.7 1.3 2.9 3.5.1 2 .1 3.8.1 13.5v11.2c0 5.9 0 10.9-.3 13.6-.2 1.9-.6 3.1-1.9 3.4-.6.2-1.4.2-2.3.2-.8 0-1.1.4-1.1.7 0 .5.5.7 1.3.7 2.6 0 7-.2 8.5-.2 1.9 0 6.4.2 10.7.2.8 0 1.4-.2 1.4-.7 0-.3-.3-.7-1.1-.7-1 0-2.5-.1-3.4-.2-1.9-.3-2.3-1.5-2.6-3.3-.3-2.8-.4-7.7-.4-13.5v-4.9c0-.3.2-.4.5-.4h24.9c.1 0 .4.2.4.4v4.9c0 5.8 0 10.7-.3 13.4-.2 1.9-.6 3.1-2 3.4-.6.2-1.4.2-2.4.2-.8 0-1.1.4-1.1.7 0 .5.5.7 1.4.7 2.6 0 7.2-.2 8.7-.2 1.8 0 6.2.2 10.4.2.8 0 1.4-.2 1.4-.7 0-.3-.4-.7-1.1-.7-1 0-2.5-.1-3.4-.2-2-.3-2.4-1.5-2.6-3.3-.3-2.8-.3-7.8-.3-13.7v-11.2c0-9.7 0-11.5.1-13.5.2-2.2.7-3.1 2.4-3.5.8-.1 1.4-.2 1.9-.2.8 0 1.2-.2 1.2-.7 0-.4-.4-.6-1.4-.6-2.5 0-6.9.2-8.5.2-1.5 0-6.2-.2-9.7-.2M10.8 239.2l-1.6-.9c-3.4-1.9-4.1-3.2-4.1-4.9 0-2.5 2.5-4 5.2-4 2.5 0 3.7 1 4.3 1.7.8 1 1 2.1 1 2.4 0 .4.1.7.4.7.3 0 .5-.4.5-1.2 0-2.9.1-4 .1-4.4 0-.3-.2-.4-.5-.5-1-.3-3-.6-5.5-.6-5.3 0-9.7 2.9-9.7 7.5 0 3.3 1.5 5.8 6 8.4l2.2 1.3c3.4 2 3.8 3.6 3.8 5.2 0 2.6-2 4.7-5.3 4.7-2.4 0-5.3-.9-6.1-3.7-.2-.6-.3-1.4-.3-1.9 0-.3 0-.6-.4-.6-.3 0-.5.4-.5 1s-.2 2.9-.2 4.9c0 .8.1 1 .7 1.3 1.7.7 4 1 6.2 1 2.1 0 4.6-.2 6.4-1.5 2.8-2 3.8-4.2 3.8-6.9.2-3.4-1.4-6.2-6.4-9"/><path class="st0" d="M42.5 230.5c3.4 0 4.4 1.2 4.5 2.1v.4c0 .6.1.7.4.7.2 0 .3-.2.3-.6 0-1 .1-3.7.1-4.5 0-.6 0-.8-.3-.8-.1 0-.4.1-1 .2s-1.4.2-2.6.2h-15.5c-1.3 0-2.7 0-3.8-.2-1-.1-1.4-.4-1.7-.4-.2 0-.3.2-.4.7-.1.3-.8 3.9-.8 4.5 0 .4.1.6.3.6.3 0 .3-.2.4-.5.1-.3.3-.7.7-1.3.6-.8 1.5-1.1 3.7-1.1l5.7-.1v15c0 3.4 0 6.3-.2 7.9-.1 1.1-.3 1.8-1.1 2-.3.1-.8.1-1.4.1-.5 0-.6.2-.6.4 0 .3.3.4.7.4 1.5 0 4.1-.1 5-.1 1.1 0 3.7.1 6.2.1.4 0 .7-.1.7-.4 0-.2-.2-.4-.6-.4-.6 0-1.4 0-2-.1-1.1-.2-1.4-.9-1.5-1.9-.2-1.6-.2-4.5-.2-7.9v-15h5zM63.2 244.7h-7.4c-.1 0-.2-.1-.1-.3l3.7-9.2c0-.1.1-.3.2-.3s.1.2.2.3l3.6 9.3c0 .1-.1.2-.2.2m13 10.7c-.4 0-.9 0-1.4-.1-.7-.1-1.8-.6-3.3-4-2.4-5.6-8.9-20.6-9.8-22.7-.4-.8-.6-1.2-1.1-1.2-.4 0-.7.4-1.1 1.5l-10 23.2c-.8 1.9-1.4 3-3.2 3.3h-1.1c-.3 0-.4.2-.4.4 0 .3.2.4.7.4 2 0 4.1-.1 4.5-.1 1.2 0 3 .1 4.3.1.4 0 .6-.1.6-.4 0-.2-.1-.4-.6-.4h-.6c-1.2 0-1.5-.4-1.5-1.1 0-.4.2-1.3.6-2.3l2.1-5c.1-.2.1-.3.3-.3h9c.2 0 .3 0 .4.3l3 7.5c.2.4-.1.8-.4.8-.4 0-.5.2-.5.4 0 .3.4.3 1.1.3 3.2.1 6 .1 7.4.1 1.4 0 1.7-.1 1.7-.4-.2-.2-.4-.3-.7-.3M99.2 227.8c-.1 0-.4.1-1 .2s-1.4.2-2.6.2h-15.7c-1.3 0-2.7 0-3.8-.2-1-.1-1.4-.4-1.7-.4-.2 0-.3.2-.4.7-.1.3-.8 3.9-.8 4.5 0 .4.1.6.4.6.3 0 .3-.2.4-.5.1-.3.3-.7.7-1.3.6-.8 1.5-1.1 3.7-1.1l5.7-.1v15c0 3.4 0 6.3-.2 7.9-.1 1.1-.3 1.8-1.1 2-.3.1-.8.1-1.4.1-.5 0-.6.2-.6.4 0 .3.3.4.7.4 1.5 0 4.1-.1 5-.1 1.1 0 3.7.1 6.2.1.4 0 .7-.1.7-.4 0-.2-.2-.4-.6-.4-.6 0-1.4 0-2-.1-1.1-.2-1.4-.9-1.5-1.9-.2-1.6-.2-4.5-.2-7.9v-15l4.8.1c3.4 0 4.4 1.2 4.5 2.1v.4c0 .6.1.7.4.7.2 0 .3-.2.3-.6 0-1 .1-3.7.1-4.5.3-.6.2-.9 0-.9M123.5 250.3c-.3 0-.3.2-.4.6-.3 1.5-.7 2.3-1.7 2.7-1 .4-2.6.5-3.6.5-3.9 0-5.1-.6-5.2-3.1v-8.5c0-.2 0-.4.2-.4 1 0 5.3.1 6 .2 1.4.1 1.9.7 2.1 1.4.1.5.1 1 .1 1.4 0 .2.1.3.3.3.3 0 .4-.5.4-.8 0-.3.1-1.7.2-2.5.2-1.9.3-2.5.3-2.7 0-.2-.1-.4-.3-.4-.2 0-.3.2-.6.5-.4.4-.9.5-1.8.6-.9.1-5.8.1-6.7.1-.2 0-.3-.2-.3-.4v-9.2c0-.2.1-.4.3-.4.8 0 5.4.1 6 .2 1.9.2 2.2.7 2.5 1.4.2.4.3 1.1.3 1.4 0 .3 0 .5.3.5s.4-.4.4-.6c.1-.4.2-2.1.2-2.4.1-1.7.3-2.1.3-2.4 0-.2 0-.3-.3-.3-.2 0-.4.1-.6.2-.3 0-.9.2-1.6.2h-10.5c-1.1 0-3.5-.1-5.5-.1-.6 0-.9.1-.9.3 0 .3.3.4.7.4.6 0 1.2 0 1.5.1 1.2.3 1.6.7 1.7 2v14.3c0 3.4 0 6.3-.2 7.9-.1 1.1-.4 1.8-1.1 2-.3.1-.8.1-1.4.1-.5 0-.6.2-.6.4 0 .3.3.4.7.4.8 0 1.7 0 2.7-.1h2.2c1.1 0 2.6 0 4.4.1 1.9.1 4.2.1 7.1.1 1.4 0 1.8 0 2-1 .2-.7.5-3.3.5-4.1.2-.4.2-.9-.1-.9M172.2 228.1c-1.5 0-4.1.1-4.5.1 0 0-2.6-.1-4.6-.1-.5 0-.8.1-.8.3 0 .3.2.4.7.4.4 0 1.1 0 1.4.1 1.2.3 1.5.7 1.6 2 0 1.2.1 2.2.1 7.8v4.7c0 3.8-.1 7-2.2 9-1.5 1.5-3.5 2-5.2 2-1.3 0-3.1-.1-4.8-1.5-1.9-1.5-2.9-3.6-2.9-9v-5.2c0-5.6 0-6.7.1-7.8.1-1.3.4-1.8 1.4-2 .5-.1.7-.1 1.1-.1.4 0 .6-.1.6-.4 0-.3-.3-.3-.8-.3-1.4 0-4 .1-4.9.1-1.1 0-3.7-.1-5.8-.1-.6 0-.8.1-.8.3 0 .3.2.4.7.4.5 0 1.2 0 1.5.1 1.2.3 1.6.7 1.7 2 .1 1.2 0 2.2 0 7.8v5.5c0 5.4 1.5 8.1 3.5 9.8 2.8 2.4 6.8 2.5 8.8 2.5 2.5 0 5.4-.4 8.1-2.7 3.2-2.7 3.7-7 3.7-11.2v-4c0-5.6 0-6.7.1-7.8.1-1.3.3-1.8 1.4-2 .5-.1.7-.1 1.1-.1s.7-.1.7-.4c-.2-.1-.5-.2-1-.2M207.8 228.1c-1.9 0-3.3.1-3.7.1-.8 0-2.9-.1-4.9-.1-.6 0-1 0-1 .3 0 .2.1.4.6.4s1.4 0 2 .2c.9.3 1.3 1 1.3 3.3l.4 16.5h-.2c-.6-.5-5.7-5.8-8.3-8.3-5.6-5.5-11.3-11.3-11.8-11.8-.7-.6-1.2-1.2-1.7-1.2-.4 0-.7.5-.7 1.3l-.3 22c0 3.2-.2 4.2-1.2 4.5-.5.1-1.2.2-1.7.2-.3 0-.6.2-.6.4 0 .3.3.4.9.4 2 0 3.8-.1 4.1-.1.7 0 2.5.1 5 .1.5 0 .9-.1.9-.4 0-.2-.2-.4-.7-.4-.6 0-1.3 0-2-.3s-1.2-1.1-1.3-4l-.4-15.1h.1c.7.7 4.8 5.1 9 9.2 4 3.9 8.8 8.5 11.2 10.7.4.4.9.8 1.6.8.3 0 .6-.3.6-1.2l.4-23.4c0-2.1.3-2.7 1.4-3.1.5-.1.8-.1 1.2-.1.4 0 .7-.2.7-.4-.1-.5-.4-.5-.9-.5M226.9 255.4c-.6 0-1.4 0-2-.1-1.1-.2-1.4-.7-1.5-1.7-.2-1.6-.2-4.5-.2-8.1v-6.5c0-5.6 0-6.7.1-7.9.1-1.3.4-1.8 1.4-2 .4-.1.7-.1 1.1-.1.4 0 .6-.1.6-.4 0-.2-.3-.3-.8-.3-1.5 0-4 .1-4.9.1-1.1 0-3.7-.1-5.1-.1-.6 0-.9.1-.9.3 0 .3.2.4.6.4.5 0 1 0 1.4.2.8.3 1.2.7 1.3 2v14.4c0 3.6 0 6.5-.2 8.1-.1 1.1-.3 1.6-1.1 1.8-.3.1-.8.1-1.4.1-.5 0-.6.2-.6.4 0 .3.3.4.7.4 1.5 0 4.1-.1 5-.1 1 0 3.7.1 6.2.1.4 0 .7-.1.7-.4.2-.4 0-.6-.4-.6M259.6 228.1c-1.2 0-3 .1-3.6.1-.5 0-2.2-.1-4.1-.1-.7 0-1.1.1-1.1.3 0 .3.3.4.7.4.5 0 1.1 0 1.5.2.4.1.5.3.5.7 0 .3-.2.9-.3 1.4-.9 2.4-5.8 14.4-7.5 18.2h-.1l-6.5-16.6c-.5-1.3-.9-2.3-.9-2.8 0-.3.1-.6.4-.7.3-.2.9-.3 1.5-.3.3 0 .6-.1.6-.4 0-.3-.4-.3-.9-.3-1.9 0-3.9.1-4.9.1-1.4 0-3.5-.1-5.6-.1-.6 0-1 0-1 .3 0 .2.1.4.4.4.3 0 .9 0 1.5.1 1.4.3 2 .7 2.8 2.7l9.7 22.7c.7 1.7 1 2.2 1.6 2.2.5 0 .9-.6 1.8-2.7.9-1.9 2.7-5.9 5.1-11.3 2.1-4.5 3.1-6.5 4.6-10 1-2.4 1.5-2.9 2-3.3.6-.5 1.5-.4 1.9-.4.4 0 .6-.1.6-.4.1-.3-.2-.4-.7-.4M281.4 250.3c-.3 0-.3.2-.4.6-.3 1.5-.7 2.3-1.7 2.7-1 .4-2.6.5-3.6.5-3.9 0-5.1-.6-5.2-3.1v-8.5c0-.2 0-.4.2-.4 1 0 5.3.1 6 .2 1.4.1 1.9.7 2.1 1.4.1.5.1 1 .1 1.4 0 .2.1.3.3.3.3 0 .4-.5.4-.8 0-.3.1-1.7.2-2.5.2-1.9.3-2.5.3-2.7 0-.2-.1-.4-.3-.4-.2 0-.3.2-.6.5-.4.4-.9.5-1.8.6-.9.1-5.8.1-6.7.1-.2 0-.3-.2-.3-.4v-9.2c0-.2.1-.4.3-.4.8 0 5.4.1 6 .2 1.9.2 2.2.7 2.5 1.4.2.4.3 1.1.3 1.4 0 .3 0 .5.3.5s.4-.4.4-.6c.1-.4.2-2.1.2-2.4.1-1.7.3-2.1.3-2.4 0-.2 0-.3-.3-.3-.2 0-.4.1-.6.2-.3 0-.9.2-1.6.2h-10.5c-1.1 0-3.5-.1-5.5-.1-.6 0-.9.1-.9.3 0 .3.3.4.7.4.6 0 1.2 0 1.5.1 1.2.3 1.6.7 1.7 2v14.3c0 3.4 0 6.3-.2 7.9-.1 1.1-.3 1.8-1.1 2-.4.1-.8.1-1.4.1-.5 0-.6.2-.6.4 0 .3.3.4.7.4.8 0 1.7 0 2.7-.1h2.2c1.1 0 2.6 0 4.4.1 1.9.1 4.2.1 7.1.1 1.4 0 1.8 0 2-1 .2-.7.5-3.3.5-4.1.3-.4.2-.9-.1-.9M301.3 242.1c-.6.5-1.2.6-2.7.6-1 0-2.1-.1-2.9-.4-.3-.1-.4-.3-.4-.7v-11c0-.3.1-.4.4-.5.4-.1 1.3-.1 2.3-.1 2.3 0 5.8 1.3 5.8 6.6 0 3.1-1.3 4.7-2.5 5.5m15.5 13.3c-.3 0-.5 0-.9-.1-.6-.1-2-.3-4.1-2.4-2.3-2.3-5-5.7-8.4-9.9 3.8-3 5.3-5.5 5.3-8.2 0-2.5-1.6-4.4-2.7-5.1-2.1-1.4-4.8-1.6-7.3-1.6-1.2 0-4.7.1-6 .1-.8 0-3.2-.1-5.2-.1-.6 0-.9.1-.9.3 0 .3.3.4.7.4.6 0 1.2 0 1.5.1 1.2.3 1.6.7 1.7 2v14.4c0 3.4 0 6.3-.2 7.9-.1 1.1-.4 1.8-1.1 2-.4.1-.8.1-1.4.1-.5 0-.6.2-.6.4 0 .3.3.4.7.4 1.5 0 4-.1 4.7-.1.6 0 3.8.1 6 .1.5 0 .8-.1.8-.4 0-.2-.2-.4-.5-.4-.5 0-1.3 0-1.9-.1-1.2-.2-1.4-.9-1.5-2-.2-1.6-.2-4.4-.2-7.9v-.5c0-.2.1-.3.3-.3l3.4.1c.3 0 .5 0 .7.3.5.6 2.1 3.1 3.6 5.1 2.1 2.9 3.6 4.6 5.2 5.5 1 .5 2.1.7 4.2.7h3.7c.5 0 .7-.1.7-.4.2-.2 0-.4-.3-.4M328.4 239.2l-1.6-.9c-3.4-1.9-4.1-3.2-4.1-4.9 0-2.5 2.5-4 5.2-4 2.5 0 3.7 1 4.3 1.7.8 1 1 2.1 1 2.4 0 .4.1.7.4.7.3 0 .5-.4.5-1.2 0-2.9.1-4 .1-4.4 0-.3-.2-.4-.5-.5-1-.3-3-.6-5.5-.6-5.3 0-9.7 2.9-9.7 7.5 0 3.3 1.5 5.8 6 8.4l2.2 1.3c3.4 2 3.8 3.6 3.8 5.2 0 2.6-2 4.7-5.3 4.7-2.4 0-5.3-.9-6.1-3.7-.2-.6-.4-1.4-.4-1.9 0-.3 0-.6-.4-.6-.3 0-.5.4-.5 1s-.2 2.9-.2 4.9c0 .8.1 1 .7 1.3 1.7.7 4 1 6.2 1 2.1 0 4.6-.2 6.4-1.5 2.8-2 3.8-4.2 3.8-6.9.3-3.4-1.3-6.2-6.3-9M353 255.4c-.6 0-1.4 0-2-.1-1.1-.2-1.4-.7-1.5-1.7-.2-1.6-.2-4.5-.2-8.1v-6.5c0-5.6 0-6.7.1-7.9.1-1.3.4-1.8 1.4-2 .4-.1.7-.1 1.1-.1.4 0 .6-.1.6-.4 0-.2-.3-.3-.8-.3-1.5 0-4 .1-4.9.1-1.1 0-3.7-.1-5.1-.1-.6 0-.9.1-.9.3 0 .3.2.4.6.4.5 0 1 0 1.4.2.8.3 1.2.7 1.3 2v14.4c0 3.6 0 6.5-.2 8.1-.1 1.1-.4 1.6-1.1 1.8-.4.1-.8.1-1.4.1-.5 0-.6.2-.6.4 0 .3.3.4.7.4 1.5 0 4.1-.1 5-.1 1 0 3.7.1 6.2.1.4 0 .7-.1.7-.4.2-.4 0-.6-.4-.6M412.4 228.1c-.7 0-3.3.1-4.1.1-1.1 0-2.5-.1-3.8-.1-.4 0-.6.1-.6.3 0 .3.4.4.7.4.7.1.8.5.8.8 0 .5-.2 1.1-.6 2-.6 1.1-5.2 9.1-5.7 9.9-.7-1-5.7-9.7-6.4-10.9-.3-.5-.5-1-.5-1.3 0-.3.2-.5.5-.6.6-.2.9-.2.9-.5s-.2-.3-.6-.3c-1.7 0-3.5.1-4.4.1-1.3 0-4.1-.1-4.8-.1-.4 0-.6.1-.7.3 0-.3-.1-.5-.3-.5-.1 0-.4.1-1 .2s-1.4.2-2.6.2h-15.6c-1.3 0-2.7 0-3.8-.2-1-.1-1.4-.4-1.7-.4-.2 0-.4.2-.4.7-.1.3-.8 3.9-.8 4.5 0 .4.1.6.4.6.3 0 .3-.2.4-.5.1-.3.3-.7.7-1.3.6-.8 1.5-1.1 3.7-1.1l5.7-.1v15c0 3.4 0 6.3-.2 7.9-.1 1.1-.4 1.8-1.1 2-.3.1-.8.1-1.4.1-.5 0-.6.2-.6.4 0 .3.3.4.7.4 1.5 0 4.1-.1 5-.1 1.1 0 3.7.1 6.2.1.4 0 .7-.1.7-.4 0-.2-.2-.4-.6-.4-.6 0-1.4 0-2-.1-1.1-.2-1.4-.9-1.5-1.9-.2-1.6-.2-4.5-.2-7.9v-15l4.8.1c3.4 0 4.4 1.2 4.5 2.1v.4c0 .6.1.7.4.7.2 0 .3-.2.3-.6 0-1 .1-3.7.1-4.5.1.2.3.2.5.2.5 0 1.1.2 1.6.5.7.4 1.5 1.3 2.5 2.6 1.4 2 6.6 10.1 6.8 10.7.5 1.1.9 1.9.9 3.9v3c0 .6 0 2.1-.1 3.7-.1 1.1-.4 1.8-1.2 2-.3.1-.8.1-1.3.1-.4 0-.6.2-.6.4 0 .3.3.4.8.4 1.4 0 4-.1 5-.1s3.6.1 6 .1c.5 0 .8-.1.8-.4 0-.2-.2-.4-.6-.4-.5 0-1.4 0-1.9-.1-1.1-.2-1.5-.9-1.6-2-.1-1.6-.1-3.1-.1-3.7v-3c0-1.2-.1-2.4.5-3.7.7-1.6 6.2-10.4 7.5-11.9.8-1 1.2-1.4 2-1.7.6-.3 1.3-.4 1.7-.4.4 0 .7-.2.7-.4.3-.2.1-.3-.4-.3"/><path class="st0" d="M375.6 212c-3.3 0-6.5-1.1-8.7-3.2-3.6-3.5-10.9-3.5-14.5 0-4.4 4.2-13 4.3-17.4 0-3.6-3.5-10.9-3.5-14.5 0-4.4 4.2-13 4.3-17.4 0-3.6-3.5-10.9-3.5-14.5 0-4.4 4.3-13 4.2-17.4 0-3.6-3.5-10.9-3.5-14.5 0-4.4 4.3-13 4.3-17.4 0-3.6-3.5-10.9-3.5-14.5 0-4.4 4.3-13 4.3-17.4 0-3.6-3.5-10.9-3.5-14.5 0-4.4 4.3-13 4.2-17.4 0-3.6-3.5-10.9-3.5-14.5 0-4.4 4.2-13 4.2-17.4 0-3.6-3.5-10.9-3.5-14.5 0-4.4 4.2-13 4.2-17.4 0-3.6-3.5-10.9-3.5-14.5 0-4.4 4.3-13 4.2-17.4 0-3.6-3.5-10.9-3.5-14.5 0-4.4 4.3-13 4.3-17.4 0-3.6-3.5-10.9-3.5-14.5 0-4.4 4.2-13 4.3-17.4 0-3.6-3.5-10.9-3.5-14.5 0l-1.5-1.5c4.4-4.3 13-4.3 17.4 0 3.6 3.5 10.9 3.5 14.5 0 4.4-4.3 13-4.3 17.4 0 3.6 3.5 10.9 3.5 14.5 0 4.4-4.3 13-4.2 17.4 0 3.6 3.5 10.9 3.5 14.5 0 4.4-4.3 13-4.3 17.4 0 3.6 3.5 10.9 3.5 14.5 0 4.4-4.3 13-4.3 17.4 0 3.6 3.5 10.9 3.5 14.5 0 4.4-4.3 13-4.3 17.4 0 3.6 3.5 10.9 3.5 14.5 0 4.4-4.3 13-4.3 17.4 0 3.6 3.5 10.9 3.5 14.5 0 4.4-4.3 13-4.3 17.4 0 3.6 3.5 10.9 3.5 14.5 0 4.4-4.3 13-4.3 17.4 0 3.6 3.5 10.9 3.5 14.5 0 4.4-4.3 13-4.3 17.4 0 3.6 3.5 10.9 3.5 14.5 0 4.4-4.3 13-4.3 17.4 0 3.6 3.5 10.9 3.5 14.5 0 4.4-4.3 13-4.3 17.4 0 3.6 3.5 10.9 3.5 14.5 0 4.4-4.2 13-4.3 17.4 0 3.6 3.5 10.9 3.5 14.5 0l1.5 1.5c-4.4 4.3-13 4.3-17.4 0-3.6-3.5-10.9-3.5-14.5 0-2.2 2.2-5.5 3.2-8.7 3.2zM182.9 30.1c9.8-6.8 18.3-6.3 18.3-6.3s-4.3 1.3-7.6 5.8c-2.1 2.8-2.3 6.9-2.3 8.4v2.5s-4.2-1.2-10-.1c-8 1.6-11.1 6.6-11.1 6.6s.7-8.6 12.7-16.9M202.5 26.2v22.8c-3.8-5.7-8.1-7.2-8.1-7.2v-3.1c0-2.6.5-5.4 1.7-7.2 2.4-3.7 6.4-5.3 6.4-5.3"/><path class="st0" d="M133.7 71.6h23.1v37.9h-23.1zM176.6 45.5c7.6-4.2 14.6-1.6 14.6-1.6v14.2h-22.9s.6-8.5 8.3-12.6"/><path class="st0" d="M171 68.9h30.9v40.5h-30.9zM194.2 58.3v-13.2c7 3.8 8.3 13.1 8.3 13.1h-8.3zM230 30.1c12 8.3 12.8 17 12.8 17s-3.1-4.9-11.1-6.6c-5.8-1.2-10 .1-10 .1v-2.5c0-1.6-.2-5.6-2.3-8.4-3.3-4.5-7.6-5.8-7.6-5.8s8.4-.6 18.2 6.2"/><path class="st0" d="M211.3 26.2s4 1.6 6.4 5.2c1.2 1.9 1.7 4.7 1.7 7.2v3.1s-4.3 1.5-8.1 7.2v-22.7zM218.8 45.1v13.1h-8.3c0 .1 1.2-9.3 8.3-13.1"/><path class="st0" d="M211.4 68.9h30.9v40.5h-30.9zM221.7 58.1v-14.2s7-2.6 14.6 1.6c7.6 4.1 8.3 12.6 8.3 12.6h-22.9zM256.3 71.6h23.1v37.9h-23.1zM206.6 0l-102.3 58.8-38.5 50.6h9.8l33.7-43.8 97.3-57.4 97.3 57.1 34.3 43.8h10.7l-40-50.3zM.2 0v109.4h57.4l42.5-55.6 94.1-53.8zM219.6 0l94.1 53.8 42.6 55.6h57.3v-109.4z"/></svg>