<svg xmlns="http://www.w3.org/2000/svg" viewBox="0 0 552 175.5" enable-background="new 0 0 552 175.5"><style type="text/css">.st0{fill:#FFFFFF;}</style><g id="eIUaFB_1_"><path class="st0" d="M552 77.9c-.9-.3-1.6.3-2.5.4-3.6.5-4.9-.2-7.2-4.2-1.8 1.2-3.4 2.6-5.4 3.4-2.8 1.1-5.5 1.3-8.3.2-3.5-1.4-5.5-4-5.5-7.8 0-4.3 2.2-7.2 6-9 3.3-1.6 7-1.9 10.6-1.9 1.5 0 1.9-.4 2-1.9.4-6.6-2.3-7.9-8.6-7.1-2.4.3-4.6 1.3-7.2 2.5v-4.1c0-.7.5-.9 1-1.1 4.2-1.5 8.5-2.4 12.9-1.7 4.6.7 7.2 3.2 7.4 7.9.3 5.1.2 10.2.2 15.3 0 4.3 0 4.3 4 5.8l.5.4c.1.9.1 1.9.1 2.9zm-10.3-11.1v-3.2c0-.6-.1-1.2-.8-1.2-3.7 0-7.3.2-10.2 2.8-1.5 1.4-2 3.1-1.4 5 .7 2 2.2 3.2 4.2 3.4 2.8.3 5.3-.9 7.4-2.6 1.5-1.2.4-3 .8-4.2zM33 134.6c-.6-4-1.1-7.5-1.7-11-.2-1.3-.8-3 .1-3.6 1-.7 2.3.7 3.4 1.2 3.5 1.6 6.8 3.5 9.8 6 4.6 3.9 4.2 7.5-1.1 10.5-5.1 2.9-10.7 4.4-16.4 5.8-2.2.6-4.5.9-6.6 1.5-1.3.3-1.9 0-2.6-1.1-6.9-10.6-11.6-22.1-14.5-34.4-2.4-10.4-4-20.9-3.2-31.6.6-8 1.8-15.9 2.9-23.9l4.5-34.2c.2-1.3.2-2.6.5-3.8 1.4-6.5-1.4-11.2-6.3-15.1-.4-.2-.7-.4-1.3-.9h152.7c-1.3 1.2-2.6 2.2-3.7 3.4-3.2 3.6-4.4 7.7-3.7 12.6 2.4 17.3 4.4 34.6 7 51.9 2.9 19.1-.1 37.4-6.3 55.4-.1.3-.3.6-.9 1 0-2 .1-4.1 0-6.1-.7-15.3-4.8-29.5-13.8-42.1-10-14-23.8-22-40.6-25-13.2-2.3-26.3-2.2-39.2 1.7-8 2.5-15.2 6.5-19.9 13.8-1.7 2.5-3.5 4.7-5.9 6.5-1.8 1.3-11.5 13.9-12.3 15.9-4.2 10.1-2.9 20 1.8 29.6 2.3 4.6 5.6 8.3 10 11.1 2.3 1.4 4.5 3 7.3 4.9zm40.8-103.4v-2.6c0-3.1.4-2.6-2.9-2.8-1.8-.1-2.6.4-2.3 2.3.1.8 0 1.6 0 2.3 0 3.8-.8 4.5-4.6 3.4-1.3-.4-2.5-1-3.5-2-2.8-3-3.4-9-1.1-13 1.8-3.2 4.8-4.3 9.7-3.4.7.1 1.4.3 2.1.5 2.8.8 2.7.8 2.6-2.1 0-1.2-.7-1.4-1.5-1.6-2.1-.4-4.2-.6-6.3-.6-8.3-.1-12.6 3.7-13.3 11.9-.5 5.9 2.1 12 8.2 13.5 2.5.6 5 .8 7.6.5 5.4-.7 5.4-.7 5.4-6-.1-.1-.1-.2-.1-.3zm-34.9-19.5c-1.9 0-3.7.2-5.4 1-4 2-4.8 7.3-1.7 10.4 1.9 2 4.4 3 6.7 4.4 1.5.9 3.1 2 2.5 4.2-.6 2.3-2.5 2.4-4.4 2.5-1.9 0-3.6-.5-5.4-1.1-.4-.1-.8-.5-1.1-.1-.8.9.1 4 1.3 4.2 3 .6 6 .9 9.1.3 3.2-.7 5.4-2.4 6.1-5.7.7-3.2-.6-5.6-3.2-7.3-2-1.3-4.1-2.5-6.2-3.7-1.2-.8-2.4-1.7-1.9-3.4s2-2 3.6-2c1.7 0 3.3.5 5 1 .4.1.9.5 1.2-.3.7-1.8-.2-3.5-2.2-3.8-1.3-.3-2.7-.4-4-.6zm52.4.1c-1.7-.1-3.1 0-4.5.5-5 1.7-6.2 7.9-2.3 11.3 1.2 1 2.5 1.8 3.9 2.6l3.6 2.2c1.3.8 1.7 2.1 1.3 3.5-.4 1.4-1.5 2-2.9 2.2-2.2.2-4.2-.1-6.3-.8-.5-.2-1.7-1.2-1.8 0-.1 1.2-1.3 3.2 1 3.7 2.8.7 5.7 1 8.6.5 3.3-.5 5.9-2 6.8-5.5.8-3.5-.4-5.9-3.9-8.2-2-1.3-4.1-2.5-6.2-3.8-.9-.6-1.5-1.5-1.3-2.5.2-1.1 1-1.8 2.1-2.1 1.8-.6 3.5 0 5.2.4 2.6.7 2.8.5 2.5-2.2-.1-1-.6-1.3-1.5-1.4-1.3-.1-2.9-.5-4.3-.4zm35 20.7l-4.5 1.3c-4.6 1-8.3-.4-10.1-3.8-2-3.8-1.3-10.1 1.4-12.8.8-.8 1.8-1.3 2.9-1.6 3-.7 5.8-.1 8.6.8.5.1 1 .7 1.5-.1.8-1.5-.2-3.7-1.9-4-2.7-.5-5.5-.7-8.3-.4-4.7.4-8.2 2.5-10 7.1-1.5 4.1-1.5 8.2.3 12.2 1.5 3.5 4.3 5.5 8.1 6.3 2.9.6 5.8.4 8.7-.2 3.6-.7 3.7-.9 3.3-4.8zM54.7 93.5c-.8-.8-1.6-.9-2.3-1.1-3.4-1.1-7-1.9-10.1-3.8-1.4-.9-2.8-1.1-4.2-.6-1.6.5-3.3.8-4.7 1.8-.3.2-1 .9-1.4.2-.3-.5.1-1 .6-1.5 1.3-1.3 2.8-2.5 4.6-3 1.7-.5 1.4-1.1.4-2.2-3-3.3-8.1-4-12.5-1.6-.1-1.8 1.3-2.8 2.3-3.9 1.6-1.6 3.3-3.1 5.4-4 1.9-.7 3.6-.4 5.2 1l4.2 3.6c1.2 1 2.7 1.8 3 3.5.8 4.6 4.1 6.2 8 7.1 2.4.6 4.9.6 7.3 1.4 4.2 1.5 8.4 3.1 12.7 4.2.8.2 1.6.5 2.6 0-1.8-1.4-3.9-1.6-5.6-2.5-3.7-1.9-7.5-3.6-11.3-5.3-1.2-.6-3.4-.7-3.4-1.9 0-1.3 1.9-2.1 3.1-3 .8-.7 1.3-.7 1.8.5 2.4 5 7.2 7.3 12.1 5.9 5.1-1.5 8-5.8 7.3-11.4-.2-1.5.3-1.8 1.6-1.9 11.7-.8 22.7 1.2 33 6.9.8.4 1.4 1.1 2.6 1.1-.3-1.6-1.4-2.4-2.3-3.3-4.6-4.3-9.8-7.7-15.7-10-16.3-6.3-32.2-7.1-47.1 3.8-2.5 1.8-5.3 2.2-8.3 1.4-3.2-.9-3.4-1.3-1.8-4.1 1.7-2.9 3.5-5.7 5.9-8.1-4.1 1.6-7.4 4.1-10 7.6-.9 1.2-1.9 2.1-3.4 2.2 1.2-3.9 3.9-6.7 7-9.1 6.3-4.9 13.6-7.1 21.3-8.3 5.6-.9 11.3-1 16.9-.8 14.5.7 27.9 4.5 39.3 14 10.3 8.6 16.4 19.8 20 32.6 2.5 9.1 3.3 18.3 2.4 27.6-1 10.8-5.2 20.5-12.3 28.8-2.1 2.4-4.3 4.6-7.4 5.8 1.9-2.4 3-5.3 4.7-7.8 1.6-2.3 3-4.8 3.2-7.7v.1l.5-1.2c.1-.5.2-1 .3-1.4 1.7-5 2.5-10 1.9-15.2-1.7-14-14.2-23.4-23.7-26.1-.3-.1-.7-.5-1 0-.3.5.1.7.5 1 2.2 1.7 4 3.8 5.7 6 6.5 8.5 9.6 17.8 6.8 28.5-1.8 6.7-5.2 12.7-8.8 18.6-1.1 1.8-2.3 3.7-4.3 4.9-.7-1-1.1-.1-1.5.3-7.6 6.9-16.7 10.3-26.7 12-6 1-12 .9-18 .8-2.1 0-4.1-.5-6.2-1.2l10.6-6.3c2.5-1.5 5-2.9 7-5 .2-.2.3-.5.5-.6 3.4-1.9 6.1-4.6 8.6-7.6 6.2-7.6 8.4-16 4.6-25.4-4-9.9-11.6-16-21.8-19.1-8-2.5-16.3-3.2-24.6-3.6-.8 0-1.8.5-2.2-.6-.4-1.1 0-2.1.7-2.9 1.4-1.6 3-2.8 4.8-3.8 3.1-2.4 9.5-5.7 11.6-6.3zM49.4 96.9c.8.3 1.5-.6 2.5-.1-3 1.3-5.9 2.8-8.5 4.5-1.5 1-2.9 2.1-4 3.5-.6.8-.9 1.7-.6 2.7.3 1 1.2.5 1.9.6 7 .3 13.9 1 20.6 3.3 8.5 2.9 14.8 8.4 18.2 17.5 3.2 8.6 1.4 16.3-3.8 23.3-2 2.7-4.3 5.2-7.2 6.9-.2.1-.3.4-.4.6-.9.1-1.6.7-2.4 1.2-5.8 3.2-11.8 5.8-18.4 4.9-7.2-1-13.2-4.4-17.7-10.8l-.5-1c3.6 1.3 6.9 2.6 10.4 3.3 3.7.8 7.4 1.3 11.1.3 1.5-.4 3.1-1 4-3.2-10.9 1.3-21-.2-30.3-7.2 6.4-.6 12.4-2.1 18.1-4.9 2.4-1.2 4.7-2.6 6.4-4.8 3-3.6 3.1-7.7.2-11.4-2.6-3.4-6-5.5-9.5-7.4-2.3-1.3-4.7-2.6-7.1-3.7-1.1-.5-1.2-1.1-.8-2.2 2.3-7 6.8-11.6 13.2-14.1 1.4-.8 3-1.3 4.6-1.8zM73.2 76.3c-.3-.1-.6-.1-.8-.2-1.3-.6-2.4-.3-3.2.8-.6.9-.6 1.9 0 2.8.8 1.1 1.9 1.4 3.2.8 0 1.8-1.3 2.5-2.7 2.8-3.4.9-5.1-1.3-6.2-4.2-.6.9-.3 1.4-.1 1.9 1.2 3 4.3 4.7 7.6 4.1 3.1-.6 5.4-3.4 5.4-6.7-.1-2.6-.7-3-3.2-2.1zM498.1 71.2c-.4.5-.7.8-.9 1.1-4.5 6.6-16.9 6.8-20.4-3-2.1-5.9-2.1-11.7.9-17.3 3.8-7.3 13.2-9.1 19.6-3.9l.8.6c.7-.9-.3-2.5.8-2.8 1.5-.4 3.2-.1 4.9-.1.6 0 .6.5.6 1-.2 10.6.7 21.2-.6 31.7-.9 7-5 10.6-12.1 11.2-3.8.3-7.5 0-11.2-.8-1.7-.4-2.5-1-2.1-3 .5-2.8.3-2.8 2.9-1.9 2.8 1 5.6 1.5 8.5 1.4 4.9-.2 7.7-2.5 8.5-7.3.1-2.1-.2-4.4-.2-6.9zm.2-11.1v-5.3c0-.6.1-1.1-.4-1.6-2.6-2.5-5.6-3.9-9.2-3.4-3.2.5-5.1 2.6-6.2 5.5-1.3 3.6-1.3 7.2-.4 10.9.4 1.8 1.2 3.6 2.9 4.6 3 1.8 6 1.3 8.9-.4 2.5-1.5 5-3 4.5-6.7-.2-1.1-.1-2.4-.1-3.6zM497.7 130.1c-3.4 5.2-7.8 7-13.3 6-4.2-.8-6.7-3.5-8.2-7.3-2.3-6-2.2-12 1-17.7 4-7.2 13.3-8.8 19.5-3.4l.8.6c.5-.5.3-1 .3-1.5-.2-1.4.4-1.6 1.7-1.6 4 0 4-.1 4 3.8 0 8.2 0 16.3-.1 24.5 0 1.8-.2 3.5-.5 5.3-1.1 6-4.8 9.3-11.2 10.2-4.3.6-8.5.1-12.7-.9-1.4-.3-1.9-1.1-1.5-2.4.1-.4.3-.8.2-1.2-.1-2.1.8-1.9 2.3-1.2 3 1.3 6.1 1.7 9.4 1.5 4.6-.2 7.4-2.8 8.1-7.3.3-2.2.4-4.5.2-7.4zm.1-10.6v-5.1c0-.6.1-1.1-.3-1.6-3.9-4.3-11.7-5.8-14.9.5-2.4 4.7-2.4 9.7-.2 14.6.5 1.2 1.4 2.2 2.6 2.7 3.1 1.3 6.1.7 8.9-1.1 2.4-1.6 4.6-3.3 4-6.8-.3-1.1-.1-2.2-.1-3.2zM385.5 67.9v7.2c0 .7.1 1.4-.9 1.7-7.4 2.2-14.9 3-22.4.5-4-1.4-6.9-4.2-8.8-8-3.9-7.9-4.2-16.2-.9-24.3 2.7-6.9 8.1-10.6 15.4-11.4 5.3-.5 10.6.1 15.8 1.3 1.7.4 1.5 1.5 1.5 2.7 0 3.5 0 3.5-3.2 2.4-4-1.3-8.1-2.2-12.3-1.8-4.2.4-7.5 2.2-9.7 6-4.2 7.2-3.9 18.4.6 24.5 3.6 4.9 12.3 7 17.8 4.6.9-.4.8-1 .8-1.7 0-3.6.1-7.2 0-10.9 0-1.4.4-1.6 1.7-1.7 4.5 0 4.5-.1 4.5 4.4.1 1.5.1 3 .1 4.5zM309.5 51.3c2.1-2.1 3.8-3.8 5.9-4.8 5.5-2.8 14-1.3 14.2 7.8.2 7.3.1 14.6.1 21.9 0 1.1-.4 1.4-1.5 1.5-4.4.2-4.4.3-4.4-4.1v-16.2c0-1.1-.1-2.3-.3-3.4-.4-2.6-2.4-4.1-5-3.7-4.2.6-6.8 3.3-8.9 6.7-.4.6-.2 1.4-.2 2.1v16.6c0 1.4-.2 2-1.8 2-4.1 0-4.1 0-4.1-4v-40c0-1.7.5-2.2 2.2-2.1 3.7.1 3.7 0 3.7 3.7.1 5.1.1 10.2.1 16zM379.8 129.5v4.5c0 .8-.5 1.1-1.1 1.4-7.5 3.3-15.1 3.8-22.7 1-5.1-1.9-8-6.1-9.7-11-2.2-6.5-2.3-13.1 0-19.6 2.8-8 8.6-12.2 17-12.9 5.1-.4 10 .4 15 1.4 1 .2 1.4.6 1.4 1.7.2 4.5.2 4.6-4 3.2-4.5-1.4-9.1-2.4-13.8-1.3-3.3.7-5.9 2.5-7.5 5.5-3.7 6.7-4.2 13.8-1.4 20.9 2.6 6.7 8.9 9.9 16.2 8.8 3.6-.5 7-1.8 10.6-3.6zM212.6 138.1c-3 .2-6-.6-9.1-1.3-1.3-.3-1.6-.9-1.6-2.2 0-4.4 0-4.5 4.1-2.8 2.9 1.2 6 1.8 9.1 1.6 3.2-.2 5.7-2.1 6.6-4.8.9-2.9 0-5.8-2.7-7.6-3-2.1-6.3-3.9-9.4-5.8-1-.6-2-1.3-2.9-2.1-4.1-3.5-5.4-7.7-3.8-12.3 1.6-4.6 5.7-7.6 10.8-7.9 3.5-.1 6.9.3 10.3 1.1 1.5.3 1.8 1 1.8 2.3 0 3.9 0 3.9-3.6 2.6-2.4-.9-4.9-1.5-7.5-1.3-2.9.2-5.4 1.8-6.2 4.3-.7 2.3.2 4.9 2.7 6.6 2.2 1.5 4.6 2.8 6.9 4.2 1.8 1.1 3.6 2.2 5.4 3.5 4.1 3.1 5.8 7.1 4.7 12.1-1.1 5.1-4.6 8.1-9.6 9.4-2 .4-3.9.4-6 .4zM199.3 33.5c2.8-.2 5.5.4 8.2 1 1.3.3 1.8.9 1.8 2.3-.1 3.9 0 4-3.7 2.6-2.6-1-5.2-1.4-7.9-1.2-2.8.2-4.7 1.7-5.6 4.2-.9 2.4.2 4.3 1.9 5.9 2.2 2.1 5.1 3.4 7.7 4.9 2.1 1.3 4.3 2.5 6.2 4.1 6.5 5.6 5.2 16-2.6 19.7-4.8 2.3-9.8 1.9-14.8 1-.2 0-.4-.1-.6-.2-4.4-1-4.4-1-4.3-5.6 0-1.6.5-1.6 1.7-1 3.4 1.6 7 2.8 10.8 2.7 3.6-.1 6.4-1.9 7.3-4.8 1-3-.1-6-3.2-8.1-2.3-1.6-4.8-3-7.3-4.4-2.2-1.3-4.4-2.7-6.1-4.6-3.1-3.4-3.8-7.3-2.1-11.5 1.7-4.3 5.1-6.7 9.7-7.2.9.1 1.9.2 2.9.2zM435.8 78.4c-8.9 0-14.6-5.7-15.1-15-.1-2.1 0-4.1.4-6.1 1.3-6.3 5.2-10.7 10.9-11.6 6.2-1 12-.3 15.9 5.5 4.2 6.1 4 16.3-.4 22.1-2.9 3.8-7 5.2-11.7 5.1zm-8.9-16.7c0 2.7.3 5.4 1.5 7.8 1.6 3.1 4.2 4.6 7.6 4.5 3.3-.1 5.9-1.7 7.2-4.7 2.1-5 2.1-10.1-.1-15-1.4-3-3.9-4.5-7.3-4.5s-5.8 1.4-7.4 4.4c-1.2 2.2-1.5 4.8-1.5 7.5zM214.8 61.8c-.1-2.2.2-4.3.9-6.3 1.6-5.1 4.8-8.7 10.2-9.8 5.6-1 11-.6 15.1 4 5.3 6 5.5 17.7.4 23.8-4.3 5.2-10.1 5.7-16.1 4.3-5.9-1.3-8.7-5.8-10-11.3-.5-1.5-.6-3.2-.5-4.7zm24 0c-.1-2-.2-4.1-.9-6.1-1.5-4.1-4.3-6.2-8.5-6-3.8.1-6.7 2.4-7.8 6.4-1.1 3.8-1 7.7 0 11.6 1 3.8 4.1 6.2 7.8 6.4 3.9.2 6.8-1.9 8.3-5.7.9-2.2 1-4.4 1.1-6.6zM383.1 121.1c-.1-1.9.1-3.8.6-5.7 2-7.6 7.4-11.2 16.1-10.8 7 .3 11.9 5.1 13.2 12.7.6 3.8.3 7.5-1 11.1-2.3 6.3-7.7 9.7-14.7 9.3-7.4-.5-12.1-4.3-13.8-11.4-.3-1.6-.5-3.4-.4-5.2zm24 0c0-2.2-.2-4.4-1-6.5-1.4-3.7-4.2-5.7-7.9-5.7s-6.6 1.9-7.9 5.6c-1.6 4.5-1.5 9.1.2 13.5 1.3 3.4 4.2 5.2 7.8 5.2 3.6 0 6.3-1.9 7.7-5.3.8-2.1 1.1-4.4 1.1-6.8zM269.2 133.4c-2.5 2-5 3.8-8.1 4.3-4.6.7-9.2-1.6-10.5-5.4-1.5-4.4.3-9.1 4.5-11.5 3.4-1.9 7.1-2.6 10.9-2.4 2.3.1 2.9-.7 2.6-2.7-.1-.4 0-.9 0-1.3 0-3.5-1.6-5.2-5.2-5.3-3-.1-5.8.6-8.4 1.9-1.5.7-2 .8-2.2-1.3-.2-2.4.8-3.2 2.9-3.7 4.2-1.1 8.3-1.9 12.6-.7 3.5.9 5.7 3.1 6 6.8.4 4.9.1 9.8.2 14.7 0 1.3 0 2.6.1 3.8.1 1.8.9 3.1 2.8 3.1 1.4 0 1.4.8 1.5 1.8.1 1.1-.2 1.7-1.3 2-4 1.1-6.2 0-8.4-4.1zm-.7-7.2v-3.4c0-.5 0-1-.7-1.1-3.9-.1-7.7.2-10.6 3.2-1.3 1.3-1.6 3-.9 4.7.6 1.7 1.9 2.9 3.7 3.2 2.9.5 5.4-.7 7.7-2.3 1.6-1.2.4-3 .8-4.3zM406.7 62.8c-2.8 0-5.5.1-8.3 0-1.5-.1-1.8.5-1.6 1.9 1 6.4 5.9 10 12.5 9.3 2.1-.2 4.1-.7 6-1.4 1.1-.4 1.5-.2 1.5 1 .1 3.2.1 3.2-2.9 3.9-4.1 1-8.3 1.5-12.4.3-6.9-2-11.6-9.6-10.9-17.4.3-3.5 1.3-6.8 3.3-9.8 4.6-6.8 15-7.4 20-1 2.8 3.6 3 7.8 3 12.1 0 1.1-.7 1-1.5 1-2.9.1-5.8.1-8.7.1zm-2.9-4.5h5.8c.7 0 1.3 0 1.4-1 .4-5-3.8-8.7-8.7-7.4-2.9.7-5.6 4.7-5.4 7.7.1.9.6.8 1.2.8 1.9-.1 3.8-.1 5.7-.1zM460.7 122.2h-8.3c-1.3 0-1.9.1-1.6 1.7 1.3 7 6.4 10.6 13.7 9.2 1.5-.3 3-.7 4.5-1.2 1.2-.4 1.8-.4 1.8 1.1 0 3 .1 3-2.9 3.7-3.8.9-7.5 1.4-11.4.5-7.9-1.9-12.9-9.8-11.9-18.5.3-2.6 1.1-5.1 2.4-7.5 2.8-5.2 8.2-7.7 14.2-6.6 4.9.9 8.5 5.1 9.3 10.9.2 1.7.4 3.4.4 5.1 0 1.1-.4 1.5-1.5 1.5l-8.7.1zm-2.9-4.4h6c.7 0 1.3 0 1.2-1-.1-2.7-.6-5.3-3.2-6.8-2.4-1.4-4.9-1.4-7.3 0-2.5 1.5-3.3 4.1-3.6 6.9-.1 1 .7.8 1.3.8 1.9.1 3.8.1 5.6.1zM524.8 122.2c-2.8 0-5.7.1-8.5 0-1.5-.1-1.6.5-1.5 1.8.8 6.6 6.4 10.5 13.5 9.3 1.7-.3 3.4-.8 5.1-1.4 1.1-.3 1.3-.1 1.4 1 .2 3.3.2 3.3-3 4-3.7.9-7.4 1.4-11.2.5-7.6-1.8-12.6-9.1-12-17.6.3-3.4 1.2-6.5 3-9.4 3-4.7 8.9-6.9 14.3-5.4 4.1 1.1 6.6 3.9 7.9 7.9.8 2.5 1 5.1 1 7.8 0 1.2-.4 1.6-1.6 1.6-2.7-.2-5.5-.1-8.4-.1zm-2.9-4.4h5.9c.6 0 1.1.1 1.2-.8.5-3.3-1.8-6.9-4.9-7.7-4.7-1.3-9.4 2.6-9.2 7.6 0 1 .7.9 1.3.9h5.7zM315.3 122.2h-8.7c-1.1 0-1.4.3-1.2 1.5 1.3 7.8 7 11.2 15.6 9.2l1.4-.4c.9-.1 2.2-1.3 2.6-.5.5 1 .2 2.5.2 3.7 0 .7-.7.6-1.1.8-3.9 1.1-7.9 1.8-12 1.2-6.5-.9-11.6-6.4-12.8-13.8-.7-4.9.3-9.5 3.1-13.6 3-4.4 8.3-6.4 13.6-5.3 4.8 1 8.1 5 9.1 10.6 1.1 6.7 1.1 6.7-5.6 6.7-1.4-.1-2.8-.1-4.2-.1zm-2.8-4.4h6c.7 0 1.2-.1 1.2-1-.2-2.3-.5-4.5-2.4-6.2-2.1-1.8-5.4-2.1-8-.7-2 1.1-4 5.1-3.7 7 .1.8.6.8 1.2.8 1.9.1 3.8.1 5.7.1zM270.3 72.6c-.9.3-1.3 1.3-1.9 1.9-2 2-4.4 3.4-7.2 3.8-6.3.9-10.7-2.8-10.8-9.2-.1-7.2 0-14.3 0-21.5 0-1.3.3-1.7 1.7-1.7 4.2 0 4.2-.1 4.2 4v17.5c0 5.4 3.3 7.5 8.1 5 3.8-2 6.6-4.7 6.3-9.6-.3-5 0-10.1-.1-15.1 0-1.4.4-1.8 1.8-1.8 3.9 0 3.9 0 3.9 3.9v26c0 1.6-.5 2-2 2-3.7-.1-3.6 0-3.7-3.7-.1-.6.2-1.1-.3-1.5zM233.9 120.3c0-2.9-.1-5.8 0-8.7 0-1.4-.4-2-1.8-1.8-1.8.3-2.3-.4-2.3-2.2 0-1.8.4-2.7 2.4-2.4 1.5.3 1.7-.5 1.7-1.8 0-4.2.2-4.3 4.5-4.3 1 0 1.3.3 1.4 1.3.1 1.5-.7 3.5.4 4.5 1.2.9 3.1.2 4.8.3h1.9c.9-.1 1.2.4 1.2 1.3.2 3.3.3 3.3-3 3.3-5.3 0-5.3 0-5.3 5.3 0 4-.1 8.1 0 12.1.1 4.8 1.7 6.3 6.6 6.1.6 0 1.6-.5 1.5.8-.1 1.1.8 2.5-.8 3.2-5.9 2.7-12.8-1.3-13.1-7.8-.2-3.1-.1-6.2-.1-9.2zM282.8 120c0-2.8-.1-5.5 0-8.3 0-1.4-.3-2.2-1.9-1.9-1.8.3-2.2-.6-2.2-2.3 0-1.6.2-2.6 2.2-2.3 1.5.3 1.9-.4 1.9-1.9 0-4.1.3-4.3 4.6-4.2.9 0 1.3.3 1.2 1.2v.2c.1 1.5-.7 3.4.3 4.3 1.1 1.1 3.1.2 4.7.4h.9c2.2 0 3.4 2 2.4 4-.3.7-.9.5-1.5.5h-5.3c-1 0-1.6.2-1.5 1.4.1 5.5-.1 11.1.1 16.6.1 4.3 2 5.8 6.5 5.5.6 0 1.6-.8 1.5.6-.1 1.1.9 2.8-.8 3.3-5.3 1.7-12.4.1-12.9-7.4-.2-3.2 0-6.5 0-9.8-.1.1-.2.1-.2.1zM284.8 60.9c0-2.9-.1-5.8 0-8.7 0-1.4-.5-1.9-1.8-1.8-.7 0-1.8.5-2-.5-.2-1.2-.3-2.4 0-3.6.2-.7 1.3-.4 1.9-.3 1.3.1 1.9-.2 1.9-1.7 0-4 .1-3.9 4.1-4.4 1.7-.2 1.8.4 1.8 1.7 0 4.4 0 4.4 4.4 4.4h.9c2.9 0 3.4.7 2.9 3.6-.2.9-.7.9-1.4.9-1.8 0-3.5.1-5.3 0-1.1 0-1.5.3-1.5 1.4 0 5.7 0 11.5.1 17.2.1 3.6 2.5 5.3 6.4 4.9.5-.1 1.6-.9 1.6.4 0 1.2 1 2.8-.8 3.5-6.7 2.7-13.1-1.7-13.1-8.9-.2-2.7-.1-5.4-.1-8.1zM424.9 114.1v20.9c0 1.5-.3 2.2-2 2.1-4-.1-4 0-4-4.1v-40c0-1.7.5-2.1 2.1-2.1 3.8.1 3.8 0 3.8 3.8.1 6.5.1 13 .1 19.4zM433 113.9v-20.9c0-1.5.2-2.1 1.9-2.1 4 .1 4 0 4 4v39.6c0 1.9-.3 2.6-2.4 2.5-3.5-.2-3.5 0-3.5-3.6v-19.5zM462.6 51.2c2.5-3.7 5.4-5.9 9.5-6 1.5 0 2.4.2 2.1 2-.1.6-.1 1.3 0 1.9.1 1.2-.3 1.6-1.6 1.4-4.3-.4-8.1 2-9.9 5.9-.3.7-.2 1.4-.2 2.1v17.2c0 1.4-.2 2-1.8 2-4.1 0-4.1.1-4.1-4.1v-25.8c0-1.4.2-2 1.8-2 4.1 0 4.1 0 4.1 4.1 0 .3 0 .6.1 1.3zM511.9 61.9v-14.3c0-1.4.4-1.8 1.8-1.8 4 0 4 0 4 4v25.7c0 1.7-.5 2.2-2.1 2.1-3.7-.1-3.7 0-3.7-3.7v-12zM517.7 37.5c0 2.8 0 2.8-3.2 2.9-1.6 0-2.8.1-2.6-2.2.2-3.7.1-3.8 3-3.7 3.1 0 2.7-.5 2.8 3zM27 124.6c.2.2.2.3 0 .5 0 0-.2-.2-.3-.2l.3-.3zM129.1 147.4c0-.4.1-.9.5-1.2-.2.4-.4.8-.5 1.2zM73.2 76.3c2.5-.9 3-.5 3.1 2.1 0 3.3-2.2 6.1-5.4 6.7-3.2.6-6.4-1.1-7.6-4.1-.2-.5-.5-1 .1-1.9 1.1 2.9 2.8 5.1 6.2 4.2 1.3-.4 2.7-1 2.7-2.8 2-1.1 1.4-2.7.9-4.2zM73.2 76.3c.5 1.6 1 3.1-.9 4.2-1.3.6-2.4.3-3.2-.8-.6-.9-.6-1.9 0-2.8.8-1.1 1.9-1.4 3.2-.8.4.1.7.1.9.2z"/></g></svg>