<svg id="Layer_1" data-name="Layer 1" xmlns="http://www.w3.org/2000/svg" viewBox="0 0 34.42 36.52"><defs><style>.cls-1{fill:#fff;}</style></defs><title>university-of-west-georgia</title><path class="cls-1" d="M9.05,6.15c-.45,0-.73.18-.73.83V9.37c0,.65.29.83.73.83s.73-.18.73-.83V6.93c0-.65-.28-.83-.73-.83" transform="translate(0 0.07)"/><path class="cls-1" d="M32.05,3.55A29.91,29.91,0,0,1,17.24-.07,27.67,27.67,0,0,1,2.56,3.45S.06,8.2.06,12.71h34.3a22.3,22.3,0,0,0-2.3-9.16M4.85,10.2c.42,0,.68-.31.68-.81V9H4.75V8.1H6.66v3H6.07l-.17-.49a1.36,1.36,0,0,1-1.05.57c-1.09,0-1.85-.52-1.85-2v-2c0-1.45.76-2,1.85-2s1.77.66,1.81,2H5.54c0-.76-.28-1-.68-1s-.73.18-.73.83V9.37c0,.65.28.83.73.83m6.06-1c0,1.45-.77,2-1.85,2s-1.86-.52-1.86-2V7.13c0-1.45.77-2,1.86-2s1.85.52,1.85,2Zm7.32,1.89h-1.1l-.82-4-.89,4H14.34L13.11,5.24h1l.79,3.84.81-3.84h1.08l.81,3.84.86-3.84h1.05Zm4.82,0H19.89V5.24H23v1H21V7.58h1.5v1H21v1.55h2Zm2.26.08A1.9,1.9,0,0,1,23.4,9.52l1.06-.21c.13.71.54,1,.87,1A.65.65,0,0,0,26,9.68V9.61c0-1.11-2.51-1.12-2.51-2.77A1.55,1.55,0,0,1,25,5.19a1.82,1.82,0,0,1,.33,0,1.75,1.75,0,0,1,1.81,1.42l-1,.29c-.19-.55-.43-.79-.82-.79a.58.58,0,0,0-.62.54v.1c0,.89,2.51,1,2.51,2.79a1.65,1.65,0,0,1-1.6,1.7l-.27,0m5.92-5H29.92v4.88H28.8V6.23H27.46v-1H31.2Z" transform="translate(0 0.07)"/><path class="cls-1" d="M34.39,13.7H0C-.54,33.37,17.2,36.45,17.2,36.45c18.85-4,17.18-22.76,17.18-22.76M6.69,26.93a5.19,5.19,0,0,1-3.7-4,39.72,39.72,0,0,1-.67-8.29H4.56a47.77,47.77,0,0,0,.52,8.86,1.67,1.67,0,0,0,1.31,1.56c.75.17,1-.21.94-1.11a60.15,60.15,0,0,1-.39-9.3H9.19a81.79,81.79,0,0,0,.27,9.65c.18,2.2-.85,3.22-2.77,2.68M19,33.49c-.37-4-1-8.19-1.65-12.35-.63,4.16-1.24,8.34-1.68,12.41a15.19,15.19,0,0,1-2-.19c-1.28-6.27-2.72-12.62-3.57-18.59h2.58c.49,3.9,1.16,7.91,1.8,11.93.47-4,1.09-8,1.69-11.93h2.33c.67,4,1.31,8,1.75,11.88.65-4,1.26-8,1.65-11.88h2.6c-.74,5.91-2.13,12.16-3.5,18.46-.66.12-1.33.21-2,.27m4.72-5.61h-.27v.77h-.19v-.77H23v-.16h.73Zm1,.77h-.17v-.73l-.18.73h-.18L24,27.93v.73H23.8v-.92h.28l.17.63.17-.63h.28Zm6.77-11v.71l-2.08.21c.07-1.75-.36-2.18-1.24-2.16-.54,0-1,.34-1,1.37a55.76,55.76,0,0,1-.42,6.33c-.1.79.08,1.25.81,1.09s1.22-.74,1.4-1.91l.15-1.14-1.37.23q.09-.83.15-1.65c1.19-.15,2.37-.32,3.54-.52a45,45,0,0,1-1,5.64l-1,.34c-.06-.24-.12-.49-.19-.74A4.2,4.2,0,0,1,27,27.09c-1.6.44-2.55-.61-2.37-2.65.2-2.19.31-4.39.32-6.57a3,3,0,0,1,2.74-3.24,4,4,0,0,1,.49,0c2.25,0,3.45,1.39,3.36,3" transform="translate(0 0.07)"/></svg>