<svg id="institutions" xmlns="http://www.w3.org/2000/svg" viewBox="0 0 206.84 159.1"><defs><style>.cls-1{fill:#fff;}</style></defs><title>university-georgia</title><path class="cls-1" d="M135.38.5V69.29c0,13.12-16.42,22.36-32.3,25-15.88-2.69-32.3-11.93-32.3-25V.5Z" transform="translate(-1.58 -0.5)"/><path class="cls-1" d="M114.2,16.66a17.13,17.13,0,0,0-28,9.49h33.54A17.18,17.18,0,0,0,114.2,16.66Zm-14,12.88H86.82a1.25,1.25,0,0,0-1.06,1.17V57.84a1.68,1.68,0,0,0,.9,1.48.29.29,0,0,1,.15.25v7l2.1-2h11.26v-5a.29.29,0,0,1,.15-.25,1.68,1.68,0,0,0,.9-1.48V30.77a1.24,1.24,0,0,0-1.07-1.23Zm19,0H105.79a1.25,1.25,0,0,0-1.06,1.17V57.84a1.68,1.68,0,0,0,.9,1.48.29.29,0,0,1,.15.25v7l2.1-2h11.26v-5a.29.29,0,0,1,.15-.25,1.68,1.68,0,0,0,.9-1.48V30.77A1.24,1.24,0,0,0,119.12,29.54Z" transform="translate(-1.58 -0.5)"/><path class="cls-1" d="M82.66,83.34a52.6,52.6,0,0,0,20.43,8,52.6,52.6,0,0,0,20.43-8c4.09-2.88,9-7.65,9-14V67.74h-7.71v5.52a.29.29,0,0,1-.28.28h-5a.29.29,0,0,1-.28-.28V67.74H105.79v5.52a.29.29,0,0,1-.28.28h-5a.29.29,0,0,1-.28-.28V67.74H86.81v5.52a.29.29,0,0,1-.28.28h-5a.29.29,0,0,1-.28-.28V67.74H73.7V69.3C73.7,75.7,78.57,80.47,82.66,83.34Z" transform="translate(-1.58 -0.5)"/><path class="cls-1" d="M81.2,59.57a.29.29,0,0,1,.15-.25,1.68,1.68,0,0,0,.9-1.48V30.77a1.24,1.24,0,0,0-1.06-1.22.28.28,0,0,1-.24-.28V26.43a.29.29,0,0,1,.28-.28h2a20,20,0,0,1,39.43,0h2a.29.29,0,0,1,.28.28v2.83a.29.29,0,0,1-.25.28,1.24,1.24,0,0,0-1.07,1.17V57.84a1.68,1.68,0,0,0,.9,1.48.29.29,0,0,1,.15.25v7l2.1-2h5.61V3.42H73.7V64.57h7.5Z" transform="translate(-1.58 -0.5)"/><path class="cls-1" d="M94.13,83.49V78.08l-2.86.2v.37h.07a1.33,1.33,0,0,1,.93.23.8.8,0,0,1,.19.61v4c0,.37-.37.45-1.13.48v.38h4V84C94.5,83.94,94.13,83.85,94.13,83.49Zm3.29-3.1c.18-.75.38-1,1.28-1H101v.06l-3.36,4.62v.35H99l1.27-2.56L102,78.73v-.66H97.12l-.06,2.29Zm9.58.4h.08c.82-.31,1.24-.76,1.24-1.33S107.59,78,106,78s-2.44.77-2.44,2a1.78,1.78,0,0,0,1,1.54h0c-.82.32-1.23.8-1.23,1.43,0,1,1,1.6,2.65,1.6a2.23,2.23,0,0,0,2.5-2c0-.74-.47-1.31-1.44-1.73Zm-1.14-2.44a1.08,1.08,0,0,1,1.2.94.66.66,0,0,1,0,.14,1.66,1.66,0,0,1-.47,1.19c-.83-.3-1.63-.66-1.63-1.4a.87.87,0,0,1,.89-.87h0ZM106,84.1a1.33,1.33,0,0,1-1.34-1.31,1.49,1.49,0,0,1,.44-1.09,2,2,0,0,0,.34.12c1.19.39,1.61.73,1.61,1.3a1,1,0,0,1-1,1Zm7-3.53a3.41,3.41,0,0,0-1.48.3h0v-.06l.07-1.47H115l.1-1.27H111l-.13,3.12.31.25a2.69,2.69,0,0,1,1.38-.39c.84,0,1.32.53,1.32,1.45s-.44,1.55-1.31,1.55a1.91,1.91,0,0,1-.88-.22h0a.91.91,0,0,0,.47-.77.78.78,0,0,0-.73-.83h-.07a.84.84,0,0,0-.89.77v.09c0,.9.93,1.44,2.48,1.44a2.2,2.2,0,0,0,2.47-1.89,1.1,1.1,0,0,0,0-.18c-.1-1.4-1.34-1.89-2.49-1.89Z" transform="translate(-1.58 -0.5)"/><path class="cls-1" d="M80.51,127.6c-11.32,0-17.24,8-17.24,16,0,9.09,7.16,16,16.64,16,9.81,0,16.93-6.87,16.93-16.33C96.81,134.29,89.8,127.6,80.51,127.6Zm8.61,16.86c0,7.58-3.27,12.48-8.32,12.48-5.72,0-9.86-6-9.86-14.21,0-7.42,3.55-12.6,8.64-12.6,5.8,0,9.54,5.62,9.54,14.33Zm-58,1.69v11.63l-1.21.27a45.37,45.37,0,0,1-9.7,1.44c-11.33,0-18.66-6.15-18.66-15.67,0-11.15,9.66-16.23,18.64-16.23a46.9,46.9,0,0,1,9.91,1.61v7.27s-2.81-6.35-9.7-6.35A11.18,11.18,0,0,0,10,138a16.61,16.61,0,0,0-.76,5c0,9.64,5.76,14,11.47,14a5.92,5.92,0,0,0,2.66-.53,2.61,2.61,0,0,0,1-2.38v-6.87a5.33,5.33,0,0,0-2.86-5.14H33.22s-2.07.52-2.07,4.07Zm126.58,0v11.63l-1.21.27a45.37,45.37,0,0,1-9.7,1.44c-11.33,0-18.66-6.15-18.66-15.67,0-11.15,9.66-16.23,18.64-16.23a46.9,46.9,0,0,1,9.91,1.61v7.27s-2.81-6.35-9.7-6.35A11.18,11.18,0,0,0,136.63,138a16.88,16.88,0,0,0-.81,5.09c0,9.64,5.76,14,11.47,14a5.92,5.92,0,0,0,2.66-.53,2.61,2.61,0,0,0,1-2.38v-6.87a5.33,5.33,0,0,0-2.86-5.14H159.8s-2.07.43-2.07,4Zm-107.11,10a9.93,9.93,0,0,1-3.87-.42c-.82-.35-1-1.42-1-3.56v-7.53H49.5c3.39,0,5.7.19,6.39,1.84v-6.67c-.65,1.64-2.86,1.93-6.39,1.93H45.79v-9.52c0-1.33,0-1.33,1.68-1.33H52c2.77,0,4.13.46,5.27,1.86a13.62,13.62,0,0,1,1.86,3.49V128.3H36.36c.72.48,2.58,2.18,2.58,6.9v16.53c0,5.84-2.85,7.06-2.85,7.06H59.67v-8.54a23.73,23.73,0,0,1-2.82,4.27C55.31,156.27,51.21,156.15,50.62,156.15Zm65.52-19.05a6.46,6.46,0,0,1-2.17,5.3c-.89.78-2.38,1.16-4.57,1.16h-.89v-11c0-.87.09-1.29.31-1.49a3.39,3.39,0,0,1,2-.44C113.4,130.66,116.14,132.35,116.14,137.1Zm6,14.83c-1.34-2.21-3.39-5.52-4.4-7.39,2.17-.9,5.47-3,5.47-7.43v-.67a7.48,7.48,0,0,0-3.24-6.37c-1.93-1.3-4.29-1.78-8.72-1.78h-12c.72.48,2.58,2.18,2.58,6.9v16.53c0,5.84-2.85,7.06-2.85,7.06h12.34s-2.85-1.22-2.85-7.06v-5.79h.64a3,3,0,0,1,2.94,1.78c.47.83.92,1.66,1.36,2.47.86,1.59,2,3.7,2.78,4.95,1.91,2.93,3.76,4.2,9.63,4a16.34,16.34,0,0,0,1.76-.1s-2-1.45-5.41-7.11Zm53.14,6.85s-2.85-1.22-2.85-7.06V135.19c0-4.72,1.87-6.42,2.58-6.9h-11.8c.72.48,2.58,2.18,2.58,6.9v16.53c0,5.84-2.85,7.06-2.85,7.06Zm33.14,0c-2.61-1.62-3.32-3.16-4.82-7.08-2.54-6.54-6-15.85-8.79-23.23l-.07-.18H191.5l-9.7,23.56c-1.06,2.63-3,5.8-5.16,6.92h8.53c-1.83-.76-1.41-3.16-.66-5,.14-.4.73-1.86,1.51-3.75h9.66l1.45,4a4.19,4.19,0,0,1-1,4.78ZM187.27,147c1.84-4.46,3.92-9.45,3.92-9.45l3.42,9.45Z" transform="translate(-1.58 -0.5)"/><path class="cls-1" d="M6.63,115.85v-6.7c0-.61-.2-.79-1.68-.85v-.89h6.86v.89c-1,.06-1.56.2-1.56.85V116c0,2.32,1.06,3.31,3.2,3.31a2.77,2.77,0,0,0,2-.73,3.85,3.85,0,0,0,.92-3V111.3c0-1.9-.42-2.81-2.32-3v-.89h5.4v.89c-1.78.22-1.86,1.09-1.86,3v4.6c0,3-1.66,4.87-5.22,4.87S6.63,119.38,6.63,115.85Zm20-4.67h-.12v5.39c0,1.92.24,2.81,2.16,3v.89H23.29v-.89c1.78-.2,2-1,2-3v-6.38c0-1-.38-1.84-2-1.88v-.89H28L34.88,116H35v-4.7c0-1.9-.42-2.81-2.32-3v-.89H38v.89c-1.78.22-1.86,1.09-1.86,3v9.27h-2Zm15.32,8.38c1.48-.06,1.72-.24,1.72-.85v-9.55c0-.61-.24-.79-1.72-.85v-.89H49v.89c-1.48.06-1.72.24-1.72.85v9.55c0,.61.24.79,1.72.85v.89H41.9Zm12.66-10c-.32-.83-.68-1-1.94-1.29v-.89H60v.89c-1.74.1-2,.46-1.74,1.13l2.82,8h.2l2.36-6.76c.6-1.72.6-2.14-1.28-2.42v-.89h5.06v.89c-1.36.28-1.54.75-2.18,2.4l-3.76,9.87h-2.8Zm16,10c1.48-.06,1.68-.24,1.68-.85v-9.55c0-.61-.2-.79-1.68-.85v-.89H82.22l.18,4.68H81.32c-.78-2.24-1.54-3.76-4-3.76h-1.5v5h.3c1.28,0,1.72-.18,2.42-1.94h.9v4.89h-.9c-.7-1.76-1.14-2-2.42-2h-.3v5.13h1.3c2.92,0,3.72-1.57,4.64-4.1h1.08l-.2,5H70.54Zm22.52-.85c0,.65.58.79,1.56.85v.89H87.75v-.89c1.48-.06,1.68-.24,1.68-.85v-9.55c0-.61-.2-.79-1.68-.85v-.89h7.1c4,0,5.18,1.53,5.18,3.17s-.9,2.81-3.94,3.27v.06c2.8,0,3.58,1.11,3.74,2.62L100,118c.14,1.33.34,1.53,1.76,1.6v.89c-.78.06-1.44.08-2,.08-2.92,0-3.36-.75-3.48-2.32l-.12-1.53c-.08-1.9-.5-2.3-2.56-2.3h-.5Zm.8-5.23c2.06,0,2.48-.65,2.48-2.63,0-1.62-.56-2.48-2.62-2.48h-.66v5.11Zm12.2,2.65h1.08c1,2.18,2.4,3.65,4.06,3.65a1.91,1.91,0,0,0,2.11-1.69,1.48,1.48,0,0,0,0-.21c0-1.27-.72-1.78-2.88-2.42s-4.3-1.64-4.3-4.08,1.84-4.28,4.7-4.28a6.32,6.32,0,0,1,2.74.63l.54-.71h1v4.12H114c-1-1.88-2.08-3-3.46-3a1.69,1.69,0,0,0-1.8,1.58v.16c0,1.27.78,1.68,3.06,2.38,1.84.55,3.9,1.49,3.9,3.94s-1.48,4.62-4.94,4.62a7.35,7.35,0,0,1-3.2-.63l-.54.71h-1Zm14,3.43c1.48-.06,1.72-.24,1.72-.85v-9.55c0-.61-.24-.79-1.72-.85v-.89h7.06v.89c-1.48.06-1.72.24-1.72.85v9.55c0,.61.24.79,1.72.85v.89h-7.06Zm14.36,0c1.66,0,2-.24,2-.85V108.37h-.16c-1.46,0-2.32,1.41-3.32,3.76h-1l.1-4.68h12.47l.1,4.68h-1c-1-2.44-1.86-3.76-3.32-3.76H140v10.34c0,.61.32.81,2,.85v.89h-7.58Zm24.12-9c.92-1.53.8-2.06-.78-2.24v-.89h4.86v.89c-1.2.18-1.6.69-2.46,2l-2.72,4.26v4.1c0,.61.24.79,1.72.85v.89h-7.06v-.89c1.48-.06,1.72-.24,1.72-.85V115l-3.32-5.53a2.13,2.13,0,0,0-2-1.21v-.89h7.2v.89c-1.7.08-1.68.44-1.24,1.23l2.24,4.06ZM172.29,114c0-4.18,2.66-6.87,6.74-6.87s6.74,2.62,6.74,6.8-2.66,6.87-6.74,6.87S172.29,118.17,172.29,114Zm9.6,0c0-4.24-.82-5.84-2.94-5.84s-2.78,1.6-2.78,5.84.82,5.84,2.94,5.84,2.79-1.65,2.79-5.91Zm7.57,5.56c1.48-.06,1.68-.24,1.68-.85v-9.55c0-.61-.2-.79-1.68-.85v-.89h11.69v4.68h-1.08c-.84-2.38-1.76-3.76-4.2-3.76h-1.1v5.19h.34c1.28,0,1.72-.14,2.38-1.78h.9v4.73h-.9c-.7-1.76-1.1-2-2.38-2h-.34v4.2c0,.65,0,.83,1.8.89v.85h-7.1ZM130.75,84.92H130v-.48h2v.48h-.71v1.9h-.54Zm1.76-.48h.57l.63,1,.63-1h.56v2.38h-.51V85.21l-.66,1-.66-1v1.61h-.51Z" transform="translate(-1.58 -0.5)"/></svg>