<svg id="institutions" xmlns="http://www.w3.org/2000/svg" viewBox="0 0 160.47 158.87"><defs><style>.cls-1,.cls-10,.cls-11,.cls-12,.cls-13,.cls-14,.cls-15,.cls-2,.cls-3,.cls-4,.cls-5,.cls-6,.cls-7,.cls-8,.cls-9{fill:#fff;}.cls-1,.cls-10,.cls-11,.cls-12,.cls-13,.cls-2,.cls-3,.cls-4,.cls-5,.cls-6,.cls-7,.cls-8,.cls-9{stroke:#fff;}.cls-1{stroke-miterlimit:10;}.cls-1,.cls-12,.cls-14,.cls-3,.cls-6{fill-rule:evenodd;}.cls-10,.cls-11,.cls-13,.cls-2,.cls-3,.cls-4,.cls-5,.cls-6,.cls-7,.cls-8,.cls-9{stroke-miterlimit:2.61;}.cls-2{stroke-width:0.37px;}.cls-3,.cls-4{stroke-width:0.01px;}.cls-5,.cls-6{stroke-width:0.15px;}.cls-7{stroke-width:0.07px;}.cls-8{stroke-width:0.1px;}.cls-9{stroke-width:0.29px;}.cls-10,.cls-12{stroke-width:0.3px;}.cls-11{stroke-width:1.47px;}.cls-13{stroke-width:1.1px;}</style></defs><title>inst_vsu</title><path class="cls-1" d="M81.22,50l-17.73.06c-5.3,0-12.57,0-16,.5l-.36-.25L47,50l1.36-.6V49.3l1.13-.52v-.06l1.19-.67V48L52,47.08,52,47l1-.76v-.07l1.2-.91-.06-.1,1.14-.87V44.2l1-.82v-.09l1.23-.81v-.07l1.25-.83-.05-.1,1.54-.86v-.08l1-.55v-.07l1.32-.56v-.08l1.37-.6v-.07l1.17-.4V38.1l1.4-.42v-.1l1.37-.38v-.12l.92-.22v-.18l5.88-1.11v-.3l3.71-.21h5.37l3.82.19v.28l5.81,1.15.93.37v.08l1.26.3v.09l1.59.55-.05.1,1.53.52-.06.08,1.17.48v.08l1,.44v.09l1.2.64,0,.06.88.45v.07l1.11.48-.07.11,1.17.72-.08.1,1.33.9-.07.1,1.16.74-.09.1,1,.89-.09.08,1.2.9-.08.11,1.22.82-.08.1,1.18.8-.06.1,1.27.68,0,.09,1.29.62v.08l1.3.63v.15l-.3.36L98.84,50.1,81.22,50Z"/><path class="cls-2" d="M42.05,64.82,39.31,65c-.13,0-.27,0-.28.16h-.34v.23a.21.21,0,0,1,.1.13.56.56,0,0,1,.53.59V67h1.62v.17c.54,0,.35.58,1,.57v.13a.49.49,0,0,1,.51.45v.09c-.24,0-.35,0-.35.08s.06.08.12.09.15.15,0,.16V77h4.49m10.88-9.83v.18c.54,0,.34.57,1,.55V68a.47.47,0,0,1,.51.43.2.2,0,0,1,0,.11c-.22,0-.35,0-.35.08s0,0,0,0,.15.17,0,.17M48.22,65.19H38.69v.23a.26.26,0,0,1,.1.13.58.58,0,0,1,.53.61V67h9.34m-9.84-1.43h9.4m14.64-.32H55.35v.25a.2.2,0,0,1,.09.13.61.61,0,0,1,.52.67h0v.85h6.89m-7.4-1.56h7.4m-7.52-.43H48.22M56,67l-5.2-.1H48.65m6.83-1.41H48.22m-6,3.15h4.49M59.1,65h40m-36.2.19H99.1m0,.39H62.9m36.2,1.52H62.9"/><path class="cls-3" d="M81.07,50c-11.57.22-26.08-.4-33.63.55l-.36-.24L46.9,50c.1-.06.11.1.2.1s.08-.09.12-.1a1,1,0,0,1,.18.1,1.15,1.15,0,0,1,.14-.17c.11,0,.08.16.18.15s0-.2.13-.22l.25.18c.09,0,0-.21.13-.22s.13.21.23.19a2,2,0,0,1,.1-.21,1.26,1.26,0,0,0,.28.19c.13,0,0-.24.14-.25a2.32,2.32,0,0,1,.3.22.83.83,0,0,1,.2-.22c.14,0,.08.21.22.21s0-.28.3-.26a1.61,1.61,0,0,0,.22.23,1.09,1.09,0,0,1,.24-.24c.15,0,.21.3.35.29s0-.3.26-.26a1,1,0,0,0,.34.22c.14,0,0-.21.25-.22s.14.22.29.22a2.22,2.22,0,0,1,.35-.25c.18,0,.23.26.42.26a.66.66,0,0,1,.33-.26,3.19,3.19,0,0,0,.38.26c.25,0,.08-.39.32-.4a1.5,1.5,0,0,0,.48.3,2,2,0,0,0,.3-.34,1,1,0,0,0,.52.24,1.22,1.22,0,0,1,.36-.27c.2,0,.25.32.45.31a2.75,2.75,0,0,1,.4-.26,3.33,3.33,0,0,0,.5.25,1.74,1.74,0,0,1,.4-.23,2.31,2.31,0,0,0,.51.22c.13-.1.26-.21.4-.3a3,3,0,0,0,.55.31,2.41,2.41,0,0,1,.5-.33,2.54,2.54,0,0,0,.55.32,3.58,3.58,0,0,1,.45-.31c.27,0,.29.32.55.32a2.3,2.3,0,0,1,.47-.35,1.76,1.76,0,0,0,.61.31,1.86,1.86,0,0,1,.47-.32c.29,0,.25.34.59.36a2.69,2.69,0,0,1,.41-.33c.25,0,.32.28.51.29a2.5,2.5,0,0,0,.56-.35l.62.31a1.64,1.64,0,0,0,.55-.26c.34,0,.29.26.62.26a5.2,5.2,0,0,1,.53-.26,2.7,2.7,0,0,0,.61.25,5.07,5.07,0,0,1,.55-.34,1.94,1.94,0,0,0,.58.32c.21,0,.35-.28.56-.28a4.87,4.87,0,0,0,.71.3,5.5,5.5,0,0,1,.6-.28c.3,0,.34.32.62.32s.32-.33.66-.34.32.3.55.3a3,3,0,0,1,.65-.31,2.24,2.24,0,0,0,.63.29c.41,0,.24-.36.64-.35s.31.37.61.37.3-.32.6-.31a4.51,4.51,0,0,0,.63.29c.32,0,.33-.34.66-.34s.31.29.67.3.31-.32.62-.31.32.28.61.3c.45,0,.3-.36.73-.33s.34.32.61.31.3-.35.67-.34.28.33.63.32.28-.31.65-.32.26.33.66.34.29-.29.6-.31.29.35.74.33c.2-.11.4-.21.61-.3s.32.32.61.31.31-.29.67-.3.36.36.67.36a4.51,4.51,0,0,0,.63-.29c.3,0,.28.32.61.31s.27-.33.6-.34.24.34.64.35a2.24,2.24,0,0,0,.63-.29,3.54,3.54,0,0,1,.65.31c.24,0,.34-.32.6-.31s.36.26.64.26.32-.3.61-.32a3.7,3.7,0,0,1,.55.31,4.55,4.55,0,0,0,.72-.3c.2,0,.35.29.56.28a1.94,1.94,0,0,0,.58-.32,5.07,5.07,0,0,1,.55.34,2.88,2.88,0,0,0,.62-.28,4.49,4.49,0,0,1,.54.26c.33,0,.28-.27.62-.26a1.64,1.64,0,0,0,.55.26c.2-.11.41-.21.62-.31a2.5,2.5,0,0,0,.56.35c.19,0,.26-.27.51-.29a2.83,2.83,0,0,1,.45.32c.34,0,.31-.36.59-.36a1.94,1.94,0,0,1,.44.31,1.76,1.76,0,0,0,.61-.31,2.32,2.32,0,0,1,.46.35c.26,0,.28-.31.55-.32a3.58,3.58,0,0,1,.45.31,2.61,2.61,0,0,0,.56-.32,2.34,2.34,0,0,1,.49.33,3.43,3.43,0,0,0,.56-.31,4,4,0,0,1,.39.3,2.62,2.62,0,0,0,.52-.22,1.48,1.48,0,0,1,.39.31,3.49,3.49,0,0,0,.58-.29,2.82,2.82,0,0,1,.33.36c.2,0,.25-.32.45-.31a1.54,1.54,0,0,1,.36.36,1,1,0,0,0,.53-.34,2,2,0,0,0,.3.34,1.32,1.32,0,0,0,.48-.29c.24,0,.07.36.31.4a2.33,2.33,0,0,0,.38-.26c.28,0,.1.3.23.3s.27-.3.45-.3a1.13,1.13,0,0,1,.24.3c.15,0,.24-.26.4-.25s.12.33.27.33a1.58,1.58,0,0,0,.39-.24c.27,0,.1.3.23.3s.17-.3.32-.31a1.28,1.28,0,0,1,.23.29,1.33,1.33,0,0,0,.27-.26c.26,0,.1.31.24.31s.14-.25.28-.26,0,.27.12.26.25-.17.38-.25,0,.26.09.28a1.46,1.46,0,0,0,.33-.22,1.05,1.05,0,0,1,.06.24c.09,0,.17-.23.27-.22s0,.25.09.25l.28-.22c.1,0,0,.28.06.3s.14-.23.25-.22.07.16.1.23a.76.76,0,0,0,.23-.13,1.09,1.09,0,0,1,.08.15.48.48,0,0,1,.24-.07c.09.06-.1.19-.12.28s0,.31-.17.29c-11.4-1.1-22.5-.63-33.77-.93h0Z"/><path class="cls-3" d="M79.73,57.68V55.35c0-1,.36-1.59,1.27-1.61s1.4.48,1.38,1.58v2.36H79.73Z"/><path class="cls-3" d="M86.37,57.82V55.49c0-1,.34-1.59,1.18-1.61s1.31.56,1.29,1.58V57.8H86.36Z"/><path class="cls-3" d="M92.69,57.87V55.55c0-1,.33-1.59,1.12-1.61S95,54.5,95,55.52v2.34H92.69Z"/><path class="cls-3" d="M98.7,57.83V55.61c0-1,.33-1.64,1-1.65s1.06.6,1,1.62v2.24h-2Z"/><path class="cls-3" d="M103.92,57.89V55.72c0-1,.21-1.6.74-1.61s.72.58.71,1.57v2.2h-1.45Z"/><path class="cls-3" d="M107.93,57.9V55.73c0-1,.07-1.51.41-1.51s.51.49.51,1.48v2.18H108Z"/><path class="cls-3" d="M111.06,58V56a4.32,4.32,0,0,1,.09-1.43,4.42,4.42,0,0,1,.1,1.4V58h-.18Z"/><polygon class="cls-3" points="113.4 58.51 113.4 59.13 101.55 59.22 81.02 59.31 81.02 58.59 83.16 58.59 83.16 58.17 85.75 58.19 85.75 58.56 89.84 58.58 89.85 58.19 92.28 58.19 92.29 58.63 96.14 58.63 96.14 58.24 98.59 58.24 98.59 58.72 101.97 58.73 101.97 58.3 103.82 58.31 103.83 58.72 106.52 58.73 106.51 58.35 107.87 58.37 107.87 58.72 109.97 58.73 109.96 58.45 110.94 58.45 110.94 58.7 112.27 58.73 112.27 58.44 112.86 58.44 112.86 58.66 113.23 58.66 113.23 58.51 113.4 58.51 113.4 58.51"/><path class="cls-3" d="M75.67,57.8V55.47c0-1-.34-1.59-1.18-1.61s-1.31.56-1.28,1.58v2.34h2.48Z"/><path class="cls-3" d="M69.34,57.86V55.53c0-1-.32-1.6-1.12-1.62S67,54.47,67,55.49v2.34h2.33Z"/><path class="cls-3" d="M63.34,57.82V55.59c0-1-.34-1.63-1-1.65s-1.12.6-1.12,1.62V57.8h2.09Z"/><path class="cls-3" d="M58.12,57.88V55.71c0-1-.21-1.6-.74-1.61s-.68.58-.67,1.58v2.18h1.41Z"/><path class="cls-3" d="M54.11,57.89V55.73c0-1-.07-1.5-.41-1.52s-.48.47-.48,1.47v2.18h.89Z"/><path class="cls-3" d="M51,58V56a4.06,4.06,0,0,0-.08-1.43,3.9,3.9,0,0,0-.1,1.4V58H51Z"/><polygon class="cls-3" points="48.84 58.48 48.83 59.12 60.6 59.2 81.02 59.3 81.02 58.58 78.93 58.58 78.93 58.16 76.31 58.16 76.31 58.55 72.25 58.56 72.25 58.16 69.81 58.16 69.81 58.6 65.99 58.63 65.99 58.23 63.55 58.23 63.55 58.7 60.18 58.73 60.18 58.28 58.35 58.3 58.34 58.7 55.66 58.72 55.67 58.34 54.32 58.34 54.32 58.7 52.23 58.72 52.24 58.45 51.26 58.44 51.26 58.7 49.94 58.7 49.94 58.42 49.36 58.41 49.36 58.63 48.99 58.65 48.99 58.49 48.84 58.48 48.84 58.48"/><path class="cls-3" d="M114.73,52.29a4.33,4.33,0,0,1-1.33.24c-6.9-.69-21.59-.52-32.22-.71-10.45-.19-28.43.09-32.24.44a5.51,5.51,0,0,1-1.4-.15A7.82,7.82,0,0,1,49,52c11-.45,20.73-.64,32.2-.46,10.35.11,22.41,0,32.22.68l1.32.1h0Z"/><path class="cls-3" d="M79.72,27.88V27a1.4,1.4,0,0,1,1.37-1.37,1.23,1.23,0,0,1,1.29,1.15v.06a8.34,8.34,0,0,1,0,1A1.2,1.2,0,0,0,81.3,26.5h-.24a1.35,1.35,0,0,0-1.35,1.35v0h0Z"/><path class="cls-3" d="M83.92,27.31a1.62,1.62,0,0,1,.49-1.48,1.45,1.45,0,0,1,.81,1.61,1,1,0,0,0-.71-1,.85.85,0,0,0-.59.85h0Z"/><path class="cls-3" d="M78.22,27.36a1.57,1.57,0,0,0-.49-1.47c-.61.11-.78.85-.78,1.6.1-.54.24-1,.68-1a.87.87,0,0,1,.59.86h0Z"/><polygon class="cls-3" points="81.08 30.14 82.33 30.95 79.82 30.96 81.08 30.14 81.08 30.14"/><polygon class="cls-3" points="78.16 30.77 76.87 31.16 78.16 30.77 78.16 30.77"/><polyline class="cls-4" points="83.97 32.09 85.27 32.17 85.27 32.59"/><path class="cls-4" d="M78,22.77V24h-.25v.21l.32.11a.25.25,0,0,0,.21.18v.22a.1.1,0,0,0-.06.13.09.09,0,0,0,.06.06v.18c-.12,0-.13.27,0,.27l0,1,0,5.82h-.09v.33l-.71.07v.92l-1.81.11m2.73,1.49v-2.6"/><path class="cls-3" d="M86.5,23l.62.07-.12.12a.92.92,0,0,1-.5-.18h0Z"/><path class="cls-4" d="M82.41,24v.17h.2a.22.22,0,0,0,.2.22v.14c-.11,0-.09.23,0,.24V25c-.1,0-.11.22,0,.24v6.83h-.09v.31h-.28v.87M79.67,24v.17h-.16a.2.2,0,0,1-.18.24h0v.29a.1.1,0,0,1,.06.13.09.09,0,0,1-.06.06v.18a.17.17,0,0,1,0,.24.08.08,0,0,1,0,0l.06,1v5.83l.09.05v.29h.3v.82h2.69M86,24.46a.18.18,0,0,0,.16.21v.15a.15.15,0,0,0-.08.19.14.14,0,0,0,.08.07v.2c-.1,0-.11.24,0,.25v6.82H86.1v.33m-9.88-8.35v.16a.21.21,0,0,1-.11,0,.18.18,0,0,1-.15.21,0,0,0,0,1,0,0v.18c.1,0,.1.21,0,.22v.2c.1,0,.09.26,0,.25v6.83l.07.06v.31m8.23-8.65-.3.1a.18.18,0,0,1-.16.22h0v.16a.12.12,0,0,1,.06.16.09.09,0,0,1-.06.06V25c.11,0,.1.24,0,.25l.06,1,.11,5.84H84v.37H82.41"/><polygon class="cls-3" points="79.23 22.73 82.81 22.7 82.56 22.91 79.46 22.93 79.23 22.73 79.23 22.73"/><polygon class="cls-3" points="86.55 22.98 86.06 23.11 84 22.86 84 22.71 86.55 22.98 86.55 22.98"/><path class="cls-4" d="M75.56,23.13l.44.09m0,.72-.44-.06"/><polygon class="cls-3" points="75.55 23.05 78.04 22.77 78.04 22.95 76 23.18 75.55 23.05 75.55 23.05"/><path class="cls-3" d="M75.55,23.06a.77.77,0,0,1-.47.12L75,23.12l.58-.06h0Z"/><path class="cls-3" d="M78,22.78l.45-.05h.75a2.33,2.33,0,0,1-1.23,0h0Z"/><path class="cls-3" d="M82.81,22.68H84a3.34,3.34,0,0,1-1.18,0h0Z"/><path class="cls-3" d="M82.41,24.2l.45-.11h1.36l-.31.11a2.76,2.76,0,0,0-1.34,0h-.16Z"/><polygon class="cls-3" points="84.25 24.07 85.84 24.23 85.84 24.34 84.05 24.18 84.25 24.11 84.25 24.07 84.25 24.07"/><path class="cls-3" d="M85.84,24.42h1l.58.1h-.31a2.32,2.32,0,0,0-1.17-.06H85.8Z"/><path class="cls-3" d="M77.78,24.17h1.44l.41.08h-.17a2.84,2.84,0,0,0-1.36,0l-.32-.1h0Z"/><path class="cls-3" d="M74.62,24.56l.55-.12,1,.06-.13.05a2.61,2.61,0,0,0-1.18,0h-.29Z"/><polygon class="cls-3" points="82.39 30.38 82.39 30.73 81.23 30 82.39 30.38 82.39 30.38"/><polygon class="cls-3" points="79.71 30.73 79.71 30.41 80.96 29.98 79.71 30.73 79.71 30.73"/><path class="cls-4" d="M78.16,31.19l-1.27.09m.56-.17-.56.06M85,31.11h.26m-7.08,0-1.28.11M79.7,31h2.69m-2.68-.15L81.06,30l1.32.82m-2.68-.54,1.36-.46,1.31.42"/><polygon class="cls-3" points="74.97 23.13 75.07 23.18 75.07 23.48 74.97 23.13 74.97 23.13"/><polygon class="cls-3" points="87.14 23.02 87.14 23.13 87.08 23.18 87 23.5 87 23.16 87.14 23.02 87.14 23.02"/><path class="cls-1" d="M13,118.17h.36c1.33-3.39,2.08-5.38,2.35-6l4.17-10.09c2.09-5,3.41-7.62,6.16-7.62h.2v-.6H16.69v.6c2.58.13,3.71.67,3.71,2.12,0,1-.6,2.89-1.73,5.63l-4.45,10.85L9.75,102.2a23,23,0,0,1-1.86-5.89c0-1.22,1.1-1.83,3.34-1.86v-.6H.5v.6C3,94.55,4,96.17,5.2,99.19l7.78,19h0Z"/><path class="cls-1" d="M135.22,116.94c1.41,0,2.9-.08,4.42-.08s3.22,0,4.9.08v-.57c-2.55-.06-3.77-.7-3.77-2.12a19.42,19.42,0,0,1,1.26-5.07l.63-1.89h7.85l1.75,4.91a7.27,7.27,0,0,1,.5,2.24c0,1-.93,1.79-2.65,1.93v.57c1.65,0,3.31-.08,4.93-.08s3.31,0,4.93.08v-.57c-2.52-.1-3.34-1.39-4.37-4.14l-7.38-19.77a4.71,4.71,0,0,1-2.35,1.82L146,95l-3.78,10c-2.19,5.82-3.38,9.24-4.17,10.12a4.67,4.67,0,0,1-2.9,1.3v.57h.07Zm8-11.06,3.24-9.2,3.44,9.18h-6.76Z"/><path class="cls-1" d="M18.78,116.94c1.18,0,2.42-.07,3.69-.07s2.67,0,4.08.07v-.48c-2.13-.06-3.15-.58-3.15-1.76a16.29,16.29,0,0,1,1-4.23l.53-1.57h6.54L32.94,113a6.46,6.46,0,0,1,.41,1.88c0,.83-.77,1.49-2.21,1.6V117c1.38,0,2.76-.07,4.12-.07s2.75,0,4.1.07v-.48c-2.1-.08-2.79-1.16-3.64-3.45l-6-16.48a4,4,0,0,1-2,1.52l.1.55-3.14,8.33c-1.82,4.86-2.81,7.7-3.48,8.44a3.8,3.8,0,0,1-2.42,1.08v.48h.05Zm6.65-9.26,2.79-7.61,2.83,7.61Z"/><path class="cls-1" d="M40,116.94h7.47c3.23,0,6,0,8.39.06l1.57-5.32-.36-.17A9.56,9.56,0,0,1,54,115.37c-1.1.69-2.48.72-4.27.72s-3,0-3.26-.58c-.36-.69-.36-1.94-.36-3.78v-9.35c0-3,.47-4,3.56-4.23v-.47H40v.49c3.2.31,3.58,1.22,3.58,4.23v9.35c0,3.33-.28,4.44-3.58,4.69v.48h0Z"/><path class="cls-1" d="M58.37,116.94c3.81,0,6.76.08,8.8.08,7.84,0,12.28-3.82,12.28-9.62,0-6-4.66-9.82-12.88-9.82-1.14,0-3.78.08-7.89.11v.49c2.71.31,3.31,1.13,3.31,3.56v10.94c0,2.7-.57,3.56-3.62,3.81V117h0Zm6.27-5V98.22h.25c7.12,0,11.2,3.7,11.2,9.69,0,5.13-3.15,8.42-7.36,8.42-3.45,0-4.09-1.22-4.09-4.44Z"/><path class="cls-1" d="M83.14,107.22c0,6.12,4.08,10.08,10.29,10.08,6.37,0,10.45-4,10.45-9.81,0-6.1-4-10.13-10.29-10.13s-10.45,3.89-10.45,9.85h0Zm3.28-.39c0-5.32,2.88-8.66,6.87-8.66a6.44,6.44,0,0,1,5.62,3.28,11.55,11.55,0,0,1,1.72,6.26c0,5.41-2.84,8.75-6.93,8.75s-7.29-3.86-7.29-9.63h0Z"/><path class="cls-1" d="M105.9,111.14a34.64,34.64,0,0,0,.66,4.77,9.39,9.39,0,0,0,5.3,1.5c3.8,0,6.71-2.44,6.71-5.55,0-2.07-1-3.62-3.2-4.94l-3.2-1.93a4.38,4.38,0,0,1-2.4-3.53,3.32,3.32,0,0,1,3.24-3.4h.21c2.18,0,3.54,1.58,3.94,4.69h.5a30.86,30.86,0,0,1,.3-4.22,8.76,8.76,0,0,0-4.44-1.21c-3.64,0-6.17,2.37-6.17,5.38,0,2,1.13,3.61,3.48,5L113,109q2.81,1.65,2.81,4.14a3.45,3.45,0,0,1-3.5,3.4h-.2c-2.73,0-4.75-1.85-5.74-5.4h-.5Z"/><path class="cls-1" d="M130.77,111.17V98.68h2.06c3.09,0,4.61,1,5.27,3.64l.44-.08-.46-5.38h-.22l-.91.88h-15l-.83-.88h-.33l-.56,5.28.48.08c.77-2.8,2.25-3.54,5.52-3.54h1.91V111.2c0,2.2-.08,3.54-.74,4.17a5.64,5.64,0,0,1-3,1.13V117c1.71,0,3.39-.07,5.11-.07s3.39,0,5.07.07v-.48a5.56,5.56,0,0,1-3-1.13c-.66-.63-.74-2-.74-4.17h0Z"/><path class="cls-2" d="M120,64.82l2.74.21c.13,0,.27,0,.28.16h.33v.23a.2.2,0,0,0-.09.13.56.56,0,0,0-.52.6V67h-1.63v.17c-.53,0-.34.58-1,.57v.13a.48.48,0,0,0-.5.44.17.17,0,0,0,0,.1c.23,0,.35,0,.35.08s-.06.08-.12.09-.15.15,0,.16v7.85m-15.37-9.42v.18c-.54,0-.34.57-1,.55V68a.48.48,0,0,0-.5.44.17.17,0,0,0,0,.1c.23,0,.35,0,.35.08s-.06.05-.06.05-.15.17,0,.17M115.93,67v.17c-.39,0-.2.58-.44.55v.13a.46.46,0,0,0-.35.54h0c.23,0,.35,0,.35.08a.1.1,0,0,1-.12.09h0c-.14,0-.16.17,0,.17m-1.54-3.54h9.51v.23a.28.28,0,0,0-.09.13.58.58,0,0,0-.52.62h0v.8H113.4m9.82-1.37h-9.45M99,65.23h7.62v.25a.2.2,0,0,0-.09.13.61.61,0,0,0-.52.67h0v.85H99m7.51-1.57h-7.4m7.51-.43h7.19m-7.82,2,5.2-.17h2.17m-6.83-1.41h7.27m6,3.17h-4.49M103,65H99.12M46.67,61.47H42.05V65h4.63V61.47h0Zm0,0H59V65H46.68V61.47h0ZM58.8,68.88l-12.13-.13V77l12.19,7.08L58.8,68.88Z"/><path class="cls-3" d="M79.73,57.68V55.35c0-1,.36-1.59,1.27-1.61s1.4.48,1.38,1.58v2.36H79.73Z"/><path class="cls-4" d="M92.29,58.61V55.1a1.86,1.86,0,0,1,1.71-2h.18a1.84,1.84,0,0,1,2,1.65,2,2,0,0,1,0,.35v3.52H92.29Z"/><path class="cls-3" d="M86.37,57.82V55.49c0-1,.34-1.59,1.18-1.61s1.31.56,1.29,1.58V57.8H86.36Z"/><path class="cls-3" d="M92.69,57.87V55.55c0-1,.33-1.59,1.12-1.61S95,54.5,95,55.52v2.34H92.69Z"/><path class="cls-3" d="M98.7,57.83V55.61c0-1,.33-1.64,1-1.65s1.06.6,1,1.62v2.24h-2Z"/><path class="cls-3" d="M103.92,57.89V55.72c0-1,.21-1.6.74-1.61s.72.58.71,1.57v2.2h-1.45Z"/><path class="cls-3" d="M107.93,57.9V55.73c0-1,.07-1.51.41-1.51s.51.49.51,1.48v2.18H108Z"/><path class="cls-3" d="M111.06,58V56a4.32,4.32,0,0,1,.09-1.43,4.42,4.42,0,0,1,.1,1.4V58h-.18Z"/><polygon class="cls-3" points="113.4 58.51 113.4 59.13 101.55 59.22 81.02 59.31 81.02 58.59 83.16 58.59 83.16 58.17 85.75 58.19 85.75 58.56 89.84 58.58 89.85 58.19 92.28 58.19 92.29 58.63 96.14 58.63 96.14 58.24 98.59 58.24 98.59 58.72 101.97 58.73 101.97 58.3 103.82 58.31 103.83 58.72 106.52 58.73 106.51 58.35 107.87 58.37 107.87 58.72 109.97 58.73 109.96 58.45 110.94 58.45 110.94 58.7 112.27 58.73 112.27 58.44 112.86 58.44 112.86 58.66 113.23 58.66 113.23 58.51 113.4 58.51 113.4 58.51"/><path class="cls-2" d="M81.11,51.49c-11.36-.09-21.79,0-32.22.74v6.24H49v-3c0-2.17.34-2.31.36-.28v3.25H50V55.55c.09-2.95,1.17-2.43,1.31-.27v3.16h1V55.56c-.08-1.36.47-2.12.91-2.2s1.2.69,1.2,1.89v3.09h1.32v-3.1a1.9,1.9,0,0,1,1.06-2c.83-.22,1.59.5,1.64,1.92v3.07h1.81V55a1.91,1.91,0,0,1,1.72-1.92,1.74,1.74,0,0,1,1.67,1.72v3.44h2.44V55a1.91,1.91,0,0,1,3.82,0v3.26h2.35v-3.3c0-2.55,4.12-2.58,4.12.12v3.11h2.6V55A2.06,2.06,0,0,1,81,53h.09a2,2,0,0,1,2.07,1.93v3.26h2.59V55a2,2,0,0,1,4.07-.13v3.27h2.45V54.93a1.93,1.93,0,0,1,3.85,0v3.28h2.48V54.79a1.74,1.74,0,0,1,1.67-1.72A1.89,1.89,0,0,1,102,55V58.3h1.83V55.23c0-1.41.81-2.13,1.63-1.91.52.14,1,.75,1.08,1.94v3.09h1.32V55.26c0-1.19.66-2,1.2-1.88s1,.84.91,2.2v2.87h1V55.29c.15-2.15,1.23-2.67,1.31.27v2.86h.59V55.17c0-2,.39-1.89.37.28v3h.19V52.22c-10.54-.61-21-.49-32.29-.74h0Z"/><path class="cls-3" d="M75.67,57.8V55.47c0-1-.34-1.59-1.18-1.61s-1.31.56-1.28,1.58v2.34h2.48Z"/><path class="cls-3" d="M69.34,57.86V55.53c0-1-.32-1.6-1.12-1.62S67,54.47,67,55.49v2.34h2.33Z"/><path class="cls-3" d="M63.34,57.82V55.59c0-1-.34-1.63-1-1.65s-1.12.6-1.12,1.62V57.8h2.09Z"/><path class="cls-3" d="M58.12,57.88V55.71c0-1-.21-1.6-.74-1.61s-.68.58-.67,1.58v2.18h1.41Z"/><path class="cls-3" d="M54.11,57.89V55.73c0-1-.07-1.5-.41-1.52s-.48.47-.48,1.47v2.18h.89Z"/><path class="cls-3" d="M51,58V56a4.06,4.06,0,0,0-.08-1.43,3.9,3.9,0,0,0-.1,1.4V58H51Z"/><polygon class="cls-3" points="48.84 58.48 48.83 59.12 60.6 59.2 81.02 59.3 81.02 58.58 78.93 58.58 78.93 58.16 76.31 58.16 76.31 58.55 72.25 58.56 72.25 58.16 69.81 58.16 69.81 58.6 65.99 58.63 65.99 58.23 63.55 58.23 63.55 58.7 60.18 58.73 60.18 58.28 58.35 58.3 58.34 58.7 55.66 58.72 55.67 58.34 54.32 58.34 54.32 58.7 52.23 58.72 52.24 58.45 51.26 58.44 51.26 58.7 49.94 58.7 49.94 58.42 49.36 58.41 49.36 58.63 48.99 58.65 48.99 58.49 48.84 58.48 48.84 58.48"/><path class="cls-3" d="M114.73,52.29a4.33,4.33,0,0,1-1.33.24c-6.9-.69-21.59-.52-32.22-.71-10.45-.19-28.43.09-32.24.44a5.51,5.51,0,0,1-1.4-.15A7.82,7.82,0,0,1,49,52c11-.45,20.73-.64,32.2-.46,10.35.11,22.41,0,32.22.68l1.32.1h0Z"/><path class="cls-5" d="M81.22,51.51c-10.85.07-21.76,0-32.29.46a8.07,8.07,0,0,0-1.39.12V51.2A3.47,3.47,0,0,1,48.93,51c9.43-.46,21.11-.46,32.25-.51,11.63,0,23-.12,33.58.87v.94c-11-.81-22.23-.63-33.55-.78h0ZM47.5,51.18a.8.8,0,0,1-.09-.57c10.2-.77,16.84-.5,33.75-.59,11.21.22,22.36-.11,33.66.95a.89.89,0,0,1-.06.39c-11.2-1-22.4-1-33.6-.88-10.89.2-26.17-.12-32.94.54a2.52,2.52,0,0,0-.71.16h0Zm40-28.92.09.08-.08.09v.42h-.14v.07l-.15.07v.1l0,.05-.09.33v.69l.48.1v.22h-.32c0,.09,0,.15-.22.18v.14c.11,0,.07.26,0,.26v.22a.17.17,0,0,1,0,.23l0,0,.08.88.14,5.93h.1v.33h.33v2.56l-3.82-.18H78.48l-3.72.19V32.87H75V32.5h.09l.09-6.13.07-.71c-.11,0-.1-.26,0-.26v-.2c-.14,0-.13-.22,0-.22v-.22a.19.19,0,0,1-.23-.14v-.07h-.43v-.18l.46-.13V23.5l-.1-.38V23h-.12v-.09h-.17l-.06-.37-.14-.1v-.14h0l.15-.18,1.58-.45,4.88-.32,4.94.32,1.39.3,0,.26h0Zm-10.6,10V27.45a1,1,0,0,1,.66-1,.82.82,0,0,1,.6.86v4.83l-1.28.1h0Zm8.32-1.15L84,30.68V27.31a.78.78,0,0,1,.64-.89.94.94,0,0,1,.66.91v3.75h0Zm-5.55-.83V27.8A1.44,1.44,0,0,1,81,26.46a1.16,1.16,0,0,1,1.3,1,1.6,1.6,0,0,1,0,.31v2.5L81,29.84l-1.36.44h0Z"/><path class="cls-3" d="M79.72,27.88V27a1.4,1.4,0,0,1,1.37-1.37,1.23,1.23,0,0,1,1.29,1.15v.06a8.34,8.34,0,0,1,0,1A1.2,1.2,0,0,0,81.3,26.5h-.24a1.35,1.35,0,0,0-1.35,1.35v0h0Z"/><path class="cls-6" d="M83.92,27.31a1.62,1.62,0,0,1,.49-1.48,1.45,1.45,0,0,1,.81,1.61,1,1,0,0,0-.71-1,.85.85,0,0,0-.59.85h0Z"/><path class="cls-6" d="M78.22,27.36a1.57,1.57,0,0,0-.49-1.47c-.61.11-.78.85-.78,1.6.1-.54.24-1,.68-1a.87.87,0,0,1,.59.86h0Z"/><path class="cls-5" d="M86.65,33.53l-1-.93h-.34l-.09-5.27c0-.88-.31-1.45-.8-1.5.63-.43,1.46.12,1.42,1.59v5.27h.79v.84h0Zm-11,.07.9-.94h.33V27.48c0-1,.3-1.54.78-1.59-.65-.45-1.4.19-1.42,1.58V32.8h-.61v.82h0Z"/><polygon class="cls-3" points="81.08 30.14 82.33 30.95 79.82 30.96 81.08 30.14 81.08 30.14"/><path class="cls-5" d="M82.4,32.47H79.7V27.19A1.43,1.43,0,0,1,81,25.6h.1c.72,0,1.37.39,1.32,1.69v5.18h0Zm-2.68-1.38h2.67v1H79.72v-1Z"/><polygon class="cls-4" points="78.16 30.77 76.87 31.16 78.16 30.77 78.16 30.77"/><polygon class="cls-5" points="85.27 32.58 84.6 32.53 84 32.48 84 32.12 83.97 32.1 83.96 31.16 85.26 31.25 85.27 32.58 85.27 32.58"/><polygon class="cls-4" points="83.95 30.71 85.26 31.11 85.26 31.25 83.96 31.16 83.95 30.71 83.95 30.71"/><polyline class="cls-5" points="83.97 32.09 85.27 32.17 85.27 32.59"/><path class="cls-5" d="M78,22.77V24h-.25v.21l.32.11a.25.25,0,0,0,.21.18v.22a.1.1,0,0,0-.06.13.09.09,0,0,0,.06.06v.18c-.12,0-.13.27,0,.27l0,1,0,5.82h-.09v.33l-.71.07v.92l-1.81.11m2.73,1.49v-2.6"/><path class="cls-3" d="M86.5,23l.62.07-.12.12a.92.92,0,0,1-.5-.18h0Z"/><line class="cls-5" x1="84" y1="22.75" x2="84" y2="23.92"/><polygon class="cls-7" points="82.86 23.91 84.25 23.93 84.24 24.11 82.86 24.09 82.86 23.91 82.86 23.91"/><path class="cls-5" d="M82.41,24v.17h.2a.22.22,0,0,0,.2.22v.14c-.11,0-.09.23,0,.24V25c-.1,0-.11.22,0,.24v6.83h-.09v.31h-.28v.87M79.67,24v.17h-.16a.2.2,0,0,1-.18.24h0v.29a.1.1,0,0,1,.06.13.09.09,0,0,1-.06.06v.18a.17.17,0,0,1,0,.24.08.08,0,0,1,0,0l.06,1v5.83l.09.05v.29h.3v.82h2.69M86,24.46a.18.18,0,0,0,.16.21v.15a.15.15,0,0,0-.08.19.14.14,0,0,0,.08.07v.2c-.1,0-.11.24,0,.25v6.82H86.1v.33m-9.88-8.35v.16a.21.21,0,0,1-.11,0,.18.18,0,0,1-.15.21,0,0,0,0,1,0,0v.18c.1,0,.1.21,0,.22v.2c.1,0,.09.26,0,.25v6.83l.07.06v.31m8.23-8.65-.3.1a.18.18,0,0,1-.16.22h0v.16a.12.12,0,0,1,.06.16.09.09,0,0,1-.06.06V25c.11,0,.1.24,0,.25l.06,1,.11,5.84H84v.37H82.41"/><polygon class="cls-7" points="77.78 23.96 79.23 23.93 79.23 24.14 77.79 24.18 77.78 23.96 77.78 23.96"/><path class="cls-4" d="M79.22,23.93l.4.11v.18l-.4-.08v-.21Zm3.63,0v.19l-.46.1V24l.46-.14h0Z"/><polygon class="cls-7" points="82.8 22.71 82.8 23.91 82.57 23.98 82.57 22.89 82.8 22.71 82.8 22.71"/><polygon class="cls-3" points="79.23 22.73 82.81 22.7 82.56 22.91 79.46 22.93 79.23 22.73 79.23 22.73"/><polygon class="cls-7" points="79.25 22.77 79.46 22.93 79.48 24 79.26 23.93 79.25 22.77 79.25 22.77"/><polygon class="cls-8" points="86.51 22.98 86.5 24.18 86.05 24.2 86.06 23.09 86.51 22.98 86.51 22.98"/><polygon class="cls-3" points="86.55 22.98 86.06 23.11 84 22.86 84 22.71 86.55 22.98 86.55 22.98"/><polygon class="cls-5" points="76 24.3 75.56 24.25 75.55 23.07 75.99 23.16 76 24.3 76 24.3"/><polygon class="cls-3" points="75.55 23.05 78.04 22.77 78.04 22.95 76 23.18 75.55 23.05 75.55 23.05"/><path class="cls-3" d="M75.55,23.06a.77.77,0,0,1-.47.12L75,23.12l.58-.06h0Z"/><path class="cls-3" d="M78,22.78l.45-.05h.75a2.33,2.33,0,0,1-1.23,0h0Z"/><path class="cls-3" d="M82.81,22.68H84a3.34,3.34,0,0,1-1.18,0h0Z"/><path class="cls-3" d="M82.41,24.2l.45-.11h1.36l-.31.11a2.76,2.76,0,0,0-1.34,0h-.16Z"/><polygon class="cls-7" points="86.89 24.16 86.89 24.38 85.85 24.41 85.84 24.23 86.89 24.16 86.89 24.16"/><polygon class="cls-4" points="86.89 24.16 87.47 24.3 87.47 24.46 86.89 24.38 86.89 24.16 86.89 24.16"/><path class="cls-3" d="M85.84,24.42h1l.58.1h-.31a2.32,2.32,0,0,0-1.17-.06H85.8Z"/><path class="cls-3" d="M77.78,24.17h1.44l.41.08h-.17a2.84,2.84,0,0,0-1.36,0l-.32-.1h0Z"/><line class="cls-5" x1="79.63" y1="24.15" x2="82.41" y2="24.13"/><polygon class="cls-7" points="75.18 24.23 76.23 24.32 76.23 24.5 75.17 24.43 75.18 24.23 75.18 24.23"/><path class="cls-4" d="M75.22,24.22v.22l-.55.12v-.19l.56-.15h0Zm-.1-1v.31"/><line class="cls-5" x1="76.23" y1="24.42" x2="78.02" y2="24.25"/><path class="cls-3" d="M74.62,24.56l.55-.12,1,.06-.13.05a2.61,2.61,0,0,0-1.18,0h-.29Z"/><path class="cls-5" d="M83.57,22.68v-.35h.07v-.65m-5.24,1v-.3h0v-.62"/><line class="cls-4" x1="87" y1="23.15" x2="87" y2="23.5"/><polyline class="cls-9" points="74.49 22.25 78.37 21.8 83.69 21.8 87.48 22.18"/><path class="cls-5" d="M83.73,32.46v2.66m.88-2.58v.9l2,.1m-8.48-1h1.25m-3.77.29-1,.09m12.9-.14-.86-.1m-4.36.86H79.92v1.21h2.37v-1.2h0Zm2.48.05,1.75.09v1.19l-1.75-.09V33.6h0Z"/><line class="cls-5" x1="76.53" y1="32.67" x2="77.46" y2="32.62"/><polygon class="cls-3" points="82.39 30.38 82.39 30.73 81.23 30 82.39 30.38 82.39 30.38"/><polygon class="cls-3" points="79.71 30.73 79.71 30.41 80.96 29.98 79.71 30.73 79.71 30.73"/><path class="cls-4" d="M78.16,31.19l-1.27.09m.56-.17-.56.06M85,31.11h.26"/><line class="cls-5" x1="78.16" y1="31.14" x2="76.89" y2="31.25"/><line class="cls-5" x1="78.16" y1="30.81" x2="77" y2="31.17"/><line class="cls-4" x1="83.96" y1="30.75" x2="85.24" y2="31.15"/><polygon class="cls-3" points="74.97 23.13 75.07 23.18 75.07 23.48 74.97 23.13 74.97 23.13"/><polygon class="cls-3" points="87.14 23.02 87.14 23.13 87.08 23.18 87 23.5 87 23.16 87.14 23.02 87.14 23.02"/><path class="cls-2" d="M117.08,65.21v.21h0v.1a1,1,0,0,0-.25.66V67M46.18,67v.18c.39,0,.19.59.44.56v.13a.47.47,0,0,1,.36.54c-.23,0-.36,0-.36.09s.06.08.13.09.15.16,0,.17M45,65.2v.2h.06v.11a1,1,0,0,1,.25.66v.77"/><path class="cls-5" d="M81.11,76.92c-2.58,0-10.4.57-12.29,5.65H67.44c-.89,2-4,2.92-7.87,3v-.69h-.15v-.25c4.11-.09,7-.73,7.25-2.92H68.1c1.71-4,7.68-5.6,13-5.65s11.32,1.6,13,5.65h1.42c.27,2.2,3.15,2.83,7.25,2.92v.22h-.15v.67c-3.91,0-7-.93-7.87-3H93.36c-1.88-5.09-9.71-5.66-12.29-5.66h0Z"/><path class="cls-10" d="M59.58,85c4.07-.09,6.92-.76,7.33-3h1.4c1.9-4.93,10.09-5.7,12.81-5.64S92,77.06,93.94,82h1.4c.41,2.19,3.24,2.87,7.32,3m-43,.59c0,.09.09.18.11.38h.17c3.55-.09,6.81-1,7.68-3H69c1.44-4.47,7.94-5.7,12.09-5.68S91.76,78.5,93.2,83h1.4c.87,2,4,2.88,7.6,3h.26c0-.13.06-.26.1-.39"/><path class="cls-1" d="M29.57,136.08a25.26,25.26,0,0,0,.51,3.68,7.24,7.24,0,0,0,4.14,1.16c2.94,0,5.17-1.88,5.17-4.29a4.28,4.28,0,0,0-2.47-3.8l-2.47-1.49a3.35,3.35,0,0,1-1.85-2.73A2.57,2.57,0,0,1,35.1,126h.12c1.68,0,2.72,1.22,3,3.62h.39a26.13,26.13,0,0,1,.23-3.25,6.64,6.64,0,0,0-3.42-.94c-2.81,0-4.76,1.83-4.76,4.15,0,1.56.87,2.79,2.67,3.85l1.71,1a3.72,3.72,0,0,1,2.18,3.19,2.67,2.67,0,0,1-2.71,2.63h-.14c-2.11,0-3.66-1.43-4.42-4.17h-.39Z"/><path class="cls-1" d="M57.22,136.1v-9.67h1.59c2.38,0,3.55.75,4.06,2.81l.34-.06L62.85,125h-.19l-.7.68H50.38l-.63-.68h-.27l-.41,4.1.37.06c.57-2.17,1.72-2.77,4.24-2.77h1.47v9.67c0,1.7-.06,2.72-.57,3.21a4.33,4.33,0,0,1-2.34.87v.37c1.32,0,2.61-.06,3.94-.06s2.62,0,3.91.06v-.37a4.26,4.26,0,0,1-2.32-.87c-.55-.47-.55-1.49-.55-3.2Z"/><path class="cls-1" d="M71.87,140.56c.9,0,1.86-.06,2.84-.06s2.06,0,3.15.06v-.37c-1.64,0-2.43-.44-2.43-1.36a12.36,12.36,0,0,1,.81-3.26l.41-1.21h5l1.13,3.14a4.89,4.89,0,0,1,.31,1.45c0,.64-.6,1.15-1.7,1.23v.37c1.07,0,2.13-.06,3.17-.06s2.13,0,3.17.06v-.37c-1.62-.07-2.15-.9-2.81-2.66l-4.7-12.7A3.1,3.1,0,0,1,78.71,126l.09.42-2.43,6.43c-1.41,3.74-2.17,5.93-2.68,6.51a3,3,0,0,1-1.86.83v.37h0ZM77,133.44l2.13-5.9,2.21,5.9Z"/><path class="cls-1" d="M104.13,136.1v-9.67h1.59c2.39,0,3.55.75,4.07,2.81l.34-.06-.36-4.15h-.16l-.71.68H97.33l-.64-.68h-.27l-.41,4.1.37.06c.58-2.17,1.73-2.77,4.24-2.77h1.47v9.67c0,1.7-.07,2.72-.57,3.21a4.36,4.36,0,0,1-2.35.87v.37c1.32,0,2.61-.06,3.93-.06s2.62,0,3.92.06v-.37a4.19,4.19,0,0,1-2.32-.87c-.51-.49-.57-1.51-.57-3.21h0Z"/><path class="cls-1" d="M119.22,140.56h5c2.81,0,5.2,0,7.19.07a15.48,15.48,0,0,0,.81-4.37h-.33c-.5,2.59-1.88,3.79-4.39,3.79-2.92,0-3.47-.66-3.47-2.83v-3.79h2.19c2.12,0,3,.41,3.19,2h.32v-1.24c0-1.34,0-2.57.09-3.77h-.34c-.28,1.72-1.17,2.07-3.28,2.07h-2.15v-6.13h2.8c2.51,0,3.49.6,3.64,2.79h.31c.06-1.1.15-2.25.3-3.38H119.48v.38c2.24.09,2.58.9,2.58,3v8.15c0,2-.25,2.64-2.81,3v.37h0Z"/><path class="cls-3" d="M81.07,50c-11.57.22-26.08-.4-33.63.55l-.36-.24L46.9,50c.1-.06.11.1.2.1s.08-.09.12-.1a1,1,0,0,1,.18.1,1.15,1.15,0,0,1,.14-.17c.11,0,.08.16.18.15s0-.2.13-.22l.25.18c.09,0,0-.21.13-.22s.13.21.23.19a2,2,0,0,1,.1-.21,1.26,1.26,0,0,0,.28.19c.13,0,0-.24.14-.25a2.32,2.32,0,0,1,.3.22.83.83,0,0,1,.2-.22c.14,0,.08.21.22.21s0-.28.3-.26a1.61,1.61,0,0,0,.22.23,1.09,1.09,0,0,1,.24-.24c.15,0,.21.3.35.29s0-.3.26-.26a1,1,0,0,0,.34.22c.14,0,0-.21.25-.22s.14.22.29.22a2.22,2.22,0,0,1,.35-.25c.18,0,.23.26.42.26a.66.66,0,0,1,.33-.26,3.19,3.19,0,0,0,.38.26c.25,0,.08-.39.32-.4a1.5,1.5,0,0,0,.48.3,2,2,0,0,0,.3-.34,1,1,0,0,0,.52.24,1.22,1.22,0,0,1,.36-.27c.2,0,.25.32.45.31a2.75,2.75,0,0,1,.4-.26,3.33,3.33,0,0,0,.5.25,1.74,1.74,0,0,1,.4-.23,2.31,2.31,0,0,0,.51.22c.13-.1.26-.21.4-.3a3,3,0,0,0,.55.31,2.41,2.41,0,0,1,.5-.33,2.54,2.54,0,0,0,.55.32,3.58,3.58,0,0,1,.45-.31c.27,0,.29.32.55.32a2.3,2.3,0,0,1,.47-.35,1.76,1.76,0,0,0,.61.31,1.86,1.86,0,0,1,.47-.32c.29,0,.25.34.59.36a2.69,2.69,0,0,1,.41-.33c.25,0,.32.28.51.29a2.5,2.5,0,0,0,.56-.35l.62.31a1.64,1.64,0,0,0,.55-.26c.34,0,.29.26.62.26a5.2,5.2,0,0,1,.53-.26,2.7,2.7,0,0,0,.61.25,5.07,5.07,0,0,1,.55-.34,1.94,1.94,0,0,0,.58.32c.21,0,.35-.28.56-.28a4.87,4.87,0,0,0,.71.3,5.5,5.5,0,0,1,.6-.28c.3,0,.34.32.62.32s.32-.33.66-.34.32.3.55.3a3,3,0,0,1,.65-.31,2.24,2.24,0,0,0,.63.29c.41,0,.24-.36.64-.35s.31.37.61.37.3-.32.6-.31a4.51,4.51,0,0,0,.63.29c.32,0,.33-.34.66-.34s.31.29.67.3.31-.32.62-.31.32.28.61.3c.45,0,.3-.36.73-.33s.34.32.61.31.3-.35.67-.34.28.33.63.32.28-.31.65-.32.26.33.66.34.29-.29.6-.31.29.35.74.33c.2-.11.4-.21.61-.3s.32.32.61.31.31-.29.67-.3.36.36.67.36a4.51,4.51,0,0,0,.63-.29c.3,0,.28.32.61.31s.27-.33.6-.34.24.34.64.35a2.24,2.24,0,0,0,.63-.29,3.54,3.54,0,0,1,.65.31c.24,0,.34-.32.6-.31s.36.26.64.26.32-.3.61-.32a3.7,3.7,0,0,1,.55.31,4.55,4.55,0,0,0,.72-.3c.2,0,.35.29.56.28a1.94,1.94,0,0,0,.58-.32,5.07,5.07,0,0,1,.55.34,2.88,2.88,0,0,0,.62-.28,4.49,4.49,0,0,1,.54.26c.33,0,.28-.27.62-.26a1.64,1.64,0,0,0,.55.26c.2-.11.41-.21.62-.31a2.5,2.5,0,0,0,.56.35c.19,0,.26-.27.51-.29a2.83,2.83,0,0,1,.45.32c.34,0,.31-.36.59-.36a1.94,1.94,0,0,1,.44.31,1.76,1.76,0,0,0,.61-.31,2.32,2.32,0,0,1,.46.35c.26,0,.28-.31.55-.32a3.58,3.58,0,0,1,.45.31,2.61,2.61,0,0,0,.56-.32,2.34,2.34,0,0,1,.49.33,3.43,3.43,0,0,0,.56-.31,4,4,0,0,1,.39.3,2.62,2.62,0,0,0,.52-.22,1.48,1.48,0,0,1,.39.31,3.49,3.49,0,0,0,.58-.29,2.82,2.82,0,0,1,.33.36c.2,0,.25-.32.45-.31a1.54,1.54,0,0,1,.36.36,1,1,0,0,0,.53-.34,2,2,0,0,0,.3.34,1.32,1.32,0,0,0,.48-.29c.24,0,.07.36.31.4a2.33,2.33,0,0,0,.38-.26c.28,0,.1.3.23.3s.27-.3.45-.3a1.13,1.13,0,0,1,.24.3c.15,0,.24-.26.4-.25s.12.33.27.33a1.58,1.58,0,0,0,.39-.24c.27,0,.1.3.23.3s.17-.3.32-.31a1.28,1.28,0,0,1,.23.29,1.33,1.33,0,0,0,.27-.26c.26,0,.1.31.24.31s.14-.25.28-.26,0,.27.12.26.25-.17.38-.25,0,.26.09.28a1.46,1.46,0,0,0,.33-.22,1.05,1.05,0,0,1,.06.24c.09,0,.17-.23.27-.22s0,.25.09.25l.28-.22c.1,0,0,.28.06.3s.14-.23.25-.22.07.16.1.23a.76.76,0,0,0,.23-.13,1.09,1.09,0,0,1,.08.15.48.48,0,0,1,.24-.07c.09.06-.1.19-.12.28s0,.31-.17.29c-11.4-1.1-22.5-.63-33.77-.93h0Z"/><path class="cls-5" d="M53.06,89.14c.14,0,.09.34.22.34h6.54a1.35,1.35,0,0,0,.17-.34"/><path class="cls-10" d="M60,88.45H53.06v.69H60v-.69h0Zm-6.92.69c.14,0,.09.34.22.34h6.53a1.35,1.35,0,0,0,.17-.34"/><path class="cls-10" d="M60,85.82v2.27m42.25-2.27v2.32"/><line class="cls-11" x1="25.41" y1="121.66" x2="137.54" y2="121.66"/><path class="cls-2" d="M81.07,84.25l1.15,1.88a1.33,1.33,0,0,1,1.86.27,1.26,1.26,0,0,1,.25.58h2.45l-1.37,2.13A1.43,1.43,0,0,1,86,91a1.34,1.34,0,0,1-.63.59l1.15,1.92H84.14A1.45,1.45,0,0,1,82.73,95a1.35,1.35,0,0,1-.59-.11L81,96.83l-1.16-2.08a1.66,1.66,0,0,1-2.07-1.11s0,0,0-.08H75.46l1.31-1.88a1.54,1.54,0,0,1-.19-2.19,1.8,1.8,0,0,1,.19-.2L75.42,87h2.65A1.21,1.21,0,0,1,79.3,85.8,1.26,1.26,0,0,1,80,86l1.07-1.79h0Z"/><path class="cls-8" d="M81.07,84.88l1.05,1.7a1.19,1.19,0,0,1,1.64.24,1.25,1.25,0,0,1,.22.55h2.13l-1.27,1.92a1.21,1.21,0,0,1,.59,1.6,1.15,1.15,0,0,1-.59.58l1,1.67h-2a1.25,1.25,0,0,1-1.18,1.32,1.15,1.15,0,0,1-.55-.1l-1,1.6-1-1.75a1.33,1.33,0,0,1-1.75-.72,1.29,1.29,0,0,1-.08-.28h-2l1-1.7a1.32,1.32,0,0,1-.21-1.86,1.45,1.45,0,0,1,.21-.22l-1.19-2,2.27-.07a1.09,1.09,0,0,1,1.73-.84l1-1.62h0Z"/><path class="cls-8" d="M81.08,86.57l.73,1.19a.84.84,0,0,1,1.33.53h1.55l-.86,1.39a.89.89,0,0,1,.38,1.2.82.82,0,0,1-.38.38l.72,1.21H83.08a.93.93,0,0,1-.91.94.8.8,0,0,1-.34-.07l-.71,1.2-.73-1.32a1,1,0,0,1-1.27-.61.57.57,0,0,1,0-.14H77.62l.79-1.23a1,1,0,0,1-.09-1.41l.09-.09-.83-1.43h1.64a.76.76,0,0,1,.77-.74.78.78,0,0,1,.45.15l.68-1.13h0Z"/><path class="cls-12" d="M52.91,88.08h6.91v-1h-.94v-3.4l-.66-.43c0-.65-.83-1.08-.83-.51l-1-.55c0-.52-.92-1.17-1-.56l-.94-.54c0-.53-1-1.2-.92-.52L52.61,80c0-.73-.92-1.08-.89-.48L50.85,79c0-1-.87-1.3-.87-.52L49.22,78c0-1-.93-1.16-.92-.55l-1-.62c0-.63-.89-.88-.87-.31h-1a.46.46,0,0,0-.92,0h-1a.45.45,0,0,0-.89,0h-.4V73.16h-.61c-.1-.42-.68-.45-.71,0H39.16a.32.32,0,0,0-.26-.37.32.32,0,0,0-.37.26.2.2,0,0,0,0,.11H36.77a.34.34,0,0,0-.68,0H34.25a.31.31,0,0,0-.62,0H31.92a.35.35,0,0,0-.69,0h-.81V88.57H52.91Z"/><polygon class="cls-5" points="77.39 33.67 75.64 33.8 75.64 34.98 77.39 34.9 77.39 33.67 77.39 33.67"/><polygon class="cls-5" points="60.13 88.13 52.92 88.13 52.92 88.34 60.13 88.34 60.13 88.13 60.13 88.13"/><path class="cls-1" d="M82.66,16.68a4.5,4.5,0,0,1,.73.15v.08a8.14,8.14,0,0,1,1.1.44l-.07.1a11.25,11.25,0,0,1,1.21.83l-.09.12a8.59,8.59,0,0,1,1,1l-.09.09a7.6,7.6,0,0,1,.81,1.22l-.14.11a5.19,5.19,0,0,1,.44,1.31c0-.17-.13,0-.21,0a.83.83,0,0,0-.18-.13l-.35.07a1,1,0,0,1-.26-.16c-.16,0-.27.08-.43.08a.68.68,0,0,1-.21-.17l-.47.09a1.79,1.79,0,0,0-.39-.2l-.47.09c-.33,0-.09-.16-.47-.16a3.93,3.93,0,0,1-.75.13,2.05,2.05,0,0,1-.58-.18c-.38,0-.25.15-.57.15s-.16-.11-.44-.12c-.48,0-.09.17-.67.18-.29,0-.28-.21-.62-.19a2.85,2.85,0,0,1-.54.18c-.32,0-.18-.13-.56-.13a3.22,3.22,0,0,1-.68.17c-.25,0-.27-.12-.51-.12a2.35,2.35,0,0,1-.43.19,4.91,4.91,0,0,0-.51-.15,1.28,1.28,0,0,1-.53.21l-.5-.12a1,1,0,0,1-.37.2l-.38-.12a2.33,2.33,0,0,1-.34.2c-.11,0-.15-.1-.3-.09l-.15.13s-.1-.1-.17,0-.08.16-.13,0c.16-.41.35-.82.55-1.23l-.11-.09a8.66,8.66,0,0,1,.76-1.23l-.09-.1,1-1-.07-.12a10.37,10.37,0,0,1,1.16-.8v-.14c.31-.14.85-.34,1.18-.46v-.1l.8-.2a9.61,9.61,0,0,1,3.12,0h0Z"/><path class="cls-3" d="M81,13.75a.67.67,0,0,1,.65.67.63.63,0,0,1-.09.33c-.24.28-.23.49,0,.51s.07.08,0,.14.08.1,0,.17,0,.08,0,.11c0,.47.62.66,1.1.88v.12A13.12,13.12,0,0,0,81,16.54a10,10,0,0,0-1.44.14v-.07a1.12,1.12,0,0,0,1-.88c-.07,0,0-.07,0-.11v-.17s-.12-.11,0-.14.24-.23,0-.51a.65.65,0,0,1,.23-.9.71.71,0,0,1,.32-.1h0Z"/><path class="cls-3" d="M81,13.75a.67.67,0,0,1,.65.67.63.63,0,0,1-.09.33c-.24.28-.23.49,0,.51s.07.08,0,.14.08.1,0,.17,0,.08,0,.11c0,.47.62.66,1.1.88v.12A13.12,13.12,0,0,0,81,16.54a10,10,0,0,0-1.44.14v-.07a1.12,1.12,0,0,0,1-.88c-.07,0,0-.07,0-.11v-.17s-.12-.11,0-.14.24-.23,0-.51a.65.65,0,0,1,.23-.9.71.71,0,0,1,.32-.1h0Z"/><polygon class="cls-6" points="48.84 59.12 48.84 59.38 44.22 59.7 44.24 60.65 42.01 60.98 41.99 61.52 119.92 61.51 119.92 61.02 117.82 60.66 117.82 59.72 113.4 59.38 113.4 59.12 48.84 59.12 48.84 59.12"/><path class="cls-2" d="M115.34,61.47H120V65h-4.64V61.47h0Zm0,0H103V65h12.34V61.47h0Zm-12.12,7.41,12.13-.13V77l-12.2,7.08.07-15.19Zm-44.45,0h44.45"/><path class="cls-12" d="M109.13,88.41v-.33h-6.66v-1h.63v-3.4l.69-.41c0-.65.83-1.09.83-.51l1-.55c0-.52.92-1.17,1-.56l.93-.54c0-.53,1-1.2.92-.52l.93-.57c0-.73.92-1.09.89-.48l.87-.52c0-1,.87-1.3.87-.53l.81-.44c0-1,.93-1.15.92-.54l1-.63c0-.62.88-.87.86-.31h1a.46.46,0,0,1,.92,0h1a.45.45,0,0,1,.89,0h.47V73.14h.62a.35.35,0,0,1,.7,0h1.71a.32.32,0,0,1,.64,0h1.65a.35.35,0,0,1,.69,0h1.85a.31.31,0,0,1,.62,0h1.71a.35.35,0,0,1,.69,0H132V88.42H109.13Z"/><path class="cls-1" d="M81.09,87,81.75,88a.71.71,0,0,1,1,0,.69.69,0,0,1,.2.48h1.39l-.77,1.16a.81.81,0,0,1,.34,1.08.7.7,0,0,1-.34.34l.66,1.13H82.89a.78.78,0,0,1-.67.87.72.72,0,0,1-.45-.09l-.63,1.08-.66-1.18a.81.81,0,0,1-1.1-.35.9.9,0,0,1-.09-.33H78l.71-1.11a.8.8,0,0,1-.25-1.1,1,1,0,0,1,.25-.25L78,88.49h1.5c-.08-.69.59-.86,1.09-.53l.62-1h-.07Z"/><path class="cls-8" d="M81.07,84.26v3.31M75.42,87l2.87,1.82m-2.78,4.78,2.55-1.36M80,86.06l.47,2m-2.42-1,1.34,1.59m2.85-2.52-.5,1.93M84.32,87,82.9,88.54m2.52.57-1.9.63m1.83,1.89-1.86-.48m3,2.39L84,92.14m.19,1.4-1.39-1.35M81.7,93l.52,1.91m-1.1-1.12v3m-.64-3.9L80,94.7m-.74-2.46L77.8,93.53m.83-2.39-1.9.49m2-1.82-2-.57M86.79,87,84.15,88.6"/><polygon class="cls-5" points="101.83 88.17 109.04 88.17 109.04 88.39 101.83 88.39 101.83 88.17 101.83 88.17"/><path class="cls-10" d="M102,88.49h6.92v.69H102v-.69Zm6.92.69c-.14,0-.08.34-.21.34h-6.54a1.2,1.2,0,0,1-.17-.34"/><path class="cls-13" d="M30.38,88.57V40.68c0-24.08,27-39.8,50.68-40.13S132,16.55,132,40.68V88.57"/><path class="cls-14" d="M29.75,145H132.28v13.87H29.75V145Zm3.47,4.63c0-1.12-.07-1.19-.61-1.3l-.3-.06a.29.29,0,0,1,0-.41h3.54a.36.36,0,0,1,0,.42h-.29c-.55.09-.61.19-.61,1.32v2.79c0,1.41.16,3,2,3,1.55,0,2-1.36,2-3v-1.46a8.23,8.23,0,0,0-.18-2.21.86.86,0,0,0-.7-.39l-.33-.06a.36.36,0,0,1,0-.42h3a.36.36,0,0,1,0,.42h-.22a.83.83,0,0,0-.65.4,9.13,9.13,0,0,0-.18,2.21v1.35a4.18,4.18,0,0,1-.77,2.91,3.2,3.2,0,0,1-2.39.87,3.64,3.64,0,0,1-2.39-.68,3.36,3.36,0,0,1-.87-2.64v-3.05Zm18.39,4.18v1.94a1,1,0,0,1-.72.28,15.93,15.93,0,0,0-1-1.32l-2.67-3.46a19.71,19.71,0,0,0-1.33-1.57,2.06,2.06,0,0,0-.06.78v2.34A8.16,8.16,0,0,0,46,155a.78.78,0,0,0,.7.39h.34a.4.4,0,0,1,0,.42h-3a.36.36,0,0,1,0-.42h.21A.74.74,0,0,0,45,155a8.16,8.16,0,0,0,.17-2.21v-3.07a2.83,2.83,0,0,0-.09-1,.78.78,0,0,0-.69-.41l-.34-.05a.32.32,0,0,1,0-.42h2.66a10.32,10.32,0,0,0,2,2.76l1,1.2c.53.63.88,1.05,1.16,1.33a1.69,1.69,0,0,0,0-.55v-1.66a8.23,8.23,0,0,0-.18-2.21.82.82,0,0,0-.7-.39l-.33-.05a.4.4,0,0,1,0-.42h3a.4.4,0,0,1,0,.42h-.22a.77.77,0,0,0-.66.4,8.23,8.23,0,0,0-.18,2.21v2.89Zm7.16.28c0,1.14.07,1.22.63,1.31l.33.06a.33.33,0,0,1,0,.42H56.08a.36.36,0,0,1,0-.42l.34-.06c.55-.09.63-.17.63-1.31v-4.41c0-1.14-.08-1.21-.63-1.31l-.34-.06a.36.36,0,0,1,0-.42h3.66a.33.33,0,0,1,0,.42l-.33.06c-.56.1-.63.18-.63,1.31v4.41Zm9.76-1.23c-.62,1.46-1,2.41-1.22,3.09a.72.72,0,0,1-.43.1.5.5,0,0,1-.33-.1c-.13-.32-.33-1-.5-1.37l-2-4.92c-.46-1.16-.52-1.18-.91-1.28l-.48-.12a.31.31,0,0,1,.05-.42h3.46a.36.36,0,0,1,0,.42l-.36.07c-.21,0-.3.12-.3.23a10,10,0,0,0,.47,1.33l1.07,2.72c.17.44.29.72.38.93.1-.21.24-.53.39-.9l.44-1.13c.31-.77.81-2.12,1-2.52a1.5,1.5,0,0,0,.12-.44c0-.08,0-.13-.32-.2l-.35-.08a.29.29,0,0,1,0-.41h2.62a.33.33,0,0,1,0,.42l-.31.06a.85.85,0,0,0-.67.42,12.88,12.88,0,0,0-1,2ZM76.8,151c0,.34,0,.36.34.36H78c.63,0,.78-.08.89-.67l.06-.3a.36.36,0,0,1,.44,0V153a.33.33,0,0,1-.44,0l-.06-.31c-.12-.58-.26-.68-.89-.68h-.75c-.33,0-.34,0-.34.38v1.43a2.15,2.15,0,0,0,.2,1.15c.16.22.38.32,1.26.32,1,0,1.46,0,2.13-1.4a.31.31,0,0,1,.41,0l0,0a6.7,6.7,0,0,1-.5,1.93H74a.33.33,0,0,1,0-.42l.56-.08c.55-.09.62-.16.62-1.28v-4.5c0-1.1-.07-1.17-.62-1.28l-.3-.06a.31.31,0,0,1,0-.42h5.92c0,.19.1,1.06.16,1.87a.31.31,0,0,1-.44,0h0a3,3,0,0,0-.46-1,1.63,1.63,0,0,0-1.18-.37h-1c-.4,0-.4,0-.4.47V151Zm8.33-1.18c0-1.21,0-1.34-.53-1.41h-.33a.28.28,0,0,1,0-.39.08.08,0,0,0,0,0c.91-.06,1.85-.11,3-.11a5.3,5.3,0,0,1,2.36.43,2,2,0,0,1,1.06,1.8,2,2,0,0,1-1.28,1.81c-.12,0-.12.13-.06.26a9.74,9.74,0,0,0,1.88,3,1.43,1.43,0,0,0,.8.34.21.21,0,0,1,0,.31,2.59,2.59,0,0,1-1,.11,2.44,2.44,0,0,1-2.34-1.27,13.67,13.67,0,0,1-1-1.87.62.62,0,0,0-.64-.42c-.43,0-.44,0-.44.26v1.48c0,1.12.07,1.2.61,1.29l.33.06a.4.4,0,0,1,0,.42H84.06a.33.33,0,0,1,0-.42l.32-.06c.54-.09.62-.17.62-1.29v-4.27Zm1.66,1.53c0,.43,0,.46.75.46a1.1,1.1,0,0,0,.92-.34,1.71,1.71,0,0,0,.44-1.3,1.6,1.6,0,0,0-1.39-1.78l-.19,0c-.5,0-.52,0-.52.62v2.35Zm10.6,4.68a4.06,4.06,0,0,1-2-.46,3.94,3.94,0,0,1-.39-2,.3.3,0,0,1,.42,0l0,0a2.57,2.57,0,0,0,2.08,1.9,1.2,1.2,0,0,0,1.31-1.1v-.12a2.42,2.42,0,0,0-1.65-1.92A2.77,2.77,0,0,1,95.33,150c0-1.37,1-2.31,2.8-2.31a5.34,5.34,0,0,1,1.38.19l.41.1a5.59,5.59,0,0,1,.3,1.71.33.33,0,0,1-.47,0h0a2,2,0,0,0-1.6-1.5,1.11,1.11,0,0,0-1.22,1,.45.45,0,0,0,0,.11,1.75,1.75,0,0,0,1.1,1.37l.8.43a2.78,2.78,0,0,1,1.71,2.43c0,1.56-1.31,2.52-3.09,2.52Zm9.4-2c0,1.14.07,1.22.63,1.31l.33.06a.36.36,0,0,1,0,.42H104.1a.33.33,0,0,1,0-.42l.33-.06c.56-.09.63-.17.63-1.31v-4.37c0-1.14-.07-1.21-.63-1.31l-.33-.06a.33.33,0,0,1,0-.42h3.65a.33.33,0,0,1,0,.42l-.33.06c-.56.1-.63.18-.63,1.31v4.37Zm7.35-5.3c0-.29,0-.35-.29-.35h-.75c-.88,0-1.14.49-1.5,1.36a.32.32,0,0,1-.38-.08,14,14,0,0,0,.4-2.05.44.44,0,0,1,.16-.06.34.34,0,0,1,.17.05c0,.21.1.25,1,.25h4.49c.8,0,1,0,1.09-.26a.38.38,0,0,1,.15,0,.37.37,0,0,1,.18.08,8.14,8.14,0,0,0-.18,2.08.36.36,0,0,1-.44,0c-.21-.78-.37-1.34-1.29-1.34h-.73c-.3,0-.33,0-.33.35v5.32c0,1.12.07,1.22.62,1.29l.49.06a.4.4,0,0,1,0,.42h-4a.33.33,0,0,1,0-.42l.54-.06c.55-.06.62-.17.62-1.29v-5.32Zm12.25,5.32c0,1.12.08,1.22.62,1.29l.48.06a.4.4,0,0,1,0,.42h-3.9a.36.36,0,0,1,0-.42l.42-.06c.54-.08.61-.17.61-1.29v-.6a2.51,2.51,0,0,0-.33-1.44l-1.43-3a1,1,0,0,0-.77-.76l-.41-.07a.26.26,0,0,1,0-.37l0-.05h3.47a.33.33,0,0,1,0,.42l-.41.1a.57.57,0,0,0-.29.11,3,3,0,0,0,.31.84l.57,1.29c.18.4.41.88.55,1.18.35-.59.69-1.3,1-1.91a5.05,5.05,0,0,0,.63-1.4c0-.07-.12-.12-.41-.17l-.27-.05a.31.31,0,0,1,0-.42h2.53a.3.3,0,0,1,0,.42l-.32.06a1,1,0,0,0-.58.29,13.25,13.25,0,0,0-1.06,1.72l-.57,1.42a2.72,2.72,0,0,0-.44,1.56v.84Z"/><path class="cls-15" d="M134.14,156.15h-1v-.37h2.34v.37h-1v2.68h-.41v-2.68Z"/><path class="cls-15" d="M136.27,158.83h-.38v-3.05h.59l.75,2.33.08.25a1.29,1.29,0,0,1,.06-.25l.79-2.33h.59v3.05h-.4v-2.6a1.76,1.76,0,0,1-.07.27l-.78,2.33h-.39l-.77-2.33a.48.48,0,0,0-.06-.27v2.6Z"/></svg>