<svg id="Layer_1" data-name="Layer 1" xmlns="http://www.w3.org/2000/svg" viewBox="0 0 66.9 70"><defs><style>.cls-1{fill:#fff;}.cls-2{fill:#041a37;}.cls-3{fill:none;}</style></defs><title>augusta-university_icon</title><path class="cls-1" d="M38.77,28H36.61a.11.11,0,0,0-.11.12,0,0,0,0,0,0,0,3.68,3.68,0,0,1,.23.71c0,.2.08.84.08,1a6.13,6.13,0,0,0,1.87,4.41.67.67,0,0,1,.2.48v1.54c0,.8-2.44,1.42-5.44,1.42S28,37.06,28,36.28V34.74a.68.68,0,0,1,.07-.28c.44-.54,2.42-1.18,7.2-.88,0,0-.25-.56-2.63-1.09a3,3,0,0,1-2.55-2.94,3.31,3.31,0,0,1,0-.63,3.68,3.68,0,0,1,.23-.71.11.11,0,0,0-.06-.15H28.14L25.76,39.73H41.15Z"/><path class="cls-1" d="M33.45,36.05a1.2,1.2,0,0,1-1.08-.67c-1.54.09-2.66.33-2.66.62s1.67.64,3.74.64,3.74-.29,3.74-.64-1.12-.53-2.66-.62a1.2,1.2,0,0,1-1.08.67Z"/><path class="cls-1" d="M52.19,12.48H14.7l-.65,3.18H52.86Z"/><path class="cls-1" d="M18.76,63.08l.55.3a30.25,30.25,0,0,0,28.27,0l.56-.3A30.28,30.28,0,0,0,63.79,36.58V3.12H3.13V36.55A30.29,30.29,0,0,0,18.76,63.08Zm26.49-2-3.13-9.27H24.78l-3.13,9.27c-.76-.37-1.5-.78-2.24-1.21l2.3-11.25-1.6-2.12H46.79l-1.6,2.12,2.29,11.25c-.73.43-1.47.84-2.22,1.21ZM25,22.69H41.9l-1.59,2.15,3,14.87h3.14l.44,2.14H20l.44-2.14h3.17l3-14.87ZM6.25,6.23H60.62V36.55a27,27,0,0,1-6.89,18.09l-6.83-33,2-2.59V18H18v1.07L20,21.65l-6.83,33a27.06,27.06,0,0,1-6.9-18.09Z"/><path class="cls-2" d="M0,36.55A33.44,33.44,0,0,0,33.43,70h0A33.44,33.44,0,0,0,66.9,36.58V0H0ZM3.13,3.12H63.78V36.55A30.3,30.3,0,0,1,48.12,63.08l-.55.3a30.06,30.06,0,0,1-28.23,0l-.55-.3A30.3,30.3,0,0,1,3.13,36.55Z"/><path class="cls-2" d="M20,21.65,18,19.06V18H48.88v1.07l-2,2.59,6.83,33a27.05,27.05,0,0,0,6.86-18.09V6.23H6.25V36.55a27,27,0,0,0,6.89,18.09Zm-5.26-9.17H52.21l.65,3.18H14.05Z"/><path class="cls-3" d="M18.76,63.08l.57.3"/><path class="cls-2" d="M46.79,46.5H20.11l1.6,2.12-2.3,11.25c.73.43,1.47.84,2.24,1.21l3.13-9.27H42.12l3.14,9.27c.77-.37,1.52-.78,2.24-1.21L45.21,48.62Z"/><path class="cls-3" d="M48.14,63.08l-.56.3"/><path class="cls-3" d="M36.61,28.07h0a.11.11,0,0,0-.06.14,3.56,3.56,0,0,1,.23.72,4.23,4.23,0,0,1,.08.95,6.13,6.13,0,0,0,1.92,4.37.63.63,0,0,1,.2.48v1.51c0,.79-2.43,1.43-5.43,1.43s-5.44-.63-5.44-1.43V34.72a.59.59,0,0,1,.07-.29c.44-.54,2.4-1.18,7.2-.88,0,0-.25-.56-2.63-1.08a3,3,0,0,1-2.55-2.95,3.31,3.31,0,0,1,0-.63,3.1,3.1,0,0,1,.23-.71s0,0,0,0a.11.11,0,0,0-.11-.12H28.14L25.76,39.74H41.15L38.77,28.07Z"/><path class="cls-3" d="M34,35.92a1.2,1.2,0,0,1-1.62-.54c-1.54.09-2.66.26-2.66.62s1.67.64,3.74.64,3.72-.28,3.74-.64-1.14-.53-2.66-.62A1.18,1.18,0,0,1,34,35.92Z"/><polygon class="cls-2" points="37.19 36 37.19 36 37.19 36.01 37.19 36"/><path class="cls-2" d="M46.47,39.7H43.33l-3-14.86,1.6-2.15H25l1.6,2.13-3,14.88H20.42L20,41.83H46.91Zm-20.71,0L28.14,28h2.15a.11.11,0,0,1,.11.12s0,0,0,0a3.1,3.1,0,0,0-.23.71,3.31,3.31,0,0,0,0,.63,3,3,0,0,0,2.55,2.95c2.38.52,2.63,1.08,2.63,1.08-4.8-.3-6.76.34-7.2.88a.59.59,0,0,0-.07.29v1.53c0,.8,2.43,1.43,5.44,1.43s5.43-.64,5.43-1.43V34.74a.63.63,0,0,0-.2-.48,6.13,6.13,0,0,1-1.92-4.37,4.23,4.23,0,0,0-.08-.95,3.56,3.56,0,0,0-.23-.72.11.11,0,0,1,.06-.14h2.2l2.38,11.67ZM37.19,36h0c0,.36-1.69.64-3.74.64s-3.74-.29-3.74-.64,1.12-.53,2.66-.62a1.2,1.2,0,0,0,1.62.54,1.18,1.18,0,0,0,.54-.54C36.05,35.47,37.17,35.71,37.19,36Z"/></svg>