<svg id="Layer_1" data-name="Layer 1" xmlns="http://www.w3.org/2000/svg" viewBox="0 0 70 70"><defs><style>.cls-1,.cls-5{fill:#231f20;}.cls-2,.cls-4{fill:#fff;}.cls-3{fill:none;}.cls-3,.cls-4,.cls-5{fill-rule:evenodd;}</style></defs><title>east-georgia-state-college_icon</title><path class="cls-1" d="M70,35A35,35,0,1,1,35,0,35,35,0,0,1,70,35Z"/><circle class="cls-1" cx="34.97" cy="34.87" r="32.7" transform="translate(-14 41.26) rotate(-52.36)"/><path class="cls-2" d="M57.4,34.8c0,12.78-10.09,23.14-22.55,23.14S12.3,47.58,12.3,34.8,22.4,11.66,34.85,11.66,57.4,22,57.4,34.8Z"/><path class="cls-3" d="M68.14,34.9A33.2,33.2,0,1,1,35,1.7,33.19,33.19,0,0,1,68.14,34.9Z"/><path class="cls-3" d="M58,34.88A23.06,23.06,0,1,1,34.93,11.82,23.05,23.05,0,0,1,58,34.88Z"/><path class="cls-4" d="M1.75,35.22A26.52,26.52,0,0,0,3.25,44H66.74a26.68,26.68,0,0,0,.15-17.2H3.1A26.55,26.55,0,0,0,1.75,35.22Z"/><path class="cls-1" d="M6.4,44.94V42.25l.82-.07.66-.1a2.24,2.24,0,0,0,.4-.08l.06-.06a1.2,1.2,0,0,0,.05-.41V29.16a1.47,1.47,0,0,0,0-.41h0l-.13-.08a2.05,2.05,0,0,0-.48-.18c-.26-.07-.45-.12-.58-.14l-.76-.12V25.6H20.25v6.27H18.2v7.7H15.77l-.09-.8a7.53,7.53,0,0,0-.26-1.14,3.4,3.4,0,0,0-.32-.82.75.75,0,0,0-.34-.29,1.88,1.88,0,0,0-.67-.11h-.5v4.15a5.72,5.72,0,0,0,.08,1.08.54.54,0,0,0,.09.25h0a.34.34,0,0,0,.18.06,5.5,5.5,0,0,0,1,.06h.79a6.34,6.34,0,0,0,.69-.06,3.75,3.75,0,0,0,.6-.15l.11,0A9.73,9.73,0,0,0,18,40.06a14.47,14.47,0,0,0,.71-1.74l.19-.65h2.32l-.35,7.27Zm7.69-11.46a1.79,1.79,0,0,0,.64-.1,1,1,0,0,0,.39-.33,2.42,2.42,0,0,0,.3-.71,7.32,7.32,0,0,0,.26-1.1l.1-.78h1.69a6.83,6.83,0,0,0-.56-1c-.46-.69-.76-.81-.84-.84a3,3,0,0,0-.59-.07l-.82,0H13.59v5Z"/><path class="cls-2" d="M19.35,26.5V31h-.73a7.25,7.25,0,0,0-1-2,2.62,2.62,0,0,0-1.35-1.2,3.57,3.57,0,0,0-.8-.11l-.85,0h-2v6.76h1.4a2.69,2.69,0,0,0,1-.16,1.71,1.71,0,0,0,.78-.61,3.37,3.37,0,0,0,.45-1,6.74,6.74,0,0,0,.29-1.24h.73v7.31h-.73a8.58,8.58,0,0,0-.29-1.3,4.22,4.22,0,0,0-.45-1.08,1.64,1.64,0,0,0-.74-.61,2.79,2.79,0,0,0-1-.17h-1.4v5.05a6.94,6.94,0,0,0,.09,1.26,1.39,1.39,0,0,0,.34.71,1.2,1.2,0,0,0,.66.31,6.76,6.76,0,0,0,1.13.07h.81a4.74,4.74,0,0,0,.82-.08,4.12,4.12,0,0,0,.75-.18,1,1,0,0,0,.52-.36,9.85,9.85,0,0,0,1-1.85,16.31,16.31,0,0,0,.76-1.86h.69L20.05,44H7.3v-1c.18,0,.42,0,.73-.1a2.35,2.35,0,0,0,.65-.17,1.07,1.07,0,0,0,.49-.5,2.11,2.11,0,0,0,.12-.77V29.16a2.24,2.24,0,0,0-.1-.74,1.05,1.05,0,0,0-.51-.52,3.26,3.26,0,0,0-.7-.28l-.68-.16v-1H19.35m1.8-1.8H5.5V29L7,29.24l.48.12V41.24l-.35,0-1.64.15v4.41H21.76l.08-1.72.26-5.46.09-1.89H19.1v-4h2V24.7Zm-6.66,4.72h.17l.79,0,.32,0,.09.09H15l-.21,1.57a5.3,5.3,0,0,1-.22.94c0,.08-.05.14-.07.2V29.42Zm0,11.68c0-.13,0-.31,0-.54V37.69l.06.19a5.78,5.78,0,0,1,.23,1l.18,1.6h1.86c-.12.23-.22.4-.3.53l-.25,0a5.43,5.43,0,0,1-.6.05H14.51Z"/><path class="cls-1" d="M28.6,45.42a7.59,7.59,0,0,1-3.14-.66,7.27,7.27,0,0,1-2.59-2,9.39,9.39,0,0,1-1.7-3.15,13.49,13.49,0,0,1-.61-4.19,13.88,13.88,0,0,1,.57-4.06,9.8,9.8,0,0,1,1.68-3.3,7.56,7.56,0,0,1,2.69-2.18,8,8,0,0,1,3.5-.77,6.8,6.8,0,0,1,2.46.43,9.91,9.91,0,0,1,1.12.48L33,25.6h2.13l.11,8.2H32.74l-.17-.68a11.79,11.79,0,0,0-1.6-4,2.15,2.15,0,0,0-1.84-1c-.54,0-1.35.16-2,1.57A12.51,12.51,0,0,0,26.19,35a14.32,14.32,0,0,0,.91,5.69c.66,1.49,1.44,1.66,2,1.66a2.47,2.47,0,0,0,1.09-.23,3.5,3.5,0,0,0,.53-.33V38.62a1.06,1.06,0,0,0-.06-.4h0a.49.49,0,0,0-.13-.1,1.65,1.65,0,0,0-.48-.18l-.64-.15-.75-.12V35h8.86V37.7l-.79.1-.45.07a3.09,3.09,0,0,0-.41.15,1.12,1.12,0,0,0-.1.48v2c0,.4,0,.73,0,1l0,1.39-.37.28a10.85,10.85,0,0,1-3.08,1.53A11.43,11.43,0,0,1,28.6,45.42Z"/><path class="cls-2" d="M29,26a6,6,0,0,1,2.15.37,8.44,8.44,0,0,1,1.62.79l.6-.68h.83l.09,6.4h-.85a12.62,12.62,0,0,0-1.74-4.28,3,3,0,0,0-2.57-1.4,3.12,3.12,0,0,0-2.84,2.07,13.58,13.58,0,0,0-1,5.73,15,15,0,0,0,1,6.06c.65,1.46,1.58,2.19,2.78,2.19a3.34,3.34,0,0,0,2.52-1.09V38.62a2,2,0,0,0-.13-.74,1.1,1.1,0,0,0-.5-.53,2.77,2.77,0,0,0-.71-.28,6.61,6.61,0,0,0-.72-.16v-1h7.06v1c-.2,0-.38.05-.53.08a4,4,0,0,0-.58.2.84.84,0,0,0-.51.53,2.28,2.28,0,0,0-.13.78v2c0,.41,0,.74,0,1s0,.57,0,.94A10.17,10.17,0,0,1,32,43.86a10.41,10.41,0,0,1-3.44.66,6.77,6.77,0,0,1-2.77-.58,6.35,6.35,0,0,1-2.27-1.75A8.52,8.52,0,0,1,22,39.34a12.63,12.63,0,0,1-.56-3.91,13.12,13.12,0,0,1,.53-3.8,9,9,0,0,1,1.52-3,6.73,6.73,0,0,1,2.38-1.93A7.09,7.09,0,0,1,29,26m0-1.8a8.87,8.87,0,0,0-3.89.86,8.37,8.37,0,0,0-3,2.44,10.68,10.68,0,0,0-1.83,3.59,15,15,0,0,0-.61,4.32,14.44,14.44,0,0,0,.65,4.47,10.35,10.35,0,0,0,1.88,3.46,8.28,8.28,0,0,0,2.9,2.22,8.5,8.5,0,0,0,3.51.74,12.45,12.45,0,0,0,4-.76A11.68,11.68,0,0,0,36,43.89l.73-.56,0-.92c0-.37,0-.68,0-.92s0-.56,0-1V38.72l.17,0,1.58-.19V34.14H36.1V32.88L36,26.48l0-1.78H32.55l-.2.23-.57-.23A7.92,7.92,0,0,0,29,24.22Zm.06,17.25c-.19,0-.64,0-1.14-1.12A13.52,13.52,0,0,1,27.09,35a11.68,11.68,0,0,1,.83-4.94C28.43,29,28.9,29,29.13,29a1.26,1.26,0,0,1,1.11.65,10.93,10.93,0,0,1,1.46,3.67l.2.8H27.72v4.28l1.49.26.57.13v2.51h0a1.41,1.41,0,0,1-.69.14Z"/><path class="cls-1" d="M43,45.42A7.67,7.67,0,0,1,40.33,45,10.25,10.25,0,0,1,39,44.37l-.43.57H36.47l-.16-8.14h2.41l.19.63a16.75,16.75,0,0,0,.68,1.82,8.41,8.41,0,0,0,.9,1.63A4.8,4.8,0,0,0,41.59,42a1.9,1.9,0,0,0,1.16.35,1.56,1.56,0,0,0,1.31-.5,2.24,2.24,0,0,0,.48-1.49,1.73,1.73,0,0,0-.37-1.15,3.9,3.9,0,0,0-1.48-.95l-1.49-.63c-.47-.2-.91-.4-1.32-.61a5.47,5.47,0,0,1-2.44-2.41,7.39,7.39,0,0,1-.76-3.34,6.71,6.71,0,0,1,.4-2.28,6.28,6.28,0,0,1,1.18-2,5.6,5.6,0,0,1,1.92-1.38,6,6,0,0,1,2.51-.52,6.58,6.58,0,0,1,2.47.47c.37.16.7.31,1,.47l.36-.46h2.16l.1,7.78H46.55a5.72,5.72,0,0,1,2.11,2.06,6.67,6.67,0,0,1,.85,3.48A7,7,0,0,1,49,41.45a5.92,5.92,0,0,1-1.31,2.08,6.43,6.43,0,0,1-2.06,1.4A7.1,7.1,0,0,1,43,45.42ZM43,28.15a1.24,1.24,0,0,0-1,.45,1.88,1.88,0,0,0-.44,1.28A1.67,1.67,0,0,0,41.93,31a3.81,3.81,0,0,0,1.44.93c.48.22,1,.42,1.44.62s1,.42,1.37.62l.15.08-.16-.52c-.19-.63-.41-1.27-.65-1.91a9.4,9.4,0,0,0-.74-1.52,3.27,3.27,0,0,0-.84-.89A1.56,1.56,0,0,0,43,28.15Z"/><path class="cls-2" d="M42.69,26a5.34,5.34,0,0,1,2.12.41,7.52,7.52,0,0,1,1.55.81L47,26.5h.83l.08,6H47c-.19-.64-.41-1.3-.67-2a8.78,8.78,0,0,0-.82-1.68,4.12,4.12,0,0,0-1.08-1.15A2.5,2.5,0,0,0,43,27.25a2.15,2.15,0,0,0-1.69.76,2.74,2.74,0,0,0-.66,1.87,2.57,2.57,0,0,0,.57,1.72A4.7,4.7,0,0,0,43,32.77c.47.21.95.42,1.45.62s.93.41,1.31.6a5,5,0,0,1,2.11,1.91,5.86,5.86,0,0,1,.72,3,6.17,6.17,0,0,1-.41,2.2,5,5,0,0,1-1.11,1.77,5.34,5.34,0,0,1-1.77,1.2,6.05,6.05,0,0,1-2.35.42,6.77,6.77,0,0,1-2.32-.4,7.55,7.55,0,0,1-1.82-.95l-.66.87h-.82l-.12-6.34h.82a16.71,16.71,0,0,0,.71,1.9,10.24,10.24,0,0,0,1,1.8,5.82,5.82,0,0,0,1.31,1.35,2.8,2.8,0,0,0,1.69.52,2.46,2.46,0,0,0,2-.82,3.12,3.12,0,0,0,.69-2.07,2.56,2.56,0,0,0-.59-1.73A4.73,4.73,0,0,0,43,37.44l-1.48-.62c-.45-.19-.87-.38-1.27-.58a4.51,4.51,0,0,1-2-2,6.29,6.29,0,0,1-.67-2.93,5.68,5.68,0,0,1,.35-2,5.34,5.34,0,0,1,1-1.71,4.79,4.79,0,0,1,1.62-1.15A5.25,5.25,0,0,1,42.69,26m0-1.8a7,7,0,0,0-2.88.6,6.64,6.64,0,0,0-2.22,1.59,7.32,7.32,0,0,0-1.36,2.29,7.51,7.51,0,0,0-.45,2.59A8.24,8.24,0,0,0,36.64,35a6.84,6.84,0,0,0,.53.86H35.39l0,1.83.12,6.34,0,1.77h3.47l.25-.33c.22.1.46.2.71.29a8.47,8.47,0,0,0,2.95.52,7.88,7.88,0,0,0,3-.56,7.05,7.05,0,0,0,2.36-1.6,6.74,6.74,0,0,0,1.51-2.38,8,8,0,0,0,.53-2.85,7.71,7.71,0,0,0-1-4c-.15-.24-.31-.48-.48-.7h.72l0-1.82-.08-6,0-1.78H46.07l-.18.23-.39-.17a7.32,7.32,0,0,0-2.81-.54Zm2.16,7.38-1.11-.47a3,3,0,0,1-1.13-.7.78.78,0,0,1-.14-.55,1,1,0,0,1,.22-.69.36.36,0,0,1,.33-.14.65.65,0,0,1,.41.11,2.38,2.38,0,0,1,.6.65,8.43,8.43,0,0,1,.65,1.34l.17.45Zm-2.1,9.87a1.06,1.06,0,0,1-.64-.18,3.88,3.88,0,0,1-.88-.92,8,8,0,0,1-.82-1.48c-.11-.25-.21-.5-.3-.74.24.12.49.22.74.33l1.49.62a3.13,3.13,0,0,1,1.14.71.8.8,0,0,1,.16.57,1.28,1.28,0,0,1-.27.91c0,.05-.15.18-.62.18Z"/><path class="cls-1" d="M57.13,45.42a7.37,7.37,0,0,1-3.19-.71,7.62,7.62,0,0,1-2.58-2.06,9.71,9.71,0,0,1-1.65-3.17,13.37,13.37,0,0,1-.59-4,13.55,13.55,0,0,1,.59-4.06,10.46,10.46,0,0,1,1.7-3.29,7.75,7.75,0,0,1,2.65-2.19,7.38,7.38,0,0,1,3.33-.78,6.56,6.56,0,0,1,2.39.42,10.5,10.5,0,0,1,1.06.48l.37-.42h2.13l.11,8.2H61l-.17-.68a12,12,0,0,0-1.57-4,2.09,2.09,0,0,0-1.73-1c-.52,0-1.29.15-1.91,1.52A13.36,13.36,0,0,0,54.75,35a16.29,16.29,0,0,0,.3,3.38,7.41,7.41,0,0,0,.74,2.12,2.78,2.78,0,0,0,1,1,2.41,2.41,0,0,0,1.22.32,2.58,2.58,0,0,0,1.79-.71,7.76,7.76,0,0,0,1.69-2.54l.47-1,2.25,1.76L64,40a12.4,12.4,0,0,1-1,2.1,7.59,7.59,0,0,1-1.38,1.67A7,7,0,0,1,59.63,45,6.48,6.48,0,0,1,57.13,45.42Z"/><path class="cls-2" d="M57.39,26a5.64,5.64,0,0,1,2.06.36,7.17,7.17,0,0,1,1.57.8l.6-.68h.83l.09,6.4h-.85A12.5,12.5,0,0,0,60,28.59a2.86,2.86,0,0,0-5.18.68A14,14,0,0,0,53.85,35a17.46,17.46,0,0,0,.32,3.58A8.5,8.5,0,0,0,55,41a3.72,3.72,0,0,0,1.31,1.38,3.28,3.28,0,0,0,1.67.44,3.5,3.5,0,0,0,2.39-.94A8.55,8.55,0,0,0,62.29,39l.82.64a11.77,11.77,0,0,1-.94,2A6.51,6.51,0,0,1,61,43.07a5.94,5.94,0,0,1-1.67,1.07,5.67,5.67,0,0,1-2.16.38,6.35,6.35,0,0,1-2.8-.63,6.46,6.46,0,0,1-2.27-1.81,8.51,8.51,0,0,1-1.49-2.88A12.11,12.11,0,0,1,50,35.44a12.29,12.29,0,0,1,.55-3.78,9.47,9.47,0,0,1,1.55-3,6.77,6.77,0,0,1,2.34-1.93A6.44,6.44,0,0,1,57.39,26m0-1.8a8.16,8.16,0,0,0-3.73.88,8.55,8.55,0,0,0-3,2.43,11.67,11.67,0,0,0-1.85,3.58,14.34,14.34,0,0,0-.63,4.33,14.12,14.12,0,0,0,.63,4.31,10.31,10.31,0,0,0,1.82,3.47,8.17,8.17,0,0,0,6.46,3.1A7.5,7.5,0,0,0,60,45.8a7.7,7.7,0,0,0,2.18-1.39,8.67,8.67,0,0,0,1.55-1.87,13.41,13.41,0,0,0,1.08-2.25l.47-1.24-1-.82-.83-.64-1.8-1.41-.94,2.08a6.82,6.82,0,0,1-1.47,2.25A1.7,1.7,0,0,1,58,41a1.43,1.43,0,0,1-.77-.2,2,2,0,0,1-.66-.73,7,7,0,0,1-.63-1.86A15.72,15.72,0,0,1,55.65,35a12.48,12.48,0,0,1,.78-5c.45-1,.87-1,1.09-1s.53,0,1,.63A10.94,10.94,0,0,1,60,33.33l.33,1.37h4.08l0-1.82-.09-6.4,0-1.78H60.8l-.18.21-.52-.21a7.42,7.42,0,0,0-2.71-.48Z"/><path class="cls-1" d="M25,51.62v-.13a.77.77,0,0,0,.33-.07.32.32,0,0,0,.15-.31v-2.6a.31.31,0,0,0-.16-.32.89.89,0,0,0-.32-.06V48h3.1v1.09h-.13a1.21,1.21,0,0,0-.35-.72,1.59,1.59,0,0,0-.89-.19.55.55,0,0,0-.32.06.25.25,0,0,0-.07.2v1.24a.85.85,0,0,0,.63-.16,1.46,1.46,0,0,0,.25-.63h.13v1.81h-.13a1.13,1.13,0,0,0-.24-.64.84.84,0,0,0-.64-.19v1.3a.26.26,0,0,0,.09.23.72.72,0,0,0,.36.06,1.49,1.49,0,0,0,.84-.2,1.64,1.64,0,0,0,.58-.74h.15l-.22,1.11Z"/><path class="cls-1" d="M28.59,50.81h.14a.83.83,0,0,0,.3.54.7.7,0,0,0,.44.16.41.41,0,0,0,.3-.09.3.3,0,0,0,.1-.25.33.33,0,0,0-.1-.24.78.78,0,0,0-.19-.12l-.4-.19a1.32,1.32,0,0,1-.45-.34.69.69,0,0,1-.14-.43.73.73,0,0,1,.22-.54.8.8,0,0,1,.61-.22,1.63,1.63,0,0,1,.36,0l.24.06a.12.12,0,0,0,.09,0,.28.28,0,0,0,.05-.08h.11v.78h-.13a1,1,0,0,0-.25-.44.57.57,0,0,0-.41-.16.33.33,0,0,0-.26.1.3.3,0,0,0-.09.21.29.29,0,0,0,.08.19.8.8,0,0,0,.29.2l.29.14a1.38,1.38,0,0,1,.4.26.69.69,0,0,1,.21.51.83.83,0,0,1-.22.56.8.8,0,0,1-.65.26l-.21,0-.27-.08-.09,0-.06,0h0a.12.12,0,0,0-.08,0,.48.48,0,0,0-.08.12h-.12Z"/><path class="cls-1" d="M30.63,49.39v-.15a1.36,1.36,0,0,1,.17-.16,3.19,3.19,0,0,0,.26-.26,4.28,4.28,0,0,0,.45-.58h.13v.91h.52v.24h-.52V51a.36.36,0,0,0,0,.19.17.17,0,0,0,.17.12.25.25,0,0,0,.18-.08,1.33,1.33,0,0,0,.14-.2l.13.06a1.24,1.24,0,0,1-.23.36.74.74,0,0,1-.56.24.67.67,0,0,1-.33-.07.52.52,0,0,1-.28-.49V49.39Z"/><path class="cls-1" d="M32.66,50.92a.48.48,0,0,1,.32-.13.44.44,0,0,1,.46.46.48.48,0,0,1-.13.32.44.44,0,0,1-.33.13.44.44,0,0,1-.45-.45A.44.44,0,0,1,32.66,50.92Z"/><path class="cls-1" d="M35.37,51.49c.28,0,.45,0,.53-.11A.56.56,0,0,0,36,51V48.89a.63.63,0,0,0,0-.28.18.18,0,0,0-.17-.09l-.2,0a1.33,1.33,0,0,0-.24.08v-.14l1.36-.58h.09V51a.57.57,0,0,0,.1.4c.06.07.22.1.48.1v.13h-2Z"/><path class="cls-1" d="M37.86,51.56a2.1,2.1,0,0,0,.73-.28,1.78,1.78,0,0,0,.7-1.07l0,0-.17.05a1.27,1.27,0,0,1-.28,0,1,1,0,0,1-.7-.29,1.1,1.1,0,0,1-.28-.8,1.21,1.21,0,0,1,.35-.91,1.1,1.1,0,0,1,.81-.34,1.12,1.12,0,0,1,.9.42,1.69,1.69,0,0,1,.35,1.1,2,2,0,0,1-.8,1.66,2.73,2.73,0,0,1-1.58.59ZM39.25,50a.19.19,0,0,0,.09,0,.68.68,0,0,0,0-.19,2.55,2.55,0,0,0,0-.41c0-.18,0-.33,0-.47a1.79,1.79,0,0,0,0-.36.77.77,0,0,0-.09-.28.3.3,0,0,0-.54,0,1.56,1.56,0,0,0-.08.55,2.94,2.94,0,0,0,.11.91.4.4,0,0,0,.37.31Z"/><path class="cls-1" d="M40.71,48H43l-1.26,3.63h-.51l1-2.85s0,0,0,0h-1a.62.62,0,0,0-.37.08.69.69,0,0,0-.21.38h-.13Z"/><path class="cls-1" d="M44,51.17a.73.73,0,0,0,.43.26.44.44,0,0,0,.41-.19.85.85,0,0,0,.13-.45.9.9,0,0,0-.39-.75,2.71,2.71,0,0,0-.7-.33v-.09a1.73,1.73,0,0,0,.47-.22.58.58,0,0,0,.24-.49.49.49,0,0,0-.17-.4.56.56,0,0,0-.41-.15.6.6,0,0,0-.41.17,1.81,1.81,0,0,0-.23.28l-.11-.06a1.38,1.38,0,0,1,.36-.48,1.28,1.28,0,0,1,.87-.33,1,1,0,0,1,.6.19.7.7,0,0,1,.28.51.77.77,0,0,1-.1.4.69.69,0,0,1-.32.28v0a.92.92,0,0,1,.47.39,1,1,0,0,1,.15.54,1.31,1.31,0,0,1-.44,1A1.69,1.69,0,0,1,44,51.7a1.09,1.09,0,0,1-.57-.13.38.38,0,0,1-.24-.34.33.33,0,0,1,.09-.22.31.31,0,0,1,.27-.11A.72.72,0,0,1,44,51.17Z"/><path class="cls-2" d="M34.93,68.41A33.53,33.53,0,1,1,68.46,34.88,33.57,33.57,0,0,1,34.93,68.41Zm0-65.82A32.3,32.3,0,1,0,67.22,34.88,32.33,32.33,0,0,0,34.93,2.59Z"/><path class="cls-5" d="M36.85,16.12c-.09,0,0,0,0,.09s-.07.1-.23.07c0,.07.17,0,.2.09-.19.2-.64.05-1,.07a2,2,0,0,1-.51.22c-.05.05,0,.07,0,.14-.24.08-.4-.05-.67,0,0,.08.08.12.13.18A.53.53,0,0,1,35,17c0,.08.05.09,0,.16l-.2.05c0,.07.1.1.1.18.21-.06.43-.11.51-.25s.11,0,.1.07.13-.1.19-.14.08.19.32.14a1.77,1.77,0,0,1,0,.2c.14,0,.12-.06.25,0s.07,0,.16,0c0,.24.36,0,.42.05-.09.33-.68.3-.87.57.18.07.24-.14.45-.12a.49.49,0,0,0,.2.32c.11,0,.05-.16.22-.13s-.21.34-.16.48.15-.11.29-.1c.06.38-.57.32-.93.46a.28.28,0,0,0,.29.05c0,.07.11.07.16.11s0,.05,0,.09a9.59,9.59,0,0,1-1.06,0,0,0,0,0,1,0,0c0,.06,0,.09.13.09s.06,0,.07-.06a.71.71,0,0,0,.35.06c0,.13-.26,0-.29.12s.11.07.16.11a.3.3,0,0,0,0,.19,1.89,1.89,0,0,1-.35,0s-.07.06-.1.09c.59.1.74-.3,1.16-.39a.21.21,0,0,1,.06.21c.08,0,.18-.2.35-.09-.06.11-.11.28-.25.27s.13.13,0,.21.14,0,.16.06.27-.19.42-.06c0,.14-.34.11-.42.22s.2.07.26.14,0,.07-.13.07.09,0,.06.11a.58.58,0,0,1-.19,0c0,.13.16,0,.23.13a.88.88,0,0,1-.91,0,.69.69,0,0,1-.32.07,1.76,1.76,0,0,0,.23.14.25.25,0,0,1-.13.09c.08,0,.2.05.13.14a1.25,1.25,0,0,0,.77-.09c.12,0,.21,0,.19.16.14,0,.2,0,.26,0s-.24.09-.39.11-.1.11,0,.12c-.19.05-.23-.21-.51-.16a3.42,3.42,0,0,1-.64.23.32.32,0,0,0,.19.15c.13,0,.2-.1.35-.11a1.48,1.48,0,0,0,.07.3,1.55,1.55,0,0,1,.41-.09c0,.06,0,.09-.09.09s.11,0,.13,0,0,0,0-.07a1,1,0,0,0,.77-.31c.09.06,0,.25,0,.31.12,0,.22-.07.36,0,0,.13-.23.13-.29.23s.11-.06.22,0c.19.3-.35.28-.61.34,0,.09.12.08.1.18a1.27,1.27,0,0,1-.61-.07c-.06.06-.2.06-.23.14a1.6,1.6,0,0,1-.73-.18c-.08,0-.07.12-.13.16-.24,0-.37-.1-.49,0-.35-.2-1.16-.08-1.51-.29a3,3,0,0,0-.86.13,7.52,7.52,0,0,1-2-.13c.09-.2.2-.25.32-.44.25,0,.25.12.39.16a1,1,0,0,1,.32,0c0-.24-.39-.26-.55-.41,0,0,0-.05,0-.09s.07,0,.19,0c0-.14-.15-.14-.16-.26a3,3,0,0,0-.68.14c-.13,0-.18-.08-.16-.2s.16,0,.16-.07-.4-.24-.25-.48h.12c.07.1.09.22.23.27s.12-.11.13-.23a.36.36,0,0,0,.26.05c.12-.12-.07-.21-.13-.27s.18-.09.32-.05c0,.25.28.29.45.41,0-.07-.06-.08,0-.16s.13-.07.25-.07.24.14.29.25a1.14,1.14,0,0,0,.48,0c-.06-.08-.25-.07-.22-.21.17,0,.2,0,.29-.07s0-.1,0-.18.16.13.29.16.11,0,.16-.07.22.12.35.05A2.85,2.85,0,0,0,32.48,20c0,.12.28,0,.29.16a.65.65,0,0,0-.26,0c0,.05.14,0,.19,0-.13.09-.52,0-.67.09,0-.07-.05-.06,0-.12a.29.29,0,0,1,.2,0s0,0,0-.05a1,1,0,0,1-.87.07.2.2,0,0,1,.19-.09c-.12-.11-.57-.09-.45-.3a1.13,1.13,0,0,0,.42,0c0-.14-.29-.17-.16-.32s.11.06.13.11.11,0,.16-.07a.94.94,0,0,0,.7.25c.13,0,.11-.15.23-.18s.27.11.42,0,0-.06,0-.07a.57.57,0,0,1,.25,0c0-.08,0-.08-.13-.09.13-.07,0-.09,0-.21s.06,0,.07,0c.26,0,.26.11.54.09,0-.16.33,0,.33-.21a1.1,1.1,0,0,0-1-.22c-.08.16-.53.26-.64,0-.18,0-.36.12-.61.05,0-.1,0-.09.09-.14-.1,0-.35-.06-.51-.12,0-.14.14-.18.26-.25,0,.15.28.21.41.1s.12.06.23.06,0,0,.06,0-.08-.13-.13-.18a.39.39,0,0,1,.33-.25s0,0,.06,0,0,.15-.06.2,0,0,.09,0-.07,0,0-.09.25,0,.29.07.21-.19.29-.3-.16-.09-.16-.18.07-.11.22-.07c0-.14.2-.13.19-.28.1,0,.15.05.17.12s.14-.11.19-.18.1,0,.13.06.1-.09.13-.16-.32-.09-.26,0-.63-.07-.74.09c-.1,0-.14,0-.26,0s.1,0,0-.1a1,1,0,0,1-.7-.11c0-.09,0-.11,0-.18.17,0,.19.08.29.11s0-.16-.06-.23.06,0,.16,0c-.06.26.54.26.68.12-.07-.07-.25-.16-.16-.28a1.52,1.52,0,0,0,.41.12c-.1-.13-.25-.28-.16-.41s.15.18.32.2,0-.12.07-.13a1.84,1.84,0,0,0,.25.09c.06-.05-.14-.1-.16-.16s.06-.1.1-.21.08,0,.16,0,0-.11.07-.1c-.16-.11-.32,0-.55,0,0,0,0-.05,0-.09a8.17,8.17,0,0,1-1-.05c-.08,0,.05,0,0,.09a.72.72,0,0,1-.32-.13c0-.09.17,0,.23,0s-.17-.21-.07-.3.07.1.13.14.23,0,.19-.05c.07.13.36.15.52.14.06-.2-.3-.33-.55-.43s-.31,0-.29-.12c.14,0,.09,0,.29,0,0-.09-.23-.11-.13-.23a1.68,1.68,0,0,0,.45.27c.09,0-.08,0,0-.11s.12,0,.13.05.06-.09.19-.07,0-.06,0-.12.07,0,.13,0c-.13-.21-.68-.19-.77-.48.15-.07,0-.23.13-.32a.85.85,0,0,1,.32.36s0,0,0-.07a.18.18,0,0,1,.13.14c.13,0-.06-.19.19-.16,0,.14.06.2.1.3s.13-.08.22,0c.06-.11-.13-.17-.13-.37.16,0,.18.14.32.16s0-.11,0-.13.08-.05.16-.05c-.3-.12-.6-.25-.64-.5a.52.52,0,0,0,.13-.5c.22,0,.18.16.42.13.07,0,.07-.05.06-.11s-.27-.05-.32-.14a.18.18,0,0,1,.16-.11c0-.15,0-.11.1-.18-.16,0-.22,0-.26-.19s.14,0,.19,0,.12.16.32.14,0-.08.1-.07c-.12-.08-.25-.16-.19-.37.1,0,.1,0,.16.05.13-.15-.14-.33,0-.46s.06.15.13.18.06,0,.1-.06a2.84,2.84,0,0,1,.19.79c.16,0,.17-.12.35-.11a.75.75,0,0,1-.35.48c0,.08.27,0,.35,0s-.07.08,0,.18c-.31,0-.36.24-.51.37.07.08.18-.08.25,0s0,.09-.06.14.26,0,.26.09H35s.15-.11.23-.07a.51.51,0,0,1-.1.25s.24,0,.29,0-.07.12-.09.18h-.26s0,.14-.16.14c.17.23.67,0,.74-.2s0,.11.13.13.08,0,.16,0-.11.19,0,.29.14-.08.2-.13-.08.38-.39.34v-.09c-.35.14-.8.08-1.12.23.1,0,0,.2,0,.2.15.26.74.07,1,0,.07,0,0,.11,0,.16.25,0,.48-.06.58-.19.2.11.35-.08.52,0,0,.09-.1.13-.2.16s.15-.06.16,0-.2.1-.32.14.09,0,.07.11-.17.08-.2.16a2.79,2.79,0,0,0,.91-.09C37.23,16.07,36.84,16.11,36.85,16.12Zm-1,4.42a.45.45,0,0,0,.32.09C36.12,20.48,36,20.51,35.85,20.54Zm-2.12-1.66c0-.09.14-.11,0-.14s-.07,0-.1.05S33.65,18.88,33.73,18.88Zm.68-5.07c0,.08.11.08.16,0S34.45,13.78,34.41,13.81Zm-.58.37c0-.09,0-.19-.2-.19S33.68,14.17,33.83,14.18Zm.09.09c.15,0,.12-.12,0-.09S33.93,14.23,33.92,14.27Zm-.06,0c-.11,0-.12,0-.23,0S33.87,14.34,33.86,14.22Zm.58.39a.36.36,0,0,0,.25-.07C34.66,14.39,34.41,14.46,34.44,14.61ZM34,15c-.13,0-.24-.12-.35-.05C33.72,15,34,15.17,34,15Zm-.58.27c0-.09-.07-.1-.16-.11S33.33,15.28,33.44,15.27Zm1.64-.07c.05,0,.18,0,.16,0S35.09,15.15,35.08,15.2Zm-1.83.37a.45.45,0,0,0,.61.18c-.09,0,0-.12.06-.11a.35.35,0,0,0-.19-.19C33.63,15.56,33.45,15.47,33.25,15.57Zm2.41.34c0,.16.22.22.38.18S35.91,15.85,35.66,15.91Zm-.32.27a.9.9,0,0,0-.71-.2c-.31.35.79.58,1.13.34C35.65,16.24,35.55,16.12,35.34,16.18Zm-1.71.92c0,.09.2.13.23,0S33.72,17,33.63,17.1Zm1.16.07c-.07,0-.1-.08-.22-.07S34.76,17.16,34.79,17.17Zm-.1.32c.13-.12-.14-.23-.25-.16C34.6,17.35,34.46,17.49,34.69,17.49Zm.13.27a1.66,1.66,0,0,0,.71-.11c.1.06,0,.14.06.22s.35,0,.42-.06-.06-.06,0-.12c-.27.07-.08-.19-.22-.2C35.46,17.55,35,17.55,34.82,17.76Zm-1.54.18s-.07.06-.06.12.3.09.29.25a.45.45,0,0,0,.22,0,.29.29,0,0,0,.23.09c.09-.11,0-.23.06-.36C33.78,18,33.63,17.9,33.28,17.94Zm1.19.39a.58.58,0,0,0,.64-.11.32.32,0,0,1-.19-.19C34.51,18,34.3,18.08,34.47,18.33Zm1.9.14c-.08,0-.07,0-.17,0,.09-.06,0,0-.06-.07s.07-.09,0-.11-.32,0-.38,0,.14-.14,0-.22c-.22.09-.52.13-.64.29.09,0,.24-.12.32,0s-.26.16-.13.2.14-.08.22-.11a.1.1,0,0,1,0,.16.61.61,0,0,0,.49-.09.2.2,0,0,0,.16.11.64.64,0,0,0,.38-.16s0-.06,0-.09c-.17,0-.11-.09-.26-.07S36.45,18.41,36.37,18.47Zm-3.83.16a1.32,1.32,0,0,0,.29,0c0-.12-.18-.09-.26-.14S32.53,18.57,32.54,18.63Zm.8-.07c0,.14.25.12.39.11s0-.07-.06-.11-.12,0-.2,0,.13.07,0,.09A.27.27,0,0,0,33.34,18.56Zm1.51.59s0,0,.07,0,.06.06.16,0,.08-.11.1-.18-.16-.09-.33-.07a.46.46,0,0,0-.35-.16.57.57,0,0,0,.29.66c.19,0,.32,0,.55,0,0-.1.18-.06.16-.16C35.32,19.48,34.89,19.41,34.85,19.15Zm-1.51.34c0,.08.1.1.2.12s.07-.07,0-.14A1.4,1.4,0,0,0,33.34,19.49Zm.17.76c0-.1,0-.12,0-.21s-.12-.05-.22,0S33.36,20.21,33.51,20.25Zm2.89-.05a.55.55,0,0,1,.32.09c0-.07.05-.07,0-.13S36.57,20,36.4,20C36.46,20.12,36.35,20.14,36.4,20.2Zm-.87-.07c.06.22.34,0,.61.07C36.08,20.07,35.72,20.11,35.53,20.13Zm-.16.14c0-.09-.07-.11-.13-.14S35.27,20.27,35.37,20.27Zm.77.18c.07,0,.16,0,.16.12h.16c-.12-.1,0-.07.1-.14A.55.55,0,0,0,36.14,20.45Zm-1.09.34c0,.25.34.32.54.19A.72.72,0,0,0,35.05,20.79Zm-3.5.41c.16,0,.26.16.16.23.19.15.32-.06.57-.07-.06-.18-.31-.23-.54-.29C31.75,21.17,31.59,21.14,31.55,21.2Zm.48.53a.65.65,0,0,0,.58.2c-.06-.11.15,0,.19-.09v-.09A3.41,3.41,0,0,0,32,21.73Zm-.1.36c.13,0,.2,0,.19-.11S31.93,22,31.93,22.09Zm-.71.05c.12,0,.16.05.23,0S31.26,22.08,31.22,22.14Zm-.25.09c0,.16.33,0,.45,0A1.36,1.36,0,0,0,31,22.23Z"/><path class="cls-5" d="M29.13,15.66c0-.07-.08-.08-.1-.13s.18-.11.14-.22,0,0-.09,0,0-.15-.07-.23c.16.06.12-.07.23,0s0-.08,0-.15,0,0,.07,0a.17.17,0,0,1,.18.07,1.79,1.79,0,0,0,0,.41.13.13,0,0,0,.09-.1h.14a.19.19,0,0,0,.12.13c0,.09-.13.08-.19.12s-.07.18-.09.28.26-.07.3-.17.15.06.16.14-.1.05-.18.05,0,.08,0,.14-.1,0-.09.1-.08,0-.05-.05,0,.05-.09,0,.06,0,.09,0a.15.15,0,0,0,0,.1c.14,0-.09.19,0,.27s.05,0,.12,0a.07.07,0,0,1,0-.12s-.05,0-.09,0,.12-.15.16-.23.05.05.05.09.06-.08.16-.08,0,.07,0,.12.08,0,.07,0,.1,0,.19,0-.06.07-.08.12c-.26,0-.3.09-.48.11,0,0,.08,0,.11,0s-.26.05-.37.08v.22c.18,0,.17-.12.26-.17s.07,0,.16,0,0,.08,0,.13c.18,0,.25-.1.26-.23.09,0,0,0,.12,0,.08.2,0,.32-.14.46.09,0,.1-.08.23-.07s0,0,0,.1c.18,0,.25-.24.47-.11,0,.07-.11.1-.21.11s.05,0,0,.07a2.65,2.65,0,0,1-.3.11c.13,0,.28,0,.3-.08s.19,0,.28,0-.08,0-.14,0,0,.05.07.06a1.33,1.33,0,0,0-.58.22s.09,0,.07.1-.17.08-.25,0c-.11.12-.53,0-.49.15,0,0,0,0,0-.05s.09,0,.16,0,0,.14.07.18,0-.07,0-.11.12.05.16.1.23-.14.35-.22.09.1.09.18,0-.06-.05-.06,0,.11-.07.18c.14,0,.32.06.4-.08s.15,0,.16-.07.09.11.09.2a.93.93,0,0,0-.25.1c.06.05.15-.08.21,0s-.16.09-.23.14.1-.07.2,0c-.15.27-1,.1-1.06.41a2.28,2.28,0,0,1,.67-.07s0,0,.05,0-.17.06-.24.1.09.06,0,.1a3.09,3.09,0,0,0,.46-.12c0,.1-.05.24-.23.24,0,0,0,0,0,.06s.22,0,.14.08c.13,0,.17-.09.34-.08-.08.15-.32.19-.51.27.06,0,.06.08.14,0a1.51,1.51,0,0,1-.62.14s0,0,0,0-.15.11-.26.14.12,0,0,0,.1,0,.09,0-.05,0-.09.05c.19.06.29-.08.51-.06-.05,0,0,0,0,.08a.27.27,0,0,1,.16,0c0-.1.05-.26.28-.25,0,0,0,0,0,.06s.13-.14.28-.15,0,.13,0,.2H31c0,.05.11,0,.09.09s-.14.19-.32.21a1.11,1.11,0,0,0,.58-.1c.07.05-.08.08,0,.13s.16-.1.32-.1-.12.1-.11.19c-.17,0-.3.06-.45.09.14.08.37,0,.52,0,0,0,0,0,0,.05s.23-.08.37-.1c0,.05.08,0,.12,0s-.14,0-.19.05.07,0,.1,0c-.06.2-.62.05-.7.23a.31.31,0,0,0-.37.18s.12,0,.16,0-.2.16-.28.25.07,0,.09-.05-.07.05-.06.09c.23.05.24-.19.48-.19.06.07,0,.07-.11.1s.07,0,0,.07c.17-.1.39-.16.49-.31.09,0,.17,0,.19,0s-.11,0-.17,0a.24.24,0,0,0,.1,0s0,0-.07,0,.06,0,.07.15h-.28c0,.08.14.05.14.13s-.14,0-.14.08-.17.05-.28,0,0,.1-.07.12-.17.11-.37.08c.09.1.31.11.49.15.08-.14.49-.19.41,0-.07,0-.06,0-.11,0s0,0-.05,0,0,0,0,0a1.12,1.12,0,0,1-.66.2c0,.07,0,.09.07.12s.17,0,.26,0c-.08,0,0,0-.07.08a3,3,0,0,1-.81-.07.3.3,0,0,0,.21.1.11.11,0,0,1-.07,0s.06,0,.09,0,0,.11-.07.1c.24.18.49-.1.72,0,0,.08-.13,0-.16.08s.1,0,.18,0-.27.09-.3.21a.67.67,0,0,1,.23,0c0-.06.19-.06.26-.11s.09,0,.14.06,0,0-.05,0,.27.05.42.05a.48.48,0,0,1-.42.34c0,.05,0,.11,0,.13.2,0,.31-.08.46,0a.08.08,0,0,0,0,.05h-.12c.1-.08-.08,0-.11,0s.12,0,.09.1c-.21-.08-.51,0-.63-.13s0,0-.07.06-.11-.08-.18,0,.16.06.09.13c.15.09.27,0,.44,0s.06.07.05.13-.07,0-.09.05a1.35,1.35,0,0,0,.67,0c.09.06,0,.1-.09.12s.11,0,.09,0v.05c-.05,0-.09,0-.16,0-.17.3-.81.27-1.28.28-.06,0-.05,0-.07.05s-.07,0-.12,0,0,0,0,0-.2,0-.28,0c-.24.11-.56-.15-.88-.07a1.71,1.71,0,0,0-1.24,0s0-.05,0-.07c-.25.15-.67-.08-.92.1a.77.77,0,0,1-.44-.08c-.19.08-.7.12-.72-.12.07,0,.08,0,.13,0-.11-.08-.27-.2-.23-.33s.14,0,.14.06.07,0,.16,0-.06,0,0,.08.08,0,.09.08,0-.1.07-.15a.91.91,0,0,1,.28.1.61.61,0,0,1,.23,0l-.18-.08a1.08,1.08,0,0,1-.19,0c0-.09.09-.06,0-.15a1.09,1.09,0,0,0,.28,0v-.1c-.06-.06-.21-.07-.25-.15s.13,0,.07-.11a1.09,1.09,0,0,1,.25.1.39.39,0,0,0,.21-.12.91.91,0,0,0,.46,0c-.13-.21-.52-.05-.81-.13-.07,0-.07,0-.14,0s-.31-.09-.42-.16c.06-.08-.06-.1,0-.17a.35.35,0,0,0,.26.1c0-.08-.23-.12-.16-.21a2.27,2.27,0,0,0,.3.06c-.14-.08-.27-.16-.42-.23s.05-.05.12-.05c-.09-.05-.09-.08-.1-.16s.17,0,.17.08a.07.07,0,0,0,0-.07.32.32,0,0,0,.24.15c.08,0,0-.11.07-.15l.23,0c0,.17.32.14.37.29h.09c0-.08-.11-.13-.07-.18a.94.94,0,0,1,.37.05c0-.07-.1-.08-.11-.15s.07,0,.18,0-.19-.19-.11-.32c.14.06.27.12.42.17s0,.05-.07.05c.14.12.47,0,.55-.07s0-.09-.11-.08a1.33,1.33,0,0,1,.3-.07v-.05a4.46,4.46,0,0,0-1.35.07c0,.13-.39.16-.42,0a.13.13,0,0,1,.12,0c0-.05-.05-.05,0-.1-.31,0-.58-.11-.4-.3.13,0,.18,0,.26.1s.12-.08.3-.07a.14.14,0,0,1,0-.21c.1,0,.14.12.25.15a.41.41,0,0,0-.07-.15c.12-.07.2-.08.1-.2.17,0,.31.23.55.27.05,0-.07-.07-.11-.09s-.13-.14-.14-.26.17.05.21-.07.1,0,.09.07a.25.25,0,0,1,.21,0c.1-.08,0-.23-.1-.26s-.33.09-.48.1-.3-.05-.19,0-.11,0-.16,0,.16-.13.25-.18-.15,0-.25,0-.08-.08,0-.12l-.47-.05s0,0,0-.05h-.16c0-.08-.06-.06-.07-.11a1.76,1.76,0,0,1,.46,0s0-.13.14-.1c0-.07-.12-.08-.14-.15s.16.05.26.07-.1-.08-.07-.15c.31.05.33.31.65.36,0,0,0-.05,0-.06s.07,0,.1,0a.23.23,0,0,1,0-.31c.06,0,.09,0,.16.05s.05.07.09.1,0-.07.09-.05a1.28,1.28,0,0,0,.26.16c.05,0,0-.07.05-.08s.15.07.18,0,.09.08.16.1a.25.25,0,0,1,.17,0c-.11-.27-.72-.18-.86-.43l-.44.08s0,0,0-.07c-.27.06-.63.07-.65-.16.07,0,.22,0,.26.1a1.81,1.81,0,0,1,.25,0c0-.06-.16,0-.14-.13a.74.74,0,0,0,.33,0,.5.5,0,0,0-.28-.2c-.08,0-.12.05-.21.05s.09,0,.11-.08-.34.07-.44,0,.12,0,.19,0,.08-.08.09-.15-.07,0-.14,0-.06-.1,0-.18.17.1.28,0a.55.55,0,0,0,.48.16c.06,0-.06-.05-.09-.07s.08,0,.09,0-.07-.09,0-.11-.14,0-.12-.1,0,.07.12.05-.18-.1-.1-.18a.48.48,0,0,0-.18-.05c0-.1-.15-.09-.21-.13s-.08-.15-.14-.22a2.48,2.48,0,0,0,.39,0c-.05,0,0-.09,0-.17.17,0,.2.15.26.25s0-.07,0-.1l.21,0a.36.36,0,0,0,.16.3c.06,0-.07-.06,0-.1a.23.23,0,0,1,.21.12,1.85,1.85,0,0,0,.61-.05c-.05-.08-.2-.07-.24-.15s0,.07-.09.05a1.56,1.56,0,0,1-.46-.35c-.2,0-.38,0-.4-.13h.12c-.07-.12-.13-.16-.14-.29a.62.62,0,0,1,.42.16c.14,0,.2,0,.25-.11s.06.1.07.16.11,0,.12.05,0-.06,0-.08.09,0,.09,0,0-.06,0-.07.09,0,.14,0-.1,0-.07-.08a.21.21,0,0,1,.12,0c-.27-.17-.75-.18-1-.35l.11,0a.27.27,0,0,0,0-.13c.08,0,0,.09.07.12.06-.21-.32-.23-.35-.43.13,0,0,0,0-.07.17,0,.19-.09.23,0,.12-.13-.1-.26-.05-.38s.12.1.21.14a.55.55,0,0,0,0,.23c.09,0,.1,0,.18,0s.11-.11.21-.07,0,.08,0,.15h-.12a.33.33,0,0,0,0,.2c.19-.07.5-.07.48-.25,0,0,0,.06-.09.07s-.18,0-.16-.12l.14.07s-.08-.09-.14-.1-.14-.19,0-.23c-.15-.06-.48-.09-.39-.27.12,0,.11.1.21.12s0-.06,0-.12.15.09.27.1,0-.17-.09-.16-.14-.15-.23-.22,0-.14.21-.13c0,.06,0,0-.07,0S29,15.63,29.13,15.66Zm-1.07,3.51c0-.05,0-.08-.12-.08A.18.18,0,0,0,28.06,19.17Zm1.3-3.08s0,0,.09,0v-.05C29.4,16.05,29.36,16.06,29.36,16.09Zm.07.14s.06-.09,0-.08S29.36,16.22,29.43,16.23Zm-.28.12c0-.06-.09-.12-.12-.1S29.08,16.34,29.15,16.35Zm-.7.3s0,0,0-.07l-.07,0S28.4,16.64,28.45,16.65Zm.72.28s.09-.16,0-.2S28.93,16.91,29.17,16.93Zm-.44.1c.06,0,.11,0,.12,0s0-.11-.09-.11,0,0-.05,0S28.72,17,28.73,17Zm.12-.14c0,.06,0,.08.09.09s0-.12-.05-.1S28.88,16.92,28.85,16.89Zm.69.22q.13,0,.12-.12l-.09,0C29.57,17,29.53,17,29.54,17.11Zm-.41,0v.12a.3.3,0,0,0,.14,0c0-.05,0-.1-.05-.13S29.14,17.05,29.13,17.07Zm.74.25c.08,0,.18,0,.19-.06S29.89,17.26,29.87,17.32Zm0-.08c-.06,0-.22,0-.23.05S29.88,17.3,29.89,17.24Zm-.37.53a.17.17,0,0,0,.16,0c0-.05-.05-.08-.14-.08S29.51,17.72,29.52,17.77Zm-.39,0a.06.06,0,0,0,0,.07c.07,0,.1-.07.05-.08S29.16,17.74,29.13,17.73Zm.72.7s.12-.07.07-.09S29.76,18.39,29.85,18.43Zm-1.35.14c.07,0,.18,0,.09.05.17,0,.36.07.47.05-.09-.1-.22-.34-.42-.21,0-.05-.13,0-.19-.07A.14.14,0,0,1,28.5,18.57Zm1.18.14c.06,0,.08.05.07.11s-.13,0-.21,0a.35.35,0,0,0,.1.11c.08-.1.26.15.39,0-.07,0-.19,0-.16-.15s.12-.06.23-.05.08-.11.12-.17C30,18.7,29.83,18.55,29.68,18.71ZM29.1,19c.25,0,.08,0,0-.09.09,0,.12,0,.12-.06a.64.64,0,0,0-.42-.05c.09,0,.11.17.23.1S29.12,19,29.1,19Zm-.81-.1s.12,0,.12,0,0-.05-.07-.05S28.27,18.89,28.29,18.94Zm2,0c0,.08.15.1.23.06S30.39,18.87,30.29,18.91Zm-.26.26c.14,0,.32,0,.37-.05s-.13,0-.11-.07A.38.38,0,0,0,30,19.17Zm-1.16.25s0,0,.05-.07-.08-.06-.16-.05A.21.21,0,0,0,28.87,19.42Zm.26.08c0-.09-.05-.13-.14-.15S29.05,19.47,29.13,19.5Zm.34.05c.06,0,0-.12,0-.13S29.4,19.54,29.47,19.55Zm.45.15c0,.09.2.07.16,0Zm-1.35.05s0,0,.12,0S28.59,19.68,28.57,19.75Zm.95.23c.07,0,.15,0,.16-.1S29.49,19.89,29.52,20Zm.82,0c.08,0,.25,0,.18-.08S30.34,19.85,30.34,20Zm.37,0c.07,0,.13,0,.14-.09h-.12C30.75,19.94,30.7,19.94,30.71,20Zm-1.93,0c.12,0,.12.1.21.13s0-.05,0-.11-.08,0-.12,0H29C29,19.87,28.83,20,28.78,20Zm.39.48a.64.64,0,0,0-.53-.33C28.81,20.27,28.88,20.46,29.17,20.49Zm0-.23s0-.1-.07-.1S29.12,20.26,29.2,20.26Zm.79,0c-.22,0-.34-.08-.49,0v.18c.07,0,.06,0,.11.05l.68-.27a.44.44,0,0,1,0,.13c.2,0,.25-.14.44-.16A1,1,0,0,0,30,20.29Zm-1.67.35s0,0,0,0-.13-.07-.25-.11A.2.2,0,0,0,28.32,20.64Zm.27,0c0-.1-.16-.11-.21-.09A1.89,1.89,0,0,0,28.59,20.64Zm1.16.09a.29.29,0,0,0,.31-.09A.25.25,0,0,0,29.75,20.73Zm-1.67.1c-.07,0-.07,0-.16,0S28.06,20.9,28.08,20.83Zm-.37.14c.07,0,.17,0,.21,0a.25.25,0,0,0-.19-.12C27.74,20.89,27.69,20.9,27.71,21Zm-.35.05c0-.05,0,0,0-.07S27.27,21,27.36,21Zm3,0c.09.06.13,0,.26,0,0,0,0,0,0-.09A.25.25,0,0,0,30.4,21.05Zm-.23.41a.15.15,0,0,0-.09-.1c0,.05,0,0,0-.05C29.89,21.34,30,21.53,30.17,21.46Zm-1.67.15c.09,0,.14,0,.14-.07S28.5,21.56,28.5,21.61Zm1.72.21a.11.11,0,0,0-.09-.05c0,.15.25.11.34.14a.25.25,0,0,0-.21-.15S30.26,21.82,30.22,21.82Zm-3,.13c-.08,0-.11-.05-.19-.06S27.2,22,27.25,22Zm-.38.07c0,.16.31.09.26,0S26.93,22,26.87,22Zm1.12.12a.84.84,0,0,0-.28,0c0,.08.05.11.21.1a.14.14,0,0,1,.14-.08.08.08,0,0,0,0-.05s.11,0,.13,0-.18,0-.25,0S28,22.11,28,22.14Zm2.92.1a.56.56,0,0,0,.54-.1c-.07,0,0-.07-.12-.07S31,22.13,30.91,22.24Zm-2.87,0c0,.08.16.05.16,0S28.12,22.23,28,22.22Zm1.83.08c.06,0,.06,0,.07-.06h-.07Zm.35.25c.06-.06-.08-.1-.09-.15s.07,0,.07,0-.15-.08-.24-.05.08.07,0,.08,0-.07-.1-.06v.16a.58.58,0,0,0,.28.1s0,0,0,0Zm-3.14.16c0,.09.16,0,.19,0A.56.56,0,0,0,27.08,22.71Zm.28.22c.09,0,.27.07.3,0s-.11,0-.09,0,.1,0,.09-.1h-.13C27.52,22.86,27.38,22.85,27.36,22.93ZM26.9,23c0,.08.27.06.32,0A1.05,1.05,0,0,0,26.9,23Z"/><path class="cls-5" d="M39.34,15.66c0-.07-.08-.08-.1-.13s.18-.11.14-.22,0,0-.09,0,0-.15-.07-.23c.16.06.12-.07.23,0s-.05-.08,0-.15,0,0,.06,0a.18.18,0,0,1,.19.07,1.36,1.36,0,0,0,0,.41.13.13,0,0,0,.09-.1h.14a.19.19,0,0,0,.12.13c0,.09-.13.08-.19.12s-.07.18-.09.28.26-.07.3-.17.15.06.16.14-.1.05-.18.05,0,.08,0,.14-.1,0-.09.1-.08,0,0-.05,0,.05-.09,0,.06,0,.09,0a.15.15,0,0,0,0,.1c.14,0-.1.19,0,.27s.05,0,.12,0a.07.07,0,0,1,0-.12s-.06,0-.09,0,.12-.15.16-.23,0,.05,0,.09.06-.08.16-.08,0,.07,0,.12.08,0,.07,0,.1,0,.18,0,0,.07-.07.12c-.26,0-.3.09-.48.11,0,0,.08,0,.11,0s-.26.05-.37.08v.22c.18,0,.17-.12.26-.17s.07,0,.16,0,0,.08,0,.13a.24.24,0,0,0,.26-.23c.09,0,0,0,.11,0,.09.2,0,.32-.14.46.1,0,.1-.08.24-.07s0,0,0,.1c.17,0,.25-.24.47-.11,0,.07-.11.1-.21.11s.05,0,0,.07a2.65,2.65,0,0,1-.3.11c.13,0,.28,0,.3-.08s.19,0,.28,0-.08,0-.14,0,0,.05.07.06a1.33,1.33,0,0,0-.58.22s.09,0,.07.1-.17.08-.26,0c-.1.12-.52,0-.48.15,0,0,0,0,0-.05s.09,0,.16,0,0,.14.07.18,0-.07,0-.11.12.05.16.1.23-.14.35-.22.09.1.09.18,0-.06,0-.06,0,.11-.07.18c.14,0,.32.06.4-.08s.15,0,.16-.07.09.11.09.2a.93.93,0,0,0-.25.1c.06.05.15-.08.21,0s-.16.09-.24.14.11-.07.21,0c-.15.27-.95.1-1.06.41a2.22,2.22,0,0,1,.67-.07s0,0,.05,0-.17.06-.24.1.09.06,0,.1a3.09,3.09,0,0,0,.46-.12c0,.1-.05.24-.23.24,0,0,0,0,0,.06s.22,0,.13.08c.14,0,.17-.09.35-.08-.08.15-.32.19-.51.27.06,0,.06.08.14,0a1.52,1.52,0,0,1-.63.14s0,0,0,0-.15.11-.26.14.12,0,0,0,.1,0,.09,0,0,0-.09.05c.19.06.29-.08.51-.06,0,0,0,0,0,.08a.27.27,0,0,1,.16,0c0-.1.05-.26.28-.25,0,0,0,0,0,.06s.13-.14.28-.15,0,.13,0,.2h-.14c0,.05.11,0,.09.09s-.15.19-.33.21a1.13,1.13,0,0,0,.59-.1c.07.05-.08.08,0,.13s.16-.1.32-.1-.12.1-.11.19c-.17,0-.3.06-.45.09.13.08.37,0,.51,0s0,0,0,.05.23-.08.37-.1c0,.05.07,0,.12,0s-.14,0-.19.05.06,0,.1,0c-.06.2-.62.05-.7.23a.3.3,0,0,0-.37.18s.12,0,.16,0-.2.16-.28.25.07,0,.09-.05-.07.05-.07.09c.24.05.25-.19.49-.19.06.07,0,.07-.11.1s.07,0,0,.07c.17-.1.39-.16.49-.31.09,0,.17,0,.19,0s-.11,0-.17,0a.24.24,0,0,0,.1,0s0,0-.07,0,.06,0,.07.15H41.8c0,.08.14.05.14.13s-.14,0-.14.08c-.16-.06-.17.05-.28,0s0,.1-.07.12-.17.11-.37.08c.09.1.31.11.49.15.07-.14.49-.19.41,0-.08,0-.07,0-.11,0l0,0s0,0,0,0a1.06,1.06,0,0,1-.65.2c0,.07,0,.09.07.12s.17,0,.26,0c-.08,0-.05,0-.07.08a3,3,0,0,1-.81-.07.3.3,0,0,0,.21.1.11.11,0,0,1-.07,0s0,0,.09,0,0,.11-.07.1c.24.18.49-.1.72,0,0,.08-.13,0-.16.08s.09,0,.18,0-.27.09-.3.21a.71.71,0,0,1,.23,0c0-.06.19-.06.26-.11s.09,0,.14.06,0,0,0,0,.27.05.42.05a.48.48,0,0,1-.42.34c0,.05,0,.11,0,.13.2,0,.31-.08.46,0a.08.08,0,0,0,0,.05h-.12c.1-.08-.09,0-.11,0s.12,0,.09.1c-.21-.08-.52,0-.63-.13s0,0-.07.06-.11-.08-.18,0,.15.06.09.13c.14.09.27,0,.44,0a.25.25,0,0,1,0,.13s-.07,0-.09.05a1.35,1.35,0,0,0,.67,0c.09.06,0,.1-.1.12s.11,0,.1,0v.05c-.05,0-.09,0-.16,0-.17.3-.81.27-1.28.28-.06,0,0,0-.07.05s-.07,0-.12,0,0,0,0,0-.21,0-.28,0c-.24.11-.56-.15-.89-.07a1.69,1.69,0,0,0-1.23,0s0-.05,0-.07c-.25.15-.67-.08-.93.1a.77.77,0,0,1-.44-.08c-.18.08-.69.12-.72-.12.07,0,.09,0,.14,0-.11-.08-.28-.2-.23-.33s.14,0,.14.06.07,0,.16,0-.06,0,0,.08.09,0,.1.08,0-.1.07-.15a1,1,0,0,1,.28.1.61.61,0,0,1,.23,0l-.19-.08a.84.84,0,0,1-.18,0c0-.09.08-.06,0-.15a1.09,1.09,0,0,0,.28,0v-.1c-.07-.06-.21-.07-.26-.15s.14,0,.07-.11a1,1,0,0,1,.26.1.39.39,0,0,0,.21-.12.91.91,0,0,0,.46,0c-.13-.21-.52-.05-.81-.13-.07,0-.07,0-.14,0s-.31-.09-.42-.16c.06-.08-.06-.1,0-.17a.35.35,0,0,0,.26.1c0-.08-.23-.12-.16-.21a2.27,2.27,0,0,0,.3.06c-.14-.08-.27-.16-.42-.23s.05-.05.12-.05c-.09-.05-.09-.08-.1-.16s.17,0,.17.08a.07.07,0,0,0,0-.07.32.32,0,0,0,.23.15c.09,0,0-.11.07-.15l.24,0c0,.17.32.14.37.29h.09c0-.08-.11-.13-.07-.18a.94.94,0,0,1,.37.05c0-.07-.1-.08-.11-.15s.07,0,.18,0-.19-.19-.11-.32l.41.17s0,.05-.06.05c.14.12.47,0,.55-.07s0-.09-.11-.08a1.33,1.33,0,0,1,.3-.07v-.05a4.46,4.46,0,0,0-1.35.07c0,.13-.39.16-.42,0a.13.13,0,0,1,.12,0c0-.05-.05-.05,0-.1-.31,0-.58-.11-.4-.3.13,0,.18,0,.26.1s.12-.08.3-.07a.14.14,0,0,1,0-.21c.11,0,.14.12.26.15a.41.41,0,0,0-.07-.15c.12-.07.2-.08.09-.2.18,0,.32.23.56.27.05,0-.07-.07-.12-.09s-.12-.14-.13-.26.17.05.21-.07.1,0,.09.07a.25.25,0,0,1,.21,0c.1-.08,0-.23-.1-.26s-.33.09-.48.1-.3-.05-.19,0-.11,0-.16,0,.16-.13.25-.18-.15,0-.25,0-.08-.08,0-.12l-.46-.05s0,0,0-.05H37c0-.08-.06-.06-.07-.11a1.76,1.76,0,0,1,.46,0s0-.13.14-.1c0-.07-.12-.08-.14-.15s.16.05.26.07-.1-.08-.07-.15c.31.05.33.31.65.36,0,0,0-.05-.05-.06s.07,0,.1,0a.23.23,0,0,1,0-.31c.06,0,.09,0,.16.05s.05.07.09.1,0-.07.09-.05a1.28,1.28,0,0,0,.26.16s0-.07,0-.08.15.07.18,0,.09.08.16.1a.25.25,0,0,1,.17,0c-.12-.27-.72-.18-.86-.43-.17,0-.29.06-.45.08,0,0,0,0,0-.07-.27.06-.63.07-.65-.16.07,0,.22,0,.25.1a2.11,2.11,0,0,1,.26,0c0-.06-.16,0-.14-.13a.69.69,0,0,0,.32,0c0-.1-.15-.15-.27-.2s-.12.05-.21.05.09,0,.11-.08-.34.07-.44,0,.12,0,.19,0,.08-.08.09-.15-.07,0-.14,0-.06-.1,0-.18.17.1.28,0a.58.58,0,0,0,.49.16c.06,0-.06-.05-.09-.07s.08,0,.09,0-.07-.09,0-.11-.14,0-.12-.1,0,.07.12.05-.18-.1-.1-.18a.48.48,0,0,0-.18-.05c0-.1-.15-.09-.21-.13s-.08-.15-.14-.22a2.48,2.48,0,0,0,.39,0s0-.09,0-.17c.17,0,.2.15.26.25s0-.07,0-.1l.21,0a.36.36,0,0,0,.16.3c.06,0-.07-.06,0-.1a.25.25,0,0,1,.21.12,1.76,1.76,0,0,0,.6-.05c0-.08-.19-.07-.23-.15s0,.07-.09.05a1.56,1.56,0,0,1-.46-.35c-.2,0-.38,0-.4-.13h.12c-.07-.12-.13-.16-.14-.29a.62.62,0,0,1,.42.16c.14,0,.19,0,.25-.11s.06.1.07.16.11,0,.12.05,0-.06,0-.08.09,0,.09,0,0-.06,0-.07.09,0,.14,0-.1,0-.07-.08a.19.19,0,0,1,.11,0c-.26-.17-.74-.18-1-.35l.11,0a.27.27,0,0,0,0-.13c.08,0,0,.09.07.12.06-.21-.33-.23-.35-.43.13,0,0,0,0-.07.18,0,.19-.09.24,0,.12-.13-.1-.26,0-.38s.12.1.21.14a.55.55,0,0,0,0,.23c.09,0,.1,0,.18,0s.11-.11.21-.07,0,.08,0,.15h-.12a.42.42,0,0,0,0,.2c.19-.07.5-.07.48-.25,0,0,0,.06-.09.07s-.18,0-.16-.12l.14.07s-.08-.09-.14-.1-.14-.19,0-.23c-.15-.06-.48-.09-.4-.27.13,0,.12.1.21.12S39,16,39,16s.16.09.28.1,0-.17-.09-.16c0-.1-.14-.15-.23-.22s0-.14.21-.13c0,.06,0,0-.07,0S39.22,15.63,39.34,15.66Zm-1.07,3.51c0-.05-.05-.08-.12-.08A.16.16,0,0,0,38.27,19.17Zm1.3-3.08s0,0,.09,0v-.05S39.57,16.06,39.57,16.09Zm.07.14s.06-.09,0-.08S39.56,16.22,39.64,16.23Zm-.28.12c0-.06-.09-.12-.12-.1S39.29,16.34,39.36,16.35Zm-.7.3s0,0,0-.07l-.07,0S38.61,16.64,38.66,16.65Zm.72.28s.09-.16,0-.2S39.14,16.91,39.38,16.93Zm-.44.1c.06,0,.11,0,.12,0s0-.11-.09-.11,0,0,0,0S38.93,17,38.94,17Zm.12-.14c0,.06,0,.08.09.09s0-.12,0-.1S39.09,16.92,39.06,16.89Zm.69.22q.14,0,.12-.12l-.09,0C39.78,17,39.74,17,39.75,17.11Zm-.41,0v.12s.11,0,.13,0,0-.1,0-.13S39.35,17.05,39.34,17.07Zm.74.25c.08,0,.18,0,.18-.06S40.09,17.26,40.08,17.32Zm0-.08c-.06,0-.22,0-.23.05S40.09,17.3,40.1,17.24Zm-.37.53a.17.17,0,0,0,.16,0c0-.05,0-.08-.14-.08S39.71,17.72,39.73,17.77Zm-.39,0a.06.06,0,0,0,0,.07c.07,0,.1-.07,0-.08S39.37,17.74,39.34,17.73Zm.72.7s.12-.07.07-.09S40,18.39,40.06,18.43Zm-1.35.14c.07,0,.18,0,.09.05.17,0,.36.07.47.05-.09-.1-.22-.34-.42-.21,0-.05-.13,0-.19-.07A.14.14,0,0,1,38.71,18.57Zm1.18.14c.06,0,.08.05.07.11s-.13,0-.21,0a.35.35,0,0,0,.1.11c.08-.1.26.15.39,0-.07,0-.19,0-.16-.15s.12-.06.23-.05.08-.11.12-.17C40.21,18.7,40,18.55,39.89,18.71Zm-.58.33c.25,0,.08,0,0-.09.09,0,.12,0,.12-.06a.64.64,0,0,0-.42-.05c.09,0,.11.17.23.1S39.33,19,39.31,19Zm-.81-.1s.12,0,.12,0,0-.05-.07-.05S38.48,18.89,38.5,18.94Zm2,0c0,.08.15.1.23.06S40.6,18.87,40.5,18.91Zm-.26.26c.14,0,.32,0,.37-.05s-.13,0-.11-.07A.38.38,0,0,0,40.24,19.17Zm-1.16.25s0,0,.05-.07-.08-.06-.16-.05A.21.21,0,0,0,39.08,19.42Zm.26.08c0-.09-.05-.13-.14-.15S39.26,19.47,39.34,19.5Zm.35.05c.05,0,0-.12,0-.13S39.61,19.54,39.69,19.55Zm.44.15c0,.09.2.07.16,0Zm-1.35.05s0,0,.12,0S38.8,19.68,38.78,19.75Zm.95.23c.07,0,.14,0,.16-.1S39.7,19.89,39.73,20Zm.81,0c.09,0,.26,0,.19-.08S40.54,19.85,40.54,20Zm.38,0c.07,0,.13,0,.13-.09h-.11C41,19.94,40.91,19.94,40.92,20ZM39,20c.11,0,.11.1.21.13s0-.05,0-.11-.08,0-.12,0h.14C39.24,19.87,39,20,39,20Zm.39.48a.64.64,0,0,0-.53-.33C39,20.27,39.09,20.46,39.38,20.49Zm0-.23s0-.1-.07-.1S39.33,20.26,39.41,20.26Zm.79,0c-.22,0-.34-.08-.49,0v.18c.07,0,.06,0,.11.05l.68-.27c0,.06,0,.05,0,.13.2,0,.25-.14.44-.16A1,1,0,0,0,40.2,20.29Zm-1.68.35a.1.1,0,0,1,0,0c0-.1-.13-.07-.26-.11A.2.2,0,0,0,38.52,20.64Zm.28,0c0-.1-.16-.11-.21-.09A1.89,1.89,0,0,0,38.8,20.64Zm1.16.09a.27.27,0,0,0,.3-.09A.24.24,0,0,0,40,20.73Zm-1.67.1c-.07,0-.07,0-.16,0S38.26,20.9,38.29,20.83Zm-.37.14c.07,0,.17,0,.21,0a.25.25,0,0,0-.19-.12C38,20.89,37.9,20.9,37.92,21Zm-.35.05c0-.05,0,0,0-.07S37.48,21,37.57,21Zm3,0c.09.06.13,0,.26,0,0,0,0,0,0-.09A.25.25,0,0,0,40.61,21.05Zm-.23.41a.15.15,0,0,0-.09-.1c0,.05,0,0,0-.05C40.1,21.34,40.25,21.53,40.38,21.46Zm-1.67.15c.09,0,.14,0,.14-.07S38.71,21.56,38.71,21.61Zm1.72.21a.12.12,0,0,0-.1-.05c0,.15.26.11.35.14a.25.25,0,0,0-.21-.15S40.47,21.82,40.43,21.82Zm-3,.13c-.07,0-.1-.05-.18-.06S37.41,22,37.45,22Zm-.37.07c0,.16.31.09.26,0S37.14,22,37.08,22Zm1.12.12a.84.84,0,0,0-.28,0c0,.08,0,.11.21.1a.14.14,0,0,1,.14-.08.08.08,0,0,0,0-.05s.11,0,.13,0l-.25,0C38.07,22.1,38.17,22.11,38.2,22.14Zm2.92.1a.56.56,0,0,0,.54-.1c-.07,0,0-.07-.12-.07S41.2,22.13,41.12,22.24Zm-2.87,0c0,.08.16.05.16,0S38.33,22.23,38.25,22.22Zm1.83.08c.06,0,.06,0,.07-.06h-.07Zm.35.25c.06-.06-.08-.1-.1-.15s.08,0,.07,0-.14-.08-.23-.05.08.07,0,.08,0-.07-.1-.06v.16a.55.55,0,0,0,.28.1s0,0-.05,0S40.39,22.55,40.43,22.55Zm-3.14.16c0,.09.15,0,.19,0A.56.56,0,0,0,37.29,22.71Zm.28.22c.09,0,.27.07.3,0s-.11,0-.09,0,.1,0,.09-.1h-.14C37.73,22.86,37.59,22.85,37.57,22.93Zm-.46.11c0,.08.27.06.32,0A1.05,1.05,0,0,0,37.11,23Z"/><path class="cls-5" d="M33.63,22.28s-.17,4.94.09,5.23a.35.35,0,0,0,.58,0,40.37,40.37,0,0,0-.12-5.17Z"/><path class="cls-5" d="M28.83,23.1a21.34,21.34,0,0,0,.05,3.07.21.21,0,0,0,.34,0,24.54,24.54,0,0,0-.07-3Z"/><path class="cls-5" d="M39.11,23.06a21.25,21.25,0,0,0,0,3.07.21.21,0,0,0,.35,0,24.54,24.54,0,0,0-.07-3Z"/><path class="cls-2" d="M11.79,17.73l-.13.2a1.8,1.8,0,0,0-.62,0,1,1,0,0,0-.51.21,2.49,2.49,0,0,0-.17.21c-.06.1-.12.18-.16.24l-.36.56,1.48.95.26-.39a1.53,1.53,0,0,0,.14-.29.65.65,0,0,0,0-.31.87.87,0,0,0-.14-.27,1.56,1.56,0,0,0-.22-.26l.13-.2,1.6,1L13,19.6a1.56,1.56,0,0,0-.34-.1,1,1,0,0,0-.32,0,.66.66,0,0,0-.27.12,1.49,1.49,0,0,0-.22.26l-.25.39,1.11.72a1.62,1.62,0,0,0,.29.15.31.31,0,0,0,.21,0,.44.44,0,0,0,.19-.15,2.35,2.35,0,0,0,.22-.3l.15-.23a2,2,0,0,0,.13-.25c0-.08.07-.16.1-.23a.5.5,0,0,0,0-.2,3.27,3.27,0,0,0-.22-.55,2.89,2.89,0,0,0-.27-.48l.13-.2,1.15.85L12.45,23l-.21-.14a1.47,1.47,0,0,0,.11-.22.8.8,0,0,0,.08-.2.28.28,0,0,0,0-.21.48.48,0,0,0-.14-.15L9.56,20.3a.41.41,0,0,0-.18-.07.32.32,0,0,0-.21.06L9,20.45l-.16.17-.21-.13,2.19-3.4Z"/><path class="cls-2" d="M18.43,15.47l-1.71,1.8-.19-.17a2.5,2.5,0,0,0,.24-.34c.08-.14.11-.22.07-.26l0,0a.19.19,0,0,0-.09,0l-1-.37-1.09,1.13.15.31a2.57,2.57,0,0,0,.15.29,1.52,1.52,0,0,0,.13.24.57.57,0,0,0,.08.08c.05.05.13.05.23,0a1.7,1.7,0,0,0,.44-.3L16,18l-1.29,1.36-.18-.18L14.7,19a.6.6,0,0,0,.09-.21.72.72,0,0,0,0-.29,1.11,1.11,0,0,0-.08-.3c-.27-.59-.54-1.19-.8-1.79l-.88-2,.44-.47,2.46,1,1.5.6.2,0a.72.72,0,0,0,.24,0,.75.75,0,0,0,.2-.1l.17-.13Zm-3,.46-1.65-.66.74,1.61Z"/><path class="cls-2" d="M20.07,14.51a2.61,2.61,0,0,1-.69.38,3,3,0,0,1-.64.16l0,.31-.22.16-1-1.31.22-.16a3.18,3.18,0,0,0,.49.26,1.91,1.91,0,0,0,.54.18,1.78,1.78,0,0,0,.56,0,1.17,1.17,0,0,0,.54-.23,1,1,0,0,0,.42-.57.7.7,0,0,0-.14-.57.58.58,0,0,0-.42-.25A1.67,1.67,0,0,0,19,13l-.5.16a4.14,4.14,0,0,1-.43.13,1.39,1.39,0,0,1-.86,0,1.31,1.31,0,0,1-.63-.48,1.13,1.13,0,0,1-.21-.49,1.14,1.14,0,0,1,0-.55,1.69,1.69,0,0,1,.26-.57,2.28,2.28,0,0,1,.51-.52,2.17,2.17,0,0,1,.64-.33,3.61,3.61,0,0,1,.54-.14l.05-.27.22-.16L19.54,11l-.22.16c-.15-.09-.31-.19-.49-.28a2.27,2.27,0,0,0-.48-.19,1.25,1.25,0,0,0-.47,0,1.12,1.12,0,0,0-.45.2.81.81,0,0,0-.34.49.62.62,0,0,0,.11.53.58.58,0,0,0,.42.25,1.8,1.8,0,0,0,.66-.11l.48-.16.45-.13a1.62,1.62,0,0,1,.87,0,1.38,1.38,0,0,1,.89,1,1.45,1.45,0,0,1,0,.59,1.93,1.93,0,0,1-.3.61A2.31,2.31,0,0,1,20.07,14.51Z"/><path class="cls-2" d="M24.22,8.25,24,8.36a3.51,3.51,0,0,0-.57-.42.71.71,0,0,0-.52-.14l-.24.09L22.44,8l-.14.07,1.6,3.21a.34.34,0,0,0,.13.16.26.26,0,0,0,.2.05l.24,0,.25-.08.12.22-2.28,1.13-.11-.22.22-.14a1,1,0,0,0,.19-.14.26.26,0,0,0,.08-.2.43.43,0,0,0-.05-.21L21.28,8.57l-.14.07-.22.13-.22.13a.71.71,0,0,0-.2.5,2.84,2.84,0,0,0,0,.71l-.22.11-.59-1.17,4-2Z"/><path class="cls-2" d="M33.94,7.55l-.17,0a1.32,1.32,0,0,0-.19.08.26.26,0,0,0-.15.16.5.5,0,0,0,0,.21l.08.52c0,.11,0,.19,0,.26s0,.14,0,.24a4,4,0,0,1-.9.49,4.46,4.46,0,0,1-1.12.32,3,3,0,0,1-.94,0,2.27,2.27,0,0,1-.81-.35,2.22,2.22,0,0,1-.62-.67,2.68,2.68,0,0,1-.32-1,2.77,2.77,0,0,1,0-1A2.17,2.17,0,0,1,29.31,6a2.14,2.14,0,0,1,.72-.6,2.85,2.85,0,0,1,1-.32,3,3,0,0,1,.73,0,4.28,4.28,0,0,1,.56.13l.18-.2.27,0L33,6.61l-.28,0a3,3,0,0,0-.73-1,1.11,1.11,0,0,0-.9-.24,1.06,1.06,0,0,0-.88.66,2.94,2.94,0,0,0-.13,1.53,3.19,3.19,0,0,0,.54,1.52,1,1,0,0,0,1,.44,1.66,1.66,0,0,0,.49-.15,1.17,1.17,0,0,0,.31-.25l-.12-.92A.42.42,0,0,0,32.27,8a.39.39,0,0,0-.19-.12,1.33,1.33,0,0,0-.24,0h-.25l0-.25L33.9,7.3Z"/><path class="cls-2" d="M38.58,6.27l-.24,0a1.59,1.59,0,0,0-.29-.54.86.86,0,0,0-.43-.34,1.46,1.46,0,0,0-.27,0l-.28,0-.66,0L36.3,7l.47,0a1.08,1.08,0,0,0,.32,0,.59.59,0,0,0,.28-.15.82.82,0,0,0,.16-.25,1.44,1.44,0,0,0,.12-.32l.24,0-.11,1.9h-.24a2.1,2.1,0,0,0-.08-.35.89.89,0,0,0-.13-.29.56.56,0,0,0-.24-.17,1.14,1.14,0,0,0-.34-.07l-.46,0-.08,1.31a1.64,1.64,0,0,0,0,.33.35.35,0,0,0,.1.19.4.4,0,0,0,.22.09,2.53,2.53,0,0,0,.38,0h.55l.25,0a.38.38,0,0,0,.18-.08,2.51,2.51,0,0,0,.37-.46,3.58,3.58,0,0,0,.29-.47h.23l-.17,1.42-4.27-.25,0-.25h.24l.22,0A.29.29,0,0,0,35,9a.59.59,0,0,0,.06-.2l.18-3.22a.43.43,0,0,0,0-.2.28.28,0,0,0-.16-.14l-.23-.09-.23,0,0-.25,4,.23Z"/><path class="cls-2" d="M44.12,6.83a2.56,2.56,0,0,1,.33.86,2.56,2.56,0,0,1-.06,1,2.83,2.83,0,0,1-.41.88,2.2,2.2,0,0,1-.66.63,2.43,2.43,0,0,1-.88.31,2.58,2.58,0,0,1-1.08-.09,2.64,2.64,0,0,1-.87-.39,2.2,2.2,0,0,1-.63-.66,2.1,2.1,0,0,1-.33-.85,2.45,2.45,0,0,1,.06-1A2.51,2.51,0,0,1,40,6.61a2.32,2.32,0,0,1,.7-.63,2.2,2.2,0,0,1,.89-.27,2.73,2.73,0,0,1,1,.07,2.64,2.64,0,0,1,.88.41A2.43,2.43,0,0,1,44.12,6.83Zm-1.63,3a2,2,0,0,0,.37-.59,4.53,4.53,0,0,0,.28-.79,6.92,6.92,0,0,0,.14-.77,2.61,2.61,0,0,0,0-.69A1.25,1.25,0,0,0,43,6.4a.83.83,0,0,0-.5-.31,1,1,0,0,0-1,.31,3.33,3.33,0,0,0-.68,1.44,4.63,4.63,0,0,0-.14.8,2.59,2.59,0,0,0,0,.69,1.36,1.36,0,0,0,.24.53,1,1,0,0,0,.49.29,1,1,0,0,0,.57,0A1.09,1.09,0,0,0,42.49,9.79Z"/><path class="cls-2" d="M48.83,13.41l-1.57-.77c-.06-.55-.12-1-.18-1.33s-.14-.73-.24-1.19L46.68,10l-.62,1.25a.49.49,0,0,0-.05.19.5.5,0,0,0,.09.2l.15.13.18.13-.11.23-2.18-1.09.11-.22.24.08a.57.57,0,0,0,.21.06.29.29,0,0,0,.2,0A.42.42,0,0,0,45,10.8l1.44-2.89a.49.49,0,0,0,.05-.19.35.35,0,0,0-.09-.2,1.72,1.72,0,0,0-.19-.17l-.18-.13L46.18,7l2.29,1.14a2.48,2.48,0,0,1,1,.82.89.89,0,0,1,0,.93,1.07,1.07,0,0,1-.59.56,1.74,1.74,0,0,1-1,0c.05.23.1.51.16.82s.13.62.21.95a3.84,3.84,0,0,0,.1.4.91.91,0,0,0,.17.33.74.74,0,0,0,.16.12l.13.09Zm-.45-4a.82.82,0,0,0,.07-.72,1.09,1.09,0,0,0-.56-.51l-.22-.11-.86,1.71.22.11a1,1,0,0,0,.77.1A1,1,0,0,0,48.38,9.4Z"/><path class="cls-2" d="M53.89,15.08,53.74,15l-.19-.08a.28.28,0,0,0-.22,0,.65.65,0,0,0-.16.13l-.32.42-.16.21-.14.2a3.68,3.68,0,0,1-1-.3,4.47,4.47,0,0,1-1-.58,2.78,2.78,0,0,1-.64-.69,2.35,2.35,0,0,1-.32-.83,2,2,0,0,1,.06-.9,2.47,2.47,0,0,1,.48-.92,2.63,2.63,0,0,1,.75-.67,2.05,2.05,0,0,1,.88-.3,2.17,2.17,0,0,1,.94.09,2.85,2.85,0,0,1,.93.51,2.78,2.78,0,0,1,.51.52,3.61,3.61,0,0,1,.3.49h.27l.22.17-1,1.33-.22-.17a3.19,3.19,0,0,0,.23-1.24,1.12,1.12,0,0,0-.46-.82,1.05,1.05,0,0,0-1.08-.16,2.83,2.83,0,0,0-1.19,1,3.2,3.2,0,0,0-.71,1.44,1,1,0,0,0,.38,1,1.41,1.41,0,0,0,.45.24,1,1,0,0,0,.39.06l.57-.73a.5.5,0,0,0,.09-.18.3.3,0,0,0-.05-.21.85.85,0,0,0-.14-.21,1.64,1.64,0,0,0-.16-.18l.15-.2,1.87,1.46Z"/><path class="cls-2" d="M54.52,18.59,52.8,16.74l.18-.17.19.17a.84.84,0,0,0,.19.15.38.38,0,0,0,.2,0,.35.35,0,0,0,.18-.11l2.38-2.2a.42.42,0,0,0,.11-.16.31.31,0,0,0,0-.21,1.46,1.46,0,0,0-.11-.21L56,13.8l.18-.17,1.72,1.86-.18.17-.19-.16-.2-.15a.27.27,0,0,0-.21,0,.45.45,0,0,0-.17.11l-2.38,2.2a.56.56,0,0,0-.12.16.35.35,0,0,0,0,.22,1.52,1.52,0,0,0,.11.2l.15.21Z"/><path class="cls-2" d="M57.6,23,56.21,20.9l.2-.14a3.58,3.58,0,0,0,.28.3q.18.17.24.12l0,0,.06-.07.57-.86-.88-1.3-.33.07-.32.09a1.68,1.68,0,0,0-.26.08l-.1.06c-.06,0-.08.11-.06.22a1.64,1.64,0,0,0,.21.49l-.21.14-1-1.55.21-.14a1.29,1.29,0,0,0,.16.18.78.78,0,0,0,.18.13.74.74,0,0,0,.28.08,1.1,1.1,0,0,0,.31,0l1.92-.4,2.13-.44.35.54c-.62.93-1.11,1.66-1.48,2.19L57.76,22a1.08,1.08,0,0,0-.08.19.55.55,0,0,0,0,.23.63.63,0,0,0,.05.22,1.72,1.72,0,0,0,.09.19Zm.19-3,1-1.47-1.74.39Z"/><path class="cls-2" d="M9.94,49.8a3.08,3.08,0,0,1-.23-.75,2.45,2.45,0,0,1,0-.65l-.3-.11L9.27,48l1.44-.71.12.25a3,3,0,0,0-.34.42,2.2,2.2,0,0,0-.28.49,2.1,2.1,0,0,0-.13.55,1.22,1.22,0,0,0,.12.57,1,1,0,0,0,.47.52.67.67,0,0,0,.57,0,.55.55,0,0,0,.32-.36,1.69,1.69,0,0,0,0-.69c0-.18,0-.36-.06-.51a3.75,3.75,0,0,1,0-.45,1.37,1.37,0,0,1,.18-.83,1.33,1.33,0,0,1,.58-.52,1.21,1.21,0,0,1,.5-.1,1.25,1.25,0,0,1,.53.13,1.62,1.62,0,0,1,.49.37,2.25,2.25,0,0,1,.41.61,2.61,2.61,0,0,1,.2.68,3,3,0,0,1,0,.56l.25.1.12.26L13.4,50l-.12-.25a3.52,3.52,0,0,0,.36-.41,2.83,2.83,0,0,0,.28-.43,1.48,1.48,0,0,0,.11-.45,1.06,1.06,0,0,0-.1-.48.89.89,0,0,0-.41-.44.59.59,0,0,0-.52,0,.53.53,0,0,0-.32.35,1.6,1.6,0,0,0,0,.67,4.53,4.53,0,0,0,.06.5c0,.18,0,.33,0,.47a1.59,1.59,0,0,1-.14.84,1.14,1.14,0,0,1-.6.54,1.17,1.17,0,0,1-.56.11,1.38,1.38,0,0,1-.57-.15,1.85,1.85,0,0,1-.52-.42A2.5,2.5,0,0,1,9.94,49.8Z"/><path class="cls-2" d="M16.38,54l-.15-.2a3,3,0,0,0,.32-.62.69.69,0,0,0,.05-.53l-.13-.22c0-.09-.1-.16-.14-.22l-.09-.12-2.84,2a.33.33,0,0,0-.14.15.3.3,0,0,0,0,.21.84.84,0,0,0,.09.22c0,.1.08.18.11.24l-.19.14L11.78,53l.2-.14.17.2a1.06,1.06,0,0,0,.17.16.27.27,0,0,0,.2.06.46.46,0,0,0,.19-.08l2.87-2L15.5,51l-.16-.21-.16-.19a.65.65,0,0,0-.52-.13,2.36,2.36,0,0,0-.69.09l-.14-.21,1-.73,2.54,3.61Z"/><path class="cls-2" d="M17.93,59.88l-1.8-1.71L16.3,58l.34.24c.13.08.21.11.25.07l0,0a.2.2,0,0,0,0-.08l.35-.94-1.14-1.08-.29.13-.29.15a1.31,1.31,0,0,0-.23.13l-.08.07s0,.13,0,.23a1.8,1.8,0,0,0,.31.44l-.17.17L14.05,56.2l.17-.18.2.14a.5.5,0,0,0,.2.09.72.72,0,0,0,.29,0,1.15,1.15,0,0,0,.29-.08L17,55.42l1.94-.84.47.44-.93,2.41c-.23.59-.41,1.08-.56,1.47a1.42,1.42,0,0,0,0,.2,1,1,0,0,0,0,.23.93.93,0,0,0,.1.2,1.27,1.27,0,0,0,.14.17Zm-.5-3,.63-1.62L16.48,56Z"/><path class="cls-2" d="M23.73,59.8l-.21-.13a3.54,3.54,0,0,0,.06-.69.68.68,0,0,0-.16-.51l-.2-.15L23,58.17l-.13-.08L21,61a.49.49,0,0,0-.07.19.27.27,0,0,0,.06.2l.17.17a1.54,1.54,0,0,0,.2.18l-.13.21-2.15-1.37.13-.2.24.12a.59.59,0,0,0,.22.08.29.29,0,0,0,.21,0,.41.41,0,0,0,.14-.15l1.89-3-.13-.08-.22-.14-.23-.11a.67.67,0,0,0-.53.07,2.48,2.48,0,0,0-.59.35L20,57.43l.68-1.07,3.72,2.37Z"/><path class="cls-2" d="M27.74,61.27l-.23-.09a1.66,1.66,0,0,0-.1-.59.84.84,0,0,0-.31-.45L26.86,60l-.26-.11L26,59.66l-.63,1.59.43.17a1,1,0,0,0,.32.08.63.63,0,0,0,.3,0,1,1,0,0,0,.23-.18,2,2,0,0,0,.21-.26l.23.09-.69,1.72-.23-.09a1.58,1.58,0,0,0,0-.34,1.09,1.09,0,0,0,0-.31.55.55,0,0,0-.18-.24,1.15,1.15,0,0,0-.29-.16l-.44-.18-.47,1.19a1.4,1.4,0,0,0-.09.31.3.3,0,0,0,0,.21.36.36,0,0,0,.17.15,2.43,2.43,0,0,0,.35.16l.25.1.26.08a1.32,1.32,0,0,0,.26,0,.29.29,0,0,0,.19,0,2.42,2.42,0,0,0,.5-.3,3.65,3.65,0,0,0,.41-.35l.22.09-.6,1.25-4-1.58.09-.23.24.07a.79.79,0,0,0,.22,0,.3.3,0,0,0,.2-.06.41.41,0,0,0,.11-.16l1.16-2.91a.5.5,0,0,0,0-.19.38.38,0,0,0-.11-.19l-.19-.15-.2-.12.09-.23,3.75,1.5Z"/><path class="cls-2" d="M33.81,65.72a2.35,2.35,0,0,1-.93-.21,2.25,2.25,0,0,1-.74-.5,2,2,0,0,1-.45-.75,2.38,2.38,0,0,1-.13-1,2.6,2.6,0,0,1,.23-.94,2.3,2.3,0,0,1,.57-.74,2.27,2.27,0,0,1,.81-.44,2.7,2.7,0,0,1,1-.12,2.35,2.35,0,0,1,.68.13,2.87,2.87,0,0,1,.52.23l.21-.16.27,0-.06,1.62-.28,0A2.79,2.79,0,0,0,35,61.75a1.07,1.07,0,0,0-.8-.39,1,1,0,0,0-.95.46,2.87,2.87,0,0,0-.4,1.44,3.23,3.23,0,0,0,.06.91,1.87,1.87,0,0,0,.25.62,1.07,1.07,0,0,0,.42.37,1.4,1.4,0,0,0,.55.14,1.32,1.32,0,0,0,.81-.19,2.2,2.2,0,0,0,.68-.68l.27.18a3.33,3.33,0,0,1-.34.47,1.79,1.79,0,0,1-.43.35,2.29,2.29,0,0,1-.58.24A2.33,2.33,0,0,1,33.81,65.72Z"/><path class="cls-2" d="M40.33,61.2a2.14,2.14,0,0,1,.63.64,2.24,2.24,0,0,1,.33.93,2.47,2.47,0,0,1,0,.94,2.11,2.11,0,0,1-.37.82,2.43,2.43,0,0,1-.7.61,2.56,2.56,0,0,1-1,.33,2.8,2.8,0,0,1-1,0,2.41,2.41,0,0,1-.84-.35,2.23,2.23,0,0,1-.62-.64,2.25,2.25,0,0,1-.33-.91,2.42,2.42,0,0,1,0-1,2.18,2.18,0,0,1,.41-.82,2.41,2.41,0,0,1,.71-.59,2.88,2.88,0,0,1,.94-.3,2.63,2.63,0,0,1,1,0A2.11,2.11,0,0,1,40.33,61.2ZM40,64.46a2.28,2.28,0,0,0,.12-.67A4,4,0,0,0,40,63a4.42,4.42,0,0,0-.16-.74,2.21,2.21,0,0,0-.28-.62,1.33,1.33,0,0,0-.42-.4,1,1,0,0,0-1.39.57,3,3,0,0,0-.08,1.54,3.48,3.48,0,0,0,.17.77,2.38,2.38,0,0,0,.3.62,1.13,1.13,0,0,0,.42.37.87.87,0,0,0,.56.08,1,1,0,0,0,.52-.23A1.09,1.09,0,0,0,40,64.46Z"/><path class="cls-2" d="M46.18,61.94l.39,1.37-4,1.4-.08-.23.24-.12a.93.93,0,0,0,.17-.1.3.3,0,0,0,.11-.17.49.49,0,0,0,0-.2l-1-3a.37.37,0,0,0-.1-.16.29.29,0,0,0-.2-.07,1.14,1.14,0,0,0-.25,0l-.22,0-.08-.23,2.35-.83.08.23-.21.1-.22.13a.22.22,0,0,0-.11.18.43.43,0,0,0,0,.19l1,2.76a2.39,2.39,0,0,0,.13.3.28.28,0,0,0,.17.12.49.49,0,0,0,.24,0l.4-.12.46-.2a.6.6,0,0,0,.29-.24,2.24,2.24,0,0,0,.16-.53A5,5,0,0,0,46,62Z"/><path class="cls-2" d="M50.35,59.57,51,60.85l-3.64,2.09-.12-.21.22-.16a.75.75,0,0,0,.15-.13.31.31,0,0,0,.08-.19.38.38,0,0,0-.06-.19L46,59.34a.58.58,0,0,0-.12-.14.36.36,0,0,0-.22,0,.84.84,0,0,0-.24.06l-.21.07-.12-.21,2.16-1.25.13.22a1.05,1.05,0,0,0-.2.14l-.19.16a.29.29,0,0,0-.08.2.82.82,0,0,0,.06.19l1.46,2.53a1.25,1.25,0,0,0,.19.26.28.28,0,0,0,.18.1.5.5,0,0,0,.25,0,3.34,3.34,0,0,0,.36-.19,4.38,4.38,0,0,0,.42-.28.6.6,0,0,0,.24-.28,2.18,2.18,0,0,0,.06-.56,3.76,3.76,0,0,0,0-.6Z"/><path class="cls-2" d="M52.6,55.2l-.19.16a1.53,1.53,0,0,0-.57-.18.94.94,0,0,0-.55.06,1.06,1.06,0,0,0-.22.16l-.22.18-.5.43,1.12,1.3.36-.31a1,1,0,0,0,.21-.24.56.56,0,0,0,.1-.29,1,1,0,0,0,0-.29,1.4,1.4,0,0,0-.14-.3l.19-.16,1.21,1.4-.19.16a1,1,0,0,0-.29-.18.66.66,0,0,0-.29-.11.48.48,0,0,0-.29,0,1.39,1.39,0,0,0-.28.19l-.35.3.83,1a1.63,1.63,0,0,0,.23.23.42.42,0,0,0,.21.06.6.6,0,0,0,.21-.09,3.06,3.06,0,0,0,.3-.23l.21-.18.19-.19a2.33,2.33,0,0,0,.16-.2.43.43,0,0,0,.08-.19,2.75,2.75,0,0,0,0-.58,2.49,2.49,0,0,0-.11-.52l.18-.15.83,1.1-3.24,2.79-.15-.18L51.7,60a1.12,1.12,0,0,0,.14-.18.31.31,0,0,0,0-.2.38.38,0,0,0-.09-.18l-2-2.37a.4.4,0,0,0-.15-.12.31.31,0,0,0-.21,0l-.22.1-.2.12L48.8,57l3.06-2.63Z"/><path class="cls-2" d="M57.35,51.66l-.09.15a1.71,1.71,0,0,0-.07.18.24.24,0,0,0,0,.22.48.48,0,0,0,.13.16l.41.31.2.15.2.14a4.19,4.19,0,0,1-.3,1,4.87,4.87,0,0,1-.57,1,3,3,0,0,1-.68.65,2.07,2.07,0,0,1-1.7.31,2.41,2.41,0,0,1-.9-.46,2.49,2.49,0,0,1-.66-.72,2.09,2.09,0,0,1-.29-.87,2.14,2.14,0,0,1,.09-.93,3,3,0,0,1,.5-.93,2.8,2.8,0,0,1,.51-.52,3.8,3.8,0,0,1,.49-.31v-.26l.17-.22,1.3,1-.17.22a2.93,2.93,0,0,0-1.22-.19,1.11,1.11,0,0,0-.8.47,1.06,1.06,0,0,0-.16,1.07,2.65,2.65,0,0,0,1,1.15A3,3,0,0,0,56.1,55a1,1,0,0,0,1-.4,1.24,1.24,0,0,0,.24-.45,1,1,0,0,0,.06-.39l-.72-.55a.48.48,0,0,0-.18-.08.34.34,0,0,0-.2,0,1.72,1.72,0,0,0-.21.15l-.17.17-.2-.15,1.44-1.88Z"/><path class="cls-2" d="M57.93,46.92l-.1.22a1.45,1.45,0,0,0-.6.07.86.86,0,0,0-.47.28,1.36,1.36,0,0,0-.14.23,2.73,2.73,0,0,1-.13.25l-.28.6,1.55.73.2-.42a1.39,1.39,0,0,0,.1-.31.52.52,0,0,0,0-.3.84.84,0,0,0-.16-.25,1.57,1.57,0,0,0-.25-.22l.11-.22,1.67.79-.1.22a1.44,1.44,0,0,0-.34-.05.68.68,0,0,0-.31,0,.51.51,0,0,0-.25.16,1,1,0,0,0-.18.28l-.2.42,1.16.55a1.41,1.41,0,0,0,.3.11.36.36,0,0,0,.21,0,.41.41,0,0,0,.16-.16,3.21,3.21,0,0,0,.18-.34l.11-.24c0-.1.08-.19.11-.26s0-.17.06-.25a.43.43,0,0,0,0-.2,3.28,3.28,0,0,0-.27-.51,3.13,3.13,0,0,0-.32-.43l.1-.21,1.21.67L59.2,52l-.22-.1.08-.23a.91.91,0,0,0,0-.22.29.29,0,0,0,0-.2.34.34,0,0,0-.16-.12l-2.83-1.34a.49.49,0,0,0-.19-.05.29.29,0,0,0-.19.1,1,1,0,0,0-.16.18l-.14.19-.22-.1,1.73-3.66Z"/></svg>