<svg id="Layer_1" data-name="Layer 1" xmlns="http://www.w3.org/2000/svg" viewBox="0 0 70 70"><defs><style>.cls-1{fill:#039;}.cls-2{fill:#fff;}</style></defs><title>georgia-college_icon</title><circle class="cls-1" cx="35" cy="35" r="35"/><path class="cls-2" d="M45.47,58.35V35.69h2.92V57A25.74,25.74,0,0,0,60.75,35h0A25.75,25.75,0,1,0,21.09,56.63V35.69H24V58.35a25.83,25.83,0,0,0,11,2.4h0a24.83,24.83,0,0,0,10.64-2.4ZM48.91,27.1H43.24c-.17-5.66-4.29-9.27-6.52-10.81A14.3,14.3,0,0,1,48.91,27.1Zm-13.74-11c1.2.68,7.21,4.46,7.38,11H35.17Zm-2.4.17c-2.23,1.54-6.53,5.15-6.53,10.81H20.58A14.49,14.49,0,0,1,32.77,16.29Zm1.54-.17v11H26.93C27.1,20.58,33.11,16.8,34.31,16.12ZM16.8,28H52.17v1.55H16.8Zm2.06,2.92h30.9v1.55H18.86Zm6,3.95H20.41V33.28h4.46Zm19.92-1.37h4.46V35H44.79Z"/></svg>