<svg id="Layer_1" data-name="Layer 1" xmlns="http://www.w3.org/2000/svg" viewBox="0 0 90.17 70"><defs><style>.cls-1{fill:#191918;}.cls-2{fill:#085a45;}</style></defs><title>georgia-gwinnett-college_icon</title><path class="cls-1" d="M41.5,36H90.17C90,58.39,75,65.87,68.22,67.86s-30.42,3.6-42.48,0C-.83,60-5.61,32,5.82,15.36,18.12-2.58,41.92-3.7,57.9,6.29c-36.8,1.31-41,44.11-11,54.93C52.59,59,61.62,52.8,62.32,42.57H41.5Z"/><path class="cls-2" d="M35.25,6c-40,4.56-34.92,54.52,0,56.59C13.87,46.19,17.71,17.61,35.25,6ZM58.59,62.48C63.12,60.41,69.82,48,70,42.19H83.24C81.39,52.28,73.47,62.62,58.59,62.48Z"/></svg>