<svg id="Layer_1" data-name="Layer 1" xmlns="http://www.w3.org/2000/svg" viewBox="0 0 70 70"><defs><style>.cls-1{fill:none;}.cls-2{fill:#013e7e;}</style></defs><title>georgia-southwest-state-university_icon</title><rect class="cls-1" x="26.35" y="36.83" width="6.83" height="23.37"/><path class="cls-1" d="M29.62,21.35l5.57-2.89,5.58,2.89,6.15,3.07,7.79,4V21.35H46a11.1,11.1,0,0,0-7.5-6.54V13H31.73V14.9a12,12,0,0,0-7.4,6.45H15.58l.09,7.11Z"/><rect class="cls-1" x="37.12" y="36.83" width="6.73" height="23.37"/><rect class="cls-1" x="15.58" y="36.83" width="6.92" height="23.37"/><rect class="cls-1" x="47.69" y="36.83" width="6.92" height="23.37"/><polygon class="cls-1" points="35.1 21.64 12.69 32.98 12.69 34.23 57.5 34.23 57.5 32.98 35.1 21.64"/><path class="cls-2" d="M35,0A35,35,0,0,0,0,35V70H70V35A35,35,0,0,0,35,0ZM24.33,21.35a12,12,0,0,1,7.4-6.45V13h6.73v1.83A11.1,11.1,0,0,1,46,21.35h8.75v7.11l-7.79-4-6.15-3.07-5.58-2.89-5.57,2.89L15.67,28.46l-.09-7.11ZM22.5,60.19H15.58V36.83H22.5Zm10.67,0H26.35V36.83h6.82Zm10.68,0H37.12V36.83h6.73Zm10.77,0H47.69V36.83h6.93Zm2.88-26H12.69V33L35.1,21.63,57.5,33v1.25h0Z"/></svg>