<svg id="Layer_1" data-name="Layer 1" xmlns="http://www.w3.org/2000/svg" viewBox="0 0 70.42 70"><defs><style>.cls-1{fill:#ffc629;}</style></defs><title>kennesaw-state-university_icon</title><path d="M69.44,48.89V41.11a8.66,8.66,0,0,0-.76-4c-1.94-3.19-6.18-4-9.51-4.72C57.78,32,52.29,31.11,45.63,30l5.06-6.11c2,.14,4,.28,5.77.55v5H69.38V19.93c.06-4.24-4.8-5.76-8.06-6.53-.49-.14-1-.21-1.67-.34L70.42,0H44.51l3.41,6.46-4.38,5.35c-3.19-.07-6.25-.14-8.68-.14H34V0H15.69l4.52,8.61v3.06H0l2.85,5.07a5.72,5.72,0,0,0-1,3.19v8.75c-.07,5.9,8.54,7.57,12.91,8.47,1.81.28,3.68.63,5.49.91v6.8c-1.81-.07-3.61-.28-5.35-.48V39.79h-13v9c-.07,6,9.58,6.81,13.88,7.29,1.53.21,3,.35,4.52.42v4.86L15.76,70H34V57h2.36c2.08,0,4.17,0,6.25-.07L48,63.54l-3.41,6.39H70.42L58.89,55.83c4.51-.48,10.55-1.94,10.55-6.94M49.72,45.07,47.5,42.36l6.53,1a22.5,22.5,0,0,1,2.43.56v.48c-2.22.35-4.52.49-6.74.63M20.14,23.89V26c-.56-.07-1-.14-1.46-.21s-3.26-.69-4-.9v-.55a47,47,0,0,1,5.42-.49"/><path class="cls-1" d="M20.14,29.44l-3.54-.55c-2.57-.49-5.21-1.53-5.21-2.43V22c0-1.73,14.86-1.59,25.07-1.59l4.37-5.28H5.76l1.39,2.43c-1.32.69-1.94,1.53-1.94,2.5v8.75c0,1.94,3.19,3.75,10.21,5.21l4.79.76V29.44Zm33.19-8.75c3.68.21,6.46.63,6.46,1.32v4.1H66V20c0-1.74-3.19-3.06-8.89-3.82ZM41.53,35.07l2.84,3.47,10.28,1.6c2.5.48,5.21,1.53,5.21,2.43v3.82c0,.9-3.19,1.39-7.64,1.67l4,4.79c6.39-.77,9.93-2.09,9.93-4V41a4.87,4.87,0,0,0-.35-2.36c-.9-1.6-3-2.22-12.15-4.17L43.26,32.92ZM11.39,46.87V43.26H5.14v5.63c0,3.33,13.47,4.93,31.67,4.93h2.91l-4.37-5.35c-5.84,0-24,0-24-1.6"/><path class="cls-1" d="M63.19,3.33H50l1.87,3.54L30.49,32.92V23.68c-2.3,0-4.66,0-6.95.07V45.07c2.29.07,4.65.07,7,.07V37.22L51.87,63.33l-1.8,3.41h13L37.22,35.07Z"/><path class="cls-1" d="M23.47,11.67h7V3.33H21.18l2.29,4.45Z"/><path class="cls-1" d="M23.47,62.36l-2.29,4.38h9.31V57.15c-2.3-.07-4.66-.14-6.95-.28v5.49Z"/></svg>