<svg id="Layer_1" data-name="Layer 1" xmlns="http://www.w3.org/2000/svg" viewBox="0 0 130.99 80.79"><defs><style>.cls-1{fill:#00539f;}.cls-2{fill:#e70;}</style></defs><title>savannah-state-university_icon</title><path class="cls-1" d="M.64,58.22A8.78,8.78,0,0,0,4,58.74a6.05,6.05,0,0,0,3.48-.82,4.31,4.31,0,0,0,2.08-3.75c0-1.82-.86-3.35-3.59-4.87l-.85-.47c-1.88-1-2.2-1.74-2.2-2.64C2.93,44.82,4.28,44,5.77,44a2.82,2.82,0,0,1,2.31,1,2.29,2.29,0,0,1,.55,1.32c0,.24.06.36.21.36s.26-.22.26-.63c0-1.58.07-2.15.07-2.41a.28.28,0,0,0-.28-.26,12.79,12.79,0,0,0-3-.33c-2.88,0-5.24,1.59-5.24,4,0,1.77.81,3.13,3.26,4.56l1.2.71C7,53.43,7.21,54.3,7.21,55.18a2.61,2.61,0,0,1-2.88,2.55,3.22,3.22,0,0,1-3.31-2,4,4,0,0,1-.19-1,.27.27,0,0,0-.18-.33h0c-.16,0-.26.22-.26.52S.24,56.48.24,57.56a.56.56,0,0,0,.4.68h0"/><path class="cls-1" d="M20.33,52.29h-4c-.07,0-.12,0-.07-.15l2-5a.22.22,0,0,1,.12-.19.34.34,0,0,1,.09.19l2,5c0,.07,0,.12-.09.12M22.4,58c-.21,0-.26.1-.26.22s.24.14.63.16c1.74.05,3.26.05,4,.05s.9-.05.9-.21-.09-.22-.28-.22a4,4,0,0,1-.78-.07c-.38-.06-1-.33-1.78-2.14C23.49,52.76,20,44.64,19.52,43.53c-.21-.45-.3-.62-.62-.62s-.38.23-.63.8L12.84,56.23c-.43,1-.78,1.62-1.72,1.77h-.63a.2.2,0,0,0-.23.17.06.06,0,0,0,0,0c0,.16.12.21.38.21,1.09,0,2.2-.07,2.41-.07.66,0,1.63.07,2.32.07.21,0,.33-.05.33-.21s0-.21-.31-.21h-.27c-.62,0-.82-.21-.82-.57a3.58,3.58,0,0,1,.3-1.25l1.11-2.64a.16.16,0,0,1,.18-.14h4.9a.2.2,0,0,1,.21.14l1.6,4.06a.32.32,0,0,1-.12.43l-.07,0"/><path class="cls-1" d="M33.1,58.74c.28,0,.48-.3,1-1.46s1.44-3.21,2.76-6.14c1.14-2.45,1.68-3.54,2.51-5.42.54-1.26.82-1.59,1.09-1.78a1.61,1.61,0,0,1,1-.23c.21,0,.33-.07.33-.22s-.16-.18-.42-.18c-.63,0-1.61,0-2,0s-1.19,0-2.22,0c-.4,0-.59,0-.59.18a.3.3,0,0,0,.35.22,2.9,2.9,0,0,1,.83.09.33.33,0,0,1,.28.36,2.62,2.62,0,0,1-.19.73c-.49,1.32-3.16,7.79-4.06,9.87h-.07l-3.5-9a5.4,5.4,0,0,1-.47-1.51.43.43,0,0,1,.21-.4,1.47,1.47,0,0,1,.8-.14.28.28,0,0,0,.33-.2v0c0-.14-.24-.18-.49-.18-1,0-2.13,0-2.64,0-.74,0-1.92,0-3,0-.3,0-.52,0-.52.18a.19.19,0,0,0,.17.22h.07a3.06,3.06,0,0,1,.8.07c.76.18,1.07.38,1.54,1.49l5.23,12.27c.41,1,.57,1.2.86,1.2"/><path class="cls-1" d="M48.52,52.29h-4c-.07,0-.12,0-.07-.15l2-5a.24.24,0,0,1,.11-.19.3.3,0,0,1,.1.19l2,5c0,.07,0,.12-.1.12M50.59,58c-.21,0-.26.1-.26.22s.24.14.63.16c1.74.05,3.26.05,4,.05s.9-.05.9-.21-.1-.22-.28-.22a4.15,4.15,0,0,1-.79-.07c-.37-.06-1-.33-1.77-2.14-1.32-3.05-4.79-11.17-5.29-12.28-.21-.45-.3-.62-.62-.62s-.38.23-.63.8L41,56.23c-.43,1-.78,1.62-1.72,1.77h-.63a.21.21,0,0,0-.24.17v0c0,.16.12.21.38.21,1.09,0,2.19-.07,2.41-.07.66,0,1.63.07,2.31.07.22,0,.34-.05.34-.21s-.05-.21-.31-.21H43.3c-.63,0-.83-.21-.83-.57a3.59,3.59,0,0,1,.31-1.25l1.11-2.64a.16.16,0,0,1,.18-.14H49a.2.2,0,0,1,.25.13h0l1.61,4.06a.32.32,0,0,1-.13.43l-.06,0"/><path class="cls-1" d="M64.57,52.51c2.17,2.1,4.77,4.58,6.07,5.78a1.25,1.25,0,0,0,.85.43c.16,0,.33-.19.33-.63l.24-12.69c0-1.13.19-1.49.76-1.65a2.15,2.15,0,0,1,.62-.07c.24,0,.36-.09.36-.21s-.19-.19-.47-.19c-1,0-1.8,0-2,0-.45,0-1.55,0-2.64,0-.3,0-.52,0-.52.19s.07.21.33.21a3.32,3.32,0,0,1,1.09.12c.5.19.69.55.71,1.77l.23,9H70.4c-.31-.28-3.07-3.13-4.49-4.51-3-2.95-6.14-6.13-6.4-6.4A1.79,1.79,0,0,0,58.6,43c-.21,0-.36.28-.36.68l-.19,11.9c0,1.74-.09,2.29-.62,2.42a4.32,4.32,0,0,1-1,.1.28.28,0,0,0-.33.21c0,.19.19.21.48.21,1.06,0,2-.07,2.24-.07.37,0,1.34.07,2.69.07.28,0,.47,0,.47-.21s-.12-.21-.36-.21a3.38,3.38,0,0,1-1.09-.15c-.4-.14-.66-.62-.7-2.17l-.24-8.18h.07c.4.35,2.59,2.79,4.86,5"/><path class="cls-1" d="M84.89,52.51c2.17,2.1,4.77,4.58,6.07,5.78a1.25,1.25,0,0,0,.85.43c.16,0,.32-.19.32-.63L92.4,45.4c0-1.13.19-1.49.76-1.65a2.18,2.18,0,0,1,.63-.07c.23,0,.35-.09.35-.21s-.19-.19-.47-.19c-1,0-1.79,0-2,0-.45,0-1.56,0-2.64,0-.31,0-.52,0-.52.19s.07.21.33.21a3.29,3.29,0,0,1,1.08.12c.5.19.68.55.71,1.77l.21,8.93h-.09c-.31-.28-3.07-3.13-4.48-4.51-3-3-6.14-6.13-6.4-6.4a1.73,1.73,0,0,0-.9-.65c-.21,0-.35.28-.35.68l-.18,11.89c0,1.75-.1,2.29-.63,2.43a4.32,4.32,0,0,1-1,.1.28.28,0,0,0-.33.21c0,.19.19.21.47.21,1.07,0,2-.07,2.24-.07.38,0,1.35.07,2.69.07.29,0,.47-.05.47-.21S82.26,58,82,58a3.42,3.42,0,0,1-1.09-.15c-.4-.14-.65-.62-.7-2.17L80,47.53h.07c.4.35,2.6,2.79,4.86,5"/><path class="cls-1" d="M104.57,52.29h-4c-.07,0-.12,0-.07-.15l2-5a.25.25,0,0,1,.12-.19.26.26,0,0,1,.09.19l2,5c0,.07,0,.12-.09.12M106.64,58c-.22,0-.26.1-.26.22s.24.14.63.16c1.74.05,3.26.05,4,.05s.9-.05.9-.21-.09-.22-.28-.22a4,4,0,0,1-.78-.07c-.38-.06-1-.33-1.78-2.14-1.32-3.05-4.79-11.17-5.29-12.28-.21-.45-.3-.62-.62-.62s-.38.23-.63.8L97.08,56.23c-.42,1-.78,1.62-1.72,1.77h-.63a.2.2,0,0,0-.23.17.06.06,0,0,0,0,0c0,.16.12.21.38.21,1.09,0,2.2-.07,2.42-.07.65,0,1.62.07,2.31.07.21,0,.33-.05.33-.21s-.05-.21-.3-.21h-.28c-.63,0-.83-.21-.83-.57a3.83,3.83,0,0,1,.31-1.25l1.08-2.64a.18.18,0,0,1,.19-.14H105a.2.2,0,0,1,.21.14l1.61,4.06a.32.32,0,0,1-.13.43l-.06,0"/><path class="cls-1" d="M123.86,43.3c-.31,0-.45.05-.45.19s.12.21.35.21a3.7,3.7,0,0,1,.81.07,1,1,0,0,1,.89,1.06v0c0,.62.05,1.37.05,4.41v.43a.13.13,0,0,1-.09.14h-7.87a.12.12,0,0,1-.14-.1v-.46c0-3.05,0-3.76,0-4.42s.21-1,.78-1.08a2.32,2.32,0,0,1,.59-.07c.25,0,.37-.07.37-.22s-.14-.18-.42-.18c-.83,0-2.27,0-2.77,0s-1.93,0-3,0c-.29,0-.45,0-.45.18s.14.22.35.22a3.29,3.29,0,0,1,.83.07,1,1,0,0,1,.9,1v7.83c0,1.84,0,3.42-.09,4.27-.07.59-.19,1-.63,1.07a3.61,3.61,0,0,1-.73.07c-.27,0-.33.12-.33.21s.14.21.4.21c.82,0,2.19-.07,2.66-.07s2,.07,3.38.07c.25,0,.42-.07.42-.21a.26.26,0,0,0-.32-.21h0a7.55,7.55,0,0,1-1.06-.07c-.63-.1-.74-.47-.8-1,0-.92,0-2.42,0-4.26V51.16a.12.12,0,0,1,.12-.12h7.83a.13.13,0,0,1,.12.12V52.7c0,1.84,0,3.37-.09,4.22-.07.59-.19,1-.63,1.07a3.21,3.21,0,0,1-.76.06.29.29,0,0,0-.33.21h0c0,.14.16.21.45.21.8,0,2.27-.07,2.74-.07s1.94.07,3.28.07c.27,0,.43-.07.43-.21a.3.3,0,0,0-.33-.22,7.45,7.45,0,0,1-1.06-.06c-.63-.1-.76-.47-.83-1-.09-.88-.09-2.46-.09-4.3V49.11c0-3,0-3.61.05-4.25s.21-1,.76-1.09a3.18,3.18,0,0,1,.62-.07c.24,0,.38-.07.38-.21s-.14-.19-.45-.19c-.8,0-2.17.05-2.67.05s-2-.05-3.13-.05"/><path class="cls-1" d="M3.37,75.29,2.89,75c-1.09-.63-1.26-1-1.26-1.54,0-.8.79-1.25,1.65-1.25a1.62,1.62,0,0,1,1.35.55,1.38,1.38,0,0,1,.28.79q0,.21.12.21c.08,0,.15-.13.15-.37,0-.92.05-1.25.05-1.4a.16.16,0,0,0-.17-.15,7,7,0,0,0-1.71-.2C1.67,71.66.3,72.58.3,74c0,1,.47,1.82,1.88,2.65l.71.39c1.07.63,1.19,1.14,1.19,1.65a1.51,1.51,0,0,1-1.54,1.49H2.4A1.87,1.87,0,0,1,.48,79a2.18,2.18,0,0,1-.11-.62.15.15,0,0,0-.1-.19h0c-.09,0-.15.13-.15.3S0,79.43,0,80.06a.32.32,0,0,0,.22.4h0a5.23,5.23,0,0,0,2,.31,3.57,3.57,0,0,0,2-.49A2.47,2.47,0,0,0,5.45,78.1c0-1.06-.49-1.95-2.08-2.83"/><path class="cls-1" d="M13.37,72.55c1.08,0,1.4.37,1.43.68v.12c0,.18,0,.24.14.24s.09-.07.11-.2V72c0-.25,0-.25-.1-.25a1.06,1.06,0,0,0-.33,0,4.52,4.52,0,0,1-.82,0H8.93a9.88,9.88,0,0,1-1.21,0,5,5,0,0,1-.51-.14c-.1,0-.12.07-.14.22s-.27,1.26-.27,1.42,0,.19.12.19a.13.13,0,0,0,.13-.15A1.72,1.72,0,0,1,7.27,73c.18-.26.47-.35,1.16-.36l1.8,0v4.72c0,1.07,0,2-.06,2.51a.57.57,0,0,1-.35.62,1.58,1.58,0,0,1-.43,0c-.15,0-.19.06-.19.12s.08.13.23.13c.48,0,1.3,0,1.57,0s1.16,0,2,0c.14,0,.23,0,.23-.13a.17.17,0,0,0-.18-.13h0a4.46,4.46,0,0,1-.63,0,.54.54,0,0,1-.47-.61h0c-.06-.51-.07-1.43-.07-2.51V72.55Z"/><path class="cls-1" d="M19.86,77H17.53c-.05,0-.07,0-.05-.08l1.17-2.91a.14.14,0,0,1,.07-.11.14.14,0,0,1,.06.11L19.92,77s0,.07-.06.07M24,80.39a3.42,3.42,0,0,1-.46,0c-.22,0-.56-.2-1-1.26-.77-1.77-2.79-6.49-3.08-7.14-.12-.26-.17-.37-.35-.37a.57.57,0,0,0-.36.47l-3.13,7.29c-.25.59-.46,1-1,1h-.36a.13.13,0,0,0-.14.1v0c0,.1.07.12.22.12.63,0,1.25,0,1.4,0,.39,0,1,0,1.35,0,.13,0,.19,0,.19-.12s0-.13-.17-.13h-.21c-.37,0-.49-.12-.49-.33a1.92,1.92,0,0,1,.19-.71l.62-1.58a.09.09,0,0,1,.11-.08h2.85a.1.1,0,0,1,.12.08l.93,2.36a.17.17,0,0,1-.07.24.05.05,0,0,1,0,0c-.12,0-.15.06-.15.13s.14.08.36.1h2.32c.45,0,.52,0,.52-.13s-.06-.12-.16-.12"/><path class="cls-1" d="M31.19,71.69a1.11,1.11,0,0,0-.33.06,5.69,5.69,0,0,1-.83.06h-4.9q-.6,0-1.2-.06a4.71,4.71,0,0,1-.52-.14c-.1,0-.12.07-.14.22S23,73.08,23,73.25s0,.19.11.19a.15.15,0,0,0,.14-.15,1.25,1.25,0,0,1,.2-.4c.18-.26.47-.34,1.17-.36l1.8,0v4.73c0,1.07,0,2-.06,2.5a.57.57,0,0,1-.35.63,1.56,1.56,0,0,1-.43,0c-.15,0-.19.07-.19.13s.08.12.23.12c.48,0,1.3,0,1.58,0s1.15,0,1.95,0c.14,0,.23,0,.23-.12a.16.16,0,0,0-.19-.13h0a4.43,4.43,0,0,1-.63,0,.54.54,0,0,1-.47-.61v0c-.06-.51-.07-1.43-.07-2.5V72.49h1.53c1.08,0,1.4.37,1.43.67v.12c0,.19,0,.24.13.24s.1-.07.11-.2V71.91c0-.25,0-.25-.09-.25"/><path class="cls-1" d="M38.84,78.8c-.08,0-.11.06-.14.17a1,1,0,0,1-.51.87,3.17,3.17,0,0,1-1.14.15c-1.26,0-1.61-.18-1.64-1V76.35c0-.07,0-.12.07-.12.3,0,1.68,0,1.88,0a.63.63,0,0,1,.67.45,1.5,1.5,0,0,0,0,.43.09.09,0,0,0,.1.09h0c.11,0,.12-.16.12-.26a4,4,0,0,1,.06-.78c.07-.59.09-.78.09-.85a.11.11,0,0,0-.09-.13.47.47,0,0,0-.19.15.93.93,0,0,1-.58.18H35.47c-.06,0-.08,0-.08-.12V72.55a.11.11,0,0,1,.06-.11h0c.25,0,1.69,0,1.88.06a.74.74,0,0,1,.8.42,1.26,1.26,0,0,1,.08.43c0,.09,0,.15.09.15a.2.2,0,0,0,.14-.2c0-.13.06-.62.07-.77a4.82,4.82,0,0,1,.1-.75.11.11,0,0,0-.06-.09l-.2.06c-.09,0-.28.06-.5.07s-2.91,0-3.3,0H32.83c-.18,0-.28,0-.28.11s.08.12.21.12a2,2,0,0,1,.48,0,.56.56,0,0,1,.52.62v4.53c0,1.07,0,2-.06,2.51a.56.56,0,0,1-.35.62,1.57,1.57,0,0,1-.43,0c-.15,0-.19.07-.19.13s.08.12.23.12h2.93c.59,0,1.31,0,2.22,0,.45,0,.56,0,.63-.31a7.86,7.86,0,0,0,.16-1.28c0-.13,0-.28-.11-.28"/><path class="cls-1" d="M54.22,71.81H51.36c-.16,0-.24,0-.24.1s.07.13.2.13a2.12,2.12,0,0,1,.44,0,.57.57,0,0,1,.51.62h0v3.94c0,1.2,0,2.21-.7,2.84a2.55,2.55,0,0,1-3.13.15c-.59-.46-.92-1.12-.92-2.82V72.71a.52.52,0,0,1,.41-.62h0a2,2,0,0,1,.35,0c.13,0,.2,0,.2-.13s-.08-.1-.26-.1H44.88c-.18,0-.26,0-.26.1s.07.13.21.13a2.56,2.56,0,0,1,.47,0,.56.56,0,0,1,.52.6V76.9A3.78,3.78,0,0,0,46.91,80a4.2,4.2,0,0,0,2.76.79A3.76,3.76,0,0,0,52.23,80a4.34,4.34,0,0,0,1.15-3.52V72.7c0-.37.11-.57.44-.62a1.34,1.34,0,0,1,.35,0c.14,0,.21,0,.21-.12s-.08-.11-.25-.11"/><path class="cls-1" d="M65.38,71.81H62.66c-.17,0-.3,0-.3.1s0,.13.2.13a1.85,1.85,0,0,1,.62.07c.29.1.4.31.41,1l.13,5.19h0c-.18-.16-1.78-1.81-2.61-2.62C59.3,74,57.49,72.13,57.33,72a1,1,0,0,0-.52-.38c-.12,0-.2.16-.2.4l-.11,6.92c0,1-.06,1.33-.37,1.41a2.57,2.57,0,0,1-.55.06.17.17,0,0,0-.2.12h0c0,.11.11.13.28.13.62,0,1.19,0,1.3,0s.78,0,1.56,0c.17,0,.28,0,.28-.13s-.07-.12-.21-.12a2.15,2.15,0,0,1-.62-.08c-.23-.08-.39-.36-.42-1.25l-.13-4.77h0c.23.21,1.51,1.62,2.83,2.89s2.77,2.66,3.53,3.36a.67.67,0,0,0,.49.25c.1,0,.2-.11.2-.37l.14-7.36c0-.66.11-.86.43-1a1.18,1.18,0,0,1,.37,0c.14,0,.21,0,.21-.12s-.11-.11-.28-.11"/><path class="cls-1" d="M71.4,80.39c-.21,0-.42,0-.63,0a.52.52,0,0,1-.48-.55h0c-.05-.49-.05-1.42-.05-2.55V72.71a.52.52,0,0,1,.41-.62h0a2.2,2.2,0,0,1,.36,0c.13,0,.19,0,.19-.14s-.09-.09-.24-.09H67.83c-.2,0-.29,0-.29.09s.07.14.19.14a1.61,1.61,0,0,1,.44.06.54.54,0,0,1,.41.62v4.53c0,1.13,0,2.06,0,2.54a.51.51,0,0,1-.36.57,2,2,0,0,1-.43,0c-.15,0-.19.07-.19.13s.08.12.23.12c.48,0,1.31,0,1.58,0s1.15,0,2,0c.14,0,.23,0,.23-.12a.15.15,0,0,0-.18-.13h0"/><path class="cls-1" d="M81.7,71.81H79.27c-.23,0-.35,0-.35.1a.19.19,0,0,0,.21.13h0a1.91,1.91,0,0,1,.48.06.2.2,0,0,1,.17.2,2.09,2.09,0,0,1-.11.43c-.29.77-1.84,4.53-2.36,5.74h0l-2-5.24a3.26,3.26,0,0,1-.27-.87.23.23,0,0,1,.12-.23.86.86,0,0,1,.47-.08c.11,0,.19,0,.19-.13s-.13-.11-.28-.11h-3.3c-.18,0-.3,0-.3.11a.12.12,0,0,0,.1.13h0a1.83,1.83,0,0,1,.47,0,1.1,1.1,0,0,1,.89.86l3,7.14c.24.55.33.7.49.7s.28-.18.58-.85l1.6-3.57c.66-1.43,1-2.06,1.46-3.13a2.26,2.26,0,0,1,.63-1,1,1,0,0,1,.58-.13c.13,0,.2,0,.2-.13s-.1-.11-.25-.11"/><path class="cls-1" d="M88.57,78.8c-.09,0-.11.06-.14.17a1,1,0,0,1-.52.87,3.17,3.17,0,0,1-1.14.15c-1.25,0-1.61-.18-1.64-1V76.35c0-.07,0-.12.07-.12.3,0,1.67,0,1.88,0a.63.63,0,0,1,.67.45,1.21,1.21,0,0,0,0,.43s0,.09.09.09h0c.11,0,.13-.16.13-.26a4.83,4.83,0,0,1,0-.78c.07-.59.1-.78.1-.85a.13.13,0,0,0-.1-.13.55.55,0,0,0-.19.15.93.93,0,0,1-.58.18H85.2c-.07,0-.08,0-.08-.12V72.55a.09.09,0,0,1,0-.11h0c.24,0,1.69,0,1.88.06a.73.73,0,0,1,.79.42,1.06,1.06,0,0,1,.08.43c0,.09,0,.15.1.15a.21.21,0,0,0,.13-.2c0-.13.06-.62.07-.77a6.42,6.42,0,0,1,.1-.75.09.09,0,0,0-.06-.11h0a.6.6,0,0,0-.19.06c-.1,0-.29,0-.51.06s-2.91,0-3.29,0H82.54c-.18,0-.28,0-.28.11s.08.13.21.13a2,2,0,0,1,.48,0,.57.57,0,0,1,.52.61v4.55c0,1.07,0,2-.06,2.5a.57.57,0,0,1-.35.63,2.09,2.09,0,0,1-.43,0c-.15,0-.19.06-.19.12s.08.13.23.13H85.6c.6,0,1.32,0,2.23,0,.45,0,.57,0,.63-.3a8.12,8.12,0,0,0,.16-1.29c0-.13,0-.28-.11-.28"/><path class="cls-1" d="M94.84,76.21a1.23,1.23,0,0,1-.85.2,3.56,3.56,0,0,1-.92-.11.2.2,0,0,1-.12-.21V72.61a.15.15,0,0,1,.12-.16,5.53,5.53,0,0,1,.71,0,1.84,1.84,0,0,1,1.84,2.08,2,2,0,0,1-.78,1.72m4.86,4.18a1.4,1.4,0,0,1-.29,0,2.25,2.25,0,0,1-1.29-.77c-.72-.73-1.57-1.78-2.64-3.13,1.18-.95,1.67-1.72,1.67-2.58a2.06,2.06,0,0,0-.85-1.6,4.29,4.29,0,0,0-2.3-.5H90.48c-.18,0-.27,0-.27.11s.08.13.2.13a2,2,0,0,1,.48,0,.56.56,0,0,1,.52.61h0v4.54c0,1.07,0,2,0,2.5a.59.59,0,0,1-.36.63,2,2,0,0,1-.43,0c-.15,0-.19.07-.19.13s.08.12.23.12c.48,0,1.25,0,1.49,0s1.18,0,1.87,0c.15,0,.25,0,.25-.12a.14.14,0,0,0-.15-.13h0a5.65,5.65,0,0,1-.59,0,.53.53,0,0,1-.47-.6v0c-.06-.49-.07-1.4-.07-2.5v-.17A.1.1,0,0,1,93,77h1.1a.31.31,0,0,1,.22.09c.15.18.65,1,1.14,1.59a5.39,5.39,0,0,0,1.64,1.72,2.63,2.63,0,0,0,1.32.23h1.15c.16,0,.24,0,.24-.13a.13.13,0,0,0-.15-.12h0"/><path class="cls-1" d="M103.36,75.29l-.5-.27c-1.08-.63-1.25-1-1.25-1.54,0-.8.78-1.25,1.65-1.25a1.59,1.59,0,0,1,1.34.55,1.29,1.29,0,0,1,.32.79c0,.14,0,.21.13.21s.15-.13.15-.37c0-.92,0-1.25,0-1.4a.16.16,0,0,0-.16-.15,7.1,7.1,0,0,0-1.72-.2c-1.67,0-3,.92-3,2.35,0,1,.47,1.82,1.88,2.65l.7.41c1.07.63,1.2,1.14,1.2,1.65a1.52,1.52,0,0,1-1.54,1.49h-.14a1.78,1.78,0,0,1-2-1.78c0-.08,0-.19-.13-.19s-.15.13-.15.3-.07.92-.07,1.55a.34.34,0,0,0,.23.4h0a5.06,5.06,0,0,0,2,.3,3.52,3.52,0,0,0,2-.48,2.48,2.48,0,0,0,1.2-2.18c0-1.06-.49-2-2.08-2.83"/><path class="cls-1" d="M111.1,80.39c-.21,0-.42,0-.63,0a.51.51,0,0,1-.48-.53v0c0-.49,0-1.42,0-2.55V72.71a.52.52,0,0,1,.41-.62h0a2,2,0,0,1,.35,0c.13,0,.2,0,.2-.14s-.1-.09-.25-.09h-3.17c-.19,0-.29,0-.29.09s.07.14.2.14a1.59,1.59,0,0,1,.43.06.56.56,0,0,1,.42.62v4.53c0,1.13,0,2.06-.06,2.54a.5.5,0,0,1-.36.57,2,2,0,0,1-.42,0c-.15,0-.2.07-.2.13s.09.12.24.12c.48,0,1.3,0,1.58,0s1.15,0,2,0c.14,0,.23,0,.23-.12a.15.15,0,0,0-.18-.13h0"/><path class="cls-1" d="M129.82,71.81h-2.47c-.14,0-.21,0-.21.1s.11.12.22.14a.26.26,0,0,1,.26.26,1.47,1.47,0,0,1-.17.62c-.19.36-1.65,2.86-1.81,3.13-.2-.33-1.78-3.06-2-3.41a1,1,0,0,1-.15-.4.2.2,0,0,1,.17-.18c.19-.06.27-.06.27-.15s-.07-.11-.17-.11h-2.88a.23.23,0,0,0-.22.08c0-.1,0-.16-.09-.16a.87.87,0,0,0-.33.06,4.46,4.46,0,0,1-.82,0h-4.9a9.88,9.88,0,0,1-1.21,0c-.3-.05-.42-.14-.52-.14s-.11.07-.13.22-.26,1.25-.26,1.41,0,.2.11.2.11-.06.14-.15a1.39,1.39,0,0,1,.21-.4c.17-.27.47-.35,1.17-.36l1.79,0v4.72c0,1.07,0,2,0,2.51a.58.58,0,0,1-.36.62,1.5,1.5,0,0,1-.42,0c-.15,0-.2.07-.2.13s.08.12.24.12c.48,0,1.3,0,1.58,0s1.15,0,2,0c.14,0,.23,0,.23-.12a.15.15,0,0,0-.18-.13h0a4.44,4.44,0,0,1-.63,0,.53.53,0,0,1-.46-.61h0c-.06-.51-.07-1.43-.07-2.51V72.53H119c1.08,0,1.4.37,1.43.67v.12c0,.18,0,.23.14.23s.09-.07.1-.19V71.94h0a.18.18,0,0,0,.16.09,1.16,1.16,0,0,1,.51.15,2.66,2.66,0,0,1,.78.82c.42.63,2.07,3.19,2.15,3.37a2.37,2.37,0,0,1,.28,1.25v1a11.58,11.58,0,0,1,0,1.16.56.56,0,0,1-.37.63,2,2,0,0,1-.42,0,.16.16,0,0,0-.2.12h0c0,.1.1.13.27.13.45,0,1.25,0,1.56,0s1.14,0,1.88,0c.16,0,.26,0,.26-.13a.16.16,0,0,0-.2-.12,4.44,4.44,0,0,1-.63,0,.56.56,0,0,1-.5-.61V77.65a2.6,2.6,0,0,1,.15-1.17,39.17,39.17,0,0,1,2.34-3.75,1.59,1.59,0,0,1,.63-.55,1.34,1.34,0,0,1,.52-.14.2.2,0,0,0,.23-.14c0-.07-.08-.09-.22-.09"/><path class="cls-2" d="M118.21,66.75a3.94,3.94,0,0,1-2.74-1,3.59,3.59,0,0,0-4.56,0,4.26,4.26,0,0,1-5.48,0,3.56,3.56,0,0,0-4.56,0,4.26,4.26,0,0,1-5.48,0,3.6,3.6,0,0,0-4.57,0,4.22,4.22,0,0,1-5.47,0,3.6,3.6,0,0,0-4.57,0,4.22,4.22,0,0,1-5.47,0,3.6,3.6,0,0,0-4.57,0,4.22,4.22,0,0,1-5.47,0,3.6,3.6,0,0,0-4.57,0,4.24,4.24,0,0,1-5.48,0,3.59,3.59,0,0,0-4.56,0,4.26,4.26,0,0,1-5.48,0,3.59,3.59,0,0,0-4.56,0,4.26,4.26,0,0,1-5.48,0,3.59,3.59,0,0,0-4.56,0,4.24,4.24,0,0,1-5.48,0,3.59,3.59,0,0,0-4.56,0,4.24,4.24,0,0,1-5.48,0,3.59,3.59,0,0,0-4.56,0,4.26,4.26,0,0,1-5.48,0,3.59,3.59,0,0,0-4.56,0L0,65.28a4.24,4.24,0,0,1,5.48,0,3.59,3.59,0,0,0,4.56,0,4.24,4.24,0,0,1,5.48,0,3.59,3.59,0,0,0,4.56,0,4.24,4.24,0,0,1,5.48,0,3.59,3.59,0,0,0,4.56,0,4.24,4.24,0,0,1,5.48,0,3.59,3.59,0,0,0,4.56,0,4.24,4.24,0,0,1,5.48,0,3.59,3.59,0,0,0,4.56,0,4.24,4.24,0,0,1,5.48,0,3.6,3.6,0,0,0,4.57,0,4.22,4.22,0,0,1,5.47,0,3.6,3.6,0,0,0,4.57,0,4.22,4.22,0,0,1,5.47,0,3.6,3.6,0,0,0,4.57,0,4.22,4.22,0,0,1,5.47,0,3.6,3.6,0,0,0,4.57,0,4.24,4.24,0,0,1,5.48,0,3.59,3.59,0,0,0,4.56,0,4.24,4.24,0,0,1,5.48,0,3.59,3.59,0,0,0,4.56,0,4.24,4.24,0,0,1,5.48,0,3.59,3.59,0,0,0,4.56,0,4.24,4.24,0,0,1,5.48,0,3.59,3.59,0,0,0,4.56,0l.46.47a4.24,4.24,0,0,1-5.48,0,3.59,3.59,0,0,0-4.56,0A4,4,0,0,1,118.21,66.75Z"/><path class="cls-2" d="M57.56,9.48a9.92,9.92,0,0,1,5.75-2A5.09,5.09,0,0,0,60.9,9.34,4.83,4.83,0,0,0,60.18,12v.79a7.19,7.19,0,0,0-3.13,0,5.43,5.43,0,0,0-3.51,2.07s.26-2.74,4-5.35"/><path class="cls-2" d="M63.72,8.26v7.19a5.61,5.61,0,0,0-2.5-2.27v-1a4.26,4.26,0,0,1,.51-2.27,4.76,4.76,0,0,1,2-1.66"/><rect class="cls-2" x="42.07" y="22.53" width="7.29" height="11.92"/><path class="cls-2" d="M55.57,14.32a5.94,5.94,0,0,1,4.61-.49V18.3H53a5.3,5.3,0,0,1,2.62-4"/><rect class="cls-2" x="53.81" y="21.7" width="9.72" height="12.75"/><path class="cls-2" d="M61.1,18.35V14.21c2.21,1.2,2.61,4.14,2.61,4.14Z"/><path class="cls-2" d="M72.37,9.48c3.76,2.61,4,5.35,4,5.35a5.41,5.41,0,0,0-3.5-2.07,7.5,7.5,0,0,0-3.13,0V12A4.84,4.84,0,0,0,69,9.32a5.11,5.11,0,0,0-2.4-1.83,10,10,0,0,1,5.73,2"/><path class="cls-2" d="M66.49,8.26a4.79,4.79,0,0,1,2,1.66A4.28,4.28,0,0,1,69,12.19v1a5.55,5.55,0,0,0-2.5,2.27V8.26Z"/><path class="cls-2" d="M68.85,14.21v4.14H66.23s.41-2.94,2.62-4.14"/><rect class="cls-2" x="66.54" y="21.7" width="9.72" height="12.75"/><path class="cls-2" d="M69.77,18.3V13.83a5.94,5.94,0,0,1,4.61.49,5.28,5.28,0,0,1,2.6,4Z"/><rect class="cls-2" x="80.67" y="22.53" width="7.29" height="11.92"/><polygon class="cls-2" points="65.02 0 32.81 18.52 20.7 34.45 23.77 34.45 34.39 20.65 65.02 2.59 95.64 20.56 106.45 34.35 109.8 34.35 97.21 18.52 65.02 0"/><polygon class="cls-2" points="0.04 0 0.04 34.45 18.1 34.45 31.51 16.95 61.11 0 0.04 0"/><polygon class="cls-2" points="69.12 0 98.72 16.95 112.13 34.45 130.19 34.45 130.19 0 69.12 0"/></svg>