<svg id="Layer_1" data-name="Layer 1" xmlns="http://www.w3.org/2000/svg" xmlns:xlink="http://www.w3.org/1999/xlink" viewBox="0 0 65.98 70"><defs><style>.cls-1{fill:none;}.cls-2{fill:#fff;}.cls-3{clip-path:url(#clip-path);}.cls-4{fill:#fc1a22;}.cls-5{fill:#1c3694;}</style><clipPath id="clip-path" transform="translate(-1.03)"><rect class="cls-1" width="70.13" height="70"/></clipPath></defs><title>university-of-west-georgia_icon</title><path class="cls-2" d="M6.71,7.9,1.19,23.5l-.14,2.89s.77,17.08,7.46,25.75S33.75,69,33.75,69s14.19-4.16,22-12.07S67,26.47,67,26.47V24.55L62.18,7.9,47.92,6.44,34.27,1.38,22.37,6.44Z" transform="translate(-1.03)"/><g class="cls-3"><path class="cls-4" d="M18.38,11.92c-.86,0-1.4.35-1.4,1.59v4.58c0,1.25.56,1.6,1.4,1.6s1.4-.35,1.4-1.6V13.42c0-1.25-.54-1.59-1.4-1.59" transform="translate(-1.03)"/><path class="cls-4" d="M62.47,6.94A57.25,57.25,0,0,1,34.08,0,53.2,53.2,0,0,1,5.94,6.75S1.15,15.85,1.15,24.5H66.89a42.85,42.85,0,0,0-4.4-17.56M10.33,19.69c.81,0,1.3-.6,1.3-1.56v-.69H10.14V15.66H13.8v5.75H12.67l-.33-.94a2.64,2.64,0,0,1-2,1.09c-2.09,0-3.54-1-3.54-3.83V13.8C6.79,11,8.24,10,10.33,10s3.39,1.26,3.47,3.83H11.65c0-1.46-.53-1.92-1.3-1.92S9,12.23,9,13.47v4.62c0,1.25.54,1.6,1.4,1.6M22,17.77c0,2.78-1.48,3.83-3.55,3.83s-3.57-1-3.57-3.83v-4C14.85,11,16.33,10,18.42,10S22,11,22,13.8Zm14,3.62H33.89l-1.57-7.67-1.71,7.67H28.52L26.16,10.18h1.92l1.51,7.36,1.56-7.36h2.07l1.55,7.36,1.65-7.36h2Zm9.24,0H39.16V10.18H45v1.91H41.21v2.57h2.88v1.92H41.31v3h3.83Zm4.33.15a3.66,3.66,0,0,1-3.68-3.16l2-.4c.25,1.36,1,1.92,1.67,1.92a1.27,1.27,0,0,0,1.32-1.21v-.14c0-2.12-4.81-2.14-4.81-5.31a3,3,0,0,1,2.76-3.16,2.66,2.66,0,0,1,.63,0A3.36,3.36,0,0,1,53,12.82L51,13.38c-.36-1.06-.82-1.52-1.57-1.52a1.12,1.12,0,0,0-1.19,1,1.34,1.34,0,0,0,0,.2c0,1.71,4.81,1.92,4.81,5.35A3.16,3.16,0,0,1,50,21.69a4.36,4.36,0,0,1-.51,0m11.35-9.58H58.38v9.35H56.24V12.08H53.67V10.16h7.17Z" transform="translate(-1.03)"/><path class="cls-5" d="M67,26.39H1.05C0,64.1,34,70,34,70c36.13-7.67,32.93-43.63,32.93-43.63M13.86,51.75a9.92,9.92,0,0,1-7.09-7.66A75.66,75.66,0,0,1,5.48,28.2h4.3a90.18,90.18,0,0,0,1,17,3.23,3.23,0,0,0,2.51,3c1.44.32,1.92-.4,1.8-2.13a116.66,116.66,0,0,1-.74-17.83h4.31a152.26,152.26,0,0,0,.52,18.5c.34,4.22-1.63,6.17-5.31,5.14M37.38,64.33c-.71-7.67-1.92-15.7-3.17-23.68-1.2,8-2.37,16-3.22,23.79a29.5,29.5,0,0,1-3.83-.36c-2.45-12-5.21-24.19-6.84-35.64h4.94c.94,7.48,2.23,15.17,3.45,22.87C29.61,43.64,30.8,36,32,28.44h4.47c1.28,7.67,2.51,15.34,3.35,22.78,1.25-7.67,2.42-15.34,3.17-22.78h5c-1.42,11.33-4.08,23.31-6.71,35.39-1.28.23-2.56.4-3.83.52m9-10.76h-.51v1.48h-.37V53.59H45v-.3h1.4Zm1.92,1.48H48v-1.4l-.34,1.4h-.35L47,53.67v1.4h-.33V53.31h.54l.33,1.2.32-1.2h.54ZM61.32,34v1.37l-4,.4c.13-3.36-.69-4.18-2.38-4.14-1,0-1.91.65-1.91,2.62a112,112,0,0,1-.81,12.14c-.19,1.51.15,2.39,1.55,2.09s2.34-1.42,2.69-3.67l.29-2.18-2.63.44c.11-1.06.21-2.11.29-3.16q3.42-.44,6.78-1A88,88,0,0,1,59.29,49.7l-1.92.65c-.12-.46-.23-.94-.37-1.42a8.09,8.09,0,0,1-4.31,3.13c-3.07.84-4.89-1.17-4.54-5.08.38-4.2.59-8.41.61-12.59A5.75,5.75,0,0,1,54,28.18a4.92,4.92,0,0,1,.94,0c4.32,0,6.62,2.66,6.44,5.75" transform="translate(-1.03)"/></g></svg>