<svg id="Capa_1" data-name="Capa 1" xmlns="http://www.w3.org/2000/svg" viewBox="0 0 512 501.77"><title>piggy-bank</title><path d="M422.5,270.61a7.45,7.45,0,0,0-7.45,7.45,9.46,9.46,0,0,1-18.92,0,7.45,7.45,0,1,0-14.9,0,24.36,24.36,0,0,0,48.73,0A7.45,7.45,0,0,0,422.5,270.61Z" transform="translate(0 -5.12)" fill="#fff"/><path d="M492.44,271.83l-21-6.72a8.77,8.77,0,0,1-5.66-5.74A135.22,135.22,0,0,0,446,220.16a143.89,143.89,0,0,0-13.24-15.62,184.82,184.82,0,0,0,4.56-42.21c-.31-19-4.11-30.12-11.6-34-4-2.12-16.32-8.54-82.78,21.88a24.18,24.18,0,0,0-4.4,2.62c-4.48-1.2-9.06-2.32-13.67-3.32l-1.69-.35a101.5,101.5,0,0,0,9.12-37.74,7.45,7.45,0,0,0-14.89-.67,86.7,86.7,0,0,1-56.72,77.52,216.08,216.08,0,0,0-60,0A86.77,86.77,0,1,1,308.24,67.79a7.45,7.45,0,0,0,13.31-6.7A101.71,101.71,0,1,0,176.71,193h0q-6.95,1.81-13.78,4.08a7.45,7.45,0,0,0,4.73,14.13,200,200,0,0,1,126,0,7.45,7.45,0,0,0,4.73-14.13q-6.82-2.28-13.78-4.08h0a101.6,101.6,0,0,0,30.93-30.24c2.05.4,4.09.82,6.1,1.25q4,.87,8,1.86c-.08.32-.17.65-.24,1-3.63,17.24-3.4,32.5.7,45.33A54,54,0,0,0,349.89,240a62.68,62.68,0,0,0,36.68,11.64c9.14,0,17.58-2,23.77-5.5,7-4,12.87-12.33,17.52-24.88q3.22,3.76,6.1,7.7a120.31,120.31,0,0,1,17.65,34.9,23.7,23.7,0,0,0,15.33,15.46l21,6.72a13.2,13.2,0,0,1,9.2,12.61v34.77A13.19,13.19,0,0,1,487.9,346l-33.79,10.82a23,23,0,0,0-12.88,10.46c-13.27,22.94-34.15,41.93-62,56.43a11.68,11.68,0,0,0-6.13,8.23l-10.82,57.3A3.35,3.35,0,0,1,359,492H323.77a3.35,3.35,0,0,1-3.29-2.72l-6-31.67a11.71,11.71,0,0,0-13.31-9.42,311.48,311.48,0,0,1-46.42,3.45,297.07,297.07,0,0,1-34.15-1.93,11.8,11.8,0,0,0-12.91,9.47L202,489.26a3.35,3.35,0,0,1-3.29,2.72H163.52a3.36,3.36,0,0,1-3.29-2.75l-10.42-54.12a11.7,11.7,0,0,0-6-8.14C96.25,401.6,71.12,359.19,71.12,304.35c0-27.71,6.06-52.21,18-72.82,11.16-19.24,27.45-35.15,48.43-47.28a7.45,7.45,0,0,0-7.46-12.9c-40.68,23.53-65.21,59.84-72,105.95h0l-2.15-.2a37.1,37.1,0,0,0-2.73-14.87c-4.32-10.75-13.2-18.5-22.62-19.76-7.42-1-14.49,2.16-19.39,8.64-7.11,9.39-5.95,16.83-3.73,21.41,3.75,7.73,13.4,13.2,29.41,16.64q-.66,1-1.45,2C26,303,14.86,305.62,7.63,305.87A7.82,7.82,0,0,0,0,313.65v0a7.8,7.8,0,0,0,7.48,7.78q.8,0,1.68,0c9.16,0,23.85-3.38,38-21.08a42.5,42.5,0,0,0,5.44-8.79q2.11.24,4.05.42h0c-.25,4-.4,8.14-.4,12.3,0,31,7.4,58.69,22,82.23,13.45,21.7,32.71,39.47,57.26,52.83L145.59,492a18.26,18.26,0,0,0,17.93,14.86h35.19A18.26,18.26,0,0,0,216.64,492l5.15-27.21a314,314,0,0,0,33,1.71,327.35,327.35,0,0,0,45.65-3.18L305.83,492a18.27,18.27,0,0,0,17.93,14.86H359A18.27,18.27,0,0,0,376.89,492l10.54-55.79c29.77-15.74,52.21-36.42,66.7-61.48a8.15,8.15,0,0,1,4.53-3.73l33.79-10.82A28.06,28.06,0,0,0,512,333.4V298.63A28.05,28.05,0,0,0,492.44,271.83Zm-71.17-88.56c-2.87,24.53-10.56,45.51-18.29,49.88-8.79,5-29.07,5.94-44.3-5.2s-20.32-31.21-14.68-58h0a9,9,0,0,1,5.11-6.23c37.3-17.08,58.81-22.66,66.8-22.66a7.79,7.79,0,0,1,2.7.36C421,144,424.17,158.52,421.28,183.27ZM20.92,266c-.77-1.59,1-4.39,2.2-5.91,1.83-2.42,3.51-2.91,4.79-2.91a5.59,5.59,0,0,1,.75.05c3.43.46,8.23,4.23,10.77,10.55a22.62,22.62,0,0,1,1.56,7C30.67,272.67,22.66,269.59,20.92,266Z" transform="translate(0 -5.12)" fill="#fff"/><path d="M237.92,98.28V71.61c9.2.66,12.61,4.86,15.76,4.86,3.94,0,5.78-5,5.78-7.49,0-6.44-12.61-9.19-21.54-9.46V56c0-1.58-2-3-3.94-3-2.23,0-3.81,1.44-3.81,3v3.81c-12.48,1.31-25,7.88-25,24.43,0,16.81,13.14,21.54,25,25.75v30.87c-13.4-1.05-16.95-10.25-21.28-10.25-3.28,0-6,4.34-6,7.49,0,6.44,11,15.24,27.32,15.5h0v4.07c0,1.58,1.58,3,3.81,3,2,0,3.94-1.45,3.94-3v-4.47c14.19-2,23.91-10.9,23.91-27.06C261.83,108.26,249.35,102.48,237.92,98.28Zm-7-2.5c-7-2.63-12.61-5.39-12.61-12.87,0-6.83,5.25-10.11,12.61-11Zm6.17,44.79V112.86c6.44,2.76,11.56,6.44,11.56,14.71C248.69,135.06,244.22,139.26,237.13,140.57Z" transform="translate(0 -5.12)" fill="#fff"/></svg>