<svg id="Layer_1" data-name="Layer 1" xmlns="http://www.w3.org/2000/svg" viewBox="0 0 288.3 301.6"><defs><style>.cls-1{fill:#a6a8aa;}.cls-2{fill:#7a7b7e;}.cls-3{fill:#d4d4d4;}.cls-4{fill:#858789;}.cls-21,.cls-5{isolation:isolate;}.cls-6{fill:#c3eaf1;}.cls-7{fill:#f6fbff;}.cls-8{fill:#8fcdef;}.cls-9{fill:#71b5d3;}.cls-10{fill:#c2ecff;}.cls-11{fill:#f8ffff;}.cls-12{fill:#f3f3f3;}.cls-13{fill:#c4c4c4;}.cls-14{fill:#cc7146;}.cls-15{fill:#eaa86b;}.cls-16{fill:#73c5d8;}.cls-17{fill:#2e4e59;}.cls-18{fill:#d1542a;}.cls-19{fill:#3a6674;}.cls-20{fill:#fff;}.cls-21{fill:#d4f2ff;opacity:0.6;}.cls-22{fill:#7d7d7d;}.cls-23{fill:#999;}</style></defs><title>atyourfingertips</title><g id="OBJECTS"><path class="cls-1" d="M286.2,224.58l-5.9,3.4c1.1-.6,1.7-1.9,1.7-3.8l5.9-3.4C287.9,222.58,287.3,224,286.2,224.58Z"/><path class="cls-1" d="M111.7,3.78l5.9-3.4a4.33,4.33,0,0,1,4.2.4l-5.9,3.4A4.09,4.09,0,0,0,111.7,3.78Z"/><polygon class="cls-2" points="282.3 107.18 288.3 103.68 287.9 220.78 282 224.18 282.3 107.18"/><polygon class="cls-3" points="115.9 4.18 121.8 0.78 282.3 93.38 276.4 96.88 115.9 4.18"/><path class="cls-1" d="M276.4,96.88l5.9-3.4a12.79,12.79,0,0,1,5.9,10.3l-5.9,3.4A12.79,12.79,0,0,0,276.4,96.88Z"/><path class="cls-4" d="M276.4,96.88a12.79,12.79,0,0,1,5.9,10.3l-.3,117.1c0,3.8-2.7,5.3-6,3.4L115.5,135a12.79,12.79,0,0,1-5.9-10.3l.3-117.1c0-3.8,2.7-5.3,6-3.4Z"/><path class="cls-1" d="M278.5,231.08V238a4.13,4.13,0,0,1-2.4,3.4v-6.9A4.13,4.13,0,0,0,278.5,231.08Z"/><path class="cls-1" d="M174.8,293.28v6.9a13.13,13.13,0,0,1-11.9,0v-6.9A13.13,13.13,0,0,0,174.8,293.28Z"/><path class="cls-1" d="M0,204.08v-6.9c0,1.3.8,2.5,2.5,3.5v6.9C.8,206.58,0,205.28,0,204.08Z"/><polygon class="cls-2" points="276.1 234.48 276.1 241.38 174.8 300.18 174.8 293.28 276.1 234.48"/><polygon class="cls-2" points="163 293.28 162.9 300.18 2.5 207.48 2.5 200.68 163 293.28"/><path class="cls-1" d="M276,227.58c3.3,1.9,3.3,5,0,6.9l-101.2,58.8a13.13,13.13,0,0,1-11.9,0L2.5,200.68c-3.3-1.9-3.3-5,0-6.9L103.7,135a13.13,13.13,0,0,1,11.9,0Z"/><g class="cls-5"><path class="cls-2" d="M145.8,245l-59.1-34.2a6.46,6.46,0,0,0-5.9,0L64,220.48c-1.6.9-1.6,2.5,0,3.4L123.1,258a6.46,6.46,0,0,0,5.9,0l16.8-9.7c1.7-.8,1.7-2.4,0-3.3"/></g><g class="cls-5"><polygon class="cls-6" points="117.3 145.38 117.3 147.08 106.5 153.38 106.5 151.68 117.3 145.38"/><polygon class="cls-6" points="106.5 151.68 106.5 153.38 95.9 147.28 95.9 145.58 106.5 151.68"/><polygon class="cls-6" points="117.3 145.38 106.5 151.68 95.9 145.58 106.7 139.28 117.3 145.38"/></g><g class="cls-5"><polygon class="cls-6" points="131 153.28 130.9 154.98 120.1 161.28 120.2 159.58 131 153.28"/><polygon class="cls-6" points="120.2 159.58 120.1 161.28 109.5 155.08 109.5 153.38 120.2 159.58"/><polygon class="cls-6" points="131 153.28 120.2 159.58 109.5 153.38 120.3 147.18 131 153.28"/></g><g class="cls-5"><polygon class="cls-6" points="144.6 161.18 144.6 162.88 133.8 169.18 133.8 167.38 144.6 161.18"/><polygon class="cls-6" points="133.8 167.38 133.8 169.18 123.1 162.98 123.1 161.28 133.8 167.38"/><polygon class="cls-6" points="144.6 161.18 133.8 167.38 123.1 161.28 133.9 154.98 144.6 161.18"/></g><g class="cls-5"><polygon class="cls-6" points="158.2 168.98 158.2 170.68 147.4 176.98 147.4 175.28 158.2 168.98"/><polygon class="cls-6" points="147.4 175.28 147.4 176.98 136.7 170.88 136.7 169.18 147.4 175.28"/><polygon class="cls-6" points="158.2 168.98 147.4 175.28 136.7 169.18 147.5 162.88 158.2 168.98"/></g><g class="cls-5"><polygon class="cls-6" points="171.8 176.88 171.8 178.58 161 184.88 161 183.18 171.8 176.88"/><polygon class="cls-6" points="161 183.18 161 184.88 150.4 178.68 150.4 176.98 161 183.18"/><polygon class="cls-6" points="171.8 176.88 161 183.18 150.4 176.98 161.2 170.68 171.8 176.88"/></g><g class="cls-5"><polygon class="cls-6" points="185.4 184.78 185.4 186.48 174.6 192.78 174.6 190.98 185.4 184.78"/><polygon class="cls-6" points="174.6 190.98 174.6 192.78 164 186.58 164 184.88 174.6 190.98"/><polygon class="cls-6" points="185.4 184.78 174.6 190.98 164 184.88 174.8 178.58 185.4 184.78"/></g><g class="cls-5"><polygon class="cls-6" points="199 192.58 199 194.28 188.2 200.58 188.2 198.88 199 192.58"/><polygon class="cls-6" points="188.2 198.88 188.2 200.58 177.6 194.48 177.6 192.78 188.2 198.88"/><polygon class="cls-6" points="199 192.58 188.2 198.88 177.6 192.78 188.4 186.48 199 192.58"/></g><g class="cls-5"><polygon class="cls-6" points="212.7 200.48 212.7 202.18 201.8 208.48 201.9 206.78 212.7 200.48"/><polygon class="cls-6" points="201.9 206.78 201.8 208.48 191.2 202.28 191.2 200.58 201.9 206.78"/><polygon class="cls-6" points="212.7 200.48 201.9 206.78 191.2 200.58 202 194.28 212.7 200.48"/></g><g class="cls-5"><polygon class="cls-6" points="226.3 208.38 226.3 210.08 215.5 216.28 215.5 214.58 226.3 208.38"/><polygon class="cls-6" points="215.5 214.58 215.5 216.28 204.8 210.18 204.8 208.48 215.5 214.58"/><polygon class="cls-6" points="226.3 208.38 215.5 214.58 204.8 208.48 215.6 202.18 226.3 208.38"/></g><g class="cls-5"><polygon class="cls-6" points="239.9 216.18 239.9 217.88 229.1 224.18 229.1 222.48 239.9 216.18"/><polygon class="cls-6" points="229.1 222.48 229.1 224.18 218.5 218.08 218.5 216.38 229.1 222.48"/><polygon class="cls-6" points="239.9 216.18 229.1 222.48 218.5 216.38 229.3 210.08 239.9 216.18"/></g><g class="cls-5"><polygon class="cls-6" points="267.2 231.88 267.2 233.68 256.4 239.88 256.4 238.18 267.2 231.88"/><polygon class="cls-6" points="256.4 238.18 256.4 239.88 232.1 225.88 232.1 224.18 256.4 238.18"/><polygon class="cls-6" points="267.2 231.88 256.4 238.18 232.1 224.18 242.9 217.88 267.2 231.88"/></g><g class="cls-5"><polygon class="cls-6" points="117.2 161.28 117.2 162.98 106.4 169.28 106.4 167.58 117.2 161.28"/><polygon class="cls-6" points="106.4 167.58 106.4 169.28 82.1 155.28 82.1 153.58 106.4 167.58"/><polygon class="cls-6" points="117.2 161.28 106.4 167.58 82.1 153.58 92.9 147.28 117.2 161.28"/></g><g class="cls-5"><polygon class="cls-6" points="130.8 169.18 130.8 170.88 120 177.08 120 175.38 130.8 169.18"/><polygon class="cls-6" points="120 175.38 120 177.08 109.4 170.98 109.4 169.28 120 175.38"/><polygon class="cls-6" points="130.8 169.18 120 175.38 109.4 169.28 120.2 162.98 130.8 169.18"/></g><g class="cls-5"><polygon class="cls-6" points="144.4 176.98 144.4 178.68 133.6 184.98 133.6 183.28 144.4 176.98"/><polygon class="cls-6" points="133.6 183.28 133.6 184.98 123 178.88 123 177.08 133.6 183.28"/><polygon class="cls-6" points="144.4 176.98 133.6 183.28 123 177.08 133.8 170.88 144.4 176.98"/></g><g class="cls-5"><polygon class="cls-6" points="158 184.88 158 186.58 147.2 192.88 147.3 191.08 158 184.88"/><polygon class="cls-6" points="147.3 191.08 147.2 192.88 136.6 186.68 136.6 184.98 147.3 191.08"/><polygon class="cls-6" points="158 184.88 147.3 191.08 136.6 184.98 147.4 178.68 158 184.88"/></g><g class="cls-5"><polygon class="cls-6" points="171.7 192.78 171.7 194.48 160.9 200.68 160.9 198.98 171.7 192.78"/><polygon class="cls-6" points="160.9 198.98 160.9 200.68 150.3 194.58 150.3 192.88 160.9 198.98"/><polygon class="cls-6" points="171.7 192.78 160.9 198.98 150.3 192.88 161 186.58 171.7 192.78"/></g><g class="cls-5"><polygon class="cls-6" points="185.3 200.58 185.3 202.28 174.5 208.58 174.5 206.88 185.3 200.58"/><polygon class="cls-6" points="174.5 206.88 174.5 208.58 163.9 202.48 163.9 200.68 174.5 206.88"/><polygon class="cls-6" points="185.3 200.58 174.5 206.88 163.9 200.68 174.6 194.48 185.3 200.58"/></g><g class="cls-5"><polygon class="cls-6" points="198.9 208.48 198.9 210.18 188.1 216.48 188.1 214.68 198.9 208.48"/><polygon class="cls-6" points="188.1 214.68 188.1 216.48 177.5 210.28 177.5 208.58 188.1 214.68"/><polygon class="cls-6" points="198.9 208.48 188.1 214.68 177.5 208.58 188.3 202.28 198.9 208.48"/></g><g class="cls-5"><polygon class="cls-6" points="212.5 216.38 212.5 218.08 201.8 224.28 201.8 222.58 212.5 216.38"/><polygon class="cls-6" points="201.8 222.58 201.8 224.28 191.1 218.18 191.1 216.48 201.8 222.58"/><polygon class="cls-6" points="212.5 216.38 201.8 222.58 191.1 216.48 201.9 210.18 212.5 216.38"/></g><g class="cls-5"><polygon class="cls-6" points="226.1 224.18 226.1 225.88 215.4 232.18 215.4 230.48 226.1 224.18"/><polygon class="cls-6" points="215.4 230.48 215.4 232.18 204.7 225.98 204.7 224.28 215.4 230.48"/><polygon class="cls-6" points="226.1 224.18 215.4 230.48 204.7 224.28 215.5 218.08 226.1 224.18"/></g><g class="cls-5"><polygon class="cls-6" points="239.8 232.08 239.8 233.78 229 239.98 229 238.28 239.8 232.08"/><polygon class="cls-6" points="229 238.28 229 239.98 218.3 233.88 218.3 232.18 229 238.28"/><polygon class="cls-6" points="239.8 232.08 229 238.28 218.3 232.18 229.1 225.88 239.8 232.08"/></g><g class="cls-5"><polygon class="cls-6" points="253.4 239.88 253.4 241.68 242.6 247.88 242.6 246.18 253.4 239.88"/><polygon class="cls-6" points="242.6 246.18 242.6 247.88 232 241.78 232 240.08 242.6 246.18"/><polygon class="cls-6" points="253.4 239.88 242.6 246.18 232 240.08 242.7 233.78 253.4 239.88"/></g><g class="cls-5"><polygon class="cls-6" points="103.5 169.28 103.4 170.98 92.7 177.28 92.7 175.58 103.5 169.28"/><polygon class="cls-6" points="92.7 175.58 92.7 177.28 68.4 163.28 68.4 161.48 92.7 175.58"/><polygon class="cls-6" points="103.5 169.28 92.7 175.58 68.4 161.48 79.2 155.28 103.5 169.28"/></g><g class="cls-5"><polygon class="cls-6" points="117.1 177.08 117.1 178.88 106.3 185.08 106.3 183.38 117.1 177.08"/><polygon class="cls-6" points="106.3 183.38 106.3 185.08 95.7 178.98 95.7 177.28 106.3 183.38"/><polygon class="cls-6" points="117.1 177.08 106.3 183.38 95.7 177.28 106.4 170.98 117.1 177.08"/></g><g class="cls-5"><polygon class="cls-6" points="130.7 184.98 130.7 186.68 119.9 192.98 119.9 191.28 130.7 184.98"/><polygon class="cls-6" points="119.9 191.28 119.9 192.98 109.3 186.78 109.3 185.08 119.9 191.28"/><polygon class="cls-6" points="130.7 184.98 119.9 191.28 109.3 185.08 120 178.88 130.7 184.98"/></g><g class="cls-5"><polygon class="cls-6" points="144.3 192.88 144.3 194.58 133.5 200.78 133.5 199.08 144.3 192.88"/><polygon class="cls-6" points="133.5 199.08 133.5 200.78 122.9 194.68 122.9 192.98 133.5 199.08"/><polygon class="cls-6" points="144.3 192.88 133.5 199.08 122.9 192.98 133.7 186.68 144.3 192.88"/></g><g class="cls-5"><polygon class="cls-6" points="157.9 200.68 157.9 202.48 147.1 208.68 147.2 206.98 157.9 200.68"/><polygon class="cls-6" points="147.2 206.98 147.1 208.68 136.5 202.58 136.5 200.88 147.2 206.98"/><polygon class="cls-6" points="157.9 200.68 147.2 206.98 136.5 200.88 147.3 194.58 157.9 200.68"/></g><g class="cls-5"><polygon class="cls-6" points="171.5 208.58 171.5 210.28 160.8 216.58 160.8 214.88 171.5 208.58"/><polygon class="cls-6" points="160.8 214.88 160.8 216.58 150.1 210.38 150.1 208.68 160.8 214.88"/><polygon class="cls-6" points="171.5 208.58 160.8 214.88 150.1 208.68 160.9 202.48 171.5 208.58"/></g><g class="cls-5"><polygon class="cls-6" points="185.2 216.48 185.2 218.18 174.4 224.38 174.4 222.68 185.2 216.48"/><polygon class="cls-6" points="174.4 222.68 174.4 224.38 163.7 218.28 163.7 216.58 174.4 222.68"/><polygon class="cls-6" points="185.2 216.48 174.4 222.68 163.7 216.58 174.5 210.28 185.2 216.48"/></g><g class="cls-5"><polygon class="cls-6" points="198.8 224.28 198.8 225.98 188 232.28 188 230.58 198.8 224.28"/><polygon class="cls-6" points="188 230.58 188 232.28 177.4 226.18 177.4 224.38 188 230.58"/><polygon class="cls-6" points="198.8 224.28 188 230.58 177.4 224.38 188.1 218.18 198.8 224.28"/></g><g class="cls-5"><polygon class="cls-6" points="212.4 232.18 212.4 233.88 201.6 240.18 201.6 238.48 212.4 232.18"/><polygon class="cls-6" points="201.6 238.48 201.6 240.18 191 233.98 191 232.28 201.6 238.48"/><polygon class="cls-6" points="212.4 232.18 201.6 238.48 191 232.28 201.8 226.08 212.4 232.18"/></g><g class="cls-5"><polygon class="cls-6" points="239.7 247.88 239.7 249.58 228.9 255.88 228.9 254.18 239.7 247.88"/><polygon class="cls-6" points="228.9 254.18 228.9 255.88 204.6 241.88 204.6 240.18 228.9 254.18"/><polygon class="cls-6" points="239.7 247.88 228.9 254.18 204.6 240.18 215.4 233.88 239.7 247.88"/></g><g class="cls-5"><polygon class="cls-6" points="103.3 185.08 103.3 186.78 92.5 193.08 92.5 191.38 103.3 185.08"/><polygon class="cls-6" points="92.5 191.38 92.5 193.08 54.7 171.18 54.7 169.48 92.5 191.38"/><polygon class="cls-6" points="103.3 185.08 92.5 191.38 54.7 169.48 65.4 163.28 103.3 185.08"/></g><g class="cls-5"><polygon class="cls-6" points="116.9 192.98 116.9 194.68 106.2 200.98 106.2 199.28 116.9 192.98"/><polygon class="cls-6" points="106.2 199.28 106.2 200.98 95.5 194.78 95.5 193.08 106.2 199.28"/><polygon class="cls-6" points="116.9 192.98 106.2 199.28 95.5 193.08 106.3 186.88 116.9 192.98"/></g><g class="cls-5"><polygon class="cls-6" points="130.6 200.78 130.5 202.58 119.8 208.78 119.8 207.08 130.6 200.78"/><polygon class="cls-6" points="119.8 207.08 119.8 208.78 109.1 202.68 109.1 200.98 119.8 207.08"/><polygon class="cls-6" points="130.6 200.78 119.8 207.08 109.1 200.98 119.9 194.68 130.6 200.78"/></g><g class="cls-5"><polygon class="cls-6" points="144.2 208.68 144.2 210.38 133.4 216.68 133.4 214.98 144.2 208.68"/><polygon class="cls-6" points="133.4 214.98 133.4 216.68 122.8 210.58 122.8 208.78 133.4 214.98"/><polygon class="cls-6" points="144.2 208.68 133.4 214.98 122.8 208.78 133.6 202.58 144.2 208.68"/></g><g class="cls-5"><polygon class="cls-6" points="157.8 216.58 157.8 218.28 147 224.58 147 222.78 157.8 216.58"/><polygon class="cls-6" points="147 222.78 147 224.58 136.4 218.38 136.4 216.68 147 222.78"/><polygon class="cls-6" points="157.8 216.58 147 222.78 136.4 216.68 147.2 210.38 157.8 216.58"/></g><g class="cls-5"><polygon class="cls-6" points="171.4 224.38 171.4 226.18 160.6 232.38 160.6 230.68 171.4 224.38"/><polygon class="cls-6" points="160.6 230.68 160.6 232.38 150 226.28 150 224.58 160.6 230.68"/><polygon class="cls-6" points="171.4 224.38 160.6 230.68 150 224.58 160.8 218.28 171.4 224.38"/></g><g class="cls-5"><polygon class="cls-6" points="185.1 232.28 185.1 233.98 174.3 240.28 174.3 238.58 185.1 232.28"/><polygon class="cls-6" points="174.3 238.58 174.3 240.28 163.6 234.08 163.6 232.38 174.3 238.58"/><polygon class="cls-6" points="185.1 232.28 174.3 238.58 163.6 232.38 174.4 226.18 185.1 232.28"/></g><g class="cls-5"><polygon class="cls-6" points="198.7 240.18 198.7 241.88 187.9 248.18 187.9 246.38 198.7 240.18"/><polygon class="cls-6" points="187.9 246.38 187.9 248.18 177.3 241.98 177.3 240.28 187.9 246.38"/><polygon class="cls-6" points="198.7 240.18 187.9 246.38 177.3 240.28 188 233.98 198.7 240.18"/></g><g class="cls-5"><polygon class="cls-6" points="225.9 255.88 225.9 257.58 215.1 263.88 215.1 262.18 225.9 255.88"/><polygon class="cls-6" points="215.1 262.18 215.1 263.88 190.9 249.88 190.9 248.18 215.1 262.18"/><polygon class="cls-6" points="225.9 255.88 215.1 262.18 190.9 248.18 201.7 241.88 225.9 255.88"/></g><g class="cls-5"><polygon class="cls-6" points="62.3 177.38 62.3 179.08 51.5 185.38 51.5 183.68 62.3 177.38"/><polygon class="cls-6" points="51.5 183.68 51.5 185.38 40.9 179.18 40.9 177.48 51.5 183.68"/><polygon class="cls-6" points="62.3 177.38 51.5 183.68 40.9 177.48 51.7 171.18 62.3 177.38"/></g><g class="cls-5"><polygon class="cls-6" points="76 185.28 76 186.98 65.2 193.18 65.2 191.48 76 185.28"/><polygon class="cls-6" points="65.2 191.48 65.2 193.18 54.5 187.08 54.5 185.38 65.2 191.48"/><polygon class="cls-6" points="76 185.28 65.2 191.48 54.5 185.38 65.3 179.08 76 185.28"/></g><g class="cls-5"><polygon class="cls-6" points="89.6 193.08 89.6 194.78 78.8 201.08 78.8 199.38 89.6 193.08"/><polygon class="cls-6" points="78.8 199.38 78.8 201.08 68.1 194.98 68.2 193.28 78.8 199.38"/><polygon class="cls-6" points="89.6 193.08 78.8 199.38 68.2 193.28 79 186.98 89.6 193.08"/></g><g class="cls-5"><polygon class="cls-6" points="157.7 232.38 157.7 234.08 146.9 240.38 146.9 238.68 157.7 232.38"/><polygon class="cls-6" points="146.9 238.68 146.9 240.38 81.8 202.78 81.8 201.08 146.9 238.68"/><polygon class="cls-6" points="157.7 232.38 146.9 238.68 81.8 201.08 92.6 194.78 157.7 232.38"/></g><g class="cls-5"><polygon class="cls-6" points="171.3 240.28 171.3 241.98 160.5 248.28 160.5 246.58 171.3 240.28"/><polygon class="cls-6" points="160.5 246.58 160.5 248.28 149.9 242.08 149.9 240.38 160.5 246.58"/><polygon class="cls-6" points="171.3 240.28 160.5 246.58 149.9 240.38 160.7 234.08 171.3 240.28"/></g><g class="cls-5"><polygon class="cls-6" points="184.9 248.18 184.9 249.88 174.1 256.18 174.1 254.38 184.9 248.18"/><polygon class="cls-6" points="174.1 254.38 174.1 256.18 163.5 249.98 163.5 248.28 174.1 254.38"/><polygon class="cls-6" points="184.9 248.18 174.1 254.38 163.5 248.28 174.3 241.98 184.9 248.18"/></g><g class="cls-5"><polygon class="cls-6" points="212.2 263.88 212.2 265.58 201.4 271.88 201.4 270.18 212.2 263.88"/><polygon class="cls-6" points="201.4 270.18 201.4 271.88 177.1 257.88 177.1 256.18 201.4 270.18"/><polygon class="cls-6" points="212.2 263.88 201.4 270.18 177.1 256.18 187.9 249.88 212.2 263.88"/></g><polygon class="cls-7" points="273 218.78 116.5 128.58 116.5 11.28 273 101.48 273 218.78"/><polygon class="cls-8" points="168.2 127.38 168.2 56.08 126.6 32.08 126.6 103.38 168.2 127.38"/><polygon class="cls-9" points="168.2 127.38 169.2 126.88 169.2 55.48 168.2 56.08 168.2 127.38"/><polygon class="cls-10" points="169.2 55.48 127.6 31.48 126.6 32.08 168.2 56.08 169.2 55.48"/><polygon class="cls-11" points="128.1 100.78 165.2 122.18 165.2 57.98 128.1 36.58 128.1 100.78"/><ellipse class="cls-12" cx="146.61" cy="68.18" rx="9.9" ry="17.1" transform="translate(-14.4 82.96) rotate(-30.19)"/><polygon class="cls-13" points="131.8 89.78 161.4 106.88 161.4 105.08 131.8 87.98 131.8 89.78"/><polygon class="cls-13" points="138.8 81.08 154.4 90.08 154.4 88.98 138.8 79.88 138.8 81.08"/><polygon class="cls-13" points="131.8 92.48 161.4 109.58 161.4 107.78 131.8 90.68 131.8 92.48"/><polygon class="cls-13" points="131.8 95.18 161.4 112.28 161.4 110.48 131.8 93.38 131.8 95.18"/><polygon class="cls-13" points="131.8 97.88 161.4 114.98 161.4 113.18 131.8 96.08 131.8 97.88"/><polygon class="cls-13" points="131.8 100.68 161.4 117.68 161.4 115.88 131.8 98.78 131.8 100.68"/><path class="cls-14" d="M152.2,94a3.38,3.38,0,0,0,1.6,2.7c.9.5,1.6.1,1.6-.9a3.38,3.38,0,0,0-1.6-2.7C152.8,92.58,152.2,93,152.2,94Z"/><path class="cls-6" d="M146.6,90.78a3.38,3.38,0,0,0,1.6,2.7c.9.5,1.6.1,1.6-.9a3.38,3.38,0,0,0-1.6-2.7C147.3,89.38,146.6,89.78,146.6,90.78Z"/><path class="cls-15" d="M141.1,87.58a3.38,3.38,0,0,0,1.6,2.7c.9.5,1.6.1,1.6-.9a3.38,3.38,0,0,0-1.6-2.7C141.8,86.18,141.1,86.58,141.1,87.58Z"/><path class="cls-16" d="M135.6,84.38a3.38,3.38,0,0,0,1.6,2.7c.9.5,1.6.1,1.6-.9a3.38,3.38,0,0,0-1.6-2.7C136.3,83,135.6,83.38,135.6,84.38Z"/><path class="cls-14" d="M139.2,72.48v-1.1l14,8.1v1.1c.2.1-14.3-8.3-14-8.1"/><path class="cls-14" d="M146.2,59.78c.9,1,1.7,2,2.6,2.9l4.8,5.4c.4.4.2.6.2.9l-15.4-8.9c-.1-.5,0-.7.4-.7l7,.3h.2Z"/><polygon class="cls-14" points="140 61.38 152.4 68.58 152.4 69.58 140 62.48 140 61.38"/><path class="cls-14" d="M140.5,63.08l1.4.8c.1,2.9.1,5.8.2,8.7l-1.8-1c.1-2.8.1-5.6.2-8.5"/><path class="cls-14" d="M145.4,74.58l-1.8-1c.1-2.8.1-5.7.2-8.5l1.4.8c.1,2.9.1,5.8.2,8.7"/><path class="cls-14" d="M147.1,66.88l1.4.8c.1,2.9.2,5.8.2,8.8l-1.8-1c.1-2.9.1-5.7.2-8.6"/><path class="cls-14" d="M151.8,69.68c.1,2.9.1,5.8.2,8.7l-1.8-1c.1-2.8.1-5.7.2-8.5Z"/><polygon class="cls-8" points="190.9 208.08 190.9 136.78 149.2 112.68 149.2 183.98 190.9 208.08"/><polygon class="cls-9" points="190.9 208.08 191.8 207.48 191.8 136.18 190.9 136.78 190.9 208.08"/><polygon class="cls-10" points="191.8 136.18 150.2 112.08 149.2 112.68 190.9 136.78 191.8 136.18"/><polygon class="cls-11" points="150.7 181.48 187.8 202.88 187.8 138.58 150.7 117.18 150.7 181.48"/><ellipse class="cls-12" cx="169.29" cy="148.77" rx="9.9" ry="17.1" transform="translate(-51.85 105.29) rotate(-30.19)"/><polygon class="cls-13" points="154.5 170.48 184.1 187.48 184.1 185.68 154.5 168.58 154.5 170.48"/><polygon class="cls-13" points="161.5 161.68 177.1 170.68 177.1 169.58 161.5 160.58 161.5 161.68"/><polygon class="cls-13" points="154.5 173.18 184.1 190.18 184.1 188.38 154.5 171.38 154.5 173.18"/><polygon class="cls-13" points="154.5 175.88 184.1 192.98 184.1 191.08 154.5 174.08 154.5 175.88"/><polygon class="cls-13" points="154.5 178.58 184.1 195.68 184.1 193.78 154.5 176.78 154.5 178.58"/><polygon class="cls-13" points="154.5 181.28 184.1 198.38 184.1 196.48 154.5 179.48 154.5 181.28"/><path class="cls-14" d="M176,175.78a3.38,3.38,0,0,0,1.6,2.7c.9.5,1.6.1,1.6-.9a3.38,3.38,0,0,0-1.6-2.7C176.7,174.38,176,174.78,176,175.78Z"/><path class="cls-6" d="M170.5,172.58a3.38,3.38,0,0,0,1.6,2.7c.9.5,1.6.1,1.6-.9a3.38,3.38,0,0,0-1.6-2.7C171.2,171.18,170.5,171.58,170.5,172.58Z"/><path class="cls-15" d="M165,169.38a3.38,3.38,0,0,0,1.6,2.7c.9.5,1.6.1,1.6-.9a3.38,3.38,0,0,0-1.6-2.7C165.7,168,165,168.38,165,169.38Z"/><path class="cls-16" d="M159.4,166.18a3.38,3.38,0,0,0,1.6,2.7c.9.5,1.6.1,1.6-.9a3.38,3.38,0,0,0-1.6-2.7C160.1,164.78,159.4,165.18,159.4,166.18Z"/><path class="cls-17" d="M162.6,153.08V152l14,8.1v1.1c.3.1-14.2-8.2-14-8.1"/><path class="cls-17" d="M169.7,140.48c.9,1,1.7,2,2.6,2.9l4.8,5.4c.4.4.2.6.2.9l-15.4-8.9c-.1-.5,0-.7.4-.7l7,.3h.2Z"/><polygon class="cls-17" points="163.4 142.08 175.8 149.18 175.8 150.28 163.4 143.08 163.4 142.08"/><path class="cls-17" d="M164,143.78l1.4.8c.1,2.9.1,5.8.2,8.7l-1.8-1c.1-2.8.1-5.6.2-8.5"/><path class="cls-17" d="M168.9,155.28l-1.8-1c.1-2.8.1-5.7.2-8.5l1.4.8c.1,2.8.1,5.7.2,8.7"/><path class="cls-17" d="M170.6,147.58l1.4.8c.1,2.9.2,5.8.2,8.8l-1.8-1c.1-2.9.1-5.7.2-8.6"/><path class="cls-17" d="M175.3,150.28c.1,2.9.1,5.8.2,8.7l-1.8-1c.1-2.8.1-5.7.2-8.5Z"/><polygon class="cls-8" points="236.2 173.88 236.2 102.58 194.6 78.48 194.6 149.88 236.2 173.88"/><polygon class="cls-9" points="236.2 173.88 237.2 173.28 237.2 101.98 236.2 102.58 236.2 173.88"/><polygon class="cls-10" points="237.2 101.98 195.6 77.98 194.6 78.48 236.2 102.58 237.2 101.98"/><polygon class="cls-11" points="196.1 147.28 233.2 168.68 233.2 104.38 196.1 82.98 196.1 147.28"/><ellipse class="cls-12" cx="214.67" cy="114.56" rx="9.9" ry="17.1" transform="translate(-28.49 123.47) rotate(-30.19)"/><polygon class="cls-13" points="199.9 136.28 229.4 153.38 229.4 151.48 199.9 134.48 199.9 136.28"/><polygon class="cls-13" points="206.9 127.48 222.5 136.58 222.5 135.38 206.9 126.38 206.9 127.48"/><polygon class="cls-13" points="199.9 138.98 229.4 156.08 229.4 154.18 199.9 137.18 199.9 138.98"/><polygon class="cls-13" points="199.9 141.68 229.4 158.78 229.4 156.88 199.9 139.88 199.9 141.68"/><polygon class="cls-13" points="199.9 144.38 229.4 161.48 229.4 159.68 199.9 142.58 199.9 144.38"/><polygon class="cls-13" points="199.9 147.08 229.4 164.18 229.4 162.38 199.9 145.28 199.9 147.08"/><path class="cls-14" d="M220.7,141.28a3.38,3.38,0,0,0,1.6,2.7c.9.5,1.6.1,1.6-.9a3.38,3.38,0,0,0-1.6-2.7C221.4,139.88,220.7,140.28,220.7,141.28Z"/><path class="cls-6" d="M215.2,138.08a3.38,3.38,0,0,0,1.6,2.7c.9.5,1.6.1,1.6-.9a3.38,3.38,0,0,0-1.6-2.7A1,1,0,0,0,215.2,138.08Z"/><path class="cls-15" d="M209.7,135a3.38,3.38,0,0,0,1.6,2.7c.9.5,1.6.1,1.6-.9a3.38,3.38,0,0,0-1.6-2.7C210.4,133.58,209.7,134,209.7,135Z"/><path class="cls-16" d="M204.1,131.78a3.38,3.38,0,0,0,1.6,2.7c.9.5,1.6.1,1.6-.9a3.38,3.38,0,0,0-1.6-2.7C204.8,130.38,204.1,130.78,204.1,131.78Z"/><path class="cls-18" d="M207.9,119.28v-1.1l14,8.1v1.1c.3.1-14.3-8.3-14-8.1"/><path class="cls-18" d="M215,106.58c.9,1,1.7,2,2.6,2.9l4.8,5.4c.4.4.2.6.2.9l-15.4-8.9c-.1-.5,0-.7.4-.7l7,.3h.2Z"/><polygon class="cls-18" points="208.7 108.18 221.1 115.28 221.1 116.38 208.7 109.18 208.7 108.18"/><path class="cls-18" d="M209.3,109.88l1.4.8c.1,2.9.1,5.8.2,8.7l-1.8-1c0-2.8.1-5.6.2-8.5"/><path class="cls-18" d="M214.2,121.38l-1.8-1c.1-2.8.1-5.7.2-8.5l1.4.8c0,2.9.1,5.8.2,8.7"/><path class="cls-18" d="M215.9,113.68l1.4.8c.1,2.9.2,5.8.2,8.8l-1.8-1c0-2.9.1-5.7.2-8.6"/><path class="cls-18" d="M220.5,116.38c.1,2.9.1,5.8.2,8.7l-1.8-1c.1-2.8.1-5.7.2-8.5Z"/><path class="cls-19" d="M90.9,137.88c-12.8-23.2-35.1-35.3-49.9-27.2l-12.9,6.9,4.6,8.2a15.27,15.27,0,0,1,2.9-3.3c12.4-3.6,29,6.4,38.9,24.3s9.5,37.2-.2,45.8a15.87,15.87,0,0,1-3.8.6l4.5,8,12.4-6.6C102,186.48,103.7,161.08,90.9,137.88Z"/><path class="cls-19" d="M78.5,144.48c-12.8-23.2-35.1-35.3-49.9-27.2s-16.4,33.6-3.7,56.7,35.1,35.3,49.9,27.2S91.3,167.68,78.5,144.48Zm-4.3,48.1c-12.4,3.6-29-6.4-38.9-24.3s-9.5-37.2.2-45.8c12.4-3.6,29,6.4,38.9,24.3S83.9,184,74.2,192.58Z"/><path class="cls-16" d="M35.4,168.28c-9.8-17.8-9.5-37.2.2-45.8,5.4-1.6,11.6-.5,17.7,2.6-7.5-3.9-15.1-4.6-21.3-1.2-12.6,7-14.1,28.5-3.3,48.1s29.8,29.8,42.4,22.9a21.84,21.84,0,0,0,3.1-2.2C61.8,196.18,45.2,186.18,35.4,168.28Z"/><path class="cls-20" d="M41.3,165.28c-7.6-13.7-7.3-28.6.1-35.2,4.2-1.2,2-1.5-2.7,1.1-9.7,5.3-10.8,21.9-2.5,36.9s22.9,22.9,32.5,17.6a20.71,20.71,0,0,0,2.4-1.7C61.6,186.68,48.9,179,41.3,165.28Z"/><path class="cls-21" d="M74.4,146.78c-9.8-17.8-26.4-27.9-38.9-24.3-9.7,8.6-10,28-.2,45.8s26.4,27.9,38.9,24.3C83.9,184,84.2,164.58,74.4,146.78Z"/><path class="cls-1" d="M92.7,175.58c1.5-2.4,4-3.6,5.6-2.6l27.4,17.1-5.6,8.7-27.4-17.1C91.1,180.68,91.1,178,92.7,175.58Z"/><path class="cls-1" d="M125.6,196.18c-1.5,2.4-4,3.6-5.6,2.6s-1.5-3.7,0-6.1,4-3.6,5.6-2.6S127.2,193.78,125.6,196.18Z"/><path class="cls-19" d="M117.3,191.18c2.7-4.3,7.1-6.3,9.8-4.6l48.6,30.3-9.9,15.4L117.3,202C114.6,200.28,114.6,195.48,117.3,191.18Z"/><path class="cls-22" d="M175.7,227.78c-2.7,4.3-7.1,6.3-9.8,4.6s-2.7-6.6,0-10.9,7.1-6.3,9.8-4.6S178.4,223.48,175.7,227.78Z"/><path class="cls-23" d="M174.2,226.78c-1.8,2.8-4.6,4.1-6.4,3s-1.8-4.3,0-7.1,4.6-4.1,6.4-3S175.9,224,174.2,226.78Z"/></g></svg>