<svg id="Layer_1" data-name="Layer 1" xmlns="http://www.w3.org/2000/svg" viewBox="0 0 418.8 340.2"><defs><style>.cls-1{isolation:isolate;}.cls-2{fill:#c5dff8;}.cls-3{fill:#d5e8f9;}.cls-4{fill:#edf3f8;}.cls-5{fill:#eaa86b;}.cls-6{fill:#efcf64;}.cls-7{fill:#cc7146;}.cls-8{fill:#4b8396;}.cls-9{fill:#bad7ed;}.cls-10{fill:#33596c;}.cls-11{fill:#7fd3e3;}.cls-12{fill:#def2ff;}.cls-13{fill:#61aab3;}.cls-14{fill:#64b0ce;}.cls-15{fill:#8abfd9;}.cls-16{fill:#436aae;}.cls-17{fill:#87afc3;}.cls-18{fill:#5b7c8b;}.cls-19{fill:#3a647e;}</style></defs><title>2-institutions</title><g id="OBJECTS"><g class="cls-1"><polygon class="cls-2" points="418.8 187.5 418.8 204.3 185 340.2 185 323.4 418.8 187.5"/><polygon class="cls-3" points="185 323.4 185 340.2 0 233.5 0.1 216.7 185 323.4"/><polygon class="cls-4" points="418.8 187.5 185 323.4 0.1 216.7 233.9 80.8 418.8 187.5"/></g><path class="cls-5" d="M184.8,56.1a.68.68,0,0,1-.7-.7V54.1a.7.7,0,0,1,1.4,0v1.3A.63.63,0,0,1,184.8,56.1Z"/><path class="cls-5" d="M184.8,124.5a.68.68,0,0,1-.7-.7v-2.7a.7.7,0,0,1,1.4,0v2.7A.68.68,0,0,1,184.8,124.5Zm0-6.8a.68.68,0,0,1-.7-.7v-2.7a.7.7,0,1,1,1.4,0V117A.68.68,0,0,1,184.8,117.7Zm0-6.9a.68.68,0,0,1-.7-.7v-2.7a.7.7,0,1,1,1.4,0v2.7A.68.68,0,0,1,184.8,110.8Zm0-6.8a.68.68,0,0,1-.7-.7v-2.7a.7.7,0,0,1,1.4,0v2.7A.68.68,0,0,1,184.8,104Zm0-6.8a.68.68,0,0,1-.7-.7V93.8a.7.7,0,1,1,1.4,0v2.7A.68.68,0,0,1,184.8,97.2Zm0-6.9a.68.68,0,0,1-.7-.7V86.9a.7.7,0,1,1,1.4,0v2.7A.68.68,0,0,1,184.8,90.3Zm0-6.8a.68.68,0,0,1-.7-.7V80.1a.7.7,0,0,1,1.4,0v2.7A.68.68,0,0,1,184.8,83.5Zm0-6.8a.68.68,0,0,1-.7-.7V73.3a.7.7,0,1,1,1.4,0V76A.68.68,0,0,1,184.8,76.7Zm0-6.9a.68.68,0,0,1-.7-.7V66.4a.7.7,0,0,1,1.4,0v2.7A.68.68,0,0,1,184.8,69.8Zm0-6.8a.68.68,0,0,1-.7-.7V59.6a.7.7,0,0,1,1.4,0v2.7A.68.68,0,0,1,184.8,63Z"/><path class="cls-5" d="M184.8,129.9a.68.68,0,0,1-.7-.7v-1.3a.7.7,0,1,1,1.4,0v1.3A.68.68,0,0,1,184.8,129.9Z"/><path class="cls-6" d="M187.7,108.8a2.9,2.9,0,1,1-2.9-2.9A2.9,2.9,0,0,1,187.7,108.8Z"/><path class="cls-5" d="M256.3,158.8a.37.37,0,0,1-.3-.1l-.1-.1a.65.65,0,0,1-.2-.9.1.1,0,0,1,.1-.1v-1.9a.71.71,0,0,1,1.4,0v2.4a.55.55,0,0,1-.3.5A1,1,0,0,1,256.3,158.8Zm-3.5-1.9a.37.37,0,0,1-.3-.1l-2.3-1.3a.65.65,0,0,1,.7-1.1l2.3,1.3a.65.65,0,0,1,.2.9A.86.86,0,0,1,252.8,156.9Zm-5.7-3.2a.37.37,0,0,1-.3-.1l-2.3-1.3a.65.65,0,1,1,.7-1.1l2.3,1.3a.65.65,0,0,1,.2.9A.6.6,0,0,1,247.1,153.7Zm9.2-1a.67.67,0,0,1-.7-.6v-2.5a.71.71,0,0,1,1.4,0v2.5A.67.67,0,0,1,256.3,152.7Zm-14.8-2.1a.37.37,0,0,1-.3-.1l-2.3-1.3a.65.65,0,1,1,.7-1.1l2.3,1.3a.65.65,0,0,1,.2.9A.86.86,0,0,1,241.5,150.6Zm-5.7-3.2a.37.37,0,0,1-.3-.1l-2.3-1.3a.65.65,0,0,1,.7-1.1l2.3,1.3a.65.65,0,0,1,.2.9A.71.71,0,0,1,235.8,147.4Zm20.5-1a.67.67,0,0,1-.7-.6v-2.5a.71.71,0,0,1,1.4,0v2.5A.67.67,0,0,1,256.3,146.4Zm-26.1-2.1a.37.37,0,0,1-.3-.1l-2.3-1.3a.65.65,0,1,1,.7-1.1l2.3,1.3a.65.65,0,0,1,.2.9C230.6,144.1,230.4,144.3,230.2,144.3Zm-5.7-3.2a.37.37,0,0,1-.3-.1l-2.3-1.3a.65.65,0,1,1,.7-1.1l2.3,1.3a.65.65,0,0,1,.2.9A.86.86,0,0,1,224.5,141.1Zm31.8-1a.67.67,0,0,1-.7-.6V137a.71.71,0,0,1,1.4,0v2.5A.67.67,0,0,1,256.3,140.1ZM218.8,138a.37.37,0,0,1-.3-.1l-2.3-1.3a.65.65,0,1,1,.7-1.1l2.3,1.3a.65.65,0,0,1,.2.9A.85.85,0,0,1,218.8,138Zm-5.6-3.2a.37.37,0,0,1-.3-.1l-2.3-1.3a.65.65,0,1,1,.7-1.1l2.3,1.3a.65.65,0,0,1,.2.9A.86.86,0,0,1,213.2,134.8Zm43.1-1a.67.67,0,0,1-.7-.6v-2.5a.71.71,0,0,1,1.4,0v2.5A.67.67,0,0,1,256.3,133.8Zm-48.8-2.2a.37.37,0,0,1-.3-.1l-2.3-1.3a.65.65,0,1,1,.7-1.1l2.3,1.3a.65.65,0,0,1,.2.9A.71.71,0,0,1,207.5,131.6Zm-5.6-3.1a.37.37,0,0,1-.3-.1l-2.3-1.3a.65.65,0,1,1,.7-1.1l2.3,1.3a.65.65,0,0,1,.2.9A.86.86,0,0,1,201.9,128.5Z"/><path class="cls-5" d="M130.2,218.2a.37.37,0,0,1-.3-.1l-2.3-1.3a.65.65,0,0,1,.7-1.1l2.3,1.3a.65.65,0,0,1,.2.9A.85.85,0,0,1,130.2,218.2Zm-5.7-3.4a.37.37,0,0,1-.3-.1l-2.3-1.3a.65.65,0,1,1,.7-1.1l2.3,1.3a.65.65,0,0,1,.2.9A.86.86,0,0,1,124.5,214.8Zm-5.8-3.3a.37.37,0,0,1-.3-.1l-2.3-1.3a.65.65,0,0,1,.7-1.1l2.3,1.3a.65.65,0,0,1,.2.9C119.1,211.3,118.9,211.5,118.7,211.5Zm-5.8-3.4a.37.37,0,0,1-.3-.1l-2.3-1.3a.65.65,0,1,1,.7-1.1l2.3,1.3a.65.65,0,0,1,.2.9A.86.86,0,0,1,112.9,208.1Zm-5.8-3.3a.37.37,0,0,1-.3-.1l-2.3-1.3a.65.65,0,1,1,.7-1.1l2.3,1.3a.65.65,0,0,1,.2.9A1.14,1.14,0,0,1,107.1,204.8Zm-5.8-3.4a.37.37,0,0,1-.3-.1L98.7,200a.65.65,0,1,1,.7-1.1l2.3,1.3a.65.65,0,0,1,.2.9A.6.6,0,0,1,101.3,201.4Zm-5.8-3.3a.37.37,0,0,1-.3-.1l-2.3-1.3a.65.65,0,0,1,.7-1.1l2.3,1.3a.65.65,0,0,1,.2.9A.85.85,0,0,1,95.5,198.1Zm-5.7-3.4a.37.37,0,0,1-.3-.1l-2.3-1.3a.65.65,0,1,1,.7-1.1l2.3,1.3a.65.65,0,0,1,.2.9A.86.86,0,0,1,89.8,194.7ZM84,191.3a.37.37,0,0,1-.3-.1l-2.3-1.3a.65.65,0,1,1,.7-1.1l2.3,1.3a.65.65,0,0,1,.2.9A.86.86,0,0,1,84,191.3ZM78.6,188a.71.71,0,0,1-.6-.3.65.65,0,0,1,.2-.9l2.3-1.3a.65.65,0,1,1,.7,1.1l-2.3,1.3A.37.37,0,0,1,78.6,188Zm5.7-3.3a.71.71,0,0,1-.6-.3.65.65,0,0,1,.2-.9l2.3-1.3a.65.65,0,1,1,.7,1.1l-2.3,1.3A.44.44,0,0,1,84.3,184.7Zm5.8-3.4a.71.71,0,0,1-.6-.3.65.65,0,0,1,.2-.9l2.3-1.3a.65.65,0,1,1,.7,1.1l-2.3,1.3C90.4,181.3,90.3,181.3,90.1,181.3Zm5.8-3.3a.71.71,0,0,1-.6-.3.65.65,0,0,1,.2-.9l2.3-1.3a.65.65,0,1,1,.7,1.1l-2.3,1.3C96.2,178,96,178,95.9,178Zm5.8-3.3a.71.71,0,0,1-.6-.3.65.65,0,0,1,.2-.9l2.3-1.3a.65.65,0,0,1,.7,1.1l-2.3,1.3A1,1,0,0,1,101.7,174.7Zm5.8-3.4a.71.71,0,0,1-.6-.3.65.65,0,0,1,.2-.9l2.3-1.3a.65.65,0,0,1,.7,1.1l-2.3,1.3A.37.37,0,0,1,107.5,171.3Zm5.8-3.3a.71.71,0,0,1-.6-.3.65.65,0,0,1,.2-.9l2.3-1.3a.65.65,0,1,1,.7,1.1l-2.3,1.3A.37.37,0,0,1,113.3,168Zm5.8-3.3a.71.71,0,0,1-.6-.3.65.65,0,0,1,.2-.9l2.3-1.3a.65.65,0,0,1,.7,1.1l-2.3,1.3C119.3,164.6,119.2,164.7,119.1,164.7Zm5.8-3.4a.71.71,0,0,1-.6-.3.65.65,0,0,1,.2-.9l2.3-1.3a.65.65,0,0,1,.7,1.1l-2.3,1.3A.37.37,0,0,1,124.9,161.3Zm5.8-3.3a.71.71,0,0,1-.6-.3.65.65,0,0,1,.2-.9l2.3-1.3a.65.65,0,0,1,.7,1.1l-2.3,1.3A.37.37,0,0,1,130.7,158Zm5.8-3.3a.71.71,0,0,1-.6-.3.65.65,0,0,1,.2-.9l2.3-1.3a.65.65,0,0,1,.7,1.1l-2.3,1.3C136.7,154.6,136.6,154.7,136.5,154.7Zm5.8-3.4a.71.71,0,0,1-.6-.3.65.65,0,0,1,.2-.9l2.3-1.3a.65.65,0,1,1,.7,1.1l-2.3,1.3A.37.37,0,0,1,142.3,151.3Z"/><path class="cls-5" d="M227.4,274.5a.37.37,0,0,1-.3-.1l-.6-.4a.65.65,0,1,1,.7-1.1l.3.2,1.3-.8a.65.65,0,0,1,.7,1.1l-1.7,1C227.7,274.5,227.6,274.5,227.4,274.5Zm-4-2.4a.37.37,0,0,1-.3-.1l-2.3-1.3a.65.65,0,0,1,.7-1.1l2.3,1.3a.65.65,0,0,1,.2.9A.86.86,0,0,1,223.4,272.1Zm9.2-.6a.71.71,0,0,1-.6-.3.65.65,0,0,1,.2-.9l2.3-1.3a.65.65,0,1,1,.7,1.1l-2.3,1.3A.37.37,0,0,1,232.6,271.5Zm-15-2.8a.37.37,0,0,1-.3-.1l-2.3-1.3a.65.65,0,1,1,.7-1.1l2.3,1.3a.65.65,0,0,1,.2.9A.86.86,0,0,1,217.6,268.7Zm20.8-.5a.71.71,0,0,1-.6-.3.65.65,0,0,1,.2-.9l2.3-1.3a.65.65,0,0,1,.7,1.1l-2.3,1.3C238.6,268.1,238.5,268.2,238.4,268.2Zm-26.6-2.8a.37.37,0,0,1-.3-.1l-2.3-1.4a.65.65,0,1,1,.7-1.1l2.3,1.4a.65.65,0,0,1,.2.9A1.14,1.14,0,0,1,211.8,265.4Zm32.4-.6a.71.71,0,0,1-.6-.3.65.65,0,0,1,.2-.9l2.3-1.3a.65.65,0,0,1,.7,1.1l-2.3,1.3A.37.37,0,0,1,244.2,264.8ZM206,262a.37.37,0,0,1-.3-.1l-2.3-1.4a.65.65,0,0,1,.7-1.1l2.3,1.4a.65.65,0,0,1,.2.9A.6.6,0,0,1,206,262Zm44-.5a.71.71,0,0,1-.6-.3.65.65,0,0,1,.2-.9l2.3-1.3a.65.65,0,1,1,.7,1.1l-2.3,1.3A.37.37,0,0,1,250,261.5Zm-49.7-2.9a.37.37,0,0,1-.3-.1l-2.3-1.4a.65.65,0,1,1,.7-1.1l2.3,1.4a.65.65,0,0,1,.2.9A.86.86,0,0,1,200.3,258.6Zm55.4-.5a.71.71,0,0,1-.6-.3.65.65,0,0,1,.2-.9l2.3-1.3a.65.65,0,0,1,.7,1.1L256,258C256,258.1,255.9,258.1,255.7,258.1Zm5.8-3.3a.71.71,0,0,1-.6-.3.65.65,0,0,1,.2-.9l2.3-1.3a.65.65,0,1,1,.7,1.1l-2.3,1.3C261.8,254.8,261.7,254.8,261.5,254.8Zm5.8-3.3a.71.71,0,0,1-.6-.3.65.65,0,0,1,.2-.9l2.3-1.3a.65.65,0,0,1,.7,1.1l-2.3,1.3A1,1,0,0,1,267.3,251.5Zm5.8-3.4a.71.71,0,0,1-.6-.3.65.65,0,0,1,.2-.9l2.3-1.3a.65.65,0,0,1,.7,1.1l-2.3,1.3A.37.37,0,0,1,273.1,248.1Zm5.8-3.3a.71.71,0,0,1-.6-.3.65.65,0,0,1,.2-.9l2.3-1.3a.65.65,0,0,1,.7,1.1l-2.3,1.3C279.1,244.7,279,244.8,278.9,244.8Zm5.8-3.4a.71.71,0,0,1-.6-.3.65.65,0,0,1,.2-.9l2.3-1.3a.65.65,0,0,1,.7,1.1l-2.3,1.3A.37.37,0,0,1,284.7,241.4Zm5.8-3.3a.71.71,0,0,1-.6-.3.65.65,0,0,1,.2-.9l2.3-1.3a.65.65,0,0,1,.7,1.1l-2.3,1.3C290.7,238,290.6,238.1,290.5,238.1Zm5.8-3.4a.71.71,0,0,1-.6-.3.65.65,0,0,1,.2-.9l2.3-1.3a.65.65,0,0,1,.7,1.1l-2.3,1.3A.37.37,0,0,1,296.3,234.7Zm5.7-3.3a.71.71,0,0,1-.6-.3.65.65,0,0,1,.2-.9l2.3-1.3a.65.65,0,1,1,.7,1.1l-2.3,1.3C302.3,231.4,302.2,231.4,302,231.4Zm5.8-3.4a.71.71,0,0,1-.6-.3.65.65,0,0,1,.2-.9l2.3-1.3a.65.65,0,0,1,.7,1.1l-2.3,1.3C308.1,228,307.9,228,307.8,228Zm5.8-3.3a.71.71,0,0,1-.6-.3.65.65,0,0,1,.2-.9l2.3-1.3a.65.65,0,0,1,.7,1.1l-2.3,1.3C313.9,224.7,313.7,224.7,313.6,224.7Zm5.8-3.3a.71.71,0,0,1-.6-.3.65.65,0,0,1,.2-.9l2.3-1.3a.65.65,0,0,1,.7,1.1l-2.3,1.3C319.6,221.3,319.5,221.4,319.4,221.4Zm5.8-3.4a.71.71,0,0,1-.6-.3.65.65,0,0,1,.2-.9l2.3-1.3a.65.65,0,0,1,.7,1.1l-2.3,1.3A.37.37,0,0,1,325.2,218Zm5.8-3.3a.71.71,0,0,1-.6-.3.65.65,0,0,1,.2-.9l2.3-1.3a.65.65,0,1,1,.7,1.1l-2.3,1.3C331.2,214.6,331.1,214.7,331,214.7Zm5.8-3.4a.71.71,0,0,1-.6-.3.65.65,0,0,1,.2-.9l2.3-1.3a.65.65,0,0,1,.7,1.1l-2.3,1.3A.37.37,0,0,1,336.8,211.3Zm5.8-3.3a.71.71,0,0,1-.6-.3.65.65,0,0,1,.2-.9l2.3-1.3a.65.65,0,0,1,.7,1.1l-2.3,1.3C342.8,207.9,342.7,208,342.6,208Zm5.7-3.4a.71.71,0,0,1-.6-.3.65.65,0,0,1,.2-.9l2.3-1.3a.65.65,0,0,1,.7,1.1l-2.3,1.3C348.6,204.6,348.5,204.6,348.3,204.6Zm5.8-3.3a.71.71,0,0,1-.6-.3.65.65,0,0,1,.2-.9l2.3-1.3a.65.65,0,0,1,.7,1.1l-2.3,1.3C354.4,201.3,354.3,201.3,354.1,201.3Zm5.8-3.4a.71.71,0,0,1-.6-.3.65.65,0,0,1,.2-.9l2.3-1.3a.65.65,0,0,1,.7,1.1l-2.3,1.3C360.2,197.9,360,197.9,359.9,197.9Zm.9-3.2a.37.37,0,0,1-.3-.1l-2.3-1.3a.67.67,0,1,1,.6-1.2l2.3,1.3a.81.81,0,0,1,.3.9A.68.68,0,0,1,360.8,194.7Zm-5.8-3.2a.37.37,0,0,1-.3-.1l-1.7-.9a.67.67,0,1,1,.6-1.2l1.7.9a.81.81,0,0,1,.3.9C355.4,191.3,355.2,191.5,355,191.5Z"/><path class="cls-5" d="M117.6,210.8a.71.71,0,0,1-.6-.3.65.65,0,0,1,.2-.9l2.3-1.3a.65.65,0,1,1,.7,1.1l-2.3,1.3A.37.37,0,0,1,117.6,210.8Zm5.7-3.4a.71.71,0,0,1-.6-.3.65.65,0,0,1,.2-.9l2.3-1.3a.65.65,0,1,1,.7,1.1l-2.3,1.3C123.6,207.4,123.4,207.4,123.3,207.4Zm5.8-3.3a.71.71,0,0,1-.6-.3.65.65,0,0,1,.2-.9l2.3-1.3a.65.65,0,0,1,.7,1.1l-2.3,1.3C129.3,204,129.2,204.1,129.1,204.1Zm5.8-3.4a.71.71,0,0,1-.6-.3.65.65,0,0,1,.2-.9l2.3-1.3a.65.65,0,0,1,.7,1.1l-2.3,1.3A.37.37,0,0,1,134.9,200.7Zm5.7-3.4a.71.71,0,0,1-.6-.3.65.65,0,0,1,.2-.9l2.3-1.3a.65.65,0,0,1,.7,1.1l-2.3,1.3C140.9,197.3,140.8,197.3,140.6,197.3Zm5.8-3.3a.71.71,0,0,1-.6-.3.65.65,0,0,1,.2-.9l2.3-1.3a.65.65,0,1,1,.7,1.1l-2.3,1.3A1,1,0,0,1,146.4,194Zm5.8-3.4a.71.71,0,0,1-.6-.3.65.65,0,0,1,.2-.9l2.3-1.3a.65.65,0,0,1,.7,1.1l-2.3,1.3A.37.37,0,0,1,152.2,190.6Zm5.8-3.4a.71.71,0,0,1-.6-.3.65.65,0,0,1,.2-.9l2.3-1.3a.65.65,0,1,1,.7,1.1l-2.3,1.3A.37.37,0,0,1,158,187.2Zm5.7-3.3a.71.71,0,0,1-.6-.3.65.65,0,0,1,.2-.9l2.3-1.3a.65.65,0,1,1,.7,1.1l-2.3,1.3A.44.44,0,0,1,163.7,183.9Zm5.8-3.4a.71.71,0,0,1-.6-.3.65.65,0,0,1,.2-.9l2.3-1.3a.65.65,0,0,1,.7,1.1l-2.3,1.3C169.8,180.5,169.6,180.5,169.5,180.5Zm5.8-3.4a.71.71,0,0,1-.6-.3.65.65,0,0,1,.2-.9l2.3-1.3a.65.65,0,0,1,.7,1.1l-2.3,1.3A.37.37,0,0,1,175.3,177.1Zm5.8-3.3a.71.71,0,0,1-.6-.3.65.65,0,0,1,.2-.9l2.3-1.3a.65.65,0,1,1,.7,1.1l-2.3,1.3C181.3,173.7,181.2,173.8,181.1,173.8Zm5.7-3.4a.71.71,0,0,1-.6-.3.65.65,0,0,1,.2-.9l2.3-1.3a.65.65,0,1,1,.7,1.1l-2.3,1.3C187.1,170.4,187,170.4,186.8,170.4Zm5.8-3.4a.71.71,0,0,1-.6-.3.65.65,0,0,1,.2-.9l2-1.2a.65.65,0,1,1,.7,1.1l-2,1.2A.37.37,0,0,1,192.6,167Z"/><path class="cls-5" d="M173.7,179.2a2.9,2.9,0,1,1-2.9-2.9A2.9,2.9,0,0,1,173.7,179.2Z"/><path class="cls-5" d="M157.7,231.8a2.9,2.9,0,1,1-2.9-2.9A2.9,2.9,0,0,1,157.7,231.8Z"/><path class="cls-5" d="M94.4,179.8a2.9,2.9,0,1,1-2.9-2.9A2.9,2.9,0,0,1,94.4,179.8Z"/><path class="cls-5" d="M288.2,239.1a2.9,2.9,0,1,1-2.9-2.9A2.9,2.9,0,0,1,288.2,239.1Z"/><polygon class="cls-7" points="186.2 215.1 132.4 246.3 103.4 229.6 157.1 198.3 186.2 215.1"/><polygon class="cls-8" points="182.2 222.4 182.1 226.8 138.7 252 138.7 247.7 182.2 222.4"/><polygon class="cls-8" points="182.2 231.3 182.1 235.7 138.7 260.9 138.7 256.6 182.2 231.3"/><polygon class="cls-8" points="182.2 240.3 182.1 244.6 138.7 269.9 138.7 265.5 182.2 240.3"/><polygon class="cls-9" points="168.6 258.7 132.4 237.8 132.4 246.3 103.5 229.6 103.4 263.6 132.4 280.3 132.4 280.3 168.5 301.1 168.6 258.7"/><polygon class="cls-10" points="107.1 237 107.1 241.3 129 254.1 129 249.8 107.1 237"/><polygon class="cls-10" points="107.1 245.9 107.1 250.2 129 263 129 258.7 107.1 245.9"/><polygon class="cls-10" points="107.1 254.9 107.1 259.2 129 271.9 129 267.6 107.1 254.9"/><polygon class="cls-11" points="235.6 219.8 168.6 258.7 132.4 237.8 199.4 198.9 235.6 219.8"/><polygon class="cls-12" points="235.6 219.7 235.5 262.1 168.5 301.1 168.6 258.6 235.6 219.7"/><polygon class="cls-8" points="230.8 229.3 230.8 234.8 176.5 266.3 176.6 260.9 230.8 229.3"/><polygon class="cls-8" points="230.8 240.5 230.8 245.9 176.5 277.4 176.6 272 230.8 240.5"/><polygon class="cls-8" points="230.8 251.6 230.8 257 176.5 288.5 176.6 283.1 230.8 251.6"/><polygon class="cls-10" points="137.2 247.5 137.2 252.8 164.5 268.7 164.5 263.3 137.2 247.5"/><polygon class="cls-10" points="137.2 258.6 137.2 263.9 164.5 279.8 164.5 274.5 137.2 258.6"/><polygon class="cls-10" points="137.2 269.7 137.2 275.1 164.5 291 164.5 285.6 137.2 269.7"/><polygon class="cls-9" points="162.6 244.5 162.6 250.8 143.6 239.8 143.6 233.5 162.6 244.5"/><path class="cls-12" d="M171.7,239c-.5.4-1.2.9-1.8,1.3l-7.2,4.2v6.3h0l3.1-1.8,4.1-2.4c3.2-1.9,4.8-4.3,4.8-6.8v-6.3A7.05,7.05,0,0,1,171.7,239Z"/><path class="cls-8" d="M169.7,226.7c6.5,3.8,6.6,9.9.1,13.7l-7.2,4.2-19-11,18.9-11Z"/><polygon class="cls-13" points="203.2 101.8 180 115.3 140.3 92.4 163.5 78.8 203.2 101.8"/><polygon class="cls-12" points="203.2 101.8 203.1 153.8 179.9 167.3 180 115.3 203.2 101.8"/><polygon class="cls-10" points="195.1 95.2 179.6 104.2 147.7 86.5 163.1 77.5 195.1 95.2"/><polygon class="cls-12" points="195.1 95.2 195 100 179.6 109 179.6 104.2 195.1 95.2"/><polygon class="cls-9" points="179.6 104.2 179.6 109 147.6 91.3 147.7 86.5 179.6 104.2"/><path class="cls-11" d="M218.9,141.2l-20.2-11.7L180,140.4l20.2,11.7Zm-34-.8,13.8-8,15.3,8.8-13.8,8Z"/><polygon class="cls-14" points="212 142.4 198.7 134.7 186.9 141.6 184.9 140.4 200.2 149.3 214 141.3 212 142.4"/><path class="cls-12" d="M200.2,152.1V179l18.7-10.9V141.2Zm15.1,13.4-11.5,6.7v-3.6l11.5-6.7Zm0-7.4-11.5,6.7v-3.6l11.5-6.7Zm0-7.2-11.5,6.7V154l11.5-6.7Z"/><polygon class="cls-14" points="203.7 157.6 215.3 150.9 215.3 147.3 203.8 154 203.7 157.6"/><polygon class="cls-14" points="203.7 172.2 215.3 165.5 215.3 161.9 203.8 168.6 203.7 172.2"/><polygon class="cls-14" points="203.7 164.8 215.3 158.1 215.3 154.6 203.8 161.3 203.7 164.8"/><path class="cls-9" d="M180,140.4v26.8l.1-52L140.4,92.3l-.1,52.1L180,167.3h0L200.2,179V152.1Zm12.8,34.4-7.8-4.5V160.2l7.8,4.5Z"/><polygon class="cls-8" points="198.7 134.7 212 142.4 214 141.3 198.7 132.4 184.9 140.4 186.9 141.6 198.7 134.7"/><polygon class="cls-10" points="185 170.2 192.8 174.8 192.8 164.7 185 160.2 185 170.2"/><polygon class="cls-5" points="146.3 102.4 152.8 106.1 152.8 111 146.3 107.2 146.3 102.4"/><polygon class="cls-10" points="156.4 108.2 162.9 111.9 162.9 116.8 156.4 113 156.4 108.2"/><polygon class="cls-10" points="166.4 114 172.9 117.7 172.9 122.6 166.4 118.8 166.4 114"/><polygon class="cls-10" points="146.3 111.2 152.8 114.9 152.8 119.8 146.3 116 146.3 111.2"/><polygon class="cls-10" points="156.4 117 162.9 120.7 162.9 125.6 156.4 121.8 156.4 117"/><polygon class="cls-10" points="166.4 122.8 172.9 126.5 172.9 131.3 166.4 127.6 166.4 122.8"/><polygon class="cls-10" points="146.3 119.9 152.8 123.7 152.8 128.5 146.3 124.8 146.3 119.9"/><polygon class="cls-5" points="156.4 125.7 162.9 129.5 162.9 134.3 156.4 130.6 156.4 125.7"/><polygon class="cls-10" points="166.4 131.5 172.9 135.3 172.9 140.1 166.4 136.4 166.4 131.5"/><polygon class="cls-10" points="146.3 128.7 152.8 132.5 152.8 137.3 146.3 133.6 146.3 128.7"/><polygon class="cls-10" points="156.4 134.5 162.9 138.3 162.9 143.1 156.4 139.4 156.4 134.5"/><polygon class="cls-10" points="166.4 140.3 172.9 144.1 172.9 148.9 166.4 145.2 166.4 140.3"/><polygon class="cls-10" points="146.3 137.5 152.8 141.2 152.8 146.1 146.3 142.4 146.3 137.5"/><polygon class="cls-10" points="156.4 143.3 162.9 147 162.9 151.9 156.4 148.2 156.4 143.3"/><polygon class="cls-10" points="166.4 149.1 172.9 152.8 172.9 157.7 166.4 154 166.4 149.1"/><polygon class="cls-12" points="379 197.5 348.7 212.6 348.7 171.9 379 156.7 379 197.5"/><polygon class="cls-9" points="302.8 215.4 242.7 185.3 242.7 181 302.8 211.1 302.8 215.4"/><polygon class="cls-14" points="302.8 211.1 242.7 181 250.2 177.1 310.3 207.2 302.8 211.1"/><polygon class="cls-9" points="310.3 211.5 302.8 215.4 302.8 211.1 310.3 207.2 310.3 211.5"/><polygon class="cls-9" points="348.7 212.6 244.4 160.5 244.4 119.7 348.7 171.9 348.7 212.6"/><polygon class="cls-9" points="310.3 207.2 250.2 177.1 250.2 139.6 310.3 169.7 310.3 207.2"/><polygon class="cls-12" points="327.2 202.4 310.3 211.5 310.3 169.7 327.2 161.3 327.2 202.4"/><polygon class="cls-15" points="294.9 205.4 298.2 203.8 298.2 202.7 294.9 204.4 294.9 205.4"/><polygon class="cls-16" points="294.9 204.4 298.2 202.7 294.9 201 291.5 202.7 294.9 204.4"/><polygon class="cls-17" points="291.5 203.8 294.9 205.4 294.9 204.4 291.5 202.7 291.5 203.8"/><polygon class="cls-15" points="294.9 204.1 297.7 202.7 297.7 201.8 294.9 203.2 294.9 204.1"/><polygon class="cls-16" points="294.9 203.2 297.7 201.8 294.9 200.4 292.1 201.8 294.9 203.2"/><polygon class="cls-17" points="292.1 202.7 294.9 204.1 294.9 203.2 292.1 201.8 292.1 202.7"/><polygon class="cls-18" points="294.9 200.2 296.8 200.2 296.8 201.7 293 201.7 293 200.2 294.9 200.2"/><path class="cls-18" d="M293.6,201c-.7.4-.7,1,0,1.3a3,3,0,0,0,2.6,0c.7-.4.7-1,0-1.3A3,3,0,0,0,293.6,201Z"/><path class="cls-16" d="M293.6,199.6c-.7.4-.7,1,0,1.3a3,3,0,0,0,2.6,0c.7-.4.7-1,0-1.3A3,3,0,0,0,293.6,199.6Z"/><polygon class="cls-18" points="294.9 175.4 296.5 175.4 296.5 199.9 293.2 199.9 293.2 175.4 294.9 175.4"/><ellipse class="cls-18" cx="294.9" cy="199.9" rx="1.6" ry="0.8"/><ellipse class="cls-19" cx="294.9" cy="175.4" rx="1.6" ry="0.8"/><polygon class="cls-15" points="294.9 176.7 298.6 174.9 298.6 173.7 294.9 175.6 294.9 176.7"/><polygon class="cls-16" points="294.9 175.6 298.6 173.7 294.9 171.9 291.2 173.7 294.9 175.6"/><polygon class="cls-17" points="291.2 174.9 294.9 176.7 294.9 175.6 291.2 173.7 291.2 174.9"/><polygon class="cls-15" points="280.9 198.2 284.3 196.5 284.3 195.5 280.9 197.2 280.9 198.2"/><polygon class="cls-16" points="280.9 197.2 284.3 195.5 280.9 193.8 277.6 195.5 280.9 197.2"/><polygon class="cls-17" points="277.6 196.5 280.9 198.2 280.9 197.2 277.6 195.5 277.6 196.5"/><polygon class="cls-15" points="280.9 196.8 283.7 195.4 283.7 194.5 280.9 196 280.9 196.8"/><polygon class="cls-16" points="280.9 196 283.7 194.5 280.9 193.1 278.1 194.5 280.9 196"/><polygon class="cls-17" points="278.1 195.4 280.9 196.8 280.9 196 278.1 194.5 278.1 195.4"/><polygon class="cls-18" points="280.9 193 282.8 193 282.8 194.4 279 194.4 279 193 280.9 193"/><path class="cls-18" d="M279.6,193.8c-.7.4-.7,1,0,1.3a3,3,0,0,0,2.6,0c.7-.4.7-1,0-1.3A3,3,0,0,0,279.6,193.8Z"/><path class="cls-16" d="M279.6,192.3c-.7.4-.7,1,0,1.3a3,3,0,0,0,2.6,0c.7-.4.7-1,0-1.3A3.87,3.87,0,0,0,279.6,192.3Z"/><polygon class="cls-18" points="280.9 168.2 282.6 168.2 282.6 192.7 279.3 192.7 279.3 168.2 280.9 168.2"/><ellipse class="cls-18" cx="280.9" cy="192.7" rx="1.6" ry="0.8"/><ellipse class="cls-19" cx="280.9" cy="168.2" rx="1.6" ry="0.8"/><polygon class="cls-15" points="280.9 169.5 284.6 167.6 284.6 166.5 280.9 168.3 280.9 169.5"/><polygon class="cls-16" points="280.9 168.3 284.6 166.5 280.9 164.7 277.2 166.5 280.9 168.3"/><polygon class="cls-17" points="277.2 167.6 280.9 169.5 280.9 168.3 277.2 166.5 277.2 167.6"/><polygon class="cls-15" points="267 191.1 270.3 189.4 270.3 188.4 267 190 267 191.1"/><polygon class="cls-16" points="267 190 270.3 188.4 267 186.7 263.6 188.4 267 190"/><polygon class="cls-17" points="263.6 189.4 267 191.1 267 190 263.6 188.4 263.6 189.4"/><polygon class="cls-15" points="267 189.7 269.8 188.3 269.8 187.4 267 188.9 267 189.7"/><polygon class="cls-16" points="267 188.9 269.8 187.4 267 186 264.2 187.4 267 188.9"/><polygon class="cls-17" points="264.2 188.3 267 189.7 267 188.9 264.2 187.4 264.2 188.3"/><polygon class="cls-18" points="267 185.9 268.9 185.9 268.9 187.3 265.1 187.3 265.1 185.9 267 185.9"/><path class="cls-18" d="M265.7,186.7c-.7.4-.7,1,0,1.3a3,3,0,0,0,2.6,0c.7-.4.7-1,0-1.3A3,3,0,0,0,265.7,186.7Z"/><path class="cls-16" d="M265.7,185.2c-.7.4-.7,1,0,1.3a3,3,0,0,0,2.6,0c.7-.4.7-1,0-1.3A3.87,3.87,0,0,0,265.7,185.2Z"/><polygon class="cls-18" points="267 161 268.6 161 268.6 185.6 265.3 185.6 265.3 161 267 161"/><ellipse class="cls-18" cx="267" cy="185.6" rx="1.6" ry="0.8"/><ellipse class="cls-19" cx="267" cy="161" rx="1.6" ry="0.8"/><polygon class="cls-15" points="267 162.4 270.7 160.5 270.7 159.4 267 161.2 267 162.4"/><polygon class="cls-16" points="267 161.2 270.7 159.4 267 157.6 263.3 159.4 267 161.2"/><polygon class="cls-17" points="263.3 160.5 267 162.4 267 161.2 263.3 159.4 263.3 160.5"/><polygon class="cls-15" points="252.4 183.4 255.7 181.7 255.7 180.7 252.4 182.3 252.4 183.4"/><polygon class="cls-16" points="252.4 182.3 255.7 180.7 252.4 179 249 180.7 252.4 182.3"/><polygon class="cls-17" points="249 181.7 252.4 183.4 252.4 182.3 249 180.7 249 181.7"/><polygon class="cls-15" points="252.4 182 255.2 180.6 255.2 179.7 252.4 181.1 252.4 182"/><polygon class="cls-16" points="252.4 181.1 255.2 179.7 252.4 178.3 249.6 179.7 252.4 181.1"/><polygon class="cls-17" points="249.6 180.6 252.4 182 252.4 181.1 249.6 179.7 249.6 180.6"/><polygon class="cls-18" points="252.4 178.2 254.2 178.2 254.2 179.6 250.5 179.6 250.5 178.2 252.4 178.2"/><path class="cls-18" d="M251.1,178.9c-.7.4-.7,1,0,1.3a3,3,0,0,0,2.6,0c.7-.4.7-1,0-1.3A3.87,3.87,0,0,0,251.1,178.9Z"/><path class="cls-16" d="M251.1,177.5c-.7.4-.7,1,0,1.3a3,3,0,0,0,2.6,0c.7-.4.7-1,0-1.3A3,3,0,0,0,251.1,177.5Z"/><polygon class="cls-18" points="252.4 153.3 254 153.3 254 177.8 250.7 177.8 250.7 153.3 252.4 153.3"/><ellipse class="cls-18" cx="252.4" cy="177.8" rx="1.6" ry="0.8"/><ellipse class="cls-19" cx="252.4" cy="153.3" rx="1.6" ry="0.8"/><polygon class="cls-15" points="252.4 154.6 256 152.8 256 151.7 252.4 153.5 252.4 154.6"/><polygon class="cls-16" points="252.4 153.5 256 151.7 252.4 149.8 248.7 151.7 252.4 153.5"/><polygon class="cls-17" points="248.7 152.8 252.4 154.6 252.4 153.5 248.7 151.7 248.7 152.8"/><polygon class="cls-10" points="379 156.7 274.3 104.6 244.4 119.7 267.1 131.3 250.2 139.6 243 143.2 303.2 173.3 327.3 161.3 348.7 171.9 379 156.7"/><path class="cls-7" d="M196.4,29.2c0,7.8-11.7,14.7-12.4,15.1-.6-1.1-12.2-21.5-12.2-29.3s5.5-11,12.3-7S196.4,21.4,196.4,29.2Zm-12.3-1.6c2.7,1.5,4.9.3,4.9-2.8a11,11,0,0,0-4.8-8.4c-2.7-1.5-4.9-.3-4.9,2.8a10.53,10.53,0,0,0,4.8,8.4"/><polygon class="cls-9" points="243.1 148.7 301.8 177.6 301.7 168.9 273.6 134.7 243 140 243.1 148.7"/><polygon class="cls-8" points="306.2 166.5 301.7 168.9 273.6 135.4 278 133.2 306.2 166.5"/><polygon class="cls-18" points="278 133.2 273.6 135.4 243 140 247.5 137.8 278 133.2"/><polygon class="cls-17" points="301.8 176.8 243 147.7 243 143.7 301.8 172.9 301.8 176.8"/><polygon class="cls-12" points="301.7 169 301.7 177.6 306.2 175.3 306.2 166.5 301.7 169"/><polygon class="cls-13" points="198.9 110.3 185.4 118.1 185.4 122.9 198.9 115.1 198.9 110.3"/><polygon class="cls-13" points="198.9 119.1 185.4 126.9 185.4 131.7 198.9 123.9 198.9 119.1"/><polygon class="cls-13" points="371.6 169.3 358.1 177.1 358.1 182 371.6 174.2 371.6 169.3"/><polygon class="cls-13" points="371.6 178.1 358.1 185.9 358.1 190.8 371.6 183 371.6 178.1"/><path class="cls-5" d="M273.3,124.8a.68.68,0,0,1-.7-.7v-2.6a.7.7,0,1,1,1.4,0v2.6A.68.68,0,0,1,273.3,124.8Zm0-6.6a.68.68,0,0,1-.7-.7v-2.7a.7.7,0,1,1,1.4,0v2.7A.68.68,0,0,1,273.3,118.2Zm0-6.7a.68.68,0,0,1-.7-.7v-2.7a.7.7,0,1,1,1.4,0v2.7A.68.68,0,0,1,273.3,111.5Zm0-6.7a.68.68,0,0,1-.7-.7v-2.6a.7.7,0,1,1,1.4,0v2.7A.67.67,0,0,1,273.3,104.8Zm0-6.7a.68.68,0,0,1-.7-.7V94.7a.7.7,0,1,1,1.4,0v2.7A.68.68,0,0,1,273.3,98.1Zm0-6.7a.68.68,0,0,1-.7-.7V88a.7.7,0,1,1,1.4,0v2.7A.68.68,0,0,1,273.3,91.4Z"/><path class="cls-5" d="M312,107.3a.37.37,0,0,1-.3-.1l-2.3-1.3a.67.67,0,1,1,.6-1.2l2.3,1.3a.81.81,0,0,1,.3.9A.92.92,0,0,1,312,107.3Z"/><path class="cls-5" d="M306.2,104a.37.37,0,0,1-.3-.1l-2.3-1.3a.67.67,0,1,1,.6-1.2l2.3,1.3a.81.81,0,0,1,.3.9A.72.72,0,0,1,306.2,104Z"/><path class="cls-5" d="M300.3,100.8a.37.37,0,0,1-.3-.1l-2.3-1.3a.67.67,0,0,1,.6-1.2l2.3,1.3a.81.81,0,0,1,.3.9A.62.62,0,0,1,300.3,100.8Z"/><path class="cls-5" d="M294.4,97.6a.37.37,0,0,1-.3-.1l-2.3-1.3a.67.67,0,1,1,.6-1.2l2.3,1.3a.81.81,0,0,1,.3.9A.55.55,0,0,1,294.4,97.6Z"/><path class="cls-5" d="M288.6,94.4a.37.37,0,0,1-.3-.1L286,93a.67.67,0,0,1,.6-1.2l2.3,1.3a.81.81,0,0,1,.3.9A.72.72,0,0,1,288.6,94.4Z"/><path class="cls-5" d="M282.7,91.2a.37.37,0,0,1-.3-.1l-2.3-1.3a.67.67,0,0,1,.6-1.2l2.3,1.3a.81.81,0,0,1,.3.9A.62.62,0,0,1,282.7,91.2Z"/><path class="cls-5" d="M276.8,88a.37.37,0,0,1-.3-.1l-2.3-1.3a.67.67,0,0,1,.6-1.2l2.3,1.3a.81.81,0,0,1,.3.9A.55.55,0,0,1,276.8,88Z"/><path class="cls-5" d="M333.7,37.6c-2.1-1.2-3.7-.2-3.7,2.1a8.25,8.25,0,0,0,3.7,6.4c2.1,1.2,3.7.2,3.7-2.1A8.25,8.25,0,0,0,333.7,37.6ZM325,26.4l3.3,5.8c1.4-.7,3.3-.6,5.4.6a16.14,16.14,0,0,1,5.4,5.6l3.3-2.1a25.1,25.1,0,0,0-8.7-9C330.3,25.4,327.2,25.2,325,26.4Zm8.7-22c-8.7-5-16.6-5.6-22.4-2.5l3.3,5.8c5-2.6,11.7-2.1,19.2,2.2S348,21.5,353,29.8l3.3-2.1C350.3,17.9,342.4,9.4,333.7,4.4Zm-15.5,9.9,3.3,5.8c3.2-1.7,7.5-1.4,12.2,1.4s9,7.4,12.2,12.7l3.3-2.1c-4-6.8-9.5-12.6-15.5-16.1S322.2,12.2,318.2,14.3Z"/><path class="cls-5" d="M323.8,113.7a.37.37,0,0,1-.3-.1l-2.3-1.3a.67.67,0,0,1,.6-1.2l2.3,1.3a.81.81,0,0,1,.3.9C324.2,113.5,324,113.7,323.8,113.7Z"/><path class="cls-5" d="M317.9,110.5a.37.37,0,0,1-.3-.1l-2.3-1.3a.67.67,0,1,1,.6-1.2l2.3,1.3a.81.81,0,0,1,.3.9C318.3,110.3,318.1,110.5,317.9,110.5Z"/><path class="cls-5" d="M332.4,79a.68.68,0,0,1-.7-.7l-.1-2.7a.7.7,0,1,1,1.4,0l.1,2.7A.84.84,0,0,1,332.4,79Z"/><path class="cls-5" d="M332.2,72.3a.68.68,0,0,1-.7-.7l-.1-2.7a.7.7,0,1,1,1.4,0l.1,2.7A.68.68,0,0,1,332.2,72.3Z"/><path class="cls-5" d="M332.1,65.6a.68.68,0,0,1-.7-.7l-.1-2.7a.7.7,0,0,1,1.4,0l.1,2.7A.84.84,0,0,1,332.1,65.6Z"/><path class="cls-5" d="M331.9,58.9a.68.68,0,0,1-.7-.7l-.1-2.7a.7.7,0,1,1,1.4,0l.1,2.7A.68.68,0,0,1,331.9,58.9Z"/><path class="cls-5" d="M331.8,52.2a.68.68,0,0,1-.7-.7l-.1-2.7a.7.7,0,1,1,1.4,0l.1,2.7A.84.84,0,0,1,331.8,52.2Z"/><path class="cls-5" d="M333.3,118.9a.37.37,0,0,1-.3-.1l-.2-.1a.81.81,0,0,1-.3-.9.1.1,0,0,1,.1-.1v-2a.7.7,0,1,1,1.4,0l.1,2.5a.71.71,0,0,1-.3.6A2,2,0,0,0,333.3,118.9Z"/><path class="cls-5" d="M329.6,116.9a.37.37,0,0,1-.3-.1l-2.4-1.3a.67.67,0,1,1,.6-1.2l2.3,1.3a.81.81,0,0,1,.3.9A.46.46,0,0,1,329.6,116.9Z"/><path class="cls-5" d="M356.8,157.7a.68.68,0,0,1-.7-.7l-.1-2.7a.68.68,0,0,1,.7-.7h0a.68.68,0,0,1,.7.7l.1,2.7a.68.68,0,0,1-.7.7Zm-.2-6.7a.68.68,0,0,1-.7-.7l-.1-2.7a.68.68,0,0,1,.7-.7h0a.68.68,0,0,1,.7.7l.1,2.7a.68.68,0,0,1-.7.7Zm-.1-6.7a.68.68,0,0,1-.7-.7l-.1-2.7a.68.68,0,0,1,.7-.7h0a.68.68,0,0,1,.7.7l.1,2.7c-.1.4-.3.7-.7.7Zm-.2-6.6a.68.68,0,0,1-.7-.7l-.1-2.7a.68.68,0,0,1,.7-.7h0a.68.68,0,0,1,.7.7l.1,2.7a.75.75,0,0,1-.7.7Zm-.1-6.8a.86.86,0,0,1-.6-.3l-2-1.2a.65.65,0,1,1,.7-1.1l2.2,1.3a.6.6,0,0,1,.3.6A.67.67,0,0,1,356.2,130.9Zm-5.8-3.3a.37.37,0,0,1-.3-.1l-2.3-1.3a.65.65,0,0,1,.7-1.1l2.3,1.3a.65.65,0,0,1,.2.9A.6.6,0,0,1,350.4,127.6Zm-5.7-3.3a.37.37,0,0,1-.3-.1l-2.3-1.3a.65.65,0,0,1,.7-1.1l2.3,1.3a.65.65,0,0,1,.2.9C345.1,124.1,344.9,124.3,344.7,124.3Zm-5.8-3.4a.37.37,0,0,1-.3-.1l-2.3-1.3a.65.65,0,1,1,.7-1.1l2.3,1.3a.65.65,0,0,1,.2.9A.86.86,0,0,1,338.9,120.9Z"/><path class="cls-5" d="M333.2,112.4a.68.68,0,0,1-.7-.7l-.1-2.7a.7.7,0,1,1,1.4,0l.1,2.7A.84.84,0,0,1,333.2,112.4Z"/><path class="cls-5" d="M333,105.7a.68.68,0,0,1-.7-.7l-.1-2.7a.7.7,0,1,1,1.4,0l.1,2.7A.68.68,0,0,1,333,105.7Z"/><path class="cls-5" d="M332.8,99a.68.68,0,0,1-.7-.7l-.1-2.7a.7.7,0,1,1,1.4,0l.1,2.7A.68.68,0,0,1,332.8,99Z"/><path class="cls-5" d="M332.7,92.3a.68.68,0,0,1-.7-.7l-.1-2.7a.7.7,0,1,1,1.4,0l.1,2.7C333.3,92,333.1,92.3,332.7,92.3Z"/><path class="cls-5" d="M332.5,85.6a.68.68,0,0,1-.7-.7l-.1-2.7a.7.7,0,1,1,1.4,0l.1,2.7A.68.68,0,0,1,332.5,85.6Z"/></g></svg>