<svg id="Layer_1" data-name="Layer 1" xmlns="http://www.w3.org/2000/svg" viewBox="0 0 350.28 352.13"><defs><style>.cls-1{fill:#eaa86b;}.cls-2{fill:#2eb7b7;}.cls-3{fill:#e9f1f6;}.cls-4{fill:#80d4d8;}.cls-5{fill:#f29808;}.cls-6{fill:#efb670;}.cls-7{fill:#e88b46;}.cls-8{fill:#cc7146;}.cls-9{fill:#f0f1f1;}.cls-10{fill:#a6a8aa;}.cls-11{fill:#858789;}.cls-12{fill:#d4d4d4;}.cls-13{fill:#f2faff;}.cls-14{fill:#fff;}.cls-15{fill:#d2e7f2;}.cls-16{fill:#7a7b7e;}.cls-17{fill:#e9f6ff;}.cls-18{fill:#de5a74;}.cls-19{fill:#e6e6e6;}.cls-20{fill:#b84834;}.cls-21{fill:#e8ebed;}.cls-22{fill:#d4d7d9;}.cls-23{fill:#f1f3f3;}.cls-24{fill:#73c5d8;}</style></defs><title>3-onlineprograms</title><g id="OBJECTS"><path class="cls-1" d="M191.7,248.9a.6.6,0,0,1-.4-.1l-2.9-1.7a.81.81,0,1,1,.8-1.4l2.9,1.7a.8.8,0,0,1,.3,1.1A.84.84,0,0,1,191.7,248.9Zm-7.2-4.2a.6.6,0,0,1-.4-.1l-2.9-1.7a.81.81,0,0,1,.8-1.4l2.9,1.7a.8.8,0,0,1,.3,1.1A.84.84,0,0,1,184.5,244.7Zm-7.2-4.2a.6.6,0,0,1-.4-.1l-2.9-1.7a.81.81,0,1,1,.8-1.4l2.9,1.7a.8.8,0,0,1,.3,1.1A.84.84,0,0,1,177.3,240.5Zm-7.2-4.2a.6.6,0,0,1-.4-.1l-2.9-1.7a.81.81,0,1,1,.8-1.4l2.9,1.7a.8.8,0,0,1,.3,1.1A.75.75,0,0,1,170.1,236.3Zm-7.3-4.2a.6.6,0,0,1-.4-.1l-2.9-1.7a.81.81,0,0,1,.8-1.4l2.9,1.7a.8.8,0,0,1,.3,1.1A.67.67,0,0,1,162.8,232.1Zm-7.2-4.2a.6.6,0,0,1-.4-.1l-2.9-1.7a.81.81,0,1,1,.8-1.4l2.9,1.7a.8.8,0,0,1,.3,1.1A.67.67,0,0,1,155.6,227.9Zm-7.2-4.1a.6.6,0,0,1-.4-.1l-2.9-1.7a.81.81,0,0,1,.8-1.4l2.9,1.7a.8.8,0,0,1,.3,1.1A.84.84,0,0,1,148.4,223.8Zm-7.2-4.2a.6.6,0,0,1-.4-.1l-2.9-1.7a.81.81,0,1,1,.8-1.4l2.9,1.7a.8.8,0,0,1,.3,1.1A1,1,0,0,1,141.2,219.6Zm-7.2-4.2a.6.6,0,0,1-.4-.1l-2.9-1.7a.81.81,0,0,1,.8-1.4l2.9,1.7a.8.8,0,0,1,.3,1.1A1.27,1.27,0,0,1,134,215.4Zm-6.8-4.2a.67.67,0,0,1-.7-.4.8.8,0,0,1,.3-1.1l2.9-1.7a.81.81,0,0,1,.8,1.4l-2.9,1.7A.6.6,0,0,1,127.2,211.2Zm7.2-4.2a.84.84,0,0,1-.7-.4.8.8,0,0,1,.3-1.1l2.9-1.7a.81.81,0,1,1,.8,1.4l-2.9,1.7A.6.6,0,0,1,134.4,207Zm7.2-4.1a.67.67,0,0,1-.7-.4.8.8,0,0,1,.3-1.1l2.9-1.7a.81.81,0,1,1,.8,1.4l-2.9,1.7C141.9,202.8,141.8,202.9,141.6,202.9Zm7.3-4.2a.67.67,0,0,1-.7-.4.8.8,0,0,1,.3-1.1l2.9-1.7a.81.81,0,1,1,.8,1.4l-2.9,1.7A.6.6,0,0,1,148.9,198.7Zm7.2-4.2a.67.67,0,0,1-.7-.4.8.8,0,0,1,.3-1.1l2.9-1.7a.81.81,0,1,1,.8,1.4l-2.9,1.7C156.4,194.5,156.3,194.5,156.1,194.5Zm7.3-4.1a.84.84,0,0,1-.7-.4.8.8,0,0,1,.3-1.1l2.9-1.7a.81.81,0,1,1,.8,1.4l-2.9,1.7C163.6,190.3,163.5,190.4,163.4,190.4Zm7.2-4.2a.67.67,0,0,1-.7-.4.8.8,0,0,1,.3-1.1l2.9-1.7a.81.81,0,1,1,.8,1.4l-2.9,1.7A.6.6,0,0,1,170.6,186.2Zm7.2-4.2a.84.84,0,0,1-.7-.4.8.8,0,0,1,.3-1.1l2.9-1.7a.81.81,0,1,1,.8,1.4l-2.9,1.7C178.1,182,178,182,177.8,182Zm7.3-4.1a.67.67,0,0,1-.7-.4.8.8,0,0,1,.3-1.1l2.9-1.7a.81.81,0,1,1,.8,1.4l-2.9,1.7C185.4,177.8,185.2,177.9,185.1,177.9Zm7.2-4.2a.84.84,0,0,1-.7-.4.8.8,0,0,1,.3-1.1l2.9-1.7a.81.81,0,1,1,.8,1.4l-2.9,1.7A.6.6,0,0,1,192.3,173.7Zm7.2-4.2a.67.67,0,0,1-.7-.4.8.8,0,0,1,.3-1.1l2.9-1.7a.81.81,0,1,1,.8,1.4l-2.9,1.7C199.8,169.5,199.7,169.5,199.5,169.5Zm7.3-4.1a.84.84,0,0,1-.7-.4.8.8,0,0,1,.3-1.1l2.9-1.7a.81.81,0,1,1,.8,1.4l-2.9,1.7C207.1,165.3,206.9,165.4,206.8,165.4Z"/><path class="cls-1" d="M276.1,197.5a.6.6,0,0,1,.4.1l2.9,1.7a.81.81,0,0,1-.8,1.4l-2.9-1.7a.8.8,0,0,1-.3-1.1A.87.87,0,0,1,276.1,197.5Zm7.3,4.2a.6.6,0,0,1,.4.1l2.9,1.7a.81.81,0,0,1-.8,1.4l-2.9-1.7a.8.8,0,0,1-.3-1.1A.67.67,0,0,1,283.4,201.7Zm7.2,4.1a.6.6,0,0,1,.4.1l2.9,1.7a.81.81,0,0,1-.8,1.4l-2.9-1.7a.8.8,0,0,1-.3-1.1A.84.84,0,0,1,290.6,205.8Zm7.2,4.2a.6.6,0,0,1,.4.1l2.9,1.7a.81.81,0,0,1-.8,1.4l-2.9-1.7a.8.8,0,0,1-.3-1.1A.84.84,0,0,1,297.8,210Zm7.2,4.2a.6.6,0,0,1,.4.1l2.9,1.7a.81.81,0,0,1-.8,1.4l-2.9-1.7a.8.8,0,0,1-.3-1.1A1.27,1.27,0,0,1,305,214.2Zm7.3,4.2a.6.6,0,0,1,.4.1l2.9,1.7a.81.81,0,0,1-.8,1.4l-2.9-1.7a.8.8,0,0,1-.3-1.1A.84.84,0,0,1,312.3,218.4Zm7.2,4.2a.6.6,0,0,1,.4.1l2.9,1.7a.81.81,0,0,1-.8,1.4l-2.9-1.7a.8.8,0,0,1-.3-1.1A.67.67,0,0,1,319.5,222.6Zm7.2,4.2a.6.6,0,0,1,.4.1l2.9,1.7a.81.81,0,0,1-.8,1.4l-2.9-1.7a.8.8,0,0,1-.3-1.1A.67.67,0,0,1,326.7,226.8Zm7.2,4.2a.6.6,0,0,1,.4.1l2.9,1.7a.81.81,0,0,1-.8,1.4l-2.9-1.7a.8.8,0,0,1-.3-1.1A.75.75,0,0,1,333.9,231Zm6.8,4.2a.67.67,0,0,1,.7.4.8.8,0,0,1-.3,1.1l-2.9,1.7a.81.81,0,1,1-.8-1.4l2.9-1.7A.6.6,0,0,1,340.7,235.2Zm-7.2,4.1a.84.84,0,0,1,.7.4.8.8,0,0,1-.3,1.1l-2.9,1.7a.81.81,0,0,1-.8-1.4l2.9-1.7C333.2,239.4,333.3,239.3,333.5,239.3Zm-7.3,4.2a.67.67,0,0,1,.7.4.8.8,0,0,1-.3,1.1l-2.9,1.7a.81.81,0,0,1-.8-1.4l2.9-1.7A.76.76,0,0,1,326.2,243.5Zm-7.2,4.1a.67.67,0,0,1,.7.4.8.8,0,0,1-.3,1.1l-2.9,1.7a.81.81,0,0,1-.8-1.4l2.9-1.7C318.7,247.7,318.9,247.6,319,247.6Zm-7.2,4.2a.67.67,0,0,1,.7.4.8.8,0,0,1-.3,1.1l-2.9,1.7a.81.81,0,0,1-.8-1.4l2.9-1.7C311.5,251.8,311.6,251.8,311.8,251.8Zm-7.3,4.2a.84.84,0,0,1,.7.4.8.8,0,0,1-.3,1.1l-2.9,1.7a.81.81,0,0,1-.8-1.4l2.9-1.7A.6.6,0,0,1,304.5,256Zm-7.2,4.1a.67.67,0,0,1,.7.4.8.8,0,0,1-.3,1.1l-2.9,1.7a.81.81,0,0,1-.8-1.4l2.9-1.7C297,260.2,297.2,260.1,297.3,260.1Zm-7.2,4.2a.84.84,0,0,1,.7.4.8.8,0,0,1-.3,1.1l-2.9,1.7a.81.81,0,0,1-.8-1.4l2.9-1.7C289.8,264.3,289.9,264.3,290.1,264.3Zm-7.3,4.2a.67.67,0,0,1,.7.4.8.8,0,0,1-.3,1.1l-2.9,1.7a.81.81,0,0,1-.8-1.4l2.9-1.7A.6.6,0,0,1,282.8,268.5Zm-7.2,4.1a.84.84,0,0,1,.7.4.8.8,0,0,1-.3,1.1l-2.9,1.7a.81.81,0,0,1-.8-1.4l2.9-1.7C275.3,272.7,275.4,272.6,275.6,272.6Zm-7.3,4.2a.67.67,0,0,1,.7.4.8.8,0,0,1-.3,1.1l-2.9,1.7a.81.81,0,0,1-.8-1.4l2.9-1.7A.76.76,0,0,1,268.3,276.8Zm-7.2,4.2a.84.84,0,0,1,.7.4.8.8,0,0,1-.3,1.1l-2.9,1.7a.81.81,0,0,1-.8-1.4l2.9-1.7A.6.6,0,0,1,261.1,281Z"/><polygon class="cls-2" points="154.6 126.7 154.6 214.5 141.9 221.8 141.9 134 154.6 126.7"/><polygon class="cls-2" points="154.6 126.7 141.9 134 91.2 104.8 103.9 97.4 154.6 126.7"/><polygon class="cls-3" points="103.9 100.2 96 104.8 144.3 132.6 144.3 220.4 152.2 215.8 152.2 128.1 152.2 128.1 103.9 100.2"/><polygon class="cls-4" points="141.9 134 141.9 221.8 91.2 192.5 91.2 104.8 141.9 134"/><polygon class="cls-3" points="103.9 126.7 103.9 141.3 129.3 156 129.3 141.3 103.9 126.7"/><polygon class="cls-3" points="103.9 156 103.9 159.6 129.3 174.2 129.3 170.6 103.9 156"/><polygon class="cls-3" points="103.9 166.9 103.9 170.6 129.3 185.2 129.3 181.5 103.9 166.9"/><polygon class="cls-3" points="103.9 177.9 103.9 181.6 129.3 196.2 129.3 192.5 103.9 177.9"/><polygon class="cls-5" points="141.9 134 141.9 221.8 129.3 229.1 129.3 141.3 141.9 134"/><polygon class="cls-6" points="141.9 134 129.3 141.3 78.6 112.1 91.3 104.7 141.9 134"/><polygon class="cls-3" points="91.3 107.5 83.3 112.1 131.7 139.9 131.7 227.7 139.6 223.1 139.6 135.4 139.6 135.4 91.3 107.5"/><polygon class="cls-5" points="129.3 141.3 129.3 229.1 78.6 199.8 78.6 112.1 129.3 141.3"/><polygon class="cls-3" points="91.3 134 91.3 148.6 116.6 163.3 116.6 148.6 91.3 134"/><polygon class="cls-3" points="91.3 163.3 91.3 166.9 116.6 181.5 116.6 177.9 91.3 163.3"/><polygon class="cls-3" points="91.3 174.2 91.3 177.9 116.6 192.5 116.6 188.8 91.3 174.2"/><polygon class="cls-3" points="91.3 185.2 91.3 188.9 116.6 203.5 116.6 199.8 91.3 185.2"/><polygon class="cls-7" points="129.3 141.3 129.3 229.1 116.7 236.4 116.7 148.6 129.3 141.3"/><polygon class="cls-7" points="129.3 141.3 116.7 148.6 66 119.4 78.6 112 129.3 141.3"/><polygon class="cls-3" points="78.6 114.8 70.7 119.4 119 147.2 119 235 126.9 230.4 126.9 142.7 126.9 142.7 78.6 114.8"/><polygon class="cls-8" points="116.7 148.6 116.7 236.4 66 207.1 66 119.4 116.7 148.6"/><polygon class="cls-9" points="78.7 141.3 78.7 155.9 104 170.6 104 155.9 78.7 141.3"/><polygon class="cls-9" points="78.7 170.5 78.7 174.2 104 188.8 104 185.2 78.7 170.5"/><polygon class="cls-9" points="78.7 181.5 78.7 185.2 104 199.8 104 196.1 78.7 181.5"/><polygon class="cls-9" points="78.7 192.5 78.7 196.2 104 210.8 104 207.1 78.7 192.5"/><polygon class="cls-9" points="116.7 236.4 154.6 214.5 154.6 126.7 116.7 148.6 116.7 236.4"/><path class="cls-10" d="M200.3,162.1h0v-6.4l4.6,2.3,8.1-4.7a10.8,10.8,0,0,1,9.6,0l81.5,47.1,4.6-2.3v6.4h0c.1,1.1-.5,2.2-2,3l-10.8,6.2a10.8,10.8,0,0,1-9.6,0l-84.2-48.6C200.9,164.2,200.2,163.2,200.3,162.1Z"/><path class="cls-11" d="M304.1,200.4l4.6-2.3v6.4h0c.1,1.1-.5,2.2-2,3l-10.8,6.2a10.07,10.07,0,0,1-4.6,1.1V193Z"/><path class="cls-12" d="M296,206.9a10.8,10.8,0,0,1-9.6,0l-84.2-48.6c-2.6-1.5-2.6-4,0-5.5l10.8-6.2a10.8,10.8,0,0,1,9.6,0l84.2,48.6c2.6,1.5,2.6,4,0,5.5Z"/><path class="cls-11" d="M173.2,3.4,178.7.3a.52.52,0,0,1,.4-.2h0a2.54,2.54,0,0,1,2,.3L339.5,91.9a6.9,6.9,0,0,1,3.1,5.3V218.9a2,2,0,0,1-.9,2c-.1,0-.2.1-.3.1l-5.5,3.1-1.1-5.9,1.6.7L181,129.2a6.9,6.9,0,0,1-3.1-5.3V6.8Z"/><path class="cls-12" d="M178.7.3a.52.52,0,0,1,.4-.2h0a2.54,2.54,0,0,1,2,.3L339.5,91.9a5.74,5.74,0,0,1,1.9,1.9L235.5,160.6,181,129.2a6.9,6.9,0,0,1-3.1-5.3V6.8l-4.8-3.3Z"/><path class="cls-11" d="M172.2,127.1a6.74,6.74,0,0,0,3.1,5.3l158.4,91.5c1.7,1,3.1.2,3.1-1.8V100.4a6.74,6.74,0,0,0-3.1-5.3L175.3,3.6c-1.7-1-3.1-.2-3.1,1.8Z"/><polygon class="cls-13" points="175.2 118.2 333.8 209.7 333.8 100.2 175.2 8.7 175.2 118.2"/><polygon class="cls-14" points="176.8 9.6 176.8 117 333.8 207.6 333.8 209.7 175.2 118.2 175.2 8.7 176.8 9.6"/><polygon class="cls-15" points="247.4 72.2 295.2 99.8 295.2 97.1 247.4 69.5 247.4 72.2"/><polygon class="cls-15" points="247.4 77.1 322 120.2 322 117.4 247.4 74.4 247.4 77.1"/><polygon class="cls-15" points="247.4 82 322 125 322 122.3 247.4 79.3 247.4 82"/><polygon class="cls-15" points="247.4 86.9 322 129.9 322 127.2 247.4 84.2 247.4 86.9"/><polygon class="cls-15" points="247.4 91.8 322 134.8 322 132.1 247.4 89 247.4 91.8"/><polygon class="cls-15" points="247.4 96.7 322 139.7 322 137 247.4 93.9 247.4 96.7"/><polygon class="cls-15" points="247.4 106.4 295.2 134 295.2 131.3 247.4 103.7 247.4 106.4"/><polygon class="cls-15" points="247.4 111.3 322 154.4 322 151.6 247.4 108.6 247.4 111.3"/><polygon class="cls-15" points="247.4 116.2 322 159.2 322 156.5 247.4 113.5 247.4 116.2"/><polygon class="cls-15" points="247.4 121.1 322 164.1 322 161.4 247.4 118.4 247.4 121.1"/><polygon class="cls-15" points="247.4 126 322 169 322 166.3 247.4 123.2 247.4 126"/><polygon class="cls-15" points="286.2 153.3 322 173.9 322 171.2 286.2 150.5 286.2 153.3"/><path class="cls-16" d="M.5,141l3.2-1.8c.1-.1.1-.1.2-.1h0a1.17,1.17,0,0,1,1.1.2l91.4,52.8a3.89,3.89,0,0,1,1.8,3.1v70.2c0,.6-.2,1-.5,1.1a.1.1,0,0,0-.1.1l-3.2,1.8-.7-3.4.9.4L5,213.5a3.89,3.89,0,0,1-1.8-3.1V142.9Z"/><path class="cls-12" d="M3.7,139.2c.1-.1.1-.1.2-.1h0a1.17,1.17,0,0,1,1.1.2l91.4,52.8a2.89,2.89,0,0,1,1.1,1.1L36.4,231.7,5,213.5a3.89,3.89,0,0,1-1.8-3.1V142.9L.4,141Z"/><path class="cls-11" d="M0,212.3a4,4,0,0,0,1.8,3.1l91.4,52.8c1,.6,1.8.1,1.8-1V197a4,4,0,0,0-1.8-3.1L1.8,141.1c-1-.6-1.8-.1-1.8,1Z"/><polygon class="cls-17" points="1.7 207.2 93.2 260 93.2 196.8 1.7 144 1.7 207.2"/><polygon class="cls-15" points="9.9 164.9 37.6 180.8 37.6 179.3 9.9 163.3 9.9 164.9"/><polygon class="cls-15" points="9.9 167.7 53.1 192.7 53.1 191.1 9.9 166.1 9.9 167.7"/><polygon class="cls-15" points="9.9 170.5 53.1 195.5 53.1 193.9 9.9 168.9 9.9 170.5"/><polygon class="cls-15" points="9.9 173.4 53.1 198.3 53.1 196.7 9.9 171.8 9.9 173.4"/><polygon class="cls-15" points="9.9 176.2 53.1 201.2 53.1 199.6 9.9 174.6 9.9 176.2"/><polygon class="cls-15" points="9.9 179 53.1 204 53.1 202.4 9.9 177.4 9.9 179"/><polygon class="cls-15" points="9.9 184.7 37.6 200.7 37.6 199.1 9.9 183.1 9.9 184.7"/><polygon class="cls-15" points="9.9 187.5 53.1 212.5 53.1 210.9 9.9 185.9 9.9 187.5"/><polygon class="cls-15" points="9.9 190.4 53.1 215.3 53.1 213.7 9.9 188.8 9.9 190.4"/><polygon class="cls-15" points="9.9 193.2 53.1 218.2 53.1 216.6 9.9 191.6 9.9 193.2"/><polygon class="cls-15" points="9.9 196 53.1 221 53.1 219.4 9.9 194.4 9.9 196"/><polygon class="cls-15" points="32.4 211.9 53.1 223.8 53.1 222.2 32.4 210.3 32.4 211.9"/><polygon class="cls-14" points="2.6 144.5 2.6 206.5 93.2 258.8 93.2 260 1.7 207.2 1.7 144 2.6 144.5"/><path class="cls-18" d="M282.9,270.6l-49.6-37.3a9.76,9.76,0,0,0-9.1,0L156,272.7c-2.5,1.5-2.5,3.8,0,5.3l49.6,37.3Z"/><path class="cls-19" d="M224.3,233.3l-77.8,49.6c-2.5,1.5-2.5,3.8,0,5.3l59.2,27.1"/><path class="cls-20" d="M282.9,270.6l-49.6-37.3a9.76,9.76,0,0,0-9.1,0L156,272.7c-2.5,1.5-2.5,3.8,0,5.3l49.6,37.3Z"/><path class="cls-19" d="M282.9,270.6l65.5,35.7c2.5,1.5,2.5,3.8,0,5.3L280.2,351a9.76,9.76,0,0,1-9.1,0l-65.5-35.7Z"/><path class="cls-1" d="M282.9,270.6l64.6,28.6c2.5,1.5,2.5,3.8,0,5.3l-68.2,39.4a9.76,9.76,0,0,1-9.1,0l-64.6-28.6Z"/><path class="cls-8" d="M282.9,268.3,233.3,231a9.76,9.76,0,0,0-9.1,0L156,270.4c-2.5,1.5-2.5,3.8,0,5.3L205.6,313Z"/><path class="cls-8" d="M282.9,268.3l64.6,28.6c2.5,1.5,2.5,3.8,0,5.3l-68.2,39.3a9.76,9.76,0,0,1-9.1,0l-64.6-28.6Z"/><path class="cls-21" d="M282.9,268.3l-41.7-40.5a10,10,0,0,0-8.9.1l-68.2,39.4c-2.5,1.5-2.6,3.7-.2,5.1l41.7,40.5Z"/><path class="cls-22" d="M282.9,268.3l61.6,17.5c2.4,1.4,2.3,3.7-.2,5.1l-68.2,39.4a9.65,9.65,0,0,1-8.9.1l-61.6-17.5Z"/><path class="cls-14" d="M282.9,268.3l-33.5-40.6c-2.2-1.3-6-1.1-8.6.3l-68.2,39.4c-2.5,1.5-2.8,3.7-.6,4.9l33.5,40.6Z"/><path class="cls-23" d="M282.9,268.3l57.6,6.5c2.2,1.3,2,3.5-.6,4.9L271.8,319a9.36,9.36,0,0,1-8.6.3l-57.6-6.5Z"/><polygon class="cls-24" points="196.4 322.2 196.9 319.7 193.1 319.3 283.3 267.8 289.3 269 196.4 322.2"/></g></svg>