<svg id="Layer_1" data-name="Layer 1" xmlns="http://www.w3.org/2000/svg" viewBox="0 0 496 496"><title>emajor-degree-icon</title><path d="M32,32H48V48H32Z"/><path d="M64,32H80V48H64Z"/><path d="M96,32h16V48H96Z"/><path d="M64,448H80v16H64Z"/><path d="M96,448H208v16H96Z"/><path d="M224,448h16v16H224Z"/><path d="M256,448h16v16H256Z"/><path d="M256,416h16v16H256Z"/><path d="M256,384h16v16H256Z"/><path d="M224,416h16v16H224Z"/><path d="M224,384h16v16H224Z"/><path d="M192,416h16v16H192Z"/><path d="M192,384h16v16H192Z"/><path d="M160,416h16v16H160Z"/><path d="M160,384h16v16H160Z"/><path d="M128,416h16v16H128Z"/><path d="M128,384h16v16H128Z"/><path d="M96,416h16v16H96Z"/><path d="M96,384h16v16H96Z"/><path d="M118.67,149.29c-37.84,0-44.39,35.25-44.39,35.25l6.2,2.81,7.29,1.08s5.8-25.44,30.82-24.89c25.84.61,29.87,25.09,29.87,25.09l7.57-1.23,5.93-2.27S154.89,149.29,118.67,149.29Z" fill="#09475f"/><path d="M73.26,195.31l7.84,3.2L88.49,201s3.48,22.85,30.75,24a31.21,31.21,0,0,0,24.34-13.78s1.23,1.23,6.48,2.73,7.57,1.14,7.57,1.14-10.7,23.73-41,23.73C74.69,235.08,73.26,195.31,73.26,195.31Z" fill="#09475f"/><path d="M59.69,179.22v10s27.75,16.28,60.56,16.28S179,189,179,189l-.07-10.09s-28.07,12.82-59.71,12.75S59.69,179.22,59.69,179.22Z" fill="#3da3b1"/><path d="M64,416H80v16H64Z"/><path d="M64,384H80v16H64Z"/><path d="M472,208H456v-8a24,24,0,0,0-24-24V0H0V320H432V256a24,24,0,0,0,24-24v-8h16a8,8,0,0,1,8,8v96a8,8,0,0,1-8,8H392a24,24,0,0,0,0,48h48a8,8,0,0,1,8,8v16a8,8,0,0,1-8,8H336a16,16,0,0,0-16-16H304V376a24,24,0,0,0-24-24H56a24,24,0,0,0-24,24v96a24,24,0,0,0,24,24H280a24,24,0,0,0,24-24V448h16a16,16,0,0,0,16-16H440a24,24,0,0,0,24-24V392a24,24,0,0,0-24-24H392a8,8,0,0,1,0-16h80a24,24,0,0,0,24-24V232A24,24,0,0,0,472,208ZM416,16V64H16V16Zm0,288H16V80H416v96H222.11L208,183.05V96H32V288H208V248.95L222.11,256H416ZM232,240V224H392v16Zm-40-48.95L142.11,216,192,240.95V272H48V112H192ZM177.89,216,216,196.95v38.11ZM392,208H232V192H392Zm48,24a8,8,0,0,1-8,8H408V192h24a8,8,0,0,1,8,8ZM288,472a8,8,0,0,1-8,8H56a8,8,0,0,1-8-8V376a8,8,0,0,1,8-8H280a8,8,0,0,1,8,8Zm32-40H304V416h16Z"/><rect x="224" y="96" width="176" height="48" fill="#ca202a"/><path d="M224,96h16v16H224Z"/><path d="M256,96H400v16H256Z"/><path d="M224,128H400v16H224Z"/></svg>