<svg id="Layer_1" data-name="Layer 1" xmlns="http://www.w3.org/2000/svg" viewBox="0 0 496 495.9"><title>online-learning</title><path d="M322.4,328.54a103.86,103.86,0,0,1-139.2,8.64l1.6-2.56a51.28,51.28,0,0,1,42.56-22.72,17.54,17.54,0,0,0,16.64-12,17.54,17.54,0,0,1,16.64-12h1.84A17.51,17.51,0,0,1,280,305.42a14.48,14.48,0,0,0,14.48,14.48A49.47,49.47,0,0,1,322.4,328.54Z" transform="translate(0 0)" fill="#ca202a"/><path d="M352,255.9a103.53,103.53,0,0,1-5,32h-8a27,27,0,0,1-27-27,27,27,0,0,0-20.4-26.16l-6.16-1.52a49.5,49.5,0,0,1-35.28-33.36c33.76-.4,58.56-9.44,72.56-16.32A103.52,103.52,0,0,1,352,255.9Z" transform="translate(0 0)" fill="#ca202a"/><path d="M224,253.26a26.68,26.68,0,0,1-48,16,53.1,53.1,0,0,0-31.68-20.16h-.08A102.33,102.33,0,0,1,152,215.9h13.36a80,80,0,0,1,48,16A26.68,26.68,0,0,1,224,253.26Z" transform="translate(0 0)" fill="#ca202a"/><path d="M376,263.9h88v96H376Z" transform="translate(0 0)" fill="#ca202a"/><path d="M32,183.9h88v160H32Z" transform="translate(0 0)" fill="#ca202a"/><path d="M456,111.9H408v-16a24,24,0,0,0-24-24h-9.73A21.66,21.66,0,0,0,365,61L266.91,4.93a38.79,38.79,0,0,0-37.83,0L131,61a21.78,21.78,0,0,0,0,37.82l21,12v1.07H40a40,40,0,0,0-40,40v256a40,40,0,0,0,40,40H144v32H112v16H384v-16H352v-32H456a40,40,0,0,0,40-40v-256A40,40,0,0,0,456,111.9Zm-58,48H402l14,49a16,16,0,0,1-31.93,0Zm-262-80a5.8,5.8,0,0,1,2.91-5L237,18.81a22.16,22.16,0,0,1,22,0l92.9,53.09H248v16H351.88L259,141a22.48,22.48,0,0,1-22,0L138.91,84.93A5.81,5.81,0,0,1,136,79.9Zm112,128c32.3,0,56.94-7.61,72.7-14.54a96,96,0,1,1-145.39,0C191.06,200.29,215.7,207.9,248,207.9Zm80-36.32c-9.14,5.57-37.34,20.32-80,20.32s-70.89-14.75-80-20.31V120l61.09,34.91a38.1,38.1,0,0,0,37.82,0L328,120ZM40,127.9H152v52l3.2,2.4c.3.23,2.2,1.6,5.43,3.55a112,112,0,1,0,174.73,0c3.23-1.95,5.13-3.32,5.43-3.55l3.2-2.4V110.83l21-12a21.59,21.59,0,0,0,9.25-10.91H384a8,8,0,0,1,8,8v48h-6l-17.66,61.8-.31,2.2a32,32,0,1,0,64,0l-18-64h-6v-16h48a24,24,0,0,1,24,24v232H138.43l-24-16H16v-216A24,24,0,0,1,40,127.9Zm416,304H336v48H160v-32H320v-16H40a24,24,0,0,1-24-24v-24h93.57l24,16H480v8A24,24,0,0,1,456,431.9Z" transform="translate(0 0)"/><path d="M96,399.9h16v16H96Z" transform="translate(0 0)"/><path d="M64,399.9H80v16H64Z" transform="translate(0 0)"/><path d="M32,399.9H48v16H32Z" transform="translate(0 0)"/><path d="M32,335.9h88v16H32Z" transform="translate(0 0)"/><path d="M32,303.9h88v16H32Z" transform="translate(0 0)"/><path d="M32,271.9h88v16H32Z" transform="translate(0 0)"/><path d="M32,239.9h88v16H32Z" transform="translate(0 0)"/><path d="M32,207.9h88v16H32Z" transform="translate(0 0)"/><path d="M32,175.9h88v16H32Z" transform="translate(0 0)"/><path d="M376,351.9h88v16H376Z" transform="translate(0 0)"/><path d="M376,319.9h88v16H376Z" transform="translate(0 0)"/><path d="M376,287.9h88v16H376Z" transform="translate(0 0)"/><path d="M376,255.9h88v16H376Z" transform="translate(0 0)"/></svg>