<svg id="Layer_1" data-name="Layer 1" xmlns="http://www.w3.org/2000/svg" viewBox="0 0 210.05 157.72"><title>emajor-icon</title><path d="M103.82,0C37.21,0,25.69,62.05,25.69,62.05L36.61,67,49.45,68.9s10.2-44.77,54.25-43.81c45.49,1.08,52.57,44.17,52.57,44.17L169.6,67.1l10.44-4S167.56,0,103.82,0Z" fill="#09475f"/><path d="M23.89,81l13.8,5.64,13,4.44s6.12,40.21,54.13,42.25a54.94,54.94,0,0,0,42.85-24.25s2.16,2.16,11.4,4.8,13.32,2,13.32,2-18.84,41.77-72.14,41.77C26.41,151,23.89,81,23.89,81Z" fill="#09475f"/><path d="M0,52.69V70.34S48.85,99,106.59,99,210,69.86,210,69.86l-.12-17.76S160.48,74.66,104.78,74.54,0,52.69,0,52.69Z" fill="#3da3b1"/></svg>