<svg id="Capa_1" data-name="Capa 1" xmlns="http://www.w3.org/2000/svg" viewBox="0 0 464.85 448"><title>knowledge-icon</title><path d="M283.86,280.93a109.94,109.94,0,0,0,68.56-103.5c0-62.31-53.83-113-120-113s-120,50.69-120,113A109.94,109.94,0,0,0,181,280.93l.93.5,6.35,10.42a23.73,23.73,0,0,0-5.6,36.58,23.9,23.9,0,0,0,17.76,40h64a23.9,23.9,0,0,0,17.76-40,23.73,23.73,0,0,0-5.6-36.58l6.35-10.42Zm-19.44,71.5h-64a8,8,0,0,1,0-16h64a8,8,0,0,1,0,16Zm0-32h-64a8,8,0,0,1,0-16h64a8,8,0,0,1,0,16Zm12.18-53.77-3.2,1.74a8,8,0,0,0-3,2.87l-10.46,17.16h-3.51V227.75l37.66-37.66-11.31-11.31-40,40a8,8,0,0,0-2.34,5.66v64h-16v-64a8,8,0,0,0-2.34-5.66l-40-40-11.31,11.31,37.66,37.66v60.69h-3.51l-10.46-17.16a8,8,0,0,0-3-2.87l-3.2-1.74a8.59,8.59,0,0,0-.79-.37,94.2,94.2,0,0,1-59-88.86c0-53.48,46.65-97,104-97s104,43.52,104,97a94.2,94.2,0,0,1-59,88.86C277.12,266.4,276.85,266.53,276.6,266.67Z" transform="translate(0 -8.44)" fill="#fff"/><rect x="80.41" y="57.61" width="16" height="53.66" transform="translate(-26.64 117.32) rotate(-63.43)" fill="#fff"/><rect x="348.09" y="76.43" width="53.66" height="16" transform="translate(-7.45 114.53) rotate(-18.45)" fill="#fff"/><rect x="32.42" y="160" width="48" height="16" fill="#fff"/><rect x="384.42" y="160" width="48" height="16" fill="#fff"/><rect x="61.58" y="276.43" width="53.66" height="16" transform="translate(-117.86 61.13) rotate(-26.57)" fill="#fff"/><rect x="368.41" y="257.62" width="16" height="53.66" transform="translate(-46.34 485.48) rotate(-63.43)" fill="#fff"/><rect x="224.42" width="16" height="40" fill="#fff"/><path d="M464.42,384.43v-16c-104.37,0-215.28,25.23-216,72h-32c-.71-46.77-111.63-72-216-72v16c117.2,0,199,29.41,200,56H.42v16h464v-16h-200C265.38,413.85,347.22,384.43,464.42,384.43Z" transform="translate(0 -8.44)" fill="#fff"/><rect x="68.43" y="344.33" width="16" height="152.24" transform="translate(-347.45 466.22) rotate(-86.98)" fill="#fff"/><rect x="312.29" y="412.44" width="152.24" height="16" transform="translate(-21.61 12.62) rotate(-3.02)" fill="#fff"/></svg>