<svg id="Layer_1" data-name="Layer 1" xmlns="http://www.w3.org/2000/svg" viewBox="0 0 480 479.58"><title>book</title><path d="M424,303.59a8,8,0,0,0,0-16H400a16,16,0,0,0-16,16v16a16,16,0,0,0,16,16h24a8,8,0,0,0,0-16H400v-16Z" transform="translate(0 0)" fill="#fff"/><path d="M288,407.59v16a8,8,0,0,0,16,0v-16a8,8,0,0,0-16,0Z" transform="translate(0 0)" fill="#fff"/><path d="M320,391.59v48a8,8,0,0,0,16,0v-48a8,8,0,0,0-16,0Z" transform="translate(0 0)" fill="#fff"/><path d="M360,391.59v48a8,8,0,0,0,16,0v-48a8,8,0,0,0-16,0Z" transform="translate(0 0)" fill="#fff"/><path d="M72,399.59a8,8,0,0,0,0-16,24,24,0,0,0-24,24v16a24,24,0,0,0,24,24h64a24,24,0,0,0,24-24v-16a24,24,0,0,0-24-24,8,8,0,0,0,0,16,8,8,0,0,1,8,8v16a8,8,0,0,1-8,8H72a8,8,0,0,1-8-8v-16A8,8,0,0,1,72,399.59Z" transform="translate(0 0)" fill="#fff"/><path d="M256,391.59v48a8,8,0,0,0,16,0v-48a8,8,0,0,0-16,0Z" transform="translate(0 0)" fill="#fff"/><path d="M448,255.59H405.34a39.91,39.91,0,0,0,2.66-14.1v-89.9a8,8,0,0,0-16,0v89.9a23.74,23.74,0,0,1-6.4,16.3l-.3.28a23.83,23.83,0,0,1-8.21,5.51L267,308.06a71.81,71.81,0,0,1-54,0l-110.1-44.47A23.73,23.73,0,0,1,88,241.49V125.43l56,19v63.2a8,8,0,0,0,16,0V149.83l74.5,25.26a17.1,17.1,0,0,0,11,0L336,144.39V209a24,24,0,1,0,16,0V139L468.9,99.35a15.88,15.88,0,0,0-.5-30.4L245,.75a17.06,17.06,0,0,0-10,0L11.6,68.92a15.88,15.88,0,0,0-.5,30.4L72,120V241.49a39.83,39.83,0,0,0,2.66,14.1H71.74A23.77,23.77,0,0,0,48,279.33v24.26a8,8,0,0,0,16,0V279.33a7.76,7.76,0,0,1,7.74-7.74H85.8a39.68,39.68,0,0,0,11.12,6.84L207,322.9a87.68,87.68,0,0,0,66,0l63-25.45v30.14a8,8,0,0,0,16,0v-32a7.73,7.73,0,0,0-1.28-4.08l32.36-13.07a40.08,40.08,0,0,0,11.13-6.85H448a16,16,0,0,1,16,16v48a16,16,0,0,1-16,16H40a40,40,0,0,0-40,40v48a40,40,0,0,0,40,40H392a8,8,0,0,0,0-16H40a24,24,0,0,1-24-24v-48a24,24,0,0,1,24-24H448a32,32,0,0,0,32-32v-48A32,32,0,0,0,448,255.59Zm-104-16a8,8,0,1,1,8-8A8,8,0,0,1,344,239.59ZM240.34,16.05,463.76,84.19,342.07,125.46,243.79,72.54a8,8,0,0,0-7.59,14.1l85.14,45.85-81,27.46a1.08,1.08,0,0,1-.7,0L16.27,84.22Z" transform="translate(0 0)" fill="#fff"/><path d="M104,327.59v-24a8,8,0,0,0-16,0v24a8,8,0,0,0,16,0Z" transform="translate(0 0)" fill="#fff"/></svg>