<svg id="Layer_1" data-name="Layer 1" xmlns="http://www.w3.org/2000/svg" viewBox="0 0 512 512"><title>clock</title><path d="M437,75A256,256,0,0,0,75,437,256,256,0,0,0,437,75ZM256,491.6C126.09,491.6,20.4,385.91,20.4,256S126.09,20.4,256,20.4,491.6,126.09,491.6,256,385.91,491.6,256,491.6Z" fill="#fff"/><path d="M256,40.2C137,40.2,40.2,137,40.2,256S137,471.8,256,471.8,471.8,375,471.8,256,375,40.2,256,40.2ZM430.07,344.72l-29.41-17a10.2,10.2,0,0,0-10.2,17.67l29.38,17a197,197,0,0,1-57.47,57.47l-17-29.38a10.2,10.2,0,1,0-17.67,10.2l17,29.41a194,194,0,0,1-78.52,21.07v-34a10.2,10.2,0,0,0-20.4,0v34a194,194,0,0,1-78.52-21.07l17-29.41a10.2,10.2,0,0,0-17.67-10.2l-17,29.38a197,197,0,0,1-57.47-57.47l29.38-17a10.2,10.2,0,0,0-10.2-17.67l-29.42,17A194,194,0,0,1,60.86,266.2h34a10.2,10.2,0,0,0,0-20.4h-34a194,194,0,0,1,21.06-78.52l29.41,17a10.2,10.2,0,1,0,10.2-17.67l-29.38-17a197,197,0,0,1,57.47-57.47l17,29.38a10.2,10.2,0,0,0,17.66-10.2l-17-29.41A194,194,0,0,1,245.8,60.86v34a10.2,10.2,0,0,0,20.4,0v-34a194,194,0,0,1,78.52,21.06l-17,29.41a10.2,10.2,0,1,0,17.67,10.2l17-29.38a197,197,0,0,1,57.47,57.47l-29.38,17a10.2,10.2,0,1,0,10.2,17.67l29.41-17a194,194,0,0,1,21.07,78.52h-34a10.2,10.2,0,1,0,0,20.4h34A194,194,0,0,1,430.07,344.72Z" fill="#fff"/><path d="M266.2,227.6V162.17a10.2,10.2,0,0,0-20.4,0V227.6A30.14,30.14,0,0,0,233,275.47l-16.19,28a10.2,10.2,0,1,0,17.66,10.2l16.18-28A30.17,30.17,0,0,0,266.2,227.6ZM256,265.77a9.77,9.77,0,1,1,9.77-9.77A9.79,9.79,0,0,1,256,265.77Z" fill="#fff"/><path d="M256,118.31a10.2,10.2,0,0,0-10.2,10.2v4.08a10.2,10.2,0,1,0,20.4,0v-4.08A10.2,10.2,0,0,0,256,118.31Z" fill="#fff"/></svg>