<svg data-name="Layer 1" xmlns="http://www.w3.org/2000/svg" viewBox="0 0 512 482.22"><path d="M68.93 246.8H7.61A7.6 7.6 0 0 0 0 254.4v220.21a7.61 7.61 0 0 0 7.61 7.61h61.32a7.61 7.61 0 0 0 7.61-7.61v-69.49a7.605 7.605 0 0 0-15.21 0V467H15.21V262h46.11v117.77a7.605 7.605 0 1 0 15.21 0V254.4a7.6 7.6 0 0 0-7.6-7.6zm108.86 70.76h-61.32a7.6 7.6 0 0 0-7.61 7.6v149.45a7.61 7.61 0 0 0 7.61 7.61h61.32a7.6 7.6 0 0 0 7.61-7.61V325.16a7.6 7.6 0 0 0-7.61-7.6zM170.19 467h-46.12V332.77h46.12zm116.47-267.37h-61.32a7.6 7.6 0 0 0-7.61 7.6v267.38a7.61 7.61 0 0 0 7.61 7.61h61.32a7.6 7.6 0 0 0 7.6-7.61V207.23a7.6 7.6 0 0 0-7.6-7.6zM279.06 467h-46.12V214.83h46.12zm116.47-232h-61.32a7.6 7.6 0 0 0-7.61 7.6v232a7.61 7.61 0 0 0 7.61 7.61h61.32a7.6 7.6 0 0 0 7.6-7.61v-232a7.6 7.6 0 0 0-7.6-7.6zm-7.61 232h-46.11V250.21h46.12zm116.47-338.14h-61.32a7.6 7.6 0 0 0-7.61 7.6v100.36a7.605 7.605 0 1 0 15.21 0v-92.75h46.12V467h-46.11V262.17a7.605 7.605 0 1 0-15.21 0v212.44a7.61 7.61 0 0 0 7.61 7.61h61.32a7.61 7.61 0 0 0 7.61-7.61V136.46a7.6 7.6 0 0 0-7.62-7.6z" fill="#fff"/><path d="M452.2 69.88A38.35 38.35 0 1 0 441.59 59l-55.19 53.8a38.21 38.21 0 0 0-54.83 12.79L294 113.39a38.26 38.26 0 1 0-69 18l-58 62.85a38.19 38.19 0 0 0-47.12 5.91l-46-29.9A38.36 38.36 0 1 0 65.55 183l46 29.9a38.27 38.27 0 1 0 66.59-8.32l58-62.85a38.22 38.22 0 0 0 53.14-13.89L326.86 140A38.27 38.27 0 1 0 397 123.7zM38.27 179.26a23.06 23.06 0 1 1 23.05-23.06 23.08 23.08 0 0 1-23.05 23.06zM147.13 250a23.06 23.06 0 1 1 23.06-23 23.08 23.08 0 0 1-23.06 23zM256 132.09A23.06 23.06 0 1 1 279.06 109 23.08 23.08 0 0 1 256 132.09zM473.73 15.21a23.06 23.06 0 1 1-23.06 23.06 23.08 23.08 0 0 1 23.06-23.06zM364.87 167.46a23.06 23.06 0 1 1 23.06-23.05 23.08 23.08 0 0 1-23.06 23.05z" fill="#fff"/></svg>