<svg id="Layer_1" data-name="Layer 1" xmlns="http://www.w3.org/2000/svg" viewBox="0 0 96.61 120"><defs><style>.cls-1{fill:#fff;}.cls-2{fill:#006834;}</style></defs><title>abraham-baldwin-agricultural-college_icon</title><g id="Logo_Crest_Green" data-name="Logo Crest Green"><path id="Crest_BG" data-name="Crest BG" class="cls-1" d="M91.36,52.45a73.73,73.73,0,0,1-2.81,20.36,53.09,53.09,0,0,1-3.63,9.43A47.23,47.23,0,0,1,77.58,92a90.38,90.38,0,0,1-9.7,9.06c-.86.7-1.74,1.38-2.64,2.06a97.79,97.79,0,0,1-8.44,5.66l-8.51,5.06h0l-3.19-1.9-5.33-3.19A95.49,95.49,0,0,1,31.34,103c-.9-.67-1.79-1.36-2.65-2A91.33,91.33,0,0,1,19,91.92l-1.23-1.37a49.87,49.87,0,0,1-5.06-6.61c-.37-.59-.71-1.18-1-1.69a8.06,8.06,0,0,1-.47-1c-.38-.77-.75-1.57-1.11-2.41-.24-.59-.47-1.19-.71-1.82-.49-1.34-.94-2.72-1.38-4.22s-.78-2.88-1.1-4.35a72.91,72.91,0,0,1-1.31-8.18c-.07-.83-.13-1.7-.19-2.6-.11-1.73-.17-3.48-.18-5.24h0V5.21H91.36Z"/><path id="Crest" class="cls-2" d="M0,0V52.45A78.89,78.89,0,0,0,3,74.21,57.17,57.17,0,0,0,7,84.6a52.16,52.16,0,0,0,8.16,10.93A99,99,0,0,0,37.1,113.25L48.32,120l11.22-6.75A99,99,0,0,0,81.46,95.53a52.6,52.6,0,0,0,8.08-10.86,57.74,57.74,0,0,0,4-10.46,78.89,78.89,0,0,0,3-21.76V0ZM91.36,52.45a73.73,73.73,0,0,1-2.81,20.36,53.09,53.09,0,0,1-3.63,9.43A47.23,47.23,0,0,1,77.58,92a90.38,90.38,0,0,1-9.7,9.06c-.86.7-1.74,1.38-2.64,2.06a97.79,97.79,0,0,1-8.44,5.66l-8.51,5.06h0l-3.19-1.9-5.33-3.19A95.49,95.49,0,0,1,31.34,103c-.9-.67-1.79-1.36-2.65-2A91.33,91.33,0,0,1,19,91.92l-1.23-1.37a49.87,49.87,0,0,1-5.06-6.61c-.37-.59-.71-1.18-1-1.69a8.06,8.06,0,0,1-.47-1c-.38-.77-.75-1.57-1.11-2.41-.24-.59-.47-1.19-.71-1.82-.49-1.34-.94-2.72-1.38-4.22s-.78-2.88-1.1-4.35a72.91,72.91,0,0,1-1.31-8.18c-.07-.83-.13-1.7-.19-2.6-.11-1.73-.17-3.48-.18-5.24h0V5.21H91.36ZM57.63,47.66a1.36,1.36,0,0,0,.95,1.66l.16,0A1.39,1.39,0,0,0,60,48.93h.12a1.64,1.64,0,0,0,.35.52,1.91,1.91,0,0,0,.51.32l.34.12h.39c.1,0,.13.17,0,.24-4.47,2.29-9.21-.58-9.21-4.09a18.69,18.69,0,0,1,1-6,.32.32,0,0,1,.36-.23,6.58,6.58,0,0,1,5.44,6.41.08.08,0,0,1-.06.1h0a1.5,1.5,0,0,0-1.67,1.31h.07Zm8.08,24.26a2.54,2.54,0,0,1,.46,3.57,3,3,0,0,1-.39.41.35.35,0,0,1-.41,0c-1.38-1.2-2.07,2-2,3.23a.22.22,0,0,1-.22.22H63c-6.6-2.74-.47-9.72,2.61-7.42ZM48.35,73.35a.11.11,0,0,1,.14,0,.12.12,0,0,1,0,0,37.88,37.88,0,0,1,4.4,7.34,28.49,28.49,0,0,1,1.69,6,13.92,13.92,0,0,0,.64,3.13,6.51,6.51,0,0,0,1.85,2.52,10.25,10.25,0,0,0,5.77,1.92A8.19,8.19,0,0,0,66.16,94a6.74,6.74,0,0,0,3-2.22,13.87,13.87,0,0,0,1.3-1.93,17.38,17.38,0,0,1,.82-1.68A2.61,2.61,0,0,0,73,87.42a7.78,7.78,0,0,0,.66-1.86c.62-1.91,1.69-2.53,3.27-3.85A7.28,7.28,0,0,0,78.58,80a5.54,5.54,0,0,0,.27-4.49c-.46-1.48-1.2-2.85-1.69-4.33-.1-.37-.22-.81-.32-1.28a21.65,21.65,0,0,1,.41-11.81h0a29.55,29.55,0,0,0,2.63-10.27A19.15,19.15,0,0,1,81,46.16c2.41-3.37.56-6.31-.56-9.06a27.28,27.28,0,0,0-3-10.47c4.34-4.7,9-18,5.44-17.1-.75.18-5.06,4.1-8.94,5.35C72.14,13,70.35,11.5,65,11.35a.33.33,0,0,0-.36.3.34.34,0,0,0,.11.29,2.93,2.93,0,0,1,1,2.46,6.18,6.18,0,0,0-4.51-2s1-2.79-1.06-3.38a5.46,5.46,0,0,0-4.05,1.23,44.48,44.48,0,0,0-3.88,2.67c-4.45,1.06-9.56,3.07-14.4.72a.33.33,0,0,0-.44.13.3.3,0,0,0,0,.21,6.91,6.91,0,0,0,5,5.21.31.31,0,0,1,.22.37.29.29,0,0,1-.22.22C38.2,21.17,30.73,17.2,22.7,24.64a.32.32,0,0,0,0,.45.31.31,0,0,0,.3.11c1.42-.27,3.8-.46,4.71,1.13a.35.35,0,0,1-.13.48l-.09,0A23,23,0,0,0,11.37,41.57a.32.32,0,0,0,.16.43.32.32,0,0,0,.34,0,5.55,5.55,0,0,1,7.31,0,.19.19,0,0,1,0,.28h0A31,31,0,0,1,8.43,51v1.47A71.59,71.59,0,0,0,9.21,63c16-22.62,33.73-34.21,39.26-37.19a1.26,1.26,0,0,0,.64-1.27A12.87,12.87,0,0,1,54.59,13a19.16,19.16,0,0,1,5.06-2.9s-11,6.51-6.94,16.76c1.46-4.4,6.52-2.41,6.57-8.94m.16,0c1.56,6.55-3.51,6.22-3.75,10.39a1.06,1.06,0,0,1-.59.89,24.25,24.25,0,0,1-8.67,1.59.14.14,0,0,0-.09.19.15.15,0,0,0,.09.1,13.51,13.51,0,0,0,7,1.94.16.16,0,0,1,.2.09.14.14,0,0,1-.09.19,9.24,9.24,0,0,1-2.87,1.49.16.16,0,0,0-.11.21.2.2,0,0,0,.11.11c1.69.13,3.37,0,5,.22A12.3,12.3,0,0,1,60.14,37a10.82,10.82,0,0,1,3.29,3.24,16.92,16.92,0,0,1,2,5.77c.41,2,.83,3.88,1.17,5.84.72,4.16,1.31,8.43,1.85,12.54.22,1.79.46,4.09.64,6a.62.62,0,0,0,.69.55h.09l1.68-.44a1.21,1.21,0,0,0,.9-1.22C72.19,64,71,38.93,70.63,38.4c-.69-1.18-1.68-.79-1.53-4.15a11.47,11.47,0,0,1,1.65-5.58,25.4,25.4,0,0,1,2.89,5.45,4.36,4.36,0,0,1-.54,3.58,7.85,7.85,0,0,0-.7,4.11c-.11,2.92,2,28.45,2,28.45l1.82,2.89a.72.72,0,0,1-.17,1c-.77.59-2.21,1.68-2.92,1.53-1.53-.13-3-2.38-5.16-3.29a.22.22,0,0,0-.29.11.2.2,0,0,0,0,.2c1.4,3.22-1.07,8.14-4.78,8.43a.11.11,0,0,0-.06.15.11.11,0,0,0,.06.07,7.57,7.57,0,0,1,2.72,4.81.59.59,0,0,1-.47.69H65c-2.19-.29-5.06-1.22-5.83-2.33A7,7,0,0,1,58,82.64l.12.32c0-.15-.14-.32-.19-.47s0,.1,0,.15c-.94-2.46-.59-4.89-9.61-15v-.08A33.21,33.21,0,0,1,54,71.63s.17,0,.14-.1a42.48,42.48,0,0,0-3.51-7.44.16.16,0,0,0-.24,0h0a7.52,7.52,0,0,1-5.29,1.69c-11.22-1.42-10.49-19.11-2.89-29.43a.27.27,0,0,0,0-.37.28.28,0,0,0-.37,0c-10.5,9-23.71,27.12-23.9,49.92q1.47,1.84,3.38,3.9A90.36,90.36,0,0,0,41.39,106l6.9,4.11,5.44-3.25a56.55,56.55,0,0,1-5.44-33.55ZM75.1,16.39v-.11l.21-.11.59-.32.59-.33.6-.34.59-.37.59-.39.58-.39.55-.4.53-.41.47-.39.44-.38a7.37,7.37,0,0,1,.52-.54s0,.4-.1.6a3.86,3.86,0,0,0-.2.66l-.1.32c-.71,2.63-3.38,3.51-4.56,6h-.08a12.7,12.7,0,0,0-.64-2C75.51,17.14,75.17,16.55,75.1,16.39ZM57.53,86.71a.2.2,0,0,1,.39,0,5.93,5.93,0,0,0,4.67,3.62c1.69.39-.3,2.13-2.63,1.44a3.93,3.93,0,0,1-2.46-5Z"/></g></svg>