<svg id="Green" xmlns="http://www.w3.org/2000/svg" viewBox="0 0 297.79 71.11"><title>Abraham-Baldwin-Agricultural-College-COLOR</title><g id="Logo_Secondary_Green" data-name="Logo/Secondary/Green"><path id="Logotype_Secondary_Green" data-name="Logotype/Secondary/Green" d="M102.52,43.24h.23l.08.21,4,10.29.45,1.17a4,4,0,0,1,.56,1.65c0,.72-.58,1.22-1.56,1.32a20.06,20.06,0,0,1-2.65.09h0v5.2h22.79V58a9.48,9.48,0,0,1-4.09-.76h0a9.74,9.74,0,0,1-2.08-3.65l-8.26-21.71c-8-21-9.75-25.58-9.82-25.76a3.93,3.93,0,0,0-3.92-2.33,10.6,10.6,0,0,0-3.81.9c-3.07,1.32-4,3-4,3v0l0,0a20.67,20.67,0,0,0-2,4L71.52,53.17A9.08,9.08,0,0,1,69,57a6.39,6.39,0,0,1-4,1h-.48v5.2H82.7V58h-.93c-1,0-3.94,0-3.94-2a7.93,7.93,0,0,1,.75-2.84l3.6-9.64.08-.22h20.26ZM84.71,36.69,92.19,17l.31-.82.31.82,7.49,19.67.17.45H84.53Zm136.36,6.55h.23l.08.21,4,10.29.45,1.17a4,4,0,0,1,.56,1.65c0,.72-.58,1.22-1.56,1.32a20.06,20.06,0,0,1-2.65.09h0v5.2h22.79V58a9.48,9.48,0,0,1-4.09-.76h0a9.74,9.74,0,0,1-2.08-3.65l-8.26-21.71c-8-21-9.75-25.58-9.82-25.76a3.93,3.93,0,0,0-3.92-2.33,10.6,10.6,0,0,0-3.81.9c-3.07,1.32-4,3-4,3v0l0,0a20.67,20.67,0,0,0-2,4l-16.78,41.5A9.08,9.08,0,0,1,187.53,57a6.39,6.39,0,0,1-4,1h-.48v5.2h18.19V58h-.93c-1,0-3.94,0-3.94-2a7.93,7.93,0,0,1,.75-2.84l3.6-9.64.08-.22h20.26Zm-17.82-6.55L210.74,17l.31-.82.31.82,7.49,19.67.17.45H203.08ZM167.53,62.82a23.62,23.62,0,0,0,7.74-2.67c5.71-3.21,8.49-7.87,8.49-14.24,0-7.38-4.93-13-13.19-15l-.94-.23.89-.4c4.29-1.93,7.15-4.27,8.5-7a12.09,12.09,0,0,0,1.32-5.45c0-5.32-2.79-9.35-8.29-12-3.08-1.5-7.31-2.22-12.94-2.22H129.38v5.2h.93a13.54,13.54,0,0,1,4,.38c1.23.41,1.85,1.61,1.85,3.56V54.13c0,1.69-.38,2.73-1.16,3.18s-2.28.68-4.68.68h-.93v5.2h29.89A60.81,60.81,0,0,0,167.53,62.82Zm-19.32-50c0-2.18.23-3.19.81-3.45.85-.55,2.81-.76,6.93-.76a11.14,11.14,0,0,1,8,2.89,9.22,9.22,0,0,1,3.17,7.28c0,6.11-5.24,9.9-13.69,9.9a22.46,22.46,0,0,1-4.37-.27.79.79,0,0,1-.55-.19c-.28-.28-.28-.79-.28-2Zm.66,44.48c-.47-.29-.57-1.08-.57-2.16L148.2,36.9a16.17,16.17,0,0,1,.09-2.21l0-.17.16-.08.36-.18.05,0H149c.8-.09,2.69-.18,5.63-.18a24.29,24.29,0,0,1,7.5.92,11.24,11.24,0,0,1,4.18,2.42A10.66,10.66,0,0,1,170,45.65a10.84,10.84,0,0,1-4.28,9c-2.71,2.26-6.46,3.41-11.12,3.41C151,58.07,149.42,57.85,148.87,57.28ZM289.23,5.93a3.18,3.18,0,0,0,.83.17h0a.57.57,0,0,0,.46-.22.77.77,0,0,0,.12-.5,3.13,3.13,0,0,0-.19-.85l4.85-.4,2.49,14.27-5.07.91a19.17,19.17,0,0,0-7.28-8.68,18.94,18.94,0,0,0-10.33-2.93h-.79c-7.93.28-13.55,4-16.71,11a34.24,34.24,0,0,0-3.1,15.79A27.31,27.31,0,0,0,261.26,52c4,4.53,8.89,6.83,14.43,6.83h.7a16.52,16.52,0,0,0,15.53-11.59v-.06a8.66,8.66,0,0,1,.6-1.94l5.17,1.12L296.95,57a36.81,36.81,0,0,1-21,7.18l-1.54,0A33.21,33.21,0,0,1,251.77,56c-6.48-5.7-9.93-13.21-10.25-22.33a29.11,29.11,0,0,1,8.08-21.8c5.8-6,12.94-9.12,21.83-9.43l1.52,0A34.89,34.89,0,0,1,285.1,4.45Z" fill="#006834"/><g id="Logo_Crest_Green" data-name="Logo/Crest/Green"><path id="Crest_BG" data-name="Crest BG" d="M54.17,31.1A43.59,43.59,0,0,1,52.5,43.17a30.93,30.93,0,0,1-2.15,5.59A28,28,0,0,1,46,54.52a53.85,53.85,0,0,1-5.75,5.37q-.77.62-1.57,1.22a57.67,57.67,0,0,1-5,3.36l-5.05,3h0l-1.89-1.13-3.16-1.89a57.7,57.7,0,0,1-5-3.36q-.8-.6-1.57-1.22a53.9,53.9,0,0,1-5.75-5.37l-.73-.81a29.61,29.61,0,0,1-3-3.92c-.22-.35-.42-.7-.59-1s-.19-.39-.28-.59Q6.32,47.5,6,46.75q-.21-.52-.42-1.08c-.29-.79-.56-1.61-.82-2.5s-.46-1.71-.65-2.58a43.14,43.14,0,0,1-.78-4.85Q3.27,35,3.22,34.2q-.1-1.54-.11-3.11h0v-28H54.17Z" fill="#fff"/><path id="Crest" d="M0,0V31.1A46.73,46.73,0,0,0,1.79,44a34,34,0,0,0,2.37,6.16A30.93,30.93,0,0,0,9,56.64,58.62,58.62,0,0,0,22,67.15l6.65,4,6.65-4a58.61,58.61,0,0,0,13-10.51,31,31,0,0,0,4.79-6.44A34,34,0,0,0,55.49,44,46.72,46.72,0,0,0,57.28,31.1V0ZM54.17,31.1A43.59,43.59,0,0,1,52.5,43.17a30.93,30.93,0,0,1-2.15,5.59A28,28,0,0,1,46,54.52a53.85,53.85,0,0,1-5.75,5.37q-.77.62-1.57,1.22a57.67,57.67,0,0,1-5,3.36l-5.05,3h0l-1.89-1.13-3.16-1.89a57.7,57.7,0,0,1-5-3.36q-.8-.6-1.57-1.22a53.9,53.9,0,0,1-5.75-5.37l-.73-.81a29.61,29.61,0,0,1-3-3.92c-.22-.35-.42-.7-.59-1s-.19-.39-.28-.59Q6.32,47.5,6,46.75q-.21-.52-.42-1.08c-.29-.79-.56-1.61-.82-2.5s-.46-1.71-.65-2.58a43.14,43.14,0,0,1-.78-4.85Q3.27,35,3.22,34.2q-.1-1.54-.11-3.11h0v-28H54.17Zm-20-2.84a.8.8,0,0,0,.66,1,.83.83,0,0,0,.74-.25s.06,0,.07,0a1,1,0,0,0,.21.31,1.09,1.09,0,0,0,.3.19l.2.07.11,0,.12,0c.06,0,.08.1,0,.14-2.65,1.36-5.46-.34-5.46-2.42a11.05,11.05,0,0,1,.62-3.54.19.19,0,0,1,.21-.14,3.91,3.91,0,0,1,3.23,3.8.05.05,0,0,1-.06.06A.89.89,0,0,0,34.13,28.26Zm4.79,14.38A1.51,1.51,0,0,1,39,45a.19.19,0,0,1-.24,0c-.82-.71-1.23,1.17-1.21,1.92a.13.13,0,0,1-.18.12C33.46,45.42,37.09,41.28,38.92,42.64Zm-10.29.85a.06.06,0,0,1,.11,0,22.63,22.63,0,0,1,2.61,4.35,17,17,0,0,1,1,3.57,8.26,8.26,0,0,0,.38,1.86,3.83,3.83,0,0,0,1.1,1.49,6.09,6.09,0,0,0,3.42,1.14,5,5,0,0,0,1.94-.14A4,4,0,0,0,41,54.44a8.17,8.17,0,0,0,.77-1.14,10.19,10.19,0,0,1,.49-1,1.52,1.52,0,0,0,1-.47,4.63,4.63,0,0,0,.39-1.1c.37-1.13,1-1.5,1.94-2.28a4.26,4.26,0,0,0,1-1,3.26,3.26,0,0,0,.16-2.66c-.27-.88-.71-1.69-1-2.57-.06-.22-.13-.48-.19-.76a12.89,12.89,0,0,1,.24-7l0,0a17.45,17.45,0,0,0,1.56-6.09c.39-.62.69-1,.69-1,1.43-2,.33-3.74-.33-5.37a16.2,16.2,0,0,0-1.79-6.21C48.5,13,51.24,5.13,49.15,5.65c-.44.11-3,2.43-5.3,3.17-1.08-1.11-2.14-2-5.29-2.09a.2.2,0,0,0-.15.35A1.74,1.74,0,0,1,39,8.54a3.68,3.68,0,0,0-2.67-1.19s.57-1.65-.63-2a3.2,3.2,0,0,0-2.4.73A26.49,26.49,0,0,0,31,7.66c-2.64.63-5.67,1.82-8.54.43a.19.19,0,0,0-.28.2,4.1,4.1,0,0,0,2.94,3.09.18.18,0,0,1,0,.35c-2.47.82-6.9-1.53-11.66,2.88a.19.19,0,0,0,.16.33c.84-.16,2.25-.27,2.79.67a.21.21,0,0,1-.13.31,13.62,13.62,0,0,0-9.54,8.73.19.19,0,0,0,.3.22,3.29,3.29,0,0,1,4.33,0,.12.12,0,0,1,0,.17A18.36,18.36,0,0,1,5,30.22v.87a43,43,0,0,0,.46,6.25c9.47-13.41,20-20.28,23.28-22.05a.75.75,0,0,0,.38-.75A7.63,7.63,0,0,1,32.37,7.7a11.32,11.32,0,0,1,3-1.72s-6.54,3.86-4.12,9.94c.87-2.61,3.87-1.43,3.9-5.3a0,0,0,0,1,.09,0c.93,3.88-2.08,3.69-2.22,6.16a.63.63,0,0,1-.35.53,14.41,14.41,0,0,1-5.14.94.09.09,0,0,0,0,.17,8,8,0,0,0,4.17,1.15.09.09,0,0,1,.06.17,5.45,5.45,0,0,1-1.7.88.1.1,0,0,0,0,.19c1,.08,2,0,2.95.13a7.35,7.35,0,0,1,2.65,1,6.36,6.36,0,0,1,1.95,1.92,10.07,10.07,0,0,1,1.18,3.42c.24,1.16.49,2.3.69,3.46.43,2.47.78,5,1.1,7.44.13,1.06.27,2.42.38,3.56a.37.37,0,0,0,.46.32l1-.26a.71.71,0,0,0,.53-.72c-.15-3.12-.87-18-1.07-18.31-.41-.7-1-.47-.91-2.46A6.8,6.8,0,0,1,41.95,17a15.14,15.14,0,0,1,1.71,3.23,2.57,2.57,0,0,1-.32,2.12,4.65,4.65,0,0,0-.41,2.44c-.07,1.73,1.2,16.87,1.2,16.87l1.08,1.71a.43.43,0,0,1-.1.57c-.46.35-1.31,1-1.73.91-.91-.08-1.81-1.41-3.06-1.95a.13.13,0,0,0-.17.18c.83,1.91-.63,4.83-2.83,5a.07.07,0,0,0,0,.13,4.49,4.49,0,0,1,1.61,2.85.35.35,0,0,1-.4.41c-1.3-.17-3-.72-3.46-1.38A4.14,4.14,0,0,1,34.4,49l.07.19c0-.09-.08-.19-.11-.28s0,.06,0,.09c-.56-1.46-.35-2.9-5.7-8.91,0,0,0-.07,0-.05a19.55,19.55,0,0,1,3.34,2.43s.1,0,.08-.06A24.88,24.88,0,0,0,30,38a.1.1,0,0,0-.15,0,4.46,4.46,0,0,1-3.14,1c-6.65-.84-6.22-11.33-1.71-17.45a.15.15,0,0,0-.22-.21c-6.23,5.33-14.06,16.08-14.17,29.6q.87,1.09,2,2.31a53.66,53.66,0,0,0,11.93,9.61l4.09,2.44,3.23-1.93A33.5,33.5,0,0,1,28.63,43.48ZM44.53,9.72s0,0,0-.07l.12-.06L45,9.4l.35-.2L45.71,9l.35-.22.35-.23.34-.23.33-.24.31-.24.28-.23.26-.23c.11-.1.28-.32.31-.32s0,.24-.06.36-.08.26-.12.39L48,8c-.42,1.56-2,2.08-2.7,3.53,0,0,0,0-.05,0a7,7,0,0,0-.38-1.19C44.77,10.16,44.57,9.81,44.53,9.72ZM34.11,51.41a.12.12,0,0,1,.23,0,3.52,3.52,0,0,0,2.77,2.15c1,.23-.18,1.26-1.56.85A2.33,2.33,0,0,1,34.11,51.41Z" fill="#006834"/></g></g></svg>