<svg id="Torch" xmlns="http://www.w3.org/2000/svg" viewBox="0 0 410.4 63.99"><title>Abraham-Baldwin-Agricultural-College-COLOR</title><path d="M57,4.79H47.36L28.51,0,9.65,4.79H0L2,12V40.18C2,51.25,28.51,64,28.51,64S55,51.25,55,40.18V12ZM51.85,40.18c-.08,3.32-3.48,6.88-7.95,10.51a95.57,95.57,0,0,1-15.39,9.76,95.5,95.5,0,0,1-15.39-9.76c-4.47-3.62-7.87-7.19-7.95-10.51V11.59L4.17,8H10.1L28.51,3.31,46.92,8h5.92l-1,3.62Zm-8.49-8.75a6.71,6.71,0,0,1,2.33-.67,10,10,0,0,0-8.43,1.64A11.2,11.2,0,0,1,37.83,29,12.6,12.6,0,0,0,39,24.58c.28-.45.5-.74.5-.74,1-1.46.23-2.7-.24-3.87a11.7,11.7,0,0,0-1.29-4.48c1.84-2,3.82-7.66,2.31-7.29-.32.07-.53.47-.63.74a10.46,10.46,0,0,1-3.19,1.54A6.27,6.27,0,0,0,32.2,9a3.07,3.07,0,0,1,1.44,2,5,5,0,0,0-2.72-1.35,1,1,0,0,0-.41-1.64,2.33,2.33,0,0,0-1.74.53,19.83,19.83,0,0,0-1.65,1.17c-2,.47-4.27,1.38-6.42.18a3,3,0,0,0,2.54,2.59c-1.74,1.06-5.33-1.32-9.14,2.6,0,0,2.14-.7,2.58.56a9.72,9.72,0,0,0-7.2,6.81A2.47,2.47,0,0,1,13,22.13c-1.18,1.69-4.33,4.21-6.39,4.27v7.82l.69-1.14C14.83,21.54,23.77,16,25.82,15a5.45,5.45,0,0,1,2.31-5.31h0a8.77,8.77,0,0,1,2.14-1.24s-4.8,2.61-3,7.17c.64-1.95,2.93-1,2.81-4.1.91,3.21-1.64,2.85-1.53,5a10.25,10.25,0,0,1-4.18.81,5.72,5.72,0,0,0,3.37,1,4,4,0,0,1-1.68.86,8.91,8.91,0,0,0,3,0c3.78,1.09,1.25,3.69,2.46,6.36a5.08,5.08,0,0,0,.86-1.74c2.18,3.11,0,3,3.09,11.14,0,0,0,0,0,0a17.46,17.46,0,0,0,.25-4.6v0c-.06-.35-.18-1.85-.18-2.14a3.91,3.91,0,0,0-.16-1.56A3.18,3.18,0,0,1,35.31,25,22.89,22.89,0,0,0,35.08,22c0-.44,0-.9-.12-1.34s-.58-1-.59-1.53.21-1,.13-1.51a2.86,2.86,0,0,1,0-.73c0-.08.22-.56.19-.59a8.27,8.27,0,0,1,1.59,2.5c.19.52-.14,1.11-.29,1.65a6.86,6.86,0,0,0-.22,1.73c0,1.29.18,2.56.28,3.84.16,1.93,0,3.32.32,4.91s.34,4,.36,4c.66.46.68.58.68.58a2.18,2.18,0,0,0-1.19,1.19l-.09-.12h0A5.55,5.55,0,0,0,33.62,35c.66.66.73,2.42-.13,2.7-.68.22-1.25,1.25-1.94,1.18.07.67,1.32.94,1.28,2.46a4.83,4.83,0,0,1-2.8-1,3.06,3.06,0,0,1-.44-.79l.06.14-.08-.2,0,.06c-.4-1.05-.25-2.14-4.12-6.48A11.61,11.61,0,0,1,28,34.91a19.22,19.22,0,0,0-1.79-3.67c-.08.36-.6.87-1.58.76-6-.83-4.9-8.61-1.12-13.18-4.62,3.57-9.44,10.69-7.7,21.74a13.1,13.1,0,0,1-1.73-6.22s-3.92,7.61.25,14.23A3.34,3.34,0,0,0,17,48.19a12.17,12.17,0,0,1-2,2.05c1.55,1.19,3.22,2.37,4.94,3.5,2-1.28,3.67-3.47,4.29-7.46,1.77,4.18,1.2,7.89-.29,9.94l.12.07a3.86,3.86,0,0,0,2.82-1.72c0,.24,0,.48-.06.71a5.34,5.34,0,0,1-.85,2.1c.88.49,1.75,1,2.59,1.4,2.44-1.26,5.08-2.78,7.65-4.42a9.73,9.73,0,0,0,.3-9.55c-.66,5.34-3.43,5.9-5.34-.36a10.86,10.86,0,0,0,1.73,0c2.4.57,2.4-2.34,2.41-2.55,1.29-.11.77-1.6,1.31-1.88a2.4,2.4,0,0,0,.93-1c2.77,3.25,4.82,8,2.89,12.46.9-.65,1.77-1.3,2.6-2l0,0a17.37,17.37,0,0,0-3.26-9.19c3,1.07,3.42,4.63,4.29,8.36,3.82-3.2,6.39-6.46,6.32-8.48V32.35A13.36,13.36,0,0,0,43.36,31.42ZM36.93,11.16l0-.06a10.66,10.66,0,0,0,2.56-1.51,1.53,1.53,0,0,1-.06.3h0c-.31,1.14-1.53,1.45-2,2.56a5.23,5.23,0,0,0-.29-.87C37.07,11.44,37,11.29,36.93,11.16ZM30.42,43.38a1.63,1.63,0,0,1-.8-2.38c-.09.64.48,1.46,1.93,1.77C32.29,42.92,31.41,43.67,30.42,43.38Zm-3.28-22.6c2,0,2.23,1.56,2.47,2.8h0a.64.64,0,0,0-.72.52.57.57,0,0,0,.48.7.65.65,0,0,0,.55-.2.75.75,0,0,0,.7.49C24.7,26.42,27.14,20.78,27.14,20.78Zm5.71,14.11a1.08,1.08,0,0,1,0,1.78c-.71-.79-1,1.07-.94,1.45C28.83,37,31.51,33.89,32.85,34.89Z" fill="#164613"/><path d="M30.42,43.38a1.63,1.63,0,0,1-.8-2.38c-.09.64.48,1.46,1.93,1.77C32.29,42.92,31.41,43.67,30.42,43.38Zm9-33.48h0a1.53,1.53,0,0,0,.06-.3,10.66,10.66,0,0,1-2.56,1.51l0,.06c.08.13.15.28.21.43a5.23,5.23,0,0,1,.29.87C37.86,11.35,39.09,11,39.4,9.9ZM29.65,39.65l-.06-.14,0-.06ZM51.83,11.59l0,28.59c-.08,3.32-3.48,6.88-7.95,10.51a95.57,95.57,0,0,1-15.39,9.76,95.5,95.5,0,0,1-15.39-9.76c-4.47-3.62-7.87-7.19-7.95-10.51V11.59L4.17,8H10.1L28.51,3.31,46.92,8h5.92ZM50.38,40.18V32.35a13.36,13.36,0,0,0-7-.93,6.71,6.71,0,0,1,2.33-.67,10,10,0,0,0-8.43,1.64A11.2,11.2,0,0,1,37.83,29,12.6,12.6,0,0,0,39,24.58c.28-.45.5-.74.5-.74,1-1.46.23-2.7-.24-3.87a11.7,11.7,0,0,0-1.29-4.48c1.84-2,3.82-7.66,2.31-7.29-.32.07-.53.47-.63.74a10.46,10.46,0,0,1-3.19,1.54A6.27,6.27,0,0,0,32.2,9a3.07,3.07,0,0,1,1.44,2,5,5,0,0,0-2.72-1.35,1,1,0,0,0-.41-1.64,2.33,2.33,0,0,0-1.74.53,19.83,19.83,0,0,0-1.65,1.17c-2,.47-4.27,1.38-6.42.18a3,3,0,0,0,2.54,2.59c-1.74,1.06-5.33-1.32-9.14,2.6,0,0,2.14-.7,2.58.56a9.72,9.72,0,0,0-7.2,6.81A2.47,2.47,0,0,1,13,22.13c-1.18,1.69-4.33,4.21-6.39,4.27v7.82l.69-1.14C14.83,21.54,23.77,16,25.82,15a5.45,5.45,0,0,1,2.31-5.31h0a8.77,8.77,0,0,1,2.14-1.24s-4.8,2.61-3,7.17c.64-1.95,2.93-1,2.81-4.1.91,3.21-1.64,2.85-1.53,5a10.25,10.25,0,0,1-4.18.81,5.72,5.72,0,0,0,3.37,1,4,4,0,0,1-1.68.86,8.91,8.91,0,0,0,3,0c3.78,1.09,1.25,3.69,2.46,6.36a5.08,5.08,0,0,0,.86-1.74c2.18,3.11,0,3,3.09,11.14,0,0,0,0,0,0a17.46,17.46,0,0,0,.25-4.6v0c-.06-.35-.18-1.85-.18-2.14a3.91,3.91,0,0,0-.16-1.56A3.18,3.18,0,0,1,35.31,25,22.89,22.89,0,0,0,35.08,22c0-.44,0-.9-.12-1.34s-.58-1-.59-1.53.21-1,.13-1.51a2.86,2.86,0,0,1,0-.73c0-.08.22-.56.19-.59a8.27,8.27,0,0,1,1.59,2.5c.19.52-.14,1.11-.29,1.65a6.86,6.86,0,0,0-.22,1.73c0,1.29.18,2.56.28,3.84.16,1.93,0,3.32.32,4.91s.34,4,.36,4c.66.46.68.58.68.58a2.18,2.18,0,0,0-1.19,1.19l-.09-.12h0A5.55,5.55,0,0,0,33.62,35c.66.66.73,2.42-.13,2.7-.68.22-1.25,1.25-1.94,1.18.07.67,1.32.94,1.28,2.46a4.83,4.83,0,0,1-2.8-1,3.06,3.06,0,0,1-.44-.79c-.4-1.05-.25-2.14-4.12-6.48A11.61,11.61,0,0,1,28,34.91a19.22,19.22,0,0,0-1.79-3.67c-.08.36-.6.87-1.58.76-6-.83-4.9-8.61-1.12-13.18-4.62,3.57-9.44,10.69-7.7,21.74a13.1,13.1,0,0,1-1.73-6.22s-3.92,7.61.25,14.23A3.34,3.34,0,0,0,17,48.19a12.17,12.17,0,0,1-2,2.05c1.55,1.19,3.22,2.37,4.94,3.5,2-1.28,3.67-3.47,4.29-7.46,1.77,4.18,1.2,7.89-.29,9.94l.12.07a3.86,3.86,0,0,0,2.82-1.72c0,.24,0,.48-.06.71a5.34,5.34,0,0,1-.85,2.1c.88.49,1.75,1,2.59,1.4,2.44-1.26,5.08-2.78,7.65-4.42a9.73,9.73,0,0,0,.3-9.55c-.66,5.34-3.43,5.9-5.34-.36a10.86,10.86,0,0,0,1.73,0c2.4.57,2.4-2.34,2.41-2.55,1.29-.11.77-1.6,1.31-1.88a2.4,2.4,0,0,0,.93-1c2.77,3.25,4.82,8,2.89,12.46.9-.65,1.77-1.3,2.6-2l0,0a17.37,17.37,0,0,0-3.26-9.19c3,1.07,3.42,4.63,4.29,8.36C47.88,45.46,50.45,42.2,50.38,40.18ZM28.87,24.09a.64.64,0,0,1,.72-.52h0c-.24-1.23-.48-2.78-2.47-2.8,0,0-2.44,5.64,3.46,4.3a.75.75,0,0,1-.7-.49.65.65,0,0,1-.55.2A.57.57,0,0,1,28.87,24.09Zm4,12.58a1.08,1.08,0,0,0,0-1.78c-1.34-1-4,2.1-1,3.23C31.8,37.74,32.11,35.88,32.83,36.67Z" fill="#fff"/><path d="M91,27.24c0,1-.87,1.34-1.85,1.51v.48h20.35a12.94,12.94,0,0,0,6.14-1.06,5.31,5.31,0,0,0,3-4.7c0-3.24-2.77-4.88-6-5.47,2.56-.59,4.83-1.88,4.83-4.65A4.43,4.43,0,0,0,114.25,9a15.4,15.4,0,0,0-5-.56H99.29v.44c2.06.24,2.06,1.27,2.06,2.79V26.11c0,2.05-.69,2.91-2,2.65-1.59-.3-2.13-1.32-3.3-3.73L86.23,4.79H83.55l-10.63,21c-.87,1.75-1.5,2.82-3.15,3v.48h7.92v-.48c-.67-.14-1.85-.41-1.85-1.48a5,5,0,0,1,.63-1.92l1.93-3.92H88.55l1.82,3.92A5.28,5.28,0,0,1,91,27.24Zm14.95-16.59h1.42a9.71,9.71,0,0,1,3.41.38A2.87,2.87,0,0,1,112.69,14c0,2.64-2.66,3.23-5,3.23h-1.79Zm0,8.76h2.33a7.56,7.56,0,0,1,3.69.7,3.59,3.59,0,0,1,1.89,3.24,3.38,3.38,0,0,1-1.49,2.88,7.87,7.87,0,0,1-4,.86c-2.36,0-2.4-1.18-2.4-2.62ZM79.65,19l3.94-8,3.78,8Zm155-5.67L236,25.79a13.38,13.38,0,0,1,.1,1.5c0,.73-.84,1.29-2,1.5v.44h8.75v-.44a2.56,2.56,0,0,1-2-1.29,6.29,6.29,0,0,1-.3-1.5l-1.55-13.58a14.25,14.25,0,0,1-.14-1.68c0-1.44.91-1.68,1.89-1.86V8.47h-6.35L227.14,23l-7.26-14.5h-6.62v.41c1.45.24,1.92.79,1.92,1.77,0,.38-.1,1.2-.13,1.64L213.63,26c-.14,1.29-.24,3-1,2.85s-1.3-1.61-2.08-3.2L202.16,8.29h-2.29l-9.12,18c-.59,1.19-1.29,2.57-1.94,2.57-.83,0-1.26-.51-1.26-3.33V12c0-2.15.27-2.89,2-3.15V8.47h-8.81v.41c2.09.3,2.06,1.09,2.06,2.79v5.5H171.37V11.8c0-1.68,0-2.65,2.09-2.92V8.47h-8.88v.41c2.06.3,2.06,1.27,2.06,2.79V25.85c0,1.38,0,3-1.11,3-1.62-.44-1.93-1-3-3.17L154.12,8.29h-2.3l-9.15,18c-.52,1-1.26,2.57-1.62,2.57s-1.18-1.39-2.16-3l-4.47-7.23a5.81,5.81,0,0,0,2.06-1.21,4.9,4.9,0,0,0-1.25-8.2c-1.56-.77-3.08-.79-5.42-.79H119.65v.44c2,.3,2.06,1.12,2.06,2.73V26.29c0,1.29-.07,2.21-2.06,2.53v.41h9v-.41c-1.79-.41-2.23-.73-2.23-2.94V19.73c.64,0,1.28.06,1.62.06.68,0,1.22,0,1.76-.06l4,6.38c1.22,2,2.4,3.12,5.21,3.12h7.68v-.41c-.58-.12-1.59-.35-1.59-1.26a4.24,4.24,0,0,1,.54-1.65l1.66-3.35h8.74l1.56,3.35a4.49,4.49,0,0,1,.54,1.62c0,.82-.75,1.15-1.59,1.29v.41h16.83v-.41c-2.09-.35-2.09-1.29-2.09-3V19.44h11.45v6.41c0,1.82,0,2.67-2.06,3v.41h14.07v-.41c-.58-.12-1.59-.35-1.59-1.26a4.23,4.23,0,0,1,.54-1.65l1.66-3.35h8.71l1.55,3.35a4.54,4.54,0,0,1,.54,1.62c0,.82-.74,1.15-1.59,1.29v.41h13.43v-.44c-1-.29-1.93-.56-1.93-2,0-.47.07-1,.1-1.44l1.25-12.08,8,15.93h1.28ZM130.32,17.41a10,10,0,0,1-1.86.15h-2V10.67h2.26a5.49,5.49,0,0,1,3.19.68,3.11,3.11,0,0,1,1.46,2.77C133.37,15.23,132.79,16.91,130.32,17.41Zm18.14,3,3.39-6.82,3.25,6.82Zm48.05,0,3.38-6.82,3.24,6.82Zm73.15-4.32c3-.69,5.63-2.2,5.63-5.42a5.17,5.17,0,0,0-3.74-5A17.84,17.84,0,0,0,265.69,5H254.11v.51c2.4.28,2.4,1.48,2.4,3.26V25.59c0,1.88-.27,2.78-2.4,3.12v.52H266c2.13,0,4.85,0,7.17-1.23a6.23,6.23,0,0,0,3.51-5.49C276.69,18.72,273.45,16.8,269.67,16.12Zm-7.8-8.58h1.65a11.46,11.46,0,0,1,4,.44,3.36,3.36,0,0,1,2.25,3.43c0,3.09-3.11,3.78-5.79,3.78h-2.08Zm7.48,18.19a9.25,9.25,0,0,1-4.69,1c-2.75,0-2.79-1.37-2.79-3.05V17.76h2.72a8.75,8.75,0,0,1,4.29.82,4.17,4.17,0,0,1,2.21,3.77A4,4,0,0,1,269.36,25.73Zm46.81,3.08V25.2h-.5c-.41,1.53-1.18,1.82-3.14,1.82H308.1c-1.39,0-2.23,0-2.71-.8a3.89,3.89,0,0,1-.27-1.85V11.82c0-1.88.27-2.64,2.09-2.94V8.47h-9v.41c2.16.38,2.16,1.32,2.16,2.94V25.2c0,3.3-.6,3.52-.75,3.62-.74-.46-1.33-1.64-2.08-3.17L289.12,8.29h-2.29l-9.12,18c-.74,1.5-1.28,2.41-2.7,2.56v.41h6.79v-.41c-.57-.12-1.59-.35-1.59-1.26a4.31,4.31,0,0,1,.54-1.65l1.66-3.35h8.71l1.55,3.35a4.59,4.59,0,0,1,.54,1.62c0,.82-.74,1.15-1.59,1.29v.41h24.54Zm1.43.42h9.94c3.17,0,7.36-.09,10.77-2.82A10,10,0,0,0,342,18.59a9.36,9.36,0,0,0-5.84-8.85,19.91,19.91,0,0,0-7.33-1.27H317.27v.44a2.16,2.16,0,0,1,2,1.27,5.62,5.62,0,0,1,.1,1.65V26.08c0,1.49-.23,2.42-1.72,2.72Zm6.49-18.55h2.67c2.46,0,7.5.09,9.55,4.38a8.33,8.33,0,0,1,.78,3.7c0,3.41-1.72,6.88-6.69,7.94a17,17,0,0,1-3.48.32c-2.57,0-2.84-.94-2.84-2.35Zm-40.61,9.77,3.38-6.82,3.24,6.82Zm92.92,5.29v-14c0-1.25,0-2.44-1.34-2.86-1,.31-1.51,1.14-2.19,2.77l-7.6,17.73h-2.06l-5.44-13.11-5.54,13.11h-2.16l-7.16-17.26C342,9.82,341.59,9.21,340,8.88V8.44h8.91v.44c-.6.06-1.65.26-1.65,1.29a5.36,5.36,0,0,0,.44,1.62l4.53,11.7L356.42,13l-.67-1.62c-.88-1.91-1.55-2.32-2.7-2.47V8.44h9v.44c-.47,0-1.69.18-1.69,1.41a4.52,4.52,0,0,0,.37,1.53l4.56,11.67,4.66-11.74a4.29,4.29,0,0,0,.43-1.56c0-.79-.5-1.17-1.58-1.32v-.4h14.44v.41c-1.83.3-2.09,1-2.09,2.85v14c0,2.14.13,2.56,2.09,3.09v.41h-8.95v-.41C376.4,28.29,376.4,27.64,376.4,25.73Zm34-17.26v.44c-1.72.3-2,.91-2,2.56V29.4h-2L389.63,12.5V26.26c0,2,.64,2.29,2,2.56v.41h-6.72v-.41a2.49,2.49,0,0,0,1.45-.5,2.5,2.5,0,0,0,.61-2.06V11.35a3.15,3.15,0,0,0-.2-1.44,2.11,2.11,0,0,0-1.86-1V8.47h6.72l14.12,14.38V11.59c0-1.65-.21-2.38-2.09-2.68V8.47ZM84.71,48.82,79.16,35.66H77.65l-6,13.63c-.5,1.14-.85,1.83-1.79,1.94v.31h4.48v-.31c-.38-.09-1.05-.27-1.05-1A3.6,3.6,0,0,1,73.63,49l1.09-2.54h5.76l1,2.54a3.83,3.83,0,0,1,.35,1.23c0,.62-.49.87-1,1v.31h5.87v-.31C85.61,50.9,85.41,50.45,84.71,48.82Zm-9.28-3.95,2.23-5.18,2.14,5.18ZM99,45.46h5.71v.34c-1,.2-1.34.44-1.34,1.91v3c-.63.27-.72.29-.89.36a16.55,16.55,0,0,1-5.22.89c-5.27,0-8.64-3.19-8.64-7.85s3.06-8.72,9.82-8.72a15.08,15.08,0,0,1,4.82.78l0,3.23h-.33c-.13-.31-.22-.51-.33-.71-.36-.58-1.14-1.6-3.9-1.6-4.12,0-6.78,2.47-6.78,6.51A8.37,8.37,0,0,0,92.17,46a6.13,6.13,0,0,0,2.7,3.46,5.69,5.69,0,0,0,2.81.69,4.36,4.36,0,0,0,2.7-.67V47.82c0-1.59-.27-1.74-1.4-2ZM120.79,49l-2.94-5.49a3.72,3.72,0,0,0,1.36-.91,4.07,4.07,0,0,0,1.11-2.81,3.83,3.83,0,0,0-1.94-3.41,6.71,6.71,0,0,0-3.57-.6h-6.69v.33c1.34.22,1.36.85,1.36,2.07V49.31c0,1,0,1.68-1.36,1.92v.31h6v-.31c-1.18-.31-1.48-.56-1.48-2.23V44.34l1.07,0c.45,0,.8,0,1.16,0l2.65,4.84c.8,1.5,1.58,2.37,3.44,2.37h1.85v-.31C121.92,50.92,121.65,50.61,120.79,49Zm-5.64-6.42a5.83,5.83,0,0,1-1.23.12h-1.32V37.47h1.5a3.25,3.25,0,0,1,2.1.51,2.64,2.64,0,0,1-1,4.6Zm11-6.78H132v.31c-1.21.22-1.39.73-1.39,2.16V48.89c0,1.63.09,1.94,1.39,2.35v.31H126.1v-.31c1.41-.4,1.41-.89,1.41-2.35V38.27c0-1.09,0-2-1.41-2.16Zm13.12,7.65c0,3.82,2.47,6.83,6.62,6.83a6.32,6.32,0,0,0,3.48-.9,2.75,2.75,0,0,0,1.05-1.52h.33l0,3.13a16.93,16.93,0,0,1-5.69,1,11.58,11.58,0,0,1-3.41-.45A7.75,7.75,0,0,1,136,43.82a8.15,8.15,0,0,1,1.07-4.14,8,8,0,0,1,2.5-2.66,10.9,10.9,0,0,1,6.12-1.65,17.48,17.48,0,0,1,5.06.76l0,3.21h-.33C150,38.41,149.33,37,146,37,141.34,37,139.23,40,139.23,43.45Zm27.18-7.65h4.42v.31c-1.32.28-1.36.87-1.36,2v7.25c0,1.6-.07,3.61-1.74,5.09a7.2,7.2,0,0,1-4.8,1.5,7.43,7.43,0,0,1-4.71-1.38,6,6,0,0,1-2-5.13V38.18c0-1.36-.16-1.87-1.36-2.07v-.31h5.84v.31c-1.14.27-1.36.62-1.36,2.07v7a9.08,9.08,0,0,0,.13,2.1,3.87,3.87,0,0,0,4.09,3,4.06,4.06,0,0,0,3.34-1.41,5.52,5.52,0,0,0,.83-3.39V38.18c0-1.34-.07-1.81-1.34-2.07Zm20.85,12.7h.34v3.05H175.43v-.33a1.72,1.72,0,0,0,1.07-.58c.31-.4.36-.8.36-2.14V38.34c0-1.23,0-1.95-1.43-2.23v-.31h6v.31c-1.21.22-1.39.8-1.39,2.23v9.53a3.39,3.39,0,0,0,.18,1.4c.31.58.87.6,1.78.6h3.21C186.47,49.87,187,49.65,187.25,48.49Zm2.42-12.7h13.55v3h-.34c-.18-1.23-.78-1.34-1.9-1.34H198V48.62c0,2,.09,2.18,1.41,2.61v.31h-6v-.31c1.41-.36,1.41-1,1.41-2.61V37.47h-3.08a1.82,1.82,0,0,0-1.41.42,1.45,1.45,0,0,0-.38.92h-.36Zm28.9,0H223v.31c-1.32.28-1.36.87-1.36,2v7.25c0,1.6-.07,3.61-1.74,5.09a7.19,7.19,0,0,1-4.8,1.5,7.42,7.42,0,0,1-4.71-1.38,6,6,0,0,1-2-5.13V38.18c0-1.36-.16-1.87-1.36-2.07v-.31h5.84v.31c-1.14.27-1.36.62-1.36,2.07v7a9.08,9.08,0,0,0,.13,2.1,3.88,3.88,0,0,0,4.08,3,4.06,4.06,0,0,0,3.35-1.41,5.53,5.53,0,0,0,.83-3.39V38.18c0-1.34-.07-1.81-1.34-2.07ZM239.2,49l-2.95-5.49a3.73,3.73,0,0,0,1.36-.91,4.09,4.09,0,0,0,1.11-2.81,3.83,3.83,0,0,0-1.94-3.41,6.72,6.72,0,0,0-3.57-.6h-6.69v.33c1.34.22,1.36.85,1.36,2.07V49.31c0,1,0,1.68-1.36,1.92v.31h6v-.31c-1.18-.31-1.47-.56-1.47-2.23V44.34l1.07,0c.45,0,.8,0,1.16,0l2.65,4.84c.8,1.5,1.59,2.37,3.44,2.37h1.85v-.31C240.33,50.92,240.06,50.61,239.2,49Zm-5.65-6.42a5.83,5.83,0,0,1-1.23.12H231V37.47h1.5a3.23,3.23,0,0,1,2.09.51,2.64,2.64,0,0,1-1,4.6Zm24.24,6.25-5.56-13.16h-1.52l-6,13.63c-.49,1.14-.84,1.83-1.78,1.94v.31h4.48v-.31c-.37-.09-1-.27-1-1A3.56,3.56,0,0,1,246.7,49l1.09-2.54h5.76l1,2.54a3.86,3.86,0,0,1,.35,1.23c0,.62-.49.87-1,1v.31h5.87v-.31C258.68,50.9,258.48,50.45,257.79,48.82Zm-9.28-3.95,2.23-5.18,2.14,5.18ZM274,48.49h.33v3.05H262.14v-.33a1.73,1.73,0,0,0,1.07-.58c.31-.4.36-.8.36-2.14V38.34c0-1.23,0-1.95-1.43-2.23v-.31h6v.31c-1.21.22-1.38.8-1.38,2.23v9.53a3.36,3.36,0,0,0,.18,1.4c.31.58.87.6,1.79.6h3.22C273.19,49.87,273.7,49.65,274,48.49Zm20.73-5c0,3.82,2.48,6.83,6.63,6.83a6.33,6.33,0,0,0,3.48-.9,2.73,2.73,0,0,0,1-1.52h.33l0,3.13a17,17,0,0,1-5.69,1,11.58,11.58,0,0,1-3.41-.45,7.75,7.75,0,0,1-5.65-7.68,8.18,8.18,0,0,1,1.07-4.14,8,8,0,0,1,2.5-2.66,10.91,10.91,0,0,1,6.12-1.65,17.5,17.5,0,0,1,5.06.76l0,3.21h-.33c-.42-.93-1-2.32-4.39-2.32C296.83,37,294.7,40,294.7,43.45Zm24-8.07c-4.71,0-8.95,3-8.95,8.44,0,4.42,3,8.14,8.57,8.14a8.82,8.82,0,0,0,6.56-2.48,7.93,7.93,0,0,0,1.74-2.77,9.07,9.07,0,0,0,.49-3A8,8,0,0,0,318.7,35.37Zm3.95,13a5,5,0,0,1-4,1.92c-3.82,0-5.67-3.62-5.67-6.83,0-3.88,2.28-6.36,5.42-6.36,3.71,0,5.55,3.17,5.55,6.78A7.24,7.24,0,0,1,322.65,48.36Zm19.24.13h.33v3.05H330.06v-.33a1.7,1.7,0,0,0,1.07-.58c.31-.4.36-.8.36-2.14V38.34c0-1.23,0-1.95-1.43-2.23v-.31h6v.31c-1.21.22-1.39.8-1.39,2.23v9.53a3.38,3.38,0,0,0,.18,1.4c.31.58.87.6,1.78.6h3.22C341.11,49.87,341.62,49.65,341.89,48.49Zm15.45,0h.33v3.05H345.51v-.33a1.7,1.7,0,0,0,1.07-.58c.31-.4.36-.8.36-2.14V38.34c0-1.23,0-1.95-1.43-2.23v-.31h6v.31c-1.21.22-1.39.8-1.39,2.23v9.53a3.38,3.38,0,0,0,.18,1.4c.31.58.87.6,1.78.6h3.21C356.55,49.87,357.07,49.65,357.34,48.49Zm15,0h.34v3.08H361v-.33c1.3-.22,1.34-1,1.34-2.32v-11c0-1.07-.13-1.74-1.34-1.81v-.33h10.29v3H371c-.29-1.27-.76-1.34-1.72-1.34h-3.79V42.4h2.94c1.39,0,1.83-.33,2-1.38h.33v4.42h-.33c-.29-1.31-.85-1.34-2.25-1.34h-2.7v3.68c0,1.85.31,2.07,2.09,2.07h2.72C371.55,49.85,371.93,49.78,372.31,48.47Zm15.2-3h5.71v.34c-1,.2-1.34.44-1.34,1.91v3a9.33,9.33,0,0,1-.89.36,16.54,16.54,0,0,1-5.22.89c-5.27,0-8.64-3.19-8.64-7.85s3.06-8.72,9.82-8.72a15.06,15.06,0,0,1,4.82.78l0,3.23h-.33a6.81,6.81,0,0,0-.34-.71c-.36-.58-1.14-1.6-3.9-1.6-4.13,0-6.78,2.47-6.78,6.51a8.39,8.39,0,0,0,.33,2.45,6.11,6.11,0,0,0,2.7,3.46,5.69,5.69,0,0,0,2.81.69,4.38,4.38,0,0,0,2.7-.67V47.82c0-1.59-.27-1.74-1.41-2Zm20.53,3h.33v3.08H396.76v-.33c1.29-.22,1.34-1,1.34-2.32v-11c0-1.07-.13-1.74-1.34-1.81v-.33H407v3h-.36c-.28-1.27-.75-1.34-1.71-1.34h-3.79V42.4h2.94c1.39,0,1.83-.33,2-1.38h.34v4.42h-.34c-.29-1.31-.84-1.34-2.25-1.34h-2.7v3.68c0,1.85.31,2.07,2.1,2.07H406C407.29,49.85,407.67,49.78,408,48.47Z" fill="#164613"/></svg>