<svg data-name="Layer 1" xmlns="http://www.w3.org/2000/svg" viewBox="0 0 522.56 341.11"><path d="M310.53 286.41H0v28.73h311.72c-2.08-2.91-3.49-7.35-3.49-13.75a51.38 51.38 0 0 1 2.3-14.98zm190.47 0c-8.2 11.66-22.67 19.59-38.76 19.59-17.13 0-29.17-8.62-34.84-13.75-6.12 5-19.09 13.75-35.41 13.75-17.63 0-29.91-8.32-36.53-19.59h-17.92c-3 13.77-5.79 23.47-9.65 28.73h179.89v-28.73z" fill="#7d7c7c"/><path d="M447 189.43c0-13.54-9.53-23-9.53-23h-2.57a13.86 13.86 0 0 1-4.84 7.46c-6.22-9.41-2.19-20.55-2.19-20.55h-3.3s-21.77 13.58-21.77 35.46c0 17.29 24.51 27.45 24.51 27.45S447 206 447 189.43z" fill="#f0ac00"/><path d="M27.2 138.85c-9 0-11-2.92-11-10.84 0-5.83 3-18.34 4.79-30h24.6c2.81 12.09 5.84 28.77 5.84 33.14 0 6-.42 7.72-8.24 7.72v7.08h54.37v-7.08c-6 0-7.92-2.09-7.92-8.76V2.5L71.93 3.76v7.09c6 0 7.92 2.09 7.92 8.76v110.48c0 6.64-1.86 8.73-7.83 8.76S63.66 135 60.55 119L37.73 1.67H34L12.92 116.75c-2.29 12.72-4.48 22.1-12.92 22.1v7.08h27.2zM32.83 34.4l11 54.83H22.4zm68.37-14.8v104.24a211.66 211.66 0 0 1-1.35 22.51l3.54-.83c.73-2.92 1.57-8.34 3.76-8.34 2.5 0 6.77 11.25 15.32 11.25 12.92 0 24.59-23.77 24.59-52.74 0-28.15-9.27-50.24-22.51-50.24-5.84 0-10.21 6.26-13.34 17.51H111V2.5L93.9 3.76v7.09c5.43-.01 7.3 2.08 7.3 8.75zm9.8 78c0-26.27 4.8-45 12.72-45 9 0 12.71 18.76 12.71 45 0 24.39-3.75 43.78-13.54 43.78-8.44 0-11.88-10.43-11.88-34.19z" fill="#0d3692"/><path d="M154.56 80.89c3.55 0 6-5.84 6-12.09 0-5.84-1.67-10-4.48-11.05 3.12-4 6.15-5.21 9.8-5.21 4 0 10.73 2.5 10.73 12.93v19.38c-8.85 6.05-30.85 15.64-30.85 39.61 0 16.26 7.3 24 14.69 24 7.72 0 13.86-4.59 16.78-20h.21c.84 10.84 2.29 18.76 8.45 18.76 7.39 0 10.73-11.88 10.73-25.44h-2.92c0 5-.73 14.6-4.07 14.6-2 0-3.23-1.25-3.23-11.68V74.22c0-22.1-6.67-28.77-20.22-28.77-9.48 0-17.71 10.63-17.71 23.35.05 6.26 2.53 12.09 6.09 12.09zm22.1 28.77c0 17.72-5.73 30-12.29 30-4.9 0-7.29-6.67-7.29-16.05a35.82 35.82 0 0 1 19.59-32.1z" fill="#0d3692"/><path d="M202.83 63.8v66.29c0 6.67-1.87 8.76-7.4 8.76v7.08h25.33v-7.08c-6.25 0-8.13-2.09-8.13-8.76V89c0-15.85 5-35.23 12.71-35.23 3.86 0 8.34 4.38 8.34 22.52v69.63h17.2v-7.08c-5.52 0-7.4-2.09-7.4-8.76V83.6c0-30.43-8.13-38.15-15.52-38.15-7.19 0-12.19 7.92-15.95 20.84h-.21V46.7L195.43 48v7c5.57 0 7.4 2.13 7.4 8.8z" fill="#0d3692"/><path d="M251.3 63.8l17.19 83.2c-1.77 11.47-5.84 29.81-12.3 29.81-1.35 0-2.4-1-3.33-2.5 2.4-1.67 4.07-5.84 4.07-11.47 0-4.79-1.67-10.42-5.83-10.42s-6.26 6-6.26 13.14c0 11.46 4.17 18.34 10.43 18.34 10.94 0 14.9-18.56 23-61.5l11-58.37c1.57-7.92 2.7-9 7.19-9V48h-19.11v7c5.94 0 7.19 1.46 7.19 6.88 0 5.83-1.77 11-11.26 60.67h-.21c-10.21-50.66-12-59-12-63.17 0-3.75.84-4.38 6.88-4.38v-7h-23.74v7c4.79 0 5.53 1.29 7.09 8.8zm69.11 73.79c4 0 7.71 10.84 17.51 10.84 13.86 0 25-17.51 25-46.48 0-51.29-41.68-29.81-41.68-69.64 0-16.68 5.94-25.22 13.86-25.22 12.09 0 18 23.14 20.74 43.78h2.92V2.5h-3.55c-.31 2.09-1.67 9.59-3.22 9.59-2.5 0-7.51-12.1-17-12.1C323.85 0 312.7 14.6 312.7 39.61c0 55.46 41.69 27.73 41.69 74.63 0 16.89-7.71 27.11-15.53 27.11-13 0-21.37-25-23.34-48.37h-2.92v54.2h2.92c1.24-5.18 2.18-9.59 4.89-9.59z" fill="#0d3692"/><path d="M485.68 45.45c-12.92 0-22.92 23.77-22.92 51.49a109.8 109.8 0 0 0 1.57 18.72v3.18c0 16.68-3.54 22.52-7.6 22.52-3 0-5.73-2.09-5.73-10.84V55h14.48v-7H451V15.43h-3.76c-2.7 25.43-4 30.85-13.65 32.52V55h7.6v66.71h-2c0 5-.73 14.6-4.06 14.6-2 0-3.23-1.25-3.23-11.68V74.22c0-22.1-6.67-28.77-20.22-28.77-9.47 0-17.68 10.63-17.68 23.35 0 6.26 2.5 12.09 6 12.09s6-5.84 6-12.09c0-5.84-1.67-10-4.48-11.05 3.12-4 6.15-5.21 9.8-5.21 4 0 10.73 2.5 10.73 12.93v19.38c-8.86 6.05-30.85 15.64-30.85 39.61v1.91c-.92 10.95-3.94 15-7.32 15-3 0-5.73-2.09-5.73-10.84V55h14.48v-7h-14.37V15.43h-3.76c-2.71 25.43-4 30.85-13.65 32.52V55h7.61v68c0 20.64 5.63 25.43 12.93 25.43 6.28 0 9.78-4.33 11.55-12 2.58 8.07 7.78 12 13 12 7.7 0 13.86-4.59 16.78-20h.21c.83 10.84 2.29 18.76 8.44 18.76 5.64 0 8.91-6.9 10.16-16.17 1.33 13.91 6.34 17.42 12.57 17.42 8.61 0 12-8.13 12.87-21.72 4.12 13 10.87 21.72 18.68 21.72 11.16 0 16.89-9.17 21.58-22.93l-2.5-3.33c-4 10.62-8.65 19.18-15.63 19.18-9 0-15.12-16.27-15.12-45h33.77c.03-33.82-9.87-50.91-22.07-50.91zm-63.57 64.21c0 17.72-5.73 30-12.29 30-4.9 0-7.3-6.67-7.3-16.05a35.82 35.82 0 0 1 19.59-32.1zm63.36-57.13c10.21 0 11.67 21.69 11.67 36.7H474c0-15.01 1.47-36.69 11.48-36.69zM9.92 175.16v68.28c0 24 10.19 34.65 26 34.65 14.82 0 25.62-13.72 25.62-38.43V180.3c0-9.26 1-16.46 10.09-16.46V158H46.87v5.83c10 0 11 7.2 11 16.46v58c0 19.21-5.66 34-20.69 34-11.32 0-16.77-10-16.77-28.31v-68.82c0-8.24 1.75-11.32 9.88-11.32V158H0v5.83c8.17.01 9.92 3.09 9.92 11.33zM118.39 159c-2.57 0-4.8 4.12-4.8 9.61s2.23 9.61 4.8 9.61 4.81-4.12 4.81-9.61-2.2-9.61-4.81-9.61z" fill="#0d3692"/><path d="M88.37 200.21c3.17 0 6.86 3.6 6.86 18.53V276h34.65v-5.83c-5 0-6.52-1.71-6.52-7.21v-68.59l-14.58 1v5.83c5 0 6.51 1.72 6.51 7.2V263c0 5.37-1.48 7.12-6.21 7.2-4.32-.08-5.8-1.83-5.8-7.2v-38.26c0-25-6.69-31.39-12.79-31.39-5.91 0-10 6.52-13.12 17.16h-.17v-16.14l-13.47 1v5.83c4.55 0 6.09 1.72 6.09 7.2V263c0 5.49-1.54 7.21-6.09 7.21V276h20.86v-5.83c-5.14 0-6.68-1.71-6.68-7.21V229.2c0-13.04 4.09-28.99 10.46-28.99zm56.43 1.03v-5.83h-20.33v5.83c4 0 5.06 1.89 6.43 8.57L144.8 276h3.86l13.9-66.22c1.28-5.83 3.34-8.57 7.2-8.57v-5.83h-16.3v5.83c4.81 0 5.83 1 5.83 6.51 0 4.63-1.89 10.64-10.21 50.44h-.17c-8.58-42.37-10.21-48.72-10.21-52 .01-4.24 1.12-4.92 6.1-4.92z" fill="#0d3692"/><path d="M183.48 278.09c9.18 0 13.9-7.54 17.75-18.87l-2.06-2.74c-3.26 8.75-7.12 15.78-12.86 15.78-7.37 0-12.44-13.38-12.44-37.05h27.79c0-27.8-8.14-41.86-18.18-41.86-10.63 0-18.87 19.55-18.87 42.37s8.24 42.37 18.87 42.37zm-.17-78.91c8.4 0 9.6 17.84 9.6 30.19h-19c-.03-12.37 1.17-30.19 9.4-30.19z" fill="#0d3692"/><path d="M227.92 214.27c2.66 0 4.54-4.46 4.54-9.09 0-5.15-2.06-11.84-6.77-11.84-7.12 0-10 10.64-11.75 24.36h-.17v-23.33l-13.64 1v5.83c4.64 0 6.18 1.72 6.18 7.2V263c0 5.49-1.54 7.21-6.52 7.21V276h22.64v-5.83c-7.55 0-8.06-3.09-8.06-17.33 0-32.6 4.28-53.7 10-53.7a2.14 2.14 0 0 1 1.11.34 11.05 11.05 0 0 0-1.8 6.69c.04 4.83 1.5 8.1 4.24 8.1zm8.92 57.31c2.66 0 5 6.51 12.78 6.51 8.4 0 16-9.43 16-27.79 0-31.74-26.33-18.53-26.33-39.46 0-8.58 4-11.67 7.8-11.67 7.38 0 10.47 7.72 13 20.59H263v-25.04h-2.92c-.17 1.72-.6 4.46-2 4.46s-3.86-5.83-11.15-5.83c-7.8 0-14.58 8.75-14.58 23.84 0 30.71 26.33 17 26.33 40.83 0 9.26-5.15 14.24-9.18 14.24-7.63 0-13.21-10.12-15-24.71h-2.4v29.51h2.4c.37-2.06.8-5.48 2.34-5.48zm29.41-1.37V276h21.1v-5.83c-5 0-6.52-1.71-6.52-7.21v-68.59l-14.58 1v5.83c5 0 6.52 1.72 6.52 7.2V263c0 5.49-1.54 7.21-6.52 7.21zm14.41-101.57c0-5.49-2.23-9.61-4.8-9.61s-4.81 4.12-4.81 9.61 2.23 9.61 4.81 9.61 4.8-4.12 4.8-9.61zM309 253.73c0 13.73-2.91 18.53-6.26 18.53-2.49 0-4.72-1.71-4.72-8.92v-62.1H310v-5.83h-11.94v-26.77H295c-2.23 20.93-3.26 25.4-11.23 26.77v5.83H290v55.93c0 17 4.63 20.93 10.63 20.93 8.49 0 10.81-9.6 10.81-25v-2.91H309zm46.08-52.49v-5.83H339.3v5.83c4.89 0 5.91 1.2 5.91 5.66 0 4.8-1.45 9.09-9.26 49.92h-.17c-8.41-41.69-9.86-48.55-9.86-52 0-3.09.69-3.6 5.66-3.6v-5.83H312v5.83c4 0 4.55 1 5.83 7.2L332 276.89c-1.46 9.44-5.89 33.76-11.21 33.76-1.12 0-2-.86-2.74-2.06 2-1.38 3.35-4.81 3.35-9.44 0-3.95-1.38-8.58-4.81-8.58s-5.15 5-5.15 10.81c0 9.43 3.43 15.1 8.58 15.1 9 0 13.35-24.5 20-59.83l9.09-48c1.34-6.55 2.28-7.41 5.97-7.41zM20.3 322.52v.79h.62c2.35 0 3.05.24 3.05 1.75v8.28a5.83 5.83 0 0 1-1.55 4.35c-1.39 1.38-4.21 1.79-6.57 1.79-5.06 0-8.15-1.06-7.92-4.77v-9.09c0-2 0-2.22 3.67-2.34v-.79c-1.86.08-3.67.13-5.57.13s-3.71-.05-5.45-.13v.79c3.71.13 3.67.31 3.67 2.34V335a4.52 4.52 0 0 0 1 3.41c1.85 2.32 6.07 2.68 9.59 2.68a26.54 26.54 0 0 0 5.22-.55 9.24 9.24 0 0 0 4-2.08 5.3 5.3 0 0 0 1.7-3.8v-9.61c0-1.51.74-1.75 3.17-1.75h.62v-.79c-1.51.08-3.05.13-4.6.13s-3.1-.04-4.65-.12zM46.59 327v.58h.47c1.77 0 2.29.18 2.29 1.31v9.72L35.65 327c-.84.06-1.65.1-2.49.1s-1.69 0-2.53-.1v.58H31c1.62 0 2.09.2 2.09 1.33v9.83c0 1.14-.53 1.31-2.29 1.31h-.46v.59c1.16-.06 2.32-.1 3.48-.1s2.33 0 3.46.1v-.59h-.46c-1.83 0-2.38-.17-2.38-1.31v-9.54l14 11.48 2.29.27-.09-.72v-11.29c0-1.13.56-1.31 2.38-1.31h.46V327c-1.13.06-2.29.1-3.46.1s-2.27-.02-3.43-.1zm8.32 0v.58c2.79.1 2.76.24 2.76 1.76v9c0 1.52 0 1.66-2.76 1.76v.59c1.3-.06 2.67-.1 4.09-.1s2.79 0 4.18.1v-.59c-2.78-.1-2.75-.23-2.75-1.76v-9c0-1.52 0-1.67 2.75-1.76V327c-1.39.06-2.75.1-4.18.1s-2.79-.02-4.09-.1zm23.24 0v.58c3.48-.07 2.58.79 2 1.88l-1.25 2.37-3.81 6.37-4.52-7.72-1.1-2.17c-.2-.4-.38-.77 2.41-.73V327c-1.28.06-2.55.1-3.86.1s-2.58 0-3.85-.1v.58h.55c1.59.15 1.36.23 2 1.29l5.25 8.8 1 1.78.64 1.27h1.44l2.06-3.62 4.85-8c.52-.86.58-1.58 2.43-1.51V327c-1 .06-2.06.1-3.12.1s-2.08-.02-3.12-.1zm22.1 11.46a3.77 3.77 0 0 1-.35 1 24.69 24.69 0 0 1-4.68.33c-1.39 0-2.87 0-3.94-.1a6.86 6.86 0 0 1-.15-1.68v-3.78c6.56-.16 6.76-.27 6.76 1.93h1v-4.51h-1c0 1.92-.43 1.68-6.76 1.64v-3.66a6.43 6.43 0 0 1 .15-1.62c1-.09 2.31-.09 3.59-.09a21.23 21.23 0 0 1 4.32.33 6.22 6.22 0 0 1 .4 1.92h.9c0-.41.09-.74.09-1.16a4.62 4.62 0 0 1 .46-1.9c-1-.1-3-.08-4.81-.1s-3.52.1-5.31.1-3.55 0-5.32-.1v.58c2.78.1 2.76.24 2.76 1.76v9c0 1.31-1 1.72-2.49 1.76v.59c1.77-.06 3.48-.1 5.25-.1s3.51 0 5.22.1 3.75 0 4.82-.1V339a5.44 5.44 0 0 1 .29-1.58h-1zm13.39-4.69c2.81-.37 5.66-1.64 5.66-3.77 0-1.64-1.86-3.11-5.86-3-1.68.06-3.37.1-5.08.1s-3.39 0-5-.1v.58c2.79.1 2.75.24 2.75 1.76v9c0 1.52 0 1.66-2.75 1.76v.59c1.31-.06 2.67-.1 4.1-.1s2.78 0 4.18.1v-.59c-2.79-.1-2.76-.23-2.76-1.76v-9A3 3 0 0 1 109 328a16.11 16.11 0 0 1 2.9-.26c2.15 0 4.47.63 4.47 2.74 0 1.45-1.74 2.5-3.77 2.73a17.61 17.61 0 0 1-2.67.08l-.12.29 6.91 6c.41.33.72.69 1.19 1.1.67-.06 1.3-.1 2-.1s1.33 0 2 .1v-.59a3.12 3.12 0 0 1-1.66-.55zm11.36-3.36c0-1.68 2-2.8 4.41-2.8 1.36 0 3.43.32 4.21 1.13.29.32.29.82.29 1.57h1c0-.59.14-1.16.2-1.74a6.4 6.4 0 0 1 .23-.94 22.36 22.36 0 0 0-5.62-.9c-3.74 0-7.11 1.71-7.11 4.38 0 5.69 11.49 1.27 11.49 6 0 1.93-2.55 3-5.17 3a9.66 9.66 0 0 1-4.49-.89 1.06 1.06 0 0 1-.41-1v-.92h-1v.55a23.07 23.07 0 0 1-.21 2.44 17.9 17.9 0 0 0 5 .75c4.32 0 8.76-1.61 8.76-4.95-.02-4.96-11.58-1.44-11.58-5.68zm12.95-3.41v.58c2.78.1 2.76.24 2.76 1.76v9c0 1.52 0 1.66-2.76 1.76v.59c1.3-.06 2.67-.1 4.09-.1s2.78 0 4.17.1v-.59c-2.78-.1-2.75-.23-2.75-1.76v-9c0-1.52 0-1.67 2.75-1.76V327c-1.39.06-2.75.1-4.17.1s-2.79-.02-4.09-.1zm9.54 0c.09.72.12 1.41.15 2.09v1.1h.87a7.8 7.8 0 0 1 .32-1.51c.05-.51.4-.56 1-.58l4.47-.1a19.44 19.44 0 0 1 .12 2v8.37c0 1.52 0 1.66-2.76 1.76v.59c1.3-.06 2.67-.1 4.09-.1s2.79 0 4.18.1v-.59c-2.79-.1-2.76-.23-2.76-1.76V330a17.77 17.77 0 0 1 .11-2l4.53.1c.61 0 1 .08 1 .58a8.15 8.15 0 0 1 .32 1.51h.87v-1.1c0-.68.06-1.37.15-2.09-2.81.06-5.57.1-8.39.1s-5.51-.02-8.27-.1zm30.78 3.74l-3 3.19-4.15-5.1a15.64 15.64 0 0 0-1.28-1.27 2.11 2.11 0 0 0-1.77-.65l-3.08.41v.57c2.06-.16 3.83 1.76 4.79 2.88l3.48 4.1a1 1 0 0 1 .14.6v2.88c0 1.52 0 1.66-2.75 1.76v.59c1.31-.06 2.67-.1 4.09-.1s2.79 0 4.18.1v-.59c-2.79-.1-2.76-.23-2.76-1.76v-2.62a2.44 2.44 0 0 1 .41-1.47 43.46 43.46 0 0 1 7.14-6.94V327h-2.31c-.96 1.28-2.03 2.49-3.13 3.74zm17.8-3.74c0-2.24 2.71-3.72 5.88-3.72 1.81 0 4.56.41 5.6 1.51.39.41.39 1.09.39 2.08h1.31c0-.78.19-1.54.27-2.32a7.67 7.67 0 0 1 .31-1.25 29.92 29.92 0 0 0-7.5-1.2c-5 0-9.47 2.26-9.47 5.84 0 7.57 15.31 1.69 15.31 8 0 2.58-3.41 4-6.89 4a12.91 12.91 0 0 1-6-1.2 1.42 1.42 0 0 1-.54-1.36v-1.23h-1.32v.73a31.12 31.12 0 0 1-.27 3.26 24.3 24.3 0 0 0 6.61 1c5.76 0 11.67-2.13 11.67-6.58.03-6.56-15.36-1.88-15.36-7.56zm29.77 3.74l-3 3.19-4.15-5.1a16.18 16.18 0 0 0-1.28-1.27 2.1 2.1 0 0 0-1.77-.65l-3.07.41v.57c2.06-.16 3.82 1.76 4.79 2.88l3.48 4.1a1 1 0 0 1 .15.6v2.88c0 1.52 0 1.66-2.76 1.76v.59c1.31-.06 2.68-.1 4.1-.1s2.78 0 4.17.1v-.59c-2.79-.1-2.75-.23-2.75-1.76v-2.62a2.45 2.45 0 0 1 .4-1.47 43.46 43.46 0 0 1 7.14-6.94V327H229c-1 1.28-2.05 2.49-3.16 3.74zm8.88-.33c0-1.68 2-2.8 4.41-2.8 1.36 0 3.42.32 4.21 1.13.29.32.29.82.29 1.57h1c0-.59.14-1.16.2-1.74a6.06 6.06 0 0 1 .23-.94 22.46 22.46 0 0 0-5.62-.9c-3.75 0-7.11 1.71-7.11 4.38 0 5.69 11.49 1.27 11.49 6 0 1.93-2.55 3-5.16 3a9.7 9.7 0 0 1-4.5-.89 1.06 1.06 0 0 1-.4-1v-.92h-1v.55a21.43 21.43 0 0 1-.21 2.44 18 18 0 0 0 5 .75c4.32 0 8.76-1.61 8.76-4.95-.04-4.96-11.59-1.44-11.59-5.68zm12.7-3.41c.09.72.11 1.41.14 2.09a10.27 10.27 0 0 1 0 1.1h.86a8.09 8.09 0 0 1 .32-1.51c.06-.51.4-.56 1-.58l4.47-.1a17.6 17.6 0 0 1 .11 2v8.37c0 1.52 0 1.66-2.75 1.76v.59c1.31-.06 2.67-.1 4.09-.1s2.79 0 4.17.1v-.59c-2.78-.1-2.75-.23-2.75-1.76V330a17.28 17.28 0 0 1 .12-2l4.52.1c.61 0 1 .08 1 .58a8.33 8.33 0 0 1 .32 1.51h.96v-1.1c0-.68.06-1.37.14-2.09-2.81.06-5.57.1-8.38.1s-5.58-.02-8.34-.1zm32.63 11.46a3.55 3.55 0 0 1-.35 1 24.66 24.66 0 0 1-4.67.33c-1.39 0-2.87 0-3.94-.1a6.89 6.89 0 0 1-.15-1.68v-3.78c6.56-.16 6.76-.27 6.76 1.93h1v-4.51h-1c0 1.92-.43 1.68-6.76 1.64v-3.66a6.47 6.47 0 0 1 .15-1.62c1-.09 2.32-.09 3.6-.09a21.26 21.26 0 0 1 4.32.33 6.53 6.53 0 0 1 .41 1.92h.89c0-.41.09-.74.09-1.16a4.64 4.64 0 0 1 .47-1.9c-1-.1-3-.08-4.82-.1s-3.51.1-5.31.1-3.55 0-5.31-.1v.58c2.78.1 2.76.24 2.76 1.76v9c0 1.31-1 1.72-2.5 1.76v.59c1.77-.06 3.48-.1 5.25-.1s3.51 0 5.22.1 3.75 0 4.82-.1V339a5.46 5.46 0 0 1 .29-1.58h-1zm26.34-.11v-9.41c0-1.13.53-1.31 2.26-1.33h.43V327c-.9.06-1.83.1-2.75.1s-1.86 0-2.75-.1a15.58 15.58 0 0 1-1.57 2.6l-6 8.29-7.64-10.89c-.9.06-1.83.1-2.76.1s-1.86 0-2.76-.1v.58h.46c1.77 0 2.29.18 2.29 1.31v9.83c0 1.14-.52 1.31-2.29 1.31h-.46v.59c1.16-.06 2.32-.1 3.48-.1s2.32 0 3.45.1v-.59h-.46c-1.83 0-2.38-.17-2.38-1.31v-9.4l8.06 11.53h.58l8-11.48v9c0 1.52 0 1.66-2.76 1.76v.59c1.31-.06 2.67-.1 4.09-.1s2.79 0 4.17.1v-.59c-2.72-.13-2.69-.26-2.69-1.78zm22.91-11.62c-6.72-.05-10.9 3.07-10.9 7.06 0 4.46 4.41 7.2 10.3 7.2 6.35 0 11.23-3.36 11.23-7.57s-4.41-6.69-10.63-6.69zm.32 13.42c-5.74 0-8.13-3.58-8.13-7 0-3.21 2.29-5.57 7.34-5.57 5.4 0 8 2.58 8 6.45-.01 3.59-2.36 5.9-7.2 6.12zm17-13.03c-1.8 0-3.54 0-5.32-.1v.58c2.79.1 2.76.24 2.76 1.76v9c0 1.52 0 1.66-2.76 1.76v.59c1.31-.06 2.67-.1 4.1-.1s2.78 0 4.18.1v-.59c-2.79-.1-2.76-.23-2.76-1.76v-4.11c6.56-.16 6.76-.27 6.76 1.93h1v-4.51h-1c0 1.92-.44 1.68-6.76 1.64v-4A4.7 4.7 0 0 1 347 328c1-.09 2.32-.09 3.59-.09a21.32 21.32 0 0 1 4.33.33 6.56 6.56 0 0 1 .4 1.92h.9c0-.41.09-.74.09-1.16a4.65 4.65 0 0 1 .46-1.9c-1-.1-3-.08-4.81-.1s-3.54.12-5.34.12zm35.93 7.2c2.74.08 4.29.05 4.4.6a13 13 0 0 1 0 4c-.31.66-2.47 1-5.45 1-8 0-12.45-3.69-12.45-8.93 0-4.61 4.38-7.84 11.79-7.84a18.62 18.62 0 0 1 6.22 1c2.29.75 1.67 1.35 1.78 3h1.12a35.84 35.84 0 0 1 .85-3.9 53.59 53.59 0 0 0-10-1.17c-9.28 0-15.85 3.62-15.85 9.53 0 6.43 6.95 9.45 15.57 9.45a47.57 47.57 0 0 0 8.43-1c.62-.11 1.2-.24 1.82-.34l-.15-2.45c-.12-1.66-.47-2.94 1.43-3.15v-.65h-9.43zm26.37 4.14a4 4 0 0 1-.35 1 24.58 24.58 0 0 1-4.66.33c-1.4 0-2.88 0-4-.1a7.28 7.28 0 0 1-.14-1.68v-3.78c6.55-.16 6.76-.27 6.76 1.93h1v-4.51h-1c0 1.92-.44 1.68-6.76 1.64v-3.66a6.83 6.83 0 0 1 .14-1.62c1-.09 2.32-.09 3.61-.09a21.32 21.32 0 0 1 4.32.33 6.42 6.42 0 0 1 .4 1.92h.9c0-.41.09-.74.09-1.16a4.63 4.63 0 0 1 .46-1.9c-1-.1-3-.08-4.82-.1s-3.51.1-5.31.1-3.54 0-5.31-.1v.58c2.79.1 2.76.24 2.76 1.76v9c0 1.31-1 1.72-2.49 1.76v.59c1.77-.06 3.48-.1 5.25-.1s3.51 0 5.22.1 3.75 0 4.82-.1V339a5.47 5.47 0 0 1 .29-1.58h-1zm13.89-11.73c-6.74-.05-10.91 3.07-10.91 7.06 0 4.46 4.41 7.2 10.3 7.2 6.36 0 11.23-3.36 11.23-7.57s-4.43-6.69-10.62-6.69zm.32 13.42c-5.74 0-8.13-3.58-8.13-7 0-3.21 2.3-5.57 7.34-5.57 5.39 0 8 2.58 8 6.45-.01 3.59-2.34 5.9-7.21 6.12zm21.98-6.38c2.82-.37 5.67-1.64 5.67-3.77 0-1.64-1.86-3.11-5.86-3-1.69.06-3.37.1-5.08.1s-3.4 0-5-.1v.58c2.78.1 2.76.24 2.76 1.76v9c0 1.52 0 1.66-2.76 1.76v.59c1.31-.06 2.67-.1 4.09-.1s2.78 0 4.17.1v-.59c-2.78-.1-2.75-.23-2.75-1.76v-9a3 3 0 0 1 .17-1.35 16.19 16.19 0 0 1 2.91-.26c2.14 0 4.47.63 4.47 2.74 0 1.45-1.74 2.5-3.77 2.73a17.62 17.62 0 0 1-2.67.08l-.12.29 6.91 6c.4.33.72.69 1.19 1.1.67-.06 1.31-.1 2-.1s1.33 0 2 .1v-.59a3.14 3.14 0 0 1-1.66-.55zm22.22 2.12c2.07.06 3.23 0 3.31.45a9.47 9.47 0 0 1 0 3c-.23.49-1.85.79-4.09.79-6 0-9.33-2.78-9.33-6.71 0-3.46 3.27-5.88 8.85-5.88a14.15 14.15 0 0 1 4.67.72c1.71.57 1.25 1 1.34 2.26h.84a28.43 28.43 0 0 1 .63-2.93 40.42 40.42 0 0 0-7.54-.88c-7 0-11.9 2.72-11.9 7.16 0 4.83 5.22 7.1 11.7 7.1a35.42 35.42 0 0 0 6.32-.75c.47-.07.9-.17 1.37-.25l-.12-1.84c-.08-1.26-.34-2.21 1.08-2.37v-.48h-7.08zm8.99-8.89v.58c2.79.1 2.76.24 2.76 1.76v9c0 1.52 0 1.66-2.76 1.76v.59c1.31-.06 2.67-.1 4.09-.1s2.79 0 4.18.1v-.59c-2.79-.1-2.76-.23-2.76-1.76v-9c0-1.52 0-1.67 2.76-1.76V327c-1.39.06-2.76.1-4.18.1s-2.79-.02-4.09-.1zm28.03 11.05l-6.47-11H497l-6.07 10-1.31 2c-.64 1-.83.83-2.33 1.05v.58c1-.06 2-.1 3.09-.1s2.07 0 3.09.1v-.58c-1-.1-2.28 0-2.28-.64a19.85 19.85 0 0 1 1.8-3.26h7.63l1.64 2.84c.21.35.19.65-.19.79a6.3 6.3 0 0 1-2 .27v.58c1.18-.06 2.36-.1 3.57-.1s2.39 0 3.58.1v-.58a3.14 3.14 0 0 1-1.48-.33 4.68 4.68 0 0 1-1.39-1.72zm-10.88-2.68l3.36-5.71 3.3 5.71zm-65.87-50S440.48 301 462.24 301s41-16.36 41-36.43c0-17.51-12-30.91-27.44-30.91-7.34 0-15.47 2.15-22.17 2.15 0 0-5.95-2.38-5.95-8.27s7-10.48 15.51-10.48a22.74 22.74 0 0 1 13.91 5.27l2.6-4.35s-8.59-8.44-25-8.44c-14.29 0-27.66 10.35-27.66 10.35a39.88 39.88 0 0 0-25.54-9.79c-14.64 0-25.6 9.79-25.6 9.79l2.65 3.55s7.12-5.41 15-5.41 17.91 4.38 17.91 12.71c0 6.83-5.91 6.89-5.91 6.89s-11.13-3.72-19.93-3.72c-13.74 0-30.8 8.5-30.8 31.19 0 17.6 12.55 35.91 37.27 35.91 20.42-.01 35.51-15.64 35.51-15.64zm12.35-28.55s2.79 1.89 8 1.89c6.94 0 13.42-2.4 20.19-2.4 9.3 0 14.24 7.13 14.24 13.31 0 7.59-5.53 12.77-16 12.77-18.71.01-27.83-17.77-26.43-25.57zm-49.43 27.26a15.08 15.08 0 0 1-15.19-15.15c0-8.24 6.37-14.43 15.53-14.43 14.7 0 26 13.87 26 13.87s-10.21 15.7-26.34 15.7z" fill="#0d3692"/><path fill="#0d3692" d="M508.96 333.61L511.31 333.61 511.31 340.69 512.15 340.69 512.15 333.61 514.63 333.61 514.63 332.75 508.96 332.75 508.96 333.61z"/><path fill="#0d3692" d="M521.2 332.75L519.16 339.21 517.13 332.75 515.76 332.75 515.76 340.69 516.61 340.69 516.61 333.94 518.74 340.69 519.59 340.69 521.72 333.94 521.72 340.69 522.56 340.69 522.56 332.75 521.2 332.75z"/></svg>