<svg id="Layer_1" data-name="Layer 1" xmlns="http://www.w3.org/2000/svg" viewBox="0 0 522.56 341.11"><title>Albany-State-COLOR</title><path d="M310.53,286.41H0v28.73H311.72c-2.08-2.91-3.49-7.35-3.49-13.75A51.38,51.38,0,0,1,310.53,286.41Z" fill="#7d7c7c"/><path d="M501,286.41C492.8,298.07,478.33,306,462.24,306c-17.13,0-29.17-8.62-34.84-13.75-6.12,5-19.09,13.75-35.41,13.75-17.63,0-29.91-8.32-36.53-19.59H337.54c-3,13.77-5.79,23.47-9.65,28.73H507.78V286.41Z" fill="#7d7c7c"/><path d="M447,189.43c0-13.54-9.53-23-9.53-23h-2.57a13.86,13.86,0,0,1-4.84,7.46c-6.22-9.41-2.19-20.55-2.19-20.55h-3.3s-21.77,13.58-21.77,35.46c0,17.29,24.51,27.45,24.51,27.45S447,206,447,189.43Z" fill="#f0ac00"/><path d="M27.2,138.85c-9,0-11-2.92-11-10.84,0-5.83,3-18.34,4.79-30h24.6c2.81,12.09,5.84,28.77,5.84,33.14,0,6-.42,7.72-8.24,7.72v7.08H97.56v-7.08c-6,0-7.92-2.09-7.92-8.76V2.5L71.93,3.76v7.09c6,0,7.92,2.09,7.92,8.76V130.09c0,6.64-1.86,8.73-7.83,8.76S63.66,135,60.55,119L37.73,1.67H34L12.92,116.75c-2.29,12.72-4.48,22.1-12.92,22.1v7.08H27.2ZM32.83,34.4l11,54.83H22.4Z" fill="#0d3692"/><path d="M101.2,19.6V123.84a211.66,211.66,0,0,1-1.35,22.51l3.54-.83c.73-2.92,1.57-8.34,3.76-8.34,2.5,0,6.77,11.25,15.32,11.25,12.92,0,24.59-23.77,24.59-52.74,0-28.15-9.27-50.24-22.51-50.24-5.84,0-10.21,6.26-13.34,17.51H111V2.5L93.9,3.76v7.09C99.33,10.84,101.2,12.93,101.2,19.6Zm9.8,78c0-26.27,4.8-45,12.72-45,9,0,12.71,18.76,12.71,45,0,24.39-3.75,43.78-13.54,43.78-8.44,0-11.88-10.43-11.88-34.19Z" fill="#0d3692"/><path d="M154.56,80.89c3.55,0,6-5.84,6-12.09,0-5.84-1.67-10-4.48-11.05,3.12-4,6.15-5.21,9.8-5.21,4,0,10.73,2.5,10.73,12.93V84.85c-8.85,6.05-30.85,15.64-30.85,39.61,0,16.26,7.3,24,14.69,24,7.72,0,13.86-4.59,16.78-20h.21c.84,10.84,2.29,18.76,8.45,18.76,7.39,0,10.73-11.88,10.73-25.44h-2.92c0,5-.73,14.6-4.07,14.6-2,0-3.23-1.25-3.23-11.68V74.22c0-22.1-6.67-28.77-20.22-28.77-9.48,0-17.71,10.63-17.71,23.35C148.52,75.06,151,80.89,154.56,80.89Zm22.1,28.77c0,17.72-5.73,30-12.29,30-4.9,0-7.29-6.67-7.29-16.05a35.82,35.82,0,0,1,19.59-32.1Z" fill="#0d3692"/><path d="M202.83,63.8v66.29c0,6.67-1.87,8.76-7.4,8.76v7.08h25.33v-7.08c-6.25,0-8.13-2.09-8.13-8.76V89c0-15.85,5-35.23,12.71-35.23,3.86,0,8.34,4.38,8.34,22.52v69.63h17.2v-7.08c-5.52,0-7.4-2.09-7.4-8.76V83.6c0-30.43-8.13-38.15-15.52-38.15-7.19,0-12.19,7.92-15.95,20.84h-.21V46.7L195.43,48V55C201,55,202.83,57.13,202.83,63.8Z" fill="#0d3692"/><path d="M251.3,63.8,268.49,147c-1.77,11.47-5.84,29.81-12.3,29.81-1.35,0-2.4-1-3.33-2.5,2.4-1.67,4.07-5.84,4.07-11.47,0-4.79-1.67-10.42-5.83-10.42s-6.26,6-6.26,13.14c0,11.46,4.17,18.34,10.43,18.34,10.94,0,14.9-18.56,23-61.5l11-58.37c1.57-7.92,2.7-9,7.19-9V48H277.35V55c5.94,0,7.19,1.46,7.19,6.88,0,5.83-1.77,11-11.26,60.67h-.21c-10.21-50.66-12-59-12-63.17,0-3.75.84-4.38,6.88-4.38V48H244.21V55C249,55,249.74,56.29,251.3,63.8Z" fill="#0d3692"/><path d="M320.41,137.59c4,0,7.71,10.84,17.51,10.84,13.86,0,25-17.51,25-46.48,0-51.29-41.68-29.81-41.68-69.64,0-16.68,5.94-25.22,13.86-25.22,12.09,0,18,23.14,20.74,43.78h2.92V2.5h-3.55c-.31,2.09-1.67,9.59-3.22,9.59-2.5,0-7.51-12.1-17-12.1C323.85,0,312.7,14.6,312.7,39.61c0,55.46,41.69,27.73,41.69,74.63,0,16.89-7.71,27.11-15.53,27.11-13,0-21.37-25-23.34-48.37h-2.92v54.2h2.92C316.76,142,317.7,137.59,320.41,137.59Z" fill="#0d3692"/><path d="M485.68,45.45c-12.92,0-22.92,23.77-22.92,51.49a109.8,109.8,0,0,0,1.57,18.72v3.18c0,16.68-3.54,22.52-7.6,22.52-3,0-5.73-2.09-5.73-10.84V55h14.48V48H451V15.43h-3.76c-2.7,25.43-4,30.85-13.65,32.52V55h7.6v66.71h-2c0,5-.73,14.6-4.06,14.6-2,0-3.23-1.25-3.23-11.68V74.22c0-22.1-6.67-28.77-20.22-28.77C402.21,45.45,394,56.08,394,68.8c0,6.26,2.5,12.09,6,12.09s6-5.84,6-12.09c0-5.84-1.67-10-4.48-11.05,3.12-4,6.15-5.21,9.8-5.21,4,0,10.73,2.5,10.73,12.93V84.85c-8.86,6.05-30.85,15.64-30.85,39.61,0,.65,0,1.28,0,1.91-.92,10.95-3.94,15-7.32,15-3,0-5.73-2.09-5.73-10.84V55h14.48V48H378.26V15.43H374.5c-2.71,25.43-4,30.85-13.65,32.52V55h7.61v68c0,20.64,5.63,25.43,12.93,25.43,6.28,0,9.78-4.33,11.55-12,2.58,8.07,7.78,12,13,12,7.7,0,13.86-4.59,16.78-20h.21c.83,10.84,2.29,18.76,8.44,18.76,5.64,0,8.91-6.9,10.16-16.17,1.33,13.91,6.34,17.42,12.57,17.42,8.61,0,12-8.13,12.87-21.72,4.12,13,10.87,21.72,18.68,21.72,11.16,0,16.89-9.17,21.58-22.93l-2.5-3.33c-4,10.62-8.65,19.18-15.63,19.18-9,0-15.12-16.27-15.12-45h33.77C507.78,62.54,497.88,45.45,485.68,45.45Zm-63.57,64.21c0,17.72-5.73,30-12.29,30-4.9,0-7.3-6.67-7.3-16.05a35.82,35.82,0,0,1,19.59-32.1Zm63.36-57.13c10.21,0,11.67,21.69,11.67,36.7H474C474,74.22,475.47,52.54,485.48,52.54Z" fill="#0d3692"/><path d="M9.92,175.16v68.28c0,24,10.19,34.65,26,34.65,14.82,0,25.62-13.72,25.62-38.43V180.3c0-9.26,1-16.46,10.09-16.46V158H46.87v5.83c10,0,11,7.2,11,16.46v58c0,19.21-5.66,34-20.69,34-11.32,0-16.77-10-16.77-28.31V175.16c0-8.24,1.75-11.32,9.88-11.32V158H0v5.83C8.17,163.84,9.92,166.92,9.92,175.16Z" fill="#0d3692"/><path d="M118.39,159c-2.57,0-4.8,4.12-4.8,9.61s2.23,9.61,4.8,9.61,4.81-4.12,4.81-9.61S121,159,118.39,159Z" fill="#0d3692"/><path d="M88.37,200.21c3.17,0,6.86,3.6,6.86,18.53V276h34.65v-5.83c-5,0-6.52-1.71-6.52-7.21V194.37l-14.58,1v5.83c5,0,6.51,1.72,6.51,7.2V263c0,5.37-1.48,7.12-6.21,7.2-4.32-.08-5.8-1.83-5.8-7.2V224.74c0-25-6.69-31.39-12.79-31.39-5.91,0-10,6.52-13.12,17.16h-.17V194.37l-13.47,1v5.83c4.55,0,6.09,1.72,6.09,7.2V263c0,5.49-1.54,7.21-6.09,7.21V276H84.59v-5.83c-5.14,0-6.68-1.71-6.68-7.21V229.2C77.91,216.16,82,200.21,88.37,200.21Z" fill="#0d3692"/><path d="M144.8,201.24v-5.83H124.47v5.83c4,0,5.06,1.89,6.43,8.57L144.8,276h3.86l13.9-66.22c1.28-5.83,3.34-8.57,7.2-8.57v-5.83h-16.3v5.83c4.81,0,5.83,1,5.83,6.51,0,4.63-1.89,10.64-10.21,50.44h-.17c-8.58-42.37-10.21-48.72-10.21-52C138.71,201.92,139.82,201.24,144.8,201.24Z" fill="#0d3692"/><path d="M183.48,278.09c9.18,0,13.9-7.54,17.75-18.87l-2.06-2.74c-3.26,8.75-7.12,15.78-12.86,15.78-7.37,0-12.44-13.38-12.44-37.05h27.79c0-27.8-8.14-41.86-18.18-41.86-10.63,0-18.87,19.55-18.87,42.37S172.85,278.09,183.48,278.09Zm-.17-78.91c8.4,0,9.6,17.84,9.6,30.19h-19C173.88,217,175.08,199.18,183.31,199.18Z" fill="#0d3692"/><path d="M227.92,214.27c2.66,0,4.54-4.46,4.54-9.09,0-5.15-2.06-11.84-6.77-11.84-7.12,0-10,10.64-11.75,24.36h-.17V194.37l-13.64,1v5.83c4.64,0,6.18,1.72,6.18,7.2V263c0,5.49-1.54,7.21-6.52,7.21V276h22.64v-5.83c-7.55,0-8.06-3.09-8.06-17.33,0-32.6,4.28-53.7,10-53.7a2.14,2.14,0,0,1,1.11.34,11.05,11.05,0,0,0-1.8,6.69C223.72,211,225.18,214.27,227.92,214.27Z" fill="#0d3692"/><path d="M236.84,271.58c2.66,0,5,6.51,12.78,6.51,8.4,0,16-9.43,16-27.79,0-31.74-26.33-18.53-26.33-39.46,0-8.58,4-11.67,7.8-11.67,7.38,0,10.47,7.72,13,20.59H263V194.72h-2.92c-.17,1.72-.6,4.46-2,4.46s-3.86-5.83-11.15-5.83c-7.8,0-14.58,8.75-14.58,23.84,0,30.71,26.33,17,26.33,40.83,0,9.26-5.15,14.24-9.18,14.24-7.63,0-13.21-10.12-15-24.71h-2.4v29.51h2.4C234.87,275,235.3,271.58,236.84,271.58Z" fill="#0d3692"/><path d="M266.25,270.21V276h21.1v-5.83c-5,0-6.52-1.71-6.52-7.21V194.37l-14.58,1v5.83c5,0,6.52,1.72,6.52,7.2V263C272.77,268.49,271.23,270.21,266.25,270.21Z" fill="#0d3692"/><path d="M280.66,168.64c0-5.49-2.23-9.61-4.8-9.61s-4.81,4.12-4.81,9.61,2.23,9.61,4.81,9.61S280.66,174.13,280.66,168.64Z" fill="#0d3692"/><path d="M309,253.73c0,13.73-2.91,18.53-6.26,18.53-2.49,0-4.72-1.71-4.72-8.92v-62.1H310v-5.83H298.06V168.64H295c-2.23,20.93-3.26,25.4-11.23,26.77v5.83H290v55.93c0,17,4.63,20.93,10.63,20.93,8.49,0,10.81-9.6,10.81-25v-2.91H309Z" fill="#0d3692"/><path d="M355.08,201.24v-5.83H339.3v5.83c4.89,0,5.91,1.2,5.91,5.66,0,4.8-1.45,9.09-9.26,49.92h-.17c-8.41-41.69-9.86-48.55-9.86-52,0-3.09.69-3.6,5.66-3.6v-5.83H312v5.83c4,0,4.55,1,5.83,7.2L332,276.89c-1.46,9.44-5.89,33.76-11.21,33.76-1.12,0-2-.86-2.74-2.06,2-1.38,3.35-4.81,3.35-9.44,0-3.95-1.38-8.58-4.81-8.58s-5.15,5-5.15,10.81c0,9.43,3.43,15.1,8.58,15.1,9,0,13.35-24.5,20-59.83l9.09-48C350.45,202.1,351.39,201.24,355.08,201.24Z" fill="#0d3692"/><path d="M20.3,322.52v.79l.62,0c2.35,0,3.05.24,3.05,1.75v8.28a5.83,5.83,0,0,1-1.55,4.35c-1.39,1.38-4.21,1.79-6.57,1.79-5.06,0-8.15-1.06-7.92-4.77v-9.09c0-2,0-2.22,3.67-2.34v-.79c-1.86.08-3.67.13-5.57.13s-3.71-.05-5.45-.13v.79c3.71.13,3.67.31,3.67,2.34V335a4.52,4.52,0,0,0,1,3.41c1.85,2.32,6.07,2.68,9.59,2.68a26.54,26.54,0,0,0,5.22-.55,9.24,9.24,0,0,0,4-2.08,5.3,5.3,0,0,0,1.7-3.8v-9.61c0-1.51.74-1.75,3.17-1.75l.62,0v-.79c-1.51.08-3.05.13-4.6.13S21.85,322.6,20.3,322.52Z" fill="#0d3692"/><path d="M46.59,327v.58l.47,0c1.77,0,2.29.18,2.29,1.31v9.72L35.65,327c-.84.06-1.65.1-2.49.1s-1.69,0-2.53-.1v.58H31c1.62,0,2.09.2,2.09,1.33v9.83c0,1.14-.53,1.31-2.29,1.31l-.46,0v.59c1.16-.06,2.32-.1,3.48-.1s2.33,0,3.46.1v-.59l-.46,0c-1.83,0-2.38-.17-2.38-1.31v-9.54l14,11.48,2.29.27-.09-.72V328.94c0-1.13.56-1.31,2.38-1.31l.46,0V327c-1.13.06-2.29.1-3.46.1S47.75,327.08,46.59,327Z" fill="#0d3692"/><path d="M54.91,327v.58c2.79.1,2.76.24,2.76,1.76v9c0,1.52,0,1.66-2.76,1.76v.59c1.3-.06,2.67-.1,4.09-.1s2.79,0,4.18.1v-.59c-2.78-.1-2.75-.23-2.75-1.76v-9c0-1.52,0-1.67,2.75-1.76V327c-1.39.06-2.75.1-4.18.1S56.21,327.08,54.91,327Z" fill="#0d3692"/><path d="M78.15,327v.58c3.48-.07,2.58.79,2,1.88l-1.25,2.37-3.81,6.37-4.52-7.72-1.1-2.17c-.2-.4-.38-.77,2.41-.73V327c-1.28.06-2.55.1-3.86.1s-2.58,0-3.85-.1v.58l.55,0c1.59.15,1.36.23,2,1.29l5.25,8.8,1,1.78.64,1.27h1.44l2.06-3.62,4.85-8c.52-.86.58-1.58,2.43-1.51V327c-1,.06-2.06.1-3.12.1S79.19,327.08,78.15,327Z" fill="#0d3692"/><path d="M100.25,338.46a3.77,3.77,0,0,1-.35,1,24.69,24.69,0,0,1-4.68.33c-1.39,0-2.87,0-3.94-.1a6.86,6.86,0,0,1-.15-1.68v-3.78c6.56-.16,6.76-.27,6.76,1.93h1v-4.51h-1c0,1.92-.43,1.68-6.76,1.64v-3.66a6.43,6.43,0,0,1,.15-1.62c1-.09,2.31-.09,3.59-.09a21.23,21.23,0,0,1,4.32.33,6.22,6.22,0,0,1,.4,1.92h.9c0-.41.09-.74.09-1.16a4.62,4.62,0,0,1,.46-1.9c-1-.1-3-.08-4.81-.1s-3.52.1-5.31.1-3.55,0-5.32-.1v.58c2.78.1,2.76.24,2.76,1.76v9c0,1.31-1,1.72-2.49,1.76v.59c1.77-.06,3.48-.1,5.25-.1s3.51,0,5.22.1,3.75,0,4.82-.1V339a5.44,5.44,0,0,1,.29-1.58h-1Z" fill="#0d3692"/><path d="M113.64,333.77c2.81-.37,5.66-1.64,5.66-3.77,0-1.64-1.86-3.11-5.86-3-1.68.06-3.37.1-5.08.1s-3.39,0-5-.1v.58c2.79.1,2.75.24,2.75,1.76v9c0,1.52,0,1.66-2.75,1.76v.59c1.31-.06,2.67-.1,4.1-.1s2.78,0,4.18.1v-.59c-2.79-.1-2.76-.23-2.76-1.76v-9A3,3,0,0,1,109,328a16.11,16.11,0,0,1,2.9-.26c2.15,0,4.47.63,4.47,2.74,0,1.45-1.74,2.5-3.77,2.73a17.61,17.61,0,0,1-2.67.08l-.12.29,6.91,6c.41.33.72.69,1.19,1.1.67-.06,1.3-.1,2-.1s1.33,0,2,.1v-.59a3.12,3.12,0,0,1-1.66-.55Z" fill="#0d3692"/><path d="M125,330.41c0-1.68,2-2.8,4.41-2.8,1.36,0,3.43.32,4.21,1.13.29.32.29.82.29,1.57h1c0-.59.14-1.16.2-1.74a6.4,6.4,0,0,1,.23-.94,22.36,22.36,0,0,0-5.62-.9c-3.74,0-7.11,1.71-7.11,4.38,0,5.69,11.49,1.27,11.49,6,0,1.93-2.55,3-5.17,3a9.66,9.66,0,0,1-4.49-.89,1.06,1.06,0,0,1-.41-1v-.92h-1v.55a23.07,23.07,0,0,1-.21,2.44,17.9,17.9,0,0,0,5,.75c4.32,0,8.76-1.61,8.76-4.95C136.56,331.13,125,334.65,125,330.41Z" fill="#0d3692"/><path d="M137.95,327v.58c2.78.1,2.76.24,2.76,1.76v9c0,1.52,0,1.66-2.76,1.76v.59c1.3-.06,2.67-.1,4.09-.1s2.78,0,4.17.1v-.59c-2.78-.1-2.75-.23-2.75-1.76v-9c0-1.52,0-1.67,2.75-1.76V327c-1.39.06-2.75.1-4.17.1S139.25,327.08,137.95,327Z" fill="#0d3692"/><path d="M147.49,327c.09.72.12,1.41.15,2.09,0,.37,0,.72,0,1.1h.87a7.8,7.8,0,0,1,.32-1.51c.05-.51.4-.56,1-.58l4.47-.1a19.44,19.44,0,0,1,.12,2v8.37c0,1.52,0,1.66-2.76,1.76v.59c1.3-.06,2.67-.1,4.09-.1s2.79,0,4.18.1v-.59c-2.79-.1-2.76-.23-2.76-1.76V330a17.77,17.77,0,0,1,.11-2l4.53.1c.61,0,1,.08,1,.58a8.15,8.15,0,0,1,.32,1.51h.87c0-.38,0-.73,0-1.1,0-.68.06-1.37.15-2.09-2.81.06-5.57.1-8.39.1S150.25,327.08,147.49,327Z" fill="#0d3692"/><path d="M178.27,330.74l-3,3.19-4.15-5.1a15.64,15.64,0,0,0-1.28-1.27,2.11,2.11,0,0,0-1.77-.65l-3.08.41v.57c2.06-.16,3.83,1.76,4.79,2.88l3.48,4.1a1,1,0,0,1,.14.6v2.88c0,1.52,0,1.66-2.75,1.76v.59c1.31-.06,2.67-.1,4.09-.1s2.79,0,4.18.1v-.59c-2.79-.1-2.76-.23-2.76-1.76v-2.62a2.44,2.44,0,0,1,.41-1.47,43.46,43.46,0,0,1,7.14-6.94V327H181.4C180.44,328.28,179.37,329.49,178.27,330.74Z" fill="#0d3692"/><path d="M196.07,327c0-2.24,2.71-3.72,5.88-3.72,1.81,0,4.56.41,5.6,1.51.39.41.39,1.09.39,2.08h1.31c0-.78.19-1.54.27-2.32a7.67,7.67,0,0,1,.31-1.25,29.92,29.92,0,0,0-7.5-1.2c-5,0-9.47,2.26-9.47,5.84,0,7.57,15.31,1.69,15.31,8,0,2.58-3.41,4-6.89,4a12.91,12.91,0,0,1-6-1.2,1.42,1.42,0,0,1-.54-1.36v-1.23h-1.32v.73a31.12,31.12,0,0,1-.27,3.26,24.3,24.3,0,0,0,6.61,1c5.76,0,11.67-2.13,11.67-6.58C211.46,328,196.07,332.68,196.07,327Z" fill="#0d3692"/><path d="M225.84,330.74l-3,3.19-4.15-5.1a16.18,16.18,0,0,0-1.28-1.27,2.1,2.1,0,0,0-1.77-.65l-3.07.41v.57c2.06-.16,3.82,1.76,4.79,2.88l3.48,4.1a1,1,0,0,1,.15.6v2.88c0,1.52,0,1.66-2.76,1.76v.59c1.31-.06,2.68-.1,4.1-.1s2.78,0,4.17.1v-.59c-2.79-.1-2.75-.23-2.75-1.76v-2.62a2.45,2.45,0,0,1,.4-1.47,43.46,43.46,0,0,1,7.14-6.94V327H229C228,328.28,226.95,329.49,225.84,330.74Z" fill="#0d3692"/><path d="M234.72,330.41c0-1.68,2-2.8,4.41-2.8,1.36,0,3.42.32,4.21,1.13.29.32.29.82.29,1.57h1c0-.59.14-1.16.2-1.74a6.06,6.06,0,0,1,.23-.94,22.46,22.46,0,0,0-5.62-.9c-3.75,0-7.11,1.71-7.11,4.38,0,5.69,11.49,1.27,11.49,6,0,1.93-2.55,3-5.16,3a9.7,9.7,0,0,1-4.5-.89,1.06,1.06,0,0,1-.4-1v-.92h-1v.55a21.43,21.43,0,0,1-.21,2.44,18,18,0,0,0,5,.75c4.32,0,8.76-1.61,8.76-4.95C246.27,331.13,234.72,334.65,234.72,330.41Z" fill="#0d3692"/><path d="M247.42,327c.09.72.11,1.41.14,2.09a10.27,10.27,0,0,1,0,1.1h.86a8.09,8.09,0,0,1,.32-1.51c.06-.51.4-.56,1-.58l4.47-.1a17.6,17.6,0,0,1,.11,2v8.37c0,1.52,0,1.66-2.75,1.76v.59c1.31-.06,2.67-.1,4.09-.1s2.79,0,4.17.1v-.59c-2.78-.1-2.75-.23-2.75-1.76V330a17.28,17.28,0,0,1,.12-2l4.52.1c.61,0,1,.08,1,.58a8.33,8.33,0,0,1,.32,1.51H264c0-.38,0-.73,0-1.1,0-.68.06-1.37.14-2.09-2.81.06-5.57.1-8.38.1S250.18,327.08,247.42,327Z" fill="#0d3692"/><path d="M280.05,338.46a3.55,3.55,0,0,1-.35,1,24.66,24.66,0,0,1-4.67.33c-1.39,0-2.87,0-3.94-.1a6.89,6.89,0,0,1-.15-1.68v-3.78c6.56-.16,6.76-.27,6.76,1.93h1v-4.51h-1c0,1.92-.43,1.68-6.76,1.64v-3.66a6.47,6.47,0,0,1,.15-1.62c1-.09,2.32-.09,3.6-.09a21.26,21.26,0,0,1,4.32.33,6.53,6.53,0,0,1,.41,1.92h.89c0-.41.09-.74.09-1.16a4.64,4.64,0,0,1,.47-1.9c-1-.1-3-.08-4.82-.1s-3.51.1-5.31.1-3.55,0-5.31-.1v.58c2.78.1,2.76.24,2.76,1.76v9c0,1.31-1,1.72-2.5,1.76v.59c1.77-.06,3.48-.1,5.25-.1s3.51,0,5.22.1,3.75,0,4.82-.1V339a5.46,5.46,0,0,1,.29-1.58h-1Z" fill="#0d3692"/><path d="M306.39,338.35v-9.41c0-1.13.53-1.31,2.26-1.33h.43V327c-.9.06-1.83.1-2.75.1s-1.86,0-2.75-.1a15.58,15.58,0,0,1-1.57,2.6l-6,8.29L288.37,327c-.9.06-1.83.1-2.76.1s-1.86,0-2.76-.1v.58l.46,0c1.77,0,2.29.18,2.29,1.31v9.83c0,1.14-.52,1.31-2.29,1.31l-.46,0v.59c1.16-.06,2.32-.1,3.48-.1s2.32,0,3.45.1v-.59l-.46,0c-1.83,0-2.38-.17-2.38-1.31v-9.4L295,340.85h.58l8-11.48v9c0,1.52,0,1.66-2.76,1.76v.59c1.31-.06,2.67-.1,4.09-.1s2.79,0,4.17.1v-.59C306.36,340,306.39,339.87,306.39,338.35Z" fill="#0d3692"/><path d="M329.3,326.73c-6.72-.05-10.9,3.07-10.9,7.06,0,4.46,4.41,7.2,10.3,7.2,6.35,0,11.23-3.36,11.23-7.57S335.52,326.73,329.3,326.73Zm.32,13.42c-5.74,0-8.13-3.58-8.13-7,0-3.21,2.29-5.57,7.34-5.57,5.4,0,8,2.58,8,6.45C336.82,337.62,334.47,339.93,329.63,340.15Z" fill="#0d3692"/><path d="M346.62,327.12c-1.8,0-3.54,0-5.32-.1v.58c2.79.1,2.76.24,2.76,1.76v9c0,1.52,0,1.66-2.76,1.76v.59c1.31-.06,2.67-.1,4.1-.1s2.78,0,4.18.1v-.59c-2.79-.1-2.76-.23-2.76-1.76v-4.11c6.56-.16,6.76-.27,6.76,1.93h1v-4.51h-1c0,1.92-.44,1.68-6.76,1.64v-4A4.7,4.7,0,0,1,347,328c1-.09,2.32-.09,3.59-.09a21.32,21.32,0,0,1,4.33.33,6.56,6.56,0,0,1,.4,1.92h.9c0-.41.09-.74.09-1.16a4.65,4.65,0,0,1,.46-1.9c-1-.1-3-.08-4.81-.1S348.42,327.12,346.62,327.12Z" fill="#0d3692"/><path d="M382.55,334.32c2.74.08,4.29.05,4.4.6a13,13,0,0,1,0,4c-.31.66-2.47,1-5.45,1-8,0-12.45-3.69-12.45-8.93,0-4.61,4.38-7.84,11.79-7.84a18.62,18.62,0,0,1,6.22,1c2.29.75,1.67,1.35,1.78,3h1.12a35.84,35.84,0,0,1,.85-3.9,53.59,53.59,0,0,0-10-1.17c-9.28,0-15.85,3.62-15.85,9.53,0,6.43,6.95,9.45,15.57,9.45a47.57,47.57,0,0,0,8.43-1c.62-.11,1.2-.24,1.82-.34l-.15-2.45c-.12-1.66-.47-2.94,1.43-3.15v-.65h-9.43Z" fill="#0d3692"/><path d="M408.92,338.46a4,4,0,0,1-.35,1,24.58,24.58,0,0,1-4.66.33c-1.4,0-2.88,0-4-.1a7.28,7.28,0,0,1-.14-1.68v-3.78c6.55-.16,6.76-.27,6.76,1.93h1v-4.51h-1c0,1.92-.44,1.68-6.76,1.64v-3.66a6.83,6.83,0,0,1,.14-1.62c1-.09,2.32-.09,3.61-.09a21.32,21.32,0,0,1,4.32.33,6.42,6.42,0,0,1,.4,1.92h.9c0-.41.09-.74.09-1.16a4.63,4.63,0,0,1,.46-1.9c-1-.1-3-.08-4.82-.1s-3.51.1-5.31.1-3.54,0-5.31-.1v.58c2.79.1,2.76.24,2.76,1.76v9c0,1.31-1,1.72-2.49,1.76v.59c1.77-.06,3.48-.1,5.25-.1s3.51,0,5.22.1,3.75,0,4.82-.1V339a5.47,5.47,0,0,1,.29-1.58h-1Z" fill="#0d3692"/><path d="M422.81,326.73c-6.74-.05-10.91,3.07-10.91,7.06,0,4.46,4.41,7.2,10.3,7.2,6.36,0,11.23-3.36,11.23-7.57S429,326.73,422.81,326.73Zm.32,13.42c-5.74,0-8.13-3.58-8.13-7,0-3.21,2.3-5.57,7.34-5.57,5.39,0,8,2.58,8,6.45C430.33,337.62,428,339.93,423.13,340.15Z" fill="#0d3692"/><path d="M445.11,333.77c2.82-.37,5.67-1.64,5.67-3.77,0-1.64-1.86-3.11-5.86-3-1.69.06-3.37.1-5.08.1s-3.4,0-5-.1v.58c2.78.1,2.76.24,2.76,1.76v9c0,1.52,0,1.66-2.76,1.76v.59c1.31-.06,2.67-.1,4.09-.1s2.78,0,4.17.1v-.59c-2.78-.1-2.75-.23-2.75-1.76v-9a3,3,0,0,1,.17-1.35,16.19,16.19,0,0,1,2.91-.26c2.14,0,4.47.63,4.47,2.74,0,1.45-1.74,2.5-3.77,2.73a17.62,17.62,0,0,1-2.67.08l-.12.29,6.91,6c.4.33.72.69,1.19,1.1.67-.06,1.31-.1,2-.1s1.33,0,2,.1v-.59a3.14,3.14,0,0,1-1.66-.55Z" fill="#0d3692"/><path d="M467.33,335.89c2.07.06,3.23,0,3.31.45a9.47,9.47,0,0,1,0,3c-.23.49-1.85.79-4.09.79-6,0-9.33-2.78-9.33-6.71,0-3.46,3.27-5.88,8.85-5.88a14.15,14.15,0,0,1,4.67.72c1.71.57,1.25,1,1.34,2.26h.84a28.43,28.43,0,0,1,.63-2.93,40.42,40.42,0,0,0-7.54-.88c-7,0-11.9,2.72-11.9,7.16,0,4.83,5.22,7.1,11.7,7.1a35.42,35.42,0,0,0,6.32-.75c.47-.07.9-.17,1.37-.25l-.12-1.84c-.08-1.26-.34-2.21,1.08-2.37v-.48h-7.08Z" fill="#0d3692"/><path d="M476.32,327v.58c2.79.1,2.76.24,2.76,1.76v9c0,1.52,0,1.66-2.76,1.76v.59c1.31-.06,2.67-.1,4.09-.1s2.79,0,4.18.1v-.59c-2.79-.1-2.76-.23-2.76-1.76v-9c0-1.52,0-1.67,2.76-1.76V327c-1.39.06-2.76.1-4.18.1S477.62,327.08,476.32,327Z" fill="#0d3692"/><path d="M504.35,338.05l-6.47-11H497l-6.07,10-1.31,2c-.64,1-.83.83-2.33,1.05v.58c1-.06,2-.1,3.09-.1s2.07,0,3.09.1v-.58c-1-.1-2.28,0-2.28-.64a19.85,19.85,0,0,1,1.8-3.26h7.63l1.64,2.84c.21.35.19.65-.19.79a6.3,6.3,0,0,1-2,.27v.58c1.18-.06,2.36-.1,3.57-.1s2.39,0,3.58.1v-.58a3.14,3.14,0,0,1-1.48-.33A4.68,4.68,0,0,1,504.35,338.05Zm-10.88-2.68,3.36-5.71,3.3,5.71Z" fill="#0d3692"/><path d="M427.6,285.37S440.48,301,462.24,301s41-16.36,41-36.43c0-17.51-12-30.91-27.44-30.91-7.34,0-15.47,2.15-22.17,2.15,0,0-5.95-2.38-5.95-8.27s7-10.48,15.51-10.48a22.74,22.74,0,0,1,13.91,5.27l2.6-4.35s-8.59-8.44-25-8.44c-14.29,0-27.66,10.35-27.66,10.35a39.88,39.88,0,0,0-25.54-9.79c-14.64,0-25.6,9.79-25.6,9.79l2.65,3.55s7.12-5.41,15-5.41,17.91,4.38,17.91,12.71c0,6.83-5.91,6.89-5.91,6.89s-11.13-3.72-19.93-3.72c-13.74,0-30.8,8.5-30.8,31.19,0,17.6,12.55,35.91,37.27,35.91C412.51,301,427.6,285.37,427.6,285.37Zm12.35-28.55s2.79,1.89,8,1.89c6.94,0,13.42-2.4,20.19-2.4,9.3,0,14.24,7.13,14.24,13.31,0,7.59-5.53,12.77-16,12.77C447.67,282.4,438.55,264.62,439.95,256.82Zm-49.43,27.26a15.08,15.08,0,0,1-15.19-15.15c0-8.24,6.37-14.43,15.53-14.43,14.7,0,26,13.87,26,13.87S406.65,284.07,390.52,284.07Z" fill="#0d3692"/><polygon points="508.96 333.61 511.31 333.61 511.31 340.69 512.15 340.69 512.15 333.61 514.63 333.61 514.63 332.75 508.96 332.75 508.96 333.61" fill="#0d3692"/><polygon points="521.2 332.75 519.16 339.21 517.13 332.75 515.76 332.75 515.76 340.69 516.61 340.69 516.61 333.94 518.74 340.69 519.59 340.69 521.72 333.94 521.72 340.69 522.56 340.69 522.56 332.75 521.2 332.75" fill="#0d3692"/></svg>