<svg id="Layer_1" data-name="Layer 1" xmlns="http://www.w3.org/2000/svg" viewBox="0 0 147.74 193.5"><title>atlanta-metro-color</title><path d="M30.4,104.43l-9,2.95-1.4-2.1,6.26-7.13,1.11,1.68-1.41,1.54,1.44,2.18,2-.69Zm-8.2,1v0L26,104l-1-1.52Z"/><path d="M15.7,97.48l1.36-.69,1,1.9,6.8-3.47.87,1.71L18.9,100.4l1,1.9-1.36.69Z"/><path d="M23.65,92.68l-8.57,3.26-.68-1.79,7.14-2.71-1-2.68,1.42-.54Z"/><path d="M21.92,88.34l-9.51-.27-.6-2.45L20.12,81l.48,2-1.85,1,.63,2.54,2.1,0Zm-8.07-1.82v0l4.05-.1-.44-1.77Z"/><path d="M20,80.4l-9.12.87-.24-2.58,6.09-3v0l-6.32.6-.17-1.78,9.12-.87.24,2.51L13.2,79.23v0l6.67-.63Z"/><path d="M10.48,66.47l1.52.06-.08,2.13,7.63.29-.07,1.91-7.63-.29-.08,2.13-1.52-.06Z"/><path d="M19.52,67.61l-8.68-3.88.38-2.5,9.43-1.09-.3,2-2.08.2-.39,2.58,1.93.82Zm-6.76-4.76v0l3.78,1.46.27-1.81Z"/><path d="M21,51.76a2.28,2.28,0,1,1-1.3-3A2.27,2.27,0,0,1,21,51.76Z" fill="#d12033"/><path d="M26.67,44.82,19.2,39.51,21,37l5.91,2.44v0l-4.2-4.85,1.73-2.43,7.47,5.31L30.83,39l-5.76-4.1v0l4.74,5.53-1.06,1.49L22,39.18v0l5.76,4.1Z"/><path d="M32.83,36.59l-6.58-6.38,3.48-3.59,1,1L28.6,29.82l1.62,1.57,2-2,1,1-2,2,1.92,1.86,2.22-2.29,1,1Z"/><path d="M35.53,21.72l1,1.18-1.65,1.35,4.85,5.91-1.48,1.22-4.85-5.91-1.65,1.35-1-1.18Z"/><path d="M43.47,27.44l-1.62,1-4.92-7.73,3-1.9c1.1-.7,2.26-.44,3.1.87a2,2,0,0,1-.23,2.81v0a1.63,1.63,0,0,1,2.37.63,12.56,12.56,0,0,0,1.63,2.16l-1.59,1a4.2,4.2,0,0,1-1.12-1.39c-.59-.92-1-1.76-2.24-1l-.42.27ZM40.67,23l.72-.46c.64-.41.42-1.17.1-1.66-.47-.74-1-.82-1.47-.49l-.72.46Z"/><path d="M45.62,20.75c-1-2.2-2-4.3.88-5.62s3.84.77,4.85,3,2,4.3-.88,5.62S46.63,22.93,45.62,20.75Zm4-1.84c-1-2.13-1.54-3-2.52-2.54s-.68,1.43.3,3.56,1.54,3,2.52,2.54S50.58,21,49.6,18.91Z"/><path d="M51.78,13.08l3.3-1c1.67-.51,2.64.31,3.13,1.91a2.36,2.36,0,0,1-1.65,3.32l-1.36.42,1.09,3.57-1.83.56Zm3,3.28,1-.31a1.14,1.14,0,0,0,.56-1.46c-.22-.72-.6-1.26-1.42-1l-.92.28Z"/><path d="M60.11,15.41c-.39-2.39-.77-4.67,2.35-5.18S66,12,66.35,14.38s.77,4.67-2.35,5.18S60.5,17.78,60.11,15.41Zm4.32-.71c-.38-2.32-.68-3.3-1.75-3.12s-1,1.2-.66,3.52.68,3.3,1.75,3.12S64.81,17,64.43,14.7Z"/><path d="M68.38,18.84,68,9.69l1.91-.08.32,7.63,2.87-.12.06,1.52Z"/><path d="M73.82,18.71l.35-9.16,1.91.07-.35,9.15Z"/><path d="M83.73,10.44,83.54,12l-2.11-.27-1,7.58L78.55,19l1-7.58-2.11-.27.19-1.51Z"/><path d="M81.78,19.34l4.66-8.29,2.45.6.22,9.49-2-.48V18.57l-2.54-.63-1,1.85ZM87.14,13h0l-1.8,3.64,1.77.44Z"/><path d="M89.69,21.36l3.47-8.48,2.4,1-.15,6.8h0l2.41-5.87,1.66.68L96,24l-2.34-1,.23-7.15h0L91.34,22Z"/><path d="M102.36,25a2.28,2.28,0,1,1,3.15-.71A2.27,2.27,0,0,1,102.36,25Z" fill="#d12033"/><path d="M105.69,30.37c-1.85-1.49-1.32-2.85-.25-4l1.49,1.2c-.55.68-1,1.28-.16,1.94a.92.92,0,0,0,1.4-.21c1-1.29-1.91-3.78-.2-5.91.9-1.12,2.15-1.58,4-.12,1.45,1.17,1.65,2.4.35,3.82l-1.45-1.17c.43-.53.78-1.15.17-1.63a.89.89,0,0,0-1.38.14c-1.09,1.36,2,3.65.21,5.9C108.36,32.15,106.83,31.28,105.69,30.37Z"/><path d="M119.44,30.51l-1.09,1.06-1.49-1.52L111.4,35.4,110.06,34l5.46-5.34L114,27.16l1.09-1.06Z"/><path d="M112.39,36.29l8.79-3.63,1.55,2L117,42.25l-1.24-1.59L117.08,39l-1.61-2.06-1.92.84Zm8.11-1.63,0,0-3.66,1.74,1.12,1.44Z"/><path d="M127.57,42.1l-1.3.79-1.11-1.82-6.52,4-1-1.64,6.52-4-1.11-1.82,1.3-.79Z"/><path d="M120,47.47l8.32-3.84,2.1,4.54-1.28.59L127.87,46l-2.05.95L127,49.49l-1.28.59-1.19-2.58-2.43,1.12,1.34,2.89-1.28.59Z"/><path d="M126.11,56.78a2.28,2.28,0,1,1,2.82,1.58A2.27,2.27,0,0,1,126.11,56.78Z" fill="#d12033"/><path d="M129.8,62.59c2.41-.27,4.7-.53,5.06,2.61.22,1.94-.76,2.84-2.73,3l-.21-1.87c1.21-.14,1.64-.4,1.58-1-.12-1.07-1.14-1.1-3.48-.83s-3.33.52-3.2,1.59c.1.88,1.23.72,2,.66l.21,1.88c-2.43.27-3.32-.61-3.53-2.39C125.1,63.12,127.42,62.86,129.8,62.59Z"/><path d="M130.53,69.94c2.42,0,4.73.1,4.67,3.25s-2.37,3.11-4.8,3.06-4.73-.1-4.67-3.25S128.13,69.89,130.53,69.94Zm-.09,4.38c2.35,0,3.36-.07,3.39-1.15s-1-1.24-3.34-1.29-3.36.07-3.39,1.15S128.1,74.27,130.44,74.31Z"/><path d="M125.66,77.43l9.07,1.28-.27,1.9-7.57-1.07-.4,2.84L125,82.17Z"/><path d="M124.83,82.79l8.89,2.2-.46,1.86L125.84,85l-.69,2.78-1.48-.37Z"/><path d="M123.48,88l8.6,3.15-1.72,4.7L129,95.36l1.06-2.9L128,91.69l-1,2.67-1.32-.48,1-2.67-2.51-.92-1.1,3-1.32-.48Z"/><path d="M125,100.34c.75.4,1.48.62,1.95-.28.55-1.06-.88-1.8-2.46-2.62-2.54-1.32-3.12-1.31-3.63-.34a3,3,0,0,0-.28.93l1.8.94.48-.92,1.25.65-1.36,2.62-4.12-2.14a17.53,17.53,0,0,1,.92-2.44c1.49-2.86,2.84-2.57,5.92-1,2,1.07,4.08,2.25,2.63,5-.87,1.67-2.34,2.22-4,1.23Z"/><path d="M117.79,100.27l7.53,5.22-2.85,4.11-1.16-.8,1.76-2.53L121.21,105l-1.62,2.34-1.16-.8,1.62-2.34-2.2-1.53L116,105.26l-1.16-.8Z"/><polygon points="38.91 141.95 47.97 127.71 110.53 127.71 76.14 65.15 26.83 141.95 34.17 154.46 110.53 154.46 113.56 150.15 132.54 150.15 116.14 169.56 26.83 169.56 7.85 141.95 78.17 36.67 132.54 141.09 38.91 141.95" fill="#d12033"/><line x1="16.82" y1="192" x2="131.24" y2="192" fill="none" stroke="#d12033" stroke-miterlimit="10" stroke-width="3"/><path d="M61.58,149.05a.75.75,0,1,1,.75-.75A.76.76,0,0,1,61.58,149.05Z"/><path d="M83.15,149.05a.75.75,0,1,1,.75-.75A.76.76,0,0,1,83.15,149.05Z"/><path d="M21.78,180.83v-.17H24v.17h-.24a.64.64,0,0,0-.57.31,1.42,1.42,0,0,0-.1.67v2.55a4.51,4.51,0,0,1-.19,1.47,1.84,1.84,0,0,1-.74.89,2.62,2.62,0,0,1-1.49.37,2.81,2.81,0,0,1-1.56-.36,1.93,1.93,0,0,1-.76-1,5.32,5.32,0,0,1-.15-1.55v-2.46a1.23,1.23,0,0,0-.16-.76.66.66,0,0,0-.52-.18H17.3v-.17H20v.17h-.24a.62.62,0,0,0-.56.25,1.37,1.37,0,0,0-.12.7v2.74a6,6,0,0,0,.07.84,1.78,1.78,0,0,0,.24.74,1.32,1.32,0,0,0,.51.44,1.76,1.76,0,0,0,.81.17,2.24,2.24,0,0,0,1.1-.27,1.44,1.44,0,0,0,.67-.69,4,4,0,0,0,.18-1.42v-2.54a1.3,1.3,0,0,0-.13-.74.68.68,0,0,0-.54-.2Z"/><path d="M25.64,183.48a2,2,0,0,1,1.42-.9,1,1,0,0,1,.6.17,1.16,1.16,0,0,1,.4.57,2.65,2.65,0,0,1,.1.85V186a1.52,1.52,0,0,0,.06.55.38.38,0,0,0,.16.18.93.93,0,0,0,.42.06v.17h-2.1v-.17h.09a.71.71,0,0,0,.41-.09.48.48,0,0,0,.16-.27,2.73,2.73,0,0,0,0-.44v-1.74a1.77,1.77,0,0,0-.15-.84.54.54,0,0,0-.51-.26,1.53,1.53,0,0,0-1.1.6V186a1.6,1.6,0,0,0,.05.53.43.43,0,0,0,.18.2,1.11,1.11,0,0,0,.46.06v.17h-2.1v-.17h.09a.5.5,0,0,0,.44-.16,1.2,1.2,0,0,0,.11-.63v-1.58a6.85,6.85,0,0,0,0-.93.4.4,0,0,0-.11-.23.29.29,0,0,0-.19-.06.89.89,0,0,0-.31.07l-.07-.17,1.28-.52h.2Z"/><path d="M30.61,182.58V186a1.56,1.56,0,0,0,.06.53.4.4,0,0,0,.17.2.92.92,0,0,0,.41.06v.17H29.19v-.17a1,1,0,0,0,.42-.06.41.41,0,0,0,.17-.2,1.5,1.5,0,0,0,.06-.53v-1.64a5.78,5.78,0,0,0,0-.89.36.36,0,0,0-.1-.21.29.29,0,0,0-.19-.06.93.93,0,0,0-.32.07l-.06-.17,1.28-.52Zm-.38-2.22a.47.47,0,0,1,.47.47.46.46,0,0,1-.14.33.45.45,0,0,1-.33.14.47.47,0,1,1,0-.94Z"/><path d="M31.56,182.7h2v.17h-.13a.39.39,0,0,0-.28.09.31.31,0,0,0-.1.24,1,1,0,0,0,.1.38l1,2.35,1-2.43a1.16,1.16,0,0,0,.11-.39.15.15,0,0,0,0-.11.26.26,0,0,0-.13-.09,1.25,1.25,0,0,0-.32,0v-.17h1.39v.17a.6.6,0,0,0-.33.1,1.18,1.18,0,0,0-.29.46L34,187.08h-.19l-1.52-3.58a1.39,1.39,0,0,0-.19-.36.77.77,0,0,0-.24-.18,1.17,1.17,0,0,0-.31-.08Z"/><path d="M37.24,184.3a2.18,2.18,0,0,0,.46,1.48,1.4,1.4,0,0,0,1.09.54,1.18,1.18,0,0,0,.73-.23,1.69,1.69,0,0,0,.52-.79l.14.09a2.21,2.21,0,0,1-.57,1.16,1.51,1.51,0,0,1-1.17.52,1.71,1.71,0,0,1-1.31-.6,2.28,2.28,0,0,1-.54-1.6,2.42,2.42,0,0,1,.56-1.7,1.82,1.82,0,0,1,1.4-.61,1.57,1.57,0,0,1,1.17.47,1.73,1.73,0,0,1,.46,1.26Zm0-.27h2a1.83,1.83,0,0,0-.1-.57.92.92,0,0,0-.35-.41.87.87,0,0,0-.48-.15,1,1,0,0,0-.69.3A1.3,1.3,0,0,0,37.24,184Z"/><path d="M42,182.58v1q.53-1,1.09-1a.59.59,0,0,1,.42.16.48.48,0,0,1,.17.36.42.42,0,0,1-.12.31.39.39,0,0,1-.29.13.61.61,0,0,1-.36-.16.6.6,0,0,0-.3-.16.28.28,0,0,0-.18.09,2.23,2.23,0,0,0-.43.63v2a1.26,1.26,0,0,0,.09.53.48.48,0,0,0,.21.21.94.94,0,0,0,.44.08v.17H40.55v-.17a.9.9,0,0,0,.48-.1.4.4,0,0,0,.16-.24,2.39,2.39,0,0,0,0-.45v-1.65a6.85,6.85,0,0,0,0-.88.35.35,0,0,0-.11-.21.31.31,0,0,0-.2-.06.92.92,0,0,0-.32.07l0-.17,1.28-.52Z"/><path d="M46.65,182.58V184h-.15a1.88,1.88,0,0,0-.45-.93,1,1,0,0,0-.7-.25.78.78,0,0,0-.52.17.5.5,0,0,0-.2.38.69.69,0,0,0,.15.44,1.64,1.64,0,0,0,.58.4l.68.33a1.38,1.38,0,0,1,.94,1.21,1.14,1.14,0,0,1-.44.93,1.52,1.52,0,0,1-1,.35,3.37,3.37,0,0,1-.89-.14.91.91,0,0,0-.25,0,.18.18,0,0,0-.17.12h-.15V185.5h.15a1.72,1.72,0,0,0,.5,1,1.2,1.2,0,0,0,.82.33.74.74,0,0,0,.52-.19.6.6,0,0,0,.2-.45.72.72,0,0,0-.22-.54,3.93,3.93,0,0,0-.9-.55,2.66,2.66,0,0,1-.88-.6,1,1,0,0,1-.21-.67,1.18,1.18,0,0,1,.36-.88,1.27,1.27,0,0,1,.93-.35,2.18,2.18,0,0,1,.61.11,1.43,1.43,0,0,0,.32.07.19.19,0,0,0,.12,0,.44.44,0,0,0,.1-.14Z"/><path d="M49.06,182.58V186a1.56,1.56,0,0,0,.06.53.4.4,0,0,0,.17.2.92.92,0,0,0,.41.06v.17H47.64v-.17a1,1,0,0,0,.42-.06.41.41,0,0,0,.17-.2,1.5,1.5,0,0,0,.06-.53v-1.64a5.79,5.79,0,0,0,0-.89.36.36,0,0,0-.1-.21.29.29,0,0,0-.19-.06.93.93,0,0,0-.32.07l-.06-.17,1.28-.52Zm-.38-2.22a.47.47,0,0,1,.47.47.46.46,0,0,1-.14.33.45.45,0,0,1-.33.14.47.47,0,1,1,0-.94Z"/><path d="M51.47,181.31v1.4h1V183h-1v2.75a.92.92,0,0,0,.12.56.38.38,0,0,0,.3.14.53.53,0,0,0,.3-.09.62.62,0,0,0,.22-.28h.18a1.45,1.45,0,0,1-.46.68,1,1,0,0,1-.61.23.82.82,0,0,1-.42-.12.71.71,0,0,1-.3-.34,1.78,1.78,0,0,1-.1-.68V183H50v-.15a1.77,1.77,0,0,0,.52-.35A2.76,2.76,0,0,0,51,182a5.23,5.23,0,0,0,.3-.64Z"/><path d="M52.63,182.7h2v.17h-.1a.46.46,0,0,0-.31.09.28.28,0,0,0-.1.22,1.27,1.27,0,0,0,.15.5l1,2.14,1-2.35a1,1,0,0,0,.08-.38.2.2,0,0,0,0-.13.25.25,0,0,0-.12-.08.89.89,0,0,0-.28,0v-.17h1.38v.17a.66.66,0,0,0-.26.07.77.77,0,0,0-.2.21,2.88,2.88,0,0,0-.16.36l-1.73,4.24a2.19,2.19,0,0,1-.66.93,1.29,1.29,0,0,1-.78.32.65.65,0,0,1-.45-.16.47.47,0,0,1-.18-.36.4.4,0,0,1,.13-.31.49.49,0,0,1,.35-.12,1.25,1.25,0,0,1,.42.1l.23.07a.48.48,0,0,0,.3-.14,1.51,1.51,0,0,0,.33-.56l.3-.74-1.52-3.2a2.56,2.56,0,0,0-.22-.36.67.67,0,0,0-.53-.35Z"/><path d="M64,180.52v2.17h-.17a2.71,2.71,0,0,0-.3-1,1.56,1.56,0,0,0-.61-.59,1.7,1.7,0,0,0-.82-.22,1.12,1.12,0,0,0-.8.29.89.89,0,0,0-.32.67.79.79,0,0,0,.2.52,5.12,5.12,0,0,0,1.37.93,9.44,9.44,0,0,1,1.2.73,1.76,1.76,0,0,1,.5.6,1.57,1.57,0,0,1,.17.72,1.63,1.63,0,0,1-.55,1.23,2,2,0,0,1-1.43.52,3,3,0,0,1-.51,0,5.2,5.2,0,0,1-.6-.17,2.69,2.69,0,0,0-.57-.15.24.24,0,0,0-.18.07.55.55,0,0,0-.1.29h-.17v-2.16h.17a3,3,0,0,0,.32,1,1.56,1.56,0,0,0,.62.56,1.93,1.93,0,0,0,.92.22,1.31,1.31,0,0,0,.92-.31,1,1,0,0,0,.34-.72,1,1,0,0,0-.13-.47,1.4,1.4,0,0,0-.4-.44,11.46,11.46,0,0,0-1-.59,9.55,9.55,0,0,1-1.15-.72,1.94,1.94,0,0,1-.52-.59,1.47,1.47,0,0,1-.18-.71,1.55,1.55,0,0,1,.52-1.17,1.85,1.85,0,0,1,1.32-.49,2.65,2.65,0,0,1,1.06.25,1.09,1.09,0,0,0,.37.12.28.28,0,0,0,.2-.07.57.57,0,0,0,.12-.29Z"/><path d="M65,182.7h2v.17h-.1a.46.46,0,0,0-.31.09.28.28,0,0,0-.1.22,1.27,1.27,0,0,0,.15.5l1,2.14,1-2.35a1,1,0,0,0,.08-.38.2.2,0,0,0,0-.13.25.25,0,0,0-.12-.08.89.89,0,0,0-.28,0v-.17h1.38v.17a.66.66,0,0,0-.26.07.77.77,0,0,0-.2.21,2.89,2.89,0,0,0-.16.36l-1.73,4.24a2.19,2.19,0,0,1-.66.93,1.29,1.29,0,0,1-.78.32.65.65,0,0,1-.45-.16.47.47,0,0,1-.18-.36.4.4,0,0,1,.13-.31.49.49,0,0,1,.35-.12,1.25,1.25,0,0,1,.42.1l.23.07a.48.48,0,0,0,.3-.14,1.51,1.51,0,0,0,.33-.56l.3-.74-1.52-3.2a2.56,2.56,0,0,0-.22-.36.67.67,0,0,0-.53-.35Z"/><path d="M72.76,182.58V184h-.15a1.88,1.88,0,0,0-.45-.93,1,1,0,0,0-.7-.25.78.78,0,0,0-.52.17.5.5,0,0,0-.2.38.69.69,0,0,0,.15.44,1.64,1.64,0,0,0,.58.4l.68.33a1.38,1.38,0,0,1,.94,1.21,1.14,1.14,0,0,1-.44.93,1.52,1.52,0,0,1-1,.35,3.37,3.37,0,0,1-.89-.14.91.91,0,0,0-.25,0,.18.18,0,0,0-.17.12H70.2V185.5h.15a1.73,1.73,0,0,0,.5,1,1.2,1.2,0,0,0,.82.33.74.74,0,0,0,.52-.19.6.6,0,0,0,.2-.45.72.72,0,0,0-.22-.54,3.93,3.93,0,0,0-.9-.55,2.66,2.66,0,0,1-.88-.6,1,1,0,0,1-.21-.67,1.18,1.18,0,0,1,.36-.88,1.27,1.27,0,0,1,.93-.35,2.18,2.18,0,0,1,.61.11,1.43,1.43,0,0,0,.32.07.19.19,0,0,0,.12,0,.44.44,0,0,0,.1-.14Z"/><path d="M74.94,181.31v1.4h1V183h-1v2.75a.93.93,0,0,0,.12.56.38.38,0,0,0,.3.14.53.53,0,0,0,.3-.09.62.62,0,0,0,.22-.28h.18a1.45,1.45,0,0,1-.46.68A1,1,0,0,1,75,187a.82.82,0,0,1-.42-.12.71.71,0,0,1-.3-.34,1.78,1.78,0,0,1-.1-.68V183h-.67v-.15a1.77,1.77,0,0,0,.52-.35,2.77,2.77,0,0,0,.47-.58,5.19,5.19,0,0,0,.3-.64Z"/><path d="M77.06,184.3a2.18,2.18,0,0,0,.46,1.48,1.4,1.4,0,0,0,1.09.54,1.18,1.18,0,0,0,.73-.23,1.69,1.69,0,0,0,.52-.79l.14.09a2.21,2.21,0,0,1-.57,1.16,1.51,1.51,0,0,1-1.17.52,1.71,1.71,0,0,1-1.31-.6,2.28,2.28,0,0,1-.54-1.6,2.42,2.42,0,0,1,.56-1.7,1.82,1.82,0,0,1,1.4-.61,1.57,1.57,0,0,1,1.17.47A1.73,1.73,0,0,1,80,184.3Zm0-.27h2a1.82,1.82,0,0,0-.1-.57.92.92,0,0,0-.35-.41.87.87,0,0,0-.48-.15,1,1,0,0,0-.69.3A1.3,1.3,0,0,0,77.06,184Z"/><path d="M81.82,183.48l.55-.53a1.66,1.66,0,0,1,.45-.27,1.27,1.27,0,0,1,.48-.1,1.06,1.06,0,0,1,.69.23,1.15,1.15,0,0,1,.38.67,3.13,3.13,0,0,1,.81-.73,1.43,1.43,0,0,1,.68-.17,1.06,1.06,0,0,1,.6.17,1.15,1.15,0,0,1,.41.57,2.56,2.56,0,0,1,.1.84V186a1.67,1.67,0,0,0,.06.55.39.39,0,0,0,.17.17.87.87,0,0,0,.41.07v.17H85.51v-.17h.09a.74.74,0,0,0,.43-.11.41.41,0,0,0,.15-.24,3,3,0,0,0,0-.45v-1.83a1.54,1.54,0,0,0-.13-.73.63.63,0,0,0-.58-.3,1.11,1.11,0,0,0-.49.12,2.69,2.69,0,0,0-.6.46V186a1.73,1.73,0,0,0,0,.54.39.39,0,0,0,.18.18,1.05,1.05,0,0,0,.46.07v.17H82.94v-.17a1,1,0,0,0,.48-.08.44.44,0,0,0,.18-.25,2.45,2.45,0,0,0,0-.46v-1.83a1.38,1.38,0,0,0-.15-.75.65.65,0,0,0-.57-.3,1,1,0,0,0-.5.13,1.91,1.91,0,0,0-.59.46V186a1.57,1.57,0,0,0,.06.54.4.4,0,0,0,.17.19,1.11,1.11,0,0,0,.46.06v.17h-2.1v-.17a.94.94,0,0,0,.41-.06.4.4,0,0,0,.18-.2,1.53,1.53,0,0,0,.06-.53v-1.62a5.88,5.88,0,0,0,0-.9.37.37,0,0,0-.1-.21.29.29,0,0,0-.19-.06.89.89,0,0,0-.31.07l-.07-.17,1.28-.52h.2Z"/><path d="M92.39,182.58a1.88,1.88,0,0,1,1.55.73,2.25,2.25,0,0,1,.5,1.44,2.7,2.7,0,0,1-.27,1.15,1.94,1.94,0,0,1-1.82,1.18,1.8,1.8,0,0,1-1.52-.76,2.37,2.37,0,0,1-.48-1.45,2.56,2.56,0,0,1,.29-1.16,2,2,0,0,1,.76-.85A2,2,0,0,1,92.39,182.58Zm-.14.3a1,1,0,0,0-.49.15,1,1,0,0,0-.4.51,2.46,2.46,0,0,0-.15.94,3.27,3.27,0,0,0,.37,1.6,1.1,1.1,0,0,0,1,.67.9.9,0,0,0,.74-.37,2.11,2.11,0,0,0,.29-1.27,2.91,2.91,0,0,0-.49-1.78A1,1,0,0,0,92.25,182.88Z"/><path d="M96.72,183v2.79a1.36,1.36,0,0,0,.13.75.57.57,0,0,0,.46.2h.38v.17H95.16v-.17h.19a.64.64,0,0,0,.34-.09.48.48,0,0,0,.21-.25,2.1,2.1,0,0,0,.06-.61V183h-.82v-.33H96v-.28a2.55,2.55,0,0,1,.2-1.08,1.67,1.67,0,0,1,.62-.71,1.7,1.7,0,0,1,.94-.27,1.43,1.43,0,0,1,.89.32.59.59,0,0,1,.27.47.37.37,0,0,1-.12.26.36.36,0,0,1-.26.12.41.41,0,0,1-.23-.08,1.22,1.22,0,0,1-.29-.33,1.16,1.16,0,0,0-.32-.34.6.6,0,0,0-.32-.09.58.58,0,0,0-.36.11.63.63,0,0,0-.21.35,6.6,6.6,0,0,0-.06,1.23v.31h1.09V183Z"/><path d="M106.13,180.52l.16,2h-.16a2.72,2.72,0,0,0-.63-1.12,2,2,0,0,0-1.44-.54,2.05,2.05,0,0,0-1.83,1,3.41,3.41,0,0,0-.52,1.91,3.82,3.82,0,0,0,.35,1.64,2.45,2.45,0,0,0,.91,1.09,2.19,2.19,0,0,0,1.16.35,2.56,2.56,0,0,0,.67-.09,2.69,2.69,0,0,0,.63-.26v-1.82a1.67,1.67,0,0,0-.07-.62.48.48,0,0,0-.22-.22,1.28,1.28,0,0,0-.53-.08v-.18H107v.18h-.12a.52.52,0,0,0-.5.24,1.63,1.63,0,0,0-.09.68v1.92a4.71,4.71,0,0,1-1.05.42,4.6,4.6,0,0,1-1.15.13,3.35,3.35,0,0,1-2.77-1.17,3.12,3.12,0,0,1-.71-2,3.54,3.54,0,0,1,1.7-3,3.18,3.18,0,0,1,1.63-.4,3.22,3.22,0,0,1,.62.06,5.69,5.69,0,0,1,.79.25,1.28,1.28,0,0,0,.35.1.18.18,0,0,0,.15-.08.61.61,0,0,0,.08-.32Z"/><path d="M108.16,184.3a2.18,2.18,0,0,0,.46,1.48,1.4,1.4,0,0,0,1.09.54,1.18,1.18,0,0,0,.73-.23,1.69,1.69,0,0,0,.52-.79l.14.09a2.21,2.21,0,0,1-.57,1.16,1.51,1.51,0,0,1-1.17.52,1.71,1.71,0,0,1-1.31-.6,2.28,2.28,0,0,1-.54-1.6,2.42,2.42,0,0,1,.56-1.7,1.82,1.82,0,0,1,1.4-.61,1.57,1.57,0,0,1,1.17.47,1.73,1.73,0,0,1,.46,1.26Zm0-.27h2a1.82,1.82,0,0,0-.1-.57.92.92,0,0,0-.35-.41.87.87,0,0,0-.48-.15,1,1,0,0,0-.69.3A1.3,1.3,0,0,0,108.16,184Z"/><path d="M113.74,182.58a1.88,1.88,0,0,1,1.55.73,2.25,2.25,0,0,1,.5,1.44,2.7,2.7,0,0,1-.27,1.15,1.94,1.94,0,0,1-1.82,1.18,1.8,1.8,0,0,1-1.52-.76,2.37,2.37,0,0,1-.48-1.45,2.56,2.56,0,0,1,.29-1.16,2,2,0,0,1,.76-.85A2,2,0,0,1,113.74,182.58Zm-.14.3a1,1,0,0,0-.49.15,1,1,0,0,0-.4.51,2.46,2.46,0,0,0-.15.94,3.27,3.27,0,0,0,.37,1.6,1.1,1.1,0,0,0,1,.67.9.9,0,0,0,.74-.37,2.11,2.11,0,0,0,.29-1.27,2.91,2.91,0,0,0-.49-1.78A1,1,0,0,0,113.6,182.88Z"/><path d="M117.65,182.58v1q.53-1,1.09-1a.59.59,0,0,1,.42.16.48.48,0,0,1,.17.36.42.42,0,0,1-.12.31.39.39,0,0,1-.29.13.61.61,0,0,1-.36-.16.6.6,0,0,0-.3-.16.28.28,0,0,0-.18.09,2.23,2.23,0,0,0-.43.63v2a1.26,1.26,0,0,0,.09.53.48.48,0,0,0,.21.21.94.94,0,0,0,.44.08v.17h-2.17v-.17a.9.9,0,0,0,.48-.1.39.39,0,0,0,.16-.24,2.37,2.37,0,0,0,0-.45v-1.65a6.91,6.91,0,0,0,0-.88.35.35,0,0,0-.11-.21.31.31,0,0,0-.2-.06.92.92,0,0,0-.32.07l0-.17,1.28-.52Z"/><path d="M120.54,185.4a1.4,1.4,0,0,1-.81-1.28,1.45,1.45,0,0,1,.47-1.08,1.69,1.69,0,0,1,1.22-.45,1.85,1.85,0,0,1,1.05.3h1.13a.08.08,0,0,1,0,0,.28.28,0,0,1,0,.15.41.41,0,0,1,0,.17l0,0h-.79a1.43,1.43,0,0,1-.19,1.87,1.72,1.72,0,0,1-1.22.42,2.36,2.36,0,0,1-.64-.09,1.22,1.22,0,0,0-.28.31.49.49,0,0,0-.07.23.22.22,0,0,0,.08.15.56.56,0,0,0,.3.11l.65,0q1,0,1.24.06a1.16,1.16,0,0,1,.69.32.87.87,0,0,1,.26.64,1.34,1.34,0,0,1-.49,1,2.65,2.65,0,0,1-1.89.68,2.7,2.7,0,0,1-1.51-.4q-.35-.23-.35-.48a.53.53,0,0,1,.05-.22,2.6,2.6,0,0,1,.32-.48l.47-.5a1.46,1.46,0,0,1-.34-.26.38.38,0,0,1-.1-.26.77.77,0,0,1,.13-.38A3.06,3.06,0,0,1,120.54,185.4Zm0,1.55a2.28,2.28,0,0,0-.33.44.8.8,0,0,0-.11.38.47.47,0,0,0,.27.39,2.56,2.56,0,0,0,1.34.29,2.08,2.08,0,0,0,1.23-.29.81.81,0,0,0,.4-.63.35.35,0,0,0-.24-.34,3.1,3.1,0,0,0-1-.12A15.21,15.21,0,0,1,120.49,186.95Zm.85-4.15a.72.72,0,0,0-.57.27,1.28,1.28,0,0,0-.23.84,1.8,1.8,0,0,0,.32,1.14.75.75,0,0,0,.61.31.73.73,0,0,0,.58-.26,1.26,1.26,0,0,0,.23-.83,1.86,1.86,0,0,0-.32-1.15A.73.73,0,0,0,121.34,182.8Z"/><path d="M125.61,182.58V186a1.55,1.55,0,0,0,.06.53.41.41,0,0,0,.17.2.92.92,0,0,0,.42.06v.17h-2.06v-.17a1,1,0,0,0,.42-.06.41.41,0,0,0,.17-.2,1.51,1.51,0,0,0,.06-.53v-1.64a5.79,5.79,0,0,0,0-.89.36.36,0,0,0-.1-.21.29.29,0,0,0-.19-.06.93.93,0,0,0-.32.07l-.06-.17,1.28-.52Zm-.38-2.22a.47.47,0,0,1,.47.47.46.46,0,0,1-.14.33.45.45,0,0,1-.33.14.47.47,0,1,1,0-.94Z"/><path d="M129.19,186.34a7,7,0,0,1-.82.58,1.26,1.26,0,0,1-.53.12,1,1,0,0,1-.73-.3,1.1,1.1,0,0,1-.29-.79,1,1,0,0,1,.14-.54,1.84,1.84,0,0,1,.66-.59,10.3,10.3,0,0,1,1.56-.68V184a1.38,1.38,0,0,0-.2-.87.73.73,0,0,0-.59-.24.66.66,0,0,0-.46.16.47.47,0,0,0-.18.36v.27a.46.46,0,0,1-.11.33.37.37,0,0,1-.28.12.36.36,0,0,1-.28-.12.47.47,0,0,1-.11-.33,1,1,0,0,1,.41-.73,1.76,1.76,0,0,1,1.14-.33,2,2,0,0,1,.93.19.87.87,0,0,1,.4.45,2.53,2.53,0,0,1,.08.82v1.44a6.56,6.56,0,0,0,0,.74.31.31,0,0,0,.08.18.18.18,0,0,0,.12,0,.25.25,0,0,0,.13,0,2.89,2.89,0,0,0,.38-.34v.26q-.52.7-1,.7a.45.45,0,0,1-.36-.16A.85.85,0,0,1,129.19,186.34Zm0-.3v-1.62a9.22,9.22,0,0,0-.9.39,1.56,1.56,0,0,0-.52.43.82.82,0,0,0-.16.49.79.79,0,0,0,.2.55.6.6,0,0,0,.46.22A1.68,1.68,0,0,0,129.19,186Z"/><path d="M73.87,0A73.87,73.87,0,0,0,25.43,129.64a13.68,13.68,0,0,1,1.29-2.09,71.7,71.7,0,1,1,94.84-.48,7.19,7.19,0,0,1,.6.4c.24-.24.43-.36.53-.32a5.14,5.14,0,0,1,1.26,1A73.87,73.87,0,0,0,73.87,0Z" fill="#d12033"/><path d="M73.87,25.69a46.48,46.48,0,0,0-35.91,76l.05-.08c0-.06.41-.6.84-1.2a45.11,45.11,0,1,1,65.59,4.73l1.25-.79c.49-.31-.41,1.64-.44,1.7l-.41.79a46.48,46.48,0,0,0-31-81.13Z" fill="#d12033" stroke="#d12033" stroke-miterlimit="10" stroke-width="2"/><path d="M38.35,150.86v-5.18H40a1.17,1.17,0,0,1,1.15.53,1.39,1.39,0,0,1,.21.69,1.08,1.08,0,0,1-.89,1.23v0a1.1,1.1,0,0,1,1.06,1.24c0,1.33-1,1.46-1.56,1.46Zm.66-3h1a.8.8,0,0,0,0-1.61H39Zm0,2.42h.93a.87.87,0,0,0,1-.88c0-.82-.51-1-1.18-1H39Z"/><path d="M43.18,149.24c0,1,.27,1.21.73,1.21a.65.65,0,0,0,.63-.69h.65a1.1,1.1,0,0,1-1.26,1.17c-.77,0-1.38-.23-1.38-1.83,0-1.06.12-1.94,1.38-1.94,1,0,1.29.57,1.29,1.76v.31Zm1.41-.44c0-1.05-.29-1.18-.72-1.18s-.68.18-.69,1.18Z"/><path d="M46.77,150.86h-.59v-5.18h.59Z"/><path d="M47.74,145.68h.66v.63h-.66Zm.62,5.18h-.59v-3.62h.59Z"/><path d="M50,149.24c0,1,.27,1.21.73,1.21a.65.65,0,0,0,.63-.69H52a1.1,1.1,0,0,1-1.26,1.17c-.77,0-1.38-.23-1.38-1.83,0-1.06.12-1.94,1.38-1.94,1,0,1.29.57,1.29,1.76v.31Zm1.41-.44c0-1.05-.29-1.18-.72-1.18s-.68.18-.69,1.18Z"/><path d="M52.55,147.23h.66L54,150.3h0l.87-3.07h.62l-1.13,3.62h-.77Z"/><path d="M56.73,149.24c0,1,.27,1.21.73,1.21a.65.65,0,0,0,.63-.69h.65a1.1,1.1,0,0,1-1.26,1.17c-.77,0-1.38-.23-1.38-1.83,0-1.06.12-1.94,1.38-1.94,1,0,1.29.57,1.29,1.76v.31Zm1.41-.44c0-1.05-.29-1.18-.72-1.18s-.68.18-.69,1.18Z"/><path d="M64.89,150.93v-5.12h1.67a1.16,1.16,0,0,1,1.14.52,1.37,1.37,0,0,1,.21.68,1.07,1.07,0,0,1-.88,1.21v0a1.09,1.09,0,0,1,1,1.23c0,1.31-1,1.44-1.54,1.44Zm.65-3h1a.79.79,0,0,0,0-1.59h-.92Zm0,2.4h.92a.87.87,0,0,0,.94-.87c0-.82-.5-1-1.17-1h-.7Z"/><path d="M69.67,149.33c0,1,.27,1.2.72,1.2a.64.64,0,0,0,.62-.68h.64A1.09,1.09,0,0,1,70.41,151c-.76,0-1.36-.23-1.36-1.81,0-1,.12-1.92,1.36-1.92,1,0,1.28.56,1.28,1.74v.3Zm1.4-.44c0-1-.29-1.17-.72-1.17s-.67.18-.68,1.17Z"/><path d="M74.54,147.35h.58v3.94c0,.8-.53,1-1.32,1-.6,0-1.13-.3-1.09-1h.65a.5.5,0,0,0,.55.52.57.57,0,0,0,.62-.62v-.74h0a.89.89,0,0,1-.79.45c-1,0-1.16-.84-1.16-1.9,0-1.65.83-1.75,1.12-1.75a.86.86,0,0,1,.84.51h0Zm-.68.41c-.66,0-.68.79-.68,1.27,0,1.15.26,1.42.7,1.42.7,0,.68-.83.68-1.33S74.59,147.76,73.86,147.76Z"/><path d="M76.15,145.81h.65v.62h-.65Zm.62,5.12h-.58v-3.58h.58Z"/><path d="M79.72,150.93v-2.48c0-.38-.13-.7-.63-.7s-.73.57-.73,1.06v2.12h-.58v-2.84c0-.25,0-.5,0-.74h.62v.46h0a.94.94,0,0,1,1-.53c.77,0,1,.46,1,1.17v2.48Z"/><path d="M86.37,150.83v-5.12H88a1.16,1.16,0,0,1,1.14.53,1.37,1.37,0,0,1,.21.68,1.07,1.07,0,0,1-.88,1.21v0a1.09,1.09,0,0,1,1.05,1.23c0,1.31-1,1.44-1.54,1.44Zm.65-3h1a.8.8,0,0,0,0-1.59H87Zm0,2.4h.92a.87.87,0,0,0,.94-.87c0-.82-.5-1-1.17-1H87Z"/><path d="M91.15,149.23c0,1,.27,1.2.72,1.2a.64.64,0,0,0,.62-.68h.64a1.09,1.09,0,0,1-1.25,1.16c-.76,0-1.36-.23-1.36-1.81,0-1.05.12-1.92,1.36-1.92,1,0,1.28.56,1.28,1.75v.31Zm1.4-.44c0-1-.29-1.17-.72-1.17s-.67.18-.68,1.17Z"/><path d="M96,148.4c0-.59-.28-.75-.5-.75-.45,0-.75.21-.75,1.19,0,1.16.15,1.58.75,1.58.13,0,.54-.14.52-.79h.61a1.13,1.13,0,0,1-1.13,1.26c-.76,0-1.36-.23-1.36-1.81,0-1.05.12-1.92,1.36-1.92a1,1,0,0,1,1.1,1.22Z"/><path d="M97.58,149.09c0-1.05.12-1.92,1.36-1.92s1.36.87,1.36,1.92c0,1.58-.6,1.81-1.36,1.81S97.58,150.67,97.58,149.09Zm2.11-.25c0-1-.31-1.19-.75-1.19s-.75.21-.75,1.19c0,1.16.15,1.58.75,1.58S99.7,150,99.7,148.84Z"/><path d="M103,150.83v-2.48c0-.36-.1-.7-.57-.7a.67.67,0,0,0-.5.24,1.06,1.06,0,0,0-.14.52v2.41h-.58V148c0-.25,0-.5,0-.75h.62v.45h0a.87.87,0,0,1,.89-.52.88.88,0,0,1,.84.46.86.86,0,0,1,.85-.46.85.85,0,0,1,1,.93v2.72h-.58v-2.48c0-.36-.1-.7-.57-.7a.53.53,0,0,0-.44.13.94.94,0,0,0-.2.63v2.41Z"/><path d="M106.92,149.23c0,1,.27,1.2.72,1.2a.64.64,0,0,0,.62-.68h.64a1.09,1.09,0,0,1-1.25,1.16c-.76,0-1.36-.23-1.36-1.81,0-1.05.12-1.92,1.36-1.92,1,0,1.28.56,1.28,1.75v.31Zm1.4-.44c0-1-.29-1.17-.72-1.17s-.67.18-.68,1.17Z"/></svg>