<svg data-name="Layer 1" xmlns="http://www.w3.org/2000/svg" viewBox="0 0 139.8 96.51"><path d="M73.65 19.69h-1.52a.08.08 0 0 0-.07.11 2.21 2.21 0 0 1 .16.5c0 .14.06.59.06.67a4.3 4.3 0 0 0 1.31 3.1.46.46 0 0 1 .14.34v1.08c0 .56-1.71 1-3.82 1s-3.82-.45-3.82-1v-1.08a.46.46 0 0 1 .05-.2c.31-.38 1.7-.83 5.06-.62 0 0-.18-.39-1.85-.76a2.1 2.1 0 0 1-1.79-2.07 2.36 2.36 0 0 1 0-.44 2.21 2.21 0 0 1 .16-.5.08.08 0 0 0-.07-.11h-1.47l-1.67 8.2h10.81z" fill="#fff"/><path d="M69.91 25.33a.85.85 0 0 1-.76-.47c-1.08.06-1.87.23-1.87.43s1.18.45 2.63.45 2.63-.2 2.63-.45-.79-.37-1.87-.43a.85.85 0 0 1-.76.47z" fill="#fff"/><path fill="#fff" d="M83.08 8.77L56.74 8.77 56.28 11 83.55 11 83.08 8.77z"/><path d="M59.59 44.32l.39.21A21.2 21.2 0 0 0 69.91 47a21.2 21.2 0 0 0 9.93-2.45l.39-.21a21.29 21.29 0 0 0 11-18.64V2.19H48.61v23.49a21.29 21.29 0 0 0 10.98 18.64zm18.61-1.41L76 36.4H63.82l-2.2 6.51q-.8-.39-1.57-.85l1.61-7.9-1.12-1.49h18.74l-1.12 1.49 1.61 7.9q-.77.46-1.56.85zM64 15.94h11.85l-1.12 1.51 2.12 10.45h2.21l.31 1.5H60.46l.31-1.5H63l2.13-10.45zM50.8 4.38H89v21.3a19 19 0 0 1-4.84 12.71l-4.8-23.18 1.37-1.82v-.75H59.08v.75l1.37 1.82-4.8 23.18a19 19 0 0 1-4.85-12.71z" fill="#fff"/><path d="M46.42 25.68a23.49 23.49 0 0 0 23.49 23.5 23.49 23.49 0 0 0 23.5-23.5V0h-47zm2.19-23.49h42.61v23.49a21.29 21.29 0 0 1-11 18.64l-.39.21A21.2 21.2 0 0 1 69.91 47 21.2 21.2 0 0 1 60 44.53l-.39-.21a21.29 21.29 0 0 1-11-18.64z" fill="#041a37"/><path d="M60.45 15.21l-1.37-1.82v-.75h21.67v.75l-1.37 1.82 4.8 23.18A19 19 0 0 0 89 25.68V4.38H50.8v21.3a19 19 0 0 0 4.84 12.71zm-3.7-6.44h26.34l.46 2.23H56.28z" fill="#041a37"/><path fill="none" d="M59.59 44.32L59.99 44.53"/><path d="M79.28 32.67H60.54l1.12 1.49-1.61 7.9q.76.46 1.57.85l2.2-6.51H76l2.21 6.51q.81-.39 1.57-.85l-1.61-7.9z" fill="#041a37"/><path fill="none" d="M80.23 44.32L79.84 44.53"/><path d="M60.76 27.89l-.31 1.5h18.92l-.31-1.5h-2.21l-2.13-10.44 1.12-1.51H64l1.13 1.5L63 27.89zm5.42-8.2h1.51a.08.08 0 0 1 .07.11 2.21 2.21 0 0 0-.16.5 2.36 2.36 0 0 0 0 .44 2.1 2.1 0 0 0 1.79 2.07c1.67.37 1.85.76 1.85.76-3.37-.21-4.75.24-5.06.62a.46.46 0 0 0-.05.2v1.08c0 .56 1.71 1 3.82 1s3.82-.45 3.82-1v-1.06a.46.46 0 0 0-.14-.34A4.3 4.3 0 0 1 72.28 21c0-.08 0-.52-.06-.67a2.21 2.21 0 0 0-.16-.5.08.08 0 0 1 .07-.11h1.52l1.67 8.2H64.51zm6.36 5.6c0 .25-1.18.45-2.63.45s-2.63-.2-2.63-.45.79-.37 1.87-.43a.85.85 0 0 0 1.52 0c1.08.06 1.87.23 1.87.44zM17.4 78.13l1.83 1.6v.08h-7.06v-.08l1.83-1.6-1.62-4h-7l-1.62 4 1.83 1.6v.08H0v-.08l1.81-1.6 6.9-16.64h1.54zm-5.78-5.63l-2.86-6.67L6 72.5zm26.5-9.34v8.76c0 5.55-3.82 8.14-7.8 8.14s-8.48-2.17-8.48-8.48v-8.42L20 61.57v-.08h7v.08l-1.75 1.6V72c0 4.19 2.15 6.36 5.44 6.36 3.11 0 5.47-2 5.47-6.23v-9l-1.83-1.6v-.08h5.6v.08zm21.45-.78v4.16h-.08c-2.28-3-4.29-3.64-6.2-3.64-3.92 0-6.57 3.14-6.57 7.51v.34c0 4.53 3 7.64 6.85 7.64a6.32 6.32 0 0 0 2.64-.52c.89-.37 1.18-.86 1.18-2v-2.92l-3.32-1.65v-.08h6.31v6.44a12.09 12.09 0 0 1-7 2.41c-5.42 0-10.07-3.48-10.07-9.37v-.23c0-5.65 4.71-9.24 10-9.24a18.37 18.37 0 0 1 6.26 1.15zm23.33.78v8.76c0 5.55-3.82 8.14-7.8 8.14s-8.48-2.17-8.48-8.48v-8.42l-1.83-1.6v-.08h7v.08l-1.75 1.6V72c0 4.19 2.15 6.36 5.44 6.36 3.11 0 5.47-2 5.47-6.23v-9l-1.83-1.6v-.08h5.6v.08zm17.68-.78v4.16h-.08c-1.57-2.28-3.56-3.64-5.73-3.64-2.46 0-3.24 1.47-3.24 2.56v.13c0 1.81 1.65 2.43 4.16 3.11 4.08 1.07 6.38 2.75 6.38 6.07v.16c0 2.72-2.38 5.13-6.75 5.13a18.86 18.86 0 0 1-6.85-1.86v-4.6h.08c2.12 2.9 4.21 4.79 6.78 4.79S99 77.11 99 75.59v-.13c0-2.25-2.17-3.11-5-3.85-3.51-.92-5.36-2.64-5.36-5.31v-.18c0-2.56 2.35-4.89 6.12-4.89a17 17 0 0 1 5.82 1.15zm20.3 4l-2.28-3.22h-4.47v15l1.83 1.6v.08h-6.75v-.08l1.81-1.6v-15h-4.45l-2.3 3.22h-.08v-4.89H121v4.89zM138 78.13l1.83 1.6v.08h-7.06v-.08l1.83-1.6-1.62-4h-7l-1.62 4 1.83 1.6v.08h-5.55v-.08l1.81-1.6 6.91-16.64h1.54zm-5.78-5.63l-2.85-6.67-2.75 6.67zM28.71 88h1.37v5a3.11 3.11 0 0 1-1 2.47 4.36 4.36 0 0 1-3.11 1 4.61 4.61 0 0 1-3.17-1 3 3 0 0 1-.89-2.47v-5h1.89v4.9a2.2 2.2 0 0 0 2.36 2.44 2.24 2.24 0 0 0 2.54-2.48zm11.47 8.24l-4.89-6v6h-1.38V88H36l4.4 5.42V88h1.37v8.24zm5.74 0V88h1.91v8.24zm8.56 0L50.37 88h2.19l3 6 2.9-6H60l-4.32 8.24zm7.85 0V88h7v1.18h-5.1v2.16h3.22v1.17h-3.21V95h5.4v1.19zM72.83 88h4.69c1.82 0 2.63.24 3.25.85a2.28 2.28 0 0 1 .61 1.61 1.84 1.84 0 0 1-.57 1.28 3.08 3.08 0 0 1-1.81.76l2.44 3.74h-2.35l-2.17-3.44h-2.19v3.44h-1.9zm4.69 3.7c1 0 1.81-.44 1.81-1.28 0-1.13-1-1.31-2.1-1.31h-2.5v2.59zm13.99-1.87a7 7 0 0 0-3.48-1c-.88 0-2 .14-2 1.09s1.6 1 2.85 1c1.65.11 3.85.52 3.85 2.54 0 2.24-2.35 2.92-4.26 2.92a7.47 7.47 0 0 1-4.67-1.53l.8-1a6 6 0 0 0 3.81 1.36c1.41 0 2.48-.28 2.48-1.31s-1.31-1-2.54-1.09c-1.7-.08-4.13-.56-4.13-2.48s2-2.72 3.8-2.72a7.28 7.28 0 0 1 4.17 1.12zM96 96.24V88h1.91v8.24zm7.54 0v-7.05h-2.8V88h7.54v1.18h-2.85v7.06zm9.39 0V93l-3.7-5h2.34l2.71 3.78 2.63-3.78h1.72l-3.79 5v3.28z" fill="#041a37"/></svg>