<svg id="Layer_1" data-name="Layer 1" xmlns="http://www.w3.org/2000/svg" viewBox="0 0 67.54 37.25"><defs><style>.cls-1{fill:#fc6b0c;fill-rule:evenodd;}</style></defs><title>clayton-state_icon</title><path class="cls-1" d="M52.44,37.25a6.94,6.94,0,0,0-1.2-.1c-1.77-.15-3.55-.25-5.31-.42s-3.28-.31-4.91-.51-3.39-.42-5.09-.67-3.63-.56-5.44-.89S26.87,34,25,33.56c-2.1-.47-4.2-1-6.27-1.6-1.82-.53-3.62-1.11-5.38-1.78a41.23,41.23,0,0,1-7.93-3.86,15.25,15.25,0,0,1-4.07-3.65A6.83,6.83,0,0,1,.08,19.8c0-.09,0-.19-.08-.26V17.81c.19-.09.13-.29.17-.44a8.34,8.34,0,0,1,2.25-3.64,21,21,0,0,1,5-3.63,48,48,0,0,1,7.36-3.19c2-.7,4-1.29,6-1.83s3.87-1,5.83-1.39c1.43-.3,2.86-.57,4.29-.83s2.91-.51,4.38-.72q2.69-.4,5.38-.72c1.58-.18,3.16-.36,4.74-.5C47.58.73,49.72.56,51.86.43,54.64.26,57.44.14,60.24.06A1.18,1.18,0,0,0,60.88,0h6.66a3.07,3.07,0,0,1-1,.07c-1.07,0-2.15.06-3.22.1Q59.5.29,55.68.58q-3.15.22-6.3.55c-1.75.18-3.51.4-5.26.62s-3.25.47-4.88.72c-1.36.21-2.72.48-4.08.73q-2.73.49-5.41,1.14T24.51,5.73c-1.33.39-2.65.8-4,1.26C19,7.55,17.46,8.15,16,8.85c-1.06.49-2.11,1-3.13,1.58a20.5,20.5,0,0,0-4.26,3.09,9,9,0,0,0-2.29,3.34,5.43,5.43,0,0,0-.1,3.58A9.16,9.16,0,0,0,9,24.53,25.41,25.41,0,0,0,15,28.31a56.8,56.8,0,0,0,7.09,2.81q2.32.76,4.69,1.39,2.67.72,5.4,1.3c1.34.29,2.68.56,4,.8,1.65.3,3.31.59,5,.82,1.25.17,2.49.37,3.73.53,1.5.19,3,.35,4.49.51,1.93.2,3.87.38,5.8.51,1.15.08,2.29.18,3.43.27Z"/><path class="cls-1" d="M63.93,2.69l-3.88.13q-3,.14-5.95.37c-1.7.13-3.4.29-5.08.49-1.27.15-2.53.32-3.79.51-1.43.2-2.85.43-4.26.71-1.17.23-2.34.46-3.5.73-1.33.32-2.66.64-4,1A51.52,51.52,0,0,0,28.09,8.5a24.74,24.74,0,0,0-4.9,2.6,9.6,9.6,0,0,0-2.5,2.38,4.32,4.32,0,0,0,.23,5.59A12.59,12.59,0,0,0,24.5,22a33,33,0,0,0,5.79,2.58c1.47.52,3,1,4.46,1.37,1.18.31,2.36.61,3.56.85,1,.2,2,.44,3.06.63,1.71.3,3.42.58,5.14.81s3.47.44,5.24.62c1.25.12,2.5.21,3.76.31l1.21.1-.21,0c-1.88,0-3.75,0-5.63-.14-1.44-.12-2.88-.23-4.31-.37-1.11-.11-2.22-.25-3.33-.4s-2.31-.32-3.46-.49c-.75-.11-1.51-.25-2.26-.39S35.83,27.17,35,27s-1.81-.38-2.7-.6c-1.2-.28-2.38-.6-3.56-.95-1.39-.4-2.74-.86-4.08-1.39a28.51,28.51,0,0,1-4-1.85,12.76,12.76,0,0,1-4-3.23,4.63,4.63,0,0,1-1.06-3.13,4.77,4.77,0,0,1,1.08-2.62,12.41,12.41,0,0,1,3.67-3A34.52,34.52,0,0,1,26.75,7.4q2.16-.72,4.35-1.29c1.72-.44,3.45-.83,5.19-1.15,1.16-.21,2.31-.44,3.47-.62s2.3-.36,3.46-.49,2.24-.28,3.36-.39c1.41-.14,2.83-.26,4.25-.38,1.75-.15,3.51-.24,5.26-.3,2.34-.09,4.68-.17,7-.12h.82Z"/><path class="cls-1" d="M54.88,24.13a29,29,0,0,1-3,0c-1.48-.09-3-.22-4.45-.37-1.1-.12-2.2-.25-3.3-.41-.53-.08-1.06-.19-1.59-.24-1.15-.12-2.3-.41-3.45-.63s-2.54-.57-3.78-.93a26.45,26.45,0,0,1-7.12-3,7.23,7.23,0,0,1-2.14-2,3.2,3.2,0,0,1,.39-4.14A10.89,10.89,0,0,1,29.91,10a32,32,0,0,1,5.46-2c1.83-.53,3.68-.94,5.55-1.29s3.67-.6,5.51-.81,3.74-.37,5.61-.5c2-.13,4.05-.18,6.08-.21h2.21c-1.45,0-2.89.09-4.33.16s-2.78.18-4.15.31-2.51.25-3.75.41-2.71.38-4.05.63C42.16,7,40.29,7.43,38.44,8a32.42,32.42,0,0,0-5.66,2.13,11.07,11.07,0,0,0-3.06,2.15,3.51,3.51,0,0,0-1.17,2.63,3.65,3.65,0,0,0,1.12,2.34,11.56,11.56,0,0,0,3.62,2.44,32.45,32.45,0,0,0,5.67,2c1.81.49,3.63.88,5.48,1.21,1.36.25,2.72.45,4.08.63,1.74.22,3.47.4,5.22.51Z"/></svg>