<svg id="Layer_1" data-name="Layer 1" xmlns="http://www.w3.org/2000/svg" viewBox="0 0 624 161.04"><title>clayton-state-color</title><path d="M226.56,161c-1.69-.49-3.45-.29-5.18-.44-7.64-.65-15.31-1.09-22.94-1.8-7.08-.65-14.15-1.38-21.2-2.23-7.33-.88-14.66-1.83-22-2.89q-11.78-1.71-23.49-3.84t-23.54-4.77q-13.67-3-27.12-6.92c-7.84-2.26-15.61-4.76-23.22-7.67-11.91-4.55-23.56-9.67-34.27-16.69C16.94,109.41,10.74,104.48,6,98A29.55,29.55,0,0,1,.36,85.57c-.06-.36,0-.82-.36-1.09V77c.81-.41.56-1.27.73-1.91C2.44,68.92,6,63.88,10.44,59.36,16.8,52.87,24.33,48,32.22,43.66A209.53,209.53,0,0,1,64.05,29.89c8.53-3,17.2-5.56,25.93-7.9q12.53-3.35,25.21-6c6.16-1.32,12.35-2.48,18.55-3.59s12.57-2.21,18.89-3.13c7.74-1.13,15.49-2.18,23.26-3.08,6.82-.79,13.65-1.58,20.48-2.19q13.84-1.24,27.72-2.11c12-.74,24.11-1.23,36.17-1.6.92,0,1.89.29,2.77-.25h28.8c-1.42.52-2.9.26-4.34.32-4.63.2-9.27.24-13.91.4q-16.54.57-33,1.77-13.62,1-27.22,2.39c-7.58.77-15.15,1.71-22.71,2.7-7,.92-14.07,2-21.09,3.08-5.91.94-11.78,2.08-17.66,3.18Q140.14,16,128.53,18.78c-7.6,1.82-15.15,3.8-22.65,6-5.73,1.69-11.43,3.47-17.06,5.48-6.74,2.4-13.4,5-19.9,8-4.59,2.12-9.12,4.34-13.52,6.84A88.37,88.37,0,0,0,37,58.46c-4.25,4.15-7.87,8.76-9.92,14.42a23.67,23.67,0,0,0-.42,15.49c2.25,7.21,6.89,12.74,12.39,17.64,7.66,6.83,16.46,11.9,25.65,16.36a244.75,244.75,0,0,0,30.6,12.13q10.05,3.3,20.26,6c7.72,2.08,15.51,3.94,23.33,5.62,5.79,1.24,11.6,2.42,17.43,3.46,7.14,1.28,14.29,2.55,21.49,3.53,5.38.74,10.73,1.62,16.12,2.3,6.45.82,12.92,1.53,19.39,2.21,8.34.88,16.7,1.64,25.07,2.21,4.94.34,9.87.77,14.81,1.16Z" fill="#fc6b0c" fill-rule="evenodd"/><path d="M624,77c-.93,3-1.9,6.06-2.77,9.12-.23.82-.58,1-1.4,1-9.64,0-19.27,0-28.91,0h-.72c-.29,0-.56,0-.56-.42s.23-.44.54-.46a17.52,17.52,0,0,0,2.37-.29,3.08,3.08,0,0,0,2.64-3,17,17,0,0,0,.12-2q0-14.33,0-28.67c0-.28,0-.56,0-.84-.08-3.56-1.16-4.67-4.74-4.91-.33,0-.91.27-.9-.41s.58-.41.92-.41c9.56,0,19.11,0,28.67,0,.8,0,1.13.19,1.14,1.06,0,2.4.17,4.79.25,7.19,0,.26.26.71-.28.75s-.4-.4-.46-.7a15.17,15.17,0,0,0-1-3.32,4.8,4.8,0,0,0-4.09-2.89c-4.27-.45-8.55-.16-12.82-.24-.5,0-.6.23-.6.66q0,7.62,0,15.23c0,.45.11.65.6.63,3.39-.1,6.8.21,10.18-.2,3-.36,4.2-1.71,4.39-4.69,0-.2,0-.4,0-.6,0-.4.09-.73.59-.7s.36.45.36.72c0,1.52,0,3,0,4.56,0,2.72,0,5.44,0,8.16,0,.32.29.88-.4.91s-.51-.55-.57-.94c-.08-.55-.12-1.11-.24-1.66a3.81,3.81,0,0,0-3.64-3.38c-3.54-.44-7.11-.11-10.66-.21-.57,0-.65.28-.64.74,0,5.36,0,10.71,0,16.07,0,1.36.68,2.09,2,2.08,3.64,0,7.27.14,10.91-.14a8.48,8.48,0,0,0,7.15-4.53c.57-1,1.11-2,1.6-3.08.22-.47.44-.73,1-.63Z" fill="#0f2c71" fill-rule="evenodd"/><path d="M276.23,11.67c-5.59.19-11.18.33-16.77.57q-12.88.55-25.73,1.57c-7.33.59-14.65,1.27-21.94,2.13-5.47.64-10.92,1.39-16.37,2.19C189.26,19,183.11,20,177,21.2c-5.05,1-10.09,2-15.1,3.17-5.74,1.36-11.48,2.76-17.15,4.38a221,221,0,0,0-23.38,8A108.64,108.64,0,0,0,100.2,48,41.42,41.42,0,0,0,89.38,58.3c-5.61,8.2-5.2,16.36,1,24.13,4.26,5.3,9.68,9.18,15.48,12.57a143.78,143.78,0,0,0,25,11.16c6.35,2.25,12.79,4.2,19.3,5.92,5.08,1.35,10.19,2.62,15.35,3.66,4.42.88,8.81,1.91,13.24,2.71q11.07,2,22.22,3.53t22.61,2.65c5.41.53,10.83.91,16.25,1.35l5.26.42a9.27,9.27,0,0,1-.93.12c-8.12,0-16.22.1-24.33-.6-6.21-.53-12.42-1-18.62-1.63-4.81-.47-9.6-1.08-14.39-1.71q-7.47-1-14.93-2.11c-3.27-.5-6.53-1.09-9.79-1.69-3.65-.67-7.29-1.36-10.92-2.12-3.9-.81-7.8-1.66-11.67-2.58q-7.74-1.84-15.37-4.11c-6-1.76-11.85-3.71-17.65-6a130.81,130.81,0,0,1-17.31-8C82.63,92.26,76.43,88.08,71.78,82c-3-4-4.93-8.37-4.58-13.51a20.6,20.6,0,0,1,4.65-11.33c4.29-5.55,9.9-9.52,15.88-13A149.09,149.09,0,0,1,115.6,32c6.2-2.08,12.47-3.92,18.79-5.54,7.41-1.9,14.87-3.62,22.41-5,5-.89,10-1.89,15-2.67s9.94-1.56,14.94-2.11c4.84-.53,9.67-1.22,14.51-1.7,6.12-.61,12.25-1.1,18.38-1.62,7.57-.64,15.15-1.06,22.74-1.32,10.11-.36,20.22-.73,30.34-.52,1.18,0,2.36,0,3.54,0Z" fill="#fc6b0c" fill-rule="evenodd"/><path d="M237.1,104.29c-4.26.17-8.49.27-12.72,0-6.42-.38-12.83-.94-19.23-1.6-4.76-.49-9.52-1.07-14.25-1.78-2.29-.34-4.57-.8-6.87-1-5-.55-9.95-1.8-14.91-2.76-5.51-1.07-11-2.44-16.35-4C142,90,131.5,86.34,122,80.18a31.12,31.12,0,0,1-9.21-8.56c-3.9-5.83-3.29-12.36,1.65-17.87,4.14-4.62,9.32-7.78,14.78-10.51a138.6,138.6,0,0,1,23.59-8.8c7.9-2.29,15.91-4.07,24-5.56,7.89-1.45,15.83-2.6,23.81-3.51s16.14-1.62,24.23-2.16c8.74-.58,17.49-.81,26.25-.93,3.19,0,6.37,0,9.56,0-6.24.08-12.48.41-18.71.72-6,.3-12,.77-17.94,1.31-5.41.49-10.81,1.1-16.19,1.79-5.86.74-11.7,1.63-17.51,2.72-8.15,1.53-16.25,3.31-24.24,5.59a136.48,136.48,0,0,0-24.43,9.2,47.64,47.64,0,0,0-13.24,9.27c-3,3.17-5.24,6.76-5.05,11.36.17,4,2.16,7.26,4.84,10.11,4.42,4.7,9.9,7.84,15.64,10.57a144.47,144.47,0,0,0,24.5,8.74c7.81,2.12,15.71,3.82,23.68,5.25q8.79,1.58,17.64,2.7c7.49.95,15,1.72,22.54,2.23C233.84,104,235.47,104.16,237.1,104.29Z" fill="#fc6b0c" fill-rule="evenodd"/><path d="M406,129c2-5.22,3.93-10.24,5.84-15.27,1.28-3.35,2.55-6.71,3.79-10.07a5.85,5.85,0,0,0,.28-1.76c.09-2.26-.75-3.14-3-3.2-.24,0-.48,0-.72,0s-.34-.16-.33-.4.16-.35.38-.35h1.44c2.88,0,5.76,0,8.64,0,.29,0,.78-.23.79.4s-.37.43-.67.46a3.7,3.7,0,0,0-2.91,2.25,88.43,88.43,0,0,0-3.59,8.88c-3.78,9.79-7.51,19.59-11.27,29.38-.13.34-.08.89-.65.85s-.48-.58-.6-.92Q396.6,121,389.78,102.7c-1.48-3.95-2.49-4.58-7.47-3.57a3,3,0,0,0-2.37,2.69,16.16,16.16,0,0,0-.21,2.38q0,14.28,0,28.56a15.46,15.46,0,0,0,.07,1.68c.32,2.92,1.36,3.88,4.31,4h.72c.35,0,.64,0,.62.51s-.27.42-.57.43h-.6c-5,0-10.08,0-15.12,0-.36,0-1,.3-1-.43s.59-.45.94-.49a9.51,9.51,0,0,0,2.57-.51,3.21,3.21,0,0,0,2-3c.1-1.11.12-2.24.12-3.36q0-13.26,0-26.52c0-.88-.07-1.76-.09-2.63a3.61,3.61,0,0,0-3.42-3.57c-.56,0-1.11-.11-1.67-.14-.27,0-.45-.08-.47-.4s.24-.43.53-.43h30.48a3.73,3.73,0,0,1,.48,0c.28,0,.7-.16.71.38s-.45.42-.77.45c-.48,0-1,0-1.43.11a2.36,2.36,0,0,0-2.31,2.88,7.33,7.33,0,0,0,.44,1.86q4.74,12.47,9.52,24.92C405.81,128.62,405.88,128.72,406,129Z" fill="#0f2c71" fill-rule="evenodd"/><path d="M318.32,110.63c0-4.72.07-9.44,0-14.15-.06-3-1.11-3.94-4-4.29-.59-.07-1.19-.1-1.79-.15-.39,0-.71-.12-.65-.63s.42-.4.72-.4h14.4c.36,0,.86-.17.88.49s-.5.45-.78.51c-.86.17-1.74.23-2.6.4a3.28,3.28,0,0,0-3,3.42c-.06.84,0,1.68-.05,2.52,0,8.28,0,16.55-.09,24.83,0,3-.19,6-1.56,8.77a14.07,14.07,0,0,1-10.63,7.91,25,25,0,0,1-12.65-.78,12.75,12.75,0,0,1-9.14-11.94c-.13-2.08-.18-4.15-.18-6.23q0-11.4,0-22.79,0-.66,0-1.32c-.18-3.32-2-4.89-5.31-4.65-.24,0-.48,0-.72,0s-.67,0-.59-.48c.05-.37,0-.74.59-.68.24,0,.48,0,.72,0h18.36c.33,0,.62,0,.65.48s-.28.49-.6.53c-.83.1-1.68.13-2.49.32-2.47.55-3.57,2-3.57,4.55,0,8.6,0,17.19,0,25.79a27.58,27.58,0,0,0,.88,7.35c1.06,3.83,3.41,6.24,7.41,6.87a18.54,18.54,0,0,0,8.65-.54c4.44-1.43,6.25-4.91,7-9.18a31.93,31.93,0,0,0,.38-5.37q0-5.58,0-11.16Z" fill="#0f2c71" fill-rule="evenodd"/><path d="M478.49,119.14c2.9,4.23,5.72,8.34,8.56,12.44.93,1.35,1.87,2.69,2.88,4a7,7,0,0,0,4.79,2.89c.32,0,.65,0,.61.5s-.36.45-.68.45c-2.64,0-5.28,0-7.91,0-.53,0-.76-.3-1-.67q-6.24-8.94-12.5-17.87a3.81,3.81,0,0,0-3.86-1.22c-.44.16-.35.48-.35.78,0,4.64,0,9.27.09,13.91.08,2.93,1.46,4.13,4.4,4.14h.6c.34,0,.65,0,.63.49s-.26.44-.56.44h-.48c-5.08,0-10.15,0-15.23,0-.37,0-1,.28-1-.43s.6-.42,1-.49c.63-.12,1.27-.14,1.89-.28a3.2,3.2,0,0,0,2.66-3,20.18,20.18,0,0,0,.13-2.39q0-14.15,0-28.3c0-.16,0-.32,0-.48-.05-4-.85-4.9-4.83-5.27-.31,0-.79.19-.83-.4s.46-.43.76-.43c6.19.11,12.39-.26,18.58.22a22,22,0,0,1,4.92.94c4.91,1.55,6.91,4.8,6.64,10-.26,5-3.2,8.23-8.5,9.67ZM469,108.84c0,2.68,0,5.35,0,8,0,.71.18,1,.93,1,1,0,2.08.06,3.11,0,2.72-.27,5.27-1,7.08-3.25a10.39,10.39,0,0,0,.31-11.67c-2.14-3-6.63-4.25-10.57-2.89a1,1,0,0,0-.86,1.18C469,103.72,469,106.28,469,108.84Z" fill="#0f2c71" fill-rule="evenodd"/><path d="M382,87.88c-10.33,0-18-7-19.15-17.51-.57-5.1-.26-10.09,1.94-14.77,3.47-7.37,9.53-10.75,17.51-10.68,11.08.1,17.76,7.68,18.94,17.88A26.18,26.18,0,0,1,399.38,77c-3.14,6.85-8.56,10.4-16,10.9C382.9,87.91,382.46,87.88,382,87.88Zm12.8-21.81a29.27,29.27,0,0,0-.53-6.36c-.71-3.7-1.9-7.22-4.75-9.86-5.54-5.12-14-3.43-17.57,3.46a26.16,26.16,0,0,0-2.64,11.45c-.15,4.75.19,9.44,2.19,13.83s5.33,7.27,10.43,7.31,8.52-2.76,10.61-7.24A28.15,28.15,0,0,0,394.83,66.07Z" fill="#0f2c71" fill-rule="evenodd"/><path d="M460.19,79.7c0-2.52,0-5,0-7.56,0-.35-.2-.84.47-.87s.56.38.63.78A17.88,17.88,0,0,0,465,81,10.83,10.83,0,0,0,476.41,85a8.3,8.3,0,0,0,4-14,38.69,38.69,0,0,0-7.83-5.9c-3.16-2-6.39-3.94-8.91-6.75a12,12,0,0,1-2.37-12.54c1.52-4.47,5-6.8,9.48-7.65a16,16,0,0,1,9.27,1,16.28,16.28,0,0,0,2.13.78,2.27,2.27,0,0,0,3-1.47c.15-.36.2-.64.69-.6s.46.44.46.78q0,7,0,14c0,.37.13.85-.5.89s-.55-.42-.61-.81c-.51-3.32-1.43-6.49-3.8-9a10.29,10.29,0,0,0-9.68-3.25A7.18,7.18,0,0,0,467.3,52a18.44,18.44,0,0,0,5,4.25c3.87,2.54,8,4.76,11.5,7.8a13.89,13.89,0,0,1,4.82,14.41c-1.07,4.94-5.37,8.61-10.76,9.43a20.18,20.18,0,0,1-10.44-1.37,30.54,30.54,0,0,0-3.17-1.08c-1.69-.44-2.6.15-2.94,1.84-.09.44,0,.92-.71.82s-.39-.61-.39-.94C460.18,84.66,460.19,82.18,460.19,79.7Z" fill="#0f2c71" fill-rule="evenodd"/><path d="M184.05,62.29a33.81,33.81,0,0,0,2.06,12.33c4.59,11.92,17.77,12.69,25.34,7.21a23,23,0,0,0,5.07-5.06c.34-.47.57-.73,1.19-.31s.24.79,0,1.16c-7.86,13.4-23.9,12.47-32.24,5.75a24,24,0,0,1-9.12-18,27,27,0,0,1,4.24-17.12,23.24,23.24,0,0,1,28.26-8.51,24.83,24.83,0,0,0,2.78,1.08c1.64.47,2.58-.17,3-1.83.09-.38-.16-1.11.64-1s.45.74.49,1.16q.58,6.45,1.11,12.9c0,.34.37.88-.23,1s-.52-.49-.65-.84c-1.29-3.51-3-6.73-6-9.1-5.86-4.56-18-4.07-22.89,5.25A29.35,29.35,0,0,0,184.05,62.29Z" fill="#0f2c71" fill-rule="evenodd"/><path d="M334.92,105.75v23.14c0,1.8,0,3.6,0,5.4,0,3.42,1.15,3.67,4.14,4.21.49.09,1.45-.5,1.39.48,0,.81-1,.4-1.49.41-3.72,0-7.44,0-11.16,0-.38,0-1,.26-1-.5s.58-.31.89-.42a1,1,0,0,1,.24,0c3.55-.25,4.41-1.13,4.41-4.68q0-15.48,0-31c0-2.26-1.95-4-4.57-4.15-.51,0-1.48.44-1.47-.39s1-.33,1.5-.34c2.56,0,5.12,0,7.68,0a2,2,0,0,1,1.86,1q10.34,13.68,20.74,27.32c.16.21.34.42.71.89v-1.27q0-11.16,0-22.32c0-.24,0-.48,0-.72-.1-2.61-1-3.57-3.6-3.85l-1.31-.12c-.3,0-.67,0-.66-.48s.43-.37.7-.37c1.2,0,2.4,0,3.6,0,2.84,0,5.68,0,8.52,0,.32,0,.88-.3.9.4s-.5.42-.79.44c-4.6.29-4.86,1.58-4.85,5.63q0,17.1,0,34.2c0,.35.27.88-.26,1s-.62-.41-.85-.71l-24-31.49C335.87,107,335.5,106.5,334.92,105.75Z" fill="#0f2c71" fill-rule="evenodd"/><path d="M409.49,53.56V65.29q0,8.28,0,16.56c0,3.14.85,4,4,4.35.54.06,1.59-.32,1.54.57s-1.05.37-1.6.37c-3.72,0-7.44,0-11.16,0-.29,0-.79.25-.85-.28s.39-.58.81-.63a22.59,22.59,0,0,0,2.37-.33,2.51,2.51,0,0,0,2.25-2.42,15.07,15.07,0,0,0,.17-2.15c0-10-.07-20,.06-30a4.67,4.67,0,0,0-4.75-4.85c-.47,0-1.39.38-1.38-.33s1-.41,1.47-.42c2.44,0,4.88.05,7.32-.05A2.72,2.72,0,0,1,412.26,47q10.22,13.54,20.51,27l.67.86V73.11q0-10.86,0-21.72c0-3.56-.68-4.33-4.2-4.76-.32,0-.64-.05-1-.07s-.47-.07-.46-.4a.41.41,0,0,1,.46-.43h12.24c.2,0,.4,0,.6,0s.45.12.44.44-.23.35-.48.38c-.91.12-1.83.2-2.72.38a2.65,2.65,0,0,0-2.3,2.54c-.07.71-.16,1.43-.16,2.15q0,17.16,0,34.32c0,.24,0,.48,0,.72s.13.62-.2.74-.55-.21-.74-.46l-3.85-5.06L410.44,54.75C410.2,54.43,409.95,54.13,409.49,53.56Z" fill="#0f2c71" fill-rule="evenodd"/><path d="M439.05,139.41H423.94c-.31,0-.54-.07-.54-.46s.22-.47.54-.46a8.91,8.91,0,0,0,2.24-.21,3.2,3.2,0,0,0,2.75-2.77,14.28,14.28,0,0,0,.19-2.38q0-14.52,0-29c0-.36,0-.72,0-1.08-.21-2.86-1.2-3.86-4.08-4.14l-.83-.09c-.33,0-.8.1-.77-.48s.53-.36.82-.36l29,0c.59,0,.84.12.86.77.07,2.44.21,4.87.3,7.3,0,.3.23.84-.32.86s-.39-.52-.48-.84-.17-.86-.28-1.28c-.82-3.26-2.32-4.67-5.67-4.81-4-.16-7.92-.08-11.87-.12-.52,0-.69.16-.68.69q0,7.56,0,15.12c0,.4,0,.7.56.69,3.52-.07,7,.23,10.54-.23,2.67-.35,3.63-1.43,4-4.09.06-.39.12-.79.16-1.19s-.09-.67.44-.65.44.36.44.68q0,6.48,0,13c0,.32,0,.67-.44.69s-.42-.37-.45-.67c-.34-4-1.35-5.49-6.28-5.49-2.72,0-5.44,0-8.16,0-.67,0-.89.16-.88.86,0,5.16,0,10.32.05,15.48,0,1.89.47,2.43,2.29,2.49a88.73,88.73,0,0,0,10.91-.12,8.29,8.29,0,0,0,6.83-4.48c.56-1,1.09-2,1.61-3.07.17-.33.3-.73.75-.54s.11.5,0,.74c-.89,3-1.83,6-2.68,9.06-.21.76-.66.73-1.24.73Z" fill="#0f2c71" fill-rule="evenodd"/><path d="M496.93,132.91c0-2.12,0-4.24,0-6.36,0-.31-.19-.78.4-.83s.51.43.56.75A15.38,15.38,0,0,0,501,134,9.4,9.4,0,0,0,511,137.46,7.1,7.1,0,0,0,515,126.35a18.42,18.42,0,0,0-5-4.38c-3.11-2.1-6.4-3.93-9.2-6.48A10.77,10.77,0,0,1,497.87,104a10.32,10.32,0,0,1,9.19-6.78,14.45,14.45,0,0,1,7.13,1.14,9.88,9.88,0,0,0,1.46.54,2,2,0,0,0,2.71-1.23c.17-.37.34-.5.69-.46s.3.41.3.66q0,6.06,0,12.12c0,.28.15.68-.38.7s-.52-.37-.56-.72a16.18,16.18,0,0,0-1.69-5.58,9.31,9.31,0,0,0-9.2-5.06,5.79,5.79,0,0,0-5.27,3.9,6.13,6.13,0,0,0,1.34,6.67c2.13,2.29,4.92,3.67,7.5,5.34,3.12,2,6.28,4,8.56,7,3.34,4.45,3.14,14.16-5.11,17.11a15.33,15.33,0,0,1-10.56-.23c-1.13-.4-2.24-.85-3.38-1.19-1.53-.46-2.23,0-2.69,1.46-.1.32,0,.91-.63.77s-.33-.57-.33-.88c0-2.12,0-4.24,0-6.36Z" fill="#0f2c71" fill-rule="evenodd"/><path d="M287.66,87.16c-2.16,0-4.32,0-6.48,0-.33,0-.87.25-.87-.45s.47-.4.78-.43c2.71-.27,3.62-1.5,2.92-4.12-.82-3-2.12-5.93-3.16-8.9-.18-.52-.5-.52-.92-.52-4.36,0-8.72,0-13.08,0a.82.82,0,0,0-.9.57c-1.22,3-2.52,6-3.66,9.1-.92,2.46-.2,3.5,2.39,3.8l.59.08c.35.05.9-.17.87.5s-.6.39-.92.39q-4.5,0-9,0c-.33,0-.87.27-.91-.41s.42-.49.75-.56c1.77-.38,2.66-1.72,3.31-3.2,1.58-3.62,3.1-7.26,4.63-10.9q5.54-13.18,11.07-26.35c.13-.32.08-.85.68-.84s.52.55.64.87q6.77,17.71,13.52,35.44c.34.89.75,1.76,1.16,2.63a4,4,0,0,0,3.42,2.46c.35,0,.79,0,.72.52s-.54.36-.85.36C292.14,87.17,289.9,87.17,287.66,87.16ZM267.07,70.71a2.07,2.07,0,0,0,.42.12c3.87,0,7.74,0,11.61,0,1.1,0,.67-.54.49-1l-4-10.73-1.66-4.46Z" fill="#0f2c71" fill-rule="evenodd"/><path d="M550.59,87.16c-2.2,0-4.4,0-6.6,0-.32,0-.8.17-.82-.4s.43-.44.77-.48c2.84-.36,3.75-1.57,2.89-4.32-.91-2.93-2.06-5.78-3.08-8.68-.17-.47-.43-.57-.88-.56q-6.54,0-13.08,0a.88.88,0,0,0-1,.63c-1.19,3-2.46,5.89-3.61,8.87-1,2.6-.27,3.67,2.56,4,.2,0,.4.06.59.07s.65,0,.64.49-.41.39-.7.39h-9.6c-.24,0-.49,0-.54-.32s.07-.55.41-.6c2.22-.32,3.15-2,3.92-3.8q3.12-7.32,6.19-14.66,4.61-11,9.22-22c.15-.36.13-1,.75-.94s.52.63.66,1q7,18.16,13.89,36.32a10.46,10.46,0,0,0,1.4,2.63,3.8,3.8,0,0,0,2.67,1.42c.33,0,.81-.09.8.47s-.56.43-.9.43C555,87.17,552.79,87.16,550.59,87.16ZM536.8,54.62l-6.91,16.21h9.53c1.08,0,2.15,0,3.22-.07a10.08,10.08,0,0,0-1-3.13C540.09,63.37,538.48,59.12,536.8,54.62Z" fill="#0f2c71" fill-rule="evenodd"/><path d="M598.23,118.22c2.59-4,5.14-7.89,7.68-11.81a26.15,26.15,0,0,0,2.09-3.49c1.17-2.62.34-4-2.48-4.17-.38,0-1,.26-.94-.5s.64-.32,1-.32q5.28,0,10.55,0c.3,0,.79-.23.89.29s-.47.51-.81.57a7.19,7.19,0,0,0-4.73,3.41c-2.41,3.58-4.69,7.24-7,10.87q-2.29,3.58-4.55,7.19a2,2,0,0,0-.48,1.08c0,4.44,0,8.87.09,13.31.05,2.44,1,3.55,4.22,3.82.32,0,.64,0,1,0s.42.15.42.44-.09.47-.4.47H588.25c-.33,0-.52-.12-.52-.49s.24-.46.54-.45a7.14,7.14,0,0,0,1.88-.19c2.12-.47,3.07-1.33,3.13-3.46.13-4.31.09-8.63.13-12.95a2.18,2.18,0,0,0-.41-1.11l-10.26-17.87c-1.29-2.25-2.94-4-5.75-4.13-.3,0-.57-.07-.55-.46,0-.62.51-.38.81-.38,4,0,8.08,0,12.11,0h3.12c.29,0,.69-.12.66.41s-.38.41-.69.43a15.9,15.9,0,0,0-2.26.2,1.8,1.8,0,0,0-1.45,2.52,6.06,6.06,0,0,0,.57,1.31q4.22,7.38,8.47,14.75C597.9,117.75,598,117.94,598.23,118.22Z" fill="#0f2c71" fill-rule="evenodd"/><path d="M307.89,66.08c2.43-3.73,4.76-7.3,7.07-10.88a33.48,33.48,0,0,0,2.8-4.6c1.1-2.53.22-3.92-2.54-4h-.48c-.27,0-.47-.09-.44-.41a.42.42,0,0,1,.48-.41h11.4c.26,0,.47.07.5.38s-.07.44-.39.46c-2.49.19-4.07,1.78-5.32,3.67-2.74,4.13-5.36,8.33-8,12.51a27.11,27.11,0,0,1-1.67,2.63,10,10,0,0,0-2.19,7.43c.2,2.95,0,5.91,0,8.88,0,3.16,1,4.21,4.13,4.56.52.06,1.56-.44,1.51.54,0,.74-1,.35-1.51.35-4.84,0-9.68,0-14.52,0h-.84c-.25,0-.49-.06-.5-.37s.19-.48.52-.5a13.29,13.29,0,0,0,2.6-.35,3.12,3.12,0,0,0,2.38-2.56,11.21,11.21,0,0,0,.22-2.26c0-2.52-.15-5,0-7.56a12.8,12.8,0,0,0-2.12-8c-3-4.93-5.8-10-8.7-15-1.28-2.22-3-3.87-5.72-4-.24,0-.48,0-.5-.35s.21-.48.52-.48h14.88a4.61,4.61,0,0,1,.48,0c.33,0,.8-.14.83.41s-.47.42-.79.42a7.4,7.4,0,0,0-2.25.24,1.8,1.8,0,0,0-1.34,2.49A6.54,6.54,0,0,0,299,50.6C301.94,55.69,304.86,60.79,307.89,66.08Z" fill="#0f2c71" fill-rule="evenodd"/><path d="M561.37,117.78c0,5.28,0,10.56,0,15.84,0,3,.7,4.69,4.58,4.86.29,0,.68-.14.71.39s-.31.54-.7.54H550.83c-.34,0-.76.11-.76-.47s.44-.43.76-.45c3.37-.25,4.52-1.47,4.52-4.87,0-10.72,0-21.44,0-32.16,0-.92-.2-1.24-1.17-1.19-2.11.12-4.25-.14-6.35.18-3.49.53-4.92,1.93-5.66,5.38a3.7,3.7,0,0,0-.06.48c0,.36-.16.63-.57.62s-.37-.44-.33-.71c.25-2.06.49-4.13.78-6.18s.33-2.1,2.47-2.1q14.7,0,29.4,0c.83,0,1.16.12,1.21,1.07.14,2.39.45,4.77.68,7.16,0,.28.21.68-.29.76s-.46-.31-.51-.62-.13-.79-.21-1.18a5.29,5.29,0,0,0-4.17-4.29c-2.87-.72-5.8-.46-8.71-.53-.69,0-.52.46-.52.83,0,2.84,0,5.68,0,8.52Z" fill="#0f2c71" fill-rule="evenodd"/><path d="M341.32,65.67c0-5.48,0-11,0-16.43,0-1-.3-1.26-1.27-1.22-2.07.1-4.15,0-6.23.21-3,.34-4.53,1.59-5.39,4.47a14.3,14.3,0,0,0-.37,1.63c-.07.39-.3.42-.6.38s-.31-.28-.28-.53c.33-2.57.66-5.15,1-7.73.07-.63.4-.75,1-.74,2.12,0,4.24,0,6.36,0,8.12,0,16.24,0,24.35,0,.85,0,1.19.19,1.25,1.07.19,2.43.47,4.85.71,7.28,0,.3.16.66-.38.67s-.43-.35-.48-.65c-.63-3.78-2.08-5.26-5.76-5.77a34.5,34.5,0,0,0-3.47-.25c-1.08,0-2.16.06-3.24,0s-1.18.27-1.18,1.19c0,10.72,0,21.43,0,32.15a9.24,9.24,0,0,0,.1,1.31c.34,2.38,1.27,3.23,3.64,3.52.51.06,1.5-.29,1.47.5,0,1-1,.42-1.53.43-4.6.05-9.2,0-13.8,0h-.6c-.28,0-.58,0-.56-.43s.25-.41.57-.42c3.41-.11,4.68-1.39,4.7-4.81C341.34,76.23,341.32,70.95,341.32,65.67Z" fill="#0f2c71" fill-rule="evenodd"/><path d="M509.63,65.48q0,7.86,0,15.71a13.27,13.27,0,0,0,.11,1.67,3.33,3.33,0,0,0,3.31,3.29l1.43.15a.41.41,0,0,1,.41.47c0,.32-.21.39-.47.39h-.48c-4.92,0-9.83,0-14.75,0-.33,0-.88.29-.94-.36s.51-.46.85-.52.72-.07,1.07-.12a3.44,3.44,0,0,0,3.35-3.54c.08-.91.11-1.83.11-2.75,0-10.2,0-20.39,0-30.59,0-1-.26-1.3-1.26-1.24-2,.11-4.07,0-6.11.19-3.26.36-5,1.8-5.73,5a7.84,7.84,0,0,0-.22,1.05c0,.36-.2.49-.54.45s-.33-.33-.29-.62c.32-2.54.66-5.07.94-7.61.07-.62.3-.77.9-.77q15.53,0,31.07,0c.6,0,.86.17.92.78.24,2.54.51,5.09.76,7.63,0,.26.15.59-.32.6s-.54-.11-.56-.47a2.18,2.18,0,0,0,0-.24c-.63-3.8-2.1-5.25-5.91-5.74a58.61,58.61,0,0,0-6.94-.25c-1,0-.72.64-.72,1.14Q509.62,57.32,509.63,65.48Z" fill="#0f2c71" fill-rule="evenodd"/><path d="M573,65.53q0,8,0,16c0,3.33.91,4.35,4.2,4.74.24,0,.48,0,.71.08s.37.26.35.52-.18.32-.4.33H562.13c-.32,0-.54-.12-.52-.49s.26-.35.5-.38c.71-.1,1.43-.18,2.13-.32a3.18,3.18,0,0,0,2.63-3,18.6,18.6,0,0,0,.14-2.27c0-10.44,0-20.88,0-31.32,0-1-.17-1.41-1.29-1.33-2,.14-4,0-6,.19-3.44.38-5,1.74-5.86,5.15-.12.47.16,1.48-.75,1.3-.7-.14-.19-1-.15-1.42.22-2.23.55-4.44.8-6.66.07-.62.29-.86,1-.86q15.48,0,31,0c.76,0,.95.29,1,1,.22,2.47.49,4.93.73,7.4,0,.29.18.66-.37.67s-.48-.28-.52-.62c-.41-4.07-2.45-5.39-6.3-5.86-2.07-.25-4.15-.16-6.23-.22-.85,0-1.06.23-1.06,1.07,0,5.48,0,11,0,16.44Z" fill="#0f2c71" fill-rule="evenodd"/><path d="M237.12,87.16c-4.72,0-9.44,0-14.15,0-.33,0-.9.29-.95-.36s.59-.43,1-.51a8.13,8.13,0,0,1,.83-.09c2.74-.26,3.81-1.38,3.9-4.15,0-1.24,0-2.48,0-3.72q0-13.31,0-26.63c0-.16,0-.32,0-.48,0-3.2-1.18-4.4-4.35-4.65-.45,0-1.34.43-1.3-.44s.91-.37,1.38-.37c4.92,0,9.84,0,14.75,0h.72a.4.4,0,0,1,.46.43c0,.32-.19.39-.45.41-.63.06-1.27.09-1.9.2-2.2.38-3.1,1.38-3.26,3.62,0,.64,0,1.28,0,1.92q0,14.57,0,29.15c0,3.12.39,3.52,3.52,3.5,2.6,0,5.19,0,7.79-.09,4.25-.21,6.93-2.51,8.65-6.19.31-.65.62-1.3.87-2,.14-.38.29-.7.74-.57s.14.54.08.77c-.95,3.17-1.94,6.32-2.86,9.5-.21.73-.63.77-1.23.76C246.55,87.16,241.84,87.16,237.12,87.16Z" fill="#0f2c71" fill-rule="evenodd"/><path d="M534.72,118.68q0,7.56,0,15.12c0,3.36,1.27,4.64,4.61,4.68h.6a.44.44,0,0,1,.5.51c0,.32-.21.4-.47.41H523.53c-.31,0-.54-.08-.54-.47s.24-.48.54-.46a7.49,7.49,0,0,0,2-.22,3.24,3.24,0,0,0,3-2.93,9.84,9.84,0,0,0,.16-2.15q0-14.52,0-29c0-.2,0-.4,0-.6,0-3.39-1-4.39-4.34-4.74-.24,0-.48,0-.72-.05s-.68,0-.65-.48.46-.35.73-.35q8,0,16,0c.27,0,.71-.17.74.33s-.41.48-.75.5c-3.75.17-5.05,1.25-5,5.65C534.79,109.16,534.72,113.92,534.72,118.68Z" fill="#0f2c71" fill-rule="evenodd"/></svg>