<svg data-name="Layer 1" xmlns="http://www.w3.org/2000/svg" viewBox="0 0 675.87 281.25"><path d="M31.91 12H13.07v100.36C24.72 94 32.31 76.4 36.21 52.45A76.93 76.93 0 0 0 31.91 12z" fill="#0768a9"/><path fill="#0768a9" d="M119.72 179.67L13.07 197.17 13.07 206.82 119.81 179.67 119.72 179.67z"/><path fill="#0768a9" d="M13.07 179.92L13.07 187.34 97.82 179.73 13.07 179.92z"/><path d="M73.25 12c10.36 4.71 20.13 11.21 26.54 20.12.2.27.37.57.56.84 5 9.79 15.11 32.38 12.28 56.4C109.82 113.17 95 132.25 95 132.25s1.29-.32 3.48-.77a101.8 101.8 0 0 0 17.86-28.93 76.5 76.5 0 0 0 3.15-9.85c6.08-25.31-2.88-48.6-6.24-56.58a16.27 16.27 0 0 1-1.17-2.94c9.85 4.19 36.17 15.49 47.74 37.17a74.37 74.37 0 0 1 7.9 27.08 40.71 40.71 0 0 1-1.09 9c0 .19-.11.36-.16.54-3.59 14-14.16 23-17 25.2.36.1.7.22 1 .33.68-.09 1.53-.17 2.53-.28A63.32 63.32 0 0 0 165.75 119a44.25 44.25 0 0 0 2.42-3.9 36 36 0 0 0 3-6.93c7.07-22.89-2.7-43.28-4.15-46.43a1.64 1.64 0 0 1-.18-.43 89.21 89.21 0 0 1 11.8 5.76c12.21 7.08 27.78 19.79 30.49 38.69a58 58 0 0 1-3.89 29.92 48.19 48.19 0 0 1-3.57 7.15 55.47 55.47 0 0 0-19.07-8.63c-4.54-1.11-10.8-1.17-16.7-.85a119.16 119.16 0 0 1-3.41 14 99.94 99.94 0 0 0-27.36-10.79 132 132 0 0 0-19.55-2.78c-.77 9.77-1.88 16-2.53 15.71-34.7-12.71-73.51-10.71-100-6.8v25.67l200.62-13.72A77.53 77.53 0 0 0 193 168.58c-5.2 4.8-10.91 11-10.91 11h-4.33c-5.28-4.66-14.26-10.23-25-7.2-1.91.54-3.71 1.09-5.48 1.63l-8.51 2.85-8.06 2.83c-3.07 1.06-6 2-9 2.84l-6.44 2.15-100.7 33.56-.77.82h224V12z" fill="#0768a9"/><path d="M28.35 246.63h3.14V259a14.6 14.6 0 0 1-.37 3.79 8.08 8.08 0 0 1-.9 2.13 6.72 6.72 0 0 1-1.31 1.52 10 10 0 0 1-6.76 2.23 10.08 10.08 0 0 1-6.82-2.21A7.06 7.06 0 0 1 14 264.9a8 8 0 0 1-.89-2.08 15.34 15.34 0 0 1-.35-3.86v-12.33h3.14V259a9.18 9.18 0 0 0 .7 4.27 5 5 0 0 0 2.13 1.93 7.4 7.4 0 0 0 3.38.72 6.81 6.81 0 0 0 4.51-1.45 4.51 4.51 0 0 0 1.32-1.84 11.38 11.38 0 0 0 .4-3.63zm31.23 0h3v21.76h-2.72l-14.55-16.76v16.76h-2.93v-21.76h2.53l14.67 16.9zm14.13 0h3.12v21.76h-3.12zm28.19 0h3.1l-9.2 21.86h-.73l-9.36-21.86h3.14l6.54 15.29zm11.99 0h12.35v2.77H117v6.6h8.91v2.79H117v6.76h9.52v2.77h-12.63zm22.53 21.76v-21.76h5.45a7.87 7.87 0 0 1 5.24 1.63 5.49 5.49 0 0 1 1.94 4.43 5.45 5.45 0 0 1-3.67 5.36 9.65 9.65 0 0 1 2 1.87 37.63 37.63 0 0 1 2.8 4.12c.76 1.23 1.37 2.16 1.83 2.79l1.15 1.56h-3.66l-1-1.44-.18-.26-.61-.86-1-1.59-1-1.7a16.67 16.67 0 0 0-1.77-2.13 6.52 6.52 0 0 0-1.45-1.14 4.86 4.86 0 0 0-2.17-.35h-.81v9.47zm4.06-19.12h-.93v6.89h1.18a8.68 8.68 0 0 0 3.25-.41 3 3 0 0 0 1.37-1.22 3.54 3.54 0 0 0 .49-1.86 3.35 3.35 0 0 0-.55-1.87 2.89 2.89 0 0 0-1.53-1.18 11 11 0 0 0-3.28-.35zm27 9.99l-2.37-1.45a10.64 10.64 0 0 1-3.17-2.67 5.08 5.08 0 0 1-.94-3 5.37 5.37 0 0 1 1.78-4.18 6.67 6.67 0 0 1 4.64-1.61 8.83 8.83 0 0 1 5 1.52v3.54a7.21 7.21 0 0 0-5.06-2.27 4.17 4.17 0 0 0-2.51.71 2.15 2.15 0 0 0-1 1.81 2.79 2.79 0 0 0 .72 1.83 9 9 0 0 0 2.33 1.8l2.38 1.41q4 2.38 4 6.06a5.56 5.56 0 0 1-1.75 4.26 6.4 6.4 0 0 1-4.56 1.64 9.54 9.54 0 0 1-5.88-2v-4a7.32 7.32 0 0 0 5.84 3.21 3.64 3.64 0 0 0 2.44-.82 2.57 2.57 0 0 0 1-2q-.02-2.05-2.89-3.79zm15.73-12.63h3.12v21.76h-3.12zm11.93-.04h18.19v2.77h-7.59v19h-3.14v-19h-7.46zm40.04.04H239l-8 10.25v11.52h-3.21v-11.53l-8-10.25h3.76l5.84 7.49zM268 259.26l-2.37-1.45a10.63 10.63 0 0 1-3.17-2.67 5.09 5.09 0 0 1-.95-3 5.36 5.36 0 0 1 1.79-4.18 6.66 6.66 0 0 1 4.63-1.61 8.84 8.84 0 0 1 5 1.52v3.54a7.21 7.21 0 0 0-5.06-2.27 4.2 4.2 0 0 0-2.51.71 2.15 2.15 0 0 0-1 1.81 2.79 2.79 0 0 0 .72 1.83 9.06 9.06 0 0 0 2.33 1.8l2.38 1.41q4 2.38 4 6.06A5.56 5.56 0 0 1 272 267a6.4 6.4 0 0 1-4.56 1.64 9.55 9.55 0 0 1-5.88-2v-4a7.33 7.33 0 0 0 5.84 3.21 3.66 3.66 0 0 0 2.45-.82 2.57 2.57 0 0 0 1-2q-.02-2.03-2.85-3.77zm28.74-12.63h3.8l-8 10.25v11.52h-3.2v-11.53l-8-10.25H285l5.84 7.49zm17.43 12.63l-2.37-1.45a10.63 10.63 0 0 1-3.17-2.67 5.08 5.08 0 0 1-.94-3 5.38 5.38 0 0 1 1.78-4.18 6.67 6.67 0 0 1 4.63-1.61 8.82 8.82 0 0 1 5 1.52v3.54a7.21 7.21 0 0 0-5.06-2.27 4.18 4.18 0 0 0-2.51.71 2.16 2.16 0 0 0-1 1.81 2.78 2.78 0 0 0 .73 1.83 8.9 8.9 0 0 0 2.33 1.8l2.38 1.41q4 2.38 4 6.06a5.55 5.55 0 0 1-1.75 4.26 6.41 6.41 0 0 1-4.56 1.64 9.53 9.53 0 0 1-5.87-2v-4a7.32 7.32 0 0 0 5.84 3.21 3.65 3.65 0 0 0 2.44-.82 2.57 2.57 0 0 0 1-2q-.07-2.05-2.9-3.79zM328 246.59h18.2v2.77h-7.59v19h-3.14v-19H328zm27.63.04H368v2.77h-9.22v6.6h8.9v2.79h-8.9v6.76h9.51v2.77h-12.66zm39.72 0h2.94v21.76h-3.14v-16.94l-6.7 8.41h-.57l-6.76-8.41v16.94H378v-21.76h3l7.2 8.93zm39.49-.31a11.69 11.69 0 0 1 8.4 3.19 10.59 10.59 0 0 1 3.36 8 10.41 10.41 0 0 1-3.39 8 12 12 0 0 1-8.54 3.16 11.35 11.35 0 0 1-8.2-3.16 10.51 10.51 0 0 1-3.27-7.9 10.75 10.75 0 0 1 3.3-8.07 11.5 11.5 0 0 1 8.34-3.22zm.13 3a8.46 8.46 0 0 0-6.14 2.34 8 8 0 0 0-2.41 6 7.83 7.83 0 0 0 2.41 5.86 9 9 0 0 0 12.13-.05 8 8 0 0 0 2.44-5.93 7.77 7.77 0 0 0-2.44-5.82 8.28 8.28 0 0 0-5.96-2.44zm21.33-2.69h11.61v2.77h-8.49v6.08h8.49v2.77h-8.49v10.14h-3.12zm47.25 11.03h7.32v9.25a20 20 0 0 1-8 1.74 11.83 11.83 0 0 1-8.65-3.16 10.47 10.47 0 0 1-3.23-7.79 10.83 10.83 0 0 1 3.35-8.13 11.6 11.6 0 0 1 8.41-3.25 15 15 0 0 1 3.49.39 29.05 29.05 0 0 1 4.18 1.45v3.19a15.35 15.35 0 0 0-7.74-2.26 8.2 8.2 0 0 0-6 2.44 8.64 8.64 0 0 0 0 12 8.68 8.68 0 0 0 6.3 2.36 14.84 14.84 0 0 0 4.47-.86l.29-.1v-4.56h-4.19zm18.35-11.03h12.34v2.77H525v6.6h8.91v2.79H525v6.76h9.51v2.77H521.9zm33.1-.31a11.69 11.69 0 0 1 8.4 3.19 10.58 10.58 0 0 1 3.36 8 10.41 10.41 0 0 1-3.39 8 12 12 0 0 1-8.54 3.16 11.34 11.34 0 0 1-8.2-3.16 10.5 10.5 0 0 1-3.27-7.9 10.77 10.77 0 0 1 3.3-8.07 11.51 11.51 0 0 1 8.34-3.22zm.12 3a8.45 8.45 0 0 0-6.14 2.34 7.94 7.94 0 0 0-2.41 6 7.81 7.81 0 0 0 2.41 5.86 9 9 0 0 0 12.13-.05 8 8 0 0 0 2.44-5.93 7.78 7.78 0 0 0-2.44-5.82 8.3 8.3 0 0 0-5.97-2.44zm21.42 19.07v-21.76H582a7.87 7.87 0 0 1 5.24 1.63 5.49 5.49 0 0 1 1.94 4.43 5.46 5.46 0 0 1-3.67 5.36 9.72 9.72 0 0 1 2 1.87 37.59 37.59 0 0 1 2.81 4.12c.76 1.23 1.36 2.16 1.82 2.79l1.15 1.56h-3.71l-.95-1.44a2.81 2.81 0 0 0-.18-.26l-.61-.86-1-1.59-1-1.7a16.37 16.37 0 0 0-1.77-2.13 6.54 6.54 0 0 0-1.45-1.14 4.88 4.88 0 0 0-2.17-.35h-.81v9.47zm4.06-19.12h-.93v6.89h1.18a8.69 8.69 0 0 0 3.25-.41 3 3 0 0 0 1.37-1.22 3.56 3.56 0 0 0 .49-1.86 3.35 3.35 0 0 0-.54-1.87 2.89 2.89 0 0 0-1.53-1.18 11 11 0 0 0-3.29-.35zm33.4 8.39h7.32v9.25a20 20 0 0 1-8 1.74 11.83 11.83 0 0 1-8.64-3.16 10.47 10.47 0 0 1-3.24-7.79 10.84 10.84 0 0 1 3.35-8.13 11.59 11.59 0 0 1 8.4-3.25 15.11 15.11 0 0 1 3.5.39 29 29 0 0 1 4.17 1.45v3.19a15.32 15.32 0 0 0-7.73-2.26 8.22 8.22 0 0 0-6 2.44 8.64 8.64 0 0 0 0 12 8.71 8.71 0 0 0 6.3 2.36 14.87 14.87 0 0 0 4.48-.86l.29-.1v-4.56H614zm18.33-11.03h3.12v21.76h-3.12zm20.67-.13h2.19l9.81 21.89h-3.19l-2.9-6.45h-9.28l-2.73 6.45h-3.2zm4.61 12.67l-3.53-7.88-3.27 7.88zM308.92 48.28v7.29a34.43 34.43 0 0 1-16.82 4 25.86 25.86 0 0 1-13.15-3.12 22.84 22.84 0 0 1-8.55-8.59A23.33 23.33 0 0 1 267.25 36a22.63 22.63 0 0 1 7.2-17 24.69 24.69 0 0 1 17.76-6.91q7.28 0 16.19 3.88v7.1a31.84 31.84 0 0 0-15.86-4.65 18.33 18.33 0 0 0-13.21 5A16.66 16.66 0 0 0 274.09 36a16.52 16.52 0 0 0 5.17 12.52 18.44 18.44 0 0 0 13.23 4.91 30 30 0 0 0 16.43-5.15zm38.64-36.19q10.73 0 17.88 6.8a22.53 22.53 0 0 1 7.13 17 22.15 22.15 0 0 1-7.21 16.94q-7.21 6.71-18.17 6.71a24.17 24.17 0 0 1-17.45-6.71 22.36 22.36 0 0 1-7-16.81 22.84 22.84 0 0 1 7-17.16q7.09-6.76 17.82-6.77zm.25 6.33a18 18 0 0 0-13.08 5A16.88 16.88 0 0 0 329.61 36a16.55 16.55 0 0 0 5.14 12.44 19.09 19.09 0 0 0 25.79-.1 16.88 16.88 0 0 0 5.19-12.6 16.51 16.51 0 0 0-5.19-12.35 17.65 17.65 0 0 0-12.73-4.97zm40.63-5.68h6.64v40.32h20.83v6h-27.47zm42.37 0h6.64v40.32h20.83v6h-27.47zm42.35 0h26.25v5.87h-19.6v14.2h19v5.93h-19v14.45h20.25v5.87h-26.9zm68.06 23.48h15.54v19.66a42.58 42.58 0 0 1-17 3.69q-11.51 0-18.39-6.72a22.24 22.24 0 0 1-6.88-16.57A23.05 23.05 0 0 1 521.65 19q7.14-6.9 17.89-6.91a32.07 32.07 0 0 1 7.43.84 61 61 0 0 1 8.89 3v6.78A32.81 32.81 0 0 0 539.38 18a17.48 17.48 0 0 0-12.82 5.19 17.26 17.26 0 0 0-5.21 12.73 17.17 17.17 0 0 0 5.21 12.93q5.2 5 13.4 5a31.19 31.19 0 0 0 9.53-1.85l.62-.19v-9.72h-8.9zM576 12.74h26.25v5.87h-19.57v14.2h19v5.93h-19v14.45h20.25v5.87H576zM299.43 191.31h18.87v23.87a51.49 51.49 0 0 1-20.59 4.49q-14 0-22.29-8.15a27 27 0 0 1-8.35-20.12 28 28 0 0 1 8.65-21q8.65-8.4 21.68-8.4a38.5 38.5 0 0 1 9 1 73.85 73.85 0 0 1 10.78 3.76V175q-10.06-5.81-20-5.81a21.18 21.18 0 0 0-15.53 6.29 20.92 20.92 0 0 0-6.31 15.43q0 9.6 6.3 15.68t16.23 6.08a37.59 37.59 0 0 0 11.53-2.22l.76-.24v-11.73h-10.73zm38.85-28.5h31.85V170h-23.77v17.19h23v7.17h-23v17.51h24.54V219h-32.62zm75.35-.81q13 0 21.7 8.24A27.33 27.33 0 0 1 444 191a26.89 26.89 0 0 1-8.75 20.57q-8.76 8.14-22.06 8.14-12.71 0-21.18-8.14a27.11 27.11 0 0 1-8.47-20.4q0-12.59 8.53-20.83t21.56-8.34zm.34 7.62q-9.66 0-15.88 6a20.54 20.54 0 0 0-6.22 15.39 20.19 20.19 0 0 0 6.24 15.12 23.21 23.21 0 0 0 31.33-.12 20.54 20.54 0 0 0 6.3-15.32 20.08 20.08 0 0 0-6.3-15 21.39 21.39 0 0 0-15.44-6.03zm48.4 49.38v-56.19h14.07q8.53 0 13.54 4.22a14.14 14.14 0 0 1 5 11.41 14.05 14.05 0 0 1-9.5 13.83 24.94 24.94 0 0 1 5.29 4.83 95.83 95.83 0 0 1 7.23 10.68q2.94 4.8 4.7 7.21l3 4h-9.57l-2.45-3.71a8.28 8.28 0 0 0-.49-.68l-1.56-2.22-2.49-4.11-2.7-4.39a43.47 43.47 0 0 0-4.56-5.52 17.13 17.13 0 0 0-3.75-3 12.76 12.76 0 0 0-5.62-.9h-2.09V219zm10.49-49.36h-2.41v17.7h3q6.1 0 8.37-1a7.84 7.84 0 0 0 3.53-3.15 9.15 9.15 0 0 0 1.26-4.8 8.64 8.64 0 0 0-1.4-4.79 7.52 7.52 0 0 0-4-3 28.57 28.57 0 0 0-8.36-.94zm75.95 21.67h18.86v23.87a51.49 51.49 0 0 1-20.59 4.49q-13.95 0-22.29-8.15a27 27 0 0 1-8.34-20.12 28 28 0 0 1 8.65-21q8.65-8.37 21.68-8.37a38.78 38.78 0 0 1 9 1 74 74 0 0 1 10.78 3.76V175q-10.05-5.82-20-5.81a21.17 21.17 0 0 0-15.53 6.28 20.93 20.93 0 0 0-6.31 15.43q0 9.6 6.3 15.68t16.23 6.08a37.6 37.6 0 0 0 11.53-2.22l.76-.24v-11.72h-10.73zm40.56-28.5h8.08V219h-8.08zm44.97-.32H640L665.2 219H657l-7.48-16.67h-23.96l-7 16.67h-8.27zm11.87 32.69l-9.07-20.34-8.42 20.34zm-324.37-66.63v9.56a45.37 45.37 0 0 1-22 5.17q-10.13 0-17.18-4.08a30 30 0 0 1-11.17-11.2 30.55 30.55 0 0 1-4.11-15.47 29.56 29.56 0 0 1 9.42-22.23q9.42-9 23.23-9 9.53 0 21.17 5v9.3q-10.6-6.07-20.73-6.07-10.39 0-17.25 6.57a21.84 21.84 0 0 0-6.86 16.46 21.65 21.65 0 0 0 6.75 16.41q6.74 6.42 17.27 6.42 10.99-.06 21.46-6.84zm43.91-47.35q14 0 23.33 8.88a29.5 29.5 0 0 1 9.32 22.27q0 13.4-9.4 22.16t-23.72 8.77q-13.67 0-22.76-8.77a29.25 29.25 0 0 1-9.11-22q0-13.56 9.17-22.44t23.17-8.87zm.36 8.21q-10.37 0-17 6.51t-6.67 16.61a21.81 21.81 0 0 0 6.69 16.31 24.81 24.81 0 0 0 33.64-.13 22.18 22.18 0 0 0 6.76-16.53A21.67 21.67 0 0 0 382.72 96a22.91 22.91 0 0 0-16.6-6.6zm60.44-7.7h6.13l27.09 60.86h-8.86l-8-18h-25.79l-7.55 18h-8.9zm12.79 35.21L429.57 95l-9.08 21.91zm45.66.31l-6.59-4c-4.14-2.52-7.08-5-8.83-7.45a14.1 14.1 0 0 1-2.58-8.44 14.87 14.87 0 0 1 5-11.61q5-4.47 12.89-4.47a24.33 24.33 0 0 1 13.92 4.28v9.82q-6.55-6.28-14.11-6.28a11.7 11.7 0 0 0-7 2 5.94 5.94 0 0 0-2.74 5 7.69 7.69 0 0 0 2 5.08 25.65 25.65 0 0 0 6.48 5l6.63 3.92q11.09 6.62 11.09 16.85a15.44 15.44 0 0 1-4.88 11.83q-4.87 4.54-12.68 4.55a26.67 26.67 0 0 1-16.35-5.51v-11q7 8.87 16.27 8.87a10.22 10.22 0 0 0 6.79-2.26 7.1 7.1 0 0 0 2.71-5.67q-.02-5.56-8.02-10.51zM510.82 82h50.53v7.69h-21.07v52.84h-8.72v-52.8h-20.74zm74.43-.29h6.13l27.1 60.86h-8.86l-8-18h-25.8l-7.56 18h-8.9zM598 116.92L588.28 95l-9.08 21.91zM628.74 82h8.66v52.65h27.26v7.88h-35.92zm5.99-55a7.67 7.67 0 0 1 6 2.5 9.74 9.74 0 0 1 2.27 6.74 15.87 15.87 0 0 1-3.34 10.18 10.05 10.05 0 0 1-8.11 4.21 7.28 7.28 0 0 1-5.85-2.68 10.36 10.36 0 0 1-2.27-6.95 16.55 16.55 0 0 1 1.32-6.35 13.84 13.84 0 0 1 3.36-5.09 9.45 9.45 0 0 1 6.62-2.56zm.08 1.38q-3.24 0-5.41 3.65a17.47 17.47 0 0 0-2.16 9q0 7.91 4.82 7.91c2 0 3.62-1.3 5-3.89a19.27 19.27 0 0 0 2.11-9.31q.03-7.34-4.35-7.34zm17.19.96h-3.73c-.93 0-1.38-.27-1.38-.8 0-.76.54-1.14 1.61-1.14h3.79l.11-.74q1.33-7.77 4.85-12.42a10.19 10.19 0 0 1 2.73-2.69 6 6 0 0 1 3.11-.77 3.32 3.32 0 0 1 1.55.25 1 1 0 0 1 .43 1c0 2.37-.23 3.55-.69 3.55a.64.64 0 0 1-.48-.28l-.7-.74a3.21 3.21 0 0 0-2.56-1.2c-1 0-2 1-2.76 3.08a53.13 53.13 0 0 0-2.25 9.93l-.14 1.05h4.26c.91 0 1.36.26 1.36.77 0 .78-.53 1.17-1.59 1.17h-4.3l-2.62 21.08q-.57 4.73-2.67 6.94-2.38 2.54-4.81 2.55c-1 0-1.45-.39-1.45-1.16a6.88 6.88 0 0 1 .5-2.41c.33-.87.65-1.31.91-1.31s.38.22.46.66c.22 1.31.72 2 1.48 2q1.42 0 1.9-3.88l.23-1.93 1.59-13q.54-4.9 1.26-9.56z" fill="#3a3a3a"/><path fill="none" d="M0 0H675.87V281.25H0z"/></svg>