<svg id="Layer_1" data-name="Layer 1" xmlns="http://www.w3.org/2000/svg" viewBox="0 0 75.98 70"><defs><style>.cls-1{fill:#0768a9;}</style></defs><title>college-of-coastal-georgia_icon</title><path class="cls-1" d="M20.35,0a22.12,22.12,0,0,1,9,6.8,2.9,2.9,0,0,1,.19.29C31.2,10.4,34.62,18,33.66,26.15a32.85,32.85,0,0,1-6,14.5s.44-.11,1.18-.26a34.3,34.3,0,0,0,6-9.78A25.78,25.78,0,0,0,36,27.28C38,18.73,35,10.85,33.87,8.15a5.66,5.66,0,0,1-.39-1c3.33,1.42,12.23,5.24,16.14,12.57a25.28,25.28,0,0,1,2.67,9.15,13.45,13.45,0,0,1-.37,3,1.05,1.05,0,0,1-.05.19,16.83,16.83,0,0,1-5.75,8.52l.34.11.85-.1a21.24,21.24,0,0,0,4.31-4.47,12.67,12.67,0,0,0,.82-1.32,12.19,12.19,0,0,0,1-2.34c2.39-7.74-.92-14.63-1.41-15.69a.47.47,0,0,1-.06-.15,29.44,29.44,0,0,1,4,1.95C60.11,21,65.37,25.31,66.29,31.7A19.53,19.53,0,0,1,65,41.81a16.51,16.51,0,0,1-1.2,2.42,19,19,0,0,0-6.45-2.92A21.66,21.66,0,0,0,51.67,41a40.9,40.9,0,0,1-1.15,4.74,33.55,33.55,0,0,0-9.25-3.65,44.58,44.58,0,0,0-6.61-.94c-.26,3.3-.63,5.41-.85,5.31C22.08,42.18,9,42.86,0,44.18v8.68l67.82-4.64a26.31,26.31,0,0,0-7,4.71c-1.76,1.63-3.69,3.72-3.69,3.72H55.68c-1.78-1.57-4.82-3.46-8.45-2.43-.64.18-1.25.37-1.85.55l-2.88,1-2.72,1c-1,.36-2,.68-3.05,1l-2.17.73L.51,69.72.25,70H76V0Z"/></svg>