<svg viewBox="0 0 366.34 80.78" xmlns="http://www.w3.org/2000/svg" xmlns:xlink="http://www.w3.org/1999/xlink"><symbol id="a" viewBox="0 0 44.43 80.78"><path d="m43.88 24.14a30.13 30.13 0 0 0 -13.42-5.85v-.62h2.7l-.73-11.85h-6.43l-3.79-5.82-3.83 5.82h-6.38l-.72 11.85h1.07v1a29.12 29.12 0 0 0 -11.79 5.47l-.56.45v48.2s7.19 7.1 22.21 7.1 22.21-7.1 22.21-7.1v-48.2z" fill="#fff"/><path d="m24.72 23.3a4.1 4.1 0 0 0 1.28-2.93 4.14 4.14 0 0 0 -4.16-4.11l.91 2.91a.62.62 0 0 1 -.22 1.2.58.58 0 0 1 -.25-.05l-1.92 1 1.55-1.52a.62.62 0 0 1 .11-.33l-.3-3.16a4.17 4.17 0 0 0 -2.85 1.24 4.26 4.26 0 1 1 5.91 5.79m-7.85-2.63a4.6 4.6 0 0 0 4.62 4.58 4.68 4.68 0 0 0 2.88-1 5.11 5.11 0 0 1 -1.92.38 5 5 0 0 1 -5-4.93 4.8 4.8 0 0 1 .37-1.85 4.51 4.51 0 0 0 -1 2.81m1.53 32 .6.83v-16.78h-1.27v15.94zm5.06 0 .6.83v-16.78h-1.27v15.94zm-2.53 0 .61.83v-16.78h-1.28v15.94zm5.06 0 .61.83v-16.78h-1.28v15.94zm16.9 2.64v-30a28.52 28.52 0 0 0 -12.45-5.47v11.13h2.12v.73h-2.13v1.27h2.12v25.38a137.55 137.55 0 0 1 -16.56 3.62v-29h12.43v-1.25h-12.43v-15.62l6.14-8.63 6.29 8.85v12h2l-.91-1.22v-11h2l-.52-8.78h-4.57l2.21 5.24-6.44-9.8-3 4.56h-5.79l-.53 8.78h1v3.73a28.38 28.38 0 0 0 -12.35 5.46v43.5c21.21-4.25 36.79-8.56 34-10.15s2.79-2.83 7.35-3.32m-31.04-24.35h2v.73h-2zm1.27 9v22.47l-1.27.21v-29.68h2v4.94z" fill="#052147"/><path d="m39.18 58.06c4.7 2.81-9.09 11.3-30.35 18a39.14 39.14 0 0 0 13.38 2.25c8.55 0 16.1-2.48 20.69-6.28v-15.55c-2.66.2-5.26.65-3.71 1.58" fill="#f20017"/><path d="m41.56 76.81a2 2 0 1 1 -2 2 2 2 0 0 1 2-2zm0 3.53a1.55 1.55 0 1 0 -1.42-1.55 1.44 1.44 0 0 0 1.42 1.55zm-.8-2.66h.83c.56 0 .88.17.88.65a.55.55 0 0 1 -.58.59l.58 1h-.47l-.55-.92h-.22v.94h-.47zm.86.9c.23 0 .38 0 .38-.29s-.25-.25-.43-.25h-.34v.54z" fill="#052147"/></symbol><path d="m56.12 56.13a.56.56 0 0 1 -.56-.56.56.56 0 0 1 .56-.56h137.67a.56.56 0 0 1 .56.56.56.56 0 0 1 -.56.56z" fill="#f20017"/><path d="m95.82 23.94c-6.74 0-12.83 5-12.83 12.12 0 6.37 5.34 11.61 12.72 11.61 8.21 0 12.86-6.21 12.86-11.87.01-6.69-5.95-11.86-12.75-11.86zm.1 22.51c-5.88 0-9.51-5.72-9.51-10.93 0-7.46 4.52-10.22 9.3-10.22 6 0 9.44 5.69 9.44 10.87.01 5.9-2.9 10.28-9.23 10.28zm24.39-.29c-4.21 0-4.75-.84-4.75-3.25v-14.91c0-2.09.68-2.64 2.26-2.64h.79v-1c-1.61 0-3 .1-4.55.1s-3.18-.06-4.38-.1v1h.62c1.57 0 2.26.55 2.26 2.64v15.65c0 2.09-.68 2.64-2.26 2.64h-.62v1c1.2 0 4.48-.1 8.48-.1 3 0 6.88.06 9.88.1l.21-5.69h-1.06c-.62 3.62-1.27 4.56-6.88 4.56zm60.75-3.63c-.07-4.86-.21-12.93-.21-14.57 0-2.28 1.06-2.64 2.63-2.64h.44v-1c-1.06 0-2.12.1-3.15.1s-2.05-.06-3.15-.1l-8.31 18.87-9.41-18.87c-.41 0-1.71.1-2.74.1s-2-.06-3-.1c-1.23 0-2.5.1-3.73.1s-2.63-.06-3.59-.1v1h.72c.86 0 1.23.13 1.61.87a36.53 36.53 0 0 1 .68 8.36v3.45a9.41 9.41 0 0 1 -1.64 5.72 8.76 8.76 0 0 1 -6.39 2.77 6.66 6.66 0 0 1 -5.68-2.57c-.92-1.22-1.4-2.47-1.4-5.21 0-3.38.1-6.79.14-10.16 0-2.7.82-3.12 2.12-3.18h.65v-1c-1.44 0-2.91.1-4.34.1s-3-.06-4.38-.1v1h.62c1.26 0 2.19.42 2.19 2.47v10.08c0 3.34.92 6 3.25 7.62a11.31 11.31 0 0 0 13.85-.54c1.81-1.9 2.67-4.53 2.67-8v-8.18c0-3.05.85-3.5 2.09-3.5h1.27c1.81 0 2.5.48 2.5 2.64 0 4.63-.24 9.13-.34 13.6-.1 3.92-.68 4.73-2.36 4.73h-.67v1c1 0 2.16-.1 3.66-.1s2.77.06 3.62.1v-1h-.48c-1.88 0-2.19-1.06-2.19-4.57v-13.18h.07l9.41 19h.75l9.16-20.87h.07v16.21c0 2.83-.38 3.41-2.29 3.41h-.51v1c1.16 0 2.67-.1 4.45-.1s3.25.06 4.38.1v-1h-.68c-1.95 0-2.33-.55-2.36-3.77zm-110.84 3.66c-4.12 0-10.82-3.05-10.82-11.92 0-5.47 2.6-12.44 10.6-12.44 7.49 0 9.39 3.65 10.42 5.59h.64l.16-5.06a12.41 12.41 0 0 1 -2-.52 32.74 32.74 0 0 0 -9.07-1.56 14.47 14.47 0 0 0 -14.71 14.66c0 7.48 6.1 12.81 15.09 12.81a15.45 15.45 0 0 0 10.9-4.25v-2.83h-.28c-1.86 2.2-4.71 5.52-10.93 5.52zm137-18.39v10.12c0 3.34.93 6 3.25 7.62a11.3 11.3 0 0 0 13.86-.54c1.81-1.9 2.67-4.53 2.67-8v-8.18c0-3.05.86-3.5 2.09-3.5h.51v-1c-1.23 0-2.43.1-3.66.1s-2.63-.06-3.59-.1v1h.72c.86 0 1.23.13 1.61.87a36.67 36.67 0 0 1 .68 8.36v3.45a9.42 9.42 0 0 1 -1.64 5.72 8.76 8.76 0 0 1 -6.39 2.77 6.66 6.66 0 0 1 -5.68-2.57c-.92-1.22-1.4-2.47-1.4-5.21 0-3.38.1-6.79.14-10.16 0-2.7.82-3.12 2.12-3.18h.65v-1c-1.44 0-2.91.1-4.34.1s-3-.06-4.38-.1v1h.56c1.31-.05 2.23.37 2.23 2.43zm28.39 8 3.69 1.64c1.92.87 4.27 2 4.27 4.79s-2.53 4.37-5.47 4.37a5.68 5.68 0 0 1 -5.81-5h-1l.14 5.27a23.94 23.94 0 0 0 6.12.8c5.71 0 8.51-2.93 8.51-6.95 0-3.22-2.63-5-5.09-6l-3.15-1.35c-2.84-1.22-3.86-2.54-3.86-4.41 0-2.09 1.81-3.79 4.65-3.79 5.17 0 5.44 4 5.47 5h1.16v-5.4a36.05 36.05 0 0 0 -6.4-.87c-4.62 0-7.63 3-7.63 6.3 0 2.68 1.79 4.41 4.41 5.57zm44.72 3.94c0-3.72-3.05-5.74-5.9-7l-3.65-1.56c-3.29-1.42-4.47-2.94-4.47-5.1 0-2.42 2.1-4.39 5.39-4.39 6 0 6.3 4.65 6.34 5.85h1.35v-6.27a41.59 41.59 0 0 0 -7.41-1c-5.35 0-8.83 3.46-8.83 7.3 0 3.05 2.1 5.06 5.11 6.4l4.28 1.9c2.22 1 5 2.27 5 5.55s-2.93 5.06-6.34 5.06a6.58 6.58 0 0 1 -6.73-5.77h-1.19l.16 6.11a27.71 27.71 0 0 0 7.09.93c6.56 0 9.81-3.39 9.81-8.04zm50.9 6.58h-.79v1c1.3 0 2.77-.1 4.48-.1s3.18.06 4.48.1v-1h-.79c-1.85 0-2.19-.42-2.19-3.05v-17.56h3.9c3.66 0 4.11 2 4.31 4.5h1.16v-5.85c-1.16 0-6.77.1-10.88.1-4.45 0-9.85-.06-10.88-.1v5.85h1.16c.21-2.51.65-4.5 4.31-4.5h3.9v17.52c.03 2.64-.31 3.06-2.16 3.06zm-4.25 0h-.72c-1.57 0-2.63-1.25-3.45-3.12l-8.81-19.74h-.65l-7.83 19.36c-1.06 2.67-1.81 3.47-3.69 3.47h-.41v1c.82-.06 2.09-.1 3.39-.1q2.41 0 4.21.1v-1h-.75c-1.06 0-1.4-.45-1.4-1a7.68 7.68 0 0 1 .58-2.31l1.81-5.08h8l2.5 5.79a5.3 5.3 0 0 1 .48 1.61c0 .68-.65 1-1.74 1h-.86v1c1.27-.06 2.91-.1 4.72-.1s3.35 0 4.65.1zm-17.27-9.65 3.18-8.81 3.83 8.81zm13.84 18.57v.61h.45c1 0 1.43.35 1.43 1.67v9.88c0 1.32-.43 1.67-1.43 1.67h-.39v.61c.76 0 1.79-.06 2.77-.06s1.86 0 2.77.06v-.61h-.39c-1 0-1.42-.34-1.42-1.67v-9.91c0-1.32.43-1.67 1.42-1.67h.39v-.61c-.91 0-1.81.06-2.77.06s-2.05-.04-2.81-.06zm-8.55 6.51-2-.86c-1.79-.77-2.44-1.6-2.44-2.78s1.15-2.4 2.94-2.4c3.26 0 3.44 2.54 3.46 3.19h.74v-3.4a22.76 22.76 0 0 0 -4-.55c-2.92 0-4.82 1.89-4.82 4 0 1.67 1.14 2.77 2.79 3.5l2.33 1c1.21.55 2.7 1.24 2.7 3s-1.6 2.76-3.46 2.76a3.58 3.58 0 0 1 -3.67-3.15h-.65l.09 3.33a15.17 15.17 0 0 0 3.87.51c3.61 0 5.38-1.85 5.38-4.39-.07-1.99-1.73-3.09-3.26-3.76zm-110.88-20.75c0-3.44-2.63-5.43-5.64-5.88v-.12c2.74-1.29 4.24-2.76 4.24-5.43 0-4.31-3.8-5.24-7.18-5.24-1.71 0-3.76.1-5.13.1-1.54 0-3.18-.06-4.38-.1v1h.62c1.57 0 2.26.55 2.26 2.64v15.68c0 2.09-.68 2.64-2.26 2.64h-.65v1c1.2 0 2.84-.1 4.38-.1s3.32.1 5 .1c3 0 4.62-.45 6-1.38a5.9 5.9 0 0 0 2.74-4.91zm-12.21-14c0-1.06.14-1.58 2.46-1.58 2.8 0 5.75 1.41 5.75 5.4 0 3.67-4.31 3.83-6.29 3.83a13.05 13.05 0 0 1 -1.91-.16zm3.45 19.13c-3 0-3.45-1.48-3.45-3v-7.13a9.28 9.28 0 0 1 1.88-.13 8.23 8.23 0 0 1 4.68 1.13 5.59 5.59 0 0 1 2.63 4.89c.01 2.76-2.1 4.27-5.74 4.27zm138.15 9.05v3.7h.74c.13-1.58.41-2.84 2.72-2.84h2.47v11.1c0 1.67-.22 1.93-1.38 1.93h-.5v.61c.82 0 1.75-.06 2.83-.06s2 0 2.83.06v-.61h-.5c-1.16 0-1.38-.26-1.38-1.93v-11.07h2.47c2.31 0 2.59 1.26 2.72 2.84h.73v-3.7c-.73 0-4.28.06-6.87.06-2.81 0-6.23-.04-6.88-.06zm31.87-13.78c-.55 3.57-2.05 4.6-7.8 4.6h-.92c-2.19 0-2.94-.48-2.94-2.41v-7.69h3.28c3.87 0 3.9.68 4.07 2.28h1c0-.64-.07-1.67-.07-2.93 0-1.42 0-2.41.07-3.15h-1c-.07 1.9-.21 2.57-4.38 2.57h-3v-9.1h3.31c6.05 0 6.29 2 6.63 4.24h1c-.17-1.74-.24-3.47-.31-5.46-2.39 0-4 .1-8 .1-3.42 0-7.32-.06-8.42-.1v1h.62c1.57 0 2.26.55 2.26 2.64v15.66c0 2.09-.68 2.64-2.26 2.64h-.62v1c1.09 0 4.18-.1 8.42-.1 3.69 0 7.35.06 9.41.1.24-2 .45-3.83.69-5.82zm-64.57 25.88-2.9-4.51a3.8 3.8 0 0 0 3.09-3.77c0-.93-.69-3.76-4.52-3.76-1 0-2 .06-3.44.06-1 0-2 0-2.77-.06v.61h.39c1 0 1.43.35 1.43 1.67v9.88c0 1.32-.43 1.67-1.43 1.67h-.39v.61c.75 0 1.79-.06 2.77-.06s1.86 0 2.81.06v-.61h-.63c-.87 0-1.23-.22-1.23-2.15v-3.85c1.66 0 1.95.08 2.44.83l2.57 3.89c1.14 1.77 2 2 3.93 2h1.21v-.43c-1.79-.13-2.14-.25-3.33-2.08zm-5.36-5a5.12 5.12 0 0 1 -1.47-.14v-6.07a13.43 13.43 0 0 1 1.36-.08 3.44 3.44 0 0 1 3.66 3.37c0 2.11-1.6 2.94-3.55 2.94zm65.79-7.09v.61h.41c.58 0 .84.12.84.47a4.42 4.42 0 0 1 -.58 1.44l-3 5.37-3.2-5.43a3.23 3.23 0 0 1 -.47-1.2c0-.51.34-.65.8-.65h.39v-.61c-.91 0-1.84.06-2.75.06s-1.79 0-2.72-.06v.61h.19c1.06 0 1.34.18 2.18 1.61l4.15 7v3.21c0 1.06-.24 1.44-1.32 1.44h-.52v.61c.8 0 1.79-.06 2.74-.06s1.84 0 2.75.06v-.61h-.43c-.84 0-1.32-.24-1.32-1.44v-3.62l3.83-6.73c.67-1.18.87-1.44 1.75-1.44h.54v-.61c-.69 0-1.43.06-2.14.06s-1.23-.05-2.11-.07zm-71.36-8.93h-.79v1c1.3 0 2.77-.1 4.48-.1s3.18.06 4.48.1v-1h-.79c-1.85 0-2.19-.42-2.19-3.05v-17.5h3.93c3.66 0 4.1 2 4.31 4.5h1.16v-5.85c-1.16 0-6.77.1-10.87.1-4.45 0-9.85-.06-10.88-.1v5.85h1.16c.21-2.51.65-4.5 4.31-4.5h3.9v17.52c-.01 2.64-.35 3.06-2.2 3.06zm-47 8.93v.61h.39c1 0 1.43.35 1.43 1.67v9.93c0 1.32-.43 1.67-1.43 1.67h-.39v.61c.76 0 1.79-.06 2.77-.06s1.86 0 2.77.06v-.61h-.39c-1 0-1.43-.34-1.43-1.67v-9.91c0-1.32.43-1.67 1.43-1.67h.39v-.61c-.91 0-1.82.06-2.77.06s-1.96-.04-2.72-.06zm-30 0v.61h.46c.54 0 .78.08 1 .55a23.09 23.09 0 0 1 .43 5.28v2.15a6 6 0 0 1 -1 3.62 5.54 5.54 0 0 1 -4 1.75 4.21 4.21 0 0 1 -3.59-1.63 4.79 4.79 0 0 1 -.89-3.29c0-2.13.07-4.29.09-6.42 0-1.71.52-2 1.34-2h.41v-.61c-.91 0-1.84.06-2.75.06s-1.88 0-2.77-.06v.61h.39c.8 0 1.38.26 1.38 1.56v6.4c0 2.11.59 3.8 2.05 4.81a7.15 7.15 0 0 0 8.76-.32 7 7 0 0 0 1.69-5v-5.26c0-1.93.54-2.21 1.32-2.21h.32v-.61c-.78 0-1.53.06-2.31.06s-1.63-.01-2.21-.03zm20.71 0v.61h.26c1.17 0 1.49.49 1.53 2.82l.13 8.33-10.13-11.74c-.54 0-1.1.06-1.71.06s-1.32 0-1.9-.06v.61h.6c1.08 0 1.55.3 1.55 1.77 0 2.36 0 6.22-.13 8.9-.07 2.13-.26 2.58-1.41 2.58h-.35v.61c.67 0 1.55-.06 2.38-.06s1.66 0 2.38.06v-.61h-.43c-1 0-1.36-.47-1.41-2.13-.09-3.15-.13-6.28-.13-9.43l10.72 12.35h.65l.45-11.86c.06-2 .69-2.19 1.36-2.19h.35v-.61c-.78 0-1.56.06-2.33.06s-1.67-.03-2.34-.05zm45.98 13.71h-.57c-1.38 0-1.86-.3-1.86-1.52v-4.88h2.08c2.44 0 2.46.43 2.57 1.44h.61c0-.41 0-1.06 0-1.85s0-1.53 0-2h-.61c0 1.2-.13 1.63-2.77 1.63h-1.88v-5.72h2.08c3.83 0 4 1.26 4.19 2.68h.59c-.11-1.1-.15-2.19-.19-3.45-1.51 0-2.53.06-5.08.06-2.16 0-4.63 0-5.32-.06v.61h.39c1 0 1.43.35 1.43 1.67v9.89c0 1.32-.43 1.67-1.43 1.67h-.39v.61c.69 0 2.64-.06 5.32-.06 2.34 0 4.65 0 5.95.06.15-1.24.28-2.42.43-3.68h-.6c-.36 2.26-1.31 2.9-4.94 2.9zm-14.83-13.69v.61h.41c.5 0 .86.18.86.59a4.47 4.47 0 0 1 -.45 1.57l-4.26 9.45-4-9.26a4 4 0 0 1 -.46-1.51c0-.43.3-.83 1.3-.83h.3v-.61c-.89 0-1.95.06-2.94.06s-2.1 0-3-.06v.61h.5c1 0 1.36.39 1.93 1.65l5.51 12.47h.82l5.6-12.21c.76-1.64 1.3-1.91 2.1-1.91h.41v-.61c-.76 0-1.54.06-2.29.06s-1.67-.05-2.34-.07z" fill="#052147"/><use height="80.78" width="44.43" xlink:href="#a"/></svg>