<svg id="CSU_Logo_2" xmlns="http://www.w3.org/2000/svg" xmlns:xlink="http://www.w3.org/1999/xlink" viewBox="0 0 366.34 80.78"><defs><symbol id="Clocktower_Horz" data-name="Clocktower_Horz" viewBox="0 0 44.43 80.78"><path id="White_knockout_-_use_on_t-shirt_designs" data-name="White knockout - use on t-shirt designs" d="M43.88,24.14a30.13,30.13,0,0,0-13.42-5.85v-.62h2.7L32.43,5.82H26L22.21,0,18.38,5.82H12l-.72,11.85h1.07v1A29.12,29.12,0,0,0,.56,24.14L0,24.59v48.2s7.19,7.1,22.21,7.1,22.21-7.1,22.21-7.1V24.59Z" fill="#fff"/><path id="Blue_tower_image" data-name="Blue tower image" d="M24.72,23.3A4.1,4.1,0,0,0,26,20.37a4.14,4.14,0,0,0-4.16-4.11h0l.91,2.91a.62.62,0,0,1-.22,1.2.58.58,0,0,1-.25-.05l-1.92,1,1.55-1.52h0a.62.62,0,0,1,.11-.33l-.3-3.16a4.17,4.17,0,0,0-2.85,1.24,4.26,4.26,0,1,1,5.91,5.79m-7.85-2.63a4.6,4.6,0,0,0,4.62,4.58,4.68,4.68,0,0,0,2.88-1,5.11,5.11,0,0,1-1.92.38,5,5,0,0,1-5-4.93,4.8,4.8,0,0,1,.37-1.85,4.51,4.51,0,0,0-1,2.81m1.53,32,.6.83V36.75H17.74V52.69Zm5.06,0,.6.83V36.75H22.8V52.69Zm-2.53,0,.61.83V36.75H20.27V52.69Zm5.06,0,.61.83V36.75H25.33V52.69ZM42.9,55.34v-30a28.52,28.52,0,0,0-12.45-5.47V31h2.12v.73H30.44V33h2.12V58.38A137.55,137.55,0,0,1,16,62V33H28.43V31.75H16V16.13h0l6.14-8.63,6.29,8.85v12h2l-.91-1.22v-11h2L31,7.35H26.43l2.21,5.24-6.44-9.8-3,4.56H13.41l-.53,8.78h1v3.73A28.38,28.38,0,0,0,1.53,25.32v43.5c21.21-4.25,36.79-8.56,34-10.15s2.79-2.83,7.35-3.32M11.84,31h2v.73h-2ZM13.11,40V62.47l-1.27.21V33h2v4.94h0Z" fill="#052147"/><path id="Red_swoop" data-name="Red swoop" d="M39.18,58.06c4.7,2.81-9.09,11.3-30.35,18a39.14,39.14,0,0,0,13.38,2.25c8.55,0,16.1-2.48,20.69-6.28V56.48c-2.66.2-5.26.65-3.71,1.58" fill="#f20017"/><path id="Registered_symbol_white" data-name="Registered symbol white" d="M41.56,76.81a2,2,0,1,1-2,2A2,2,0,0,1,41.56,76.81Zm0,3.53a1.55,1.55,0,1,0-1.42-1.55A1.44,1.44,0,0,0,41.56,80.34Zm-.8-2.66h.83c.56,0,.88.17.88.65a.55.55,0,0,1-.58.59l.58,1H42L41.45,79h-.22v.94h-.47Zm.86.9c.23,0,.38,0,.38-.29s-.25-.25-.43-.25h-.34v.54Z" fill="#052147"/></symbol></defs><title>columbus-state-university-color</title><path d="M56.12,56.13a.56.56,0,0,1-.56-.56h0a.56.56,0,0,1,.56-.56H193.79a.56.56,0,0,1,.56.56h0a.56.56,0,0,1-.56.56H56.12Z" fill="#f20017"/><path d="M95.82,23.94c-6.74,0-12.83,5-12.83,12.12,0,6.37,5.34,11.61,12.72,11.61,8.21,0,12.86-6.21,12.86-11.87C108.58,29.11,102.62,23.94,95.82,23.94Zm.1,22.51c-5.88,0-9.51-5.72-9.51-10.93,0-7.46,4.52-10.22,9.3-10.22,6,0,9.44,5.69,9.44,10.87C105.16,42.07,102.25,46.45,95.92,46.45Zm24.39-.29c-4.21,0-4.75-.84-4.75-3.25V28c0-2.09.68-2.64,2.26-2.64h.79v-1c-1.61,0-3,.1-4.55.1s-3.18-.06-4.38-.1v1h.62c1.57,0,2.26.55,2.26,2.64V43.65c0,2.09-.68,2.64-2.26,2.64h-.62v1c1.2,0,4.48-.1,8.48-.1,3,0,6.88.06,9.88.1l.21-5.69h-1.06C126.57,45.22,125.92,46.16,120.31,46.16Zm60.75-3.63c-.07-4.86-.21-12.93-.21-14.57,0-2.28,1.06-2.64,2.63-2.64h.44v-1c-1.06,0-2.12.1-3.15.1s-2.05-.06-3.15-.1l-8.31,18.87-9.41-18.87c-.41,0-1.71.1-2.74.1s-2-.06-3-.1c-1.23,0-2.5.1-3.73.1s-2.63-.06-3.59-.1v1h.72c.86,0,1.23.13,1.61.87a36.53,36.53,0,0,1,.68,8.36V38a9.41,9.41,0,0,1-1.64,5.72,8.76,8.76,0,0,1-6.39,2.77,6.66,6.66,0,0,1-5.68-2.57c-.92-1.22-1.4-2.47-1.4-5.21,0-3.38.1-6.79.14-10.16,0-2.7.82-3.12,2.12-3.18h.65v-1c-1.44,0-2.91.1-4.34.1s-3-.06-4.38-.1v1h.62c1.26,0,2.19.42,2.19,2.47V37.92c0,3.34.92,6,3.25,7.62A11.31,11.31,0,0,0,148.84,45c1.81-1.9,2.67-4.53,2.67-8V28.82c0-3.05.85-3.5,2.09-3.5h1.27c1.81,0,2.5.48,2.5,2.64,0,4.63-.24,9.13-.34,13.6-.1,3.92-.68,4.73-2.36,4.73H154v1c1,0,2.16-.1,3.66-.1s2.77.06,3.62.1v-1h-.48c-1.88,0-2.19-1.06-2.19-4.57V28.54h.07l9.41,19h.75L178,26.67h.07V42.88c0,2.83-.38,3.41-2.29,3.41h-.51v1c1.16,0,2.67-.1,4.45-.1s3.25.06,4.38.1v-1h-.68C181.47,46.29,181.09,45.74,181.06,42.52ZM70.22,46.19c-4.12,0-10.82-3.05-10.82-11.92C59.4,28.8,62,21.83,70,21.83c7.49,0,9.39,3.65,10.42,5.59h.64l.16-5.06a12.41,12.41,0,0,1-2-.52,32.74,32.74,0,0,0-9.07-1.56A14.47,14.47,0,0,0,55.44,34.94c0,7.48,6.1,12.81,15.09,12.81A15.45,15.45,0,0,0,81.43,43.5V40.67h-.28C79.29,42.87,76.44,46.19,70.22,46.19Zm137-18.39V37.92c0,3.34.93,6,3.25,7.62A11.3,11.3,0,0,0,224.33,45c1.81-1.9,2.67-4.53,2.67-8V28.82c0-3.05.86-3.5,2.09-3.5h.51v-1c-1.23,0-2.43.1-3.66.1s-2.63-.06-3.59-.1v1h.72c.86,0,1.23.13,1.61.87a36.67,36.67,0,0,1,.68,8.36V38a9.42,9.42,0,0,1-1.64,5.72,8.76,8.76,0,0,1-6.39,2.77,6.66,6.66,0,0,1-5.68-2.57c-.92-1.22-1.4-2.47-1.4-5.21,0-3.38.1-6.79.14-10.16,0-2.7.82-3.12,2.12-3.18h.65v-1c-1.44,0-2.91.1-4.34.1s-3-.06-4.38-.1v1H205C206.31,25.32,207.23,25.74,207.23,27.8Zm28.39,8,3.69,1.64c1.92.87,4.27,2,4.27,4.79s-2.53,4.37-5.47,4.37a5.68,5.68,0,0,1-5.81-5h-1l.14,5.27a23.94,23.94,0,0,0,6.12.8c5.71,0,8.51-2.93,8.51-6.95,0-3.22-2.63-5-5.09-6l-3.15-1.35c-2.84-1.22-3.86-2.54-3.86-4.41,0-2.09,1.81-3.79,4.65-3.79,5.17,0,5.44,4,5.47,5h1.16v-5.4a36.05,36.05,0,0,0-6.4-.87c-4.62,0-7.63,3-7.63,6.3C231.21,32.88,233,34.61,235.62,35.77Zm44.72,3.94c0-3.72-3.05-5.74-5.9-7l-3.65-1.56c-3.29-1.42-4.47-2.94-4.47-5.1,0-2.42,2.1-4.39,5.39-4.39,6,0,6.3,4.65,6.34,5.85h1.35V21.27a41.59,41.59,0,0,0-7.41-1c-5.35,0-8.83,3.46-8.83,7.3,0,3.05,2.1,5.06,5.11,6.4l4.28,1.9c2.22,1,5,2.27,5,5.55s-2.93,5.06-6.34,5.06a6.58,6.58,0,0,1-6.73-5.77h-1.19l.16,6.11a27.71,27.71,0,0,0,7.09.93C277.09,47.75,280.34,44.36,280.34,39.71Zm50.9,6.58h-.79v1c1.3,0,2.77-.1,4.48-.1s3.18.06,4.48.1v-1h-.79c-1.85,0-2.19-.42-2.19-3.05V25.71h3.9c3.66,0,4.11,2,4.31,4.5h1.16V24.36c-1.16,0-6.77.1-10.88.1-4.45,0-9.85-.06-10.88-.1v5.85h1.16c.21-2.51.65-4.5,4.31-4.5h3.9V43.23C333.43,45.87,333.09,46.29,331.24,46.29Zm-4.25,0h-.72c-1.57,0-2.63-1.25-3.45-3.12L314,23.46h-.65l-7.83,19.36c-1.06,2.67-1.81,3.47-3.69,3.47h-.41v1c.82-.06,2.09-.1,3.39-.1q2.41,0,4.21.1v-1h-.75c-1.06,0-1.4-.45-1.4-1a7.68,7.68,0,0,1,.58-2.31l1.81-5.08h8l2.5,5.79a5.3,5.3,0,0,1,.48,1.61c0,.68-.65,1-1.74,1h-.86v1c1.27-.06,2.91-.1,4.72-.1s3.35,0,4.65.1Zm-17.27-9.65,3.18-8.81,3.83,8.81Zm13.84,18.57v.61H324c1,0,1.43.35,1.43,1.67V67.4c0,1.32-.43,1.67-1.43,1.67h-.39v.61c.76,0,1.79-.06,2.77-.06s1.86,0,2.77.06v-.61h-.39c-1,0-1.42-.34-1.42-1.67V57.49c0-1.32.43-1.67,1.42-1.67h.39v-.61c-.91,0-1.81.06-2.77.06S324.33,55.23,323.57,55.21ZM315,61.75l-2-.86c-1.79-.77-2.44-1.6-2.44-2.78s1.15-2.4,2.94-2.4c3.26,0,3.44,2.54,3.46,3.19h.74V55.5a22.76,22.76,0,0,0-4-.55c-2.92,0-4.82,1.89-4.82,4,0,1.67,1.14,2.77,2.79,3.5l2.33,1c1.21.55,2.7,1.24,2.7,3s-1.6,2.76-3.46,2.76a3.58,3.58,0,0,1-3.67-3.15h-.65l.09,3.33a15.17,15.17,0,0,0,3.87.51c3.61,0,5.38-1.85,5.38-4.39C318.19,63.52,316.53,62.42,315,61.75ZM204.12,41c0-3.44-2.63-5.43-5.64-5.88V35c2.74-1.29,4.24-2.76,4.24-5.43,0-4.31-3.8-5.24-7.18-5.24-1.71,0-3.76.1-5.13.1-1.54,0-3.18-.06-4.38-.1v1h.62c1.57,0,2.26.55,2.26,2.64V43.65c0,2.09-.68,2.64-2.26,2.64H186v1c1.2,0,2.84-.1,4.38-.1s3.32.1,5,.1c3,0,4.62-.45,6-1.38A5.9,5.9,0,0,0,204.12,41ZM191.91,27c0-1.06.14-1.58,2.46-1.58,2.8,0,5.75,1.41,5.75,5.4,0,3.67-4.31,3.83-6.29,3.83a13.05,13.05,0,0,1-1.91-.16Zm3.45,19.13c-3,0-3.45-1.48-3.45-3V36a9.28,9.28,0,0,1,1.88-.13A8.23,8.23,0,0,1,198.47,37a5.59,5.59,0,0,1,2.63,4.89C201.11,44.65,199,46.16,195.36,46.16Zm138.15,9.05v3.7h.74c.13-1.58.41-2.84,2.72-2.84h2.47V67.14c0,1.67-.22,1.93-1.38,1.93h-.5v.61c.82,0,1.75-.06,2.83-.06s2,0,2.83.06v-.61h-.5c-1.16,0-1.38-.26-1.38-1.93V56.07h2.47c2.31,0,2.59,1.26,2.72,2.84h.73v-3.7c-.73,0-4.28.06-6.87.06C337.58,55.27,334.16,55.23,333.51,55.21Zm31.87-13.78c-.55,3.57-2.05,4.6-7.8,4.6h-.92c-2.19,0-2.94-.48-2.94-2.41V35.9H357c3.87,0,3.9.68,4.07,2.28h1c0-.64-.07-1.67-.07-2.93,0-1.42,0-2.41.07-3.15h-1c-.07,1.9-.21,2.57-4.38,2.57h-3v-9.1H357c6.05,0,6.29,2,6.63,4.24h1c-.17-1.74-.24-3.47-.31-5.46-2.39,0-4,.1-8,.1-3.42,0-7.32-.06-8.42-.1v1h.62c1.57,0,2.26.55,2.26,2.64V43.65c0,2.09-.68,2.64-2.26,2.64h-.62v1c1.09,0,4.18-.1,8.42-.1,3.69,0,7.35.06,9.41.1.24-2,.45-3.83.69-5.82ZM300.81,67.28l-2.9-4.51A3.8,3.8,0,0,0,301,59c0-.93-.69-3.76-4.52-3.76-1,0-2,.06-3.44.06-1,0-2,0-2.77-.06v.61h.39c1,0,1.43.35,1.43,1.67V67.4c0,1.32-.43,1.67-1.43,1.67h-.39v.61c.75,0,1.79-.06,2.77-.06s1.86,0,2.81.06v-.61h-.63c-.87,0-1.23-.22-1.23-2.15V63.07c1.66,0,1.95.08,2.44.83L299,67.79c1.14,1.77,2,2,3.93,2l1.21,0v-.43C302.35,69.23,302,69.11,300.81,67.28Zm-5.36-5a5.12,5.12,0,0,1-1.47-.14V56.07a13.43,13.43,0,0,1,1.36-.08A3.44,3.44,0,0,1,299,59.36C299,61.47,297.4,62.3,295.45,62.3Zm65.79-7.09v.61h.41c.58,0,.84.12.84.47a4.42,4.42,0,0,1-.58,1.44l-3,5.37-3.2-5.43a3.23,3.23,0,0,1-.47-1.2c0-.51.34-.65.8-.65h.39v-.61c-.91,0-1.84.06-2.75.06s-1.79,0-2.72-.06v.61h.19c1.06,0,1.34.18,2.18,1.61l4.15,7v3.21c0,1.06-.24,1.44-1.32,1.44h-.52v.61c.8,0,1.79-.06,2.74-.06s1.84,0,2.75.06v-.61h-.43c-.84,0-1.32-.24-1.32-1.44V64l3.83-6.73c.67-1.18.87-1.44,1.75-1.44h.54v-.61c-.69,0-1.43.06-2.14.06S362.13,55.23,361.25,55.21Zm-71.36-8.93h-.79v1c1.3,0,2.77-.1,4.48-.1s3.18.06,4.48.1v-1h-.79c-1.85,0-2.19-.42-2.19-3.05V25.71H299c3.66,0,4.1,2,4.31,4.5h1.16V24.36c-1.16,0-6.77.1-10.87.1-4.45,0-9.85-.06-10.88-.1v5.85h1.16c.21-2.51.65-4.5,4.31-4.5h3.9V43.23C292.08,45.87,291.74,46.29,289.89,46.29Zm-47,8.93v.61h.39c1,0,1.43.35,1.43,1.67V67.4c0,1.32-.43,1.67-1.43,1.67h-.39v.61c.76,0,1.79-.06,2.77-.06s1.86,0,2.77.06v-.61h-.39c-1,0-1.43-.34-1.43-1.67V57.49c0-1.32.43-1.67,1.43-1.67h.39v-.61c-.91,0-1.82.06-2.77.06S243.69,55.23,242.93,55.21Zm-30,0v.61h.46c.54,0,.78.08,1,.55a23.09,23.09,0,0,1,.43,5.28v2.15a6,6,0,0,1-1,3.62,5.54,5.54,0,0,1-4,1.75,4.21,4.21,0,0,1-3.59-1.63,4.79,4.79,0,0,1-.89-3.29c0-2.13.07-4.29.09-6.42,0-1.71.52-2,1.34-2h.41v-.61c-.91,0-1.84.06-2.75.06s-1.88,0-2.77-.06v.61H202c.8,0,1.38.26,1.38,1.56v6.4c0,2.11.59,3.8,2.05,4.81a7.15,7.15,0,0,0,8.76-.32,7,7,0,0,0,1.69-5V58c0-1.93.54-2.21,1.32-2.21h.32v-.61c-.78,0-1.53.06-2.31.06S213.58,55.23,213,55.21Zm20.71,0v.61h.26c1.17,0,1.49.49,1.53,2.82l.13,8.33h0L225.38,55.21c-.54,0-1.1.06-1.71.06s-1.32,0-1.9-.06v.61h.6c1.08,0,1.55.3,1.55,1.77,0,2.36,0,6.22-.13,8.9-.07,2.13-.26,2.58-1.41,2.58h-.35v.61c.67,0,1.55-.06,2.38-.06s1.66,0,2.38.06v-.61h-.43c-1,0-1.36-.47-1.41-2.13-.09-3.15-.13-6.28-.13-9.43h0l10.72,12.35h.65L236.64,58c.06-2,.69-2.19,1.36-2.19h.35v-.61c-.78,0-1.56.06-2.33.06S234.35,55.23,233.68,55.21ZM279.57,68.9H279c-1.38,0-1.86-.3-1.86-1.52V62.5h2.08c2.44,0,2.46.43,2.57,1.44h.61c0-.41,0-1.06,0-1.85s0-1.53,0-2h-.61c0,1.2-.13,1.63-2.77,1.63h-1.88V56h2.08c3.83,0,4,1.26,4.19,2.68H284c-.11-1.1-.15-2.19-.19-3.45-1.51,0-2.53.06-5.08.06-2.16,0-4.63,0-5.32-.06v.61h.39c1,0,1.43.35,1.43,1.67V67.4c0,1.32-.43,1.67-1.43,1.67h-.39v.61c.69,0,2.64-.06,5.32-.06,2.34,0,4.65,0,5.95.06.15-1.24.28-2.42.43-3.68h-.6C284.15,68.26,283.2,68.9,279.57,68.9ZM264.74,55.21v.61h.41c.5,0,.86.18.86.59a4.47,4.47,0,0,1-.45,1.57l-4.26,9.45-4-9.26a4,4,0,0,1-.46-1.51c0-.43.3-.83,1.3-.83h.3v-.61c-.89,0-1.95.06-2.94.06s-2.1,0-3-.06v.61H253c1,0,1.36.39,1.93,1.65l5.51,12.47h.82l5.6-12.21c.76-1.64,1.3-1.91,2.1-1.91h.41v-.61c-.76,0-1.54.06-2.29.06S265.41,55.23,264.74,55.21Z" fill="#052147"/><use width="44.43" height="80.78" xlink:href="#Clocktower_Horz"/></svg>