<svg id="Layer_1" data-name="Layer 1" xmlns="http://www.w3.org/2000/svg" viewBox="0 0 38.49 70"><defs><style>.cls-1{fill:#003056;}.cls-2{fill:#fff;}.cls-3{fill:#cf0a2c;}</style></defs><title>columbus-state-university_icon</title><path id="Registered_symbol" data-name="Registered symbol" class="cls-1" d="M36,66.55a1.73,1.73,0,1,1-1.72,1.73v0A1.72,1.72,0,0,1,36,66.55Zm0,3.06a1.35,1.35,0,1,0-1.22-1.46v.13a1.24,1.24,0,0,0,1.14,1.33Zm-.69-2.3H36c.48,0,.77.15.77.57a.47.47,0,0,1-.43.51h-.08l.51.84h-.42l-.46-.82h-.19v.82h-.41V67.31Zm.78.74c.19,0,.33,0,.33-.26s-.21-.22-.38-.22h-.29v.48Z"/><path id="White_knockout_-_use_on_t-shirt_designs" data-name="White knockout - use on t-shirt designs" class="cls-2" d="M38.05,20.92a26.15,26.15,0,0,0-11.63-5.07V15.3h2.34L28.13,5H22.58L19.24,0,15.91,5H10.36L9.73,15.3h.93v.85A25.1,25.1,0,0,0,.48,20.92l-.48.4V63.07s6.27,6.16,19.25,6.16,19.24-6.16,19.24-6.16V21.31Z"/><path id="Blue_tower_image" data-name="Blue tower image" class="cls-1" d="M21.41,20.19a3.57,3.57,0,0,0-2.56-6.1h0l.78,2.52a.54.54,0,0,1-.19,1.05.81.81,0,0,1-.22,0l-1.66.83,1.34-1.31h0a.58.58,0,0,1,.09-.29l-.26-2.74a3.61,3.61,0,0,0-2.46,1,3.69,3.69,0,1,1,5.12,5M14.6,17.87a4,4,0,0,0,4,4h0a4.07,4.07,0,0,0,2.5-.86,4.55,4.55,0,0,1-1.67.32A4.27,4.27,0,0,1,15.14,17h0a4.24,4.24,0,0,1,.32-1.61,4,4,0,0,0-.86,2.44M15.93,45.6l.52.72V31.84h-1V45.66H16Zm4.39,0,.53.72V31.84H19.8V45.66h.48Zm-2.19,0,.52.72V31.84h-1.1V45.66h.58Zm4.38,0,.52.72V31.84H22V45.66h.57Zm14.63,2.3v-26a24.57,24.57,0,0,0-10.79-4.74v9.69h1.84v.63H26.35v1h1.84v22a119.49,119.49,0,0,1-14.37,3.14V28.56H24.61v-1H13.83V14h0L19.15,6.5l5.45,7.67V24.62h1.74l-.79-1.05V14h1.73l-.43-7.61h-4l1.92,4.53L19.24,2.41l-2.61,4h-5L11.14,14H12v3.23A24.43,24.43,0,0,0,1.31,21.93V59.68C19.68,56,33.19,52.27,30.79,50.89S33.2,48.43,37.15,48M10.24,26.89H12v.64H10.24Zm1.11,7.7V54.13l-1.11.19V28.59H12v4.29h0Z"/><path id="Red_swoop" data-name="Red swoop" class="cls-3" d="M33.94,50.27C38,52.71,26.07,60.06,7.64,66a33.93,33.93,0,0,0,11.6,1.94c7.41,0,13.94-2.16,17.92-5.45V48.94c-2.3.17-4.55.56-3.22,1.36"/></svg>