<svg id="Layer_1" data-name="Layer 1" xmlns="http://www.w3.org/2000/svg" viewBox="0 0 36.7 70"><defs><style>.cls-1{fill:none;}.cls-2{fill:#093554;}.cls-3{fill:#fff;}</style></defs><title>dalton-state_icon</title><path class="cls-1" d="M2.81,27.29a.61.61,0,0,1-.14.07A.61.61,0,0,0,2.81,27.29Zm0,0c.12-.07.23-.16.36-.23C3.06,27.12,3,27.21,2.83,27.28Zm.35-.23v0Z"/><path d="M3.2,27a3.52,3.52,0,0,0,.36-.41A3.52,3.52,0,0,1,3.2,27Z"/><path class="cls-2" d="M35.75,37.61A9,9,0,0,0,32,35.08c-.31-.13-.62-.23-1-.36V68.47c.66-.82,1.2-1.51,1.77-2.18a1.45,1.45,0,0,0,.38-1.05q0-10.78,0-21.57a.59.59,0,0,1,.5-.69,8.08,8.08,0,0,0,1.81-.85,2.49,2.49,0,0,0,1.17-2.74A4.58,4.58,0,0,0,35.75,37.61Z"/><path class="cls-2" d="M36.31,30.48A12.63,12.63,0,0,0,32.22,28,35,35,0,0,0,20,25.78,45.91,45.91,0,0,0,7.49,26.94c-.11,0-.24,0-.36-.07h0l-.35.23h0l-.14.07L2.08,29.1a1,1,0,0,1-.24,0C5.4,24.32,9.46,20,13.26,15.54l.11.06c-.09.18-.18.36-.28.53L7.27,26.51l-.15.35v0a3.52,3.52,0,0,0,.36-.41l8.15-11.68c.12-.18.25-.34.38-.51l.08,0L13.24,25.14l.1,0,4.54-11.32.13.05.28,11.28h.05l1-9.85h.13l2.18,10c5.38.39,10.56,1.17,14.89,4.91a1,1,0,0,0-.08-.29c-.41-.53-.84-1-1.25-1.58L19.79,7.55a1.48,1.48,0,0,1-.25-.67c-.13-1.14-.24-2.28-.36-3.43S19,1.23,18.82,0a1.28,1.28,0,0,0-.11.24c-.19,1.81-.37,3.62-.57,5.43A3,3,0,0,1,17.79,7Q9.69,17.9,1.55,28.76C1.06,29.4.52,30,0,30.62v2.23a11.23,11.23,0,0,1,4.56-2.68A38.07,38.07,0,0,1,16.4,28.44c2.79,0,5.58.09,8.36.28a27,27,0,0,1,7.89,1.68,9.48,9.48,0,0,1,3.75,2.32l.29.25c0-.58,0-1.07,0-1.57A1.09,1.09,0,0,0,36.31,30.48Z"/><path class="cls-2" d="M27.78,34.5c0-.33-.1-.44-.43-.5a53.12,53.12,0,0,0-11.54-.87A56.34,56.34,0,0,0,4.54,34.55c-.84.2-.74,0-.75,1q0,11.76,0,23.53a1.14,1.14,0,0,0,.74,1.25c1.18.55,2.32,1.18,3.56,1.83V37.24c0-.49.11-.7.64-.77a55.72,55.72,0,0,1,12-.43c1,.08,2,.25,3,.38v.64q0,8.23,0,16.48V67.43c0,.19,0,.49.16.56,1.25.68,2.53,1.32,3.88,2v-.71q0-17.33,0-34.63Z"/><path class="cls-2" d="M0,37.4v2.33c.4.35.67.9,1.31.92v-4.6L1.19,36Z"/><path class="cls-2" d="M20.28,53.76h0a7,7,0,0,0-7.91,0c-1.26.94-1.22,1.69.13,2.48a7.39,7.39,0,0,0,3.82,1,7.43,7.43,0,0,0,3.8-.92C21.57,55.5,21.61,54.73,20.28,53.76Z"/><path class="cls-2" d="M21.12,53.39a2.61,2.61,0,0,0-1-1.78A4.07,4.07,0,0,1,19,49.3a2.29,2.29,0,0,0-.5-1.08A3.28,3.28,0,0,0,15,47.45a2.64,2.64,0,0,0-1.92,2.42,2.54,2.54,0,0,1-.74,1.58,3.33,3.33,0,0,0-1.1,2.25C14.47,50.84,17.74,51.31,21.12,53.39Z"/><path class="cls-2" d="M11.8,47.58c2.82-2.52,5.71-2,8.77-.39A5.76,5.76,0,0,0,19.81,46a3.75,3.75,0,0,1-1.12-2.32A2.11,2.11,0,0,0,17,41.88a2.64,2.64,0,0,0-3.53,2.38,2.27,2.27,0,0,1-.7,1.43A2.8,2.8,0,0,0,11.8,47.58Z"/><path class="cls-2" d="M19.66,41.64a2.29,2.29,0,0,0-.39-.7A2.73,2.73,0,0,1,18.44,39a1.91,1.91,0,0,0-1-1.56,2.39,2.39,0,0,0-3.3.78,2.48,2.48,0,0,0-.35,1,3.17,3.17,0,0,1-.69,1.63,5.61,5.61,0,0,0-.51.93C15,40.3,17.26,40.67,19.66,41.64Z"/><polygon class="cls-3" points="3.18 27.05 3.18 27.05 3.18 27.05 3.18 27.05"/><path class="cls-3" d="M3.2,27Z"/><path class="cls-3" d="M3.34,26.69a2.17,2.17,0,0,0-.15.35A2.17,2.17,0,0,1,3.34,26.69Zm-.51.59h0ZM3.2,27l0,0Zm0,0,0,0Z"/></svg>