<svg xmlns="http://www.w3.org/2000/svg" viewBox="0 0 349.53 249.17"><g data-name="Layer 1"><path d="M10 97.16a4.55 4.55 0 0 1-.48.24 4.57 4.57 0 0 0 .48-.24zm.08-.04c.43-.25.83-.56 1.26-.83-.43.27-.84.57-1.26.83zm1.25-.83v-.07.07z" fill="none"/><path d="M11.38 96.26a15 15 0 0 0 1.28-1.44 15 15 0 0 1-1.28 1.44z"/><path d="M130.65 111.8a3.84 3.84 0 0 0-1.38-3.29 45.74 45.74 0 0 0-14.56-8.88c-14-5.66-28.64-7.4-43.52-7.85s-29.89.49-44.52 4.13c-.38.09-.85-.16-1.28-.25l-.07.07c-.42.27-.83.57-1.26.83h-.08a4.57 4.57 0 0 1-.48.24c-5.35 2.29-10.72 4.54-16.08 6.8a5.69 5.69 0 0 1-.86.15c12.68-17.16 27.13-32.41 40.66-48.44l.39.24c-.33.62-.64 1.25-1 1.86Q36.26 75.89 25.89 94.36a10.37 10.37 0 0 0-.53 1.26v.07a15 15 0 0 0 1.28-1.44q14.53-20.8 29-41.61c.43-.62.91-1.21 1.36-1.82l.27.17L47.15 89.5l.34.1 16.15-40.29.47.17 1 40.15h.19l3.62-35.05h.48L77.16 90c19.13 1.4 37.58 4.16 53 17.49a4.24 4.24 0 0 0-.29-1.06c-1.47-1.88-3-3.71-4.44-5.62Q97.89 63.85 70.46 26.89a5.22 5.22 0 0 1-.88-2.41c-.48-4.06-.86-8.12-1.29-12.19S67.45 4.37 67 0a4.63 4.63 0 0 0-.41.86c-.67 6.44-1.29 12.88-2 19.31-.19 1.63-.35 3.54-1.27 4.77q-28.83 38.8-57.81 77.44c-1.72 2.29-3.67 4.4-5.51 6.62v7.93c4.55-4.65 10.17-7.46 16.24-9.52 13.67-4.62 27.87-6 42.15-6.17 9.91-.12 19.85.31 29.75 1a96.14 96.14 0 0 1 28.1 6c5 1.91 9.67 4.25 13.36 8.23.25.27.55.51 1 .92.02-2.08-.07-3.84.05-5.59zM4.66 144.71v-16.38l-.41-.25L0 133.14v8.31c1.43 1.22 2.38 3.18 4.66 3.26zm94.25-21.31a3.78 3.78 0 0 1 0-.57c.18-1.2-.38-1.58-1.54-1.8a189.61 189.61 0 0 0-41.08-3.1A203 203 0 0 0 16.17 123c-3 .7-2.65.08-2.66 3.41 0 27.93 0 55.86-.06 83.79 0 2.23.52 3.48 2.63 4.45 4.2 1.93 8.26 4.19 12.7 6.49v-2.7-85.86c0-1.75.37-2.49 2.25-2.75a199.55 199.55 0 0 1 42.88-1.53c3.49.29 7 .89 10.61 1.36v2.27q0 29.34.09 58.69v49.44c0 .68.15 1.74.58 2 4.46 2.4 9 4.67 13.83 7.14v-2.54Q99 185 98.91 123.4zm28.36 10.48c-3.5-4.38-8.39-6.91-13.47-9-1.08-.45-2.19-.83-3.4-1.28v120.14c2.34-2.89 4.26-5.37 6.31-7.74a5.3 5.3 0 0 0 1.35-3.74q-.06-38.39-.06-76.78a2.17 2.17 0 0 1 1.8-2.48 27.84 27.84 0 0 0 6.43-3c3.43-2.28 5.1-5.7 4.16-9.76a16.37 16.37 0 0 0-3.12-6.36zm133.55 83.65l-.36-.87q-7.91-20.47-15.83-40.94c-.33-.86-.76-1.67-1.15-2.51h-.66c-.39.89-.83 1.76-1.16 2.67q-5.1 13.88-10.17 27.76c-2.14 5.83-4.27 11.67-6.49 17.48a6.32 6.32 0 0 1-6 4.47 7 7 0 0 0-1.38.34l.09.33h15.39c-.44-.37-.56-.55-.69-.56-3.75-.18-3.91-1.87-3-4.79q2.07-6.75 4.48-13.39a2.75 2.75 0 0 1 2.07-1.37c4.15-.13 8.3 0 12.45-.08a2.15 2.15 0 0 1 2.36 1.64c1.78 4.9 3.73 9.73 5.48 14.64a16.89 16.89 0 0 1 .42 3.84H270l.2-.51c-5.79.22-7.61-3.94-9.38-8.15zm-25.53-14l6.37-19.64.6-.09 7 19.74zm111.89 15.27c-1 3.69-2.16 4.79-6 5a60.22 60.22 0 0 1-7.33 0c-3-.18-4.22-1.46-4.28-4.43-.11-6-.07-12-.12-17.93 0-1 .29-1.57 1.4-1.52 3.2.15 6.41.18 9.6.44 2 .16 2.91 1.3 3.22 3.34a12.82 12.82 0 0 0 .49 1.69l.37-.12.86-9.62c-5.11 3.16-10.5 1.07-15.91 1.9 0-6.84 0-13.24.05-19.65 0-.34.78-.94 1.2-.95 2.77 0 5.54-.07 8.3.16 4.51.37 4.88.8 5.8 5.27 0 .09.18.15.69.54l1-8.6H318v.49a1.91 1.91 0 0 0 .62.29c4.71.23 5 2.11 5 6.19 0 10.5.06 21 .06 31.51 0 2.64 0 5.29-.26 7.91-.39 4-.49 4-4.4 5-.08 0-.13.18-.34.5a13.52 13.52 0 0 0 1.63.23c7 .09 14 .26 20.93.23 6.27 0 5.9 1.38 6.84-6.29.12-1 .16-2 .24-3l-.66-.09c-.18.53-.36 1.01-.48 1.51zm-79.41-45.07c-.57 2.55-1.65 5.34-1.34 8.41.61-.63.88-1.46 1.43-2 1-.92 2-2.25 3.18-2.36 4.72-.46 9.48-.52 14.41-.74v34.3c0 2.77 0 5.54-.12 8.3-.17 3.06-.19 6.38-5 6l.4.51h17a6 6 0 0 0-2.55-.8c-2.51-.35-3.15-.94-3.45-3.4a38.56 38.56 0 0 1-.33-4.51q-.08-19.06-.09-38.12v-2.09c2 0 3.77-.08 5.51 0 2.81.16 5.64.32 8.42.73a3.59 3.59 0 0 1 3.36 3.7 4.09 4.09 0 0 0 .46 1.22l.52-.09v-8.6c-13.84.13-27.69.81-41.81-.46zM219 182.94l.45-.05v-9a39.51 39.51 0 0 1-4.12.45c-9.81.06-19.61.12-29.42.05-2.6 0-5.2-.47-8.13-.75-.6 2.59-1.62 5.45-1.47 8.55a1.27 1.27 0 0 0 .74-.65c1.11-3 3.46-4.14 6.48-4.18 2.77 0 5.53-.05 8.3-.07h3.57c0 .77.11 1.32.11 1.88v35.46c0 2.07-.13 4.14-.28 6.21-.26 3.6-.68 4.06-4.14 4.88a4.64 4.64 0 0 0-.5.18l.21.41h17l.05-.48a26.41 26.41 0 0 0-2.91-.41c-2.1-.07-3-1.3-3.28-3.2a37.31 37.31 0 0 1-.33-4.51q-.08-19.71-.09-39.42a9.48 9.48 0 0 1 .21-1.24c4.41.25 8.8.32 13.14.82 2.88.33 3.6 1.43 4 4.35a3 3 0 0 0 .41.72zm-62.9 11.47a46.15 46.15 0 0 1-5.41-5.22c-4-5-1.62-12.11 4.5-13.27a16.28 16.28 0 0 1 5.42.11c3.54.55 5.76 2.6 6.24 6.29a10.11 10.11 0 0 0 .35 1.32l.54-.05v-9.16a25.6 25.6 0 0 0-3.17-.54c-3.18-.15-6.41-.59-9.54-.23a11.84 11.84 0 0 0-10.76 12.59 14 14 0 0 0 4 9.54c2.87 2.89 6.07 5.45 9 8.27a37 37 0 0 1 5.49 5.9 9.47 9.47 0 0 1-4.46 14.37 12.19 12.19 0 0 1-9.87-.75 7.9 7.9 0 0 1-4.32-6.45l-.3-2.36h-.8c-.1 2.84-.15 5.69-.33 8.53a2.36 2.36 0 0 0 1.79 2.68 22 22 0 0 0 16.2 0c5.43-2.21 8.11-6.51 8.53-12.27a14.2 14.2 0 0 0-4.21-11.5c-2.8-2.73-5.99-5.21-8.89-7.8z" fill="#093554"/><path d="M72.18 191.37c-7.91-5.77-20.29-5.71-28.15.14-4.47 3.33-4.35 6 .47 8.81a26.18 26.18 0 0 0 13.59 3.43 26.6 26.6 0 0 0 13.53-3.27c5.17-2.91 5.31-5.64.56-9.11z" fill="#093554"/><path d="M75.19 190.06a9.5 9.5 0 0 0-3.44-6.34c-2.51-2.25-3.49-5.09-4.18-8.22a8.07 8.07 0 0 0-1.78-3.85c-3.48-3.51-7.83-4.08-12.39-2.73-4.2 1.24-6.31 4.39-6.82 8.61a9.22 9.22 0 0 1-2.66 5.64c-2.07 2.11-3.75 4.54-3.89 8 11.47-10.17 23.13-8.51 35.16-1.11zm102.14-46.64c-1.28-7.6-7.31-13.05-15.65-13.59-6.38-.41-12.79-.27-19.19-.36-.19 0-.37.21-.67.38 3.71.81 3.9 1 3.93 4.83.05 6.54 0 13.08 0 19.62 0 2.39-.14 4.77-.22 7.16-.06 1.88-.78 3.16-3 3.11l.15.49c2 0 3.95-.06 5.92 0 3.45.12 6.9.5 10.35.46 12.26-.13 20.41-10.01 18.38-22.1zm-6.51 14.5c-3.21 4.88-8.31 6.2-13.86 6.06a19.73 19.73 0 0 1-3.73-.46c-2.78-.61-3.35-1.29-3.38-4.11v-13h-.09v-13c0-1.52.5-2.16 2-2.22 5.48-.21 10.81.1 15.39 3.7 7.55 5.91 7.68 16.93 3.67 23.03zm173-23.14q.16 6.88.22 13.76v9.95l-27.56-29.72-.52.32c-.08 1.05-.22 2.1-.22 3.15v27c0 2.47.51 5.34-3.27 5.66h10.32c-3.54-.8-4.07-1.43-4.19-5.14-.13-4.4-.29-8.79-.37-13.19-.06-3.23 0-6.46 0-10.07 9.17 10 18 19.92 27.83 28.91a5.81 5.81 0 0 0 .39-2.19q0-14.05.09-28.1c0-2.33-.51-5 3-5.4h-9.89c3.75.86 4.08 1.21 4.17 5.06zM289 165.7c11 0 18.9-8 19-19.1.06-10.54-7.35-17.69-18.46-17.82a18.37 18.37 0 0 0-18.73 18.57c.08 10.84 7.54 18.35 18.19 18.35zM278.62 135c5.77-7 17.39-5.88 22.18 2.14 2 3.33 2.64 7 2.78 11.79a47 47 0 0 1-1.07 5.7c-2.54 8.59-11.9 12-19.52 7.26-9.08-5.59-9.53-20.63-4.37-26.89z" fill="#093554"/><path d="M73.24 168c-.89-1.43-1.53-3.14-2.72-4.24a13.37 13.37 0 0 1-4-8.25c-.54-3.47-2.69-5.56-6-6.43-6.58-1.71-11.63 1.69-12.56 8.48a8.22 8.22 0 0 1-2.49 5.11A9.92 9.92 0 0 0 42 169.4c10.05-9 20.35-7.09 31.24-1.4zm112.53-7c.87-2.88 1.85-5.74 2.93-8.55a2.36 2.36 0 0 1 1.75-1.17c2.64-.13 5.28 0 7.92-.08a1.85 1.85 0 0 1 2.07 1.44c1.15 3.19 2.39 6.35 3.53 9.54a16.14 16.14 0 0 1 .46 2.72h8.69c-3-.24-4.38-2.34-5.48-4.72-.29-.63-.56-1.27-.81-1.91q-5.3-13.7-10.59-27.41c-.26-.67-.61-1.3-1.15-2.44-.51 1.12-.85 1.75-1.09 2.41q-5.26 14.32-10.49 28.66c-1 2.68-2 5.25-5.52 5.43h9.82c-2.53-.92-2.81-1.34-2.04-3.92zm8.23-24.8l.52-.05 4.65 13.2h-9.43z" fill="#093554"/><path d="M70 148.24a8.47 8.47 0 0 0-1.4-2.51c-2.15-1.85-2.67-4.27-2.94-6.88a6.8 6.8 0 0 0-3.39-5.56 8.54 8.54 0 0 0-13 6.42 10.83 10.83 0 0 1-2.46 5.77 19.63 19.63 0 0 0-1.8 3.34c8.32-5.34 16.42-4.04 24.99-.58zm181.17-16.51a9 9 0 0 1 .16 1.25q-.07 13.58-.16 27.15c0 2.12 0 4.31-2.87 4.79h11.22c-4-1.11-3.73-.26-4.22-5.54v-.57q0-12.82-.08-25.65c0-.48.09-1 .14-1.57h5.71c2.72.09 5.67-.18 6.65 3.51v-5.65c-.11-.07-.16-.13-.22-.13-9.15.38-18.3.84-27.44-.26a1.18 1.18 0 0 0-1 .63c-.43 1.63-.75 3.3-1.07 4.82 1.37-1 2.54-2.49 3.88-2.67a72.92 72.92 0 0 1 9.3-.11zm-29.91 2v26c0 2.19.14 4.61-3.08 5.1 2.71.17 5.27.15 7.82.17 3.71 0 7.42.15 11.13.13.56 0 1.5-.47 1.62-.9.47-1.7.69-3.47 1-5.21l-.6-.15c-.66 2-1.38 4.14-3.89 4.32a49.78 49.78 0 0 1-6.78 0 2.74 2.74 0 0 1-2.8-2.76c-.11-1.82-.31-3.63-.31-5.45V132.9a2.52 2.52 0 0 1 2.59-2.84 5.78 5.78 0 0 0 .92-.22v-.27h-11.27c3.39 1.33 3.64 1.5 3.65 4.16z" fill="#093554"/><rect x="11.33" y="96.29" fill="#fff"/><path fill="#fff" d="M11.39 96.25L11.38 96.25 11.38 96.25 11.39 96.25z"/><path d="M11.89 95a10.37 10.37 0 0 0-.53 1.26 10.37 10.37 0 0 1 .53-1.26zm-1.81 2.12H10zm1.3-.86l.07-.07-.07.07zm-.06.06l.07-.07z" fill="#fff"/></g></svg>