<svg data-name="Layer 1" xmlns="http://www.w3.org/2000/svg" viewBox="0 0 724.85 187.65"><path fill="#edaa00" d="M0 134h724.85v4.23H0z"/><path d="M85.23 77.59l-1.91 29.57H0v-5q2.12-.14 5.66-.6a19.33 19.33 0 0 0 4.6-1 6.48 6.48 0 0 0 3.15-2.76 9.31 9.31 0 0 0 .88-4.31V21.36a10.35 10.35 0 0 0-.78-4.14 6 6 0 0 0-3.26-2.94 24 24 0 0 0-5.13-1.63A39 39 0 0 0 0 11.81v-5h77.66V31h-5.3a32.65 32.65 0 0 0-6.12-11.42q-4.71-6-8.95-6.61-2.19-.28-5.24-.42t-6.93-.14H29.35v39.86h11.32q5.45 0 8-1A10.89 10.89 0 0 0 53 47.82a18.31 18.31 0 0 0 2.65-5.48 34.44 34.44 0 0 0 1.45-6.47h5.3v39.32h-5.3A31.52 31.52 0 0 0 55.63 68 18.31 18.31 0 0 0 53 62.53a10.18 10.18 0 0 0-5-3.61 26.16 26.16 0 0 0-7.39-.85H29.35v30.08a31.52 31.52 0 0 0 .65 7.14 6.62 6.62 0 0 0 2.48 4 10.63 10.63 0 0 0 5 1.73 80.43 80.43 0 0 0 9.05.39h6.17a60.92 60.92 0 0 0 6.44-.28 37.53 37.53 0 0 0 5.55-1 8.5 8.5 0 0 0 4.07-2 45.22 45.22 0 0 0 6.82-10.29 69.07 69.07 0 0 0 4.56-10.15zm67.24 28.3q-3.32 1.2-5.84 1.95a20.15 20.15 0 0 1-5.69.74q-5.52 0-8.81-2.58a11.93 11.93 0 0 1-4.21-7.53h-.42a34.54 34.54 0 0 1-9.87 7.78 27.66 27.66 0 0 1-12.7 2.69A18 18 0 0 1 92 104.12a16.58 16.58 0 0 1-5-12.59 21.46 21.46 0 0 1 1.13-7.22 17.25 17.25 0 0 1 3.39-5.73 17 17 0 0 1 4.67-3.78 40.94 40.94 0 0 1 5.45-2.65q3.18-1.2 12.91-4.46a96.66 96.66 0 0 0 13.12-5.09v-7a29.72 29.72 0 0 0-.39-3.54 14.8 14.8 0 0 0-1.66-5 14.1 14.1 0 0 0-4-4.56q-2.62-1.9-7.35-1.9a16.4 16.4 0 0 0-6 1.1 11 11 0 0 0-3.97 2.3 19.4 19.4 0 0 0 .67 4.17 21.66 21.66 0 0 1 .67 5.09 6.07 6.07 0 0 1-2.23 4.53 8.79 8.79 0 0 1-6.19 2.05A5.79 5.79 0 0 1 92 57.33a9.92 9.92 0 0 1 .64-11.85 23.1 23.1 0 0 1 6-5.3 32.6 32.6 0 0 1 7.71-3.36 30.26 30.26 0 0 1 8.84-1.38 58.08 58.08 0 0 1 10.36.81 19 19 0 0 1 8 3.5 16.31 16.31 0 0 1 5.48 7.11 30.35 30.35 0 0 1 1.87 11.56q0 10.12-.21 17.93t-.21 17.08a8.63 8.63 0 0 0 1 4.38 7.72 7.72 0 0 0 2.94 2.76 7.2 7.2 0 0 0 3.36.7q2.3.07 4.7.07zm-24.69-37.35q-6 1.77-10.54 3.47a42.65 42.65 0 0 0-8.42 4.25 19.21 19.21 0 0 0-5.58 5.74 14.53 14.53 0 0 0-2.05 7.83q0 5.88 3.08 8.65a11.25 11.25 0 0 0 7.82 2.76 16 16 0 0 0 8.84-2.45 25.77 25.77 0 0 0 6.43-5.79z" fill="#144733"/><path d="M197.33 73a17.83 17.83 0 0 1 4.46 5.87 19.11 19.11 0 0 1 1.55 8.13 19.83 19.83 0 0 1-7.25 15.84q-7.25 6.16-18.78 6.16a28.26 28.26 0 0 1-11.21-2.19 30.78 30.78 0 0 1-7.32-4 47.17 47.17 0 0 1-7.43 3.51V83.11h4.88a27.09 27.09 0 0 0 2.4 6.46 31.11 31.11 0 0 0 4.46 6.67 24.55 24.55 0 0 0 6.61 5.25 17.63 17.63 0 0 0 8.66 2.13q6.79 0 10.47-3.1t3.68-8.86a10.65 10.65 0 0 0-1.17-5.13 11.31 11.31 0 0 0-3.43-3.79 27.15 27.15 0 0 0-5.73-2.94q-3.39-1.31-7.57-2.58a70 70 0 0 1-7.39-2.72 29.44 29.44 0 0 1-7-4.07 19.94 19.94 0 0 1-5.09-6.08 17.36 17.36 0 0 1-2-8.49 19.08 19.08 0 0 1 6.37-14.5q6.36-5.94 17-5.94a34.73 34.73 0 0 1 8.5 1.08 29 29 0 0 1 7 2.5l1.63-3.68h5.09l1.06 22.42h-4.88a22.55 22.55 0 0 0-6.4-12.25 16.66 16.66 0 0 0-12-4.72q-5.8 0-9.12 2.92a9.06 9.06 0 0 0-3.38 7.1 11.46 11.46 0 0 0 1.1 5.31 9.76 9.76 0 0 0 3.29 3.61 27.37 27.37 0 0 0 5.34 2.65q3.22 1.24 8 2.79a68.62 68.62 0 0 1 8.81 3.46 29 29 0 0 1 6.79 4.39zm50.84 31.12q-4.6 1.91-8.7 3.22a33.37 33.37 0 0 1-10 1.31q-8.77 0-12.34-4.42t-3.57-12.48V42.16h-12.23l-.4-6.79h12.87V16h12.87v19.37h20v6.79h-19.86v41.3a69.29 69.29 0 0 0 .32 7.32 13.6 13.6 0 0 0 1.52 5.13A7.29 7.29 0 0 0 232 99a14.56 14.56 0 0 0 6.08 1.06q1.77 0 5.2-.32a22.67 22.67 0 0 0 4.85-.81zm128.5-34.64q-1.72.22-4.63.68a17.43 17.43 0 0 0-4.69 1.33 6.27 6.27 0 0 0-3 3 11.09 11.09 0 0 0-.9 4.63v6.34q0 8.61.11 11.62t.25 4.95a108.28 108.28 0 0 1-19 6.6 78.63 78.63 0 0 1-18.63 2.37 49.64 49.64 0 0 1-18.79-3.66A46.94 46.94 0 0 1 291.6 96.9a50.08 50.08 0 0 1-10.83-16.58 56.84 56.84 0 0 1-4-21.82 59.36 59.36 0 0 1 3.84-21.57 51.22 51.22 0 0 1 10.87-17.26 47.71 47.71 0 0 1 16.23-11.16 51.38 51.38 0 0 1 20.19-4 48.51 48.51 0 0 1 15 2.08 54.6 54.6 0 0 1 11.26 5l2.94-4.88h5.74l.65 35.58h-5.89a99.45 99.45 0 0 0-3.74-11.58 40.42 40.42 0 0 0-5.75-10.22 26.5 26.5 0 0 0-8.58-7.21 25.48 25.48 0 0 0-12.1-2.69 29.42 29.42 0 0 0-13.72 3.12A29.91 29.91 0 0 0 303.23 23a44 44 0 0 0-6.75 14.86 77.19 77.19 0 0 0-2.37 19.88 69.19 69.19 0 0 0 2.33 18.27 46.2 46.2 0 0 0 6.78 14.82 32.38 32.38 0 0 0 11.13 10 31 31 0 0 0 15.15 3.66 32.86 32.86 0 0 0 11.53-1.94q5.2-1.94 7.36-4.09A52.66 52.66 0 0 0 349 91V80.54a16 16 0 0 0-.83-5.34 5.71 5.71 0 0 0-3.4-3.41 23.34 23.34 0 0 0-6.42-1.61q-4.05-.54-6.35-.68v-5.25h44.61z" fill="#144733"/><path d="M437.73 90.75A35.73 35.73 0 0 1 426 104a29.57 29.57 0 0 1-16.91 5 34.39 34.39 0 0 1-14.75-3 29 29 0 0 1-10.43-8 34.24 34.24 0 0 1-6.12-11.88 50.22 50.22 0 0 1-2-14.36 42.26 42.26 0 0 1 2.16-13.33 37.63 37.63 0 0 1 6.33-11.78 30.63 30.63 0 0 1 10-8.1 28.85 28.85 0 0 1 13.4-3.08 32.29 32.29 0 0 1 13.08 2.4 23.27 23.27 0 0 1 8.84 6.58 26.29 26.29 0 0 1 4.85 9.34A41 41 0 0 1 436 65.43v4.67h-46.15a54.87 54.87 0 0 0 1.31 12.48 29.86 29.86 0 0 0 4.14 9.85 19.69 19.69 0 0 0 7.22 6.49 22.26 22.26 0 0 0 10.61 2.37A19.55 19.55 0 0 0 424 98.34q4.56-3 8.81-10.63zm-15.63-26.6a57.6 57.6 0 0 0-.67-8.46 25.92 25.92 0 0 0-2.16-7.55 14.37 14.37 0 0 0-4.46-5.29 12.13 12.13 0 0 0-7.28-2A15.16 15.16 0 0 0 395.19 47q-4.92 6.17-5.34 17.17zm84.5 7.43A46 46 0 0 1 504.26 86a34.48 34.48 0 0 1-6.66 12.06 31 31 0 0 1-11.33 8.42 36.38 36.38 0 0 1-14.44 2.76 32.6 32.6 0 0 1-12.68-2.51 31.92 31.92 0 0 1-10.69-7.32 35 35 0 0 1-7.33-11.57 41 41 0 0 1-2.73-15.31q0-16.34 9.52-26.74t25-10.4q14.66 0 24.18 9.87t9.5 26.32zm-14.6.14a63.36 63.36 0 0 0-1.06-11.21 35.45 35.45 0 0 0-3.19-10 19.58 19.58 0 0 0-6-7 15 15 0 0 0-9-2.65 15.89 15.89 0 0 0-9.32 2.69 19.84 19.84 0 0 0-6.27 7.36 32.54 32.54 0 0 0-3.16 9.78 64.93 64.93 0 0 0-.92 10.68 67.06 67.06 0 0 0 1.1 12.55 36.14 36.14 0 0 0 3.51 10.29 20 20 0 0 0 6.06 7.11 15.23 15.23 0 0 0 9 2.58q8.86 0 14-8.56T492 71.72zm68.78-25.32a11.71 11.71 0 0 1-1.78 6.4 6 6 0 0 1-5.45 2.79 8.27 8.27 0 0 1-6-2.05 6.24 6.24 0 0 1-2.12-4.54 15 15 0 0 1 .25-2.83c.17-.85.32-1.7.46-2.55q-3.32 0-7.78 2.69a23 23 0 0 0-7.57 7.69v40.6a7.6 7.6 0 0 0 1 4 5.77 5.77 0 0 0 3 2.33 19 19 0 0 0 4.56 1.06q2.79.36 4.85.5v4.67h-36.82v-4.67l3.36-.28a12.81 12.81 0 0 0 3-.57 5.07 5.07 0 0 0 2.94-2.22 8 8 0 0 0 1-4.13v-43a9.77 9.77 0 0 0-1-4.31 8.57 8.57 0 0 0-2.86-3.39 9.65 9.65 0 0 0-3.18-1.24 28.54 28.54 0 0 0-4-.53v-4.69l23.2-1.56 1 1v9.83h.35a31.75 31.75 0 0 1 9.76-8.7 20.65 20.65 0 0 1 9.83-3 9.62 9.62 0 0 1 7.25 2.9 10.74 10.74 0 0 1 2.75 7.8zm58.47 53.55a20.65 20.65 0 0 1 4.45 6.05 19.41 19.41 0 0 1 1.63 8.42 20.64 20.64 0 0 1-8.84 17.12 36.84 36.84 0 0 1-11.32 5.16 61.27 61.27 0 0 1-16.27 1.84q-15.85 0-23.7-4.63t-7.85-13.54A13.39 13.39 0 0 1 563 109q5.66-4.17 14.43-4.53v-1a43.41 43.41 0 0 1-4.39-1.59 17 17 0 0 1-3.89-2.23 12 12 0 0 1-3-3.5 10.06 10.06 0 0 1-1.13-5 10.47 10.47 0 0 1 2.65-6.9 21 21 0 0 1 8-5.41v-1.03a27.37 27.37 0 0 1-10.54-8.17 18.71 18.71 0 0 1-3.75-11.56 20.51 20.51 0 0 1 7.39-16.27q7.39-6.37 18.92-6.37a31.83 31.83 0 0 1 6.33.64q3.15.64 6.4 1.63h24.33v6.19c-14.57 0-16.41.6-16.41.6v.42a20.57 20.57 0 0 1 3.89 6.72 22 22 0 0 1 1.27 7.21q0 9.2-7.46 15.56a25.94 25.94 0 0 1-17.37 6.37h-8.47a11.09 11.09 0 0 0-3.4 2.05 5 5 0 0 0-1.77 4 5.19 5.19 0 0 0 1.49 4 7.8 7.8 0 0 0 3.61 1.87 22.47 22.47 0 0 0 4.77.71q2.72.14 5.62.21 3.11.07 8.52.42t7.67.42a18.57 18.57 0 0 1 6.54 1.56 21.07 21.07 0 0 1 6 3.93zm-5.52 17.12a10.85 10.85 0 0 0-1.84-6.51 9.32 9.32 0 0 0-5.59-3.46q-2-.28-8.13-.64t-14.29-.35q-7.64 1.49-10.86 5a12.8 12.8 0 0 0-3.22 9 11 11 0 0 0 1.06 4.74 11.18 11.18 0 0 0 3.68 4.17 20.34 20.34 0 0 0 6.65 3 38.3 38.3 0 0 0 10.19 1.17q10.4 0 16.37-4t5.98-12.13zm-13.58-58.5q0-8.27-3.36-13.19a10.79 10.79 0 0 0-9.44-4.92 11.14 11.14 0 0 0-5.69 1.38 10.63 10.63 0 0 0-3.86 3.93 16.49 16.49 0 0 0-2 5.62 37.36 37.36 0 0 0-.6 6.75q0 7.85 3.43 12.8t8.87 5a10.61 10.61 0 0 0 9.36-4.94q3.29-4.94 3.29-12.43z" fill="#144733"/><path d="M659.82 107.16h-33.67v-4.67l3.36-.28a12.83 12.83 0 0 0 3-.57 5.08 5.08 0 0 0 2.94-2.22 8 8 0 0 0 1-4.13v-42a8.48 8.48 0 0 0-1-4.13 9.14 9.14 0 0 0-2.93-3.16 12.17 12.17 0 0 0-3.58-1.59 14.69 14.69 0 0 0-4.41-.52L624 37.7a133 133 0 0 0 24.62-2.76l1 1v58.5a8.06 8.06 0 0 0 .95 4.1 5.62 5.62 0 0 0 3 2.41 24.18 24.18 0 0 0 3 1 18.74 18.74 0 0 0 3.3.53zM651 9.05a10.3 10.3 0 0 1-2.65 7 8.38 8.38 0 0 1-6.54 3 8.27 8.27 0 0 1-6.26-2.86 9.36 9.36 0 0 1-2.65-6.54 9.74 9.74 0 0 1 2.65-6.79A8.22 8.22 0 0 1 641.78 0a8.72 8.72 0 0 1 6.61 2.72A8.92 8.92 0 0 1 651 9.05zm73.85 96.84q-3.32 1.2-5.83 1.95a20.18 20.18 0 0 1-5.69.74q-5.52 0-8.81-2.58a11.91 11.91 0 0 1-4.21-7.53h-.43a34.54 34.54 0 0 1-9.87 7.78 27.67 27.67 0 0 1-12.7 2.69 18 18 0 0 1-12.91-4.81 16.58 16.58 0 0 1-5.06-12.59 21.48 21.48 0 0 1 1.13-7.22 17.28 17.28 0 0 1 3.4-5.73 17 17 0 0 1 4.67-3.78 41.27 41.27 0 0 1 5.46-2.66q3.18-1.2 12.91-4.46A96.63 96.63 0 0 0 700 62.6v-7a29.65 29.65 0 0 0-.39-3.54 14.79 14.79 0 0 0-1.66-5 14.11 14.11 0 0 0-4-4.56q-2.58-1.95-7.32-1.95a16.39 16.39 0 0 0-6 1.1 11 11 0 0 0-3.93 2.3 19.39 19.39 0 0 0 .67 4.17 21.55 21.55 0 0 1 .67 5.09 6.07 6.07 0 0 1-2.23 4.53 8.78 8.78 0 0 1-6.19 2.05 5.79 5.79 0 0 1-5.2-2.51 9.92 9.92 0 0 1 .58-11.8 23.06 23.06 0 0 1 6-5.3 32.54 32.54 0 0 1 7.71-3.36 30.27 30.27 0 0 1 8.84-1.38 58.11 58.11 0 0 1 10.36.81 19 19 0 0 1 8 3.5 16.34 16.34 0 0 1 5.48 7.11 30.35 30.35 0 0 1 1.87 11.56q0 10.12-.21 17.93t-.21 17.08a8.66 8.66 0 0 0 1 4.38 7.74 7.74 0 0 0 2.94 2.76 7.2 7.2 0 0 0 3.36.7q2.3.07 4.7.07zm-24.68-37.35q-6 1.77-10.54 3.47a42.58 42.58 0 0 0-8.42 4.25 19.16 19.16 0 0 0-5.59 5.74 14.52 14.52 0 0 0-2.05 7.83q0 5.88 3.08 8.65a11.25 11.25 0 0 0 7.82 2.76 16 16 0 0 0 8.84-2.45 25.72 25.72 0 0 0 6.43-5.79z" fill="#144733"/><path d="M69.55 170.5a7.85 7.85 0 0 1 1.57 2.58 9.57 9.57 0 0 1 .51 3.26 9.3 9.3 0 0 1-3.28 7.31 11.89 11.89 0 0 1-8.13 2.88 15 15 0 0 1-4.48-.7 17.27 17.27 0 0 1-3.87-1.68l-1 1.72H49l-.33-11.46h1.91a25.28 25.28 0 0 0 1.38 3.83 13.34 13.34 0 0 0 2.04 3.2 9.42 9.42 0 0 0 2.86 2.22 8.37 8.37 0 0 0 3.81.83 8.62 8.62 0 0 0 2.84-.43 4.77 4.77 0 0 0 3.09-3 7.35 7.35 0 0 0 .4-2.46 6.73 6.73 0 0 0-1.13-3.74 7 7 0 0 0-3.37-2.63q-1.53-.61-3.51-1.35t-3.42-1.4a11.11 11.11 0 0 1-4.4-3.33 8.67 8.67 0 0 1-1.57-5.39 8.23 8.23 0 0 1 .78-3.56 9.25 9.25 0 0 1 2.22-2.95 10.07 10.07 0 0 1 3.23-1.92 11 11 0 0 1 3.89-.69 11.41 11.41 0 0 1 4.14.7 20.18 20.18 0 0 1 3.31 1.66l1-1.6H70l.19 11.11H68.3q-.52-1.91-1.16-3.66a13.05 13.05 0 0 0-1.69-3.16A7.78 7.78 0 0 0 63 154.5a7.29 7.29 0 0 0-3.58-.81 5.47 5.47 0 0 0-3.82 1.44 4.57 4.57 0 0 0-1.6 3.51 6 6 0 0 0 1 3.59 7.42 7.42 0 0 0 3 2.35q1.72.82 3.38 1.43t3.22 1.28a24.17 24.17 0 0 1 2.72 1.39 10.15 10.15 0 0 1 2.23 1.82zm54-9.03h-1.63a11.07 11.07 0 0 0-.77-2 17.89 17.89 0 0 0-1.24-2.2 10.88 10.88 0 0 0-1.55-1.9 3.06 3.06 0 0 0-1.62-.93q-.73-.09-1.84-.14t-2.06 0h-1.37V181a3.12 3.12 0 0 0 .33 1.43 2.18 2.18 0 0 0 1.16 1 13.6 13.6 0 0 0 1.78.45 13.41 13.41 0 0 0 2.11.31v1.67h-15.8v-1.67l2-.19a7.72 7.72 0 0 0 1.87-.35 2.3 2.3 0 0 0 1.14-.88 2.85 2.85 0 0 0 .37-1.54v-27h-3.18c-.72 0-1.42.07-2.08.15a2.88 2.88 0 0 0-1.61.93 12.32 12.32 0 0 0-1.55 1.9 15.88 15.88 0 0 0-1.25 2.25 13.62 13.62 0 0 0-.75 2h-1.62v-9.08h29.17zm54.38 24.38H164v-1.67a14.64 14.64 0 0 0 3.05-.47q1.22-.36 1.22-.87a3.64 3.64 0 0 0 0-.52 2.73 2.73 0 0 0-.14-.54l-2.77-7.5h-11.77q-.66 1.65-1.07 2.88c-.27.81-.53 1.57-.74 2.26a15.66 15.66 0 0 0-.42 1.65 6 6 0 0 0-.12 1q0 .94 1.48 1.46a12 12 0 0 0 3.35.61v1.67h-12.6v-1.67a9.89 9.89 0 0 0 1.53-.27 5 5 0 0 0 1.51-.6A6 6 0 0 0 148 182a8.74 8.74 0 0 0 1-1.92q2.52-6.29 5.56-14.15l5.42-14h1.89L173 180.78a5.73 5.73 0 0 0 .8 1.49 5.57 5.57 0 0 0 1.25 1.11 5.26 5.26 0 0 0 1.42.55 7.39 7.39 0 0 0 1.46.25zm-13.46-13.67l-5.07-13-5 13zm62.39-10.71h-1.63a11.29 11.29 0 0 0-.77-2 17.9 17.9 0 0 0-1.24-2.2 11 11 0 0 0-1.55-1.9 3.08 3.08 0 0 0-1.62-.93q-.73-.09-1.84-.14h-3.43V181a3.1 3.1 0 0 0 .33 1.43 2.19 2.19 0 0 0 1.16 1 13.92 13.92 0 0 0 1.78.45 13.32 13.32 0 0 0 2.11.31v1.67h-15.8v-1.67l2-.19a7.72 7.72 0 0 0 1.87-.35 2.29 2.29 0 0 0 1.14-.88 2.85 2.85 0 0 0 .37-1.54v-27h-3.16c-.73 0-1.42.07-2.08.15a2.89 2.89 0 0 0-1.61.93 12.16 12.16 0 0 0-1.54 1.9 15.85 15.85 0 0 0-1.25 2.25 13.55 13.55 0 0 0-.75 2h-1.65v-9.08h29.16zM278.18 176l-.64 9.85h-27.77v-1.67c.47 0 1.1-.1 1.89-.2a6.42 6.42 0 0 0 1.53-.32 2.14 2.14 0 0 0 1.05-.92 3.11 3.11 0 0 0 .29-1.44v-24a3.41 3.41 0 0 0-.26-1.38 2 2 0 0 0-1.08-1 8 8 0 0 0-1.71-.54 13 13 0 0 0-1.71-.28v-1.67h25.89v8.06h-1.77a10.92 10.92 0 0 0-2-3.81 5 5 0 0 0-3-2.2c-.49-.07-1.07-.11-1.74-.14s-1.45 0-2.31 0h-5.26v13.3h3.77a7.55 7.55 0 0 0 2.65-.34 3.66 3.66 0 0 0 1.47-1.14 6.17 6.17 0 0 0 .88-1.83 11.73 11.73 0 0 0 .48-2.16h1.77v13.11h-1.77a10.42 10.42 0 0 0-.51-2.39 6.2 6.2 0 0 0-.86-1.83 3.39 3.39 0 0 0-1.66-1.2 8.7 8.7 0 0 0-2.46-.28h-3.77v10a10.46 10.46 0 0 0 .21 2.38 2.2 2.2 0 0 0 .82 1.32 3.54 3.54 0 0 0 1.68.58 26.45 26.45 0 0 0 3 .13h2.05a20.56 20.56 0 0 0 2.15-.09 12.85 12.85 0 0 0 1.85-.34 2.83 2.83 0 0 0 1.35-.67 15.12 15.12 0 0 0 2.28-3.43 23.24 23.24 0 0 0 1.52-3.38zM349 186.65a14.36 14.36 0 0 1-5.73-1.18 14.69 14.69 0 0 1-4.87-3.4 16.51 16.51 0 0 1-3.34-5.42 19.63 19.63 0 0 1-1.25-7.21 20.58 20.58 0 0 1 1.23-7.28 17 17 0 0 1 3.39-5.63 14.87 14.87 0 0 1 5.06-3.61 15.39 15.39 0 0 1 6.25-1.28 15.2 15.2 0 0 1 4.47.61A16.64 16.64 0 0 1 358 154l1-1.6h1.89l.21 11.93h-1.93a27.68 27.68 0 0 0-1.13-3.79 14.56 14.56 0 0 0-1.76-3.45 8.57 8.57 0 0 0-2.68-2.51 6.93 6.93 0 0 0-3.56-.91 9.13 9.13 0 0 0-4.25 1 9.69 9.69 0 0 0-3.4 3 14.78 14.78 0 0 0-2.14 4.86 25.81 25.81 0 0 0-.78 6.58 20.25 20.25 0 0 0 .81 5.89 15.25 15.25 0 0 0 2.32 4.71 11.11 11.11 0 0 0 3.57 3.14 9.37 9.37 0 0 0 4.6 1.13 9.88 9.88 0 0 0 3.51-.6 9.36 9.36 0 0 0 2.78-1.59 12.46 12.46 0 0 0 2.07-2.36 13.06 13.06 0 0 0 1.46-2.88l1.77.85a13.2 13.2 0 0 1-13.36 9.25zm63.83-30.3a16.5 16.5 0 0 1 3.47 5.58 20.06 20.06 0 0 1 1.25 7.23 19.73 19.73 0 0 1-1.27 7.24 16.11 16.11 0 0 1-3.54 5.54 15.36 15.36 0 0 1-5.09 3.49 16.37 16.37 0 0 1-12.63-.08 15 15 0 0 1-5.08-3.64 16.47 16.47 0 0 1-3.34-5.55 19.88 19.88 0 0 1-1.21-7 19.52 19.52 0 0 1 1.27-7.28 17 17 0 0 1 3.51-5.53 15.1 15.1 0 0 1 5.15-3.54 16.19 16.19 0 0 1 12.41 0 15 15 0 0 1 5.1 3.54zm-3.51 23.72a15.59 15.59 0 0 0 1.92-4.86 30.4 30.4 0 0 0-.07-12.38 15.63 15.63 0 0 0-2-4.9 9.42 9.42 0 0 0-3.25-3.13 8.86 8.86 0 0 0-4.48-1.12 8.58 8.58 0 0 0-4.81 1.3 10.07 10.07 0 0 0-3.23 3.47 16.57 16.57 0 0 0-1.75 4.86 28.74 28.74 0 0 0-.58 5.85 28 28 0 0 0 .61 6.13 15.59 15.59 0 0 0 1.93 4.85 9.53 9.53 0 0 0 3.21 3.24 8.77 8.77 0 0 0 4.62 1.17 8.89 8.89 0 0 0 4.55-1.18 9.23 9.23 0 0 0 3.33-3.3zm59.8-4.17l-.71 10h-26.14v-1.67l1.64-.17a5.74 5.74 0 0 0 1.5-.31 2 2 0 0 0 1-.9 3.16 3.16 0 0 0 .32-1.51v-24a3.47 3.47 0 0 0-.27-1.42 2.08 2.08 0 0 0-1.07-1 8.19 8.19 0 0 0-1.52-.55 8.73 8.73 0 0 0-1.62-.32v-1.67h14.12v1.67a10.88 10.88 0 0 0-1.71.24 13.55 13.55 0 0 0-1.52.38 1.76 1.76 0 0 0-1.1 1 3.66 3.66 0 0 0-.29 1.46v22.47a14.71 14.71 0 0 0 .15 2.42 2.15 2.15 0 0 0 .72 1.33 3.25 3.25 0 0 0 1.61.56 27.33 27.33 0 0 0 3 .13h1.82a16 16 0 0 0 1.79-.19 9.25 9.25 0 0 0 1.52-.39 2.41 2.41 0 0 0 1-.62 21 21 0 0 0 2.25-3.29 23.55 23.55 0 0 0 1.78-3.57zm49.67 0l-.71 10h-26.15v-1.67l1.64-.17a5.74 5.74 0 0 0 1.5-.31 2 2 0 0 0 1-.9 3.16 3.16 0 0 0 .32-1.51v-24a3.47 3.47 0 0 0-.27-1.42 2.06 2.06 0 0 0-1.07-1 8.14 8.14 0 0 0-1.52-.55 8.71 8.71 0 0 0-1.61-.32v-1.67h14.12v1.67a10.89 10.89 0 0 0-1.71.24 13.55 13.55 0 0 0-1.52.38 1.75 1.75 0 0 0-1.1 1 3.65 3.65 0 0 0-.3 1.46v22.47a14.7 14.7 0 0 0 .15 2.42 2.15 2.15 0 0 0 .72 1.33 3.26 3.26 0 0 0 1.62.56 27.26 27.26 0 0 0 3 .13h1.82a16 16 0 0 0 1.79-.19 9.28 9.28 0 0 0 1.52-.39 2.42 2.42 0 0 0 1-.62 21.13 21.13 0 0 0 2.25-3.29 23.5 23.5 0 0 0 1.78-3.57zm50.93.1l-.64 9.85h-27.77v-1.67c.47 0 1.1-.1 1.89-.2a6.46 6.46 0 0 0 1.53-.32 2.13 2.13 0 0 0 1-.92 3.08 3.08 0 0 0 .29-1.44v-24a3.45 3.45 0 0 0-.26-1.38 2 2 0 0 0-1.08-1 8 8 0 0 0-1.71-.54 13 13 0 0 0-1.71-.28v-1.67h25.94v8.06h-1.77a10.91 10.91 0 0 0-2-3.81 5 5 0 0 0-3-2.2c-.49-.07-1.07-.11-1.74-.14s-1.45 0-2.31 0h-5.28v13.3h3.77a7.54 7.54 0 0 0 2.65-.34 3.64 3.64 0 0 0 1.47-1.14 6.16 6.16 0 0 0 .88-1.83 11.69 11.69 0 0 0 .48-2.16h1.77v13.11h-1.77a10.49 10.49 0 0 0-.5-2.39A6.19 6.19 0 0 0 559 171a3.38 3.38 0 0 0-1.66-1.2 8.72 8.72 0 0 0-2.46-.28h-3.78v10a10.63 10.63 0 0 0 .21 2.38 2.19 2.19 0 0 0 .83 1.32 3.52 3.52 0 0 0 1.67.58 26.45 26.45 0 0 0 3 .13h2.05a20.57 20.57 0 0 0 2.15-.09 12.89 12.89 0 0 0 1.85-.34 2.81 2.81 0 0 0 1.35-.67 15.09 15.09 0 0 0 2.28-3.43A23.29 23.29 0 0 0 568 176zm56.28-3.5l-1.52.22a5.69 5.69 0 0 0-1.55.44 2.07 2.07 0 0 0-1 1 3.65 3.65 0 0 0-.3 1.52v6.41c0 .66 0 1.2.08 1.63a35.45 35.45 0 0 1-6.25 2.17 25.82 25.82 0 0 1-6.11.75 16.27 16.27 0 0 1-6.18-1.2 15.39 15.39 0 0 1-5.19-3.42 16.46 16.46 0 0 1-3.56-5.45 18.65 18.65 0 0 1-1.32-7.17 19.53 19.53 0 0 1 1.26-7.09 16.86 16.86 0 0 1 3.57-5.67 15.67 15.67 0 0 1 5.34-3.67 16.88 16.88 0 0 1 6.64-1.31 16 16 0 0 1 4.93.68 18 18 0 0 1 3.7 1.65l1-1.6h1.89l.21 11.69h-1.93a33.37 33.37 0 0 0-1.23-3.81 13.34 13.34 0 0 0-1.89-3.36 8.71 8.71 0 0 0-2.82-2.37 8.37 8.37 0 0 0-4-.88 9.67 9.67 0 0 0-4.51 1 9.79 9.79 0 0 0-3.45 3.06 14.41 14.41 0 0 0-2.22 4.88 25.53 25.53 0 0 0-.78 6.53 22.65 22.65 0 0 0 .77 6 15.16 15.16 0 0 0 2.32 4.87 10.71 10.71 0 0 0 3.66 3.3 10.18 10.18 0 0 0 5 1.2 10.81 10.81 0 0 0 3.79-.64 6.9 6.9 0 0 0 2.42-1.34 17.14 17.14 0 0 0 .2-2.48v-3.96a5.22 5.22 0 0 0-.27-1.75 1.87 1.87 0 0 0-1.12-1.12 7.54 7.54 0 0 0-2.11-.53q-1.33-.18-2.09-.22v-1.72H626zm51.32 3.5l-.64 9.85h-27.77v-1.67c.47 0 1.1-.1 1.89-.2a6.42 6.42 0 0 0 1.53-.32 2.15 2.15 0 0 0 1.05-.92 3.12 3.12 0 0 0 .29-1.44v-24a3.41 3.41 0 0 0-.26-1.38 2 2 0 0 0-1.08-1 8 8 0 0 0-1.71-.54 12.93 12.93 0 0 0-1.71-.28v-1.67h25.89v8.06H673a10.89 10.89 0 0 0-2-3.81 5 5 0 0 0-3-2.2c-.49-.07-1.07-.11-1.74-.14s-1.45 0-2.31 0h-5.25v13.3h3.77a7.55 7.55 0 0 0 2.65-.34 3.64 3.64 0 0 0 1.47-1.14 6.07 6.07 0 0 0 .88-1.83 11.63 11.63 0 0 0 .48-2.16h1.77v13.11H668a10.34 10.34 0 0 0-.51-2.39 6.12 6.12 0 0 0-.86-1.83 3.37 3.37 0 0 0-1.66-1.2 8.71 8.71 0 0 0-2.46-.28h-3.81v10a10.57 10.57 0 0 0 .21 2.38 2.2 2.2 0 0 0 .83 1.32 3.54 3.54 0 0 0 1.67.58 26.42 26.42 0 0 0 3 .13h2.05a20.51 20.51 0 0 0 2.14-.09 12.89 12.89 0 0 0 1.85-.34 2.84 2.84 0 0 0 1.36-.67 15.06 15.06 0 0 0 2.27-3.43 23.26 23.26 0 0 0 1.52-3.38z" fill="#144733" stroke="#144733" stroke-miterlimit="10" stroke-width="2"/></svg>