<svg id="institutions" xmlns="http://www.w3.org/2000/svg" xmlns:xlink="http://www.w3.org/1999/xlink" width="210" height="160" viewBox="0 0 210 160"><defs><style>.cls-1,.cls-4{fill:#015130;}.cls-2{fill:none;}.cls-3,.cls-4{fill-rule:evenodd;}.cls-3{fill:url(#linear-gradient);}.cls-5{fill:#fff;}</style><linearGradient id="linear-gradient" x1="35.87" y1="119.91" x2="174.13" y2="40.09" gradientUnits="userSpaceOnUse"><stop offset="0" stop-color="#a48737"/><stop offset="0.38" stop-color="#fff2dc"/><stop offset="0.73" stop-color="#d3b253"/><stop offset="1" stop-color="#947a40"/></linearGradient></defs><title>inst_egsc</title><circle class="cls-1" cx="105.09" cy="79.97" r="77.88"/><circle class="cls-2" cx="105.03" cy="80.03" r="79.05"/><circle class="cls-2" cx="105" cy="80" r="54.92"/><path class="cls-3" d="M105,0.16A79.84,79.84,0,1,0,184.84,80,79.93,79.93,0,0,0,105,.16Zm0,2.95a77,77,0,0,1,74.48,57.73H155.24C147.71,39.75,128,24.7,104.82,24.7S61.92,39.75,54.39,60.84H30.52A77,77,0,0,1,105,3.11Zm0,153.79a77,77,0,0,1-73.74-55.1H55.58c8.28,19.49,27.2,33.12,49.24,33.12s41-13.63,49.24-33.12h24.69A77,77,0,0,1,105,156.9Z"/><path class="cls-4" d="M108.85,37.59c-0.2,0,.11.1,0,0.23-0.34-.07-0.17.25-0.53,0.17a2.37,2.37,0,0,0,.46.23c-0.44.51-1.51,0.14-2.37,0.17a5,5,0,0,1-1.22.57c-0.1.12,0,.17-0.08,0.34a7.07,7.07,0,0,1-1.6-.06,1,1,0,0,0,.31.45,1.23,1.23,0,0,1,.61,0,2,2,0,0,0,.08.4,2.13,2.13,0,0,1-.46.11,1.92,1.92,0,0,1,.23.45,2,2,0,0,0,1.23-.62c0.17,0,.24,0,0.23.17a0.65,0.65,0,0,0,.46-0.34c0.46,0,.19.47,0.77,0.34,0.06,0.27,0,.25.08,0.51a3.86,3.86,0,0,0,.61-0.11c0,0.29.16,0.08,0.38,0.11,0,0.58.85,0.06,1,.11-0.21.82-1.63,0.76-2.06,1.42,0.42,0.18.56-.34,1.07-0.28a1.24,1.24,0,0,0,.46.79c0.27,0,.12-0.4.53-0.34,0.23,0.41-.51.85-0.38,1.19a4.71,4.71,0,0,0,.69-0.23c0.13,0.92-1.36.78-2.22,1.13a0.65,0.65,0,0,0,.69.11,0.71,0.71,0,0,0,.38.28c0,0.1-.09.12-0.08,0.23-0.76.13-1.63-.11-2.52-0.06a0.09,0.09,0,0,1-.08.11,0.26,0.26,0,0,0,.31.23c0.16,0,.15-0.08.15-0.17a1.85,1.85,0,0,0,.84.17c0.05,0.31-.63.06-0.69,0.28a0.72,0.72,0,0,0,.39.28,0.79,0.79,0,0,0-.08.45,4.08,4.08,0,0,1-.84.06,1,1,0,0,0-.23.23c1.39,0.26,1.77-.73,2.75-1a0.47,0.47,0,0,1,.15.51c0.2,0.11.43-.49,0.84-0.23a0.86,0.86,0,0,1-.61.68c0,0.21.32,0.32,0.08,0.51a2,2,0,0,0,.39.17,0.89,0.89,0,0,1,1-.17c-0.11.36-.8,0.28-1,0.57a1.57,1.57,0,0,0,.61.34c0,0.15-.11.18-0.31,0.17,0.09,0.07.22,0.1,0.15,0.28a2.1,2.1,0,0,1-.46-0.11c0,0.34.38,0.08,0.54,0.34a2,2,0,0,1-2.15,0,1.8,1.8,0,0,1-.76.17,3.63,3.63,0,0,0,.53.34,0.61,0.61,0,0,1-.3.23c0.18,0.11.48,0.12,0.3,0.34a2.75,2.75,0,0,0,1.84-.23c0.27,0,.51.11,0.46,0.4a1.89,1.89,0,0,1,.61.06,1.36,1.36,0,0,1-.92.28c-0.06,0-.24.27-0.08,0.28-0.46.14-.54-0.5-1.22-0.39a5.91,5.91,0,0,1-1.53.57,0.93,0.93,0,0,0,.46.39,4.59,4.59,0,0,1,.84-0.28,4.23,4.23,0,0,0,.16.73,4,4,0,0,1,1-.23c0.08,0.16.09,0.24-.23,0.23a1,1,0,0,0,.31.11c0.11,0,0-.07,0-0.17a2.46,2.46,0,0,0,1.84-.79,0.71,0.71,0,0,1-.08.79,2.37,2.37,0,0,1,.84-0.06,2.08,2.08,0,0,1-.69.57,2,2,0,0,1,.54-0.06c0.45,0.76-.85.69-1.45,0.85a2.6,2.6,0,0,1,.23.45,3.41,3.41,0,0,1-1.45-.17,1.44,1.44,0,0,0-.53.34,3.79,3.79,0,0,1-1.76-.45c-0.17.08-.14,0.31-0.31,0.39-0.57,0-.88-0.23-1.15.11-0.84-.51-2.78-0.21-3.6-0.74a6.63,6.63,0,0,0-2.07.34c-1.6-.13-3.4.24-4.83-0.34a7.58,7.58,0,0,1,.77-1.08,1.26,1.26,0,0,1,.92.4,1.94,1.94,0,0,1,.76-0.11c-0.1-.59-0.93-0.63-1.3-1,0-.1.09-0.12,0.08-0.22a1,1,0,0,1,.46,0c0.05-.34-0.36-0.34-0.38-0.62a6.3,6.3,0,0,0-1.61.34A0.38,0.38,0,0,1,93.62,50,0.63,0.63,0,0,0,94,49.86c-0.11-.43-1-0.6-0.61-1.19H93.7a1.23,1.23,0,0,0,.54.68,3.41,3.41,0,0,0,.31-0.57,0.84,0.84,0,0,0,.61.11c0.29-.29-0.15-0.53-0.31-0.68,0.12-.37.43-0.22,0.77-0.11,0,0.61.67,0.71,1.08,1a1.88,1.88,0,0,1-.08-0.39,4.91,4.91,0,0,0,.61-0.17,3.26,3.26,0,0,1,.69.62,2.81,2.81,0,0,0,1.15-.11c-0.14-.2-0.6-0.16-0.54-0.51a1,1,0,0,0,.69-0.17,0.62,0.62,0,0,1,0-.45c0.46,0,.37.33,0.69,0.4a0.53,0.53,0,0,0,.38-0.17,1,1,0,0,0,.84.11,7.06,7.06,0,0,0-2.68-1c0,0.31.67,0.11,0.69,0.4a1.5,1.5,0,0,0-.62.11,0.68,0.68,0,0,0,.46.06c-0.32.24-1.25,0-1.61,0.23a0.75,0.75,0,0,0-.08-0.28,0.61,0.61,0,0,1,.46-0.11,0.35,0.35,0,0,1-.07-0.11,2.2,2.2,0,0,1-2.07.17,0.48,0.48,0,0,1,.46-0.23c-0.3-.27-1.35-0.22-1.07-0.73a2.58,2.58,0,0,0,1,.06c0-.34-0.69-0.41-0.38-0.79a0.28,0.28,0,0,1,.31.28,0.7,0.7,0,0,0,.39-0.17,2.24,2.24,0,0,0,1.68.62c0.29-.07.24-0.39,0.53-0.45a1.11,1.11,0,0,0,1,.06c0-.08,0-0.16-0.08-0.17a1.34,1.34,0,0,1,.61-0.11c0.05-.19-0.13-0.21-0.31-0.23,0.31-.18,0-0.23,0-0.51a0.21,0.21,0,0,0,.16-0.11,4.72,4.72,0,0,0,1.3.23c0.1-.38.77,0,0.77-0.51a2.56,2.56,0,0,0-2.37-.57c-0.2.4-1.27,0.67-1.53,0.11a3.71,3.71,0,0,1-1.46.11,0.44,0.44,0,0,1,.23-0.34A2.91,2.91,0,0,1,95.61,44a0.81,0.81,0,0,1,.62-0.62,0.63,0.63,0,0,0,1,.23,5.39,5.39,0,0,1,.54.17,0.54,0.54,0,0,1,.15-0.11,1.08,1.08,0,0,0-.31-0.45,0.94,0.94,0,0,1,.77-0.62c0,0.05.09,0,.15,0.06a0.42,0.42,0,0,1-.15.51,0.21,0.21,0,0,0,.23.11c0.23,0-.18-0.09-0.08-0.23a1.74,1.74,0,0,1,.69.17,1.45,1.45,0,0,0,.69-0.73A1,1,0,0,1,99.52,42a0.84,0.84,0,0,1,.53-0.17c0-.35.47-0.33,0.46-0.68a0.38,0.38,0,0,1,.38.28,0.92,0.92,0,0,0,.46-0.45,0.31,0.31,0,0,1,.31.17,0.46,0.46,0,0,0,.31-0.4c0-.15-0.75-0.22-0.62.06-0.16,0-1.49-.16-1.76.23A3.71,3.71,0,0,0,99,41c0-.12.23-0.11,0.08-0.23a2.35,2.35,0,0,1-1.68-.28A1.42,1.42,0,0,0,97.29,40a1.23,1.23,0,0,1,.69.28c-0.09-.16-0.07-0.4-0.15-0.56a0.65,0.65,0,0,1,.38,0c-0.14.64,1.29,0.63,1.61,0.28-0.16-.18-0.6-0.4-0.38-0.68a4.21,4.21,0,0,0,1,.28,1,1,0,0,1-.38-1c0.53,0,.34.46,0.76,0.51a1.8,1.8,0,0,0,.15-0.34,4.5,4.5,0,0,0,.61.23c0.14-.11-0.34-0.24-0.38-0.4a0.87,0.87,0,0,0,.23-0.51,1.93,1.93,0,0,1,.38.06c0.21,0-.06-0.27.15-0.23a2,2,0,0,0-1.3-.06c0-.1.09-0.12,0.08-0.23a20.16,20.16,0,0,1-2.45-.11c-0.2,0,.1.1,0,0.23a1.75,1.75,0,0,1-.76-0.34c0.07-.22.4-0.06,0.54,0,0.17-.16-0.39-0.51-0.15-0.73,0.32,0,.16.25,0.3,0.34s0.54,0.09.46-.11a1.47,1.47,0,0,0,1.23.34c0.14-.49-0.7-0.81-1.3-1.08-0.38,0-.74,0-0.69-0.28a5,5,0,0,1,.69-0.06c-0.1-.21-0.56-0.26-0.31-0.56a4.06,4.06,0,0,0,1.07.68c0.21,0-.2-0.1-0.08-0.28,0.17,0,.29,0,0.31.11a0.43,0.43,0,0,1,.46-0.17,0.88,0.88,0,0,0-.08-0.28c0.14,0,.16.07,0.3,0.06-0.31-.52-1.61-0.46-1.84-1.19,0.37-.18,0-0.56.31-0.79a2,2,0,0,1,.77.9c0.09,0,.06-0.1.07-0.17a0.42,0.42,0,0,1,.31.34c0.31-.06-0.14-0.47.46-0.39a1.17,1.17,0,0,0,.23.74c0.34,0,.31-0.19.54,0,0.13-.28-0.32-0.42-0.31-0.9a5.93,5.93,0,0,1,.77.4c0.18,0,0-.29-0.08-0.34s0.19-.12.39-0.11a2.14,2.14,0,0,1-1.53-1.24,1.33,1.33,0,0,0,.31-1.24c0.51,0,.42.4,1,0.34,0.17,0,.17-0.14.15-0.28a3.6,3.6,0,0,1-.76-0.34,0.45,0.45,0,0,1,.38-0.28c-0.11-.37,0-0.26.23-0.45A0.53,0.53,0,0,1,101,29.9a1.11,1.11,0,0,1,.46-0.11,0.72,0.72,0,0,0,.77.34A0.74,0.74,0,0,1,102.5,30,0.76,0.76,0,0,1,102,29a0.56,0.56,0,0,1,.38.11c0.31-.37-0.33-0.8.08-1.13,0.38-.06.13,0.36,0.31,0.45s0.15-.12.23-0.17a6.84,6.84,0,0,1,.46,2,5,5,0,0,1,.84-0.28,1.86,1.86,0,0,1-.84,1.19,1,1,0,0,0,.84.06c0.17,0.2-.16.2,0,0.45a1.79,1.79,0,0,0-1.23.9c0.17,0.19.43-.19,0.61,0a0.32,0.32,0,0,1-.15.34c0.15,0.11.63,0,.61,0.23h0.23c-0.07-.1.35-0.27,0.54-0.17a1.31,1.31,0,0,1-.23.62,2.78,2.78,0,0,1,.69.06,0.62,0.62,0,0,1-.23.45h-0.61c-0.09.1,0,.35-0.38,0.34,0.41,0.58,1.59,0,1.76-.51,0.38-.09.14,0.27,0.31,0.34a1.23,1.23,0,0,1,.38-0.11c0.11,0.36-.25.49-0.07,0.74,0.37,0,.31-0.22.46-0.34,0.4,0.22-.18.94-0.92,0.85V35.21c-0.84.35-1.91,0.2-2.68,0.57,0.25,0.09,0,.51,0,0.51,0.37,0.63,1.77.16,2.37-.12,0.17,0,0,.28.08,0.4a2.07,2.07,0,0,0,1.38-.45c0.48,0.27.84-.2,1.22-0.11a0.53,0.53,0,0,1-.46.4c0,0.2.36-.13,0.38,0.06a1.24,1.24,0,0,1-.77.34c-0.06.18,0.21,0.11,0.15,0.28a0.83,0.83,0,0,0-.46.39,6.23,6.23,0,0,0,2.15-.22C109.77,37.48,108.82,37.56,108.85,37.59Zm-2.37,11a1,1,0,0,0,.76.22C107.13,48.41,106.76,48.48,106.48,48.56Zm-5.05-4.13c-0.08-.21.33-0.26,0-0.34a0.46,0.46,0,0,1-.23.11C101.23,44.31,101.22,44.45,101.43,44.43ZM103,31.88c-0.06.2,0.27,0.2,0.38,0.11S103.15,31.79,103,31.88Zm-1.38.91a0.43,0.43,0,0,0-.46-0.45C101,32.58,101.29,32.76,101.66,32.78ZM101.89,33c0.34,0,.26-0.31-0.08-0.23A1.5,1.5,0,0,0,101.89,33Zm-0.15-.11a4.32,4.32,0,0,1-.53-0.06C101.12,33.07,101.77,33.18,101.73,32.89Zm1.38,1a0.87,0.87,0,0,0,.61-0.17C103.63,33.32,103,33.49,103.11,33.85Zm-1,1a1.65,1.65,0,0,0-.84-0.11C101.41,34.89,102,35.25,102.12,34.82Zm-1.38.68c0-.22-0.17-0.25-0.38-0.28C100.29,35.45,100.47,35.5,100.74,35.49Zm3.9-.17c0.11,0.09.43,0.08,0.38-.11C104.83,35.2,104.65,35.2,104.64,35.32Zm-4.37.9a1.06,1.06,0,0,0,1.46.45c-0.22-.08,0-0.3.15-0.28a0.83,0.83,0,0,0-.46-0.45C101.18,36.21,100.75,36,100.28,36.23ZM106,37.08c0,0.4.54,0.54,0.92,0.45C107.15,37.12,106.62,36.93,106,37.08Zm-0.76.68a2,2,0,0,0-1.68-.51c-0.73.86,1.88,1.43,2.68,0.85A1,1,0,0,0,105.25,37.76ZM101.2,40c-0.06.22,0.47,0.33,0.53,0.11C101.52,40.11,101.41,39.87,101.2,40ZM104,40.19a0.94,0.94,0,0,0-.54-0.17C103.32,40.37,103.87,40.17,104,40.19Zm-0.23.79c0.31-.27-0.34-0.56-0.61-0.4C103.49,40.64,103.15,41,103.72,41Zm0.3,0.68a3.74,3.74,0,0,0,1.69-.28,1.74,1.74,0,0,1,.15.57,3.2,3.2,0,0,0,1-.17,0.76,0.76,0,0,1-.07-0.28c-0.65.18-.19-0.47-0.54-0.51C105.53,41.14,104.45,41.14,104,41.66Zm-3.67.45a0.63,0.63,0,0,0-.15.28c0.06,0.33.73,0.22,0.69,0.62a1,1,0,0,0,.53-0.11,0.7,0.7,0,0,0,.54.22,4.3,4.3,0,0,0,.15-0.9C101.55,42.31,101.19,42,100.36,42.11Zm2.83,1a1.37,1.37,0,0,0,1.53-.28,0.84,0.84,0,0,1-.46-0.45C103.29,42.22,102.79,42.45,103.18,43.07Zm4.52,0.34a1.76,1.76,0,0,1-.39.06c0.21-.16-0.11-0.05-0.15-0.17s0.18-.21.08-0.28a2.71,2.71,0,0,1-.92-0.06c-0.08-.26.33-0.35,0.07-0.56a3.71,3.71,0,0,0-1.53.73c0.22,0.11.58-.3,0.76,0.06-0.12.13-.61,0.41-0.3,0.51,0-.27.33-0.21,0.53-0.28a0.28,0.28,0,0,1,0,.4,1.32,1.32,0,0,0,1.15-.23,0.48,0.48,0,0,0,.38.28,1.53,1.53,0,0,0,.92-0.4c-0.12,0-.07-0.14-0.08-0.23-0.41.1-.26-0.22-0.61-0.17C107.54,43.29,107.9,43.27,107.7,43.41Zm-9.11.4a3.34,3.34,0,0,0,.69.05c0.06-.31-0.42-0.21-0.61-0.34A0.76,0.76,0,0,1,98.6,43.81Zm1.91-.17c0,0.35.58,0.3,0.92,0.28a0.59,0.59,0,0,0-.15-0.28,1.67,1.67,0,0,1-.46-0.06c-0.1.14,0.3,0.18,0.08,0.23A0.67,0.67,0,0,0,100.51,43.64Zm3.59,1.47a0.69,0.69,0,0,0,.16-0.06,0.57,0.57,0,0,0,.39.11c-0.12-.29.18-0.28,0.23-0.45a0.7,0.7,0,0,0-.77-0.17,1.09,1.09,0,0,0-.84-0.4,1.46,1.46,0,0,0,.69,1.64,12.94,12.94,0,0,0,1.3.06c0-.24.43-0.14,0.38-0.4A0.92,0.92,0,0,1,104.1,45.11Zm-3.59.85a0.44,0.44,0,0,0,.46.28c0.1-.15.17-0.17,0.08-0.34A1.72,1.72,0,0,0,100.51,46Zm0.38,1.87a4.07,4.07,0,0,0-.08-0.51,1.35,1.35,0,0,1-.54-0.11A0.68,0.68,0,0,0,100.89,47.82Zm6.89-.11a1.16,1.16,0,0,1,.76.23c-0.06-.17.13-0.17,0.08-0.34a2.53,2.53,0,0,0-.84-0.34A1.5,1.5,0,0,1,107.78,47.71Zm-2.07-.17c0.15,0.55.81,0.05,1.45,0.17C107,47.39,106.15,47.48,105.71,47.54Zm-0.38.34c0-.21-0.16-0.26-0.31-0.34A0.27,0.27,0,0,0,105.33,47.88Zm1.84,0.45c0.16,0.07.39,0.09,0.38,0.28h0.39c-0.3-.24.08-0.16,0.23-0.34A1.23,1.23,0,0,0,107.17,48.33Zm-2.6.85c-0.12.61,0.81,0.78,1.3,0.45A1.65,1.65,0,0,0,104.56,49.18Zm-8.34,1c0.4,0,.62.39,0.38,0.57,0.46,0.35.78-.16,1.38-0.17a1.71,1.71,0,0,0-1.3-.73C96.71,50.1,96.32,50,96.23,50.2Zm1.15,1.3a1.57,1.57,0,0,0,1.38.51c-0.13-.28.37-0.1,0.46-0.23V51.56A9.11,9.11,0,0,0,97.37,51.5Zm-0.23.9c0.31,0,.48-0.05.46-0.28C97.34,52.14,97.13,52.19,97.14,52.4Zm-1.69.11a1.11,1.11,0,0,0,.54,0C96,52.12,95.53,52.37,95.46,52.52Zm-0.61.23c0.11,0.41.79,0.11,1.07,0A3.13,3.13,0,0,0,94.84,52.74Z"/><path class="cls-4" d="M90.46,36.45a1.24,1.24,0,0,0-.22-0.33c0-.29.42-0.26,0.33-0.53-0.09,0,0,.13-0.22.08a4.07,4.07,0,0,0-.16-0.57c0.38,0.15.28-.19,0.55-0.08,0-.16-0.13-0.21-0.11-0.37,0.23,0.11.1-.06,0.17-0.12a0.4,0.4,0,0,1,.44.16,4.08,4.08,0,0,0-.05,1,0.3,0.3,0,0,0,.22-0.25h0.33a0.48,0.48,0,0,0,.28.33c0,0.22-.3.19-0.44,0.29,0,0.26-.17.44-0.23,0.69a1.08,1.08,0,0,0,.72-0.41,0.44,0.44,0,0,1,.39.33,1.06,1.06,0,0,0-.44.12,0.35,0.35,0,0,1,.11.37,0.22,0.22,0,0,0-.22.24c-0.15,0-.19-0.06-0.11-0.12a0.44,0.44,0,0,1-.22.08,0.93,0.93,0,0,0,.22,0,0.26,0.26,0,0,0-.05.25c0.33-.12-0.23.46,0,0.65a1.31,1.31,0,0,1,.28,0A0.18,0.18,0,0,1,92.12,38a0.28,0.28,0,0,0-.22,0,3.06,3.06,0,0,1,.39-0.57c0.14,0,.11.14,0.11,0.24a1.86,1.86,0,0,1,.39-0.2c0.14,0.1-.06.16-0.05,0.28s0.19-.05.16,0.12c0.21,0,.24-0.07.45,0s-0.12.18-.17,0.28a2.42,2.42,0,0,0-1.16.29c0,0.09.2,0,.28,0-0.25.1-.62,0.12-0.88,0.2v0.53c0.43,0,.39-0.28.61-0.41a0.38,0.38,0,0,0,.38,0,0.41,0.41,0,0,1,.06.33,0.58,0.58,0,0,0,.61-0.57,0.76,0.76,0,0,0,.28-0.08A1,1,0,0,1,93,39.55a1.28,1.28,0,0,1,.55-0.16c0.1,0.14,0,.1-0.06.25,0.41-.1.59-0.61,1.11-0.29a0.52,0.52,0,0,1-.49.29c-0.17,0,.13.06,0.05,0.16-0.24.09-.46,0.2-0.72,0.29a0.6,0.6,0,0,0,.72-0.2,2.65,2.65,0,0,0,.66.08c0,0.1-.18.08-0.33,0.08s0.08,0.13.16,0.16a3.28,3.28,0,0,0-1.38.53c0,0.1.22,0.09,0.17,0.25a0.76,0.76,0,0,1-.61.08c-0.24.3-1.26-.11-1.16,0.37,0.06,0,0-.07.06-0.12a0.53,0.53,0,0,0,.39.08,0.42,0.42,0,0,0,.16.45c0.11-.05-0.06-0.18.06-0.29a0.36,0.36,0,0,1,.39.25,2.16,2.16,0,0,0,.83-0.53c0.29,0,.21.25,0.22,0.45-0.28,0,.07-0.15-0.11-0.17a1,1,0,0,1-.17.45,0.86,0.86,0,0,0,.94-0.21c0.25,0,.36,0,0.38-0.16,0.31,0,.2.28,0.22,0.49a2,2,0,0,0-.61.25c0.14,0.13.36-.2,0.49-0.08a1.89,1.89,0,0,1-.55.33c0.12,0.09.25-.17,0.5-0.12-0.38.69-2.28,0.25-2.54,1a5.14,5.14,0,0,1,1.6-.16c0,0.06.1,0.06,0.11,0.12,0,0.22-.4.14-0.55,0.25,0,0.1.21,0.14,0.06,0.24a7.28,7.28,0,0,0,1.1-.28,0.5,0.5,0,0,1-.55.57,0.22,0.22,0,0,1-.06.16s0.54,0,.33.21a2.69,2.69,0,0,1,.83-0.21,2.4,2.4,0,0,1-1.22.65c0.13,0.07.13,0.21,0.33,0.12a3.49,3.49,0,0,1-1.49.33,0.29,0.29,0,0,0,.05-0.08c-0.24.08-.36,0.25-0.61,0.33,0.09,0,.28,0,0.06.12a1,1,0,0,0,.22,0c0,0.11-.12.1-0.22,0.12a5.35,5.35,0,0,0,1.22-.16c-0.1.08,0,.1,0,0.2A1.16,1.16,0,0,1,93.95,46a0.63,0.63,0,0,1,.66-0.61,0.18,0.18,0,0,1,.06.16,2,2,0,0,1,.67-0.37c0.19,0.18,0,.31-0.06.49H94.94c0,0.12.26,0.05,0.22,0.21a3.27,3.27,0,0,1-.77.53,2.37,2.37,0,0,0,1.38-.24c0.17,0.11-.19.2,0,0.33a2.21,2.21,0,0,1,.77-0.25,3.62,3.62,0,0,1-.28.45,9.62,9.62,0,0,0-1.05.25,2.21,2.21,0,0,0,1.22,0,0.26,0.26,0,0,1-.06.12c0.33,0,.55-0.19.88-0.24-0.06.14,0.18,0.06,0.28,0.08a2.06,2.06,0,0,1-.44.12c0,0.09.15-.06,0.22,0-0.12.51-1.46,0.12-1.66,0.57a0.74,0.74,0,0,0-.88.45,3.84,3.84,0,0,1,.39,0c-0.2.22-.47,0.39-0.66,0.61a0.22,0.22,0,0,0,.22-0.12c0.19,0.09-.17.11-0.16,0.2,0.55,0.14.58-.46,1.16-0.45,0.14,0.17-.13.17-0.28,0.25,0,0.06.18,0,.11,0.16A3.18,3.18,0,0,0,96.71,48c0.22,0.05.4-.11,0.44,0s-0.26,0-.39.08a0.94,0.94,0,0,0,.22.12,0.16,0.16,0,0,1-.17.08,0.36,0.36,0,0,1,.17.37H96.32c0,0.2.34,0.13,0.33,0.33-0.24.06-.34,0-0.33,0.21-0.36-.15-0.4.12-0.67,0-0.18,0-.05.23-0.16,0.28a5.74,5.74,0,0,1-.89.2,2.54,2.54,0,0,0,1.16.37c0.19-.34,1.19-0.46,1,0.08A0.35,0.35,0,0,1,96.49,50a0.51,0.51,0,0,1-.11,0c0,0.07.05,0.08,0.06,0a2.5,2.5,0,0,1-1.55.49,0.23,0.23,0,0,0,.17.29,0.9,0.9,0,0,1,.61,0c-0.19.05-.11,0.1-0.16,0.2a7.39,7.39,0,0,1-1.94-.16,0.85,0.85,0,0,0,.5.25,0.44,0.44,0,0,1-.17.08,0.3,0.3,0,0,0,.23,0c0,0.12,0,.27-0.17.25,0.57,0.44,1.17-.25,1.71,0-0.06.19-.31,0-0.39,0.2a2.14,2.14,0,0,1,.44,0c-0.08.29-.64,0.23-0.72,0.53a1.08,1.08,0,0,1,.55.08A1.31,1.31,0,0,1,96.16,52a0.78,0.78,0,0,1,.33.17c0,0.07,0,.08-0.11.08,0,0.33.63,0.13,1,.12a1.15,1.15,0,0,1-1,.86,0.22,0.22,0,0,1-.06.33,2.33,2.33,0,0,1,1.11,0,0.17,0.17,0,0,0-.05.13H97.1c0.22-.19-0.21,0-0.28.08S97.11,53.79,97,54c-0.49-.2-1.22,0-1.49-0.33a0.79,0.79,0,0,1-.16.16,0.74,0.74,0,0,0-.44-0.08c0,0.16.38,0.14,0.22,0.33a1.58,1.58,0,0,0,1,0,0.51,0.51,0,0,1,.11.32,1,1,0,0,1-.22.13,3.55,3.55,0,0,0,1.6-.08c0.21,0.14-.1.25-0.22,0.29s0.26,0,.22.08v0.12a0.64,0.64,0,0,1-.39,0c-0.4.74-1.92,0.68-3,.69-0.15,0-.11.09-0.17,0.12a0.93,0.93,0,0,1-.28-0.08c-0.08,0,0,.07.05,0.08a1,1,0,0,1-.66-0.08c-0.56.29-1.33-.36-2.1-0.16a3.86,3.86,0,0,0-2.93,0,0.09,0.09,0,0,1,0-.16c-0.6.36-1.61-.21-2.21,0.24a1.77,1.77,0,0,1-1-.21c-0.45.2-1.66,0.3-1.71-.29a1.16,1.16,0,0,1,.33,0A0.89,0.89,0,0,1,83,54.35c0.17,0,.33,0,0.33.17a0.48,0.48,0,0,1,.38,0c-0.06,0-.16.07-0.11,0.2a0.45,0.45,0,0,1,.22.2A1.5,1.5,0,0,0,84,54.51a1.89,1.89,0,0,1,.66.25,1.46,1.46,0,0,1,.55-0.08,2.35,2.35,0,0,1-.44-0.2,1.75,1.75,0,0,1-.44.08c0-.23.21-0.16,0.05-0.37A2,2,0,0,0,85,54.1V53.86a2.72,2.72,0,0,1-.61-0.37c0-.19.31-0.05,0.17-0.29a3.54,3.54,0,0,1,.61.25,0.93,0.93,0,0,0,.5-0.29A2.06,2.06,0,0,0,86.82,53c-0.33-.52-1.26-0.12-1.94-0.33-0.16,0-.17.09-0.33,0.08a8.69,8.69,0,0,1-1-.41c0.14-.2-0.15-0.25,0-0.41a0.75,0.75,0,0,0,.61.25c-0.07-.21-0.55-0.29-0.39-0.53a5.93,5.93,0,0,0,.72.16c-0.33-.19-0.65-0.39-1-0.57,0-.13.12-0.13,0.28-0.12a0.38,0.38,0,0,1-.22-0.41c0.28,0,.39.08,0.39,0.2A0.17,0.17,0,0,0,84,50.79a0.73,0.73,0,0,0,.56.37,2.5,2.5,0,0,0,.16-0.37c0.2,0,.37.05,0.55,0.08,0.05,0.42.77,0.35,0.88,0.73h0.22a3.93,3.93,0,0,1-.17-0.45,2,2,0,0,1,.89.12c0-.17-0.26-0.19-0.28-0.37a4.14,4.14,0,0,0,.44,0A1.12,1.12,0,0,1,87,50.1c0.33,0.13.65,0.28,1,.41,0,0.09,0,.13-0.16.12a1.24,1.24,0,0,0,1.33-.17,0.26,0.26,0,0,0-.28-0.2,3.66,3.66,0,0,1,.72-0.17V50a9.79,9.79,0,0,0-3.2.16c0,0.33-.93.4-1,0a0.27,0.27,0,0,1,.28,0c-0.07-.11-0.13-0.12-0.06-0.24-0.72,0-1.38-.26-0.94-0.73a1.13,1.13,0,0,1,.61.24A0.65,0.65,0,0,1,86,49.28,0.36,0.36,0,0,1,86,48.75a6.6,6.6,0,0,0,.61.37,1.48,1.48,0,0,0-.16-0.37c0.28-.16.48-0.21,0.22-0.49,0.42,0.07.75,0.56,1.33,0.65,0.11-.06-0.17-0.17-0.28-0.21,0.13-.31-0.29-0.35-0.33-0.65,0.15-.15.42,0.12,0.5-0.16,0.17,0,.25,0,0.22.16a0.51,0.51,0,0,1,.5,0,0.39,0.39,0,0,0-.22-0.65,3.7,3.7,0,0,0-1.16.24c-0.17,0-.7-0.13-0.44,0a0.69,0.69,0,0,1-.39,0c0.22-.13.38-0.32,0.61-0.45-0.07,0-.37.1-0.61,0.08-0.08-.06-0.17-0.2-0.05-0.29L85.21,47c-0.07-.06,0-0.07,0-0.12H84.82c0.1-.21-0.15-0.16-0.17-0.29a4.46,4.46,0,0,1,1.11,0c0.05-.09-0.06-0.32.34-0.24,0-.17-0.3-0.19-0.34-0.37,0.22-.19.37,0.12,0.61,0.16a2.66,2.66,0,0,0-.16-0.37c0.75,0.12.79,0.78,1.55,0.9,0.1-.07,0-0.13-0.11-0.16s0.15,0,.22,0a0.63,0.63,0,0,1,0-.78c0.15,0,.23.1,0.39,0.12-0.07.19,0.12,0.18,0.22,0.25s0-.16.22-0.12a2.56,2.56,0,0,0,.61.41,0.67,0.67,0,0,0,.11-0.2c0.15,0,.37.18,0.44,0a1,1,0,0,1,.39.25,0.58,0.58,0,0,1,.39,0c-0.26-.67-1.71-0.45-2-1.06-0.38,0-.69.14-1.05,0.2a0.21,0.21,0,0,1,.06-0.16c-0.64.13-1.5,0.15-1.55-.41a1.65,1.65,0,0,1,.61.25,4.37,4.37,0,0,1,.61,0c-0.05-.15-0.38-0.1-0.33-0.33a1.62,1.62,0,0,0,.77,0A1.15,1.15,0,0,0,87,44.42a2.15,2.15,0,0,1-.5.12,0.62,0.62,0,0,1,.28-0.2,2.12,2.12,0,0,1-1.05-.08c0-.13.28-0.07,0.44-0.08a2.28,2.28,0,0,1,.22-0.37,1.92,1.92,0,0,1-.33,0c0-.2-0.15-0.25-0.11-0.45a0.79,0.79,0,0,0,.66.08,1.31,1.31,0,0,0,1.16.41c0.13,0-.14-0.14-0.22-0.16s0.19,0,.22,0-0.18-.23.06-0.29c-0.06-.1-0.32-0.07-0.28-0.24a2.09,2.09,0,0,0,.28.12c0.09-.12-0.42-0.24-0.22-0.45a1.45,1.45,0,0,0-.44-0.13c0.08-.24-0.36-0.22-0.5-0.32a3,3,0,0,1-.33-0.53,4.52,4.52,0,0,0,.94,0,0.79,0.79,0,0,1,0-.41,0.86,0.86,0,0,1,.61.61c0.12,0,0-.17.06-0.25a3.16,3.16,0,0,1,.5.08,0.89,0.89,0,0,0,.39.74c0.13,0-.17-0.17,0-0.25a0.57,0.57,0,0,1,.5.29,4.18,4.18,0,0,0,1.44-.12c-0.1-.19-0.46-0.18-0.56-0.37-0.11,0,0,.16-0.22.12a3.74,3.74,0,0,1-1.11-.86c-0.47,0-.89,0-0.94-0.33h0.28a1.72,1.72,0,0,1-.33-0.74,1.37,1.37,0,0,1,1,.41,0.75,0.75,0,0,0,.61-0.29c0.27,0,.13.26,0.16,0.41s0.25,0,.28.12a0.76,0.76,0,0,1,.06-0.2,0.32,0.32,0,0,1,.22.12,0.39,0.39,0,0,0,.11-0.16,0.66,0.66,0,0,1,.33.08c0.17-.08-0.24-0.06-0.16-0.21a0.43,0.43,0,0,1,.28,0c-0.63-.41-1.78-0.43-2.38-0.86a0.48,0.48,0,0,1,.28,0,0.6,0.6,0,0,0-.05-0.33c0.18,0,.06.23,0.16,0.29C89,39.21,88,39.14,88,38.66c0.31,0,0-.05.05-0.17,0.41,0,.46-0.22.55,0.08,0.29-.32-0.22-0.65-0.11-0.94A1.55,1.55,0,0,1,89,38a1.62,1.62,0,0,0-.06.57,0.57,0.57,0,0,1,.44,0,0.55,0.55,0,0,1,.49-0.16,1.13,1.13,0,0,0-.05.37H89.53a1,1,0,0,0,.06.49c0.45-.16,1.2-0.16,1.16-0.61a0.65,0.65,0,0,1-.22.17c-0.22,0-.42-0.07-0.39-0.29l0.33,0.17c0.1-.08-0.18-0.22-0.33-0.25,0-.23-0.32-0.47.05-0.57-0.37-.15-1.14-0.22-0.94-0.65a1.36,1.36,0,0,1,.5.29c0.14,0-.08-0.16,0-0.29a4.39,4.39,0,0,1,.66.24c0-.23.09-0.43-0.22-0.41a0.86,0.86,0,0,0-.56-0.53,0.44,0.44,0,0,1,.5-0.32c0,0.15,0,0-.17,0C90.19,36.25,90.19,36.37,90.46,36.45Zm-2.54,8.7a0.27,0.27,0,0,0-.28-0.21A0.33,0.33,0,0,0,87.92,45.15ZM91,37.51a0.44,0.44,0,0,0,.22,0V37.43C91.11,37.42,91,37.44,91,37.51Zm0.17,0.37s0.14-.24-0.06-0.2C91.11,37.77,91,37.85,91.18,37.88Zm-0.66.29a0.26,0.26,0,0,0-.28-0.25A0.58,0.58,0,0,0,90.52,38.17Zm-1.66.73a1,1,0,0,1,.05-0.16,0.5,0.5,0,0,0-.17,0C88.74,38.8,88.74,38.89,88.86,38.9Zm1.71,0.69a0.51,0.51,0,0,0,.11-0.49C90.46,39.22,90,39.55,90.57,39.59Zm-1,.24c0.13,0,.27,0,0.27-0.08a1.78,1.78,0,0,0-.22-0.29c0,0.08-.09,0-0.11,0S89.49,39.74,89.53,39.84Zm0.27-.33a0.21,0.21,0,0,0,.22.2c0-.08.09-0.28-0.11-0.25C89.92,39.64,89.88,39.57,89.8,39.51ZM91.46,40a0.24,0.24,0,0,0,.28-0.29l-0.22-.08A1.08,1.08,0,0,0,91.46,40Zm-1-.08v0.29a0.62,0.62,0,0,0,.33,0c-0.09-.14-0.05-0.25-0.11-0.33A0.68,0.68,0,0,1,90.46,40Zm1.77,0.61c0.2,0,.43,0,0.44-0.16A0.36,0.36,0,0,0,92.23,40.57Zm0.05-.2a0.47,0.47,0,0,0-.55.12A0.38,0.38,0,0,0,92.29,40.37ZM91.4,41.68a0.39,0.39,0,0,0,.39,0,0.28,0.28,0,0,0-.33-0.2A0.49,0.49,0,0,0,91.4,41.68Zm-0.94-.08a0.19,0.19,0,0,0,.06.16c0.16,0,.23-0.17.11-0.21S90.54,41.6,90.46,41.6Zm1.71,1.71c0-.08.3-0.15,0.16-0.2S92,43.22,92.18,43.31ZM89,43.68c0.18,0,.44,0,0.22.12,0.41,0,.85.16,1.1,0.12-0.21-.24-0.52-0.86-1-0.53a0.79,0.79,0,0,0-.44-0.16A0.33,0.33,0,0,1,89,43.68ZM91.79,44a0.25,0.25,0,0,1,.17.29,1.73,1.73,0,0,1-.5.08,0.8,0.8,0,0,0,.22.29c0.2-.26.63,0.37,0.94,0-0.17-.09-0.46-0.1-0.39-0.37,0.25,0,.29-0.14.55-0.12,0-.24.18-0.27,0.28-0.41C92.54,44,92.13,43.61,91.79,44Zm-1.38.82c0.6,0,.19,0,0-0.2,0.21,0,.27,0,0.28-0.16a1.56,1.56,0,0,0-1-.12c0.2,0.11.25,0.43,0.55,0.25C90.25,44.7,90.45,44.67,90.41,44.82Zm-1.93-.24c0.08,0,.29,0,0.27,0a0.51,0.51,0,0,1-.17-0.12C88.58,44.5,88.43,44.47,88.47,44.58Zm4.75-.08a0.39,0.39,0,0,0,.55.16A0.41,0.41,0,0,0,93.23,44.5Zm-0.61.65A1.49,1.49,0,0,0,93.5,45c-0.19,0-.31,0-0.28-0.16A0.84,0.84,0,0,0,92.62,45.15Zm-2.77.61A0.89,0.89,0,0,0,90,45.6a0.34,0.34,0,0,0-.38-0.12A0.53,0.53,0,0,0,89.85,45.76ZM90.46,46a0.34,0.34,0,0,0-.33-0.37A0.38,0.38,0,0,0,90.46,46Zm0.83,0.12c0.13-.07,0-0.3-0.11-0.33A0.2,0.2,0,0,0,91.29,46.09Zm1.05,0.37c0,0.24.49,0.19,0.39-.08C92.57,46.39,92.5,46.45,92.34,46.46Zm-3.21.12a0.41,0.41,0,0,0,.28.08C89.44,46.53,89.18,46.43,89.14,46.58Zm2.27,0.57a0.51,0.51,0,0,0,.39-0.24C91.66,46.85,91.33,46.93,91.4,47.15Zm1.94,0c0.2,0.1.6-.06,0.44-0.2C93.69,47.05,93.34,46.85,93.34,47.11Zm0.89,0a0.32,0.32,0,0,0,.33-0.2H94.28A0.64,0.64,0,0,1,94.23,47.15Zm-4.59.08a1.89,1.89,0,0,1,.5.32,0.22,0.22,0,0,0,.05-0.28,0.52,0.52,0,0,1-.28-0.08h0.33C90.23,46.89,89.76,47.15,89.63,47.24Zm0.94,1.19a1.54,1.54,0,0,0-1.27-.82A2.35,2.35,0,0,0,90.57,48.42Zm0.05-.57c0.09-.07,0-0.23-0.16-0.25S90.44,47.86,90.63,47.85Zm1.88,0.08a1.65,1.65,0,0,0-1.17,0v0.45a0.67,0.67,0,0,1,.28.12c0.53-.22,1.05-0.45,1.6-0.65a1.18,1.18,0,0,1,.05.33c0.48,0,.59-0.35,1.05-0.41A2.32,2.32,0,0,0,92.51,47.93Zm-4,.86a0.14,0.14,0,0,1,.11-0.08A0.78,0.78,0,0,0,88,48.42,0.47,0.47,0,0,0,88.53,48.79Zm0.66,0c0-.24-0.39-0.26-0.5-0.2C88.87,48.64,89,48.74,89.19,48.79ZM92,49a0.68,0.68,0,0,0,.72-0.24A0.58,0.58,0,0,0,92,49Zm-4,.25a1.07,1.07,0,0,0-.39-0.12C87.51,49.35,87.91,49.44,88,49.28Zm-0.89.33a1.34,1.34,0,0,0,.5,0,0.52,0.52,0,0,0-.44-0.29A1.12,1.12,0,0,0,87.09,49.61Zm-0.83.13c0-.11.09-0.09,0-0.16S86,49.76,86.26,49.73Zm7.25,0.08a0.65,0.65,0,0,0,.61,0,0.32,0.32,0,0,1,0-.25A0.59,0.59,0,0,0,93.5,49.81Zm-0.55,1a0.4,0.4,0,0,0-.22-0.25c-0.12.12-.1-0.05-0.05-0.12C92.28,50.55,92.64,51,93,50.83Zm-4,.37c0.21,0,.32,0,0.33-0.16C89.09,51,89,51.07,89,51.2Zm4.09,0.53a0.22,0.22,0,0,0-.22-0.13c0,0.37.61,0.25,0.83,0.33a0.66,0.66,0,0,0-.5-0.37A0.41,0.41,0,0,1,93.06,51.73ZM86,52.06c-0.17,0-.26-0.14-0.44-0.16C85.37,52,85.87,52.24,86,52.06Zm-0.89.16c0,0.39.72,0.23,0.61,0A4,4,0,0,0,85.1,52.22Zm2.65,0.29a2.26,2.26,0,0,0-.66,0c0,0.19.11,0.26,0.5,0.25a0.34,0.34,0,0,1,.33-0.2,0.15,0.15,0,0,0-.05-0.12,1,1,0,0,0,.33-0.08c-0.17-.05-0.44,0-0.61-0.08C87.45,52.41,87.69,52.43,87.75,52.51Zm7,0.25A1.26,1.26,0,0,0,96,52.51a1.39,1.39,0,0,0-.28-0.16C95.53,52.59,94.9,52.5,94.72,52.75Zm-6.86,0c0,0.2.38,0.13,0.39,0A0.81,0.81,0,0,0,87.87,52.71Zm4.37,0.2c0.15,0,.14-0.09.16-0.16H92.23v0.16Zm0.83,0.61c0.15-.15-0.18-0.23-0.22-0.36,0.12,0,.17,0,0.17-0.12a1.23,1.23,0,0,0-.56-0.12c0,0.1.2,0.18,0.06,0.2s-0.05-.18-0.22-0.16v0.41a1.34,1.34,0,0,0,.66.24c0-.08-0.07-0.08-0.11-0.12S93,53.54,93.06,53.53Zm-7.46.41c0,0.21.36,0.06,0.44,0A1,1,0,0,0,85.6,53.94Zm0.66,0.53c0.21,0,.64.18,0.72,0-0.1,0-.28,0-0.22-0.08S87,54.26,87,54.1H86.65A2.42,2.42,0,0,1,86.26,54.47Zm-1.1.29c0,0.2.66,0.14,0.78,0A2.15,2.15,0,0,0,85.16,54.76Z"/><path class="cls-4" d="M114.78,36.45a1.25,1.25,0,0,0-.22-0.33c0-.29.43-0.26,0.33-0.53-0.08,0-.05.13-0.22,0.08a4.37,4.37,0,0,0-.16-0.57c0.38,0.15.28-.19,0.55-0.08,0-.16-0.12-0.21-0.11-0.37,0.22,0.11.1-.06,0.16-0.12a0.41,0.41,0,0,1,.44.16,4,4,0,0,0-.06,1,0.31,0.31,0,0,0,.23-0.25H116a0.49,0.49,0,0,0,.28.33c0,0.22-.3.19-0.44,0.29,0,0.26-.17.44-0.22,0.69a1.06,1.06,0,0,0,.72-0.41,0.44,0.44,0,0,1,.39.33,1.06,1.06,0,0,0-.44.12,0.35,0.35,0,0,1,.11.37,0.23,0.23,0,0,0-.22.24c-0.15,0-.19-0.06-0.11-0.12a0.44,0.44,0,0,1-.22.08,1,1,0,0,0,.22,0,0.28,0.28,0,0,0-.06.25c0.33-.12-0.23.46,0,0.65a1.34,1.34,0,0,1,.28,0,0.18,0.18,0,0,1,.11-0.29,0.29,0.29,0,0,0-.22,0,3.18,3.18,0,0,1,.39-0.57c0.14,0,.11.14,0.11,0.24a1.91,1.91,0,0,1,.39-0.2c0.14,0.1-.06.16-0.06,0.28s0.19-.05.17,0.12c0.2,0,.23-0.07.44,0s-0.12.18-.16,0.28a2.42,2.42,0,0,0-1.16.29c0,0.09.19,0,.28,0-0.25.1-.62,0.12-0.88,0.2v0.53c0.43,0,.39-0.28.61-0.41a0.38,0.38,0,0,0,.39,0,0.42,0.42,0,0,1,.06.33,0.58,0.58,0,0,0,.61-0.57,0.75,0.75,0,0,0,.28-0.08,1,1,0,0,1-.33,1.14,1.32,1.32,0,0,1,.56-0.16c0.1,0.14,0,.1-0.06.25,0.41-.1.6-0.61,1.1-0.29a0.52,0.52,0,0,1-.5.29c-0.16,0,.13.06,0.06,0.16-0.24.09-.46,0.2-0.72,0.29a0.6,0.6,0,0,0,.72-0.2,2.62,2.62,0,0,0,.66.08c0,0.1-.19.08-0.33,0.08s0.08,0.13.17,0.16a3.23,3.23,0,0,0-1.38.53c0,0.1.21,0.09,0.16,0.25a0.77,0.77,0,0,1-.61.08c-0.24.3-1.25-.11-1.16,0.37,0.07,0,.05-0.07.06-0.12a0.54,0.54,0,0,0,.39.08,0.42,0.42,0,0,0,.17.45c0.1-.05-0.06-0.18.06-0.29a0.36,0.36,0,0,1,.39.25,2.15,2.15,0,0,0,.83-0.53c0.29,0,.21.25,0.22,0.45-0.28,0,.07-0.15-0.11-0.17a1,1,0,0,1-.17.45,0.86,0.86,0,0,0,.94-0.21c0.25,0,.36,0,0.39-0.16,0.31,0,.2.28,0.22,0.49a2,2,0,0,0-.61.25c0.15,0.13.36-.2,0.49-0.08a1.87,1.87,0,0,1-.55.33c0.12,0.09.25-.17,0.5-0.12-0.37.69-2.28,0.25-2.54,1a5.11,5.11,0,0,1,1.6-.16,1,1,0,0,1,.11.12c0,0.22-.4.14-0.55,0.25,0,0.1.21,0.14,0.06,0.24a7.38,7.38,0,0,0,1.11-.28,0.5,0.5,0,0,1-.56.57,0.21,0.21,0,0,1-.05.16s0.54,0,.33.21a2.66,2.66,0,0,1,.83-0.21,2.4,2.4,0,0,1-1.22.65c0.13,0.07.13,0.21,0.33,0.12a3.5,3.5,0,0,1-1.49.33,0.31,0.31,0,0,0,.06-0.08c-0.24.08-.36,0.25-0.61,0.33,0.09,0,.28,0,0.06.12a0.91,0.91,0,0,0,.22,0c0,0.11-.11.1-0.22,0.12a5.35,5.35,0,0,0,1.22-.16c-0.1.08,0,.1,0,0.2a1.15,1.15,0,0,1,.38-0.08,0.63,0.63,0,0,1,.66-0.61,0.19,0.19,0,0,1,.06.16,1.94,1.94,0,0,1,.66-0.37c0.19,0.18,0,.31-0.06.49h-0.33c0,0.12.27,0.05,0.22,0.21a3.38,3.38,0,0,1-.77.53,2.37,2.37,0,0,0,1.38-.24c0.17,0.11-.19.2,0,0.33a2.2,2.2,0,0,1,.78-0.25,4.45,4.45,0,0,1-.28.45,9.32,9.32,0,0,0-1.05.25,2.2,2.2,0,0,0,1.22,0,0.3,0.3,0,0,1-.06.12c0.33,0,.55-0.19.89-0.24-0.06.14,0.17,0.06,0.28,0.08a2,2,0,0,1-.44.12c0,0.09.15-.06,0.22,0-0.13.51-1.46,0.12-1.66,0.57a0.74,0.74,0,0,0-.88.45,3.76,3.76,0,0,1,.39,0c-0.2.22-.47,0.39-0.66,0.61a0.22,0.22,0,0,0,.22-0.12c0.2,0.09-.17.11-0.17,0.2,0.55,0.14.59-.46,1.16-0.45,0.14,0.17-.13.17-0.28,0.25,0,0.06.18,0,.11,0.16A3.19,3.19,0,0,0,121,48c0.22,0.05.4-.11,0.44,0s-0.26,0-.39.08a1,1,0,0,0,.22.12,0.16,0.16,0,0,1-.17.08,0.37,0.37,0,0,1,.17.37h-0.67c0,0.2.34,0.13,0.33,0.33-0.24.06-.33,0-0.33,0.21-0.36-.15-0.41.12-0.67,0-0.18,0-.05.23-0.16,0.28a5.65,5.65,0,0,1-.89.2,2.54,2.54,0,0,0,1.16.37c0.19-.34,1.18-0.46,1,0.08A0.34,0.34,0,0,1,120.8,50a0.59,0.59,0,0,1-.11,0c0,0.07.05,0.08,0.06,0a2.5,2.5,0,0,1-1.55.49,0.23,0.23,0,0,0,.17.29,0.91,0.91,0,0,1,.61,0c-0.19.05-.12,0.1-0.16,0.2a7.39,7.39,0,0,1-1.94-.16,0.86,0.86,0,0,0,.5.25,0.44,0.44,0,0,1-.16.08,0.28,0.28,0,0,0,.22,0c0,0.12,0,.27-0.17.25,0.57,0.44,1.17-.25,1.72,0-0.06.19-.31,0-0.39,0.2a2.12,2.12,0,0,1,.44,0c-0.08.29-.64,0.23-0.72,0.53a1.1,1.1,0,0,1,.55.08,1.28,1.28,0,0,1,.61-0.29,0.77,0.77,0,0,1,.33.17c0,0.07,0,.08-0.11.08,0,0.33.63,0.13,1,.12a1.15,1.15,0,0,1-1,.86,0.22,0.22,0,0,1-.06.33,2.32,2.32,0,0,1,1.11,0,0.16,0.16,0,0,0-.05.13h-0.28c0.23-.19-0.21,0-0.28.08s0.29,0.06.22,0.25c-0.49-.2-1.23,0-1.49-0.33a0.92,0.92,0,0,1-.17.16,0.75,0.75,0,0,0-.44-0.08c0,0.16.38,0.14,0.22,0.33a1.58,1.58,0,0,0,1.05,0,0.51,0.51,0,0,1,.11.32,1.12,1.12,0,0,1-.22.13,3.53,3.53,0,0,0,1.6-.08c0.21,0.14-.1.25-0.22,0.29s0.26,0,.22.08v0.12a0.64,0.64,0,0,1-.39,0c-0.4.74-1.92,0.68-3,.69-0.15,0-.11.09-0.17,0.12a0.92,0.92,0,0,1-.27-0.08c-0.08,0,0,.07.06,0.08a1.05,1.05,0,0,1-.67-0.08c-0.56.29-1.33-.36-2.1-0.16a3.87,3.87,0,0,0-2.93,0,0.09,0.09,0,0,1,0-.16c-0.6.36-1.61-.21-2.21,0.24a1.76,1.76,0,0,1-1-.21c-0.45.2-1.66,0.3-1.72-.29a1.12,1.12,0,0,1,.33,0,0.89,0.89,0,0,1-.55-0.82c0.17,0,.33,0,0.33.17a0.5,0.5,0,0,1,.39,0c-0.06,0-.16.07-0.11,0.2a0.42,0.42,0,0,1,.22.2,1.44,1.44,0,0,0,.17-0.37,1.92,1.92,0,0,1,.66.25,1.44,1.44,0,0,1,.55-0.08,2.37,2.37,0,0,1-.44-0.2,1.7,1.7,0,0,1-.44.08c0-.23.2-0.16,0.05-0.37a2,2,0,0,0,.66-0.08V53.86a2.66,2.66,0,0,1-.61-0.37c0-.19.32-0.05,0.17-0.29a3.54,3.54,0,0,1,.61.25,0.92,0.92,0,0,0,.5-0.29,2,2,0,0,0,1.11-.12c-0.32-.52-1.26-0.12-1.93-0.33-0.16,0-.17.09-0.33,0.08a9,9,0,0,1-1-.41c0.14-.2-0.15-0.25,0-0.41a0.76,0.76,0,0,0,.61.25c-0.06-.21-0.55-0.29-0.39-0.53a6.08,6.08,0,0,0,.72.16c-0.32-.19-0.65-0.39-1-0.57,0-.13.12-0.13,0.28-0.12a0.39,0.39,0,0,1-.22-0.41c0.29,0,.4.08,0.39,0.2a0.17,0.17,0,0,0,.11-0.16,0.74,0.74,0,0,0,.56.37,2.17,2.17,0,0,0,.16-0.37c0.2,0,.37.05,0.56,0.08,0.05,0.42.77,0.35,0.88,0.73h0.22a4,4,0,0,1-.16-0.45,2,2,0,0,1,.88.12c0-.17-0.25-0.19-0.28-0.37a4.13,4.13,0,0,0,.44,0,1.12,1.12,0,0,1-.28-0.78c0.34,0.13.65,0.28,1,.41,0,0.09,0,.13-0.16.12a1.24,1.24,0,0,0,1.32-.17,0.25,0.25,0,0,0-.28-0.2,3.6,3.6,0,0,1,.72-0.17V50a9.82,9.82,0,0,0-3.21.16c0,0.33-.93.4-1,0a0.26,0.26,0,0,1,.28,0c-0.07-.11-0.12-0.12-0.06-0.24-0.72,0-1.37-.26-0.94-0.73a1.15,1.15,0,0,1,.61.24,0.65,0.65,0,0,1,.72-0.16,0.36,0.36,0,0,1-.06-0.53c0.26,0.08.33,0.3,0.61,0.37a1.48,1.48,0,0,0-.17-0.37c0.28-.16.48-0.21,0.22-0.49,0.42,0.07.75,0.56,1.33,0.65,0.11-.06-0.17-0.17-0.28-0.21,0.13-.31-0.29-0.35-0.33-0.65,0.15-.15.42,0.12,0.5-0.16,0.17,0,.24,0,0.22.16a0.52,0.52,0,0,1,.5,0,0.39,0.39,0,0,0-.22-0.65,3.73,3.73,0,0,0-1.16.24c-0.17,0-.7-0.13-0.44,0a0.69,0.69,0,0,1-.39,0c0.22-.13.38-0.32,0.61-0.45-0.07,0-.37.1-0.61,0.08-0.08-.06-0.18-0.2-0.06-0.29L109.52,47c-0.06-.06,0-0.07,0-0.12h-0.39c0.1-.21-0.14-0.16-0.16-0.29a4.47,4.47,0,0,1,1.11,0c0-.09-0.07-0.32.33-0.24,0-.17-0.29-0.19-0.33-0.37,0.22-.19.37,0.12,0.61,0.16a3.12,3.12,0,0,0-.17-0.37c0.75,0.12.79,0.78,1.55,0.9,0.1-.07,0-0.13-0.11-0.16s0.15,0,.22,0a0.62,0.62,0,0,1,0-.78c0.15,0,.23.1,0.38,0.12-0.07.19,0.12,0.18,0.22,0.25s0-.16.22-0.12a2.62,2.62,0,0,0,.61.41,0.65,0.65,0,0,0,.11-0.2c0.15,0,.37.18,0.44,0a1.05,1.05,0,0,1,.39.25,0.59,0.59,0,0,1,.39,0c-0.27-.67-1.71-0.45-2-1.06-0.39,0-.69.14-1.05,0.2a0.21,0.21,0,0,1,.06-0.16c-0.64.13-1.5,0.15-1.55-.41a1.64,1.64,0,0,1,.61.25,4.4,4.4,0,0,1,.61,0c-0.05-.15-0.37-0.1-0.33-0.33a1.62,1.62,0,0,0,.77,0,1.13,1.13,0,0,0-.66-0.49,2.13,2.13,0,0,1-.49.12,0.62,0.62,0,0,1,.27-0.2,2.1,2.1,0,0,1-1-.08c0-.13.28-0.07,0.44-0.08a2.88,2.88,0,0,1,.22-0.37,1.9,1.9,0,0,1-.33,0c0-.2-0.14-0.25-0.11-0.45a0.8,0.8,0,0,0,.66.08,1.32,1.32,0,0,0,1.16.41c0.13,0-.14-0.14-0.22-0.16s0.19,0,.22,0-0.18-.23.06-0.29c-0.06-.1-0.32-0.07-0.28-0.24a2.17,2.17,0,0,0,.28.12c0.09-.12-0.42-0.24-0.22-0.45a1.46,1.46,0,0,0-.44-0.13c0.09-.24-0.35-0.22-0.5-0.32a2.77,2.77,0,0,1-.33-0.53,4.49,4.49,0,0,0,.94,0,0.86,0.86,0,0,1,0-.41,0.87,0.87,0,0,1,.61.61c0.12,0,0-.17.05-0.25a3.2,3.2,0,0,1,.5.08,0.9,0.9,0,0,0,.39.74c0.13,0-.18-0.17,0-0.25a0.58,0.58,0,0,1,.5.29,4.15,4.15,0,0,0,1.44-.12c-0.1-.19-0.46-0.18-0.55-0.37-0.11,0,0,.16-0.22.12a3.76,3.76,0,0,1-1.1-.86c-0.47,0-.89,0-0.94-0.33h0.28a1.73,1.73,0,0,1-.33-0.74,1.38,1.38,0,0,1,1,.41,0.73,0.73,0,0,0,.61-0.29c0.27,0,.13.26,0.17,0.41s0.25,0,.28.12a0.77,0.77,0,0,1,.05-0.2,0.32,0.32,0,0,1,.22.12,0.4,0.4,0,0,0,.11-0.16,0.66,0.66,0,0,1,.33.08c0.17-.08-0.24-0.06-0.17-0.21a0.43,0.43,0,0,1,.28,0c-0.63-.41-1.78-0.43-2.38-0.86a0.48,0.48,0,0,1,.28,0,0.6,0.6,0,0,0-.05-0.33c0.18,0,.06.23,0.16,0.29,0.15-.51-0.78-0.57-0.83-1.06,0.31,0,0-.05.05-0.17,0.42,0,.46-0.22.56,0.08,0.29-.32-0.22-0.65-0.11-0.94a1.5,1.5,0,0,1,.49.33,1.58,1.58,0,0,0-.05.57,0.56,0.56,0,0,1,.44,0,0.55,0.55,0,0,1,.5-0.16,1,1,0,0,0-.06.37h-0.28a1.05,1.05,0,0,0,.06.49c0.46-.16,1.2-0.16,1.16-0.61a0.66,0.66,0,0,1-.22.17c-0.23,0-.42-0.07-0.39-0.29l0.33,0.17c0.1-.08-0.18-0.22-0.33-0.25,0-.23-0.32-0.47.06-0.57-0.37-.15-1.14-0.22-0.94-0.65a1.33,1.33,0,0,1,.5.29c0.14,0-.07-0.16,0-0.29a4.34,4.34,0,0,1,.66.24c0-.23.09-0.43-0.22-0.41a0.86,0.86,0,0,0-.56-0.53,0.44,0.44,0,0,1,.5-0.32c0,0.15,0,0-.17,0C114.49,36.25,114.5,36.37,114.78,36.45Zm-2.54,8.7a0.28,0.28,0,0,0-.28-0.21A0.32,0.32,0,0,0,112.23,45.15Zm3.1-7.64a0.46,0.46,0,0,0,.22,0V37.43C115.42,37.42,115.34,37.44,115.33,37.51Zm0.16,0.37s0.15-.24-0.05-0.2C115.42,37.77,115.32,37.85,115.49,37.88Zm-0.66.29a0.26,0.26,0,0,0-.28-0.25A0.59,0.59,0,0,0,114.83,38.17Zm-1.66.73a1.2,1.2,0,0,1,.05-0.16,0.54,0.54,0,0,0-.17,0C113.05,38.8,113.05,38.89,113.17,38.9Zm1.71,0.69A0.51,0.51,0,0,0,115,39.1C114.77,39.22,114.3,39.55,114.89,39.59Zm-1.05.24c0.14,0,.27,0,0.28-0.08a1.92,1.92,0,0,0-.22-0.29c0,0.08-.09,0-0.11,0S113.8,39.74,113.83,39.84Zm0.28-.33a0.21,0.21,0,0,0,.22.2c0-.08.09-0.28-0.11-0.25C114.23,39.64,114.19,39.57,114.11,39.51ZM115.77,40a0.24,0.24,0,0,0,.28-0.29l-0.22-.08A1,1,0,0,0,115.77,40Zm-1-.08v0.29a0.61,0.61,0,0,0,.33,0c-0.08-.14,0-0.25-0.11-0.33A0.69,0.69,0,0,1,114.78,40Zm1.77,0.61c0.2,0,.44,0,0.44-0.16A0.35,0.35,0,0,0,116.54,40.57Zm0.06-.2a0.48,0.48,0,0,0-.55.12A0.38,0.38,0,0,0,116.6,40.37Zm-0.88,1.31a0.38,0.38,0,0,0,.38,0,0.28,0.28,0,0,0-.33-0.2A0.46,0.46,0,0,0,115.72,41.68Zm-0.94-.08a0.19,0.19,0,0,0,.05.16c0.16,0,.24-0.17.11-0.21S114.85,41.6,114.78,41.6Zm1.71,1.71c0-.08.3-0.15,0.17-0.2S116.29,43.22,116.49,43.31Zm-3.21.37c0.18,0,.44,0,0.22.12,0.41,0,.85.16,1.11,0.12-0.21-.24-0.52-0.86-1-0.53a0.78,0.78,0,0,0-.44-0.16A0.33,0.33,0,0,1,113.28,43.68ZM116.1,44a0.25,0.25,0,0,1,.17.29,1.75,1.75,0,0,1-.5.08,0.73,0.73,0,0,0,.22.29c0.2-.26.64,0.37,0.94,0-0.17-.09-0.46-0.1-0.39-0.37,0.24,0,.28-0.14.55-0.12-0.05-.24.18-0.27,0.27-0.41C116.85,44,116.44,43.61,116.1,44Zm-1.38.82c0.6,0,.18,0,0-0.2,0.21,0,.27,0,0.28-0.16a1.55,1.55,0,0,0-1-.12c0.2,0.11.25,0.43,0.55,0.25C114.56,44.7,114.76,44.67,114.72,44.82Zm-1.93-.24c0.08,0,.28,0,0.27,0a0.42,0.42,0,0,1-.16-0.12C112.89,44.5,112.74,44.47,112.78,44.58Zm4.75-.08a0.39,0.39,0,0,0,.55.16A0.4,0.4,0,0,0,117.54,44.5Zm-0.61.65a1.49,1.49,0,0,0,.88-0.13c-0.19,0-.32,0-0.28-0.16A0.84,0.84,0,0,0,116.93,45.15Zm-2.77.61a1.32,1.32,0,0,0,.11-0.16,0.35,0.35,0,0,0-.39-0.12A0.52,0.52,0,0,0,114.17,45.76Zm0.61,0.2a0.35,0.35,0,0,0-.33-0.37A0.38,0.38,0,0,0,114.78,46Zm0.83,0.12c0.12-.07,0-0.3-0.11-0.33A0.21,0.21,0,0,0,115.61,46.09Zm1,0.37c0,0.24.49,0.19,0.39-.08C116.88,46.39,116.81,46.45,116.66,46.46Zm-3.21.12a0.4,0.4,0,0,0,.28.08C113.75,46.53,113.49,46.43,113.45,46.58Zm2.27,0.57a0.51,0.51,0,0,0,.38-0.24C116,46.85,115.64,46.93,115.72,47.15Zm1.93,0c0.2,0.1.6-.06,0.44-0.2C118,47.05,117.65,46.85,117.65,47.11Zm0.89,0a0.31,0.31,0,0,0,.33-0.2h-0.28A0.62,0.62,0,0,1,118.54,47.15Zm-4.59.08a1.9,1.9,0,0,1,.5.32,0.23,0.23,0,0,0,.06-0.28,0.53,0.53,0,0,1-.28-0.08h0.33C114.54,46.89,114.07,47.15,113.94,47.24Zm0.94,1.19a1.54,1.54,0,0,0-1.27-.82A2.35,2.35,0,0,0,114.89,48.42Zm0.05-.57c0.09-.07,0-0.23-0.16-0.25S114.75,47.86,114.94,47.85Zm1.88,0.08a1.64,1.64,0,0,0-1.16,0v0.45a0.67,0.67,0,0,1,.28.12c0.53-.22,1.05-0.45,1.6-0.65a1.71,1.71,0,0,1,.06.33c0.48,0,.59-0.35,1-0.41A2.32,2.32,0,0,0,116.82,47.93Zm-4,.86a0.15,0.15,0,0,1,.11-0.08,0.78,0.78,0,0,0-.61-0.29A0.47,0.47,0,0,0,112.84,48.79Zm0.66,0c0-.24-0.38-0.26-0.5-0.2C113.18,48.64,113.31,48.74,113.5,48.79ZM116.27,49a0.68,0.68,0,0,0,.72-0.24A0.57,0.57,0,0,0,116.27,49Zm-4,.25a1,1,0,0,0-.39-0.12C111.82,49.35,112.22,49.44,112.28,49.28Zm-0.88.33a1.34,1.34,0,0,0,.5,0,0.52,0.52,0,0,0-.44-0.29A1.19,1.19,0,0,0,111.4,49.61Zm-0.83.13c0-.11.09-0.09,0-0.16S110.36,49.76,110.57,49.73Zm7.24,0.08a0.64,0.64,0,0,0,.61,0,0.34,0.34,0,0,1,0-.25A0.58,0.58,0,0,0,117.82,49.81Zm-0.55,1a0.41,0.41,0,0,0-.22-0.25c-0.12.12-.1-0.05-0.05-0.12C116.59,50.55,116.95,51,117.26,50.83Zm-4,.37c0.21,0,.33,0,0.33-0.16C113.41,51,113.29,51.07,113.28,51.2Zm4.09,0.53a0.22,0.22,0,0,0-.22-0.13c0,0.37.62,0.25,0.83,0.33a0.66,0.66,0,0,0-.5-0.37A0.45,0.45,0,0,1,117.37,51.73Zm-7.08.33c-0.17,0-.26-0.14-0.44-0.16C109.68,52,110.18,52.24,110.29,52.06Zm-0.89.16c0,0.39.73,0.23,0.61,0A4,4,0,0,0,109.41,52.22Zm2.66,0.29a2.26,2.26,0,0,0-.67,0c0,0.19.11,0.26,0.5,0.25a0.34,0.34,0,0,1,.33-0.2,0.17,0.17,0,0,0-.05-0.12,1,1,0,0,0,.33-0.08c-0.17-.05-0.44,0-0.61-0.08C111.76,52.41,112,52.43,112.07,52.51Zm7,0.25a1.26,1.26,0,0,0,1.27-.25,1.34,1.34,0,0,0-.28-0.16C119.84,52.59,119.2,52.5,119,52.75Zm-6.85,0c0,0.2.38,0.13,0.38,0A0.81,0.81,0,0,0,112.18,52.71Zm4.37,0.2c0.15,0,.14-0.09.16-0.16h-0.16v0.16Zm0.83,0.61c0.15-.15-0.18-0.23-0.22-0.36,0.12,0,.18,0,0.17-0.12a1.21,1.21,0,0,0-.55-0.12c0,0.1.2,0.18,0.06,0.2s0-.18-0.22-0.16v0.41a1.31,1.31,0,0,0,.66.24c0-.08-0.07-0.08-0.11-0.12S117.27,53.54,117.37,53.53Zm-7.46.41c0,0.21.37,0.06,0.44,0A1,1,0,0,0,109.91,53.94Zm0.67,0.53c0.2,0,.63.18,0.72,0-0.1,0-.28,0-0.22-0.08s0.25-.09.22-0.24H111A2.43,2.43,0,0,1,110.57,54.47Zm-1.11.29c0,0.2.66,0.14,0.78,0A2.15,2.15,0,0,0,109.46,54.76Z"/><path class="cls-4" d="M101.2,52.86s-0.42,12.26.19,13a0.82,0.82,0,0,0,1.38,0S103,54,102.5,53Z"/><path class="cls-4" d="M89.75,54.9s-0.25,7.2.11,7.61a0.48,0.48,0,0,0,.81,0s0.16-6.91-.16-7.52Z"/><path class="cls-4" d="M114.23,54.8s-0.24,7.19.11,7.61a0.48,0.48,0,0,0,.81,0s0.16-6.91-.16-7.51Z"/><path class="cls-5" d="M37,102.6V98.77l0.73-.07q0.62-.06,1.68-0.23a4.82,4.82,0,0,0,1.31-.33,1.63,1.63,0,0,0,.78-0.78,4.14,4.14,0,0,0,.24-1.54V66.37a4.46,4.46,0,0,0-.2-1.48,1.87,1.87,0,0,0-.86-0.83,6.17,6.17,0,0,0-1.47-.57c-0.69-.19-1.2-0.31-1.53-0.36L37,63V59.23h30.3V71.5H64.12L64,70.91a16.23,16.23,0,0,0-2.18-4.58A5.68,5.68,0,0,0,59,63.79a7.12,7.12,0,0,0-1.72-.22q-1.2,0-2,0H51.42V78h2.52a5.7,5.7,0,0,0,2-.33,3.54,3.54,0,0,0,1.52-1.21,7.18,7.18,0,0,0,.93-2.13,17.06,17.06,0,0,0,.67-2.83l0.09-.7h3.25v19H59.13L59,89.11a17.84,17.84,0,0,0-.67-3,8.66,8.66,0,0,0-.95-2.34A3.14,3.14,0,0,0,56,82.64a5.8,5.8,0,0,0-2.08-.34H51.42V93.53a15.55,15.55,0,0,0,.2,2.83,2.44,2.44,0,0,0,.59,1.28,2.14,2.14,0,0,0,1.14.52,15.65,15.65,0,0,0,2.56.16l1.9,0a12.54,12.54,0,0,0,1.84-.16,9.1,9.1,0,0,0,1.66-.41,1.77,1.77,0,0,0,.86-0.57,24.09,24.09,0,0,0,2.38-4.26,35.91,35.91,0,0,0,1.76-4.32L66.47,88h3.11L68.89,102.6H37Z"/><path class="cls-1" d="M66.46,60V70.69H64.73a17,17,0,0,0-2.28-4.81A6.36,6.36,0,0,0,59.23,63a7.86,7.86,0,0,0-1.9-.25q-1.22,0-2,0h-4.7v16.1h3.33a6.48,6.48,0,0,0,2.28-.38A4.31,4.31,0,0,0,58.09,77a8.11,8.11,0,0,0,1.06-2.38,17.75,17.75,0,0,0,.7-3h1.73V89H59.85a18.47,18.47,0,0,0-.7-3.1,9.67,9.67,0,0,0-1.06-2.58,3.94,3.94,0,0,0-1.78-1.46,6.56,6.56,0,0,0-2.37-.4H50.61v12a16.24,16.24,0,0,0,.22,3,3.2,3.2,0,0,0,.81,1.69,2.91,2.91,0,0,0,1.56.74,16.4,16.4,0,0,0,2.7.17l1.92,0a13.41,13.41,0,0,0,2-.18,9.82,9.82,0,0,0,1.79-.44,2.53,2.53,0,0,0,1.24-.85,24.71,24.71,0,0,0,2.46-4.4,36.3,36.3,0,0,0,1.8-4.43h1.67l-0.62,13H37.77V99.5q0.64-.06,1.73-0.23a5.68,5.68,0,0,0,1.55-.41,2.44,2.44,0,0,0,1.16-1.19,4.91,4.91,0,0,0,.3-1.84V66.37a5.21,5.21,0,0,0-.25-1.75,2.57,2.57,0,0,0-1.21-1.25,6.89,6.89,0,0,0-1.66-.65q-1.07-.29-1.62-0.38V60H66.46m1.61-1.61H36.16v5.28l1.36,0.22a14.86,14.86,0,0,1,1.45.34,5.28,5.28,0,0,1,1.27.48,1.35,1.35,0,0,1,.52.42,3.62,3.62,0,0,1,.15,1.2V95.82a3.32,3.32,0,0,1-.18,1.23,1,1,0,0,1-.44.39h0a5.22,5.22,0,0,1-1,.24c-0.69.11-1.24,0.19-1.62,0.22L36.16,98v5.38h33.5l0.07-1.53,0.62-13,0.08-1.69H65.87l-0.34,1.16a35.19,35.19,0,0,1-1.72,4.21,23.36,23.36,0,0,1-2.28,4.1A1,1,0,0,1,61,97a8.25,8.25,0,0,1-1.5.37,11.94,11.94,0,0,1-1.76.16l-1.88,0a15,15,0,0,1-2.42-.15,1.45,1.45,0,0,1-.71-0.3,1.76,1.76,0,0,1-.36-0.86,14.83,14.83,0,0,1-.18-2.67V83.1h1.72a5,5,0,0,1,1.79.29,2.36,2.36,0,0,1,1,.89,8,8,0,0,1,.83,2.11,17,17,0,0,1,.64,2.82l0.16,1.43h4.78V71.17l0.32,1.13h4.57V58.43h0Zm-15.85,5.9h3.09c0.5,0,1.14,0,2,0a6.22,6.22,0,0,1,1.5.18c0.42,0.12,1.22.54,2.34,2.22A16.61,16.61,0,0,1,62.8,70H58.43L58.25,71.4a16.27,16.27,0,0,1-.64,2.7,6.5,6.5,0,0,1-.8,1.88,2.77,2.77,0,0,1-1.16.95,4.92,4.92,0,0,1-1.72.28H52.22V64.33h0Z"/><path class="cls-5" d="M88.49,103.75a16.74,16.74,0,0,1-6.92-1.46,16,16,0,0,1-5.69-4.37,21,21,0,0,1-3.81-7.07A30.76,30.76,0,0,1,70.7,81.3,32,32,0,0,1,72,72a22.28,22.28,0,0,1,3.77-7.42,16.79,16.79,0,0,1,5.95-4.82,17.62,17.62,0,0,1,7.75-1.7,15.25,15.25,0,0,1,5.39.94,22.5,22.5,0,0,1,3.44,1.59l1.21-1.38h3.14l0.23,16.85H99.4l-0.15-.61c-1.12-4.45-2.48-7.79-4-9.93a6.47,6.47,0,0,0-5.46-3c-2.61,0-4.58,1.47-6,4.49s-2.3,7.64-2.3,13.29c0,6,.76,10.75,2.27,14.1,1.43,3.19,3.35,4.74,5.89,4.74a7.18,7.18,0,0,0,5.19-2.09V88.91a3.93,3.93,0,0,0-.24-1.47,2,2,0,0,0-.85-0.87,5.63,5.63,0,0,0-1.5-.59c-0.65-.17-1.2-0.29-1.65-0.37l-0.67-.11V81.72h18.42v3.81l-0.71.09c-0.44.05-.84,0.12-1.18,0.19a7.3,7.3,0,0,0-1.22.42,1.24,1.24,0,0,0-.78.78,5,5,0,0,0-.26,1.6v4.85q0,1.46,0,2.35T104.23,98v0.41l-0.33.25a25.2,25.2,0,0,1-7,3.45A25.92,25.92,0,0,1,88.49,103.75Z"/><path class="cls-1" d="M89.45,58.89a14.39,14.39,0,0,1,5.11.88,19.81,19.81,0,0,1,3.88,1.88L99.85,60h2L102,75.28h-2q-1.73-6.87-4.15-10.2a7.29,7.29,0,0,0-6.11-3.33q-4.38,0-6.76,4.95T80.62,80.33q0,9.22,2.34,14.43T89.59,100a7.88,7.88,0,0,0,3.57-.78,7.5,7.5,0,0,0,2.43-1.81V88.91a4.7,4.7,0,0,0-.3-1.78,2.71,2.71,0,0,0-1.19-1.25,6.41,6.41,0,0,0-1.71-.68q-1-.27-1.71-0.38v-2.3h16.81v2.3c-0.47.06-.89,0.13-1.25,0.21a7.92,7.92,0,0,0-1.37.47,2,2,0,0,0-1.23,1.27,5.8,5.8,0,0,0-.3,1.86v4.85q0,1.47,0,2.37t0.07,2.22a24.29,24.29,0,0,1-6.74,3.33,25,25,0,0,1-8.2,1.56,15.88,15.88,0,0,1-6.59-1.38,15.11,15.11,0,0,1-5.4-4.15,20.07,20.07,0,0,1-3.66-6.8,29.82,29.82,0,0,1-1.33-9.3,31.11,31.11,0,0,1,1.25-9,21.37,21.37,0,0,1,3.63-7.16A15.94,15.94,0,0,1,82,60.51a16.74,16.74,0,0,1,7.4-1.62m0-1.61a18.41,18.41,0,0,0-8.1,1.78,17.6,17.6,0,0,0-6.23,5,23.07,23.07,0,0,0-3.9,7.68,32.85,32.85,0,0,0-1.32,9.51,31.55,31.55,0,0,0,1.41,9.81,21.76,21.76,0,0,0,4,7.34,16.77,16.77,0,0,0,6,4.58,17.55,17.55,0,0,0,7.25,1.53,26.7,26.7,0,0,0,8.73-1.65,25.57,25.57,0,0,0,7.19-3.57l0.65-.5,0-.82q0-1.32-.07-2.21t0-2.33V88.61a4.22,4.22,0,0,1,.21-1.34,0.43,0.43,0,0,1,.31-0.29,6.44,6.44,0,0,1,1.1-.39c0.31-.07.68-0.13,1.11-0.18l1.41-.18V80.91h-20v5.26l1.34,0.23c0.42,0.07.95,0.19,1.58,0.35a4.87,4.87,0,0,1,1.28.5,1.29,1.29,0,0,1,.53.49A3.11,3.11,0,0,1,94,88.91v7.83a6.79,6.79,0,0,1-1.54,1,6.32,6.32,0,0,1-2.85.61c-2.18,0-3.87-1.39-5.16-4.26-1.46-3.25-2.2-7.89-2.2-13.77,0-5.52.75-9.87,2.22-12.94,1.74-3.62,3.86-4,5.31-4A5.72,5.72,0,0,1,94.57,66c1.48,2,2.79,5.3,3.89,9.65l0.31,1.22h4.89l0-1.63L103.44,60l0-1.59h-4.3L98.63,59l-0.54.61a24.92,24.92,0,0,0-3-1.33,16,16,0,0,0-5.67-1h0Z"/><path class="cls-5" d="M122.72,103.75a16.57,16.57,0,0,1-5.81-1,20,20,0,0,1-3.89-1.91l-1.35,1.77h-3.13l-0.33-16.71h3.38l0.17,0.57a44.36,44.36,0,0,0,1.66,4.46A22.18,22.18,0,0,0,115.71,95a12.59,12.59,0,0,0,2.93,3,5.86,5.86,0,0,0,3.55,1.09,5.07,5.07,0,0,0,4.14-1.67,6.54,6.54,0,0,0,1.46-4.41,5.33,5.33,0,0,0-1.21-3.59,10.4,10.4,0,0,0-4-2.65L119,85.36c-1.09-.46-2.13-0.94-3.07-1.41a11.66,11.66,0,0,1-5.2-5.16,16.07,16.07,0,0,1-1.67-7.35,14.47,14.47,0,0,1,.87-5,13.53,13.53,0,0,1,2.55-4.3,12.2,12.2,0,0,1,4.13-2.94,13.13,13.13,0,0,1,5.44-1.13,13.93,13.93,0,0,1,5.35,1,22.09,22.09,0,0,1,3.21,1.6l1.17-1.49H135l0.21,15.85h-3.38l-0.17-.58c-0.45-1.5-1-3.06-1.59-4.65A21.5,21.5,0,0,0,128.15,66a9,9,0,0,0-2.36-2.5,5,5,0,0,0-3-.88,4.28,4.28,0,0,0-3.42,1.52,5.72,5.72,0,0,0-1.36,3.92,5.27,5.27,0,0,0,1.16,3.58,10.43,10.43,0,0,0,3.93,2.58l3.44,1.47c1.17,0.49,2.24,1,3.17,1.44A12.63,12.63,0,0,1,135.12,82,14.74,14.74,0,0,1,137,89.63a15.34,15.34,0,0,1-1,5.54,13,13,0,0,1-2.83,4.49,13.62,13.62,0,0,1-4.48,3A15.26,15.26,0,0,1,122.72,103.75Z"/><path class="cls-1" d="M122.06,58.89a13.06,13.06,0,0,1,5,1,18.5,18.5,0,0,1,3.7,1.94L132.18,60h2l0.18,14.24h-2q-0.69-2.3-1.61-4.71a22.1,22.1,0,0,0-2-4,9.76,9.76,0,0,0-2.58-2.73,5.81,5.81,0,0,0-3.42-1,5.09,5.09,0,0,0-4,1.8,6.55,6.55,0,0,0-1.56,4.45,6.09,6.09,0,0,0,1.36,4.1,11.14,11.14,0,0,0,4.23,2.8l3.44,1.47q1.76,0.74,3.12,1.41a11.8,11.8,0,0,1,5,4.55,13.9,13.9,0,0,1,1.72,7.2,14.47,14.47,0,0,1-1,5.25,12.11,12.11,0,0,1-2.65,4.21,12.78,12.78,0,0,1-4.22,2.86,14.41,14.41,0,0,1-5.59,1,15.68,15.68,0,0,1-5.53-1,18.08,18.08,0,0,1-4.35-2.25l-1.57,2.06h-1.94L109,86.7h2a45,45,0,0,0,1.69,4.54,22.87,22.87,0,0,0,2.37,4.28,13.35,13.35,0,0,0,3.11,3.21,6.71,6.71,0,0,0,4,1.24,5.88,5.88,0,0,0,4.76-2,7.37,7.37,0,0,0,1.65-4.93A6.16,6.16,0,0,0,127.2,89a11.13,11.13,0,0,0-4.34-2.88l-3.52-1.48q-1.61-.68-3-1.39a10.82,10.82,0,0,1-4.84-4.8,15.2,15.2,0,0,1-1.59-7,13.59,13.59,0,0,1,.82-4.7,12.67,12.67,0,0,1,2.4-4.05A11.36,11.36,0,0,1,116.95,60a12.28,12.28,0,0,1,5.11-1.06m0-1.61a13.93,13.93,0,0,0-5.77,1.2,13,13,0,0,0-4.39,3.13,14.36,14.36,0,0,0-2.71,4.57,15.26,15.26,0,0,0-.92,5.25A16.86,16.86,0,0,0,110,79.16a12.44,12.44,0,0,0,5.54,5.5c1,0.49,2,1,3.13,1.44l3.53,1.48A9.65,9.65,0,0,1,126,90a4.56,4.56,0,0,1,1,3.07A5.77,5.77,0,0,1,125.72,97a4.32,4.32,0,0,1-3.53,1.39,5.09,5.09,0,0,1-3.08-.94,11.8,11.8,0,0,1-2.73-2.83,21.42,21.42,0,0,1-2.21-4,43.65,43.65,0,0,1-1.63-4.38l-0.35-1.14h-4.79l0,1.64,0.3,15.1,0,1.58h4.32l0.48-.63,0.66-.87a21.71,21.71,0,0,0,3.41,1.6,17.36,17.36,0,0,0,6.09,1.06,16.07,16.07,0,0,0,6.21-1.13,14.44,14.44,0,0,0,4.74-3.21,13.76,13.76,0,0,0,3-4.76,16.14,16.14,0,0,0,1.09-5.83,15.53,15.53,0,0,0-1.95-8,13.43,13.43,0,0,0-5.69-5.17c-1-.47-2-1-3.22-1.46l-3.42-1.46a9.7,9.7,0,0,1-3.64-2.37,4.5,4.5,0,0,1-1-3.05,5,5,0,0,1,1.17-3.4,3.48,3.48,0,0,1,2.81-1.24,4.21,4.21,0,0,1,2.5.73,8.21,8.21,0,0,1,2.15,2.29,20.63,20.63,0,0,1,1.8,3.69c0.6,1.56,1.13,3.1,1.57,4.59l0.34,1.15H136l0-1.63L135.78,60l0-1.59H131.4l-0.48.61-0.49.62a25,25,0,0,0-2.71-1.29,14.72,14.72,0,0,0-5.65-1.09h0Z"/><path class="cls-5" d="M156.42,103.75a16.07,16.07,0,0,1-7-1.57,16.53,16.53,0,0,1-5.68-4.54,21.53,21.53,0,0,1-3.7-7.12,32.38,32.38,0,0,1,0-18.46,23.51,23.51,0,0,1,3.82-7.43,17.17,17.17,0,0,1,5.86-4.83,16.23,16.23,0,0,1,7.34-1.72,14.37,14.37,0,0,1,5.2.91,19.87,19.87,0,0,1,3.3,1.61l1.19-1.37h3.14l0.23,16.85h-3.46l-0.15-.61c-1.11-4.53-2.44-7.89-4-10a6.23,6.23,0,0,0-5.18-2.94c-2.53,0-4.42,1.44-5.78,4.41-1.43,3.13-2.16,7.62-2.16,13.35a40.2,40.2,0,0,0,.74,8.33,19.38,19.38,0,0,0,1.91,5.44,8.11,8.11,0,0,0,2.83,3,6.94,6.94,0,0,0,3.58.94,7.44,7.44,0,0,0,5.15-2,19.47,19.47,0,0,0,4.35-6.5l0.42-.93,3.24,2.53-0.21.55a28.42,28.42,0,0,1-2.3,4.77,16.64,16.64,0,0,1-3,3.7,15,15,0,0,1-4.21,2.67A14.11,14.11,0,0,1,156.42,103.75Z"/><path class="cls-1" d="M157.06,58.89a13.52,13.52,0,0,1,4.9.85,17.84,17.84,0,0,1,3.74,1.91L167.12,60h2l0.21,15.24h-2q-1.71-7-4.1-10.26a7,7,0,0,0-5.83-3.27q-4.28,0-6.51,4.88t-2.23,13.69a40.77,40.77,0,0,0,.76,8.5,20,20,0,0,0,2,5.67,8.88,8.88,0,0,0,3.12,3.29,7.78,7.78,0,0,0,4,1,8.28,8.28,0,0,0,5.68-2.24,20.16,20.16,0,0,0,4.54-6.77l2,1.53A27.56,27.56,0,0,1,168.44,96a15.76,15.76,0,0,1-2.9,3.52,14.08,14.08,0,0,1-4,2.53,13.24,13.24,0,0,1-5.14.91,15.2,15.2,0,0,1-6.66-1.49,15.66,15.66,0,0,1-5.4-4.32,20.6,20.6,0,0,1-3.56-6.85,31.59,31.59,0,0,1,0-18,22.63,22.63,0,0,1,3.68-7.18,16.31,16.31,0,0,1,5.59-4.61,15.36,15.36,0,0,1,7-1.64m0-1.61a17,17,0,0,0-7.7,1.81,18,18,0,0,0-6.13,5.06,24.34,24.34,0,0,0-3.95,7.68,33.2,33.2,0,0,0,0,18.95,22.28,22.28,0,0,0,3.84,7.38,17.32,17.32,0,0,0,6,4.75,16.88,16.88,0,0,0,7.36,1.65,14.89,14.89,0,0,0,5.77-1,15.75,15.75,0,0,0,4.43-2.82,17.44,17.44,0,0,0,3.19-3.87,29.32,29.32,0,0,0,2.37-4.91l0.42-1.11-0.94-.73-2-1.53-1.61-1.26-0.84,1.87a18.71,18.71,0,0,1-4.15,6.23,6.66,6.66,0,0,1-4.61,1.82,6.15,6.15,0,0,1-3.18-.83,7.34,7.34,0,0,1-2.54-2.71,18.57,18.57,0,0,1-1.81-5.2,39.38,39.38,0,0,1-.73-8.16c0-5.62.7-10,2.09-13,1.61-3.53,3.65-3.94,5-3.94A5.48,5.48,0,0,1,161.9,66c1.46,2,2.75,5.26,3.84,9.7l0.3,1.23h4.9l0-1.63L170.71,60l0-1.59h-4.3L165.9,59l-0.51.59a21.78,21.78,0,0,0-2.85-1.33,15.18,15.18,0,0,0-5.48-1h0Z"/><path class="cls-1" d="M81.24,119.86v-0.33a1.81,1.81,0,0,0,.78-0.15,0.78,0.78,0,0,0,.36-0.75v-6.2a0.76,0.76,0,0,0-.37-0.75,1.92,1.92,0,0,0-.77-0.15v-0.33h7.37v2.58H88.3a2.77,2.77,0,0,0-.83-1.7,3.62,3.62,0,0,0-2.13-.46,1.44,1.44,0,0,0-.75.12,0.59,0.59,0,0,0-.16.48v3a2,2,0,0,0,1.48-.4,3.06,3.06,0,0,0,.59-1.5h0.33v4.32H86.51a2.74,2.74,0,0,0-.56-1.54,2,2,0,0,0-1.51-.45v3.1a0.64,0.64,0,0,0,.21.55,1.69,1.69,0,0,0,.86.15,3.78,3.78,0,0,0,2-.47,3.94,3.94,0,0,0,1.37-1.78h0.36l-0.52,2.66H81.24Z"/><path class="cls-1" d="M89.89,117.93h0.36a2,2,0,0,0,.7,1.3,1.75,1.75,0,0,0,1,.38,1,1,0,0,0,.73-0.22,0.77,0.77,0,0,0,.23-0.58,0.79,0.79,0,0,0-.25-0.59,1.8,1.8,0,0,0-.44-0.28l-1-.46a3,3,0,0,1-1.07-.8,1.61,1.61,0,0,1-.33-1,1.8,1.8,0,0,1,.52-1.28,1.92,1.92,0,0,1,1.45-.54,3.06,3.06,0,0,1,.86.13,3,3,0,0,0,.57.13,0.31,0.31,0,0,0,.22-0.07,0.51,0.51,0,0,0,.11-0.18h0.28v1.85H93.59a2.22,2.22,0,0,0-.59-1,1.35,1.35,0,0,0-1-.4,0.79,0.79,0,0,0-.63.24,0.76,0.76,0,0,0-.21.51,0.71,0.71,0,0,0,.19.45,2,2,0,0,0,.69.47l0.7,0.34a3.63,3.63,0,0,1,.95.61,1.67,1.67,0,0,1,.5,1.23,2,2,0,0,1-.52,1.33,1.9,1.9,0,0,1-1.55.62,2.6,2.6,0,0,1-.52-0.05,5.62,5.62,0,0,1-.64-0.18l-0.22-.08-0.15-.05H90.56a0.24,0.24,0,0,0-.18.08,1.31,1.31,0,0,0-.18.28H89.89v-2.12Z"/><path class="cls-1" d="M94.75,114.53v-0.36l0.42-.37q0.33-.31.63-0.63a10.64,10.64,0,0,0,1.06-1.37h0.32V114h1.22v0.56H97.17v3.85a1.12,1.12,0,0,0,.08.45,0.42,0.42,0,0,0,.41.28,0.55,0.55,0,0,0,.42-0.18,2.38,2.38,0,0,0,.34-0.49l0.31,0.15a2.89,2.89,0,0,1-.54.86,1.87,1.87,0,0,1-2.13.41,1.21,1.21,0,0,1-.65-1.18v-4.15H94.75Z"/><path class="cls-1" d="M99.6,118.2a1.09,1.09,0,1,1-.32.77A1,1,0,0,1,99.6,118.2Z"/><path class="cls-1" d="M106.06,119.56a2,2,0,0,0,1.25-.27,1.4,1.4,0,0,0,.27-1v-4.93a1.5,1.5,0,0,0-.11-0.68,0.42,0.42,0,0,0-.4-0.2,1.78,1.78,0,0,0-.48.11l-0.56.2v-0.32l3.23-1.39h0.22v7.29a1.46,1.46,0,0,0,.23.95,1.68,1.68,0,0,0,1.15.25v0.31h-4.8v-0.31Z"/><path class="cls-1" d="M112,119.72a4.78,4.78,0,0,0,1.73-.67,4.18,4.18,0,0,0,1.67-2.56l-0.06,0-0.42.12a3,3,0,0,1-.64.07,2.24,2.24,0,0,1-1.68-.69,2.6,2.6,0,0,1-.67-1.88,2.91,2.91,0,0,1,.82-2.18,2.7,2.7,0,0,1,1.95-.81,2.65,2.65,0,0,1,2.13,1,4,4,0,0,1,.83,2.63,4.78,4.78,0,0,1-1.9,4A6.59,6.59,0,0,1,112,120v-0.33Zm3.31-3.72a0.48,0.48,0,0,0,.22-0.1,1.85,1.85,0,0,0,.07-0.45,9.09,9.09,0,0,0,0-1q0-.62,0-1.12a6.5,6.5,0,0,0-.09-0.86,2.29,2.29,0,0,0-.21-0.67,0.7,0.7,0,0,0-.63-0.4,0.68,0.68,0,0,0-.65.44,3.25,3.25,0,0,0-.2,1.3,6.78,6.78,0,0,0,.26,2.17,0.92,0.92,0,0,0,.88.73A1.14,1.14,0,0,0,115.28,116Z"/><path class="cls-1" d="M118.77,111.22h5.32l-3,8.65h-1.21l2.5-6.8a0.17,0.17,0,0,0,0-.1H119.9a1.57,1.57,0,0,0-.88.19,1.72,1.72,0,0,0-.5.9h-0.31Z"/><path class="cls-1" d="M126.62,118.78a1.67,1.67,0,0,0,1,.63,1.08,1.08,0,0,0,1-.46,1.94,1.94,0,0,0,.3-1.06,2.15,2.15,0,0,0-.92-1.79,6.78,6.78,0,0,0-1.66-.79v-0.21a4.24,4.24,0,0,0,1.11-.52,1.39,1.39,0,0,0,.57-1.17,1.22,1.22,0,0,0-.38-1,1.51,1.51,0,0,0-2,.07,3.22,3.22,0,0,0-.53.67l-0.27-.15a3.58,3.58,0,0,1,.86-1.14,3,3,0,0,1,2.07-.8,2.27,2.27,0,0,1,1.42.46,1.62,1.62,0,0,1,.67,1.2,1.89,1.89,0,0,1-.23.95,1.75,1.75,0,0,1-.76.68v0.09a2.16,2.16,0,0,1,1.12.92,2.54,2.54,0,0,1,.36,1.3A3.06,3.06,0,0,1,129.3,119a4,4,0,0,1-2.8,1,2.73,2.73,0,0,1-1.37-.31,0.93,0.93,0,0,1-.55-0.83,0.83,0.83,0,0,1,.2-0.52,0.78,0.78,0,0,1,.65-0.25A1.73,1.73,0,0,1,126.62,118.78Z"/><path class="cls-5" d="M52.18,38.63l-0.3.47a3.9,3.9,0,0,0-1.41,0,2,2,0,0,0-1.16.48,3.2,3.2,0,0,0-.39.48l-0.36.54-0.82,1.27L51.12,44l0.58-.9A2.64,2.64,0,0,0,52,42.44a1.4,1.4,0,0,0,0-.7,1.85,1.85,0,0,0-.31-0.61,3.52,3.52,0,0,0-.5-0.59l0.3-.47,3.65,2.36-0.3.47a3.69,3.69,0,0,0-.77-0.23,2.15,2.15,0,0,0-.72-0.06,1.25,1.25,0,0,0-.62.28,2.64,2.64,0,0,0-.5.59l-0.58.9L54.2,46a3.15,3.15,0,0,0,.66.35,0.74,0.74,0,0,0,.5,0A1.06,1.06,0,0,0,55.79,46a6.74,6.74,0,0,0,.51-0.71l0.33-.52a5.48,5.48,0,0,0,.31-0.55,3.87,3.87,0,0,0,.22-0.54,0.85,0.85,0,0,0,0-.45A6,6,0,0,0,56.7,42a8,8,0,0,0-.61-1.09l0.29-.45L59,42.4l-5.3,8.19-0.48-.31q0.1-.18.25-0.5a2.17,2.17,0,0,0,.18-0.47,0.71,0.71,0,0,0,0-.48,1,1,0,0,0-.33-0.33l-6.18-4a1,1,0,0,0-.41-0.17,0.74,0.74,0,0,0-.47.16,2.63,2.63,0,0,0-.43.36l-0.36.39-0.48-.31,5-7.74Z"/><path class="cls-5" d="M67.33,33.49l-3.91,4.1L63,37.2a7.12,7.12,0,0,0,.54-0.77,0.58,0.58,0,0,0,.16-0.58l-0.1-.08-0.19-.09-2.18-.85-2.48,2.6c0.09,0.2.2,0.43,0.32,0.68l0.34,0.68a3.79,3.79,0,0,0,.32.53l0.17,0.2a0.49,0.49,0,0,0,.53,0,3.87,3.87,0,0,0,1-.69l0.42,0.4-2.94,3.09-0.42-.4a3.82,3.82,0,0,0,.32-0.45A1.46,1.46,0,0,0,59,41a1.85,1.85,0,0,0,0-.67,2.28,2.28,0,0,0-.2-0.67L57,35.58l-2-4.52L56,30l5.61,2.23q2.05,0.83,3.42,1.35a1.71,1.71,0,0,0,.46.1,1.57,1.57,0,0,0,.54-0.07,1.67,1.67,0,0,0,.46-0.22,3.42,3.42,0,0,0,.39-0.3Zm-6.82,1L56.74,33l1.71,3.67Z"/><path class="cls-5" d="M71.08,31.29a6.36,6.36,0,0,1-1.57.86,6.55,6.55,0,0,1-1.46.37l-0.1.71-0.5.37-2.3-3,0.51-.37a9.83,9.83,0,0,0,1.11.6,5.53,5.53,0,0,0,1.25.41,3.93,3.93,0,0,0,1.28.06,2.61,2.61,0,0,0,1.23-.51,2.18,2.18,0,0,0,.94-1.3,1.6,1.6,0,0,0-.3-1.31,1.34,1.34,0,0,0-1-.56,3.77,3.77,0,0,0-1.55.25l-1.13.37-1,.29a3.21,3.21,0,0,1-2,0,3.12,3.12,0,0,1-1.44-1.11,2.74,2.74,0,0,1-.48-1.1,3.13,3.13,0,0,1,0-1.27,3.77,3.77,0,0,1,.6-1.28,4.94,4.94,0,0,1,1.17-1.18,5.27,5.27,0,0,1,1.45-.76,6.7,6.7,0,0,1,1.25-.31l0.1-.62,0.51-.38,2.15,2.84-0.51.37q-0.52-.33-1.11-0.64a5.1,5.1,0,0,0-1.1-.44,2.86,2.86,0,0,0-1.07-.06A2.28,2.28,0,0,0,65,23a1.87,1.87,0,0,0-.78,1.13,1.44,1.44,0,0,0,.25,1.19,1.32,1.32,0,0,0,1,.57A3.77,3.77,0,0,0,67,25.64l1.11-.36,1-.31a3.62,3.62,0,0,1,2,0,3.06,3.06,0,0,1,2,2.37,3,3,0,0,1-.06,1.35A4.3,4.3,0,0,1,72.38,30,5.8,5.8,0,0,1,71.08,31.29Z"/><path class="cls-5" d="M80.55,17L80,17.27a6.43,6.43,0,0,0-1.29-1A1.6,1.6,0,0,0,77.55,16L77,16.2l-0.54.24-0.31.15,3.64,7.32a1.07,1.07,0,0,0,.29.38,0.68,0.68,0,0,0,.48.12,3.25,3.25,0,0,0,.53-0.11l0.59-.18,0.25,0.51-5.19,2.58L76.5,26.7,77,26.38a2.12,2.12,0,0,0,.43-0.32,0.69,0.69,0,0,0,.2-0.45,1.09,1.09,0,0,0-.12-0.46l-3.68-7.39-0.31.15L73,18.19l-0.49.3A1.6,1.6,0,0,0,72,19.64a6.44,6.44,0,0,0,0,1.61l-0.51.25-1.33-2.67,9-4.49Z"/><path class="cls-5" d="M102.71,15.4l-0.39.11a3.05,3.05,0,0,0-.42.18,0.59,0.59,0,0,0-.35.37,1.14,1.14,0,0,0,0,.47l0.16,1.2q0,0.36.09,0.59l0.1,0.55a8.89,8.89,0,0,1-2,1.11,10.09,10.09,0,0,1-2.56.74,6.39,6.39,0,0,1-2.15-.06,4.91,4.91,0,0,1-1.86-.8,4.78,4.78,0,0,1-1.39-1.53,5.92,5.92,0,0,1-.74-2.25,6.2,6.2,0,0,1,.1-2.29,5,5,0,0,1,.92-1.93,5.1,5.1,0,0,1,1.65-1.38,6.7,6.7,0,0,1,2.3-.72,5.84,5.84,0,0,1,1.66,0,7.34,7.34,0,0,1,1.3.3l0.4-.46,0.63-.09,0.58,3.76-0.64.09A6.81,6.81,0,0,0,98.35,11a2.57,2.57,0,0,0-2.06-.56,2.42,2.42,0,0,0-2,1.52,6.45,6.45,0,0,0-.3,3.48,7.24,7.24,0,0,0,1.23,3.47,2.34,2.34,0,0,0,2.28,1,3.14,3.14,0,0,0,1.11-.35A2.45,2.45,0,0,0,99.34,19l-0.28-2.1a1,1,0,0,0-.15-0.43,0.78,0.78,0,0,0-.42-0.26,2.42,2.42,0,0,0-.57-0.09l-0.56,0-0.08-.57,5.35-.72Z"/><path class="cls-5" d="M113.31,12.48l-0.56,0a3.9,3.9,0,0,0-.66-1.24,2,2,0,0,0-1-.78,3.26,3.26,0,0,0-.61-0.1l-0.65,0-1.51-.09-0.23,4,1.07,0.06a2.63,2.63,0,0,0,.74-0.05,1.39,1.39,0,0,0,.62-0.33,1.86,1.86,0,0,0,.37-0.57,3.53,3.53,0,0,0,.27-0.73l0.56,0L111.48,17l-0.56,0a3.73,3.73,0,0,0-.18-0.79,2.18,2.18,0,0,0-.3-0.66,1.26,1.26,0,0,0-.55-0.4,2.67,2.67,0,0,0-.76-0.14l-1.07-.06-0.17,3a3.18,3.18,0,0,0,0,.75,0.74,0.74,0,0,0,.24.44,1.06,1.06,0,0,0,.49.21,6.61,6.61,0,0,0,.86.09l0.61,0a5.59,5.59,0,0,0,.63,0,4,4,0,0,0,.58-0.08,0.85,0.85,0,0,0,.41-0.19,6,6,0,0,0,.85-1.05,8,8,0,0,0,.64-1.07l0.53,0-0.39,3.23-9.74-.57,0-.57,0.56,0a2.24,2.24,0,0,0,.5-0.07,0.71,0.71,0,0,0,.39-0.28,1,1,0,0,0,.12-0.45L105.69,11a1,1,0,0,0-.06-0.44,0.75,0.75,0,0,0-.37-0.33,2.61,2.61,0,0,0-.52-0.19l-0.51-.13,0-.57,9.21,0.54Z"/><path class="cls-5" d="M125.93,13.78a5.16,5.16,0,0,1,.75,2,5.47,5.47,0,0,1-.14,2.32,6.18,6.18,0,0,1-.91,2,5,5,0,0,1-1.51,1.44,5.38,5.38,0,0,1-2,.72,6.22,6.22,0,0,1-2.46-.19,6.12,6.12,0,0,1-2-.9,5.31,5.31,0,0,1-1.45-1.5,5.09,5.09,0,0,1-.74-1.95,5.39,5.39,0,0,1,.13-2.27,5.93,5.93,0,0,1,1-2.13,5.32,5.32,0,0,1,1.61-1.42,5.2,5.2,0,0,1,2-.63,6.43,6.43,0,0,1,4.26,1.1A5.41,5.41,0,0,1,125.93,13.78Zm-3.7,6.75a5.59,5.59,0,0,0,.84-1.35,11.37,11.37,0,0,0,.62-1.82,11.89,11.89,0,0,0,.32-1.74A5.62,5.62,0,0,0,124,14a2.89,2.89,0,0,0-.54-1.25,2,2,0,0,0-1.15-.72,2.18,2.18,0,0,0-2.27.71,7.55,7.55,0,0,0-1.56,3.28,10.87,10.87,0,0,0-.32,1.83,5.48,5.48,0,0,0,.08,1.59,2.74,2.74,0,0,0,.55,1.2,2.08,2.08,0,0,0,1.11.67,2.1,2.1,0,0,0,1.3,0A2.56,2.56,0,0,0,122.23,20.53Z"/><path class="cls-5" d="M136.69,28.79L133.11,27q-0.22-1.88-.41-3t-0.56-2.71l-0.36-.18-1.41,2.84a0.94,0.94,0,0,0-.11.45,0.75,0.75,0,0,0,.2.44,2.53,2.53,0,0,0,.34.3,4.94,4.94,0,0,0,.42.3l-0.26.51-5-2.47,0.25-.51,0.53,0.19a2.14,2.14,0,0,0,.49.13,0.71,0.71,0,0,0,.47-0.1,1,1,0,0,0,.29-0.37l3.27-6.59a1.07,1.07,0,0,0,.12-0.43,0.71,0.71,0,0,0-.21-0.45,3.18,3.18,0,0,0-.42-0.39l-0.41-.31,0.25-.51,5.23,2.6a5.83,5.83,0,0,1,2.39,1.87,2,2,0,0,1,.08,2.11A2.46,2.46,0,0,1,137,22a4.19,4.19,0,0,1-2.17.08L135.19,24q0.21,1.06.46,2.17c0.05,0.24.13,0.54,0.24,0.9a1.8,1.8,0,0,0,.39.77,3,3,0,0,0,.34.27l0.31,0.2Zm-1-9.17a1.87,1.87,0,0,0,.16-1.63,2.54,2.54,0,0,0-1.27-1.17L134,16.57l-1.94,3.91,0.5,0.25a2.33,2.33,0,0,0,1.75.24A2.38,2.38,0,0,0,135.66,19.63Z"/><path class="cls-5" d="M148.23,32.59l-0.35-.21a3,3,0,0,0-.42-0.18,0.59,0.59,0,0,0-.51,0,1.16,1.16,0,0,0-.36.31l-0.75,1-0.36.47-0.33.45a8.88,8.88,0,0,1-2.22-.68,10.1,10.1,0,0,1-2.31-1.32,6.37,6.37,0,0,1-1.45-1.58,4.92,4.92,0,0,1-.73-1.89,4.81,4.81,0,0,1,.12-2.06,5.92,5.92,0,0,1,1.1-2.09,6.16,6.16,0,0,1,1.71-1.53,5,5,0,0,1,2-.69,5.09,5.09,0,0,1,2.14.22,6.69,6.69,0,0,1,2.12,1.15,5.82,5.82,0,0,1,1.16,1.19,7.29,7.29,0,0,1,.69,1.14l0.61,0,0.5,0.39-2.3,3-0.51-.4a6.82,6.82,0,0,0,.52-2.83,2.57,2.57,0,0,0-1-1.87,2.42,2.42,0,0,0-2.47-.37,6.45,6.45,0,0,0-2.7,2.21,7.25,7.25,0,0,0-1.63,3.3,2.35,2.35,0,0,0,.87,2.34,3.16,3.16,0,0,0,1,.55,2.45,2.45,0,0,0,.89.13l1.3-1.67a0.94,0.94,0,0,0,.2-0.41,0.77,0.77,0,0,0-.11-0.48,2.43,2.43,0,0,0-.33-0.47L144,29.26l0.35-.45,4.25,3.33Z"/><path class="cls-5" d="M149.66,40.61l-3.92-4.23,0.42-.39,0.43,0.4a2,2,0,0,0,.43.33,0.7,0.7,0,0,0,.46.07,1,1,0,0,0,.4-0.24l5.42-5a1,1,0,0,0,.26-0.37,0.69,0.69,0,0,0,0-.48,3.28,3.28,0,0,0-.24-0.48q-0.18-.31-0.33-0.51l0.42-.39,3.92,4.23-0.42.39-0.42-.36a3,3,0,0,0-.46-0.33,0.6,0.6,0,0,0-.48-0.08,1.06,1.06,0,0,0-.4.24l-5.42,5a1,1,0,0,0-.26.38,0.72,0.72,0,0,0,0,.48,2.56,2.56,0,0,0,.25.46,5.45,5.45,0,0,0,.35.49Z"/><path class="cls-5" d="M156.69,50.56l-3.17-4.69,0.47-.32a7,7,0,0,0,.64.69,0.58,0.58,0,0,0,.53.28l0.1-.08a0.93,0.93,0,0,0,.13-0.16l1.29-1.95-2-3-0.74.17-0.74.19a3.8,3.8,0,0,0-.59.2l-0.23.12a0.49,0.49,0,0,0-.13.52,3.85,3.85,0,0,0,.46,1.11l-0.48.32-2.39-3.53,0.48-.32a3.92,3.92,0,0,0,.37.41,1.47,1.47,0,0,0,.41.3,1.86,1.86,0,0,0,.64.18,2.3,2.3,0,0,0,.7-0.05l4.38-.91,4.84-1,0.82,1.21q-2.13,3.17-3.38,5t-2,3.06a1.69,1.69,0,0,0-.2.42,1.57,1.57,0,0,0,0,.54,1.63,1.63,0,0,0,.12.49,3.47,3.47,0,0,0,.21.45Zm0.43-6.89,2.28-3.36-4,.88Z"/><path class="cls-5" d="M46.64,115.66a6.95,6.95,0,0,1-.63-3.29l-0.68-.26-0.27-.58,3.38-1.66,0.27,0.59a9.75,9.75,0,0,0-.8,1,5.49,5.49,0,0,0-.64,1.15,4,4,0,0,0-.3,1.27,2.75,2.75,0,0,0,.27,1.34,2.27,2.27,0,0,0,1.1,1.22,1.58,1.58,0,0,0,1.34,0,1.32,1.32,0,0,0,.74-0.85,3.89,3.89,0,0,0,.05-1.6l-0.15-1.21q-0.07-.55-0.1-1a3.28,3.28,0,0,1,.42-1.95,3.05,3.05,0,0,1,1.36-1.2,2.66,2.66,0,0,1,1.18-.24,3.11,3.11,0,0,1,1.25.3,3.91,3.91,0,0,1,1.15.87,5.2,5.2,0,0,1,.94,1.42A5.54,5.54,0,0,1,57,112.5a6.92,6.92,0,0,1,.07,1.31L57.66,114l0.27,0.59-3.2,1.53-0.27-.59q0.43-.44.84-1a5.05,5.05,0,0,0,.64-1,2.92,2.92,0,0,0,.26-1.06,2.38,2.38,0,0,0-.24-1.13,2,2,0,0,0-1-1,1.41,1.41,0,0,0-1.22,0,1.3,1.3,0,0,0-.74.83,3.92,3.92,0,0,0-.05,1.56q0.07,0.58.14,1.18t0.11,1.08a3.7,3.7,0,0,1-.34,2,3,3,0,0,1-2.72,1.51,3.05,3.05,0,0,1-1.32-.36,4.44,4.44,0,0,1-1.23-1A6.12,6.12,0,0,1,46.64,115.66Z"/><path class="cls-5" d="M61.7,125.46L61.36,125a6.31,6.31,0,0,0,.74-1.43,1.63,1.63,0,0,0,.12-1.25c-0.08-.14-0.18-0.31-0.3-0.51s-0.23-.37-0.33-0.51l-0.2-.29-6.66,4.71a1.05,1.05,0,0,0-.32.35,0.69,0.69,0,0,0,0,.5,3.5,3.5,0,0,0,.2.52q0.15,0.34.28,0.56l-0.47.33-3.43-4.86,0.47-.33,0.4,0.46a2.23,2.23,0,0,0,.39.38,0.7,0.7,0,0,0,.48.14,1.06,1.06,0,0,0,.44-0.19l6.72-4.75-0.2-.29q-0.15-.21-0.37-0.48l-0.38-.45a1.63,1.63,0,0,0-1.22-.3,6.33,6.33,0,0,0-1.6.22L55.74,117l2.43-1.72,6,8.44Z"/><path class="cls-5" d="M65.34,139.24l-4.21-4,0.39-.41a7.3,7.3,0,0,0,.79.55,0.6,0.6,0,0,0,.59.17l0.08-.1a0.92,0.92,0,0,0,.09-0.19l0.82-2.19-2.67-2.54-0.69.32-0.69.34a3.67,3.67,0,0,0-.53.31l-0.2.17a0.49,0.49,0,0,0,0,.54,4.06,4.06,0,0,0,.71,1l-0.39.41-3.17-3,0.39-.41a4.19,4.19,0,0,0,.46.33,1.56,1.56,0,0,0,.48.22,1.91,1.91,0,0,0,.68,0,2.29,2.29,0,0,0,.68-0.19l4.11-1.79,4.54-2,1.09,1q-1.36,3.58-2.17,5.64T65.2,137a1.66,1.66,0,0,0-.1.46,1.6,1.6,0,0,0,.08.54,1.73,1.73,0,0,0,.23.46,3.62,3.62,0,0,0,.31.4Zm-1.17-6.91,1.47-3.79-3.69,1.68Z"/><path class="cls-5" d="M78.92,139.07l-0.49-.31a6.39,6.39,0,0,0,.14-1.61,1.64,1.64,0,0,0-.36-1.2l-0.47-.36-0.5-.34-0.3-.19-4.38,6.88a1,1,0,0,0-.17.45,0.68,0.68,0,0,0,.15.47,3.44,3.44,0,0,0,.38.4q0.27,0.25.47,0.42l-0.31.48-5-3.19,0.31-.48,0.55,0.28a2.2,2.2,0,0,0,.51.2,0.69,0.69,0,0,0,.5-0.06,1,1,0,0,0,.33-0.34l4.42-6.94-0.3-.19-0.52-.31-0.53-.27a1.63,1.63,0,0,0-1.24.18,6.31,6.31,0,0,0-1.4.81l-0.49-.31,1.6-2.51,8.72,5.55Z"/><path class="cls-5" d="M88.3,142.51l-0.53-.21a3.87,3.87,0,0,0-.25-1.39,2,2,0,0,0-.72-1.06,3.44,3.44,0,0,0-.56-0.29l-0.61-.26-1.44-.57-1.49,3.72,1,0.41a2.8,2.8,0,0,0,.73.19,1.45,1.45,0,0,0,.71-0.11,1.86,1.86,0,0,0,.54-0.42,3.49,3.49,0,0,0,.49-0.6l0.53,0.21-1.61,4-0.53-.21a3.66,3.66,0,0,0,.07-0.8,2.13,2.13,0,0,0-.09-0.73,1.3,1.3,0,0,0-.41-0.55,2.84,2.84,0,0,0-.69-0.38l-1-.41-1.11,2.78a3.07,3.07,0,0,0-.21.72,0.74,0.74,0,0,0,.09.49,1.11,1.11,0,0,0,.41.36,7.13,7.13,0,0,0,.81.37L83,148a5.72,5.72,0,0,0,.62.2,4.17,4.17,0,0,0,.59.12,0.87,0.87,0,0,0,.46,0,6,6,0,0,0,1.16-.72,8.05,8.05,0,0,0,1-.8l0.51,0.2-1.39,2.93-9.29-3.71,0.21-.53,0.55,0.16a2.33,2.33,0,0,0,.51.09,0.72,0.72,0,0,0,.47-0.13,1,1,0,0,0,.26-0.39l2.72-6.81a1,1,0,0,0,.09-0.43,0.76,0.76,0,0,0-.25-0.44,2.8,2.8,0,0,0-.45-0.35l-0.46-.29,0.21-.53,8.78,3.5Z"/><path class="cls-5" d="M102.5,152.93a6.38,6.38,0,0,1-2.17-.49,5.17,5.17,0,0,1-1.72-1.17,4.87,4.87,0,0,1-1.08-1.77A6,6,0,0,1,97.8,145a5.23,5.23,0,0,1,3.22-2.76,6.41,6.41,0,0,1,2.32-.28,5.77,5.77,0,0,1,1.6.3,6.74,6.74,0,0,1,1.2.55l0.49-.38,0.65,0-0.15,3.79-0.66,0a6.6,6.6,0,0,0-1.21-2.63,2.57,2.57,0,0,0-1.87-.92,2.37,2.37,0,0,0-2.21,1.09,6.62,6.62,0,0,0-.93,3.36,7.81,7.81,0,0,0,.13,2.13,4.33,4.33,0,0,0,.58,1.45,2.66,2.66,0,0,0,1,.88,3.23,3.23,0,0,0,1.3.33,3.26,3.26,0,0,0,1.9-.45,5.23,5.23,0,0,0,1.59-1.6l0.62,0.42a6.28,6.28,0,0,1-.8,1.11,4.39,4.39,0,0,1-1,.82,5,5,0,0,1-1.35.56A5.61,5.61,0,0,1,102.5,152.93Z"/><path class="cls-5" d="M117.78,142.33a5.15,5.15,0,0,1,1.48,1.51A5.34,5.34,0,0,1,120,146a6,6,0,0,1-.08,2.2,5,5,0,0,1-.87,1.91,5.53,5.53,0,0,1-1.63,1.44,6.53,6.53,0,0,1-2.4.78,6.44,6.44,0,0,1-2.23-.06,5.46,5.46,0,0,1-2-.82,5.08,5.08,0,0,1-1.47-1.5,5.25,5.25,0,0,1-.77-2.13,5.78,5.78,0,0,1,.12-2.35,5.18,5.18,0,0,1,2.63-3.3,6.78,6.78,0,0,1,4.46-.65A5.59,5.59,0,0,1,117.78,142.33ZM116.91,150a5.46,5.46,0,0,0,.27-1.57,11,11,0,0,0-.12-1.91,11.46,11.46,0,0,0-.38-1.72,5.54,5.54,0,0,0-.66-1.45,2.89,2.89,0,0,0-1-.94,2.14,2.14,0,0,0-1.37-.21,2.24,2.24,0,0,0-1.87,1.54,7.34,7.34,0,0,0-.2,3.62,10.49,10.49,0,0,0,.41,1.8,5.38,5.38,0,0,0,.69,1.43,2.75,2.75,0,0,0,1,.89,2.17,2.17,0,0,0,1.32.18,2.21,2.21,0,0,0,1.21-.54A2.58,2.58,0,0,0,116.91,150Z"/><path class="cls-5" d="M131.48,144.06l0.91,3.21-9.26,3.28-0.19-.54,0.56-.27a2.52,2.52,0,0,0,.41-0.24,0.7,0.7,0,0,0,.26-0.4,0.92,0.92,0,0,0-.06-0.48l-2.45-6.92a1,1,0,0,0-.22-0.38,0.75,0.75,0,0,0-.48-0.16,2.58,2.58,0,0,0-.58,0l-0.52.09-0.19-.54,5.52-2,0.19,0.54-0.51.25a3.37,3.37,0,0,0-.5.3,0.62,0.62,0,0,0-.27.41,1,1,0,0,0,.06.46l2.28,6.45a3.37,3.37,0,0,0,.32.7,0.66,0.66,0,0,0,.38.3,1.17,1.17,0,0,0,.57,0,9.16,9.16,0,0,0,.92-0.28,9.69,9.69,0,0,0,1.08-.46,1.43,1.43,0,0,0,.67-0.56,5.1,5.1,0,0,0,.39-1.25,10.59,10.59,0,0,0,.19-1.39Z"/><path class="cls-5" d="M141.23,138.52l1.48,3-8.51,4.9-0.29-.5,0.5-.37a2.4,2.4,0,0,0,.36-0.31,0.69,0.69,0,0,0,.18-0.44,0.93,0.93,0,0,0-.14-0.46L131.15,138a1,1,0,0,0-.29-0.34,0.76,0.76,0,0,0-.5-0.07,2.6,2.6,0,0,0-.57.14l-0.5.18-0.29-.5,5.07-2.92,0.29,0.5-0.46.34a3.31,3.31,0,0,0-.44.38,0.61,0.61,0,0,0-.19.45,1,1,0,0,0,.14.45l3.41,5.93a3.41,3.41,0,0,0,.44.63,0.66,0.66,0,0,0,.43.22,1.17,1.17,0,0,0,.56-0.12,9.13,9.13,0,0,0,.86-0.45,9.79,9.79,0,0,0,1-.64,1.43,1.43,0,0,0,.55-0.67,5.14,5.14,0,0,0,.16-1.3,10.62,10.62,0,0,0-.06-1.4Z"/><path class="cls-5" d="M146.5,128.28l-0.43.37a3.87,3.87,0,0,0-1.35-.42,2,2,0,0,0-1.27.15,3.41,3.41,0,0,0-.52.36l-0.51.43-1.17,1,2.62,3,0.83-.72a2.77,2.77,0,0,0,.51-0.56,1.44,1.44,0,0,0,.23-0.68,1.83,1.83,0,0,0-.12-0.68,3.45,3.45,0,0,0-.31-0.71l0.43-.37,2.83,3.29-0.43.37a3.61,3.61,0,0,0-.68-0.44,2.12,2.12,0,0,0-.68-0.26,1.29,1.29,0,0,0-.68.11,2.77,2.77,0,0,0-.66.43l-0.83.72,2,2.27a3.07,3.07,0,0,0,.54.52,0.74,0.74,0,0,0,.48.15,1.1,1.1,0,0,0,.51-0.2,7,7,0,0,0,.7-0.55l0.47-.42a5.74,5.74,0,0,0,.46-0.46,4.11,4.11,0,0,0,.38-0.47,0.88,0.88,0,0,0,.17-0.43,6,6,0,0,0-.1-1.36,7.75,7.75,0,0,0-.27-1.22l0.42-.36,2,2.59-7.58,6.53-0.37-.43,0.39-.42a2.34,2.34,0,0,0,.32-0.41,0.73,0.73,0,0,0,.1-0.48,1,1,0,0,0-.22-0.41l-4.79-5.56a1,1,0,0,0-.35-0.28,0.76,0.76,0,0,0-.5,0,2.79,2.79,0,0,0-.52.24l-0.47.28-0.37-.43,7.17-6.17Z"/><path class="cls-5" d="M157.63,120l-0.21.36a3.14,3.14,0,0,0-.18.43,0.61,0.61,0,0,0,0,.51,1.13,1.13,0,0,0,.31.36l1,0.73,0.47,0.35,0.45,0.32a9.25,9.25,0,0,1-.69,2.27,10.64,10.64,0,0,1-1.33,2.38,6.72,6.72,0,0,1-1.59,1.52,5.07,5.07,0,0,1-1.9.79,4.78,4.78,0,0,1-2.08-.07,5.78,5.78,0,0,1-2.11-1.06,6,6,0,0,1-1.54-1.7,5,5,0,0,1-.69-2,5.26,5.26,0,0,1,.23-2.18,7.07,7.07,0,0,1,1.16-2.18,6.17,6.17,0,0,1,1.2-1.2,7.61,7.61,0,0,1,1.15-.73l0-.61,0.4-.52,3.06,2.25-0.4.52a6.75,6.75,0,0,0-2.85-.46,2.67,2.67,0,0,0-1.88,1.1,2.5,2.5,0,0,0-.37,2.52,6.29,6.29,0,0,0,2.22,2.69,7.06,7.06,0,0,0,3.32,1.57A2.42,2.42,0,0,0,157,127a3.32,3.32,0,0,0,.56-1.05,2.52,2.52,0,0,0,.13-0.91l-1.68-1.28a0.92,0.92,0,0,0-.41-0.19,0.79,0.79,0,0,0-.48.12,2.55,2.55,0,0,0-.48.34l-0.42.39-0.45-.35,3.37-4.4Z"/><path class="cls-5" d="M159,108.89l-0.24.52a3.88,3.88,0,0,0-1.4.17,2,2,0,0,0-1.1.65,3.34,3.34,0,0,0-.32.54l-0.29.6-0.66,1.4,3.63,1.71,0.47-1a2.77,2.77,0,0,0,.23-0.72,1.45,1.45,0,0,0-.07-0.71,1.85,1.85,0,0,0-.39-0.57,3.52,3.52,0,0,0-.57-0.52l0.24-.52,3.92,1.85-0.24.52a3.58,3.58,0,0,0-.8-0.12,2.15,2.15,0,0,0-.73,0,1.29,1.29,0,0,0-.58.38,2.8,2.8,0,0,0-.42.66l-0.47,1L161.9,116a3.07,3.07,0,0,0,.7.25,0.74,0.74,0,0,0,.49-0.06,1.11,1.11,0,0,0,.39-0.39,7.17,7.17,0,0,0,.42-0.79l0.26-.57a6.22,6.22,0,0,0,.24-0.6,4.28,4.28,0,0,0,.15-0.58,0.88,0.88,0,0,0,0-.46,6,6,0,0,0-.65-1.2,7.9,7.9,0,0,0-.74-1l0.23-.5,2.84,1.57-4.27,9-0.52-.24c0.05-.13.11-0.31,0.19-0.54a2.37,2.37,0,0,0,.12-0.51,0.72,0.72,0,0,0-.11-0.47,1,1,0,0,0-.37-0.28l-6.64-3.13a1,1,0,0,0-.43-0.11,0.76,0.76,0,0,0-.45.23,2.86,2.86,0,0,0-.38.43c-0.14.19-.25,0.34-0.31,0.44l-0.52-.24,4-8.55Z"/><path class="cls-1" d="M170.73,130.59a3.54,3.54,0,0,1,1.72.45,3.24,3.24,0,0,1,1.29,1.28,3.48,3.48,0,0,1,0,3.48,3.27,3.27,0,0,1-1.28,1.28,3.48,3.48,0,0,1-3.46,0,3.27,3.27,0,0,1-1.28-1.28,3.48,3.48,0,0,1,0-3.48A3.24,3.24,0,0,1,169,131,3.55,3.55,0,0,1,170.73,130.59Zm0,0.68a2.83,2.83,0,0,0-1.38.36,2.6,2.6,0,0,0-1,1,2.81,2.81,0,0,0,0,2.8,2.64,2.64,0,0,0,1,1,2.78,2.78,0,0,0,2.78,0,2.66,2.66,0,0,0,1-1,2.8,2.8,0,0,0,0-2.8,2.6,2.6,0,0,0-1-1A2.84,2.84,0,0,0,170.73,131.27Zm-1.57,4.66v-3.69h1.93a1.47,1.47,0,0,1,.58.15,0.93,0.93,0,0,1,.34.35,1,1,0,0,1,.14.53,1,1,0,0,1-.26.68,1.19,1.19,0,0,1-.73.35,0.9,0.9,0,0,1,.26.14,1.76,1.76,0,0,1,.25.28l0.27,0.45,0.44,0.74h-0.93l-0.31-.6a2.48,2.48,0,0,0-.52-0.76,0.82,0.82,0,0,0-.52-0.16h-0.2v1.52h-0.75Zm0.75-2.1h0.3a3.7,3.7,0,0,0,.81,0,0.48,0.48,0,0,0,.25-0.18,0.46,0.46,0,0,0,.09-0.28,0.45,0.45,0,0,0-.09-0.28,0.49,0.49,0,0,0-.25-0.17,3.57,3.57,0,0,0-.8-0.05h-0.3v1Z"/></svg>