<svg viewBox="0 0 713.99 457.21" xmlns="http://www.w3.org/2000/svg"><path d="m300.76 254.44h-8.18v-58.85l-6.21-2.59v35h-30.73v-122.65s10.46-74.88 96.78-81.41l2.29-22.24a3.38 3.38 0 0 1 2-1.63 2.09 2.09 0 0 1 2.62 2c0 1.31 2.94 21.58 2.94 21.58s80.11 3.27 95.15 77.49l1 5.89v90.53h-30.41l-7.84 2.29v29.75l-36.62 22.89v-36.63l17.65 5.55 9.16-21.91-27.53-7.5v-2.3h-39.57s8.5 3.92 10.14 7.19h5.6v25.83l-7.52-3.93s1.64 28.45-27.14 28.78c0 0-7.52 0-12.75-3.61v8.5l-11.12-11.11.33 13.08" fill="#00539b"/><path d="m345.23 219.09c0 13.56-8.71 24.56-19.46 24.56s-19.45-11-19.45-24.56 8.71-24.56 19.45-24.56 19.46 11 19.46 24.56z" fill="none" stroke="#fff" stroke-width="2.37"/><path d="m380.7 105.27v-1.23l15.69 3.19v61.3l-17.65-3.68v-59.1z" fill="#fff"/><path d="m283.43 225h-24.52v-121s13.4-70.29 92.85-76.83v1l-2.29 1v2s-12.42 1-16.67 25.83l-.33 1s-40.22 12.42-49 52v115" fill="#ffd200"/><path d="m330.84 62.19a52.41 52.41 0 0 1 -29.09 29.1l15 6.21v73.24l-10.13 2.94v10.46l-20.28 3.6s-.65-71.28 0-77.49 14.75-38.25 44.5-48.06" fill="#fff"/><path d="m384.79 62.19s33.68 12.1 42.51 47.09l.33 3.27v80.45l-17-4.91v-12.77l-9.82-2.94v-74.88l9.82-3.6v-2.61l2.29-.65s-14.06-1.31-28.13-28.45" fill="#fff"/><path d="m362.55 27.2.33 1.31 2 .33.33 2.61s10.46 4.91 12.42 15.36l4.58 10.79s36.26 12.3 47.08 46.1c2.61 8.17 1.63 8.5 1.63 8.5v82.4h24.53v-88.6s-7.85-70-92.87-78.8" fill="#ffd200"/><path d="m322.34 106.33v2.29l16.02-2.95v-2.29z" fill="#fff"/><path d="m322.34 111.56v2.29l16.02-2.95v-2.28z" fill="#fff"/><path d="m322.34 116.79v2.29l16.02-2.94v-2.29z" fill="#fff"/><path d="m322.34 121.05v2.28l16.02-2.95v-2.28z" fill="#fff"/><path d="m322.34 125.62v2.29l16.02-2.94v-2.3z" fill="#fff"/><path d="m322.34 130.19v2.29l16.02-2.94v-2.28z" fill="#fff"/><path d="m322.34 134.77v2.29l16.02-2.94v-2.29z" fill="#fff"/><path d="m322.34 139.35v2.29l16.02-2.94v-2.29z" fill="#fff"/><path d="m322.34 143.93v2.29l16.02-2.95v-2.28z" fill="#fff"/><path d="m322.34 148.51v2.29l16.02-2.94v-2.3z" fill="#fff"/><path d="m322.34 153.09v2.29l16.02-2.95v-2.29z" fill="#fff"/><path d="m322.34 157.67v2.28l16.02-2.95v-2.28z" fill="#fff"/><path d="m322.34 163.22v2.29l16.02-2.94v-2.29z" fill="#fff"/><path d="m337.7 100.44-14.38 2.62s.66-5.23 2.61-5.89l.33 3.27 11.36-2.12z" fill="#fff"/><path d="m349.15 102.08h23.21s-.65-8.83-11.11-8.83-12.1 8.83-12.1 8.83" fill="#fff"/><path d="m380.54 102.41 15.36 2.94s1.39-6.23-3.92-7.85c-7-2.13-11.77 2.94-11.44 4.91" fill="#fff"/><path d="m348.83 103.06h22.88v2.29h2.94v58.52h-2.94v1.64h-23.54v-62.45" fill="#fff"/><path d="m341.63 168.78v1.63h33.35l-5.23 2.94h-28.12v1.64h22.23l-7.52 2.61h-14.71v2.62h39.56v-11.76z" fill="#fff"/><path d="m341.63 168.78v1.63h33.35l-5.23 2.94h-28.12v1.64h22.23l-7.52 2.61h-14.71v2.62h39.56v-11.76z" fill="none" stroke="#fff" stroke-width=".2"/><path d="m383.15 169.11v2.28l25.18 6.87v-2.29z" fill="#fff"/><path d="m383.15 169.11v2.28l25.18 6.87v-2.29z" fill="none" stroke="#fff" stroke-width=".2"/><path d="m383.15 174v1.97l25.18 7.19v-2.29z" fill="#fff"/><path d="m383.15 174v1.97l25.18 7.19v-2.29z" fill="none" stroke="#fff" stroke-width=".2"/><path d="m383.48 178.59v1.63l24.85 6.54v-1.47z" fill="#fff"/><path d="m383.48 178.59v1.63l24.85 6.54v-1.47z" fill="none" stroke="#fff" stroke-width=".2"/><path d="m309.59 174.99v1.96l29.75-5.88v-2.29z" fill="#fff"/><path d="m309.59 174.99v1.96l29.75-5.88v-2.29z" fill="none" stroke="#fff" stroke-width=".2"/><path d="m309.59 179.24v1.31l29.75-5.23v-2.29z" fill="#fff"/><path d="m309.59 179.24v1.31l29.75-5.23v-2.29z" fill="none" stroke="#fff" stroke-width=".2"/><path d="m309.59 183.49v1.31l29.75-5.23v-1.64z" fill="#fff"/><path d="m309.59 183.49v1.31l29.75-5.23v-1.64z" fill="none" stroke="#fff" stroke-width=".2"/><path d="m288.01 191.99 5.56 2.29 7.85-4.58z" fill="#fff"/><path d="m341.31 181.53v2.29h42.5l42.51 12.42v-2.29l-42.18-12.42z" fill="#fff"/><path d="m342 219.15c0 12.11-7.28 21.93-16.26 21.93s-16.27-9.82-16.27-21.93 7.28-21.92 16.27-21.92 16.26 9.77 16.26 21.92" fill="#fff"/><path d="m360.34 33.41s-11.77 10.79-11.77 18.15-1.47 27.44-4.41 28.44h21.58l35.81 7.37s-17.66-17.66-21.1-27.47-6-14.22-6-14.22-3.24-10-14.1-12.26" fill="#fff"/><g fill="#00539b"><path d="m314.6 226.49c0 1-.51 1.78-1.13 1.78s-1.13-.8-1.13-1.78.52-1.79 1.13-1.79 1.13.8 1.13 1.79"/><path d="m337.5 226.49c0 1-.5 1.78-1.13 1.78s-1.13-.8-1.13-1.78.51-1.79 1.13-1.79 1.13.8 1.13 1.79"/><path d="m313.59 216.68c0 1-.51 1.79-1.14 1.79s-1.13-.81-1.13-1.79.51-1.79 1.13-1.79 1.14.8 1.14 1.79"/><path d="m339.83 216.68c0 1-.51 1.79-1.13 1.79s-1.13-.81-1.13-1.79.5-1.79 1.13-1.79 1.13.8 1.13 1.79"/><path d="m337.25 209.44c0 1-.51 1.79-1.13 1.79s-1.13-.8-1.13-1.79.5-1.79 1.13-1.79 1.13.8 1.13 1.79"/><path d="m316.24 209.44c0 1-.51 1.79-1.13 1.79s-1.13-.8-1.13-1.79.51-1.79 1.13-1.79 1.13.8 1.13 1.79"/><path d="m319.85 204.07c0 1-.51 1.79-1.14 1.79s-1.13-.8-1.13-1.79.51-1.79 1.13-1.79 1.14.8 1.14 1.79"/><path d="m332.31 204.07c0 1-.51 1.79-1.13 1.79s-1.13-.8-1.13-1.79.51-1.79 1.13-1.79 1.13.8 1.13 1.79"/><path d="m326.2 202c0 1-.5 1.79-1.13 1.79s-1.14-.8-1.14-1.79.51-1.79 1.14-1.79 1.13.8 1.13 1.79"/><path d="m326 236.3c0 1-.51 1.79-1.13 1.79s-1.12-.8-1.12-1.79.51-1.79 1.13-1.79 1.13.8 1.13 1.79"/><path d="m319.14 232.8c0 1-.5 1.79-1.13 1.79s-1.14-.8-1.14-1.79.52-1.8 1.13-1.8 1.13.8 1.13 1.78"/><path d="m333 232.8c0 1-.51 1.79-1.13 1.79s-1.13-.8-1.13-1.79.5-1.78 1.13-1.78 1.13.8 1.13 1.78"/><path d="m323.19 216.84a3.42 3.42 0 0 1 2.74.09c1.22.72 9.26 7.41 9.26 7.41v.93l-.88.12-8.89-6.77-.25 15-.42.5-.59-.46-1-16.85"/><path d="m371.3 105.67h-21.42v-1.96h21.42z"/><path d="m371.3 110.25h-21.42v-1.96h21.42z"/><path d="m371.3 114.83h-21.42v-1.97h21.42z"/><path d="m371.3 119.41h-21.42v-1.97h21.42z"/><path d="m371.3 123.98h-21.42v-1.96h21.42z"/><path d="m371.3 128.56h-21.42v-1.96h21.42z"/><path d="m371.3 133.14h-21.42v-1.96h21.42z"/><path d="m371.3 137.71h-21.42v-1.95h21.42z"/><path d="m371.3 142.29h-21.42v-1.95h21.42z"/><path d="m371.3 146.87h-21.42v-1.96h21.42z"/><path d="m371.3 151.45h-21.42v-1.96h21.42z"/><path d="m371.3 156.03h-21.42v-1.96h21.42z"/><path d="m371.3 160.6h-21.42v-1.95h21.42z"/><path d="m371.3 165.19h-21.42v-1.96h21.42z"/><path d="m382.25 105.67 13.16 2.46v1.71l-13.16-2.29z"/><path d="m382.25 110.74 13.16 2.45v1.72l-13.16-2.29z"/><path d="m382.25 115.81 13.16 2.45v1.71l-13.16-2.28z"/><path d="m382.25 120.55 13.16 2.45v1.72l-13.16-2.29z"/><path d="m382.25 125.04 13.16 2.46v1.72l-13.16-2.29z"/><path d="m382.25 129.54 13.16 2.45v1.72l-13.16-2.29z"/><path d="m382.25 134.04 13.16 2.45v1.72l-13.16-2.3z"/><path d="m382.25 138.53 13.16 2.46v1.71l-13.16-2.29z"/><path d="m382.25 143.03 13.16 2.45v1.71l-13.16-2.28z"/><path d="m382.25 147.69 13.16 2.45v1.72l-13.16-2.29z"/><path d="m382.25 152.76 13.16 2.45v1.72l-13.16-2.29z"/><path d="m382.25 157.83 13.16 2.45v1.71l-13.16-2.29z"/><path d="m382.25 162.9 13.16 2.44v1.72l-13.16-2.29z"/><path d="m359.36 38.81s4.64 21.09 4.64 24.52a11.73 11.73 0 0 0 1.6 5.88l4.4 7.36s-3.31-7.85-3.81-12.26-2.33-12.75-2.33-12.75-3.06-11.77-4.53-12.75"/><path d="m367.7 44.21s7.11 12.63 8.09 16.55 4.05 11.89 4.05 11.89 2.09 3.43 3.55 3.92-.61.49-2.69-1.1c-2.5-1.91-4.66-9.69-4.66-9.69z"/><path d="m352.5 99.07v1.29h17.65s.25-4.41-7.11-6.14v1s4.78 2 5 3.25-15.57.61-15.57.61"/><path d="m381.62 100.91a8.39 8.39 0 0 0 -.12.92c0 .25 13.61 2.52 13.61 2.52s.86-4-2.39-5.52-.67 0-.67 0 2.26 2.2 1.84 3.92l-12.14-2.21-.12.37"/><path d="m352.5 99.07 15.69-.31v.43l-14.34.49-1.54-.67"/><path d="m395 43.38a3.76 3.76 0 0 0 -1-.21.41.41 0 0 1 -.38-.55.58.58 0 0 1 .73-.26s1.72.35 2.21.39a7.25 7.25 0 0 0 1.89 0 .46.46 0 0 1 .44.3c.06.25-.56.81-1.15 1.91l-4.15 7.77c-.56 1.05-.08 1.7.71 2.26.46.3.54.46.39.75s-.29.26-.63.08-1.66-1.13-2.58-1.62-2.19-.93-2.57-1.12-.36-.41-.28-.58.28-.27.83-.08a1.44 1.44 0 0 0 1.88-.87l3.72-7c.4-.75.24-1 0-1.17"/><path d="m406.17 58.39c-1.36 2.13-4 2.68-6.57 1-1.81-1.16-3.07-3.59-1.68-5.76.86-1.33 2.15-1.64 4-1.49-.68-1.41-.89-2.4-.12-3.6 1.12-1.75 3.53-2.07 5.59-.75 2.26 1.44 2.77 3.6 1.93 4.9s-1.9 1.52-3.55 1.27c.82 1.54 1.37 3 .45 4.4zm-5.74.16a2.37 2.37 0 0 0 3.57-.55c.9-1.4.12-2.69-1.51-4.74a3.31 3.31 0 0 0 -2.77 1.43 2.63 2.63 0 0 0 .75 3.9zm4.06-6.3c.34.46.39.57.88.62a2.33 2.33 0 0 0 2.22-1 2.24 2.24 0 0 0 -.87-3.1 2.19 2.19 0 0 0 -3 .56c-.52.83.07 1.93.8 2.93"/><path d="m408.81 64.62c-.25-.18-1-.93-1.29-1.12s-.53 0-.65-.28 0-.3.18-.73a4.05 4.05 0 0 0 .29-.72l.09-.45c.14-.58.11-.89.34-1a.48.48 0 0 1 .44.06c.17.12.19.35.16.91a2.42 2.42 0 0 0 1 2.36c1.17.87 3.25.75 5.33-1.88a4.28 4.28 0 0 1 -2.82-.82 4.1 4.1 0 0 1 -.85-5.85 4.63 4.63 0 0 1 6.69-1.23c2.12 1.56 2.83 4.26.26 7.74-3 4.12-6.85 4.72-9.14 3zm8.19-9.75c-1.22-.9-2.75-.14-3.85 1.35s-1.37 3.16-.15 4.07 2.74.14 3.84-1.35 1.4-3.15.16-4.07"/><path d="m429.49 64.86a6.19 6.19 0 0 1 -1 .48c-.46 0-.42 0-1.75-1.08l-2.34-1.94a.17.17 0 0 0 -.27 0s-.39.56-.68.91-.82.89-.82.89a6.57 6.57 0 0 1 1.82 1.09c2.2 1.82 2.5 4.28.92 6.17a5 5 0 0 1 -7.32.86 15.1 15.1 0 0 1 -1.5-1.62 4.88 4.88 0 0 0 -.88-.44c-.19-.16-.28-.39-.11-.59a6.68 6.68 0 0 0 1.44-2.29.37.37 0 0 1 .49-.19c.55.18.11.89 0 1.4a2.59 2.59 0 0 0 1.07 2.69 3 3 0 0 0 4.47-.44c1.39-1.67.94-3.27-.53-4.5-1.69-1.4-2.47-.49-2.81-1s0-.51.79-1.1a13.66 13.66 0 0 0 2.23-2.32 14.3 14.3 0 0 0 .88-1.19c.46-.55.48-.88.77-.87s.36.31 1.08.9l2.37 2a5.18 5.18 0 0 0 2.48 1.26.31.31 0 0 1 .08.42c-.12.26-.51.37-.91.52"/><path d="m277.83 76.69c.33-.51.11-.89.26-1.13.28-.43.58-.13 1 .11a10.69 10.69 0 0 0 1.06.55 7.09 7.09 0 0 0 1.31.49c.26.1.62.14.65.4a.39.39 0 0 1 -.14.42c-.24.21-.57.11-1.2 0a3.43 3.43 0 0 0 -3.59 1.52 2.19 2.19 0 0 0 .44 3.25c1.12.68 2 .46 3.8-.81l1-.67c2.21-1.57 3.93-1.53 5.32-.68 2.36 1.45 2.74 3.94 1.11 6.44-.49.75-2 2.21-2.32 2.64-.15.22 0 .75-.2 1s-.44.29-.83 0a8 8 0 0 0 -1.35-.83 12.82 12.82 0 0 0 -1.27-.56c-.64-.27-1-.3-1-.64a.41.41 0 0 1 .15-.38c.27-.18.81.06 1.54.2a3.77 3.77 0 0 0 4-1.58c1-1.52.81-3.11-.59-4-1-.61-1.76-.57-3.77.84l-.82.58c-1.9 1.34-3.6 2-5.47.81s-2.62-3.36-1-5.85a28.91 28.91 0 0 1 1.91-2.21"/><path d="m295.08 76.29c.4-.41.6-.48.87-.26s.22.35 0 .67-1.29 1.24-2 2.1-1.15 1.78-1.45 2.14-.5.3-.67.17-.23-.33.06-.86.24-1-.81-1.83l-7.24-5.5c-1-.78-1.58-.72-2.31 0-.41.41-.61.46-.87.26s-.23-.35 0-.67 1.3-1.24 2-2.1 1.16-1.8 1.45-2.15.51-.29.67-.16.25.32 0 .85-.25 1 .8 1.83l7.24 5.5c1 .78 1.57.7 2.32 0"/><path d="m306.72 66.26c-.25.24-.65.34-1.46.28l-13.75-.81 5.6 5.48c.8.79 1.32.89 2.65 0 .51-.32.66-.37.91-.13s.17.35-.12.63-.95.6-1.91 1.51c-.73.7-1.33 1.59-1.67 1.92s-.53.22-.68.08-.16-.47.16-.85c.68-.78.69-1.31-.27-2.25l-6.31-6.12a1.74 1.74 0 0 0 -2.58-.25c-.47.31-.64.38-.87.15s-.21-.37.09-.66.79-.59 1.23-1c.25-.24.53-.69.76-.9.4-.38.52-.15 2.3-.06l12.6.64-5.69-5.57c-.83-.81-1.61-.85-2.76.08-.41.31-.65.37-.89.14s-.18-.38.12-.66 1.51-1.14 2-1.6 1-1.24 1.29-1.56.53-.24.67-.1.1.44-.15.86-.3 1 .64 1.89l7.81 7.6c.56.55.57.93.27 1.22"/><path d="m309.14 46.9c.5-.34.54-.92.81-1.1a.44.44 0 0 1 .57.08 13.18 13.18 0 0 0 1.28 1.12c.51.39 1.52 1 1.52 1a.43.43 0 0 1 .18.52.41.41 0 0 1 -.54.17c-2.24-.73-4-.89-5.9.38-2.11 1.43-2.8 4.62-.36 8a5.6 5.6 0 0 0 7.76 1.71 5.84 5.84 0 0 0 2.22-5.22c0-.55.21-.84.55-.79s.35.2.45.41a6.7 6.7 0 0 1 -2.68 7.12 7.62 7.62 0 0 1 -10.52-1.57c-2.54-3.51-2.08-7.86 1.68-10.41a16.33 16.33 0 0 1 3-1.42"/><path d="m321.21 56c-.36.17-.59 0-.68-.13s-.06-.4.44-.75.69-.81.11-2l-4-8c-.56-1.14-1.09-1.31-2.09-1-.55.19-.76.15-.9-.14s0-.42.33-.59c.53-.25 1.72-.66 2.74-1.14l4.36-2c1.63-.81 1.17-.84 1.66-1.07.26-.12.61.17.93.47 0 0 .61.61 1 1s.88.74.88.74c.25.22.23.54 0 .65-.4.18-.57-.05-1.63-.57-.82-.38-1.7-.27-3.19.43l-1.42.66c-.57.27-.65.46-.45.87l1.27 2.56c.21.42.4.47.89.24l1.55-.72c1.12-.52 1.25-.77 1-1.71-.12-.42-.05-.56.17-.67s.39-.07.61.3a13.23 13.23 0 0 0 .9 1.52 21.39 21.39 0 0 0 1.31 1.61c.09.14.27.46 0 .61s-.33.09-.67-.12c-1.42-.94-1.6-1-2.81-.4l-1.46.68c-.5.23-.57.4-.35.82l1.72 3.46c.68 1.35 1.11 1.52 2.66.79a11.33 11.33 0 0 0 2.9-1.79c.51-.51.6-.84.86-2.05a.5.5 0 0 1 .52-.45.45.45 0 0 1 .4.33v1.51c0 .69.1 1.31.06 1.48s-.12.39-.53.58-1 .35-1.22.43c0 0-4.16 1.57-5.54 2.21-1 .49-1.84 1.11-2.27 1.32"/><path d="m432.05 226.28v1.46h-3.51v10h-1.72v-10h-3.48v-1.46zm11.08 11.45-.46-6.9c-.06-.89 0-2 0-3.11h-.09c-.29 1.06-.63 2.27-1 3.27l-2.39 6.59h-1.32l-2.33-6.76c-.29-.92-.58-2-.84-3.11h-.09c0 1.09 0 2.07-.06 3.11l-.43 6.9h-1.67l.89-11.45h2.27l2.24 6.21c.29.86.52 1.81.8 2.88h.06c.26-1.06.52-2.07.81-2.91l2.24-6.18h2.24l.86 11.45z"/><path d="m116.26 307c0 6.58 2.78 7.69 8.35 7.69.28 0 .46.28.46.65v2.41c0 .37-.18.65-.92.65-2.87 0-7-.46-12.8-.46-4.81 0-9.73.46-14.55.46-1 0-1.48-.19-1.48-.83v-2c0-.65.09-.92.56-.92 3.52 0 8.06-.93 8.06-8v-40.6c0-6.86-.56-9.46-7-9.46-1.21 0-1.58 0-1.58-.56v-2c0-.65.18-1.11 1-1.11 6 0 12.15.46 18.18.46 10.47 0 20.85-.46 31.32-.46.65 0 .84.37.84.74 0 1.2-.19 4.18-.19 6.4s.19 4.35.19 6.49c0 .83-.37 1-.93 1h-1.86c-.55 0-.74-.92-.92-1.58-1.11-3.25-2.69-7.32-5.56-8a66.29 66.29 0 0 0 -11.86-.93c-4.73 0-9.27 0-9.27 5.47v18.72h11.87c6.58 0 8.89-.09 9.82-5 .18-1.2.27-2.13.92-2.13h2c.37 0 .74.27.74.93 0 1.48-.47 3.8-.47 9.45 0 2.78.47 5.66.47 8.25 0 .83-.09 1.3-.84 1.3h-1.81c-.46 0-.93-.09-1-.37-1.49-5.65-2.6-8.25-9.18-8.25h-12.56z"/><path d="m177.21 271.41c14.14 0 26.15 9.08 26.15 22.84 0 15.57-12.4 25-27.46 25-13.24 0-24.46-9.08-24.46-23.29.01-14.62 11.62-24.55 25.77-24.55zm1 44.64c10.25 0 15.7-8.18 15.7-17.72 0-11.23-4.74-23.68-17.65-23.68-11.68 0-15.45 8.1-15.45 18.62.04 9.94 5.95 22.79 17.44 22.79z"/><path d="m224.17 309.18c0 5.45 2.08 6.48 5 6.48.39 0 .51.2.51.52v1.56c0 .46-.33.52-.71.52-2.59 0-5.2-.32-7.78-.32s-8.7.32-11 .32c-.71 0-.85-.06-.85-.46v-1.23a.84.84 0 0 1 .78-.91c4.86-.32 5.38-1.17 5.38-7.2v-25c0-6.56-.58-8.37-3.56-8.37h-2.07c-.26 0-.39-.2-.39-.46v-1.63c0-.39.13-.59.45-.59 2.92 0 7.65.33 12.59.33 7.26-.33 5-.19 10.44-.33 4.15 0 13 2.34 13 11 0 5.71-5.06 8.56-10.38 9.48 2.67 1.87 4.67 4.8 6.36 7.52l6.55 10.52c1.76 2.85 3.77 4.73 7.27 4.73.25.07.39.2.39.39v2.2c-2.6-.06-5.19-.32-7.79-.32-1.62 0-3.31.32-4.6.32s-2-1.1-3.9-4.35l-8.5-14.79c-1.75-2.85-2.34-3.9-7.21-3.9zm0-16.93c.85.06 1.76.06 2.6.06 5.39 0 9.8-2.66 9.8-8.37 0-4.87-2.54-8.57-8.12-8.57-4.09 0-4.29 2.4-4.29 5.32z"/><path d="m279.54 309.56c0 4.81 1.74 6.1 5.32 6.1.58 0 .92.2.92.59v1.56c0 .39-.34.46-.85.46-1.56 0-7.59-.32-11.1-.32-4 0-6.1.32-8 .32-.71 0-1.16-.06-1.16-.52v-1.24c0-.52.12-.84.58-.84 4.79 0 5.64-1 5.64-5.71v-34.27h-7.85c-3.83 0-5.26 4.22-6.43 6a.76.76 0 0 1 -.71.46c-1.63 0-1.89-.2-1.89-1 0-.52 1.3-7.78 1.63-11.09a.41.41 0 0 1 .45-.45h2.14a4.7 4.7 0 0 0 4.41 2.85h24.26c4.09 0 5.78-1.16 6.36-2.85h1.76c.65 0 1 .19 1 .78a103.53 103.53 0 0 0 -1.69 10.51c0 .39-.06.59-.46.59-.65 0-2.53-.26-2.53-.72s.07-1.1.07-2.27c0-2.59-2.73-2.79-4.8-2.79h-7.07z"/><path d="m360.55 299.86c.65 1.57.84 1.94 1.3 1.94s1.31-2.22 1.67-3.24l12.24-31.56c.84-2.13 1.95-5.1 1.95-7.22 0-3.06-3-3.15-7.41-3.15-.56 0-.75-.46-.75-.93v-1.86c0-.65.56-.93 1.29-.93 2.32 0 4.63.46 11.59.46 2.31 0 5.66-.46 8-.46.74 0 .83.55.83 1.21v1.3c0 .83-.28 1.21-1.3 1.21-4.54 0-5.56 3.71-6.57 6.11-7.7 18.54-15.22 37.27-22.63 55.9-.47 1.21-.65 1.21-1.66 1.21h-1.77c-1.85 0-1.85-.37-2.13-.84-3.06-6.12-21.23-53.49-23.73-57.65-2.32-3.9-4-4.73-8.72-4.73-.83 0-1.11-.46-1.11-1v-1.76c0-.65.28-.93 1.11-.93 3.62 0 7.78.46 12.52.46 5 0 9.18-.46 16.22-.46.74 0 1 .37 1 1.11v1.67c0 .55-.19.93-.93.93-3.43 0-6.86.09-6.86 2.41 0 1.48 1 3.61 4 11.31z"/><path d="m407.92 300.48a1 1 0 0 0 -.77.19l-2.4 6.88a20.44 20.44 0 0 0 -1.49 5.45c0 2.14 1.62 2.66 4.8 2.66.65 0 .71.39.71.78v1.3c0 .46-.32.52-1.17.52-2.14 0-4.34-.32-6.94-.32-4.16 0-6 .32-7.2.32a.5.5 0 0 1 -.51-.52v-1.17a.81.81 0 0 1 .84-.84c2.53 0 4.22-.65 5.32-3.44 1.37-3.44 2.67-6.95 4-10.45l6.88-20.12c.58-1.69 1.17-3.57 1.94-6.23.39-1.17.85-1.69 3.18-3.31a19.63 19.63 0 0 1 2.53-1.69c.33 0 .52.84.72 1.24l15.44 38.15c1.88 4.68 2.33 5.25 4.74 5.77 1.82.32 2 .32 2 .78v1c0 .26 0 .78-.78.78-1.82 0-5.58-.32-8.44-.32-3.7 0-7.07.32-10 .32-.26 0-.52-.06-.52-.32v-1.49c0-.71.39-.78.84-.78 3.38 0 4.16-1.17 4.16-2.52s-3.71-9.67-4.87-12.66zm11.55-3.25-6.16-14.8h-.13l-4.93 14.8z"/><path d="m459.9 309.69c0 4 .91 5.65 7.47 5.65 8 0 8.63-.33 12.39-7.08.26-.46.51-.65.84-.65s2.27.32 2.27.77a27.46 27.46 0 0 1 -.65 3.25c-.59 2.34-1.24 4.54-1.76 6.62-5.83 0-13.1-.32-17.32-.32s-12.46.32-17.46.32a.46.46 0 0 1 -.52-.46v-1.43a.63.63 0 0 1 .72-.72c4.41 0 5.38-1.17 5.38-6.62v-27.22c0-5.06-1.43-6.75-5.45-6.75-.46 0-.65-.2-.65-.59v-1.36c0-.39.19-.65.78-.65 1 0 4.81.33 11.1.33 2.85 0 5.7-.33 8.5-.33.33 0 .45.19.45.52v1.36c0 .33-.07.72-.65.72-3 0-5.45.65-5.45 4z"/><path d="m503.18 309.69c0 4 .91 5.65 7.47 5.65 8 0 8.63-.33 12.39-7.08.26-.46.52-.65.84-.65s2.28.32 2.28.77a27.45 27.45 0 0 1 -.65 3.25c-.59 2.34-1.24 4.54-1.75 6.62-5.84 0-13.11-.32-17.33-.32s-12.46.32-17.45.32a.46.46 0 0 1 -.52-.46v-1.43a.62.62 0 0 1 .72-.72c4.41 0 5.38-1.17 5.38-6.62v-27.22c0-5.06-1.42-6.75-5.44-6.75-.46 0-.65-.2-.65-.59v-1.36c0-.39.19-.65.77-.65 1 0 4.81.33 11.1.33 2.86 0 5.72-.33 8.5-.33.33 0 .46.19.46.52v1.36c0 .33-.06.72-.64.72-3 0-5.45.65-5.45 4z"/><path d="m545.49 310.15c0 3.57.78 5.19 5.12 5.19h8.89c2.92 0 3.44-1.17 4.8-3.25l2-3c.59-.84.84-1 1.17-1 .52 0 2.4.26 2.4 1a2.57 2.57 0 0 1 -.19 1c-.78 2.52-1.62 5-2.67 8.24-8 0-16-.32-24-.32-1.95 0-3.9.06-5.77.13s-3.9.19-5.84.19a.5.5 0 0 1 -.52-.52v-1.17c0-.65.39-.78 2.2-.91s3.76-.78 3.76-5.06v-32.25c0-3.37-2.6-3.37-4.61-3.37-.64 0-1.1 0-1.1-.65v-1.3c0-.65.58-.65 1.24-.65 2.59 0 7.71.26 11 .33 6.94 0 14-.33 20.89-.33.59 0 .59.46.59.79 0 1.42-.06 2.92-.06 4.34s.06 2.79.06 4.15c0 .46-.33.71-.85.71h-1.3c-.32 0-.38-.32-.45-1.3-.39-5-2.07-5.77-6.36-5.77h-6.17c-3.49 0-4.27.32-4.27 5.58v11.35h4.41c4.79 0 6.94.26 7.91-5.06.06-.32.2-.45.52-.45h1.1c.58 0 .72.19.72.45 0 2.4-.07 4.8-.07 7.2 0 1.75.07 3.83.07 5.83 0 .59-.2 1-.52 1h-1.49c-.39 0-.58-.13-.58-.51a10.27 10.27 0 0 0 -.52-3.76c-.71-1.81-2.6-1.75-5.32-1.75h-6.23z"/><path d="m592.08 297.88a3.08 3.08 0 0 0 -.52-1.75l-10.63-16c-2.22-3.24-3.7-5.12-6.82-5.12a.78.78 0 0 1 -.85-.84v-1.07c0-.32.26-.65 1-.65 3.57 0 6.69.33 11 .33 3.24 0 6.1-.33 7.85-.33.71 0 1 .13 1 .46v1.49c0 .52-.26.65-.84.65-2.53 0-4.35.13-4.35 1 0 .58.85 2 2.14 3.83l8.57 12.58 7.31-11.46c1.43-2.14 2.34-3.89 2.34-4.8 0-1.1-2.08-1.17-4.16-1.17-.59 0-.78-.39-.78-.84v-1c0-.39.13-.72.59-.72 1.49 0 3.7.33 6.22.33 3.76 0 6-.33 7-.33.32 0 .52.07.52.65v1.3c0 .46-.25.65-.91.65-2.59 0-4.8 3.05-6.42 5.32-.91 1.3-1.82 2.66-2.73 4l-6.56 10.25c-1 1.49-1.37 2.08-1.37 2.66v14.7c0 3.24 3.64 3.63 5.72 3.63.39 0 .51.32.51.78v1.24c0 .45-.25.58-.64.58-3.24 0-6.36-.32-10.32-.32-3.63 0-6.29.32-9.28.32-.39 0-.64-.13-.64-.52v-1.43c0-.52.32-.65.71-.65 1.56 0 5.32 0 5.32-3.82z"/><path d="m12.28 379.91c2.32 5.75 5.66 12.15 15 12.15 7.51 0 13.53-3.71 13.53-10.67 0-16.13-31.89-12.23-31.89-33.92 0-12.8 9.92-19.66 21.88-19.66 5.93 0 14.18 2.79 15.75 5.1v11.5h-4.14c-1.21-7.41-4.92-12.41-12.41-12.41-6.21 0-11.31 3.34-11.31 10.1 0 15.85 31.89 11.13 31.89 33.83 0 13.07-11.13 20.3-23.36 20.3a37.23 37.23 0 0 1 -17.22-3.8c-.37-4.17-.92-8.34-1.39-12.52z"/><path d="m81.05 385.91c0 4.8 1.75 6.1 5.32 6.1.58 0 .91.2.91.58v1.55c0 .39-.32.46-.85.46-1.55 0-7.6-.33-11.1-.33-4 0-6.1.33-8 .33-.72 0-1.17-.06-1.17-.52v-1.23c0-.52.13-.84.59-.84 4.8 0 5.64-1 5.64-5.71v-34.3h-7.82c-3.83 0-5.25 4.22-6.42 6a.74.74 0 0 1 -.71.46c-1.62 0-1.89-.2-1.89-1 0-.52 1.3-7.79 1.63-11.1a.41.41 0 0 1 .45-.46h2.14a4.69 4.69 0 0 0 4.42 2.85h24.26c4.09 0 5.78-1.16 6.36-2.85h1.76c.65 0 1 .19 1 .78s-1.29 5.32-1.69 10.51c0 .39-.07.59-.45.59-.65 0-2.53-.27-2.53-.72s.07-1.11.07-2.28c0-2.59-2.73-2.79-4.81-2.79h-7.11z"/><path d="m110.58 376.83a1 1 0 0 0 -.78.19l-2.4 6.88a20.4 20.4 0 0 0 -1.5 5.45c0 2.14 1.62 2.66 4.8 2.66.65 0 .72.39.72.78v1.29c0 .46-.32.52-1.16.52-2.14 0-4.35-.33-6.95-.33-4.15 0-6 .33-7.21.33a.51.51 0 0 1 -.52-.52v-1.16a.81.81 0 0 1 .84-.85c2.53 0 4.22-.65 5.33-3.44 1.36-3.44 2.65-6.94 4-10.45l6.88-20.12c.58-1.69 1.16-3.57 1.94-6.23.39-1.17.85-1.68 3.19-3.31a19.06 19.06 0 0 1 2.53-1.69c.32 0 .52.84.71 1.23l15.44 38.15c1.89 4.68 2.34 5.26 4.74 5.78 1.82.32 2 .32 2 .78v1c0 .26 0 .78-.77.78-1.82 0-5.59-.33-8.44-.33-3.7 0-7.07.33-10 .33-.25 0-.51-.06-.51-.33v-1.49c0-.72.39-.78.85-.78 3.37 0 4.15-1.17 4.15-2.53s-3.7-9.67-4.87-12.65zm11.55-3.25-6.13-14.8h-.13l-4.92 14.79z"/><path d="m166.46 385.91c0 4.8 1.75 6.1 5.32 6.1.58 0 .91.2.91.58v1.55c0 .39-.32.46-.84.46-1.56 0-7.6-.33-11.1-.33-4 0-6.1.33-8 .33-.71 0-1.17-.06-1.17-.52v-1.23c0-.52.14-.84.58-.84 4.81 0 5.65-1 5.65-5.71v-34.3h-7.81c-3.83 0-5.25 4.22-6.42 6a.75.75 0 0 1 -.71.46c-1.63 0-1.89-.2-1.89-1 0-.52 1.3-7.79 1.63-11.1a.41.41 0 0 1 .46-.46h2.14a4.68 4.68 0 0 0 4.41 2.85h24.27c4.09 0 5.77-1.16 6.35-2.85h1.76c.66 0 1 .19 1 .78a104.45 104.45 0 0 0 -1.69 10.51c0 .39-.06.59-.45.59-.64 0-2.53-.27-2.53-.72s.07-1.11.07-2.28c0-2.59-2.73-2.79-4.8-2.79h-7.07z"/><path d="m200.06 386.49c0 3.56.78 5.19 5.13 5.19h8.9c2.91 0 3.43-1.17 4.8-3.25l2-3.05c.58-.84.85-1 1.17-1 .52 0 2.41.27 2.41 1a2.47 2.47 0 0 1 -.2 1c-.78 2.53-1.62 5-2.66 8.24-8 0-16-.33-24-.33-1.95 0-3.9.07-5.78.13s-3.89.2-5.83.2a.51.51 0 0 1 -.53-.52v-1.16c0-.65.4-.79 2.21-.91s3.77-.78 3.77-5.06v-32.21c0-3.37-2.59-3.37-4.61-3.37-.65 0-1.1 0-1.1-.65v-1.3c0-.65.58-.65 1.23-.65 2.59 0 7.72.26 11 .33 6.94 0 13.95-.33 20.89-.33.58 0 .58.45.58.78 0 1.42-.06 2.92-.06 4.34s.06 2.8.06 4.16c0 .46-.32.71-.84.71h-1.3c-.33 0-.39-.32-.46-1.29-.39-5-2.07-5.78-6.36-5.78h-6.16c-3.51 0-4.29.33-4.29 5.59v11.35h4.41c4.81 0 6.95.27 7.92-5.06.07-.32.2-.46.53-.46h1.11c.58 0 .72.2.72.46 0 2.4-.07 4.8-.07 7.21 0 1.75.07 3.82.07 5.83 0 .59-.2 1-.52 1h-1.49c-.39 0-.59-.13-.59-.52a10.31 10.31 0 0 0 -.52-3.77c-.71-1.81-2.6-1.75-5.33-1.75h-6.23z"/><path d="m273.51 374.35c0 11.13 6.49 15 16.6 15 13.16 0 21-5 21-18.73v-30.85c0-5.93-1.85-6.76-7.23-6.76-.75 0-1.39-.37-1.39-1v-1.85a.83.83 0 0 1 .84-.83c2.88 0 5.46.46 9.26.46 5.75 0 8.53-.46 11.87-.46.46 0 .83.09.83.64v1.76c0 1.11-.09 1.3-1.3 1.3-7 0-7.32 2.22-7.32 8.34v27.44c0 8.06-.74 14.92-7.14 20.39-5.47 4.64-13.17 7-20.3 7-15.38 0-28.09-4.26-28.09-21.5v-36.23c0-5.19-2.31-5.47-7.51-5.47-.46 0-1.11-.1-1.11-.65v-2.14c0-.65.47-.92 1.22-.92 4.26 0 11.58.46 16 .46s7.33-.46 11.59-.46c.65 0 .83.18.83.83v2.13c0 .65-.46.75-1.3.75-5.47 0-7.42.92-7.42 6.58z"/><path d="m350.94 356.31c2.27 2.74 4.55 5.46 6.94 8.18l14 16.16c.39.52.65.84.84.84s.32-3 .32-4.47v-20.02c0-4.15-.32-5.64-4.86-5.64-.59 0-1.24-.13-1.24-.79v-1.1c0-.58.39-.71 1-.71 3.32 0 6.31.33 8.44.33 2.73 0 4.41-.33 6.16-.33.45 0 .78.07.78.65v1.3c0 .45-.52.65-2.27.65-3.25.12-4.22 1.43-4.09 8v24.85c0 4.94.07 8.83.07 10.91 0 .39-.07.52-.65.52-2.33 0-2.59-.06-3.56-.84-1.89-1.95-2.86-3.12-3.9-4.29l-26.35-30.51c-.84-1-1.36-1.69-1.75-1.69s-.32 2.53-.32 2.92v23.49c0 6.88 1.23 7.27 5.19 7.27.65 0 1.16 0 1.16.58v1.43c0 .45-.25.58-1 .58-2.73 0-3.83-.33-6.23-.33s-5.52.33-8.56.33c-.92 0-1.17-.26-1.17-.78v-1.1a.63.63 0 0 1 .65-.71c3.82 0 6-.26 6-6.75v-22.69c0-10.58-.84-11.16-7.4-11.16a.6.6 0 0 1 -.64-.58v-1.36a.63.63 0 0 1 .71-.65c2.33 0 4.54.33 6.75.33 2.85 0 5.39-.33 8.24-.33.84 0 1.23 1 1.62 1.49z"/><path d="m392.85 355.28c0-3.5-1.69-3.89-4.8-3.89-.52 0-1-.13-1-.45v-1.5c0-.39.07-.65.52-.65.91 0 4.67.33 9.15.33s8.24-.33 9.87-.33c.51 0 .84.07.84.39v1.82c0 .33-.59.39-1.3.39-3 0-4.68 1-4.68 3.89v32.64c0 3.63 2.14 4.09 5.39 4.09.51 0 .71.2.71.58v1.29c0 .58-.32.72-.84.72-3.05 0-6.1-.33-9.14-.33-3.39 0-6.82.33-10.19.33a.44.44 0 0 1 -.46-.39v-1.68c0-.33.26-.52.91-.52 3 0 5-.58 5-4.09z"/><path d="m438.6 381.63c.46 1.11.59 1.36.91 1.36s.91-1.56 1.16-2.27l8.57-22.06a16 16 0 0 0 1.36-5.06c0-2.14-2.07-2.2-5.19-2.2-.39 0-.52-.33-.52-.65v-1.3c0-.46.39-.65.9-.65 1.63 0 3.25.33 8.12.33 1.61 0 4-.33 5.57-.33.52 0 .58.39.58.85v.91c0 .58-.2.85-.91.85-3.18 0-3.89 2.59-4.61 4.28-5.38 13-10.64 26.08-15.83 39.13-.32.84-.45.84-1.18.84h-1.22c-1.31 0-1.31-.26-1.5-.58-2.14-4.29-14.86-37.45-16.61-40.36-1.62-2.72-2.79-3.31-6.1-3.31-.59 0-.78-.33-.78-.72v-1.23c0-.46.19-.65.78-.65 2.53 0 5.45.33 8.76.33 3.5 0 6.42-.33 11.36-.33.52 0 .7.26.7.78v1.17c0 .39-.12.65-.64.65-2.4 0-4.81.07-4.81 1.68 0 1 .72 2.53 2.79 7.92z"/><path d="m477.15 386.49c0 3.56.78 5.19 5.12 5.19h8.89c2.92 0 3.44-1.17 4.81-3.25l2-3.05c.59-.84.84-1 1.16-1 .52 0 2.4.27 2.4 1a2.55 2.55 0 0 1 -.19 1c-.78 2.53-1.62 5-2.67 8.24-8 0-16-.33-24-.33-1.95 0-3.9.07-5.78.13s-3.9.2-5.84.2a.51.51 0 0 1 -.52-.52v-1.16c0-.65.39-.79 2.21-.91s3.76-.78 3.76-5.06v-32.21c0-3.37-2.6-3.37-4.61-3.37-.64 0-1.1 0-1.1-.65v-1.3c0-.65.58-.65 1.24-.65 2.59 0 7.72.26 11 .33 6.94 0 13.95-.33 20.89-.33.59 0 .59.45.57.78 0 1.42-.06 2.92-.06 4.34s.06 2.8.07 4.16c0 .46-.33.71-.85.71h-1.3c-.33 0-.39-.32-.46-1.29-.38-5-2.07-5.78-6.35-5.78h-6.16c-3.5 0-4.28.33-4.28 5.59v11.35h4.41c4.81 0 6.95.27 7.92-5.06.06-.32.2-.46.52-.46h1.11c.58 0 .71.2.71.46 0 2.4-.07 4.8-.07 7.21 0 1.75.07 3.82.07 5.83 0 .59-.19 1-.52 1h-1.45c-.38 0-.59-.13-.59-.52a10.35 10.35 0 0 0 -.52-3.77c-.72-1.81-2.59-1.75-5.32-1.75h-6.23z"/><path d="m521.66 385.52c0 5.45 2.07 6.49 5 6.49.39 0 .52.2.52.52v1.55c0 .46-.33.52-.72.52-2.59 0-5.19-.33-7.78-.33s-8.7.33-11 .33c-.71 0-.85-.06-.85-.46v-1.23a.84.84 0 0 1 .78-.91c4.87-.33 5.38-1.17 5.38-7.2v-25c0-6.55-.58-8.37-3.57-8.37h-2.07c-.26 0-.39-.2-.39-.45v-1.57c0-.39.13-.58.45-.58 2.92 0 7.66.33 12.59.33 7.27-.33 5-.2 10.44-.33 4.15 0 13 2.33 13 11 0 5.71-5.06 8.56-10.38 9.47 2.66 1.89 4.67 4.8 6.36 7.53l6.58 10.44c1.76 2.85 3.77 4.74 7.27 4.74.26.06.39.2.39.39v2.21c-2.6-.06-5.19-.33-7.79-.33-1.61 0-3.3.33-4.6.33s-2-1.1-3.89-4.35l-8.5-14.8c-1.76-2.86-2.34-3.89-7.21-3.89zm0-16.93c.85.06 1.75.06 2.59.06 5.39 0 9.8-2.66 9.8-8.37 0-4.87-2.53-8.57-8.12-8.57-4.08 0-4.28 2.41-4.28 5.32z"/><path d="m560.6 384.22c1.62 4 4 8.5 10.51 8.5 5.25 0 9.47-2.6 9.47-7.47 0-11.29-22.32-8.56-22.32-23.74 0-9 6.93-13.76 15.31-13.76 4.16 0 9.93 2 11 3.57v8h-2.91c-.85-5.19-3.45-8.7-8.7-8.7-4.35 0-7.91 2.34-7.91 7.08 0 11.09 22.32 7.78 22.32 23.68 0 9.15-7.79 14.21-16.35 14.21a26 26 0 0 1 -12.02-2.59c-.26-2.92-.65-5.84-1-8.76z"/><path d="m598.43 355.28c0-3.5-1.69-3.89-4.8-3.89-.52 0-1-.13-1-.45v-1.5c0-.39.07-.65.53-.65.9 0 4.67.33 9.14.33s8.24-.33 9.87-.33c.51 0 .84.07.84.39v1.82c0 .33-.58.39-1.29.39-3 0-4.67 1-4.67 3.89v32.64c0 3.63 2.15 4.09 5.39 4.09.52 0 .71.2.71.58v1.29c0 .58-.32.72-.84.72-3 0-6.1-.33-9.15-.33-3.37 0-6.8.33-10.19.33a.43.43 0 0 1 -.45-.39v-1.68c0-.33.25-.52.91-.52 3 0 5-.58 5-4.09z"/><path d="m641.91 385.91c0 4.8 1.75 6.1 5.32 6.1.59 0 .91.2.91.58v1.55c0 .39-.32.46-.84.46-1.56 0-7.59-.33-11.09-.33-4 0-6.11.33-8 .33-.71 0-1.17-.06-1.17-.52v-1.23c0-.52.12-.84.58-.84 4.8 0 5.65-1 5.65-5.71v-34.3h-7.85c-3.83 0-5.26 4.22-6.43 6a.75.75 0 0 1 -.71.46c-1.62 0-1.88-.2-1.88-1 0-.52 1.3-7.79 1.62-11.1a.41.41 0 0 1 .46-.46h2.14a4.68 4.68 0 0 0 4.41 2.85h24.27c4.09 0 5.77-1.16 6.36-2.85h1.75c.66 0 1 .19 1 .78a105.72 105.72 0 0 0 -1.68 10.51c0 .39-.07.59-.45.59-.65 0-2.53-.27-2.53-.72s.06-1.11.06-2.28c0-2.59-2.73-2.79-4.8-2.79h-7.07z"/><path d="m678.82 374.23a3.06 3.06 0 0 0 -.51-1.75l-10.63-16c-2.21-3.25-3.7-5.12-6.82-5.12a.79.79 0 0 1 -.84-.85v-1.1c0-.33.26-.65 1-.65 3.57 0 6.68.33 11 .33 3.24 0 6.09-.33 7.85-.33.71 0 1 .13 1 .45v1.5c0 .52-.26.65-.84.65-2.53 0-4.34.12-4.34 1 0 .58.85 2 2.14 3.83l8.57 12.59 7.39-11.42c1.42-2.14 2.34-3.89 2.34-4.8 0-1.1-2.07-1.16-4.16-1.16-.59 0-.77-.39-.77-.85v-1c0-.39.12-.71.58-.71 1.49 0 3.7.33 6.23.33 3.75 0 6-.33 7-.33.32 0 .51.07.51.65v1.3c0 .45-.25.65-.9.65-2.6 0-4.81 3-6.42 5.32-.91 1.3-1.82 2.66-2.72 4l-6.66 10.24c-1 1.49-1.37 2.07-1.37 2.66v14.73c0 3.25 3.64 3.64 5.71 3.64.39 0 .52.32.52.78v1.19c0 .45-.25.58-.64.58-3.24 0-6.36-.33-10.32-.33-3.64 0-6.29.33-9.28.33-.39 0-.65-.13-.65-.52v-1.43c0-.52.33-.65.7-.65 1.57 0 5.32 0 5.32-3.83z"/><path d="m14.52 418.07-1.07 3.44a5.71 5.71 0 0 0 -.29 1.57c0 .8 1.14 1 1.79 1 .21 0 .26.15.26.46s0 .34-.19.34c-.56 0-2.32-.12-3-.12s-1.67.12-2.39.12c-.48 0-.48-.07-.48-.39v-.27c0-.12.22-.17.8-.22 1.26-.12 1.43-.36 1.88-1.69l4.79-13.93a5.29 5.29 0 0 1 1.59-1.16l6.07 15.3a2 2 0 0 0 2.28 1.48c.26 0 .31.29.31.56s-.18.27-.46.27-1.94-.12-2.88-.12-1.94 0-2.9.12c-.36 0-.39-.07-.39-.41s.14-.39.49-.39 1.54-.07 1.54-.66a4.54 4.54 0 0 0 -.43-1.43l-1.54-3.89zm5.34-.95-2.68-6.91-2.3 6.91z"/><path d="m37.1 416c-1.74-1-2.44-2-2.44-3.89 0-3 2.47-4.71 5.73-4.71a8.79 8.79 0 0 1 3 .68l.17 3.15c0 .12-.24.16-.58.16s-.36-.14-.39-.39a2.85 2.85 0 0 0 -3-2.66 2.77 2.77 0 0 0 -2.92 2.7c0 1.74 1.06 2.42 3.48 3.71s4.47 2.36 4.47 5.39c0 3.29-3 5-6 5a11.26 11.26 0 0 1 -3.56-.7c-.19-.1-.26-.41-.34-.94l-.29-2.28c0-.14.48-.14.62-.14s.15 0 .19.21a3.7 3.7 0 0 0 3.76 2.95 3.37 3.37 0 0 0 3.31-3.12 3.67 3.67 0 0 0 -2.15-3.27z"/><path d="m47.84 416.25c0-.8-.34-.8-1.16-.8-.24 0-.43 0-.43-.31s.26-.43.51-.6a19.93 19.93 0 0 0 2.73-2.37c.22 0 .31.05.31.27 0 .63-.07 1.31-.07 1.91h3c.29 0 .29.05.29.54s-.05.55-.27.55h-3.08v6.34c0 1 .27 2 1.5 2a1.87 1.87 0 0 0 1.72-1.24l.41.34a3 3 0 0 1 -2.87 2.3 2.31 2.31 0 0 1 -2.59-2.2z"/><path d="m60.31 417.92c0-1.33-.17-2.34-1.93-2.34-.66 0-1.86.19-1.86.89a1.39 1.39 0 0 0 .12.56l-1.52.87a2 2 0 0 1 -.14-.73c0-.77.78-1.38 1.29-1.67l2.17-1.26c.29-.16.41-.24.51-.24 2 0 3 1 3 2.95v5.13c0 .5 0 1.52.78 1.52.46 0 .56-.2.87-.7l.46.16c-.29 1.17-.89 2.11-1.93 2.11a1.83 1.83 0 0 1 -1.79-2.13c-.92.94-2.13 2.13-3.56 2.13s-2.13-1.82-2.13-2.9c0-.41.46-1.18 2.47-2l3.16-1.24zm0 1.84-2.4 1.09c-.34.14-1.2.6-1.2 1.23s.29 1.92 1.09 1.92 1.67-.85 2.27-1.43l.22-.22z"/><path d="m66.62 416.25c0-.8-.34-.8-1.16-.8-.24 0-.43 0-.43-.31s.27-.43.5-.6a20.05 20.05 0 0 0 2.73-2.37c.22 0 .31.05.31.27 0 .63-.07 1.31-.07 1.91h3c.29 0 .29.05.29.54s0 .55-.27.55h-3.06v6.34c0 1 .26 2 1.5 2a1.88 1.88 0 0 0 1.71-1.24l.41.34a3 3 0 0 1 -2.88 2.3 2.31 2.31 0 0 1 -2.59-2.2z"/><path d="m75.45 418.38a7.49 7.49 0 0 0 0 1 4.11 4.11 0 0 0 3.82 4.21c.89 0 1.52-.34 2.73-1.43l.43.32a5 5 0 0 1 -4.43 2.7c-2.47 0-4.48-2.37-4.48-5.05 0-2.85 1.94-6.12 5.1-6.12a3.58 3.58 0 0 1 3.67 3.63v.74zm4.21-.67c.31 0 .67-.47.67-.87a2 2 0 0 0 -2.07-2c-1.45 0-2.45 1.67-2.68 3z"/><path d="m95.87 417.92c0-1.33-.16-2.34-1.92-2.34-.66 0-1.87.19-1.87.89a1.44 1.44 0 0 0 .13.56l-1.53.87a2 2 0 0 1 -.14-.73c0-.77.78-1.38 1.28-1.67l2.18-1.25a1.49 1.49 0 0 1 .51-.24c2 0 3 1 3 2.95v5.13c0 .5 0 1.52.77 1.52.45 0 .56-.2.87-.7l.46.16c-.29 1.17-.9 2.11-1.94 2.11a1.83 1.83 0 0 1 -1.79-2.13c-.92.94-2.13 2.13-3.56 2.13s-2.13-1.82-2.13-2.9c0-.41.46-1.18 2.46-2l3.17-1.24zm0 1.84-2.4 1.09c-.33.14-1.2.6-1.2 1.23s.32 1.88 1.11 1.88 1.67-.85 2.27-1.43l.22-.22z"/><path d="m102.46 416.74c0-.46-.22-.75-.46-.8l-.8-.19c-.08 0-.14-.09-.14-.27s0-.24.14-.27a32.24 32.24 0 0 0 3-1.21c.1 0 .1.19.1.29v1.71c1.13-.9 2.42-2 4-2 2.11 0 3 1.18 3 3.21v5.9c0 1 .8 1 1.59 1 0 0 .1 0 .1.17v.44s0 .07-.12.07c-1 0-1.6-.12-2.4-.12s-1.72.12-2.59.12c-.16 0-.16-.44-.16-.53s.09-.14.24-.14c.39 0 1.5 0 1.5-.72v-5.68c0-1.5-.46-2.35-2.15-2.35a4.67 4.67 0 0 0 -3 1.31v6.32c0 .53 0 1.16 1.67 1.16v.34s0 .34-.07.34c-.95 0-2-.12-2.51-.12-.87 0-1.74.12-2.61.12-.17 0-.22-.07-.22-.17v-.22c0-.29.07-.29.41-.29 1.06 0 1.45-.15 1.45-1.28z"/><path d="m124.29 422.57c0 .75.29 1 .69 1a3.59 3.59 0 0 0 .95-.24c.07 0 .14.12.14.24v.43a18.77 18.77 0 0 1 -3.48 1.09c-.07 0-.09-.39-.09-.46v-1.33c-1.06.87-2.27 1.86-3.72 1.86-2.71 0-4.48-2.44-4.48-5a6 6 0 0 1 5.7-6.16 6.1 6.1 0 0 1 2.42.53v-5.37c0-.89-.17-1.06-.92-1.35-.37-.15-.56-.26-.56-.46s.6-.41 1.06-.58l1.76-.73a1.47 1.47 0 0 1 .37-.12c.17 0 .17.24.17.39v3.5zm-1.84-5a2.8 2.8 0 0 0 -2.86-2.8c-2.36 0-3.28 2.57-3.28 4.54s1.14 4.43 3.3 4.43a3.57 3.57 0 0 0 2.84-1.31z"/><path d="m136.47 411.15c0-1.81-.1-2.59-2.11-2.59-.28 0-.36-.07-.36-.39s.17-.41.58-.41c1 0 1.89.12 2.83.12 1.25 0 2.51-.12 3.77-.12a.63.63 0 0 1 .1.41c0 .15-.07.34-.14.34a4 4 0 0 0 -.48 0l-.95.15a1.24 1.24 0 0 0 -1.06 1.38v10.37c0 2.91.46 3.46 3.46 3.46h1.23a5.59 5.59 0 0 0 2.29-.31c.61-.29.9-1.24 1.07-1.52l.56-.89c.05 0 .07-.1.26-.1s.46.05.46.2l-.63 2.46c-.12.49-.39 1.12-.75 1.12-2.86 0-5.74-.12-8.59-.12-1.14 0-2.3.12-3.44.12h-.39l-.17-.1v-.29c0-.29.12-.36.8-.41 1.14-.07 1.65-.22 1.65-1.23z"/><path d="m155.67 417.92c0-1.33-.17-2.34-1.93-2.34-.66 0-1.87.19-1.87.89a1.41 1.41 0 0 0 .13.56l-1.53.87a2.15 2.15 0 0 1 -.14-.73c0-.77.78-1.38 1.28-1.67l2.17-1.26c.3-.16.42-.24.51-.24 2 0 3 1 3 2.95v5.13c0 .5 0 1.52.78 1.52.46 0 .55-.2.87-.7l.46.16c-.29 1.17-.9 2.11-1.93 2.11a1.83 1.83 0 0 1 -1.79-2.13c-.92.94-2.13 2.13-3.55 2.13s-2.13-1.82-2.13-2.9c0-.41.46-1.18 2.47-2l3.16-1.24zm0 1.84-2.4 1.09c-.33.14-1.21.6-1.21 1.23s.32 1.88 1.11 1.88 1.68-.85 2.28-1.43l.22-.22z"/><path d="m162.24 416.74c0-.46-.21-.75-.45-.8l-.8-.19c-.08 0-.15-.09-.15-.27s0-.24.15-.27a31.44 31.44 0 0 0 3-1.21c.1 0 .1.19.1.29v1.71c1.14-.9 2.42-2 4-2 2.11 0 3 1.18 3 3.21v5.9c0 1 .8 1 1.59 1 .05 0 .1 0 .1.17v.44s0 .07-.12.07c-1 0-1.6-.12-2.4-.12s-1.71.12-2.59.12c-.17 0-.17-.44-.17-.53s.1-.14.25-.14c.39 0 1.5 0 1.5-.72v-5.68c0-1.5-.45-2.35-2.15-2.35a4.7 4.7 0 0 0 -3 1.31v6.32c0 .53 0 1.16 1.67 1.16.05 0 .05.14.05.34s0 .34-.07.34c-.95 0-2-.12-2.51-.12-.87 0-1.74.12-2.62.12-.16 0-.21-.07-.21-.17v-.22c0-.29.07-.29.41-.29 1.06 0 1.45-.15 1.45-1.28z"/><path d="m184.07 422.57c0 .75.29 1 .7 1a3.57 3.57 0 0 0 .95-.24c.07 0 .14.12.14.24v.43a18.72 18.72 0 0 1 -3.49 1.09c-.07 0-.09-.39-.09-.46v-1.33c-1.06.87-2.27 1.86-3.72 1.86-2.71 0-4.47-2.44-4.47-5a6 6 0 0 1 5.74-6.17 6.13 6.13 0 0 1 2.42.53v-5.37c0-.89-.18-1.06-.93-1.35-.36-.15-.56-.26-.56-.46s.6-.41 1.06-.58l1.76-.73a1.47 1.47 0 0 1 .36-.12c.17 0 .17.24.17.39v3.5zm-1.83-5a2.8 2.8 0 0 0 -2.86-2.8c-2.37 0-3.29 2.57-3.29 4.54s1.14 4.43 3.31 4.43a3.6 3.6 0 0 0 2.84-1.31z"/><path d="m188 418.24h6.74v1.4h-6.74z"/><path d="m213.31 423.68a12.79 12.79 0 0 1 -5.81 1.5c-6.94 0-10-4.79-10-8.46 0-7.83 7.46-9.28 10.25-9.28a11.27 11.27 0 0 1 5.39 1.33c.05.19.17 2.1.17 3.16 0 .15-.38.22-.51.22s-.27 0-.29-.09c-.31-1.84-1.78-3.67-5-3.67-2.86 0-7.33 2.1-7.33 7.9 0 4.23 3.17 8 6.94 8 2.85 0 4.33-1.26 4.33-2.73v-1.67c0-1.21-.64-1.57-1.65-1.57h-1.8c-.13 0-.17-.15-.17-.39s0-.55.24-.55h7c.17 0 .14.2.14.32s0 .53-.16.53h-.29c-1.16 0-1.47.15-1.47 1.4z"/><path d="m220.51 422.27c0 1 0 1.89 1.84 1.89.14 0 .16.12.16.34s0 .34-.19.34c-.84 0-1.68-.12-2.54-.12s-1.89.12-2.8.12c-.1 0-.1 0-.1-.19v-.22c0-.24.05-.27.54-.29 1.06-.07 1.26-.43 1.26-1.74v-5.4a.86.86 0 0 0 -.73-.9c-.09 0-.72-.19-.72-.53 0-.14.07-.22.33-.34l1.79-.82a8.28 8.28 0 0 1 1-.44.21.21 0 0 1 .19.22v2.49c.77-1 1.88-2.76 3.36-2.76.87 0 1.38.41 1.38 1.31a1 1 0 0 1 -1 .94c-.66 0-.9-.43-1.62-.43s-1.33.83-1.81 1.42l-.36.47z"/><path d="m232.24 417.92c0-1.33-.17-2.34-1.94-2.34-.65 0-1.87.19-1.87.89a1.47 1.47 0 0 0 .13.56l-1.52.87a2.06 2.06 0 0 1 -.14-.73c0-.77.77-1.38 1.28-1.67l2.17-1.26c.29-.16.41-.24.51-.24 2 0 3 1 3 2.95v5.13c0 .5 0 1.52.78 1.52.46 0 .55-.2.86-.7l.47.16c-.29 1.17-.9 2.11-1.93 2.11a1.83 1.83 0 0 1 -1.79-2.13c-.92.94-2.13 2.13-3.55 2.13s-2.13-1.82-2.13-2.9c0-.41.46-1.18 2.47-2l3.16-1.24zm0 1.84-2.39 1.09c-.34.14-1.21.6-1.21 1.23s.31 1.88 1.11 1.88 1.67-.85 2.27-1.43l.22-.22z"/><path d="m238.82 416.74c0-.46-.22-.75-.46-.8l-.8-.19c-.07 0-.15-.09-.15-.27s0-.24.15-.27a30.88 30.88 0 0 0 3-1.21c.09 0 .09.19.09.29v1.71c1.14-.9 2.42-2 4-2 2.1 0 3 1.18 3 3.21v5.9c0 1 .8 1 1.6 1 0 0 .09 0 .09.17v.44s0 .07-.12.07c-1 0-1.6-.12-2.39-.12s-1.71.12-2.59.12c-.17 0-.17-.44-.17-.53s.1-.14.24-.14c.39 0 1.5 0 1.5-.72v-5.68c0-1.5-.46-2.35-2.15-2.35a4.72 4.72 0 0 0 -3 1.31v6.32c0 .53 0 1.16 1.67 1.16.05 0 .05.14.05.34s0 .34-.08.34c-.94 0-2-.12-2.51-.12-.88 0-1.74.12-2.62.12-.17 0-.22-.07-.22-.17v-.22c0-.29.07-.29.41-.29 1.06 0 1.45-.15 1.45-1.28z"/><path d="m252 416.25c0-.8-.33-.8-1.16-.8-.25 0-.43 0-.43-.31s.26-.43.51-.6a19.91 19.91 0 0 0 2.73-2.37c.22 0 .32.05.32.27 0 .63-.08 1.31-.08 1.91h3c.29 0 .29.05.29.54s0 .55-.27.55h-3.11v6.34c0 1 .27 2 1.5 2a1.88 1.88 0 0 0 1.72-1.24l.41.34a3 3 0 0 1 -2.88 2.3 2.31 2.31 0 0 1 -2.55-2.18z"/><path d="m269.62 420.37c0 3.53.08 3.54 2.43 3.67l.13.17v.46c0 .14-.36.17-.58.17s-2-.12-3-.12c-1.16 0-2.35.12-3.6.12-.09 0-.12-.19-.12-.44s.07-.36.79-.36c1.66 0 1.73-.36 1.73-2.2v-11.56c0-1.38-.4-1.72-2.44-1.72l-.07-.12v-.39c0-.27.24-.29.39-.29.65 0 1.43.12 3.07.12 1.21 0 2.66-.12 3.62-.12l.13.17v.43l-.1.14h-.65c-1 .07-1.72.17-1.72 1.28z"/><path d="m275.76 416.74c0-.46-.22-.75-.47-.8l-.8-.19c-.06 0-.14-.09-.14-.27s0-.24.14-.27a30.77 30.77 0 0 0 3-1.21c.1 0 .1.19.1.29v1.71c1.13-.9 2.42-2 4-2 2.11 0 3 1.18 3 3.21v5.9c0 1 .8 1 1.59 1 .05 0 .09 0 .09.17v.44s0 .07-.11.07c-1 0-1.6-.12-2.4-.12s-1.72.12-2.58.12c-.17 0-.17-.44-.17-.53s.09-.14.24-.14c.39 0 1.5 0 1.5-.72v-5.68c0-1.5-.46-2.35-2.16-2.35a4.7 4.7 0 0 0 -3 1.31v6.32c0 .53 0 1.16 1.66 1.16.05 0 .05.14.05.34s0 .34-.08.34c-.94 0-2-.12-2.51-.12-.87 0-1.74.12-2.61.12-.16 0-.21-.07-.21-.17v-.22c0-.29.06-.29.4-.29 1.07 0 1.45-.15 1.45-1.28z"/><path d="m294.49 417h-.61c-.29-1.06-.84-2.2-2.13-2.2-1.11 0-2 .53-2 1.67 0 .94 1.27 1.52 2.53 2.22s2.54 1.57 2.54 3.07a3.65 3.65 0 0 1 -3.89 3.41c-1.57 0-3.09-.7-3.12-1.09l-.12-2.2.7-.07a1.34 1.34 0 0 1 .17.46 2.94 2.94 0 0 0 2.42 2.11 1.86 1.86 0 0 0 2-2c0-.79-1.11-1.64-1.72-2-1.39-.73-3.19-1.55-3.19-3.38 0-2 1.84-3 3.67-3a6.18 6.18 0 0 1 2.86.75z"/><path d="m298.34 416.25c0-.8-.34-.8-1.17-.8-.24 0-.43 0-.43-.31s.27-.43.51-.6a20.14 20.14 0 0 0 2.73-2.37c.22 0 .31.05.31.27 0 .63-.07 1.31-.07 1.91h3c.29 0 .29.05.29.54s0 .55-.27.55h-3.11v6.34c0 1 .26 2 1.5 2a1.87 1.87 0 0 0 1.71-1.24l.42.34a3 3 0 0 1 -2.88 2.3 2.31 2.31 0 0 1 -2.59-2.2z"/><path d="m308.5 423c0 .53 0 1.16 1.67 1.16v.34s0 .34-.07.34c-.94 0-2-.12-2.52-.12-.87 0-1.74.12-2.61.12-.18 0-.22-.07-.22-.17v-.22c0-.29.08-.29.41-.29 1.06 0 1.45-.15 1.45-1.28v-5c0-1.53 0-1.63-.94-2-.37-.14-.7-.26-.7-.46s.24-.26 1.23-.64l1.77-.66a2 2 0 0 1 .36-.12c.17 0 .17.24.17.39v3.51zm-1-16.17a1.35 1.35 0 1 1 -1.35 1.35 1.35 1.35 0 0 1 1.35-1.35z"/><path d="m313.11 416.25c0-.8-.34-.8-1.16-.8-.24 0-.43 0-.43-.31s.27-.43.51-.6a20.14 20.14 0 0 0 2.73-2.37c.22 0 .31.05.31.27 0 .63-.08 1.31-.08 1.91h3c.29 0 .29.05.29.54s-.05.55-.27.55h-3.01v6.34c0 1 .26 2 1.49 2a1.88 1.88 0 0 0 1.72-1.24l.4.34a3 3 0 0 1 -2.87 2.3 2.32 2.32 0 0 1 -2.6-2.2z"/><path d="m321.19 416.67c0-1.33-.58-1.45-1.57-1.45-.13 0-.36 0-.36-.09v-.41c0-.12 0-.15.17-.17.63-.07 1.4-.19 2.06-.31s1.18-.22 1.27-.22c.25 0 .32.22.32.53s-.05.63-.05 1v5.63c0 1.64.66 2.47 2.42 2.47a4.18 4.18 0 0 0 2.71-1.31v-5.63c0-1.33-.59-1.45-1.57-1.45-.12 0-.36 0-.36-.09v-.41c0-.12 0-.15.16-.17.63-.07 1.41-.19 2.06-.31s1.19-.22 1.28-.22.32.22.32.53 0 .63 0 1v6.33c0 1.16 0 1.64.4 1.64a6.11 6.11 0 0 0 1.14-.16c.05 0 .07.12.07.27a.51.51 0 0 1 -.09.36c-.58.17-3.21 1.23-3.32 1.23s-.12-.31-.12-.46 0-.43 0-.75v-.9c-.92.95-2.17 2.11-3.58 2.11a3 3 0 0 1 -3.36-3.34z"/><path d="m334.61 416.25c0-.8-.34-.8-1.16-.8-.24 0-.44 0-.44-.31s.27-.43.51-.6a19.91 19.91 0 0 0 2.73-2.37c.22 0 .32.05.32.27 0 .63-.07 1.31-.07 1.91h3c.29 0 .29.05.29.54s-.05.55-.27.55h-3.12v6.34c0 1 .26 2 1.5 2a1.87 1.87 0 0 0 1.71-1.24l.42.34a3 3 0 0 1 -2.88 2.3 2.31 2.31 0 0 1 -2.59-2.2z"/><path d="m344.76 423c0 .53 0 1.16 1.66 1.16.05 0 .05.14.05.34s0 .34-.07.34c-.94 0-2-.12-2.52-.12-.87 0-1.74.12-2.6.12-.18 0-.22-.07-.22-.17v-.22c0-.29.07-.29.41-.29 1.06 0 1.45-.15 1.45-1.28v-5c0-1.53 0-1.63-.94-2-.37-.14-.7-.26-.7-.46s.24-.26 1.23-.64l1.76-.66a2.17 2.17 0 0 1 .37-.12c.17 0 .17.24.17.39 0 1.16-.05 2.35-.05 3.51zm-1-16.17a1.35 1.35 0 1 1 -1.35 1.35 1.35 1.35 0 0 1 1.36-1.35z"/><path d="m354.12 414a5.53 5.53 0 0 1 5.39 5.42 5.82 5.82 0 0 1 -6 5.76 5.34 5.34 0 0 1 -5.24-5.42 5.82 5.82 0 0 1 5.85-5.76zm-.56.8c-2.44 0-3.16 2.3-3.16 4.62 0 2.13 1.13 5 3.62 5s3.31-2.11 3.31-4.19c0-2.45-.82-5.42-3.77-5.42z"/><path d="m363.08 416.74c0-.46-.21-.75-.46-.8l-.79-.19c-.08 0-.14-.09-.14-.27s0-.24.14-.27a31.8 31.8 0 0 0 3-1.21c.09 0 .09.19.09.29v1.71c1.13-.9 2.42-2 4-2 2.1 0 3 1.18 3 3.21v5.9c0 1 .8 1 1.6 1 .05 0 .09 0 .09.17v.44s0 .07-.11.07c-1 0-1.6-.12-2.4-.12s-1.72.12-2.58.12c-.17 0-.17-.44-.17-.53s.1-.14.24-.14c.39 0 1.5 0 1.5-.72v-5.68c0-1.5-.46-2.35-2.16-2.35a4.72 4.72 0 0 0 -3 1.31v6.32c0 .53 0 1.16 1.67 1.16.05 0 .05.14.05.34s0 .34-.08.34c-.94 0-2-.12-2.51-.12-.88 0-1.74.12-2.61.12-.17 0-.22-.07-.22-.17v-.22c0-.29.08-.29.41-.29 1.07 0 1.45-.15 1.45-1.28z"/><path d="m386.11 412a4.27 4.27 0 1 1 -4.26 4.25 4.29 4.29 0 0 1 4.26-4.25z"/><path d="m401.29 410.48c0-1.91-1.16-1.91-2.49-1.91l-.13-.09v-.41c0-.27.17-.29.44-.29.63 0 2.17.12 3.31.12s2.45-.12 3.66-.12l.07.07v.63l-.12.09h-.29c-1.57 0-2.27.17-2.27 2v7c0 3.49.67 6.21 4.83 6.21 4.33 0 5.73-2.08 5.73-6.17v-6.29c0-2.75 0-2.56-2.12-2.75l-.1-.19v-.46l.07-.15c.44 0 .92.12 2.73.12 1 0 2.3-.12 3.08-.12l.09.15v.5l-.14.15c-1.77 0-2.4.09-2.4 1.3v8.64c0 4.42-2.58 6.67-7 6.67-3.5 0-7-1.23-7-5.27z"/><path d="m420.85 416.74c0-.46-.21-.75-.46-.8l-.8-.19c-.07 0-.14-.09-.14-.27s0-.24.14-.27a30.63 30.63 0 0 0 3-1.21c.1 0 .1.19.1.29v1.71c1.13-.9 2.41-2 4-2 2.1 0 3 1.18 3 3.21v5.9c0 1 .8 1 1.59 1 .05 0 .1 0 .1.17v.44s0 .07-.13.07c-1 0-1.59-.12-2.39-.12s-1.72.12-2.59.12c-.17 0-.17-.44-.17-.53s.09-.14.24-.14c.4 0 1.5 0 1.5-.72v-5.68c0-1.5-.46-2.35-2.15-2.35a4.67 4.67 0 0 0 -3 1.31v6.32c0 .53 0 1.16 1.67 1.16v.34s0 .34-.08.34c-.94 0-2-.12-2.51-.12-.87 0-1.74.12-2.61.12-.17 0-.22-.07-.22-.17v-.22c0-.29.07-.29.41-.29 1.06 0 1.45-.15 1.45-1.28z"/><path d="m436.13 423c0 .53 0 1.16 1.67 1.16v.34s0 .34-.06.34c-.95 0-2-.12-2.53-.12-.86 0-1.74.12-2.61.12-.17 0-.22-.07-.22-.17v-.22c0-.29.08-.29.41-.29 1.06 0 1.45-.15 1.45-1.28v-5c0-1.53 0-1.63-.94-2-.36-.14-.7-.26-.7-.46s.24-.26 1.23-.64l1.77-.66a1.9 1.9 0 0 1 .4-.12c.17 0 .17.24.17.39v3.51zm-1-16.17a1.35 1.35 0 1 1 -1.36 1.35 1.36 1.36 0 0 1 1.37-1.35z"/><path d="m444.71 425.11c0 .07-.12.07-.19.07s-.29-.25-.41-.53-.12-.48-.24-.75c-1.19-2.78-2.66-6-3.58-8.37-.16-.44-1.1-.51-1.5-.51-.09 0-.15-.19-.15-.38s.08-.29.15-.29c.44 0 1.48.12 2.54.12.82 0 2.16-.12 2.49-.12.09 0 .14.05.14.27v.24c0 .08-.05.17-.12.17h-.75c-.36 0-.68.1-.68.39a4.53 4.53 0 0 0 .32 1.14c.72 1.84 1.58 3.68 2.34 5.52h.05c.34-1.11 2.37-5.42 2.37-6.26 0-.68-.41-.83-1.09-.83h-.4c-.1 0-.15 0-.15-.23v-.23c0-.1.05-.22.13-.22s1.08.12 2.29.12c.24 0 1.24-.12 1.89-.12.05 0 .1 0 .1.17v.32c0 .14 0 .19-.17.19-1.16 0-1.43.54-1.89 1.63z"/><path d="m453.61 418.38a8 8 0 0 0 0 1 4.11 4.11 0 0 0 3.82 4.21c.9 0 1.52-.34 2.73-1.43l.43.32a5 5 0 0 1 -4.35 2.68c-2.46 0-4.47-2.37-4.47-5.05 0-2.85 1.94-6.12 5.11-6.12a3.58 3.58 0 0 1 3.68 3.63v.74zm4.21-.67c.32 0 .67-.47.67-.87a2 2 0 0 0 -2.08-2c-1.45 0-2.44 1.67-2.68 3z"/><path d="m465.67 422.27c0 1 0 1.89 1.83 1.89.15 0 .17.12.17.34s0 .34-.19.34c-.85 0-1.7-.12-2.54-.12s-1.89.12-2.8.12c-.1 0-.1 0-.1-.19v-.22c0-.24.05-.27.53-.29 1.07-.07 1.26-.43 1.26-1.74v-5.4a.86.86 0 0 0 -.73-.9c-.09 0-.72-.19-.72-.53 0-.14.07-.22.34-.34l1.79-.82a7.65 7.65 0 0 1 1-.44.21.21 0 0 1 .19.22v2.49c.77-1 1.89-2.76 3.36-2.76.87 0 1.38.41 1.38 1.31a1 1 0 0 1 -1 .94c-.65 0-.9-.43-1.61-.43s-1.33.83-1.82 1.42l-.36.47z"/><path d="m478.54 417h-.61c-.29-1.06-.85-2.2-2.12-2.2-1.12 0-2 .53-2 1.67 0 .94 1.28 1.52 2.53 2.22s2.55 1.57 2.55 3.07a3.65 3.65 0 0 1 -3.9 3.41c-1.58 0-3.1-.7-3.12-1.09l-.12-2.2.71-.07a1.33 1.33 0 0 1 .17.46 2.94 2.94 0 0 0 2.42 2.11 1.86 1.86 0 0 0 2-2c0-.79-1.11-1.64-1.72-2-1.4-.73-3.19-1.55-3.19-3.38 0-2 1.84-3 3.68-3a6.13 6.13 0 0 1 2.85.75z"/><path d="m484.48 423c0 .53 0 1.16 1.67 1.16v.34s0 .34-.08.34c-.94 0-2-.12-2.51-.12-.87 0-1.74.12-2.61.12-.18 0-.22-.07-.22-.17v-.22c0-.29.07-.29.41-.29 1.06 0 1.46-.15 1.46-1.28v-5c0-1.53 0-1.63-1-2-.36-.14-.69-.26-.69-.46s.23-.26 1.22-.64l1.77-.66a2.06 2.06 0 0 1 .37-.12c.17 0 .17.24.17.39 0 1.16-.05 2.35-.05 3.51zm-1-16.17a1.35 1.35 0 1 1 -1.35 1.35 1.36 1.36 0 0 1 1.36-1.35z"/><path d="m489.11 416.25c0-.8-.35-.8-1.16-.8-.24 0-.43 0-.43-.31s.26-.43.51-.6a19.86 19.86 0 0 0 2.73-2.37c.21 0 .31.05.31.27 0 .63-.07 1.31-.07 1.91h3c.29 0 .29.05.29.54s0 .55-.27.55h-3.11v6.34c0 1 .27 2 1.5 2a1.87 1.87 0 0 0 1.71-1.24l.42.34a3 3 0 0 1 -2.88 2.3 2.31 2.31 0 0 1 -2.58-2.2z"/><path d="m497.76 416.84c-.6-1.55-.6-1.74-2.32-1.82-.1 0-.14-.19-.14-.34s0-.34.22-.34c.77 0 1.57.12 2.35.12s1.45-.12 2.17-.12c.46 0 1.09 0 1.09.17v.22c0 .29-.09.34-.26.34s-.32 0-.65 0-.79.1-.79.51a2.26 2.26 0 0 0 .16.6l2.4 6.34 2-4.45a15.66 15.66 0 0 0 .86-2.17.83.83 0 0 0 -.94-.83h-.53c-.08 0-.17-.14-.17-.34s0-.34.15-.34c.89 0 1.75.12 2 .12.79 0 1.63-.12 2.49-.12.12 0 .16.19.16.34s0 .34-.14.34c-1.38 0-1.74.39-2.58 2.2l-2.69 5.83c-.92 2-1.79 4.06-2.85 6-.75 1.35-1.26 2.18-2.43 2.18a1 1 0 0 1 -1-1.07c0-.44.29-1.11.8-1.11.34 0 .53.24.73.24.92 0 1.76-1.08 3.12-4.59z"/><path d="m518 416c-1.74-1-2.44-2-2.44-3.89 0-3 2.46-4.71 5.73-4.71a8.72 8.72 0 0 1 3 .68l.18 3.15c0 .12-.25.16-.58.16s-.36-.14-.39-.39a2.85 2.85 0 0 0 -3-2.66 2.77 2.77 0 0 0 -2.93 2.7c0 1.74 1.06 2.42 3.48 3.71s4.48 2.36 4.48 5.39c0 3.29-3 5-6 5a11.16 11.16 0 0 1 -3.55-.7c-.2-.1-.26-.41-.33-.94l-.3-2.28c0-.14.49-.14.63-.14s.14 0 .2.21a3.69 3.69 0 0 0 3.74 2.91 3.37 3.37 0 0 0 3.32-3.12 3.68 3.68 0 0 0 -2.15-3.27z"/><path d="m529.33 416.84c-.6-1.55-.6-1.74-2.32-1.82-.1 0-.15-.19-.15-.34s0-.34.22-.34c.78 0 1.57.12 2.35.12s1.45-.12 2.17-.12c.46 0 1.08 0 1.08.17v.22c0 .29-.09.34-.26.34s-.31 0-.65 0-.8.1-.8.51a2.08 2.08 0 0 0 .17.6l2.4 6.34 2-4.45a15.07 15.07 0 0 0 .86-2.17.82.82 0 0 0 -.94-.83h-.54c-.07 0-.17-.14-.17-.34s0-.34.15-.34c.9 0 1.75.12 2 .12.8 0 1.65-.12 2.5-.12.11 0 .17.19.17.34s-.06.34-.15.34c-1.37 0-1.74.39-2.58 2.2l-2.69 5.83c-.92 2-1.79 4.06-2.85 6-.75 1.35-1.25 2.18-2.43 2.18a1 1 0 0 1 -1-1.07c0-.44.29-1.11.79-1.11.34 0 .54.24.73.24.92 0 1.76-1.08 3.12-4.59z"/><path d="m547.74 417h-.61c-.29-1.06-.85-2.2-2.12-2.2-1.12 0-2 .53-2 1.67 0 .94 1.27 1.52 2.54 2.22s2.54 1.57 2.54 3.07a3.64 3.64 0 0 1 -3.89 3.41c-1.58 0-3.1-.7-3.12-1.09l-.13-2.2.71-.07a1.4 1.4 0 0 1 .17.46 2.93 2.93 0 0 0 2.41 2.11 1.86 1.86 0 0 0 2-2c0-.79-1.11-1.64-1.72-2-1.4-.73-3.19-1.55-3.19-3.38 0-2 1.83-3 3.67-3a6.15 6.15 0 0 1 2.86.75z"/><path d="m551.58 416.25c0-.8-.35-.8-1.17-.8-.24 0-.43 0-.43-.31s.27-.43.51-.6a20.54 20.54 0 0 0 2.73-2.37c.21 0 .3.05.3.27 0 .63-.07 1.31-.07 1.91h3c.3 0 .3.05.3.54s-.05.55-.27.55h-3.12v6.34c0 1 .26 2 1.49 2a1.88 1.88 0 0 0 1.73-1.24l.41.34a3 3 0 0 1 -2.87 2.3 2.3 2.3 0 0 1 -2.58-2.2z"/><path d="m560.4 418.38a7.49 7.49 0 0 0 0 1 4.11 4.11 0 0 0 3.82 4.21c.9 0 1.52-.34 2.73-1.43l.44.32a5.07 5.07 0 0 1 -4.35 2.68c-2.47 0-4.48-2.37-4.48-5.05 0-2.85 1.94-6.12 5.11-6.12a3.58 3.58 0 0 1 3.67 3.63v.74zm4.21-.67c.31 0 .68-.47.68-.87a2 2 0 0 0 -2.08-2c-1.45 0-2.44 1.67-2.68 3z"/><path d="m572.47 422.93c0 1.16.19 1.21 1.47 1.23v.22.17c0 .19 0 .29-.08.29-.55 0-1.47-.12-2.27-.12-.61 0-2.11.12-2.57.12a.13.13 0 0 1 -.14-.15v-.41a.13.13 0 0 1 .12-.12h.24c.94 0 1.33-.22 1.33-1.21v-6.22a.78.78 0 0 0 -.46-.8l-.79-.19a.37.37 0 0 1 -.14-.29.25.25 0 0 1 .14-.24c1-.33 2-.77 3-1.21.05 0 .12.07.12.29 0 .53-.07 1.15-.07 1.55 1.14-.78 2.42-1.84 3.82-1.84s2.2.67 2.89 2.08c1.25-1 2.52-2.08 3.93-2.08 2.1 0 3 1.4 3 3.21v5.9c0 1 .8 1 1.63 1 0 0 .07.07.07.19v.32a.16.16 0 0 1 -.14.17c-.8 0-1.57-.12-2.37-.12s-1.65.12-2.52.12c-.07 0-.12-.07-.12-.15v-.29c0-.12 0-.24.12-.24.8 0 1.5 0 1.5-1v-5.9a2 2 0 0 0 -2.15-1.86 4.58 4.58 0 0 0 -2.83 1.48v6.24c0 .6.11 1 .9 1h.7a1.16 1.16 0 0 1 .07.41c0 .07 0 .27-.12.27-.8 0-1.56-.12-2.37-.12s-1.65.12-2.51.12a.14.14 0 0 1 -.12-.15v-.29c0-.12 0-.24.13-.24.8 0 1.49 0 1.49-1v-5.42a2.2 2.2 0 0 0 -2.14-2.35 3.55 3.55 0 0 0 -2.82 1.31z"/><path d="m601.29 414a5.53 5.53 0 0 1 5.39 5.42 5.81 5.81 0 0 1 -6 5.76 5.34 5.34 0 0 1 -5.25-5.42 5.81 5.81 0 0 1 5.86-5.76zm-.56.8c-2.43 0-3.17 2.3-3.17 4.62 0 2.13 1.13 5 3.63 5s3.32-2.11 3.32-4.19c0-2.45-.83-5.42-3.78-5.42z"/><path d="m610.36 415.43h-1.86a1 1 0 0 1 -.17-.64c0-.44.12-.44.71-.44h1.33v-2a8.73 8.73 0 0 1 1.06-4.23 3.78 3.78 0 0 1 3.29-2.15c.68 0 1.48.26 1.48 1a.93.93 0 0 1 -.85 1c-.51 0-1.23-.8-1.92-.8-1.21 0-1.23 1.88-1.23 2.73v4.47h2.8c.07 0 .09.07.09.12v.46c0 .5-.19.5-.34.5h-2.56v7.35c0 1.28.24 1.38 1.94 1.38a.14.14 0 0 1 .15.14v.1c0 .21 0 .44-.07.44-.24 0-2-.12-2.84-.12-1 0-1.91.12-2.87.12-.05 0-.15-.25-.15-.29s0-.39.15-.39c1.67-.05 1.86-.12 1.86-1.5z"/><path d="m639.13 423.68a12.75 12.75 0 0 1 -5.8 1.5c-6.94 0-10-4.79-10-8.46 0-7.83 7.47-9.28 10.25-9.28a11.25 11.25 0 0 1 5.39 1.33c.05.19.17 2.1.17 3.16 0 .15-.38.22-.51.22s-.26 0-.29-.09c-.32-1.84-1.79-3.67-5-3.67-2.86 0-7.33 2.1-7.33 7.9 0 4.23 3.17 8 6.94 8 2.86 0 4.33-1.26 4.33-2.73v-1.67c0-1.21-.62-1.57-1.65-1.57h-1.78c-.12 0-.17-.15-.17-.39s0-.55.25-.55h7c.17 0 .15.2.15.32s-.05.53-.18.53h-.28c-1.18 0-1.48.15-1.48 1.4z"/><path d="m645 418.38a6.43 6.43 0 0 0 -.05 1 4.11 4.11 0 0 0 3.83 4.21c.89 0 1.52-.34 2.73-1.43l.44.32a5.08 5.08 0 0 1 -4.35 2.68c-2.46 0-4.47-2.37-4.47-5.05 0-2.85 1.93-6.12 5.1-6.12a3.58 3.58 0 0 1 3.67 3.63v.74zm4.2-.67c.31 0 .67-.47.67-.87a2 2 0 0 0 -2.07-2c-1.46 0-2.44 1.67-2.68 3z"/><path d="m659.7 414a5.53 5.53 0 0 1 5.39 5.42 5.81 5.81 0 0 1 -6 5.76 5.34 5.34 0 0 1 -5.25-5.42 5.81 5.81 0 0 1 5.86-5.76zm-.55.8c-2.44 0-3.17 2.3-3.17 4.62 0 2.13 1.14 5 3.63 5s3.31-2.11 3.31-4.19c0-2.45-.82-5.42-3.77-5.42z"/><path d="m670.51 422.27c0 1 0 1.89 1.84 1.89.14 0 .17.12.17.34s0 .34-.18.34c-.85 0-1.7-.12-2.55-.12s-1.89.12-2.81.12c-.09 0-.09 0-.09-.19v-.22c0-.24 0-.27.54-.29 1.06-.07 1.25-.43 1.25-1.74v-5.4a.86.86 0 0 0 -.73-.9c-.09 0-.72-.19-.72-.53 0-.14.07-.22.33-.34l1.8-.82a7.74 7.74 0 0 1 1-.44.21.21 0 0 1 .2.22l-.05 2.49h.05c.77-1 1.88-2.76 3.35-2.76.87 0 1.38.41 1.38 1.31a1 1 0 0 1 -1 .94c-.65 0-.89-.43-1.62-.43s-1.34.83-1.81 1.42l-.37.47z"/><path d="m679.5 421a3.54 3.54 0 0 1 -2.64-3.46c0-1.88 2.27-3.55 4.06-3.55a7.28 7.28 0 0 1 3.36.92 5 5 0 0 0 1.14 0h1.2c.48 0 .6 0 .6.14 0 .79 0 .94-.36.94h-.51a8.3 8.3 0 0 0 -1.34.07 2.72 2.72 0 0 1 .19 1.09 3.68 3.68 0 0 1 -1.43 2.9 4.57 4.57 0 0 1 -3.46 1.07c-.21 0-1.5.7-1.5 1.62s1.42 1.06 2.07 1.06 1.57-.12 2.34-.12c2 0 3.7.94 3.7 3.12 0 2.85-2.93 4.36-5.37 4.36-2.12 0-4.76-.73-4.76-3.19v-.65l2.41-1.74a2.4 2.4 0 0 1 -2.13-2.32c0-.17 0-.36.05-.56zm-.5 5.6a1.18 1.18 0 0 0 -.48 1.06c0 1.35.95 2.75 3.27 2.75 1.69 0 3.53-.7 3.53-2.75 0-1.55-.95-2.1-2.4-2.1-.61 0-2.2.1-2.7.12zm2.2-6.1c1.53 0 2.2-1.37 2.2-2.73s-.73-3.09-2.37-3.09-2.32 1.07-2.32 2.71c0 1.47.85 3.12 2.48 3.12z"/><path d="m692 423c0 .53 0 1.16 1.67 1.16.05 0 .05.14.05.34s0 .34-.08.34c-.95 0-2-.12-2.51-.12-.88 0-1.74.12-2.62.12-.17 0-.22-.07-.22-.17v-.22c0-.29.07-.29.41-.29 1.07 0 1.45-.15 1.45-1.28v-5c0-1.53 0-1.63-.94-2-.36-.14-.7-.26-.7-.46s.24-.26 1.23-.64l1.77-.66a1.89 1.89 0 0 1 .36-.12c.17 0 .17.24.17.39 0 1.16-.05 2.35-.05 3.51zm-1-16.17a1.35 1.35 0 1 1 -1.36 1.35 1.35 1.35 0 0 1 1.36-1.35z"/><path d="m701 417.92c0-1.33-.16-2.34-1.93-2.34-.65 0-1.86.19-1.86.89a1.51 1.51 0 0 0 .12.56l-1.52.87a2 2 0 0 1 -.15-.73c0-.77.77-1.38 1.28-1.67l2.17-1.26c.3-.16.41-.24.51-.24 2 0 3 1 3 2.95v5.13c0 .5 0 1.52.78 1.52.46 0 .55-.2.87-.7l.46.16c-.29 1.17-.9 2.11-1.93 2.11a1.84 1.84 0 0 1 -1.8-2.13c-.91.94-2.12 2.13-3.55 2.13s-2.13-1.82-2.13-2.9c0-.41.47-1.18 2.47-2l3.16-1.24zm0 1.84-2.4 1.09c-.33.14-1.2.6-1.2 1.23s.31 1.88 1.11 1.88 1.67-.85 2.27-1.43l.22-.22z"/></g><path d="m0 441.26h713.99v15.96h-713.99z" fill="#ffd200"/></svg>