<svg id="Layer_1" data-name="Layer 1" xmlns="http://www.w3.org/2000/svg" viewBox="0 0 62.73 70"><defs><style>.cls-1{fill:#1e5197;}.cls-2{fill:#f2c43e;}</style></defs><title>fort-valley-state-university_icon</title><path class="cls-1" d="M19.21,21.58C34.86,7.58,53,25.07,62.73,0,51.79,8.48,22.05-10,19.21,21.58Z"/><path class="cls-2" d="M18.68,30.12c10.63-9.06,24.61,2.43,33.58-14.24C43.92,22.14,20.66,14,18.68,30.12Z"/><path class="cls-1" d="M32.6,29.2c-5.59-.54-9.14.71-11,3.5-2.05,3-2,7.44-.62,10.73a34.86,34.86,0,0,0,1.52,3.28h0C23,36.66,27.66,31.81,32.6,29.2Z"/><path class="cls-1" d="M28.22,50.18"/><path class="cls-1" d="M22.83,51.5H21.46L13.6,35.12,0,33A40.39,40.39,0,0,1,11.83,47.83l1.8,3.87c-2.43.12-4.88.28-7.31.6,2.67.34,5.35.51,8,.63s5.21.17,7.81.18,5.2,0,7.8-.18,5.35-.29,8-.63c-2.44-.31-4.88-.48-7.32-.6l1.81-3.87A40.29,40.29,0,0,1,44.3,33L30.7,35.12Z"/><path class="cls-1" d="M22.15,60.62c-2.6,0-5.2.06-7.81.18s-5.35.3-8,.64c2.67.34,5.35.51,8,.63,1.4.07,2.8.11,4.18.14L22.15,70l3.64-7.79c1.39,0,2.79-.07,4.17-.14,2.68-.12,5.36-.29,8-.63-2.67-.34-5.35-.52-8-.64S24.75,60.64,22.15,60.62Z"/><polygon class="cls-1" points="14.61 59.07 14.61 54.68 12.82 54.68 12.82 55.39 13.62 55.39 13.62 59.07 14.61 59.07"/><path class="cls-1" d="M16.81,57.83c0,.87.77,1.31,1.68,1.31s1.68-.44,1.68-1.31a1,1,0,0,0-.79-1v0a.91.91,0,0,0,.66-.94c0-.8-.71-1.21-1.55-1.21s-1.55.41-1.55,1.21a.94.94,0,0,0,.66.94h0A1,1,0,0,0,16.81,57.83Zm1.68-2.46a.48.48,0,1,1-.07,0Zm0,1.74a.63.63,0,0,1,.57.68.62.62,0,0,1-.68.56.61.61,0,0,1-.57-.61.62.62,0,0,1,.62-.63Z"/><path class="cls-1" d="M23.61,58.36a1.65,1.65,0,0,1-1-.32l-.37.67a2.2,2.2,0,0,0,1.36.43A1.79,1.79,0,0,0,25,58.61a2.51,2.51,0,0,0,.59-1.78,2.56,2.56,0,0,0-.38-1.48,1.67,1.67,0,0,0-1.4-.73A1.53,1.53,0,0,0,22.15,56v.14a1.31,1.31,0,0,0,1.28,1.35h.07A1.18,1.18,0,0,0,24.6,57a1.47,1.47,0,0,1-.33,1.05A.86.86,0,0,1,23.61,58.36Zm.21-1.54a.73.73,0,0,1-.75-.71.73.73,0,0,1,.71-.74.72.72,0,0,1,.74.7v0a.68.68,0,0,1-.65.72h-.05Z"/><path class="cls-1" d="M29.13,58.35a1.42,1.42,0,0,1-1.08-.53l-.47.6a1.89,1.89,0,0,0,1.62.72A1.6,1.6,0,0,0,31,57.6a1.44,1.44,0,0,0-1.53-1.44,1.31,1.31,0,0,0-.59.1l.12-.79h1.84v-.79H28.22l-.34,2.13.45.28a1.4,1.4,0,0,1,.8-.22.74.74,0,0,1,.83.64s0,.06,0,.09a.77.77,0,0,1-.78.75Z"/></svg>