<svg id="Layer_1" data-name="Layer 1" xmlns="http://www.w3.org/2000/svg" viewBox="0 0 576 250.11"><defs><style>.cls-1{fill:#1e5197;}.cls-2{fill:#f2c43e;}</style></defs><title>fort-valley-state-university-color</title><path class="cls-1" d="M68.62,77.1c55.95-50,120.85,12.48,155.51-77.1C185.05,30.3,78.78-35.58,68.62,77.1Z"/><path class="cls-2" d="M66.74,107.62c38-32.38,87.92,8.68,120-50.87C156.94,79.1,73.81,50.11,66.74,107.62Z"/><path class="cls-1" d="M116.49,104.33c-20-1.94-32.67,2.54-39.49,12.5-7.31,10.66-7.29,26.58-2.23,38.36a126.33,126.33,0,0,0,5.46,11.72h0C82.2,131,98.84,113.65,116.49,104.33Z"/><path class="cls-1" d="M100.82,179.28"/><path class="cls-1" d="M81.58,184l-2.45,0-2.44,0L48.58,125.48,0,117.83a144.3,144.3,0,0,1,42.27,53.06l6.44,13.83c-8.71.43-17.43,1-26.14,2.14,9.56,1.21,19.12,1.84,28.68,2.27,9.3.45,18.59.58,27.88.64s18.59-.19,27.88-.64c9.56-.43,19.13-1.06,28.69-2.27-8.72-1.1-17.43-1.71-26.14-2.14L116,170.89a144.3,144.3,0,0,1,42.27-53.06l-48.58,7.65Z"/><path class="cls-1" d="M79.13,216.61c-9.29.06-18.58.19-27.88.64-9.56.43-19.12,1.06-28.68,2.27,9.56,1.21,19.12,1.84,28.68,2.27,5,.24,10,.39,14.93.49l12.95,27.83,13-27.83c5-.1,10-.25,14.93-.49,9.56-.43,19.13-1.06,28.69-2.27-9.56-1.21-19.13-1.84-28.69-2.27C97.72,216.8,88.43,216.67,79.13,216.61Z"/><polygon class="cls-1" points="52.19 211.06 52.19 195.38 45.81 195.38 45.81 197.9 48.65 197.9 48.65 211.06 52.19 211.06"/><path class="cls-1" d="M60.07,206.63c0,3.11,2.73,4.67,6,4.67s6-1.56,6-4.67a3.72,3.72,0,0,0-2.81-3.73v-.07a3.3,3.3,0,0,0,2.36-3.36c0-2.84-2.57-4.32-5.54-4.32s-5.57,1.48-5.57,4.32a3.36,3.36,0,0,0,2.39,3.36v0A3.74,3.74,0,0,0,60.07,206.63Zm6-8.8A1.91,1.91,0,1,1,64,199.74,1.86,1.86,0,0,1,66.07,197.83Zm0,6.23a2.23,2.23,0,1,1-2.43,2.23A2.22,2.22,0,0,1,66.07,204.06Z"/><path class="cls-1" d="M84.35,208.51a5.88,5.88,0,0,1-3.43-1.13l-1.32,2.38a8,8,0,0,0,4.88,1.54,6.34,6.34,0,0,0,4.78-1.9,9.1,9.1,0,0,0,2.11-6.34A9.21,9.21,0,0,0,90,197.77,6,6,0,0,0,85,195.15a5.48,5.48,0,0,0-5.86,5.59,4.7,4.7,0,0,0,4.84,4.82c2.43,0,3.57-1.09,3.93-1.75a5.31,5.31,0,0,1-1.2,3.75A3,3,0,0,1,84.35,208.51Zm.75-5.5a2.59,2.59,0,1,1,2.52-2.59A2.45,2.45,0,0,1,85.1,203Z"/><path class="cls-1" d="M104.07,208.47a5,5,0,0,1-3.84-1.89l-1.68,2.16c.73,1.13,2.64,2.56,5.77,2.56s6.27-1.84,6.27-5.49-3.09-5.14-5.48-5.14A4.87,4.87,0,0,0,103,201l.45-2.82H110v-2.82h-9.18L99.62,203l1.59,1a5.28,5.28,0,0,1,2.86-.82,2.67,2.67,0,0,1,3,2.64A2.72,2.72,0,0,1,104.07,208.47Z"/><polygon class="cls-1" points="249.42 223.49 255.42 223.49 255.42 225.78 249.42 225.78 249.42 229.07 256.21 229.07 256.21 231.56 246.6 231.56 246.6 217.97 256.21 217.97 256.21 220.41 249.42 220.41 249.42 223.49 249.42 223.49"/><polygon class="cls-1" points="272.28 231.56 272.28 223.04 268.81 226.9 267.98 226.9 264.45 223.04 264.45 231.56 261.63 231.56 261.63 217.87 262.87 217.87 268.39 223.73 273.86 217.87 275.1 217.87 275.1 231.56 272.28 231.56 272.28 231.56"/><path class="cls-1" d="M288.7,222.82c0-1.42-1.26-2.21-2.72-2.21h-2.33v4a6.65,6.65,0,0,0,2.39.45,2.37,2.37,0,0,0,2.66-2.25ZM286.45,218a5,5,0,0,1,5.13,4.85,4.81,4.81,0,0,1-5.07,4.68,6.77,6.77,0,0,1-2.86-.6v4.66h-2.82V218Z"/><path class="cls-1" d="M298.47,224.77a4.24,4.24,0,1,0,4.24-4.45,4.22,4.22,0,0,0-4.24,4.45Zm11.34,0a7.11,7.11,0,1,1-7.1-7.1,6.94,6.94,0,0,1,7.1,7.1Z"/><polygon class="cls-1" points="325.18 231.56 322.15 222.82 319.13 231.56 317.19 231.56 312.67 217.97 315.87 217.97 318.38 226.55 321.24 217.97 323.13 217.97 325.95 226.55 328.5 217.97 331.71 217.97 327.12 231.56 325.18 231.56 325.18 231.56"/><polygon class="cls-1" points="339.05 223.49 345.05 223.49 345.05 225.78 339.05 225.78 339.05 229.07 345.84 229.07 345.84 231.56 336.23 231.56 336.23 217.97 345.84 217.97 345.84 220.41 339.05 220.41 339.05 223.49 339.05 223.49"/><path class="cls-1" d="M354.6,224a8.21,8.21,0,0,0,2.29.34c1.63,0,2.66-.69,2.66-1.91s-1.15-1.86-2.61-1.86H354.6V224Zm0,1.94v5.58h-2.82V218h5.52c2.53,0,5.13,1.4,5.13,4.4,0,2.36-1.93,3.73-4.14,3.94l5.09,5.25h-3.71L354.6,226Z"/><path class="cls-1" d="M394.82,226.12a4.46,4.46,0,0,1-2.65,1.2,9.85,9.85,0,0,1,1.2-2.68,2.38,2.38,0,0,1,1.85-1.31q.63,0,.63.9a2.78,2.78,0,0,1-1,1.89Zm2.68-2.72a2,2,0,0,0-2.08-1.29,4.39,4.39,0,0,0-2.64,1,7,7,0,0,0-1.12,1.06,9.34,9.34,0,0,0-.9,1.29,7.52,7.52,0,0,0-.61,1.4,5.83,5.83,0,0,0-.26,1.51,5.55,5.55,0,0,1-3,1.7c-.27,0-.41-.16-.41-.49a6.19,6.19,0,0,1,.64-2.15l.46-1c.15-.32.29-.64.42-.94a7.41,7.41,0,0,0,.31-.9,3.85,3.85,0,0,0,.13-1,1.49,1.49,0,0,0-.42-1,1.47,1.47,0,0,0-1.15-.48,2.16,2.16,0,0,0-1.46.5,6.7,6.7,0,0,0-.67.66c-.26.28-.95,1.15-2.05,2.6l-.36.45c.14-.28.51-1.24,1.1-2.88q.3-.81.9-2.64c.14-.48.28-.94.39-1.38s.21-.84.28-1.21a5.61,5.61,0,0,0,.13-1,1,1,0,0,0-.51-.84,1.15,1.15,0,0,0-.69-.2c-.44,0-.68.25-.75.77a36.37,36.37,0,0,1-.74,3.57,54.17,54.17,0,0,1-2.36,7.27,7.11,7.11,0,0,1-4.06,2.27.72.72,0,0,1-.55-.17.76.76,0,0,1-.14-.5,14,14,0,0,1,1-4l.62-1.61H377c1.9,0,3.27-.39,3.27-1.19,0-.13-.09-.19-.26-.19h-2.51l.68-1.47a1.09,1.09,0,0,0,.11-.42.82.82,0,0,0-.3-.61.79.79,0,0,0-.29-.18,1.16,1.16,0,0,0-.41-.07.76.76,0,0,0-.45.15,9.1,9.1,0,0,0-1.4,2.63h-.72a1,1,0,0,0-.65.26,1.23,1.23,0,0,0-.22.25.42.42,0,0,0-.09.22.48.48,0,0,0,0,.18c.06.19.44.31,1.14.37-1.24,3.37-1.71,5.57-1.4,6.62a1.74,1.74,0,0,0,1.86,1.31,6.92,6.92,0,0,0,3.76-2l-.24.49a1.62,1.62,0,0,0-.19.54.83.83,0,0,0,.34.64,1.24,1.24,0,0,0,.39.22,1.27,1.27,0,0,0,.47.09.46.46,0,0,0,.38-.16,2.24,2.24,0,0,0,.33-.55l.5-1.06c.2-.44.47-1,.83-1.67l1.46-1.91.76-.93c.86-1,1.46-1.53,1.79-1.53s.38.11.38.33a2.45,2.45,0,0,1-.28.93l-1,2.1a6.86,6.86,0,0,0-.68,2.59,1.86,1.86,0,0,0,.54,1.45,1.49,1.49,0,0,0,.54.32,2.88,2.88,0,0,0,.78.09,7,7,0,0,0,3.75-2,2.92,2.92,0,0,0,.7,1.22,3,3,0,0,0,2.16.8,4.64,4.64,0,0,0,3.42-1.15,1.36,1.36,0,0,0,.27-.84.83.83,0,0,0-.12-.44.35.35,0,0,0-.29-.2.59.59,0,0,0-.38.23,3.64,3.64,0,0,1-.58.43,3.92,3.92,0,0,1-2.07.62,1,1,0,0,1-.95-.55,1.87,1.87,0,0,1-.22-.56,2.36,2.36,0,0,1-.05-.57,2.44,2.44,0,0,1,0-.38,8.67,8.67,0,0,0,2.78-.48,5.93,5.93,0,0,0,1.16-.56,4,4,0,0,0,.93-.74,3.24,3.24,0,0,0,.6-.92,2.72,2.72,0,0,0,.23-1.11,2.53,2.53,0,0,0-.17-1Z"/><path class="cls-1" d="M416.71,222.82c0-1.42-1.25-2.21-2.72-2.21h-2.33v4a6.66,6.66,0,0,0,2.4.45,2.37,2.37,0,0,0,2.65-2.25ZM414.46,218a5,5,0,0,1,5.13,4.85,4.81,4.81,0,0,1-5.07,4.68,6.77,6.77,0,0,1-2.86-.6v4.66h-2.82V218Z"/><path class="cls-1" d="M426.48,224.77a4.24,4.24,0,1,0,4.24-4.45,4.22,4.22,0,0,0-4.24,4.45Zm11.34,0a7.11,7.11,0,1,1-7.1-7.1,6.94,6.94,0,0,1,7.1,7.1Z"/><path class="cls-1" d="M450.56,218.78v2.78a6.36,6.36,0,0,0-3.45-1.21c-1.06,0-2.23.44-2.23,1.48,0,.89.89,1.23,2,1.7l1.66.69c1.91.81,2.76,2,2.76,3.47,0,2.41-2.33,4.13-5.15,4.13a7.52,7.52,0,0,1-4.2-1.42v-2.77a7.36,7.36,0,0,0,4.26,1.54c1.13,0,2.07-.45,2.07-1.34,0-.71-.79-1.14-1.59-1.42l-2.09-.81a3.7,3.7,0,0,1-2.69-3.77c0-2.5,2.29-4.12,4.83-4.12a7.13,7.13,0,0,1,3.79,1.07Z"/><path class="cls-1" d="M464,218.78v2.78a6.33,6.33,0,0,0-3.45-1.21c-1.05,0-2.23.44-2.23,1.48,0,.89.89,1.23,2,1.7l1.66.69c1.91.81,2.76,2,2.76,3.47,0,2.41-2.33,4.13-5.15,4.13a7.58,7.58,0,0,1-4.2-1.42v-2.77a7.38,7.38,0,0,0,4.26,1.54c1.14,0,2.07-.45,2.07-1.34,0-.71-.79-1.14-1.58-1.42L458,225.6a3.69,3.69,0,0,1-2.7-3.77c0-2.5,2.29-4.12,4.83-4.12a7.13,7.13,0,0,1,3.79,1.07Z"/><polygon class="cls-1" points="474.87 229.02 477.16 229.02 477.16 231.56 469.76 231.56 469.76 229.02 472.05 229.02 472.05 220.51 469.76 220.51 469.76 217.97 477.16 217.97 477.16 220.51 474.87 220.51 474.87 229.02 474.87 229.02"/><path class="cls-1" d="M491.49,227.42c0-1.13-1.27-1.58-2.77-1.58h-2.5V229a12.28,12.28,0,0,0,2.5.25c1.56,0,2.77-.69,2.77-1.85Zm-5.27-3.67h2.56c1.29,0,2.23-.61,2.23-1.6s-.94-1.64-2.23-1.64h-2.56v3.24Zm8.21,4c0,2.27-2.27,4.09-5.55,4.09a29.59,29.59,0,0,1-5.48-.57V218h6c2.33,0,4.42,1.46,4.42,3.75a3,3,0,0,1-1.89,2.86,3.12,3.12,0,0,1,2.53,3.15Z"/><polygon class="cls-1" points="509.44 229.02 509.44 231.56 499.83 231.56 499.83 217.97 502.65 217.97 502.65 229.02 509.44 229.02 509.44 229.02"/><polygon class="cls-1" points="516.65 223.49 522.65 223.49 522.65 225.78 516.65 225.78 516.65 229.07 523.44 229.07 523.44 231.56 513.83 231.56 513.83 217.97 523.44 217.97 523.44 220.41 516.65 220.41 516.65 223.49 516.65 223.49"/><path class="cls-1" d="M529.74,230.14a1.43,1.43,0,1,0-1.42,1.42,1.43,1.43,0,0,0,1.42-1.42Z"/><polygon class="cls-1" points="242.11 174.18 242.12 174.18 242.12 174.16 219.69 174.16 219.69 179.48 228.02 179.48 228.02 203.37 233.78 203.37 233.78 179.48 239.97 179.48 242.11 174.18 242.11 174.18"/><path class="cls-1" d="M250.12,192.68l3.31-9h.3l3.31,9Zm1.68-18.52-12,29.21H246l2.24-5.71h10.65l2.24,5.71h6.23l-12.16-29.21Z"/><polygon class="cls-1" points="288.11 174.18 288.18 174.16 265.77 174.16 265.77 179.48 274.1 179.48 274.1 203.37 279.86 203.37 279.86 179.48 285.97 179.48 288.11 174.18 288.11 174.18"/><polygon class="cls-1" points="513.12 203.37 518.92 203.37 518.92 174.16 513.12 174.16 513.12 203.37 513.12 203.37"/><polygon class="cls-1" points="420.07 191.86 419.86 191.86 413.37 174.16 407.14 174.16 418.44 203.37 421.45 203.37 432.75 174.16 426.52 174.16 420.07 191.86 420.07 191.86"/><polygon class="cls-1" points="455.58 198.05 443.81 198.05 443.81 191.13 454.13 191.13 454.13 185.8 443.81 185.8 443.81 179.48 455.29 179.48 455.29 174.16 438.01 174.16 438.01 203.37 453.43 203.37 455.58 198.05 455.58 198.05"/><path class="cls-1" d="M471.36,187.26h-3v-7.95h3a3.87,3.87,0,0,1,4.08,4c0,2.23-1.41,3.91-4.12,3.91Zm10.14-4.08c0-4.6-3.31-9-10.66-9h-8.29v29.21h5.8V192.16h.9l8.47,11.21h6.49V203l-9-11.64c4.17-1.21,6.28-4.09,6.28-8.21Z"/><polygon class="cls-1" points="546.74 174.19 546.85 174.16 524.83 174.16 524.83 179.48 533.16 179.48 533.16 203.37 538.92 203.37 538.92 179.48 544.61 179.48 546.74 174.19 546.74 174.19"/><polygon class="cls-1" points="310.08 198.05 298.3 198.05 298.3 191.13 308.61 191.13 308.61 185.8 298.3 185.8 298.3 179.48 309.77 179.48 309.77 174.16 292.5 174.16 292.5 203.37 307.94 203.37 310.08 198.05 310.08 198.05"/><polygon class="cls-1" points="569.56 174.16 563.45 185.24 563.37 185.24 557.27 174.16 550.82 174.16 560.53 190.91 560.53 203.37 566.33 203.37 566.33 190.91 576 174.16 569.56 174.16 569.56 174.16"/><polygon class="cls-1" points="395.81 203.37 401.61 203.37 401.61 174.16 395.81 174.16 395.81 203.37 395.81 203.37"/><path class="cls-1" d="M349.79,191.86c0,4.94-2.88,6.66-6.23,6.66-4.47,0-6.19-2.92-6.19-6.45V174.16h-5.8v19c0,4.6,1.93,10.83,12,10.83,8.12,0,12-5.5,12-11.43V174.16h-5.76v17.7Z"/><polygon class="cls-1" points="382.9 192.72 382.64 192.72 365.84 174.16 362.1 174.16 362.1 203.37 367.9 203.37 367.9 184.6 368.12 184.6 385.05 203.37 388.65 203.37 388.65 174.16 382.9 174.16 382.9 192.72 382.9 192.72"/><polygon class="cls-1" points="554.04 159.47 562.27 159.47 562.27 141.77 576 117.98 566.85 117.98 558.19 133.72 558.06 133.72 549.4 117.98 540.25 117.98 554.04 141.77 554.04 159.47 554.04 159.47"/><polygon class="cls-1" points="322.82 159.47 330.99 159.47 330.99 125.54 339.77 125.54 342.82 117.98 310.98 117.98 310.98 125.54 322.82 125.54 322.82 159.47 322.82 159.47"/><polygon class="cls-1" points="469.45 151.9 453.48 151.9 453.48 117.98 445.24 117.98 445.24 159.47 466.41 159.47 469.45 151.9 469.45 151.9"/><polygon class="cls-1" points="207.07 125.54 219.68 125.54 222.73 117.98 198.84 117.98 198.84 159.47 207.07 159.47 207.07 142.08 216.36 142.08 216.36 134.51 207.07 134.51 207.07 125.54"/><path class="cls-1" d="M284.16,125.3h4.33a5.49,5.49,0,0,1,5.79,5.74c0,3.17-2,5.55-5.86,5.55h-4.26V125.3Zm0,18.24h1.28l12,15.93h9.22V159l-12.75-16.54c5.91-1.7,8.9-5.79,8.9-11.65,0-6.53-4.69-12.81-15.13-12.81H275.92v41.49h8.24V143.54Z"/><polygon class="cls-1" points="534.12 151.95 534.12 151.9 517.15 151.9 517.15 142.08 531.8 142.08 531.8 134.51 517.15 134.51 517.15 125.54 533.45 125.54 533.45 117.98 508.92 117.98 508.92 159.47 531.09 159.47 534.12 151.95 534.12 151.95"/><path class="cls-1" d="M246.49,124.81c7,0,12.44,5.49,12.44,14.1,0,8.11-5,13.72-12.38,13.72-6.1,0-12.45-4.57-12.45-13.72,0-8.61,5.55-14.1,12.39-14.1Zm.06,35.57c11.47,0,20.92-8.72,20.92-21.35,0-13.3-9.82-22-20.92-22-10.8,0-21.05,8.85-21.05,22s9.76,21.35,21.05,21.35Z"/><path class="cls-1" d="M412.27,144.27l4.7-12.75h.43l4.69,12.75ZM419.53,118h-4.88l-17,41.49h8.85l3.17-8.12h15.13l3.17,8.12h8.85L419.53,118Z"/><polygon class="cls-1" points="391.76 117.98 382.61 143.12 382.31 143.12 373.1 117.98 364.25 117.98 380.29 159.47 384.56 159.47 400.61 117.98 391.76 117.98 391.76 117.98"/><polygon class="cls-1" points="500.48 151.9 486.13 151.9 486.13 117.98 477.9 117.98 477.9 159.47 497.43 159.47 500.48 151.9 500.48 151.9"/><path class="cls-1" d="M210.5,186.66c-4.57-2.67-6-3.7-6-5.41s1.9-2.37,3.62-2.37a12.08,12.08,0,0,1,6.26,2l1.89-4.7a15.85,15.85,0,0,0-8.45-2.68c-6.29,0-9.4,4.13-9.4,7.65,0,4.08,1.9,6.14,7.29,9.15,4,2.24,5.34,3.31,5.34,5.37,0,1.38-1.29,3-4,3a11.88,11.88,0,0,1-6.84-2.39l-2.07,5.13a17.08,17.08,0,0,0,9,2.63c4.87,0,10.09-2.36,10.09-8.42C217.23,192.24,215.24,189.45,210.5,186.66Z"/><path class="cls-1" d="M500.84,186.66c-4.57-2.67-6-3.7-6-5.41s1.9-2.37,3.62-2.37a12.09,12.09,0,0,1,6.27,2l1.89-4.7a15.88,15.88,0,0,0-8.46-2.68c-6.29,0-9.39,4.13-9.39,7.65,0,4.08,1.89,6.14,7.28,9.15,4,2.24,5.34,3.31,5.34,5.37,0,1.38-1.29,3-4,3a11.91,11.91,0,0,1-6.85-2.39l-2.07,5.13a17.11,17.11,0,0,0,9.05,2.63c4.87,0,10.08-2.36,10.08-8.42C507.56,192.24,505.58,189.45,500.84,186.66Z"/></svg>