<svg xmlns="http://www.w3.org/2000/svg" viewBox="0 0 231.24 50"><path d="M162.94 42.58a2.57 2.57 0 0 0-2-.93 3.18 3.18 0 0 0-3.23 3.14V45a3.22 3.22 0 0 0 2.95 3.47h.28a2.64 2.64 0 0 0 2.18-1.12l1.38 1a4.16 4.16 0 0 1-3.5 1.67 4.93 4.93 0 1 1-.14-9.85h.14a4.09 4.09 0 0 1 3.29 1.48zm9.75-2.44a4.66 4.66 0 0 1 5 4.91 4.78 4.78 0 0 1-4.57 4.95h-.38a4.93 4.93 0 1 1-.14-9.85zm0 8.35a3.22 3.22 0 0 0 3.25-3.2V45a3.232 3.232 0 1 0-6.46-.25V45a3.22 3.22 0 0 0 2.95 3.48zm9.24-8.11h1.67v7.87h4v1.51h-5.67v-9.38zm9.54 0h1.65v7.87h4v1.51h-5.67v-9.38zm9.54 0h6.23v1.51h-4.55v2.3H207v1.51h-4.32v2.55h4.79v1.51h-6.46v-9.38zm19.11 8.69a8.15 8.15 0 0 1-3.89.93 4.93 4.93 0 1 1-.14-9.85h.14a5.37 5.37 0 0 1 3.7 1.18l-1.23 1.25a3.55 3.55 0 0 0-2.46-.92 3.18 3.18 0 0 0-3.23 3.14v.21a3.22 3.22 0 0 0 3 3.47h.27a4.5 4.5 0 0 0 2.2-.49v-2.2h-1.92v-1.51h3.56zm4.63-8.69h6.23v1.51h-4.55v2.3h4.31v1.51h-4.31v2.55h4.79v1.51h-6.46z" fill="#00704a"/><g data-name="Georgia Gwinnett"><path d="M159.43 30a12 12 0 0 1-5.84 1.43 7.16 7.16 0 0 1-7.47-6.85v-.7c0-4.64 3.11-7.67 7.46-7.67a7.93 7.93 0 0 1 5.54 1.79l-1.85 1.92a5.26 5.26 0 0 0-3.69-1.41 4.86 4.86 0 0 0-4.86 4.86v.32c0 3.09 1.93 5.38 4.85 5.38a6.63 6.63 0 0 0 3.31-.76v-3.39h-2.89v-2.33h5.4V30zm1.46-8.76h2.59l2.07 6.87 1.93-6.87h2.64l2.07 6.87 2-6.87h2.41l-3.25 9.82h-2.33l-2.27-6.71-2 6.71h-2.53zm18.38-4.81a1.47 1.47 0 1 1-1.51 1.47 1.49 1.49 0 0 1 1.51-1.47zm-1.15 4.81h2.39v9.82h-2.39v-9.82zm5.15 0h2.28v1.57a3 3 0 0 1 2.94-1.81c2.57 0 3.49 1.86 3.49 3.86v6.2h-2.39v-5c0-1.08-.08-2.88-1.75-2.88s-2.2 1.19-2.2 2.49v5.36h-2.39v-9.79zm11.45 0h2.27v1.57a3 3 0 0 1 2.94-1.81c2.57 0 3.49 1.86 3.49 3.86v6.2h-2.39v-5c0-1.08-.08-2.88-1.75-2.88s-2.16 1.21-2.16 2.52v5.36h-2.39v-9.82zM208.05 27a2.5 2.5 0 0 0 2.57 2.33 3.13 3.13 0 0 0 2.57-1.33l1.71 1.33a4.93 4.93 0 0 1-4 2 5 5 0 0 1-5.21-4.83v-.32a5 5 0 0 1 4.85-5.18h.32c2.67 0 4.49 1.92 4.49 5.34V27h-7.3zm4.91-1.84a2.23 2.23 0 0 0-2.11-2.34h-.32a2.4 2.4 0 0 0-2.47 2.32h4.91zm3.51-1.84v-2.08h2v-2.85h2.39v2.84h2.63v2.09h-2.63v4.3c0 1 .28 1.6 1.33 1.6a2.44 2.44 0 0 0 1.3-.31V31a4.93 4.93 0 0 1-1.9.33c-2.53 0-3.13-1.17-3.13-3.48v-4.5h-2zm7.76 0v-2.08h2v-2.85h2.39v2.84h2.63v2.09h-2.63v4.3c0 1 .28 1.6 1.33 1.6a2.44 2.44 0 0 0 1.3-.31V31a4.93 4.93 0 0 1-1.9.33c-2.53 0-3.13-1.17-3.13-3.48v-4.5h-2zM78.76 30a12 12 0 0 1-5.84 1.43 7.16 7.16 0 0 1-7.46-6.84v-.7c0-4.64 3.11-7.66 7.46-7.66A7.93 7.93 0 0 1 78.48 18l-1.86 1.92a5.26 5.26 0 0 0-3.69-1.41 4.85 4.85 0 0 0-4.81 4.88v.32c0 3.08 1.93 5.37 4.85 5.37a6.64 6.64 0 0 0 3.31-.75v-3.42h-2.92v-2.33h5.4V30zm4.67-3A2.5 2.5 0 0 0 86 29.33 3.12 3.12 0 0 0 88.57 28l1.72 1.33a4.94 4.94 0 0 1-4 2 5 5 0 0 1-5.2-4.83v-.32A5 5 0 0 1 85.92 21h.32c2.67 0 4.49 1.92 4.49 5.33V27h-7.3zm4.91-1.84a2.23 2.23 0 0 0-2.11-2.34h-.32a2.4 2.4 0 0 0-2.47 2.32h4.91zM97.68 21a5 5 0 0 1 5.2 4.83v.32a5.205 5.205 0 1 1-10.41 0A5 5 0 0 1 97.35 21h.33zm0 8.09a2.81 2.81 0 0 0 2.81-2.8v-.14a2.813 2.813 0 0 0-5.62-.26v.26a2.81 2.81 0 0 0 2.67 2.93h.14zm7.44-7.85h2.39v1.55a3 3 0 0 1 3.69-1.65v2.36a4.68 4.68 0 0 0-1.16-.18 2.44 2.44 0 0 0-2.57 2.3V31h-2.35v-9.8zm17.25 0v8.92c0 3.53-1.68 5.78-5.4 5.78a6.71 6.71 0 0 1-4.75-1.61l1.44-2a4.56 4.56 0 0 0 3.29 1.41c2.31 0 3-1.35 3-3.29v-.72a3.86 3.86 0 0 1-3.13 1.43 4.75 4.75 0 0 1-4.77-4.73v-.3c0-2.9 1.77-5.15 4.72-5.15a3.66 3.66 0 0 1 3.29 1.72v-1.46h2.27zm-7.93 4.88a2.8 2.8 0 0 0 2.75 2.88h.05a2.72 2.72 0 0 0 2.88-2.92 2.7 2.7 0 0 0-2.51-2.88h-.32a2.74 2.74 0 0 0-2.83 2.92zm11.86-9.68a1.47 1.47 0 1 1-1.52 1.47 1.49 1.49 0 0 1 1.5-1.47zm-1.18 4.8h2.39V31h-2.39zm11.13 8.45h-.06a3.42 3.42 0 0 1-3.07 1.59c-1.77 0-3.49-1-3.49-2.94 0-3.19 3.63-3.41 6-3.41h.6v-.26c0-1.2-.92-1.84-2.19-1.84a3.72 3.72 0 0 0-2.55 1l-1.26-1.29a5.53 5.53 0 0 1 4.08-1.54c4.09 0 4.09 3 4.09 4.41V31h-2.15v-1.31zm-.14-3h-.5c-1.32 0-3.59.1-3.59 1.51a1.48 1.48 0 0 0 1.64 1.29 2.11 2.11 0 0 0 2.46-2.29z" fill="#191918"/></g><path data-name="G outer" d="M26.29 22.82h30.83C56.98 37 47.49 41.74 43.22 43s-19.27 2.28-26.91 0C-.52 38-3.55 20.31 3.69 9.74 11.48-1.62 26.56-2.33 36.68 4c-23.31.83-26 27.94-7 34.79 3.64-1.4 9.36-5.33 9.8-11.81H26.29z" fill="#191918"/><path data-name="G inner" d="M22.33 3.83C-3 6.72.21 38.37 22.33 39.68c-13.54-10.41-11.11-28.51 0-35.85zm14.79 35.76c2.87-1.31 7.11-9.18 7.2-12.85h8.41c-1.17 6.39-6.19 12.94-15.61 12.85z" fill="#085a45"/></svg>