<svg id="institutions" xmlns="http://www.w3.org/2000/svg" width="210" height="160"><defs><style>.cls-1{fill:#265b4d}.cls-2{fill:#231f20}</style></defs><path class="cls-1" d="M32.09 53.11c-.54.61-4.56 4.25-4.56 9.38h.34c0-.88 1-8 6-9.82a4.82 4.82 0 0 0-1.78.44zm6.35-.44c5 1.86 6 8.94 6 9.82h.34c0-5.13-4-8.77-4.56-9.38a4.81 4.81 0 0 0-1.78-.44z"/><path class="cls-1" d="M35.76 52.52H36.6V63.49H35.76z"/><path class="cls-1" d="M43.56 96.71a26 26 0 0 0 3.67-1.37V73h3.22v20.55a26.13 26.13 0 1 0-28.42 0V72.89h3.23v22.45a26 26 0 0 0 4.5 1.6A103.77 103.77 0 0 0 1 103a166.34 166.34 0 0 1 37.58-4.1 166.34 166.34 0 0 1 37.57 4.1 105.61 105.61 0 0 0-32.59-6.29zm7.8-24.29h-5v-1.89h5v1.89zM36.24 51a1.1 1.1 0 0 1 1.1 1.1h-2.2a1.1 1.1 0 0 1 1.1-1.1zm0 1.42c12 0 15.12 11.61 15.12 11.61H21.13s3.1-11.66 15.11-11.66zM18.61 64.61h35.27v2.31H18.61v-2.31zm1.26 2.94h32.75v2.31H19.87v-2.31zm6.3 4.87h-5v-1.89h5v1.89z"/><path class="cls-2" d="M85.31 67.73c0 1.39.21 2.23.84 2.47a.29.29 0 0 1 0 .42 7.82 7.82 0 0 0-1.71.31 27.18 27.18 0 0 1-6.23.9c-4.14 0-7.94-1.15-10.62-3.86a11 11 0 0 1-3.2-7.9 12 12 0 0 1 3.13-8.25c2.33-2.44 5.78-4.07 11-4.07a20.85 20.85 0 0 1 4.42.52 9.15 9.15 0 0 0 2.16.31 39.14 39.14 0 0 0 .52 5 .69.69 0 0 1-.94.1c-1-3.76-3.58-4.94-7.13-4.94-6.75 0-9.71 4.8-9.71 10 0 6.68 3.45 11.94 10.44 11.94 2.16 0 3.45-.45 3.83-1a3.87 3.87 0 0 0 .35-2v-1.34c0-2.92-.1-3.13-2.26-3.38l-1.53-.17a.58.58 0 0 1 0-.87c1 .07 2.92.1 5 .1 1.36 0 2.54 0 3.69-.1a.61.61 0 0 1 0 .87l-.56.07c-1.46.17-1.5 1.15-1.5 2.92v1.95zm6.16-14.2c0-3.62-.07-4.14-2.12-4.39l-.56-.07a.68.68 0 0 1 .07-.87c1.5.07 2.68.1 4.11.1h6.54a46.94 46.94 0 0 0 4.7-.1 39.07 39.07 0 0 1 .56 4.63.68.68 0 0 1-.87.07c-.52-1.64-.84-2.85-2.65-3.31a16.63 16.63 0 0 0-3.38-.21h-2.5c-1 0-1 .07-1 1.39v7c0 1 .1 1 1.15 1h2a12.9 12.9 0 0 0 3-.21 1.24 1.24 0 0 0 .83-1.22l.28-1.43a.69.69 0 0 1 .9 0c0 .84-.14 2.19-.14 3.52s.14 2.58.14 3.34a.69.69 0 0 1-.9 0l-.31-1.36a1.49 1.49 0 0 0-1.08-1.32 11.67 11.67 0 0 0-2.68-.17h-2c-1 0-1.15 0-1.15.94v4.91c0 1.84.1 3 .66 3.62.42.42 1.15.8 4.21.8 2.68 0 3.69-.14 4.45-.52a8.74 8.74 0 0 0 2.47-3.38.64.64 0 0 1 .87.24 30.28 30.28 0 0 1-1.57 4.84c-3.13-.07-6.23-.1-9.33-.1H93c-1.5 0-2.68 0-4.73.1a.68.68 0 0 1-.07-.87l1.15-.1c2-.17 2.16-.7 2.16-4.35V53.53zM107.2 60a12 12 0 0 1 12.39-12.29c8 0 12.08 5.81 12.08 11.94a11.88 11.88 0 0 1-12.08 12.15c-7.73.04-12.39-5.49-12.39-11.8zm21 .73c0-5.74-2.54-11.94-9.19-11.94-3.62 0-8.32 2.47-8.32 10.09 0 5.15 2.51 11.83 9.36 11.83 4.17.05 8.13-3.08 8.13-9.94zm7.8-7.16c0-3.31-.1-3.9-1.53-4.07l-1.11-.14a.58.58 0 0 1 0-.87c1.95-.17 4.35-.28 7.76-.28a12.33 12.33 0 0 1 5.81 1 5.19 5.19 0 0 1 2.89 4.87c0 3.31-2.61 5.12-4.35 5.81a.79.79 0 0 0 .17.84c2.78 4.49 4.63 7.27 7 9.26a4.17 4.17 0 0 0 2.4 1 .29.29 0 0 1 0 .49 5.4 5.4 0 0 1-1.53.17c-3 0-4.73-.87-7.2-4.39-.87-1.26-2.31-3.67-3.37-5.26a2.48 2.48 0 0 0-2.47-1.11c-1.57 0-1.64 0-1.64.77v4.38c0 3.65.07 4.07 2.09 4.35l.73.1a.68.68 0 0 1-.07.87c-1.57-.07-2.75-.1-4.14-.1s-2.71 0-4.35.1a.67.67 0 0 1-.07-.87l.87-.1c2-.24 2.09-.7 2.09-4.35V53.57zm2.85 5a2.73 2.73 0 0 0 .1 1.15 6.36 6.36 0 0 0 2.4.17 5.83 5.83 0 0 0 3.58-.9c.94-.73 1.74-1.95 1.74-4.32 0-2.75-1.7-5.36-5.57-5.36-2.16 0-2.26.14-2.26 1.11v8.14z"/><path class="cls-2" d="M173.53 67.73c0 1.39.21 2.23.84 2.47a.29.29 0 0 1 0 .42 7.82 7.82 0 0 0-1.71.31 27.18 27.18 0 0 1-6.23.9c-4.14 0-7.94-1.15-10.62-3.86a11 11 0 0 1-3.2-7.9 11.94 11.94 0 0 1 3.13-8.25c2.33-2.44 5.78-4.07 11-4.07a20.85 20.85 0 0 1 4.42.52 9.15 9.15 0 0 0 2.16.31 39.13 39.13 0 0 0 .52 5 .69.69 0 0 1-.94.1c-1-3.76-3.58-4.94-7.13-4.94-6.75 0-9.71 4.8-9.71 10 0 6.68 3.45 11.94 10.44 11.94 2.16 0 3.45-.45 3.83-1a3.87 3.87 0 0 0 .35-2v-1.34c0-2.92-.1-3.13-2.26-3.38l-1.53-.17a.58.58 0 0 1 0-.87c1 .07 2.92.1 5 .1 1.36 0 2.54 0 3.69-.1a.61.61 0 0 1 0 .87l-.56.07c-1.46.17-1.5 1.15-1.5 2.92v1.95zm6.15-14.13c0-3.69-.07-4.28-2.12-4.45l-.87-.07a.68.68 0 0 1 .07-.87c1.74.07 2.92.1 4.38.1s2.58 0 4.32-.1a.68.68 0 0 1 .07.87l-.87.07c-2.05.17-2.12.77-2.12 4.45V66c0 3.69.07 4.18 2.12 4.42l.87.1a.69.69 0 0 1-.07.87c-1.74-.07-2.92-.1-4.32-.1s-2.64 0-4.38.1a.68.68 0 0 1-.07-.87l.87-.1c2.05-.24 2.12-.73 2.12-4.42V53.6z"/><path class="cls-2" d="M199.42 63.21c-.24-.77-.38-.87-1.43-.87h-5.26c-.87 0-1.08.1-1.32.84l-1.22 3.65a13.31 13.31 0 0 0-.77 2.89c0 .42.17.63 1 .7l1.15.1a.56.56 0 0 1-.07.87c-.9-.07-2-.07-3.62-.1-1.15 0-2.4.07-3.34.1a.69.69 0 0 1-.07-.87l1.15-.1a2.31 2.31 0 0 0 2.09-1.71c.63-1.6 1.6-3.86 3.06-7.76l3.55-9.4a5 5 0 0 0 .59-2.47 3.9 3.9 0 0 0 1.81-1.32.49.49 0 0 1 .52.31c.45 1.53 1 3.13 1.53 4.66l4.77 14c1 3 1.46 3.52 3 3.69l.94.1a.68.68 0 0 1 0 .87c-1.43-.07-2.64-.1-4.21-.1s-3 .07-4 .1a.58.58 0 0 1-.07-.87l1-.1c.73-.07 1.22-.28 1.22-.63a7.12 7.12 0 0 0-.45-1.84zm-6.89-3.1c-.28.8-.24.83.73.83h4.28c1 0 1.08-.14.77-1.08l-1.88-5.67a22.65 22.65 0 0 0-.8-2.19h-.07a21 21 0 0 0-.84 2.05zM68.68 78.08a15 15 0 0 1 9.4-3 26.88 26.88 0 0 1 6.16.83 2.62 2.62 0 0 0 1 .14c0 .8.21 3 .49 5.12a.73.73 0 0 1-.94.07c-.52-2.37-2.09-5.08-7.13-5.08-5.32 0-9.85 3.38-9.85 10.58s4.59 11.38 10.3 11.38a7.42 7.42 0 0 0 7.27-5 .73.73 0 0 1 .9.14 13.07 13.07 0 0 1-1.67 4.77 7 7 0 0 0-1.22.35 20.52 20.52 0 0 1-5.5.8 15.25 15.25 0 0 1-8.67-2.33 11.22 11.22 0 0 1-4.94-9.57 11.56 11.56 0 0 1 4.4-9.2zm18.16 9.32a12 12 0 0 1 12.39-12.28c8 0 12.08 5.81 12.08 11.94A11.88 11.88 0 0 1 99.23 99.2c-7.73 0-12.39-5.53-12.39-11.8zm21 .73c0-5.74-2.54-11.94-9.19-11.94-3.62 0-8.32 2.47-8.32 10.09 0 5.15 2.51 11.83 9.36 11.83 4.17.01 8.14-3.11 8.14-9.98zm7.78-7.24c0-3.65-.07-4.21-2.26-4.39l-.87-.07a.68.68 0 0 1 .07-.87c1.95.07 3.13.1 4.52.1s2.54 0 4.28-.1a.68.68 0 0 1 .07.87l-.84.07c-2.05.17-2.12.73-2.12 4.39V93c0 2.19.1 3.1.73 3.76.38.38 1 .8 3.79.8 3 0 3.69-.14 4.25-.45a7.43 7.43 0 0 0 2.3-3.45.67.67 0 0 1 .87.21 27.88 27.88 0 0 1-1.46 4.87c-1.77-.07-5.08-.1-8.67-.1h-3.2c-1.46 0-2.58 0-4.52.1a.68.68 0 0 1-.07-.87l1-.1c2-.21 2.09-.7 2.09-4.35V80.89z"/><path class="cls-2" d="M133.12 80.89c0-3.65-.07-4.21-2.26-4.39l-.86-.06a.68.68 0 0 1 .07-.87c1.95.07 3.13.1 4.52.1s2.54 0 4.28-.1a.68.68 0 0 1 .07.87l-.84.07c-2.05.17-2.12.73-2.12 4.39V93c0 2.19.1 3.1.73 3.76.38.38 1 .8 3.79.8 3 0 3.69-.14 4.25-.45a7.43 7.43 0 0 0 2.3-3.45.67.67 0 0 1 .87.21 27.88 27.88 0 0 1-1.46 4.87c-1.77-.07-5.08-.1-8.67-.1h-3.2c-1.46 0-2.57 0-4.52.1a.68.68 0 0 1-.07-.87l1-.1c2-.21 2.09-.7 2.09-4.35V80.89z"/><path class="cls-2" d="M150.63 80.89c0-3.62-.07-4.14-2.12-4.39l-.56-.07a.68.68 0 0 1 .07-.87c1.5.07 2.68.1 4.11.1h6.54a46.94 46.94 0 0 0 4.7-.1 39.07 39.07 0 0 1 .56 4.63.68.68 0 0 1-.87.07c-.52-1.64-.83-2.85-2.65-3.31a16.63 16.63 0 0 0-3.38-.21h-2.51c-1 0-1 .07-1 1.39v7c0 1 .1 1 1.15 1h2a12.9 12.9 0 0 0 3-.21 1.24 1.24 0 0 0 .83-1.22l.28-1.43a.69.69 0 0 1 .9 0c0 .84-.14 2.19-.14 3.52s.14 2.58.14 3.34a.69.69 0 0 1-.9 0l-.31-1.36a1.49 1.49 0 0 0-1.08-1.32 11.67 11.67 0 0 0-2.68-.17h-2c-1 0-1.15 0-1.15.94v4.91c0 1.84.1 3 .66 3.62.42.42 1.15.8 4.21.8 2.68 0 3.69-.14 4.45-.52a8.74 8.74 0 0 0 2.47-3.38.64.64 0 0 1 .87.24 30.28 30.28 0 0 1-1.57 4.84c-3.13-.07-6.23-.1-9.33-.1h-3.13c-1.5 0-2.68 0-4.73.1a.68.68 0 0 1-.07-.87l1.15-.1c2-.17 2.16-.7 2.16-4.35V80.89zm36.68 14.2c0 1.39.21 2.23.83 2.47a.29.29 0 0 1 0 .42 7.82 7.82 0 0 0-1.71.31 27.18 27.18 0 0 1-6.23.9c-4.14 0-7.94-1.15-10.62-3.86a11 11 0 0 1-3.2-7.9 12 12 0 0 1 3.13-8.25c2.33-2.44 5.78-4.07 11-4.07a20.85 20.85 0 0 1 4.42.52 9.15 9.15 0 0 0 2.16.31 39.14 39.14 0 0 0 .52 5 .69.69 0 0 1-.94.1c-1-3.76-3.58-4.94-7.13-4.94-6.75 0-9.71 4.8-9.71 10 0 6.68 3.45 11.94 10.44 11.94 2.16 0 3.45-.45 3.83-1a3.87 3.87 0 0 0 .35-2V93.7c0-2.92-.1-3.13-2.26-3.38l-1.53-.17a.58.58 0 0 1 0-.87c1 .07 2.92.1 5 .1 1.36 0 2.54 0 3.69-.1a.61.61 0 0 1 0 .87l-.56.07c-1.46.17-1.5 1.15-1.5 2.92v1.95zm6.15-14.2c0-3.62-.07-4.14-2.12-4.39l-.56-.07a.68.68 0 0 1 .07-.87c1.5.07 2.68.1 4.11.1h6.54a46.94 46.94 0 0 0 4.7-.1 39.07 39.07 0 0 1 .56 4.63.68.68 0 0 1-.87.07c-.52-1.64-.84-2.85-2.65-3.31a16.63 16.63 0 0 0-3.38-.21h-2.51c-1 0-1 .07-1 1.39v7c0 1 .1 1 1.15 1h2a12.9 12.9 0 0 0 3-.21 1.24 1.24 0 0 0 .83-1.22l.28-1.43a.69.69 0 0 1 .9 0c0 .84-.14 2.19-.14 3.52s.14 2.58.14 3.34a.69.69 0 0 1-.9 0l-.31-1.36a1.49 1.49 0 0 0-1.08-1.32 11.67 11.67 0 0 0-2.68-.17h-2c-1 0-1.15 0-1.15.94v4.91c0 1.84.1 3 .66 3.62.42.42 1.15.8 4.21.8 2.68 0 3.69-.14 4.45-.52a8.74 8.74 0 0 0 2.47-3.38.64.64 0 0 1 .87.24 30.28 30.28 0 0 1-1.57 4.84c-3.13-.07-6.23-.1-9.33-.1H195c-1.5 0-2.68 0-4.73.1a.68.68 0 0 1-.07-.87l1.15-.1c2-.17 2.16-.7 2.16-4.35V80.89zM15.07 109.51a2.23 2.23 0 0 0-1.69-.69 2.56 2.56 0 0 0 0 5.12 3.4 3.4 0 0 0 1.64-.42v-2h-1.41V111h2v2.9a4.62 4.62 0 0 1-2.24.6 3.11 3.11 0 0 1 0-6.22 2.84 2.84 0 0 1 2.14.79zm3.24 4.29h3.17v.55h-3.77v-5.92h3.67v.57h-3.07v2h2.87v.55h-2.87v2.25zm7.54.7a3.11 3.11 0 1 1 3.09-3.11 3 3 0 0 1-3.09 3.11zm0-5.67a2.56 2.56 0 1 0 2.43 2.56 2.42 2.42 0 0 0-2.43-2.56zm5.39 5.52h-.6v-5.92h1.82c1.2 0 1.95.52 1.95 1.58a1.5 1.5 0 0 1-1.51 1.53l1.71 2.81h-.74l-1.62-2.75h-1v2.75zm0-3.3h1.07c1.08 0 1.45-.47 1.45-1s-.37-1-1.45-1h-1.07V111zm9.23-1.54a2.23 2.23 0 0 0-1.69-.69 2.56 2.56 0 0 0 0 5.12 3.4 3.4 0 0 0 1.64-.42v-2H39V111h2v2.9a4.62 4.62 0 0 1-2.24.6 3.11 3.11 0 0 1 0-6.22 2.84 2.84 0 0 1 2.14.79zm3.24 4.84h-.61v-5.92h.6v5.92zm2 0H45l2.58-5.92h.59l2.58 5.92H50l-.65-1.55h-3zm.88-2.11h2.57l-1.28-3.11zm4.97-1.85H51l.56-2h.68zm5.25-.98a1.3 1.3 0 0 0-1.15-.58 1.12 1.12 0 0 0-1.26 1.07c0 1.6 3 .75 3 2.88a1.84 1.84 0 0 1-1.95 1.71 2.23 2.23 0 0 1-1.86-.88l.54-.39a1.49 1.49 0 0 0 1.35.72 1.19 1.19 0 0 0 1.27-1.08c0-1.67-3-.74-3-2.91a1.73 1.73 0 0 1 1.91-1.68 2 2 0 0 1 1.67.72zm5.19-.98h1.7c1.2 0 1.95.52 1.95 1.58s-.74 1.59-1.95 1.59h-1.12v2.75H62v-5.92zm.6 2.62h1c1.08 0 1.45-.47 1.45-1s-.37-1-1.45-1h-1V111zm8.91 1.09a2.17 2.17 0 1 1-4.33 0v-3.71h.6v3.65c0 1.71 1.11 1.87 1.56 1.87s1.56-.17 1.56-1.87v-3.65h.6v3.71zm2.01-3.71h1.76c1 0 1.91.37 1.91 1.49a1.27 1.27 0 0 1-1 1.3 1.37 1.37 0 0 1 1.34 1.48c0 .38-.25 1.64-2.16 1.64h-1.85v-5.92zm.6 2.59h1.21a1 1 0 1 0-.06-2h-1.15v2zm0 2.78h1.15c.87 0 1.55-.34 1.55-1.12s-.52-1.15-1.48-1.15h-1.22v2.27zm5.77 0h2.76v.55h-3.36v-5.92h.6v5.37zm4.68.55H84v-5.92h.6v5.92zm6.98-.94a2.61 2.61 0 0 1-2.19 1.09 3.11 3.11 0 0 1 0-6.22 2.58 2.58 0 0 1 2 .94l-.53.39a2 2 0 0 0-1.52-.78 2.56 2.56 0 0 0 0 5.12 1.9 1.9 0 0 0 1.7-.89zm4.94.39h2.76v.55h-3.36v-5.92h.6v5.37zm4.68.55h-.6v-5.92h.6v5.92zm2.11-5.92H105c1 0 1.91.37 1.91 1.49a1.28 1.28 0 0 1-1 1.3 1.37 1.37 0 0 1 1.34 1.48c0 .38-.25 1.64-2.16 1.64h-1.81v-5.92zm.6 2.59h1.21a1 1 0 1 0-.06-2h-1.15v2zm0 2.78H105c.87 0 1.55-.34 1.55-1.12s-.52-1.15-1.48-1.15h-1.23v2.27zm5.77 0h3.17v.55H109v-5.92h3.67v.57h-3.07v2h2.87v.55h-2.87v2.25zm5.46.55h-.6v-5.92h1.82c1.2 0 1.95.52 1.95 1.58a1.5 1.5 0 0 1-1.51 1.53l1.71 2.81h-.74l-1.62-2.75h-1v2.75zm0-3.3h1.07c1.08 0 1.45-.47 1.45-1s-.37-1-1.45-1h-1.07V111zm4.76 3.3h-.7l2.58-5.92h.58l2.58 5.92h-.7l-.65-1.55h-3zm.88-2.11h2.57l-1.32-3.11zm6.06 1.56h2.76v.55h-3.37v-5.92h.6v5.37zm6.8.55h-.7l2.58-5.92h.58l2.58 5.92h-.7l-.65-1.55h-3zm.88-2.11h2.57l-1.28-3.11zm6.06 2.11h-.6v-5.92h1.82c1.2 0 1.95.52 1.95 1.58a1.5 1.5 0 0 1-1.51 1.53l1.71 2.81h-.74l-1.62-2.75h-1v2.75zm0-3.3h1.07c1.08 0 1.45-.47 1.45-1s-.37-1-1.45-1h-1.07V111zm6.81 3.3h-.6V109h-2v-.55h4.57v.55h-2v5.37zm6.2-4.94a1.3 1.3 0 0 0-1.15-.58 1.12 1.12 0 0 0-1.26 1.07c0 1.6 3 .75 3 2.88a1.84 1.84 0 0 1-1.95 1.71 2.23 2.23 0 0 1-1.87-.88l.54-.39a1.49 1.49 0 0 0 1.35.72 1.19 1.19 0 0 0 1.27-1.08c0-1.67-3-.74-3-2.91a1.73 1.73 0 0 1 1.91-1.68 2 2 0 0 1 1.67.72zm9.44 2.73a2.17 2.17 0 1 1-4.33 0v-3.71h.6v3.65c0 1.71 1.11 1.87 1.56 1.87s1.56-.17 1.56-1.87v-3.65h.61v3.71zm6.25 1.3v-5h.6v5.92h-.75l-3.53-5.07v5.07H165v-5.92h.75zm3.33.91H172v-5.92h.6v5.92zm3.83-.91l1.94-5h.65l-2.31 5.92h-.6l-2.25-5.92h.67zm4.49.36h3.17v.55h-3.77v-5.92h3.7v.57h-3.1v2h2.87v.55h-2.87v2.25zm5.46.55h-.6v-5.92h1.82c1.2 0 1.95.52 1.95 1.58a1.5 1.5 0 0 1-1.51 1.53l1.71 2.81H189l-1.62-2.75h-1v2.75zm0-3.3h1.07c1.08 0 1.45-.47 1.45-1s-.37-1-1.45-1h-1.07V111zm7.64-1.64a1.3 1.3 0 0 0-1.15-.58 1.12 1.12 0 0 0-1.26 1.07c0 1.6 3 .75 3 2.88a1.84 1.84 0 0 1-1.95 1.71 2.23 2.23 0 0 1-1.87-.88l.54-.39a1.49 1.49 0 0 0 1.35.72 1.19 1.19 0 0 0 1.27-1.08c0-1.67-3-.74-3-2.91a1.73 1.73 0 0 1 1.91-1.68 2 2 0 0 1 1.67.72zm3 4.94h-.6v-5.92h.6v5.92zm4 0h-.6V109h-2v-.55h4.6v.55h-2v5.37zm5.27 0h-.6v-2.55l-2.22-3.37h.75l1.76 2.79 1.76-2.79h.75l-2.22 3.37v2.55z"/></svg>