<svg data-name="Layer 1" xmlns="http://www.w3.org/2000/svg" viewBox="0 0 558.34 161.31"><path d="M139.34 144.21a4.55 4.55 0 1 1 4.6 4.7 4.55 4.55 0 0 1-4.6-4.7m4.5 5.6a5.68 5.68 0 0 0 5.7-5.6 5.61 5.61 0 0 0-5.7-5.6 5.55 5.55 0 0 0-5.7 5.6 5.68 5.68 0 0 0 5.7 5.6m-1.1-5.2h1.1l1.7 2.8h1.1l-1.8-2.8a1.71 1.71 0 0 0 1.7-1.8c0-1.3-.8-1.8-2.3-1.8h-2.5v6.5h1zm0-.8v-2H144c.7 0 1.4.1 1.4.9 0 1-.7 1-1.6 1h-1.1zm46 1.6v-18.6h4.5v18.3c0 4.6 2.3 6.7 6.5 6.7s6.5-2.1 6.5-6.7v-18.3h4.5v18.6c0 7-4.7 10.5-11 10.5s-11-3.6-11-10.5zm51.2-6.7c-1.1-1.2-2.7-3.2-2.7-3.2a41.09 41.09 0 0 1 .3 4.1v15.8h-4.2v-29h.6l15.9 17c1.1 1.2 2.7 3.2 2.7 3.2s-.3-2.5-.3-4.1v-15.8h4.2v29h-.6zm38.6-11.9H283v28.7h-4.5zm23.46 0h4.8l6.5 15.4c.8 1.9 1.7 5.1 1.7 5.1a34.9 34.9 0 0 1 1.7-5.1l6.4-15.4h4.4l-12.3 29h-.6zm45.24 0h18.3v3.9h-13.8v8.4h12.2v3.8h-12.2v8.6h14.4v3.9h-18.9zm40.76 0h9.7c5.9 0 10.5 2.8 10.5 9.1a8.1 8.1 0 0 1-5.8 8.2l6.8 11.3h-5.1l-6.2-10.6h-5.2v10.6h-4.5v-28.6zm9.5 14.3c3.8 0 6-1.6 6-5.2s-2.2-5.2-6-5.2h-5v10.4zm29.84 8.8l3.7-2c1.4 2.2 3.1 4 6.6 4 2.9 0 5-1.6 5-3.9 0-2.5-1.7-3.6-4.8-5l-1.9-.8c-4.2-1.9-6.7-4-6.7-8.4s3.3-7.3 8.1-7.3c3.8 0 6.4 1.4 8.1 4.5l-3.5 2.2a4.82 4.82 0 0 0-4.6-2.8c-2.3 0-3.7 1.4-3.7 3.3 0 2.2 1.2 3.1 4.2 4.4l1.9.8c4.9 2.2 7.5 4.4 7.5 9 0 5-3.9 7.9-9.4 7.9s-8.9-2.7-10.5-5.9zm41.3-23.1h4.5v28.7h-4.5zm33.8 3.9h-8.6v-3.9h21.6v3.9h-8.6v24.8h-4.4zm41.9 14.2l-10-18.2h5l5.6 10.3c.8 1.6 1.7 4.1 1.7 4.1s.9-2.5 1.7-4.1l5.4-10.3h4.6l-9.6 17.9v10.8h-4.5v-10.5zm-357-115c0-14.4 10.2-24.9 25-24.9 8 0 13.8 2.1 17.8 6.7l-6.8 6.7c-2.5-2.5-5.3-4.4-11-4.4-8.9 0-14.6 6.8-14.6 15.9s5.9 16 16.2 16a24.52 24.52 0 0 0 9.6-1.8v-7.9h-11.8v-8.8h21.1v21.7c-2.8 2.3-9.9 5.6-18.8 5.6-16.1.2-26.7-10.4-26.7-24.8zm56-24.3h32.4v8.8h-22.3v11.1h19.7v8.6h-19.7v11.3h23.4v8.8h-33.4V5.61zM282 29.91c0-14.4 11.2-24.9 25.4-24.9s25.4 10.6 25.4 24.9-11.2 24.9-25.4 24.9-25.4-10.5-25.4-24.9zm40.3 0c0-9.1-6.1-16-15-16s-15 6.9-15 16 6.1 16 15 16 15.04-6.91 15.04-16zm17.24-24.3h18.2c10 0 18.2 4.6 18.2 16 0 7.4-3.9 12-9.6 14.2l11.2 18.4H366l-10-16.9h-6.4v16.9h-10.1V5.61zm17.9 23.3c5 0 8.1-1.9 8.1-7.3s-3.3-7.2-8.1-7.2h-7.8v14.5zm25.4 1c0-14.4 10.2-24.9 25-24.9 8 0 13.8 2.1 17.8 6.7l-6.8 6.7c-2.5-2.5-5.3-4.4-11-4.4-8.9 0-14.6 6.8-14.6 15.9s5.9 16 16.2 16a24.52 24.52 0 0 0 9.6-1.8v-7.9h-11.8v-8.8h21.1v21.7c-2.8 2.3-9.9 5.6-18.8 5.6-16.1.2-26.7-10.4-26.7-24.8zm56.3-24.3h10.1v48.6h-10.1zm39.5-.4h.9l22.4 49h-10.6l-2.7-6.6h-19l-2.7 6.6h-9.7zm6.3 34.1l-3.1-7.4c-1.4-3.2-2.8-8.1-3-8.6-.1.2-1.5 5.3-2.9 8.6l-3.1 7.4zm-297.6 65.8l8.2-4.7c2.2 3.5 5 6.1 10 6.1 4.2 0 6.9-2.1 6.9-4.9 0-3.4-2.7-4.6-7.4-6.6l-2.5-1.1c-7.3-3.1-12.1-6.9-12.1-15.1 0-7.5 5.8-13.2 14.8-13.2 6.4 0 11.1 2.2 14.4 8l-7.9 5c-1.7-3.1-3.6-4.3-6.5-4.3s-4.8 1.9-4.8 4.3c0 3 1.9 4.2 6.2 6.1l2.5 1.1c8.6 3.6 13.4 7.4 13.4 15.7 0 9-7.2 13.9-16.8 13.9-9.4-.1-15.4-4.5-18.4-10.3zm39.6-14.7c0-14.4 11.3-24.9 25.4-24.9s25.4 10.6 25.4 24.9-11.3 24.9-25.4 24.9-25.4-10.6-25.4-24.9zm40.5 0c0-9.1-6.1-16-15-16s-15 6.9-15 16 6.1 16 15 16 15-7 15-16zm18.4 6.7v-31h10.1v30.4c0 7.1 3.1 9.8 9.8 9.8s9.7-2.7 9.7-9.8v-30.4h10.1v31c0 12.3-8.6 18.2-19.8 18.2s-19.9-5.9-19.9-18.2zm60.6-22.3h-14V66h38.2v8.8h-14v39.8h-10.2zm31.3-8.7h10.1v20.6h21v-20.6h10.1v48.6h-10.1v-19.1h-21v19.1h-10.1zm51.1 0h32.5v8.8h-22.4V86h19.7v8.6h-19.7v11.3h23.5v8.8h-33.5V66.11zm44 0H491c10 0 18.3 4.6 18.3 16 0 7.4-3.9 12-9.6 14.2l11.2 18.4h-11.5l-10-16.9H483v16.9h-10.1v-48.6zm18 23.3c5 0 8.2-1.9 8.2-7.3s-3.3-7.2-8.2-7.2H483v14.5zm41.7 2.7a72.53 72.53 0 0 1-5.9-6.6 88.55 88.55 0 0 1 .7 8.9v20.4h-9.5v-49h1l24.8 23a67.88 67.88 0 0 1 5.8 6.6s-.7-5.5-.7-8.9v-20.4h9.5v49h-1z" fill="#003876"/><path d="M139.41 144.26a4.54 4.54 0 1 1 4.56 4.67 4.52 4.52 0 0 1-4.56-4.67zm4.56 5.59a5.58 5.58 0 1 0-5.68-5.59 5.58 5.58 0 0 0 5.71 5.59zm-1.18-5.14h1.12l1.69 2.79h1.09l-1.83-2.84a1.67 1.67 0 0 0 1.66-1.77c0-1.28-.75-1.84-2.26-1.84h-2.45v6.45h1v-2.79zm0-.84v-2h1.32c.68 0 1.4.15 1.4.95 0 1-.73 1-1.56 1z" fill="#003876"/><path d="M80.67 161.31A80.66 80.66 0 1 0 0 80.66a80.67 80.67 0 0 0 80.67 80.65z" fill="#fff"/><path d="M15.34 46.41c7.21-15.9 21.25-28.2 37.43-35a74.34 74.34 0 0 1 83.68 18.87c19.44 21.82 24.95 53.62 13 79.77 4.47-13 4.94-29.95-8.64-37.83-10.81-6.32-33.75-10.6-50.55-5.82 1.32.85 5.08.95 5 1.29-.89 3.36-3 3.76-5 4-6.53.85-11.06-4.72-16.54-7.26-1.37-.63-2.92.1-4.26-.65h33.42c3.38-.33 2.39-5.6-.34-7.11-10.75-5.93-22.33-8.37-34.4-9.89-17.82-2.25-35.21-1.13-52.8-.37z" fill="#003876"/><path d="M16.83 97.13c-1.24 1.43-3.62 5.2-3.53 11.68l-1.3-2.76a65.63 65.63 0 0 1-2.63-8.63c-.3-1.21 8.49-2.39 8.54-1.6zm9.34 32.24c-6.2-6.61-11.85-17.06-12-18.45-.1-1 12.5-2 12.38-1.43-.52 2.09-2.78 5.39-.68 18.35zm10.37 9.98a65.73 65.73 0 0 0 9.34 5.91c-6.51-9.78-6.45-20.08-5.68-22.76.17-.57-6.34 2-11.48 9.76-.16.24 3.57 3.74 7.82 7.09zM9 95s.87-6.53 3.05-7.86l-4.51-4.81c-.38.92.7 10.59 1.46 12.67zm40.78 52.76c1.22-7.76 5.54-14.19 10.59-20.25 7.51-9 17-15.07 27.83-19 14.27-5.18 29.78-7.8 44.51-2.89 4.25 1.41 8.08 4.09 9.81 8.39a11.11 11.11 0 0 1 .6 4.23 13.61 13.61 0 0 1-3.18 8.17 69.33 69.33 0 0 1-42.3 26.77c-16.53 3.47-33.24 2.42-47.86-5.42z" fill="#9a8348"/></svg>