<svg data-name="Layer 1" xmlns="http://www.w3.org/2000/svg" viewBox="0 0 261.14 118.58"><path d="M73.9 35.28H71Q67.82 25 61.53 19.68a22.65 22.65 0 0 0-15.16-5.34 25.26 25.26 0 0 0-19.52 8.39q-7.65 8.39-7.65 21.48A42.54 42.54 0 0 0 22.06 60a34.67 34.67 0 0 0 8.34 12.48 32.36 32.36 0 0 0 10.14 6.62 30.7 30.7 0 0 0 11.76 2.3q4.31 0 5.78-1.41t1.47-6.18v-7.23q0-8.16-2.92-10.9t-12.24-3.62l.05-2.72q5.12.15 10 .23t9.51.08q4.71 0 9.15-.08t8.59-.23l.05 2.72q-4.82 1.13-6.41 3.08t-1.6 9.44v11.13h5.93v2.51a108.08 108.08 0 0 1-17.9 6 72.08 72.08 0 0 1-16.38 2Q26 86.23 14.3 75.79T2.56 48.21a37 37 0 0 1 2.69-14.29 38.3 38.3 0 0 1 8.21-12.13 40 40 0 0 1 14.73-9.21 55.78 55.78 0 0 1 19.25-3.16A67.73 67.73 0 0 1 60 10.65a98.43 98.43 0 0 1 13.94 3.8zm13.03 48.94l-.05-2.82q7.71-1 10.24-4.34t2.54-15.73V33.9q0-12.42-2.54-15.72t-10.24-4.34V11q5.17.15 10.27.23t10.22.08q5.12 0 10.24-.08T127.8 11v2.82a38.14 38.14 0 0 0-7.88 2 8.89 8.89 0 0 0-3.92 2.84 10 10 0 0 0-1.7 4.64 79.15 79.15 0 0 0-.48 10.59v9.23h37.57V33.9a75.44 75.44 0 0 0-.51-10.59 10.58 10.58 0 0 0-1.67-4.64 9.29 9.29 0 0 0-4-2.82 38.14 38.14 0 0 0-7.88-2V11q5.22.15 10.29.23t10.19.08q5.12 0 10.24-.08t10.2-.23v2.82q-7.71 1-10.24 4.34t-2.54 15.74v27.44q0 12.42 2.54 15.73t10.24 4.34v2.82q-5-.15-10.14-.23t-10.29-.08q-5.17 0-10.24.08t-10.19.23l-.05-2.82a39.82 39.82 0 0 0 7.88-2.05 9.28 9.28 0 0 0 4-2.82 10.21 10.21 0 0 0 1.67-4.62 75.5 75.5 0 0 0 .51-10.57V49.44h-37.6v11.9a79.21 79.21 0 0 0 .48 10.57 9.62 9.62 0 0 0 1.7 4.62 8.88 8.88 0 0 0 3.93 2.82 39.81 39.81 0 0 0 7.88 2.05v2.82q-5-.15-10.14-.23t-10.29-.08q-5.17 0-10.27.08t-10.16.23zm166.81-69.36v20.93h-3.24q-2.5-10.92-8.12-16.23t-14.6-5.31q-11.26 0-18.76 9.13t-7.5 23.14a44 44 0 0 0 1.37 11.08 38.43 38.43 0 0 0 4 9.8 29.89 29.89 0 0 0 9.84 10.41 23.48 23.48 0 0 0 12.73 3.69 20.78 20.78 0 0 0 14.45-5.87q6.39-5.87 11.05-17.57l3.14.82q-1.37 7-3 12.75a79.79 79.79 0 0 1-3.62 10.18 46.26 46.26 0 0 1-10.55 3.31 65.22 65.22 0 0 1-12.32 1.1q-20.08 0-31.89-10.08t-11.83-27.21a40.15 40.15 0 0 1 2.79-15.13 36.32 36.32 0 0 1 8.21-12.31 39.62 39.62 0 0 1 14.4-9 53.39 53.39 0 0 1 18.51-3.1 59.35 59.35 0 0 1 12.68 1.36 61.9 61.9 0 0 1 12.26 4.11zM14.05 103h-.54a5.94 5.94 0 0 0-1.76-2.85 4.22 4.22 0 0 0-2.81-1 4.7 4.7 0 0 0-3.61 1.53 5.56 5.56 0 0 0-1.42 3.93 7.69 7.69 0 0 0 .53 2.89A6.33 6.33 0 0 0 6 109.79 6 6 0 0 0 7.88 111a5.75 5.75 0 0 0 2.18.42 1.6 1.6 0 0 0 1.07-.26 1.63 1.63 0 0 0 .27-1.16v-1.32a2.74 2.74 0 0 0-.54-2 4.1 4.1 0 0 0-2.27-.66v-.5h6.9v.5a2.19 2.19 0 0 0-1.19.56 3.15 3.15 0 0 0-.3 1.73v2h1.1v.46a20.15 20.15 0 0 1-3.31 1.09 13.47 13.47 0 0 1-3 .37A8.39 8.39 0 0 1 3 110.4a6.39 6.39 0 0 1-2.17-5 6.7 6.7 0 0 1 .5-2.61 7 7 0 0 1 1.52-2.22 7.42 7.42 0 0 1 2.73-1.69 10.44 10.44 0 0 1 3.56-.58 12.7 12.7 0 0 1 2.32.23 18.43 18.43 0 0 1 2.58.69zm2.28 8.94v-.36a2 2 0 0 0 1.33-.56 3.85 3.85 0 0 0 .33-2v-3.52a3.85 3.85 0 0 0-.33-2 2 2 0 0 0-1.33-.56v-.36H24.21L24 105h-.41a1.82 1.82 0 0 0-.61-1.44 3.33 3.33 0 0 0-1.92-.41h-1.25v3.51h1.33a2.42 2.42 0 0 0 1.36-.29 1.58 1.58 0 0 0 .57-1h.35q0 .69-.06 1.24t0 1v.69q0 .34.06.66H23a1.82 1.82 0 0 0-.56-1.08 2.25 2.25 0 0 0-1.32-.29h-1.31v1.7a9.88 9.88 0 0 0 0 1.19 1.13 1.13 0 0 0 .17.52 1.1 1.1 0 0 0 .54.37 2.66 2.66 0 0 0 .87.13 3.06 3.06 0 0 0 2-.62 3.44 3.44 0 0 0 1-2h.41v.2a9.3 9.3 0 0 1-.11 1.38 16 16 0 0 1-.33 1.61H16.33zm9.75-4.66a5.14 5.14 0 0 1 .39-2.07 4.43 4.43 0 0 1 1.21-1.6 5 5 0 0 1 1.64-.92 6.56 6.56 0 0 1 4 0 5 5 0 0 1 1.65.92 4.37 4.37 0 0 1 1.2 1.59 5.77 5.77 0 0 1 0 4.17A4.31 4.31 0 0 1 35 111a4.9 4.9 0 0 1-1.65.92 6.56 6.56 0 0 1-4 0 4.91 4.91 0 0 1-1.64-.92 4.37 4.37 0 0 1-1.21-1.59 5.16 5.16 0 0 1-.42-2.13zm2.17-.3a5.68 5.68 0 0 0 .91 3.31 2.7 2.7 0 0 0 2.28 1.3 2.59 2.59 0 0 0 2.17-1.11 4.8 4.8 0 0 0 .83-2.94 5.62 5.62 0 0 0-.91-3.3 2.72 2.72 0 0 0-2.3-1.3 2.57 2.57 0 0 0-2.16 1.11 4.78 4.78 0 0 0-.82 2.95zm9.33 4.96v-.36a2 2 0 0 0 1.37-.54 3.83 3.83 0 0 0 .34-2v-3.5a10.37 10.37 0 0 0-.06-1.27 1.78 1.78 0 0 0-.19-.68 1.15 1.15 0 0 0-.51-.38 4.13 4.13 0 0 0-1-.25v-.35l2.4-.07h1.45a6.68 6.68 0 0 1 3.17.58 1.92 1.92 0 0 1 1 1.79 2 2 0 0 1-.44 1.27 3.22 3.22 0 0 1-1.28.94 13.07 13.07 0 0 0 2.2 3.2 5.33 5.33 0 0 0 2.45 1.48v.37q-1.07 0-1.77-.11a8.11 8.11 0 0 1-1.16-.19 2.51 2.51 0 0 1-.94-.51 5 5 0 0 1-.9-1q-.39-.55-.85-1.32t-.6-.95a.87.87 0 0 0-.42-.27 3.33 3.33 0 0 0-.8-.13V109a11.23 11.23 0 0 0 .06 1.42 1.15 1.15 0 0 0 .19.52 1.43 1.43 0 0 0 .65.41 6.27 6.27 0 0 0 1.21.28v.36H38.92zm3.55-8.94v4.13a3.46 3.46 0 0 0 1.84-.67 1.75 1.75 0 0 0 .61-1.4 1.8 1.8 0 0 0-.65-1.45 2.91 2.91 0 0 0-1.8-.61zM58 105.67h-.37a4.16 4.16 0 0 0-1.23-2 3 3 0 0 0-2-.68 3.29 3.29 0 0 0-2.53 1.07 3.89 3.89 0 0 0-1 2.75 5.39 5.39 0 0 0 .37 2 4.44 4.44 0 0 0 1.08 1.6 4.19 4.19 0 0 0 1.31.85 4 4 0 0 0 1.52.3 1.12 1.12 0 0 0 .75-.18 1.14 1.14 0 0 0 .19-.79v-.93a1.92 1.92 0 0 0-.38-1.4 2.87 2.87 0 0 0-1.59-.46v-.35h4.82v.35a1.53 1.53 0 0 0-.83.39 2.2 2.2 0 0 0-.21 1.21v1.43h.77v.32a14.14 14.14 0 0 1-2.32.77 9.43 9.43 0 0 1-2.12.26 5.87 5.87 0 0 1-4-1.34 4.47 4.47 0 0 1-1.52-3.53 4.69 4.69 0 0 1 .35-1.83 4.91 4.91 0 0 1 1.06-1.55 5.2 5.2 0 0 1 1.91-1.18 7.31 7.31 0 0 1 2.49-.4 8.89 8.89 0 0 1 1.62.16A12.93 12.93 0 0 1 58 103zm1.69 6.27v-.36a2.06 2.06 0 0 0 1.41-.58 3.73 3.73 0 0 0 .35-2v-3.5a3.73 3.73 0 0 0-.35-2 2.07 2.07 0 0 0-1.41-.53v-.36h5.35v.36a2.07 2.07 0 0 0-1.4.52 3.76 3.76 0 0 0-.35 2V109a3.76 3.76 0 0 0 .35 2 2.06 2.06 0 0 0 1.4.53v.36H61zm5.67 0v-.35q1.07-.17 1.81-2l.06-.14 2.43-6-.11-.49a3.09 3.09 0 0 0 .72-.44 2.28 2.28 0 0 0 .5-.59h.27l2.88 7.55v.12q.67 1.75 1.85 2v.35H71.2v-.35a1.86 1.86 0 0 0 .86-.27.66.66 0 0 0 .27-.56 2 2 0 0 0-.09-.52q-.09-.31-.4-1.11l-.35-.87h-3l-.32.93q-.19.59-.26.87a2 2 0 0 0-.07.47.83.83 0 0 0 .37.75 3 3 0 0 0 1.3.32v.35h-3.18zm3.48-4.57h2.36l-1.2-3.18zm12.87 4.57v-.52a2.81 2.81 0 0 0 1.9-.79 5.5 5.5 0 0 0 .47-2.88v-5a5.5 5.5 0 0 0-.47-2.88 2.81 2.81 0 0 0-1.9-.79v-.52H89.29v.52a7.11 7.11 0 0 0-1.46.37 1.64 1.64 0 0 0-.73.52 1.81 1.81 0 0 0-.31.85 14.3 14.3 0 0 0-.09 1.94v1.69h7v-1.69a13.64 13.64 0 0 0-.09-1.94 1.92 1.92 0 0 0-.31-.85 1.72 1.72 0 0 0-.74-.52 7.11 7.11 0 0 0-1.56-.39v-.52H98.58v.52a2.81 2.81 0 0 0-1.9.79 5.49 5.49 0 0 0-.47 2.88v5a5.49 5.49 0 0 0 .47 2.88 2.81 2.81 0 0 0 1.9.79v.52H91.01v-.52a7.45 7.45 0 0 0 1.46-.38 1.71 1.71 0 0 0 .74-.52 1.85 1.85 0 0 0 .31-.84 13.64 13.64 0 0 0 .09-1.93v-2.18h-7v2.18a14.3 14.3 0 0 0 .09 1.93 1.75 1.75 0 0 0 .31.84 1.64 1.64 0 0 0 .73.52 7.45 7.45 0 0 0 1.46.38v.52H83.59zm17.66 0v-.36a2.06 2.06 0 0 0 1.41-.53 3.73 3.73 0 0 0 .35-2v-3.55a3.73 3.73 0 0 0-.35-2 2.07 2.07 0 0 0-1.41-.53v-.36H104.73v.36a2.07 2.07 0 0 0-1.4.52 3.76 3.76 0 0 0-.35 2V109a3.76 3.76 0 0 0 .35 2 2.06 2.06 0 0 0 1.4.53v.36h-4.01zm15.51-6.27h-.37a4.16 4.16 0 0 0-1.23-2 3 3 0 0 0-2-.68 3.29 3.29 0 0 0-2.53 1.07 3.89 3.89 0 0 0-1 2.75 5.39 5.39 0 0 0 .37 2 4.44 4.44 0 0 0 1.08 1.6 4.19 4.19 0 0 0 1.31.85 4 4 0 0 0 1.52.3 1.12 1.12 0 0 0 .75-.18 1.14 1.14 0 0 0 .19-.79v-.93a1.92 1.92 0 0 0-.38-1.4 2.87 2.87 0 0 0-1.59-.46v-.35h4.82v.35a1.53 1.53 0 0 0-.83.39 2.2 2.2 0 0 0-.21 1.21v1.43h.77v.32a14.14 14.14 0 0 1-2.32.77 9.43 9.43 0 0 1-2.12.26 5.87 5.87 0 0 1-4-1.34 4.47 4.47 0 0 1-1.52-3.53 4.69 4.69 0 0 1 .35-1.83 4.91 4.91 0 0 1 1.06-1.55 5.2 5.2 0 0 1 1.91-1.18 7.31 7.31 0 0 1 2.49-.4 8.89 8.89 0 0 1 1.62.16 12.93 12.93 0 0 1 1.81.49zm1.69 6.27v-.36a2 2 0 0 0 1.33-.56 3.85 3.85 0 0 0 .33-2v-3.52a3.85 3.85 0 0 0-.33-2 2 2 0 0 0-1.33-.56v-.36h5.3v.36a5 5 0 0 0-1 .26 1.15 1.15 0 0 0-.51.36 1.26 1.26 0 0 0-.22.59 10 10 0 0 0-.06 1.36v1.18h4.87v-1.19a9.6 9.6 0 0 0-.07-1.36 1.35 1.35 0 0 0-.22-.59 1.21 1.21 0 0 0-.52-.36 5 5 0 0 0-1-.26v-.36h5.3v.36a2 2 0 0 0-1.33.56 3.84 3.84 0 0 0-.33 2V109a3.84 3.84 0 0 0 .33 2 2 2 0 0 0 1.33.56v.36h-5.29v-.36a5.24 5.24 0 0 0 1-.26 1.21 1.21 0 0 0 .52-.36 1.3 1.3 0 0 0 .22-.59 9.6 9.6 0 0 0 .07-1.35v-1.52H120V109a10 10 0 0 0 .06 1.35 1.22 1.22 0 0 0 .22.59 1.15 1.15 0 0 0 .51.36 5.25 5.25 0 0 0 1 .26v.36h-3.97zm21.05-3.35l.37.16L137 112l-2.16-.06h-5.96v-.36a2 2 0 0 0 1.36-.54 3.84 3.84 0 0 0 .33-2v-3.54a3.84 3.84 0 0 0-.33-2 2 2 0 0 0-1.36-.54v-.36H134.18v.36a2.06 2.06 0 0 0-1.44.51 3.76 3.76 0 0 0-.35 2.06V110.34q0 .45.08.91l.68.08h.58a3.8 3.8 0 0 0 2.26-.64 5.4 5.4 0 0 0 1.63-2.1zm-.17 3.35v-.35q1.07-.17 1.81-2l.06-.14 2.43-6-.1-.49a3.09 3.09 0 0 0 .72-.44 2.28 2.28 0 0 0 .5-.59h.27l2.88 7.55v.12q.67 1.75 1.85 2v.35h-4.63v-.35a1.86 1.86 0 0 0 .86-.27.66.66 0 0 0 .27-.56 2 2 0 0 0-.09-.52q-.09-.31-.4-1.11l-.35-.87h-3l-.32.93q-.19.59-.26.87a2 2 0 0 0-.07.47.83.83 0 0 0 .37.75 3 3 0 0 0 1.3.32v.35h-3.23zm3.48-4.57h2.36l-1.23-3.18zm6.99 4.57v-.36a3.47 3.47 0 0 0 .8-.26 1.22 1.22 0 0 0 .47-.38 2.15 2.15 0 0 0 .3-.93q.1-.65.15-2.49v-1.4-.24-.75a2.37 2.37 0 0 0-.42-1.57 2.33 2.33 0 0 0-1.47-.64v-.36h3.09v.05q1.64 1.93 2 2.38l4 4.42q0-2.72-.06-3.85a8.15 8.15 0 0 0-.2-1.64 1.05 1.05 0 0 0-.56-.7 3.24 3.24 0 0 0-1.29-.29v-.36h4.1v.36a1.64 1.64 0 0 0-.78.27 1 1 0 0 0-.38.58 13.44 13.44 0 0 0-.18 2q-.06 1.45-.06 3.79v1.36q0 .56.07 1l-.54.35-1.26-1.4-.73-.8-4.88-5.22v1.73a16.74 16.74 0 0 0 .26 4 1.08 1.08 0 0 0 .51.54 5.69 5.69 0 0 0 1.3.43v.36h-3.64zm11.7 0v-.36A2 2 0 0 0 161 111a3.8 3.8 0 0 0 .34-2v-3.5a10.37 10.37 0 0 0-.06-1.27 1.7 1.7 0 0 0-.19-.68 1.11 1.11 0 0 0-.5-.38 4.14 4.14 0 0 0-1-.25v-.35l1.72-.1h1.43a19 19 0 0 1 2.7.15 7.32 7.32 0 0 1 1.85.51 4.65 4.65 0 0 1 2.11 1.69 4.45 4.45 0 0 1 .75 2.55 4.09 4.09 0 0 1-1.54 3.32 6.27 6.27 0 0 1-4.1 1.26zm3.54-8.91v6.2a7 7 0 0 0 0 1 1.53 1.53 0 0 0 .17.53 1.17 1.17 0 0 0 .55.48 2.08 2.08 0 0 0 .87.16 2.85 2.85 0 0 0 2.28-1 4 4 0 0 0 .89-2.7 4.33 4.33 0 0 0-1.21-3.28 5.59 5.59 0 0 0-3.54-1.42zm8.26 5.63l.36-.06a5.18 5.18 0 0 0 1.23 2.2 2.47 2.47 0 0 0 1.77.79 1.47 1.47 0 0 0 1.11-.43 1.6 1.6 0 0 0 .42-1.16q0-1-2-2.13l-.16-.09a6.1 6.1 0 0 1-1.71-1.31 2.12 2.12 0 0 1-.45-1.34 2.44 2.44 0 0 1 1-2 3.79 3.79 0 0 1 2.47-.78 4.7 4.7 0 0 1 1.23.16 4.43 4.43 0 0 1 1.13.49l-.2 2.41h-.41a4 4 0 0 0-.68-1.83 1.5 1.5 0 0 0-1.23-.63 1.45 1.45 0 0 0-1.05.42 1.37 1.37 0 0 0-.43 1q0 1 2 2.16l.18.11a6.34 6.34 0 0 1 1.82 1.41 2.32 2.32 0 0 1 .41 1.39 2.41 2.41 0 0 1-1 2 3.89 3.89 0 0 1-2.49.78 5.88 5.88 0 0 1-1.52-.2 6 6 0 0 1-1.44-.6q-.13-.81-.21-1.48t-.15-1.28zM198 99.25v3.83h-.6a5.7 5.7 0 0 0-1.5-3 3.8 3.8 0 0 0-2.7-1 4.34 4.34 0 0 0-3.47 1.67 6.4 6.4 0 0 0-1.39 4.23 8 8 0 0 0 .25 2 7 7 0 0 0 .74 1.79 5.49 5.49 0 0 0 1.82 1.91 4.38 4.38 0 0 0 2.36.68 3.87 3.87 0 0 0 2.68-1.07 8.66 8.66 0 0 0 2-3.21l.58.15q-.25 1.29-.56 2.33a14.46 14.46 0 0 1-.67 1.86 8.59 8.59 0 0 1-2 .61 12.19 12.19 0 0 1-2.28.2 8.86 8.86 0 0 1-5.9-1.84 6.18 6.18 0 0 1-2.19-5 7.27 7.27 0 0 1 .52-2.77 6.64 6.64 0 0 1 1.52-2.25 7.35 7.35 0 0 1 2.79-1.55 10 10 0 0 1 3.43-.57 11.13 11.13 0 0 1 2.35.25 11.56 11.56 0 0 1 2.22.75zm2 8.03a5.14 5.14 0 0 1 .39-2.07 4.43 4.43 0 0 1 1.21-1.6 5 5 0 0 1 1.64-.92 6.56 6.56 0 0 1 4 0 5 5 0 0 1 1.65.92 4.37 4.37 0 0 1 1.2 1.59 5.77 5.77 0 0 1 0 4.17A4.31 4.31 0 0 1 209 111a4.9 4.9 0 0 1-1.65.92 6.56 6.56 0 0 1-4 0 4.91 4.91 0 0 1-1.64-.92 4.37 4.37 0 0 1-1.21-1.59 5.16 5.16 0 0 1-.5-2.13zm2.17-.3a5.68 5.68 0 0 0 .91 3.31 2.7 2.7 0 0 0 2.28 1.3 2.59 2.59 0 0 0 2.17-1.11 4.8 4.8 0 0 0 .83-2.94 5.62 5.62 0 0 0-.91-3.3 2.72 2.72 0 0 0-2.3-1.3 2.57 2.57 0 0 0-2.16 1.11 4.78 4.78 0 0 0-.78 2.95zm17.9 1.61l.37.16-1 3.23-2.16-.06h-5.96v-.36a2 2 0 0 0 1.36-.54 3.84 3.84 0 0 0 .33-2v-3.52a3.84 3.84 0 0 0-.33-2 2 2 0 0 0-1.36-.54v-.36H216.62v.36a2.06 2.06 0 0 0-1.44.51 3.76 3.76 0 0 0-.35 2.06V110.34q0 .45.08.91l.68.08h.58a3.8 3.8 0 0 0 2.26-.64 5.4 5.4 0 0 0 1.64-2.1zm9.22 0l.37.16-1 3.23-2.17-.06h-5.95v-.36a2 2 0 0 0 1.36-.54 3.84 3.84 0 0 0 .34-2v-3.52a3.84 3.84 0 0 0-.34-2 2 2 0 0 0-1.36-.54v-.36H225.84v.36a2.06 2.06 0 0 0-1.44.51 3.75 3.75 0 0 0-.35 2.06V110.34q0 .45.08.91l.68.08h.58a3.8 3.8 0 0 0 2.26-.64 5.4 5.4 0 0 0 1.64-2.1zm.62 3.35v-.36a2 2 0 0 0 1.33-.56 3.85 3.85 0 0 0 .33-2v-3.52a3.85 3.85 0 0 0-.33-2 2 2 0 0 0-1.33-.56v-.36H237.79l-.23 2.46h-.41a1.82 1.82 0 0 0-.61-1.44 3.33 3.33 0 0 0-1.92-.41h-1.24v3.51h1.33a2.42 2.42 0 0 0 1.36-.29 1.58 1.58 0 0 0 .57-1h.36q0 .69-.06 1.24t0 1v.69q0 .34.06.66h-.39a1.82 1.82 0 0 0-.56-1.08 2.25 2.25 0 0 0-1.32-.29h-1.33v1.7a9.88 9.88 0 0 0 0 1.19 1.13 1.13 0 0 0 .17.52 1.1 1.1 0 0 0 .54.37 2.66 2.66 0 0 0 .87.13 3.06 3.06 0 0 0 2-.62 3.45 3.45 0 0 0 1-2h.41v.2a9.31 9.31 0 0 1-.11 1.38 15.93 15.93 0 0 1-.34 1.61h-8.15zm19-6.27h-.37a4.16 4.16 0 0 0-1.23-2 3 3 0 0 0-2-.68 3.29 3.29 0 0 0-2.53 1.07 3.89 3.89 0 0 0-1 2.75 5.39 5.39 0 0 0 .37 2 4.44 4.44 0 0 0 1.08 1.6 4.19 4.19 0 0 0 1.31.85 4 4 0 0 0 1.52.3 1.12 1.12 0 0 0 .75-.18 1.14 1.14 0 0 0 .19-.79v-.93a1.92 1.92 0 0 0-.38-1.4 2.87 2.87 0 0 0-1.59-.46v-.35h4.82v.35a1.53 1.53 0 0 0-.83.39 2.2 2.2 0 0 0-.21 1.21v1.43h.77v.32a14.14 14.14 0 0 1-2.32.77 9.43 9.43 0 0 1-2.12.26 5.87 5.87 0 0 1-4-1.34 4.47 4.47 0 0 1-1.52-3.53 4.69 4.69 0 0 1 .35-1.83 4.91 4.91 0 0 1 1.06-1.55 5.2 5.2 0 0 1 1.91-1.18 7.31 7.31 0 0 1 2.49-.4 8.89 8.89 0 0 1 1.62.16 12.93 12.93 0 0 1 1.81.49zm1.69 6.27v-.36a2 2 0 0 0 1.33-.56 3.85 3.85 0 0 0 .33-2v-3.52a3.85 3.85 0 0 0-.33-2 2 2 0 0 0-1.33-.56v-.36H258.48l-.23 2.46h-.41a1.82 1.82 0 0 0-.61-1.44 3.33 3.33 0 0 0-1.92-.41h-1.24v3.51h1.33a2.42 2.42 0 0 0 1.36-.29 1.58 1.58 0 0 0 .57-1h.35q0 .69-.06 1.24t0 1v.69q0 .34.06.66h-.39a1.82 1.82 0 0 0-.56-1.08 2.25 2.25 0 0 0-1.32-.29h-1.33v1.7a9.88 9.88 0 0 0 0 1.19 1.13 1.13 0 0 0 .17.52 1.1 1.1 0 0 0 .54.37 2.66 2.66 0 0 0 .87.13 3.06 3.06 0 0 0 2-.62 3.45 3.45 0 0 0 1-2h.41v.2a9.31 9.31 0 0 1-.11 1.38 15.93 15.93 0 0 1-.34 1.61h-8.02z" fill="#004990"/><path fill="none" stroke="#f58025" stroke-miterlimit="10" stroke-width="3" d="M0 117.08L261.14 117.08"/><path fill="none" stroke="#f58025" stroke-miterlimit="10" stroke-width="3" d="M0 93.27L261.14 93.27"/><path fill="none" stroke="#f58025" stroke-miterlimit="10" stroke-width="3" d="M0 1.5L261.14 1.5"/></svg>