<svg id="Layer_1" data-name="Layer 1" xmlns="http://www.w3.org/2000/svg" viewBox="0 0 70 70"><defs><style>.cls-1{fill:#003876;}.cls-2{fill:#fff;}.cls-3{fill:#9a8348;}</style></defs><title>georgia-southern-university_icon</title><path class="cls-1" d="M60.46,62.58a2,2,0,1,1,0,.09v-.09m2,2.43a2.47,2.47,0,0,0,2.47-2.43,2.44,2.44,0,0,0-2.44-2.43h0a2.41,2.41,0,0,0-2.48,2.34v.09A2.47,2.47,0,0,0,62.42,65m-.48-2.26h.48L63.15,64h.48l-.78-1.22a.74.74,0,0,0,.74-.74v0c0-.56-.35-.78-1-.78H61.5V64h.44Zm0-.34v-.87h.54c.31,0,.61,0,.61.39s-.3.43-.69.43h-.48Z"/><path class="cls-1" d="M60.49,62.6a2,2,0,1,1,0,.09Zm2,2.43A2.42,2.42,0,1,0,60,62.6,2.43,2.43,0,0,0,62.47,65h0ZM62,62.8h.49L63.18,64h.47l-.79-1.23a.73.73,0,0,0,.72-.73v0c0-.56-.33-.8-1-.8H61.53V64H62V62.8Zm0-.37v-.87h.57c.3,0,.61.07.61.42s-.32.43-.68.43Z"/><path class="cls-2" d="M35,70A35,35,0,1,0,0,35H0A35,35,0,0,0,35,70Z"/><path class="cls-1" d="M6.66,20.14C9.78,13.24,15.88,7.91,22.9,5a32.25,32.25,0,0,1,36.31,8.18C67.64,22.61,70,36.41,64.85,47.76c1.94-5.64,2.14-13-3.75-16.42-4.69-2.74-14.64-4.6-21.93-2.52.57.37,2.2.41,2.17.56a2.13,2.13,0,0,1-2.17,1.73c-2.84.37-4.8-2.05-7.18-3.15-.6-.27-1.27.05-1.85-.28h14.5c1.47-.14,1-2.43-.15-3.09C39.83,22,34.8,21,29.57,20.3,21.83,19.33,14.29,19.81,6.66,20.14Z"/><path class="cls-3" d="M7.3,42.15a7.54,7.54,0,0,0-1.53,5.07L5.21,46a27.32,27.32,0,0,1-1.14-3.74c-.13-.53,3.68-1,3.7-.7Z"/><path class="cls-3" d="M11.36,56.14a29.37,29.37,0,0,1-5.21-8c0-.43,5.42-.86,5.37-.62-.23.91-1.21,2.34-.29,8Z"/><path class="cls-3" d="M15.86,60.47A28,28,0,0,0,19.91,63c-2.83-4.25-2.8-8.72-2.47-9.88.08-.25-2.75.87-5,4.23A20.36,20.36,0,0,0,15.86,60.47Z"/><path class="cls-3" d="M3.91,41.23s.37-2.84,1.32-3.41l-2-2.09A23.83,23.83,0,0,0,3.91,41.23Z"/><path class="cls-3" d="M21.6,64.12c.53-3.37,2.4-6.16,4.6-8.79a27.52,27.52,0,0,1,12.07-8.24c6.19-2.25,12.92-3.39,19.32-1.26a6.62,6.62,0,0,1,4.25,3.65,4.55,4.55,0,0,1,.26,1.83,5.88,5.88,0,0,1-1.38,3.55A30.08,30.08,0,0,1,42.37,66.47C35.2,68,27.94,67.52,21.6,64.12Z"/></svg>