<svg id="Layer_1" data-name="Layer 1" xmlns="http://www.w3.org/2000/svg" viewBox="0 0 66.35 70"><defs><style>.cls-1{fill:#0058a8;}</style></defs><title>georgia-state_icon</title><path class="cls-1" d="M1.39,26.85C1,29.68.57,38.33,5.71,45.1c4.77,6.3,10.57,9,11.5,17A8.69,8.69,0,0,1,17,65.73C6.21,59.16,0,50,0,36.56A34,34,0,0,1,1.39,26.85Z"/><path class="cls-1" d="M20.21,5.51a20,20,0,0,0-5.86,6.16C2.11,34.22,27,43.84,26.07,59.31a19.6,19.6,0,0,1-2.58,9.18,30.48,30.48,0,0,1-4.41-1.76,14.27,14.27,0,0,0,.36-10.17C17.13,48.85,5.78,40.47,5.58,28.69,5.41,19.49,10.35,9.35,20.21,5.51Zm17.6,28.12H66.13c.16,2.21.22,3.67.22,4.71,0,12.12-5.72,20.28-15.67,26.61a33.39,33.39,0,0,1-16.62,5c5.35-5.16,9.53-12.44,9.09-20.59C42.77,42.14,40,38.57,37.81,33.63Z"/><path class="cls-1" d="M34.21,0c-1.84,1.13-12.55,8.06-9.13,24.13C26.91,32.93,37.77,43,37.33,54.25c-.32,8.08-5,14-6.21,15.71a27.15,27.15,0,0,1-5-.71,30.61,30.61,0,0,0,4.19-11.66c1.53-14.72-13.44-21.1-12.8-36.12C18,10.89,24,3.4,34.21,0Z"/></svg>