<svg data-name="Layer 1" xmlns="http://www.w3.org/2000/svg" viewBox="0 0 279.1 149.8"><path d="M37.2 73.1C15 73.1.1 57.3.1 37.1a37.19 37.19 0 0 1 8.3-23.9A33.36 33.36 0 0 1 34.7.3c8.6 0 13.4.8 15.9.8A10 10 0 0 0 55.1 0v18.1c-3.6-3.6-9.7-5.8-19.2-5.8-12.9 0-23.3 10.5-23.3 24s10.5 24.1 24.9 24.1c3.5 0 7.1-1.2 11.2-3.2V42.3H36.4a4.71 4.71 0 0 0-3.7 2.2V27.8a4.82 4.82 0 0 0 3.7 2.3h24.8v30.2a6.94 6.94 0 0 0 1.8 3.5c-8.9 6.1-16.8 9.3-25.8 9.3zM71 53.2c2.9 4 8.7 7.5 14.1 7.5 6.5 0 12.1-3.7 11.2-10.2-.9-6.1-7.1-9.6-14-14.3C75.1 31.3 71 26.8 71 17A16.82 16.82 0 0 1 88 .2h.2c3.1 0 5.8 1 8.2 1a8.78 8.78 0 0 0 3.9-1.1v18c-3.2-4.4-6.3-6.6-10-6.6s-6.7 2.4-6.7 5.9c0 5.2 3.6 8.5 10 12.9 8.6 5.9 14.4 10.2 15.3 20.2C110 64.1 99.3 73 85.6 73c-3.8 0-8.5-1.2-11.1-1.2a8.78 8.78 0 0 0-3.5 1zm83.1-6.5L147 66.1a12.82 12.82 0 0 0-.5 2.7 19.67 19.67 0 0 0 .3 2.4h-14.3L110.1 6.9a16.63 16.63 0 0 0-3.4-5.7H124a11.22 11.22 0 0 0-1 4 8.57 8.57 0 0 0 .5 2.7l15.9 48.8 8.6-27.2-7.6-22.6a18.37 18.37 0 0 0-3.4-5.7h17.3a10.22 10.22 0 0 0-1 3.9 8.68 8.68 0 0 0 .5 2.8l15.9 48.9 15.7-48.9a8.57 8.57 0 0 0 .5-2.7 11.22 11.22 0 0 0-1-4h17.4a18.37 18.37 0 0 0-3.4 5.7l-21.7 59.2a8.42 8.42 0 0 0-.4 2.7 19.42 19.42 0 0 0 .2 2.4h-14.2zM242.4.1A36.4 36.4 0 0 0 206 36.5v36.4h72.8V36.5A36.4 36.4 0 0 0 242.4.1zm-20.2 22.2h9.1a12.49 12.49 0 0 1 7.7-6.7v-2h7v1.9a11.55 11.55 0 0 1 7.8 6.8h9.1v7.4l-8.1-4.2-6.4-3.2-5.8-3-5.8 3-14.5 7.4zm7.2 40.4h-7.2V38.4h7.2zm11.1 0h-7.1V38.4h7.1zm11.1 0h-7V38.4h7zm11.2 0h-7.2V38.4h7.2zm3.1-27h-46.7v-1.3l23.3-11.8 23.3 11.8v1.3z" fill="#013e7e"/><path fill="#c89211" d="M0 89.4h279.1v3.1H0z"/><path d="M10.8 124.7c-5.5 0-9.2-3.9-9.2-8.9a9.35 9.35 0 0 1 2-5.9 8.44 8.44 0 0 1 6.6-3.2c1.3 0 2.3.2 3 .2a2 2 0 0 0 1.1-.3v4.6a5.29 5.29 0 0 0-3.8-1.6 5.89 5.89 0 0 0-5.8 5.9v.1a5.93 5.93 0 0 0 5.9 6h.3a5.66 5.66 0 0 0 2.8-.8v-3.7h-4a1 1 0 0 0-.9.6v-4.1a1.46 1.46 0 0 0 .9.6h7.2v7.5a2 2 0 0 0 .5.9 12.59 12.59 0 0 1-6.6 2.1zm11.8-7.6v4.3H28a1 1 0 0 0 .9-.6v3.4h-10a1.05 1.05 0 0 0 .5-.9v-15.4a1.05 1.05 0 0 0-.5-.9h10v3.4a1.05 1.05 0 0 0-.9-.5h-5.4v4.4H26a1 1 0 0 0 .9-.6v3.9a1.46 1.46 0 0 0-.9-.6zm10.2-7.9a9 9 0 0 1 12.6-.1l.1.1a9.11 9.11 0 0 1 0 12.8 8.53 8.53 0 0 1-6.3 2.6 9.2 9.2 0 0 1-9-9.2 9.34 9.34 0 0 1 2.6-6.2zm6.4 12.4a6 6 0 1 0-5.7-6.3v.3a5.83 5.83 0 0 0 5.7 6zm11.2 1.7v-16.5a2 2 0 0 0 1.1.3c.6 0 1.6-.3 3.2-.3 3.3 0 5.3 2 5.3 5.1a4 4 0 0 1-2.6 4.1 6 6 0 0 1 4.2 4.4c.3 1.1.3 2.5 1.2 3.8h-4.2a1.61 1.61 0 0 0 .5-1.1 6.21 6.21 0 0 0-5.6-5.8v6a1 1 0 0 0 .6.9h-4.2a.94.94 0 0 0 .5-.9zm4-8.6a2.52 2.52 0 0 0 2.5-2.4 2.39 2.39 0 0 0-2.4-2.5c-.3 0-.7.1-1 .1v4.6c.3.1.6.1.9.2zm17.7 10c-5.5 0-9.2-3.9-9.2-8.9a9.56 9.56 0 0 1 2-5.9 8.44 8.44 0 0 1 6.6-3.2c1.3 0 2.3.2 3 .2a2 2 0 0 0 1.1-.3v4.6a5.46 5.46 0 0 0-3.8-1.6 5.89 5.89 0 0 0-5.8 5.9v.1a5.93 5.93 0 0 0 5.9 6h.3a5.66 5.66 0 0 0 2.8-.8v-3.7h-4a1 1 0 0 0-.9.6v-4.1a1.46 1.46 0 0 0 .9.6h7.2v7.5a3.55 3.55 0 0 0 .4.9 13.18 13.18 0 0 1-6.5 2.1zm8.2-17.7h4.2a1.46 1.46 0 0 0-.6.9v15.4a1 1 0 0 0 .6.9h-4.2a1.46 1.46 0 0 0 .6-.9v-15.4a1.8 1.8 0 0 0-.6-.9zM98 123.2a2 2 0 0 0-.1-.7l-.8-2.1h-6.6l-.7 2.1a1.7 1.7 0 0 0-.1.7 3.55 3.55 0 0 0 .2 1h-4.4a4.19 4.19 0 0 0 .9-1.4l5.5-14.6a1.48 1.48 0 0 0 .1-.7.9.9 0 0 0-.1-.5h3.6l5.7 15.8a4.19 4.19 0 0 0 .9 1.4h-4.4a1.69 1.69 0 0 0 .3-1zm-1.9-5.8l-2.3-6.8-2.3 6.8zm14 2.2a3.56 3.56 0 0 0 3.2 2 2.69 2.69 0 0 0 2.8-2.6v-.1c0-1.6-1.2-2.5-3.1-3.7a5.19 5.19 0 0 1-2.7-4.4 4.12 4.12 0 0 1 4-4.2h.1c.8 0 1.4.2 2 .2a1.93 1.93 0 0 0 1-.3v4.4a3.13 3.13 0 0 0-2.5-1.6 1.32 1.32 0 0 0-1.5 1.3v.2c0 1.1 1 1.6 2.6 2.7 2.1 1.5 3.1 3 3.1 5.4a5.47 5.47 0 0 1-5.2 5.7h-.5c-1 0-1.8-.3-2.4-.3a2.92 2.92 0 0 0-.9.2zm12.9-10.4a9 9 0 0 1 12.6-.1l.1.1a9.11 9.11 0 0 1 0 12.8 8.53 8.53 0 0 1-6.3 2.6 9.19 9.19 0 0 1-6.3-2.6 8.6 8.6 0 0 1-2.6-6.4 8.15 8.15 0 0 1 2.5-6.4zm6.3 12.4a6 6 0 1 0-5.7-6.3v.3a5.89 5.89 0 0 0 5.7 6zm10.5-14.6h4.2a1.15 1.15 0 0 0-.6.9v9.6c0 2.7.4 4.1 3.1 4.1a2.84 2.84 0 0 0 2.3-1.1 3.57 3.57 0 0 0 .5-2.2v-10.4a1 1 0 0 0-.6-.9h4.2a1.1 1.1 0 0 0-.6 1v10.4c0 4-2.5 6.2-6 6.2-3.8 0-6.2-2.2-6.2-6.3v-10.5c.2-.2 0-.6-.3-.8zm18 16.3v-13.4h-2.7a1 1 0 0 0-.9.6v-3.4h10.3v3.4a1.46 1.46 0 0 0-.9-.6h-2.7v13.5a1 1 0 0 0 .6.9h-4.2a1.91 1.91 0 0 0 .5-1zm18.2-15.4a1 1 0 0 0-.6-.9h4.2a1.05 1.05 0 0 0-.5.9v15.4a1.05 1.05 0 0 0 .5.9h-4.2a1.46 1.46 0 0 0 .6-.9V117h-6.6v6.3a1.05 1.05 0 0 0 .5.9h-4.2a1.46 1.46 0 0 0 .6-.9v-15.4a1 1 0 0 0-.6-.9h4.2a1.05 1.05 0 0 0-.5.9v6.3h6.7zm16.3 10.3l-1.8 4.8a1.48 1.48 0 0 0-.1.7 1.27 1.27 0 0 0 .1.6h-3.6l-5.6-15.8a6.38 6.38 0 0 0-.8-1.4h4.3a3.55 3.55 0 0 0-.2 1 2 2 0 0 0 .1.7l3.9 12 2.1-6.7-1.9-5.6a6.38 6.38 0 0 0-.8-1.4h4.3a2.92 2.92 0 0 0-.2.9 1.7 1.7 0 0 0 .1.7l3.9 12 3.9-12a1.48 1.48 0 0 0 .1-.7 3.55 3.55 0 0 0-.2-1h4.3a2.85 2.85 0 0 0-.8 1.4l-5.4 14.5a1.48 1.48 0 0 0-.1.7v.6h-3.5zm16.5-1.1v4.3h5.4a1 1 0 0 0 .9-.6v3.4h-10a1.46 1.46 0 0 0 .6-.9v-15.4a1 1 0 0 0-.6-.9h10v3.4a1.05 1.05 0 0 0-.9-.5h-5.4v4.4h3.4a1 1 0 0 0 .9-.6v3.9a1.46 1.46 0 0 0-.9-.6zm8.2 2.5a3.56 3.56 0 0 0 3.2 2 2.69 2.69 0 0 0 2.8-2.6v-.1c0-1.6-1.2-2.5-3.1-3.7a5.19 5.19 0 0 1-2.7-4.4 4.12 4.12 0 0 1 4-4.2h.1c.8 0 1.4.2 2 .2a1.93 1.93 0 0 0 1-.3v4.4a3.13 3.13 0 0 0-2.5-1.6 1.32 1.32 0 0 0-1.5 1.3v.2c0 1.1 1 1.6 2.6 2.7 2.1 1.5 3.1 3 3.1 5.4a5.47 5.47 0 0 1-5.2 5.7h-.5c-1 0-1.8-.3-2.4-.3a2.92 2.92 0 0 0-.9.2zm12.7 3.7v-13.4H227a1 1 0 0 0-.9.6v-3.4h10.3v3.4a1.46 1.46 0 0 0-.9-.6h-2.7v13.5a1.05 1.05 0 0 0 .5.9h-4.2a2.07 2.07 0 0 0 .6-1zm11.6-6.2v4.3h5.4a1 1 0 0 0 .9-.6v3.4h-10a1.05 1.05 0 0 0 .5-.9v-15.4a1.05 1.05 0 0 0-.5-.9h10v3.4a1.05 1.05 0 0 0-.9-.5h-5.4v4.4h3.4a1 1 0 0 0 .9-.6v3.9a1.46 1.46 0 0 0-.9-.6zm8.7 6.2v-16.5a2 2 0 0 0 1.1.3c.6 0 1.6-.3 3.1-.3 3.3 0 5.3 2 5.3 5.1a4 4 0 0 1-2.5 4.1 6.21 6.21 0 0 1 4.2 4.4c.3 1.1.3 2.5 1.2 3.8h-4.2a1.61 1.61 0 0 0 .5-1.1 6.21 6.21 0 0 0-5.6-5.8v6a1.05 1.05 0 0 0 .5.9h-4.2a.87.87 0 0 0 .6-.9zm4-8.7a2.52 2.52 0 0 0 2.5-2.4 2.39 2.39 0 0 0-2.4-2.5c-.3 0-.7.1-1 .1v4.6c.4.2.8.3.9.2zm13.7 9.6h-4.2a1.05 1.05 0 0 0 .5-.9v-15.4a1.05 1.05 0 0 0-.5-.9h3.7l5.5 9.5a24.08 24.08 0 0 1 1.5 3.3 18.41 18.41 0 0 1-.3-3.3v-8.6a1.05 1.05 0 0 0-.5-.9h4.2a1.05 1.05 0 0 0-.5.9v15.4a1.05 1.05 0 0 0 .5.9h-3.7l-5.8-10.1a9 9 0 0 1-1.1-2.7c.2 1.5.3 2.5.3 2.9v9a.75.75 0 0 0 .4.9zM3.1 146.4a4.31 4.31 0 0 0 3.2 1.4 3.91 3.91 0 0 0 4.1-3.7v-.1c0-2.1-1.3-2.9-3.5-4.1s-3.3-2.2-3.3-4.3a3.72 3.72 0 0 1 3.6-3.9h.3a21.87 21.87 0 0 1 2.5.4.86.86 0 0 0 .6-.3v2.6a4.3 4.3 0 0 0-2.8-1.1 2.23 2.23 0 0 0-2.4 2v.3c0 1.2.8 1.8 2.4 2.7 2.6 1.6 4.5 2.6 4.5 5.7a5.58 5.58 0 0 1-5.3 5.8h-.3c-1-.1-2-.2-3-.4a.86.86 0 0 0-.6.3zM20 133.7a1.16 1.16 0 0 0-1 .4V132h10v2.1a.87.87 0 0 0-.9-.4h-3.2v14.8a1.2 1.2 0 0 0 .2.8h-2.2a1.08 1.08 0 0 0 .2-.8v-14.8zm15.2 14.5l7.1-16.6 7.2 16.6a4.13 4.13 0 0 0 .7 1.1h-2.8a2.19 2.19 0 0 0 .3-.5 1.85 1.85 0 0 0-.2-.7l-1.6-3.6h-7.2l-1.5 3.7a1.42 1.42 0 0 0-.2.6.76.76 0 0 0 .2.5h-2.7a6.73 6.73 0 0 0 .7-1.1zm7.1-12.7l-2.9 7.2h5.8zm13.3-1.8a1.16 1.16 0 0 0-1 .4V132h10v2.1a.87.87 0 0 0-.9-.4h-3.1v14.8a1.2 1.2 0 0 0 .2.8h-2.4a1.08 1.08 0 0 0 .2-.8v-14.8zM73 148.5v-15.7a1.2 1.2 0 0 0-.2-.8h9.3v1.9c-.2-.2-.5-.2-1-.2h-6.3v6H79c.7 0 1 0 1.1-.4v2.4a1.74 1.74 0 0 0-1.2-.3h-4.2v6h6.2c.6 0 .9 0 1-.3v2h-9.3c.2-.1.3-.4.4-.6zm31.8-15.6a1.2 1.2 0 0 0-.2-.8h2.3a1.08 1.08 0 0 0-.2.8v10.6q0 4.5 3.9 4.5c2.6 0 4-1.5 4-4.4v-10.7a1.2 1.2 0 0 0-.2-.8h2.2a1.08 1.08 0 0 0-.2.8v10.8c0 4-2.2 6-5.8 6s-5.8-2.1-5.8-6zm23.3 3.6v11.9a1.2 1.2 0 0 0 .2.8h-2.2a1.08 1.08 0 0 0 .2-.8v-16.9l10.2 13.1v-11.8a2.35 2.35 0 0 0-.2-.8h2.2a1.08 1.08 0 0 0-.2.8v16.9zm20.3 12v-15.7a2.35 2.35 0 0 0-.2-.8h2.3a1.08 1.08 0 0 0-.2.8v15.7a.84.84 0 0 0 .2.7h-2.2a1.7 1.7 0 0 0 .1-.7zm12.8-16a1.85 1.85 0 0 0 .2.7l5.3 12 5.2-12.1a1.42 1.42 0 0 0 .2-.6.76.76 0 0 0-.2-.5h2.8a3.59 3.59 0 0 0-.7 1l-7.4 16.6-7.4-16.6a4.13 4.13 0 0 0-.7-1.1h2.9a1.42 1.42 0 0 0-.2.6zm20.8 16v-15.7a1.2 1.2 0 0 0-.2-.8h9.3v1.9c-.2-.2-.5-.2-1-.2h-6.3v6h4.2c.6 0 1 0 1.1-.4v2.4a1.74 1.74 0 0 0-1.2-.3h-4.1v6h6.2c.6 0 .9 0 1-.3v2h-9.3a.71.71 0 0 0 .3-.6zm19.4-.1a1.2 1.2 0 0 0 .2.8h-2.2a1.88 1.88 0 0 0 .2-.8v-16.9a1.5 1.5 0 0 0 1.1.4 27.41 27.41 0 0 1 2.8-.5c2.9 0 4.9 2.1 4.9 5.4a4.38 4.38 0 0 1-2.1 4.1 7 7 0 0 1 3.8 4.1c.9 2.3.5 3.7 1.1 4h-2.3c0-4.5-2.5-7.5-6.7-8.1 2.8-.2 4.3-1.7 4.3-4.1s-1.5-3.7-3.2-3.7a2.62 2.62 0 0 0-1.9.5zm17.5-2a4.31 4.31 0 0 0 3.2 1.4 3.91 3.91 0 0 0 4.1-3.7v-.1c0-2.1-1.3-2.9-3.5-4.1s-3.3-2.2-3.3-4.3a3.72 3.72 0 0 1 3.6-3.9h.3a21.86 21.86 0 0 1 2.5.4.86.86 0 0 0 .6-.3v2.6a4.3 4.3 0 0 0-2.8-1.1 2.23 2.23 0 0 0-2.4 2v.2c0 1.2.8 1.8 2.4 2.7 2.6 1.6 4.5 2.6 4.5 5.7a5.58 5.58 0 0 1-5.3 5.8h-.3c-1-.1-2-.2-3-.4a.86.86 0 0 0-.6.3zm17.8 2.1v-15.7a2.35 2.35 0 0 0-.2-.8h2.3a1.08 1.08 0 0 0-.2.8v15.7a.84.84 0 0 0 .2.7h-2.2c0-.2.1-.5.1-.7zm11.2-14.8a1.16 1.16 0 0 0-1 .4V132h10v2.1a.87.87 0 0 0-.9-.4h-3.1v14.8a1.2 1.2 0 0 0 .2.8h-2.2a1.08 1.08 0 0 0 .2-.8v-14.8zm21.8 14.8v-7.4l-5.4-8c-.3-.4-.6-.7-.9-1.1h3.1a.76.76 0 0 0-.2.4c0 .2.1.3.1.4l4.2 6.2 4.2-6.2c.1-.1.1-.2.1-.4s-.1-.3-.3-.5h3.2a2.11 2.11 0 0 0-.6.8l-5.6 8.3v7.4a1.2 1.2 0 0 0 .2.8h-2.2c0-.2.1-.5.1-.7z" fill="#013e7e"/></svg>