<svg id="Layer_1" data-name="Layer 1" xmlns="http://www.w3.org/2000/svg" viewBox="0 0 158.16 73"><defs><style>.cls-1{fill:#004990;}.cls-2{fill:none;stroke:#f58025;stroke-miterlimit:10;stroke-width:3px;}</style></defs><title>georgia-highlands-college_icon</title><path class="cls-1" d="M44.76,22H43a19.63,19.63,0,0,0-5.73-9.45,13.76,13.76,0,0,0-9.19-3.23,15.28,15.28,0,0,0-11.82,5.08q-4.64,5.09-4.63,13a25.61,25.61,0,0,0,1.73,9.56,21,21,0,0,0,5.05,7.56,19.7,19.7,0,0,0,6.14,4,18.52,18.52,0,0,0,7.13,1.39c1.74,0,2.9-.28,3.5-.85s.89-1.82.89-3.75V40.92q0-5-1.77-6.61t-7.42-2.19l0-1.65q3.11.09,6.06.14c2,0,3.89.05,5.76.05s3.75,0,5.54-.05,3.53-.08,5.2-.14l0,1.65c-1.95.46-3.25,1.08-3.89,1.87s-1,2.69-1,5.71v6.74h3.6V48A64.94,64.94,0,0,1,37.4,51.6a43.57,43.57,0,0,1-9.92,1.21q-11.73,0-18.82-6.32T1.55,29.79a22.55,22.55,0,0,1,1.63-8.66,23.25,23.25,0,0,1,5-7.34,24.25,24.25,0,0,1,8.92-5.58A33.56,33.56,0,0,1,28.73,6.3,41.4,41.4,0,0,1,36.34,7a59.8,59.8,0,0,1,8.44,2.3Z"/><path class="cls-1" d="M52.65,51.6l0-1.71q4.66-.6,6.2-2.63t1.54-9.52V21.12c0-5-.51-8.19-1.54-9.52S55.73,9.39,52.62,9V7.25q3.14.09,6.22.14c2.06,0,4.12.05,6.19.05s4.13,0,6.2-.05,4.12-.08,6.17-.14V9a23,23,0,0,0-4.77,1.21,5.46,5.46,0,0,0-2.38,1.72,6.18,6.18,0,0,0-1,2.81,49.11,49.11,0,0,0-.29,6.42v5.59H91.69V21.12a45.8,45.8,0,0,0-.31-6.41,6.44,6.44,0,0,0-1-2.81A5.6,5.6,0,0,0,88,10.19,23.27,23.27,0,0,0,83.17,9V7.25q3.17.09,6.23.14c2,0,4.11.05,6.18.05s4.13,0,6.2-.05,4.12-.08,6.18-.14V9c-3.12.41-5.18,1.28-6.21,2.63s-1.53,4.53-1.53,9.53V37.74c0,5,.51,8.19,1.53,9.53s3.1,2.21,6.21,2.63v1.7q-3-.09-6.15-.13c-2.07,0-4.15,0-6.23,0s-4.15,0-6.2,0-4.1.07-6.17.13l0-1.7A24.42,24.42,0,0,0,88,48.66,5.71,5.71,0,0,0,90.37,47a6.29,6.29,0,0,0,1-2.8,45.58,45.58,0,0,0,.3-6.4V30.53H68.92v7.21a48.81,48.81,0,0,0,.29,6.4,5.88,5.88,0,0,0,1,2.8,5.42,5.42,0,0,0,2.38,1.71,24.09,24.09,0,0,0,4.77,1.24V51.6q-3-.09-6.14-.14T65,51.41q-3.13,0-6.22.05T52.65,51.6Z"/><path class="cls-1" d="M153.68,9.59V22.27h-2q-1.52-6.61-4.91-9.83A12.34,12.34,0,0,0,138,9.22a14.15,14.15,0,0,0-11.36,5.53q-4.55,5.54-4.54,14a26.7,26.7,0,0,0,.83,6.71,23.19,23.19,0,0,0,2.42,5.93,18.1,18.1,0,0,0,6,6.31A14.22,14.22,0,0,0,139,50a12.58,12.58,0,0,0,8.75-3.55q3.87-3.55,6.69-10.64l1.91.49c-.56,2.83-1.16,5.4-1.82,7.72a47.58,47.58,0,0,1-2.19,6.17,28.22,28.22,0,0,1-6.39,2,39.73,39.73,0,0,1-7.46.67q-12.17,0-19.32-6.1T112,30.23a24.18,24.18,0,0,1,1.69-9.17,21.94,21.94,0,0,1,5-7.45,23.85,23.85,0,0,1,8.72-5.45,32.2,32.2,0,0,1,11.21-1.88,36,36,0,0,1,7.68.82A37.52,37.52,0,0,1,153.68,9.59Z"/><path class="cls-1" d="M8.51,63H8.18a3.6,3.6,0,0,0-1.06-1.72,2.55,2.55,0,0,0-1.71-.61,2.84,2.84,0,0,0-2.18.93A3.31,3.31,0,0,0,2.37,64a4.56,4.56,0,0,0,.32,1.75,3.85,3.85,0,0,0,.94,1.38,3.55,3.55,0,0,0,1.14.74,3.52,3.52,0,0,0,1.32.25.94.94,0,0,0,.65-.16,1,1,0,0,0,.16-.7v-.8a1.65,1.65,0,0,0-.32-1.21,2.58,2.58,0,0,0-1.38-.4v-.3H9.38v.3a1.38,1.38,0,0,0-.72.34,1.91,1.91,0,0,0-.18,1V67.4h.67v.28a11.82,11.82,0,0,1-2,.66,7.88,7.88,0,0,1-1.82.22,5.06,5.06,0,0,1-3.5-1.11,3.88,3.88,0,0,1-1.32-3,4,4,0,0,1,.31-1.58,4.15,4.15,0,0,1,.92-1.35,4.36,4.36,0,0,1,1.65-1,6.31,6.31,0,0,1,2.16-.35,7.3,7.3,0,0,1,1.4.14,11.93,11.93,0,0,1,1.56.41Z"/><path class="cls-1" d="M9.89,68.39v-.22a1.23,1.23,0,0,0,.81-.34,2.4,2.4,0,0,0,.2-1.21V64.49a2.37,2.37,0,0,0-.2-1.21,1.23,1.23,0,0,0-.81-.34v-.22h4.77l-.12,1.46h-.25a1.11,1.11,0,0,0-.37-.87,2.07,2.07,0,0,0-1.17-.25H12v2.13h.8a1.49,1.49,0,0,0,.83-.18.94.94,0,0,0,.34-.6h.21q0,.42,0,.75a2,2,0,0,0,0,.6v.42a2.6,2.6,0,0,0,0,.4h-.25a1,1,0,0,0-.34-.65,1.39,1.39,0,0,0-.8-.18H12v1a4.33,4.33,0,0,0,0,.72.75.75,0,0,0,.1.32.69.69,0,0,0,.33.22,1.57,1.57,0,0,0,.52.08,1.9,1.9,0,0,0,1.22-.37,2.11,2.11,0,0,0,.6-1.22H15v.12a4.76,4.76,0,0,1-.07.84,8.52,8.52,0,0,1-.2,1H9.89Z"/><path class="cls-1" d="M15.8,65.56A3.15,3.15,0,0,1,16,64.31a2.79,2.79,0,0,1,.73-1,3.39,3.39,0,0,1,1-.56,4,4,0,0,1,2.42,0,3.18,3.18,0,0,1,1,.56,2.76,2.76,0,0,1,.73,1,3.56,3.56,0,0,1,0,2.53,2.69,2.69,0,0,1-.71,1,2.89,2.89,0,0,1-1,.55,3.85,3.85,0,0,1-2.42,0,2.88,2.88,0,0,1-1-.55,2.7,2.7,0,0,1-.73-1A3,3,0,0,1,15.8,65.56Zm1.31-.18a3.42,3.42,0,0,0,.55,2,1.66,1.66,0,0,0,1.38.79,1.61,1.61,0,0,0,1.32-.68,3,3,0,0,0,.5-1.78,3.46,3.46,0,0,0-.55-2,1.66,1.66,0,0,0-1.4-.78,1.53,1.53,0,0,0-1.3.67,2.84,2.84,0,0,0-.5,1.79Z"/><path class="cls-1" d="M22.76,68.39v-.22a1.23,1.23,0,0,0,.83-.33,2.29,2.29,0,0,0,.21-1.21V64.51a6.62,6.62,0,0,0,0-.77,1,1,0,0,0-.12-.41.76.76,0,0,0-.3-.23,2.18,2.18,0,0,0-.61-.15v-.21l1.45-.05h.88a4,4,0,0,1,1.92.36,1.15,1.15,0,0,1,.61,1.08,1.21,1.21,0,0,1-.27.77,2,2,0,0,1-.77.57,7.78,7.78,0,0,0,1.33,1.94,3.26,3.26,0,0,0,1.48.89v.23a7.64,7.64,0,0,1-1.07-.07,4.1,4.1,0,0,1-.7-.12A1.49,1.49,0,0,1,27,68a3.2,3.2,0,0,1-.55-.61c-.15-.22-.33-.49-.51-.8a6.48,6.48,0,0,0-.37-.57.49.49,0,0,0-.25-.17,2.67,2.67,0,0,0-.48-.08v.8a6.24,6.24,0,0,0,0,.86.59.59,0,0,0,.12.31.85.85,0,0,0,.39.25,3.68,3.68,0,0,0,.73.17v.22H23.57ZM24.91,63v2.5a2,2,0,0,0,1.11-.4,1,1,0,0,0,.37-.85,1.07,1.07,0,0,0-.39-.88A1.79,1.79,0,0,0,24.91,63Z"/><path class="cls-1" d="M35.13,64.59H34.9a2.42,2.42,0,0,0-.74-1.21A1.78,1.78,0,0,0,33,63a2,2,0,0,0-1.54.64,2.39,2.39,0,0,0-.6,1.67A3.33,3.33,0,0,0,31,66.49a2.7,2.7,0,0,0,.66,1,2.78,2.78,0,0,0,.79.52,2.43,2.43,0,0,0,.92.18.69.69,0,0,0,.46-.11.73.73,0,0,0,.11-.48V67a1.16,1.16,0,0,0-.23-.85,1.73,1.73,0,0,0-1-.28v-.21H35.7v.21a1,1,0,0,0-.51.24,1.3,1.3,0,0,0-.12.73v.86h.46v.2a8.5,8.5,0,0,1-1.4.46,5.07,5.07,0,0,1-1.29.16,3.55,3.55,0,0,1-2.42-.81,2.72,2.72,0,0,1-.92-2.14,3,3,0,0,1,.21-1.11,2.86,2.86,0,0,1,.64-.93,3.19,3.19,0,0,1,1.16-.72A4.34,4.34,0,0,1,33,62.58a4.59,4.59,0,0,1,1,.1,8.92,8.92,0,0,1,1.13.29Z"/><path class="cls-1" d="M36.15,68.39v-.22a1.21,1.21,0,0,0,.85-.35,2.22,2.22,0,0,0,.22-1.21V64.49A2.19,2.19,0,0,0,37,63.28a1.21,1.21,0,0,0-.85-.33v-.21h3.24V63a1.28,1.28,0,0,0-.85.32,2.31,2.31,0,0,0-.21,1.21v2.13a2.31,2.31,0,0,0,.21,1.21,1.28,1.28,0,0,0,.85.32v.22H36.94Z"/><path class="cls-1" d="M39.58,68.39v-.21c.44-.07.8-.48,1.1-1.22l0-.08,1.47-3.63-.07-.3a1.79,1.79,0,0,0,.44-.27,1.31,1.31,0,0,0,.3-.36H43l1.75,4.58V67c.27.71.64,1.11,1.12,1.21v.21H43.12v-.21a1.17,1.17,0,0,0,.52-.16.42.42,0,0,0,.17-.34,1.8,1.8,0,0,0-.06-.32c0-.12-.12-.35-.24-.67l-.21-.53H41.48l-.19.57c-.08.24-.13.41-.16.52a1,1,0,0,0,0,.29.48.48,0,0,0,.22.45,1.81,1.81,0,0,0,.79.2v.21H39.58Zm2.11-2.77h1.43l-.73-1.93Z"/><path class="cls-1" d="M49.49,68.39v-.32a1.71,1.71,0,0,0,1.15-.48,3.24,3.24,0,0,0,.28-1.74v-3a3.24,3.24,0,0,0-.28-1.74,1.71,1.71,0,0,0-1.15-.48v-.32h4.59v.32a4.63,4.63,0,0,0-.89.22,1,1,0,0,0-.44.32,1.17,1.17,0,0,0-.19.51,9.24,9.24,0,0,0-.05,1.18v1h4.24v-1a7.71,7.71,0,0,0-.06-1.18,1.16,1.16,0,0,0-.18-.51,1.1,1.1,0,0,0-.45-.32,4.39,4.39,0,0,0-1-.23v-.32H59.7v.32a1.7,1.7,0,0,0-1.15.47,3.29,3.29,0,0,0-.28,1.75v3a3.26,3.26,0,0,0,.28,1.74,1.71,1.71,0,0,0,1.15.48v.31H55.12v-.31a4.38,4.38,0,0,0,.88-.23,1,1,0,0,0,.45-.32,1,1,0,0,0,.19-.5,7.64,7.64,0,0,0,0-1.17V64.52H52.45v1.32A9.17,9.17,0,0,0,52.51,67a1,1,0,0,0,.19.5.93.93,0,0,0,.44.32,4.56,4.56,0,0,0,.88.23v.31H50.63Z"/><path class="cls-1" d="M60.18,68.39v-.22a1.29,1.29,0,0,0,.86-.32,2.31,2.31,0,0,0,.21-1.21V64.49A2.27,2.27,0,0,0,61,63.28a1.25,1.25,0,0,0-.86-.33v-.21h3.25V63a1.27,1.27,0,0,0-.85.32,2.31,2.31,0,0,0-.21,1.21v2.13a2.31,2.31,0,0,0,.21,1.21,1.27,1.27,0,0,0,.85.32v.22H61Z"/><path class="cls-1" d="M69.58,64.59h-.23a2.42,2.42,0,0,0-.74-1.21A1.78,1.78,0,0,0,67.4,63a2,2,0,0,0-1.54.64,2.39,2.39,0,0,0-.6,1.67,3.13,3.13,0,0,0,.22,1.21,2.7,2.7,0,0,0,.66,1,2.78,2.78,0,0,0,.79.52,2.39,2.39,0,0,0,.92.18.65.65,0,0,0,.45-.11.68.68,0,0,0,.12-.48V67a1.16,1.16,0,0,0-.23-.85,1.73,1.73,0,0,0-1-.28v-.21h2.92v.21a1,1,0,0,0-.51.24,1.3,1.3,0,0,0-.12.73v.86H70v.2a8.5,8.5,0,0,1-1.4.46,5.07,5.07,0,0,1-1.29.16,3.55,3.55,0,0,1-2.42-.81A2.72,2.72,0,0,1,64,65.58a3,3,0,0,1,.21-1.11,2.86,2.86,0,0,1,.64-.93A3.19,3.19,0,0,1,66,62.82a4.34,4.34,0,0,1,1.51-.24,4.59,4.59,0,0,1,1,.1,8.48,8.48,0,0,1,1.1.29Z"/><path class="cls-1" d="M70.6,68.39v-.22a1.23,1.23,0,0,0,.81-.34,2.29,2.29,0,0,0,.19-1.21V64.49a2.26,2.26,0,0,0-.19-1.21,1.23,1.23,0,0,0-.81-.34v-.22h3.21v.22a3.2,3.2,0,0,0-.61.15.84.84,0,0,0-.31.22.92.92,0,0,0-.13.36,5.62,5.62,0,0,0,0,.82v.72h2.94v-.72a4.62,4.62,0,0,0,0-.83.75.75,0,0,0-.13-.35.66.66,0,0,0-.32-.22,2.41,2.41,0,0,0-.6-.16v-.22h3.21v.22a1.23,1.23,0,0,0-.81.34,2.4,2.4,0,0,0-.2,1.21v2.13a2.4,2.4,0,0,0,.2,1.21,1.23,1.23,0,0,0,.81.34v.21H74.58v-.21a4.21,4.21,0,0,0,.61-.16.77.77,0,0,0,.32-.22.92.92,0,0,0,.13-.36,5.49,5.49,0,0,0,0-.81v-.92h-3v.92a5.49,5.49,0,0,0,0,.81.76.76,0,0,0,.14.36.63.63,0,0,0,.31.22,3.77,3.77,0,0,0,.6.16v.21h-2.4Z"/><path class="cls-1" d="M83.35,66.36l.22.1-.6,2-1.31,0h-3.6v-.22a1.2,1.2,0,0,0,.82-.33,2.39,2.39,0,0,0,.2-1.21V64.49a2.37,2.37,0,0,0-.2-1.21,1.2,1.2,0,0,0-.82-.33v-.22h3.2V63a1.28,1.28,0,0,0-.87.31,2.3,2.3,0,0,0-.21,1.24v2.92a3.51,3.51,0,0,0,0,.55l.41,0H81a2.28,2.28,0,0,0,1.37-.39A3.32,3.32,0,0,0,83.35,66.36Z"/><path class="cls-1" d="M83.25,68.39v-.21c.43-.07.79-.48,1.09-1.22l0-.08,1.47-3.63-.06-.3a2,2,0,0,0,.44-.27,1.31,1.31,0,0,0,.3-.36h.16l1.75,4.58V67c.27.71.64,1.11,1.12,1.21v.21H86.75v-.21a1.13,1.13,0,0,0,.52-.16.42.42,0,0,0,.17-.34,1.8,1.8,0,0,0-.06-.32c0-.12-.12-.35-.24-.67l-.21-.53H85.11l-.19.57c-.08.24-.13.41-.16.52a1,1,0,0,0,0,.29.48.48,0,0,0,.22.45,1.81,1.81,0,0,0,.79.2v.21H83.25Zm2.1-2.77h1.43L86,63.69Z"/><path class="cls-1" d="M89.59,68.39v-.22a2.08,2.08,0,0,0,.48-.16.8.8,0,0,0,.29-.23,1.37,1.37,0,0,0,.18-.56,14.85,14.85,0,0,0,.09-1.51V64.26a1.42,1.42,0,0,0-.26-1,1.4,1.4,0,0,0-.89-.39v-.21h1.87v0c.67.78,1.07,1.26,1.22,1.44L95,66.85c0-1.09,0-1.87,0-2.33a4.19,4.19,0,0,0-.12-1,.6.6,0,0,0-.34-.42,1.75,1.75,0,0,0-.78-.18v-.22h2.48v.22a1,1,0,0,0-.47.16.64.64,0,0,0-.23.35,8.38,8.38,0,0,0-.11,1.22c0,.58,0,1.35,0,2.29v.83a3.7,3.7,0,0,0,0,.6l-.33.21-.76-.84-.44-.49-3-3.16v1.05a10.34,10.34,0,0,0,.16,2.42.66.66,0,0,0,.31.33,4.2,4.2,0,0,0,.78.26v.21H90Z"/><path class="cls-1" d="M96.67,68.39v-.22a1.23,1.23,0,0,0,.84-.35,2.21,2.21,0,0,0,.2-1.21V64.49a4.91,4.91,0,0,0,0-.77.93.93,0,0,0-.12-.41.57.57,0,0,0-.3-.23,2.49,2.49,0,0,0-.61-.16v-.21l1-.06h.86a11.2,11.2,0,0,1,1.64.09,4.91,4.91,0,0,1,1.12.31,2.85,2.85,0,0,1,1.28,1,2.75,2.75,0,0,1,.45,1.55,2.49,2.49,0,0,1-.93,2,3.78,3.78,0,0,1-2.49.76ZM98.82,63v3.76a3,3,0,0,0,0,.6.92.92,0,0,0,.1.32.72.72,0,0,0,.33.29,1.22,1.22,0,0,0,.53.1,1.7,1.7,0,0,0,1.38-.61,2.42,2.42,0,0,0,.54-1.63,2.62,2.62,0,0,0-.73-2A3.42,3.42,0,0,0,98.82,63Z"/><path class="cls-1" d="M103.82,66.4l.22,0a3.16,3.16,0,0,0,.74,1.34,1.52,1.52,0,0,0,1.07.48.92.92,0,0,0,.68-.27,1,1,0,0,0,.25-.7c0-.4-.4-.83-1.21-1.29l-.1,0a3.49,3.49,0,0,1-1-.8,1.3,1.3,0,0,1-.28-.81,1.48,1.48,0,0,1,.61-1.21,2.31,2.31,0,0,1,1.5-.47,2.64,2.64,0,0,1,.74.1,2.6,2.6,0,0,1,.69.29l-.13,1.46h-.24a2.47,2.47,0,0,0-.42-1.11.91.91,0,0,0-.74-.38.9.9,0,0,0-.64.26.83.83,0,0,0-.26.6c0,.41.41.84,1.21,1.31l.11.07a3.82,3.82,0,0,1,1.11.85,1.4,1.4,0,0,1,.24.84,1.44,1.44,0,0,1-.6,1.21,2.37,2.37,0,0,1-1.51.48,3.57,3.57,0,0,1-.92-.12,3.74,3.74,0,0,1-.87-.37c-.06-.32-.1-.62-.13-.89S103.85,66.65,103.82,66.4Z"/><path class="cls-1" d="M119.92,60.7V63h-.37a3.49,3.49,0,0,0-.9-1.82,2.36,2.36,0,0,0-1.64-.6,2.61,2.61,0,0,0-2.1,1,3.84,3.84,0,0,0-.84,2.56,4.89,4.89,0,0,0,.15,1.21,4.32,4.32,0,0,0,.45,1.09,3.19,3.19,0,0,0,1.1,1.15,2.68,2.68,0,0,0,1.43.42,2.39,2.39,0,0,0,1.62-.65,5.21,5.21,0,0,0,1.21-2l.35.09A13,13,0,0,1,120,67a8.77,8.77,0,0,1-.4,1.12,5.28,5.28,0,0,1-1.21.37,6.44,6.44,0,0,1-1.38.12,5.36,5.36,0,0,1-3.58-1.11,3.71,3.71,0,0,1-1.32-3,4.43,4.43,0,0,1,.31-1.68,4,4,0,0,1,.92-1.36,4.62,4.62,0,0,1,1.69-.94,6.13,6.13,0,0,1,2.08-.34,6.78,6.78,0,0,1,1.42.15A6.49,6.49,0,0,1,119.92,60.7Z"/><path class="cls-1" d="M121.13,65.56a3.15,3.15,0,0,1,.23-1.25,2.7,2.7,0,0,1,.74-1,3.34,3.34,0,0,1,1-.56,4,4,0,0,1,2.42,0,3.07,3.07,0,0,1,1,.56,2.64,2.64,0,0,1,.73,1,3.56,3.56,0,0,1,0,2.53,2.65,2.65,0,0,1-.66,1,2.72,2.72,0,0,1-1,.55,3.85,3.85,0,0,1-2.42,0,3,3,0,0,1-1-.55,2.7,2.7,0,0,1-.73-1A3.17,3.17,0,0,1,121.13,65.56Zm1.31-.18a3.57,3.57,0,0,0,.55,2,1.67,1.67,0,0,0,1.38.79,1.6,1.6,0,0,0,1.32-.68,2.89,2.89,0,0,0,.5-1.78,3.38,3.38,0,0,0-.55-2,1.64,1.64,0,0,0-1.39-.78,1.56,1.56,0,0,0-1.31.67,2.83,2.83,0,0,0-.47,1.79Z"/><path class="cls-1" d="M133.28,66.36l.23.1-.61,2-1.31,0H128v-.21a1.23,1.23,0,0,0,.83-.33,2.4,2.4,0,0,0,.2-1.21V64.49a2.37,2.37,0,0,0-.2-1.21A1.23,1.23,0,0,0,128,63v-.22h3.21V63a1.26,1.26,0,0,0-.87.31,2.21,2.21,0,0,0-.21,1.24v2.92a3.51,3.51,0,0,0,0,.55l.41,0h.35a2.28,2.28,0,0,0,1.37-.39A3.25,3.25,0,0,0,133.28,66.36Z"/><path class="cls-1" d="M138.87,66.36l.22.1-.6,2-1.32,0h-3.6v-.21a1.2,1.2,0,0,0,.82-.33,2.31,2.31,0,0,0,.21-1.21V64.49a2.27,2.27,0,0,0-.21-1.21,1.2,1.2,0,0,0-.82-.33v-.22h3.21V63a1.26,1.26,0,0,0-.87.31,2.22,2.22,0,0,0-.22,1.24v2.92a3.51,3.51,0,0,0,.05.55l.41,0h.36a2.27,2.27,0,0,0,1.36-.39A3.18,3.18,0,0,0,138.87,66.36Z"/><path class="cls-1" d="M139.24,68.39v-.22a1.23,1.23,0,0,0,.81-.34,2.4,2.4,0,0,0,.2-1.21V64.49a2.37,2.37,0,0,0-.2-1.21,1.23,1.23,0,0,0-.81-.34v-.22H144l-.14,1.49h-.25a1.11,1.11,0,0,0-.37-.87,2,2,0,0,0-1.16-.25h-.76v2.12h.81A1.37,1.37,0,0,0,143,65a1,1,0,0,0,.35-.61h.22c0,.28,0,.53,0,.75a3.1,3.1,0,0,0,0,.61v.42a1.81,1.81,0,0,0,0,.4h-.24A1.06,1.06,0,0,0,143,66a1.31,1.31,0,0,0-.8-.17h-.8v1a4.33,4.33,0,0,0,0,.72.57.57,0,0,0,.1.31.64.64,0,0,0,.33.23,1.52,1.52,0,0,0,.52.07,1.8,1.8,0,0,0,1.21-.37,2,2,0,0,0,.61-1.21h.25v.12a4.57,4.57,0,0,1-.07.83c-.05.33-.12.66-.2,1h-4.94Z"/><path class="cls-1" d="M150.75,64.59h-.22a2.51,2.51,0,0,0-.75-1.21,1.78,1.78,0,0,0-1.21-.41,2,2,0,0,0-1.53.64,2.4,2.4,0,0,0-.61,1.67,3.33,3.33,0,0,0,.23,1.21,2.55,2.55,0,0,0,.65,1,2.78,2.78,0,0,0,.79.52,2.47,2.47,0,0,0,.92.18.69.69,0,0,0,.46-.11.68.68,0,0,0,.11-.48V67a1.12,1.12,0,0,0-.23-.85,1.71,1.71,0,0,0-1-.28v-.21h2.92v.21a.94.94,0,0,0-.5.24,1.31,1.31,0,0,0-.13.73v.86h.47v.2a8.93,8.93,0,0,1-1.41.46,5,5,0,0,1-1.28.16,3.58,3.58,0,0,1-2.43-.81,2.72,2.72,0,0,1-.92-2.14,2.8,2.8,0,0,1,.86-2,3.15,3.15,0,0,1,1.15-.72,4.34,4.34,0,0,1,1.51-.24,4.59,4.59,0,0,1,1,.1,8.08,8.08,0,0,1,1.1.29Z"/><path class="cls-1" d="M151.77,68.39v-.22a1.21,1.21,0,0,0,.81-.34,2.4,2.4,0,0,0,.2-1.21V64.49a2.37,2.37,0,0,0-.2-1.21,1.21,1.21,0,0,0-.81-.34v-.22h4.78l-.14,1.49h-.25a1.11,1.11,0,0,0-.37-.87,2,2,0,0,0-1.16-.25h-.75v2.12h.8a1.37,1.37,0,0,0,.82-.17,1,1,0,0,0,.35-.61h.21q0,.42,0,.75a2.07,2.07,0,0,0,0,.61v.42a2.69,2.69,0,0,0,0,.4h-.23a1.17,1.17,0,0,0-.34-.66,1.34,1.34,0,0,0-.8-.17h-.81v1q0,.36,0,.72a.67.67,0,0,0,.1.31.69.69,0,0,0,.33.23,1.58,1.58,0,0,0,.53.07,1.83,1.83,0,0,0,1.21-.37,2.16,2.16,0,0,0,.61-1.21h.24v.12a5.69,5.69,0,0,1-.06.83,8.13,8.13,0,0,1-.21,1h-4.86Z"/><line class="cls-2" y1="71.5" x2="158.16" y2="71.5"/><line class="cls-2" y1="57.08" x2="158.16" y2="57.08"/><line class="cls-2" y1="1.5" x2="158.16" y2="1.5"/></svg>