<svg id="Layer_1" data-name="Layer 1" xmlns="http://www.w3.org/2000/svg" viewBox="0 0 68.03 70"><defs><style>.cls-1{fill:#005295;}</style></defs><title>gordon_icon</title><path class="cls-1" d="M68,36.27c.18,8.59-1.08,16.09-7.14,22.7A35.73,35.73,0,0,1,35,70C16.1,70,0,54.08,0,35.27A35.44,35.44,0,0,1,35.54,0C47.93,0,58,6.15,65.12,15.92l-3.53,2.8c-6.06-9-15.28-14.65-26.32-14.65C18.63,4.07,4.34,18.63,4.34,35A31.15,31.15,0,0,0,35.27,65.93a32.53,32.53,0,0,0,20.08-7.51c5.88-5,8-10.67,8.32-18.08H39.25V36.27Z"/></svg>