<svg data-name="Layer 1" xmlns="http://www.w3.org/2000/svg" viewBox="0 0 179.7 233.06"><path d="M176.86 94.08c.47 22.29-2.82 41.76-18.53 58.89-16.89 18.3-42.23 28.62-67.1 28.62-49 0-90.8-41.29-90.8-90.09C.43 40.82 41.96 0 92.63 0c32.14 0 58.19 16 76.72 41.29l-9.15 7.27c-15.72-23.46-39.65-38-68.27-38-43.17 0-80.23 37.78-80.23 80.22 0 43.64 36.13 80.24 80.24 80.24 19 0 37.54-7.74 52.08-19.47 15.25-12.9 20.88-27.68 21.58-46.92h-63.34V94.08zM29.55 216.69c.08 4-.36 7.38-3.09 10.55a14.77 14.77 0 0 1-11.07 5 15.47 15.47 0 1 1 12.85-24.46l-2.42 2.26c-2.5-3.53-5.87-5.63-10.27-5.63A12.41 12.41 0 0 0 3.33 216.9a12 12 0 0 0 3.49 8.45 12.56 12.56 0 0 0 8.49 3.81c5.2 0 10.67-3.81 10.67-9.36H17.1v-3.09zm34.38.09a15.59 15.59 0 1 1-15.59-15.51 15.5 15.5 0 0 1 15.59 15.51zm-27.84 0a12.26 12.26 0 1 0 12.26-12.37 12.37 12.37 0 0 0-12.26 12.37zm35.68 14.94h-3.33v-29.94h4.32c5.67 0 10.95 1.51 10.95 8.25a7.81 7.81 0 0 1-7.5 8.25l9.49 13.44h-4.05l-9-13.13h-.83zm0-16.06h1c3.77 0 7.58-.71 7.58-5.36 0-4.92-3.61-5.39-7.61-5.39h-1zm18.16-13.88h5.63c4.48 0 8.13.59 11.66 3.61a15.36 15.36 0 0 1 .08 22.53c-3.57 3.17-7.14 3.77-11.82 3.77h-5.55zm5.77 26.85c3.65 0 6.7-.52 9.44-3.09a12.22 12.22 0 0 0-.16-17.73c-2.74-2.42-5.75-2.89-9.28-2.89h-2.42v23.72z" fill="#0a317a"/><path d="M146.48 216.78a15.59 15.59 0 1 1-15.59-15.51 15.5 15.5 0 0 1 15.59 15.51zm-27.84 0a12.26 12.26 0 1 0 12.26-12.37 12.37 12.37 0 0 0-12.26 12.37zm32.56-16.23l23.32 24.43v-23.2h3.33v31.25l-23.32-24.35v23h-3.33zM.02 181.19h179.67v9.85H.02z" fill="#0a317a"/></svg>