<svg xmlns="http://www.w3.org/2000/svg" viewBox="0 0 182.68 41.53"><title>Kennesaw-State-University-color</title><g data-name="KSU Logo"><path d="M173.59 30.53c-2.64-.55-3.05-.26-4.85-1.34-1.19-.71-2.24-1.65-3.4-2.47-2.79-2-5.14-2.25-8.17-3.3-2.58-.89-5.61-2.56-8.07-3.64a133.32 133.32 0 0 1-16.7-9.28c-5.15-3.19-10.58-6.75-17-5.78a22.44 22.44 0 0 0-7.22 2.39c-2.81 1.47-3.23 1.9-5.49 2.94a4.84 4.84 0 0 1-2.9.37h-.12c-4.1-2.94-8.7-6-11.23-6.77-1.53-.5-3.44-1.73-5.1-2.32a14.05 14.05 0 0 0-10 .79c-3 1.48-5.82 2.91-8.77 4.65-3.37 2-16.93 7.41-20.18 8.82S36.56 19.42 33 20.85c-8.31 3.36-9.06 3.06-16.94 3.88a24.1 24.1 0 0 0-9.91 2.95C3.72 29.1 0 32.36.06 35.29h32.4v-1.75H3.48a14 14 0 0 1 7.52-5.2 45.54 45.54 0 0 1 8.94-1.27 43.47 43.47 0 0 0 10.55-2c5.69-1.85 9-3.87 13-5.77 2.78-1.3 15.34-6.3 18.15-7.53s5-2.37 7.49-3.78a59.11 59.11 0 0 1 6.49-3.17c2.49-1.06 4.9-1.3 6.81-.44a55.22 55.22 0 0 0 5.3 2.23c4.77 2 10.56 6 14.28 8.57a19.34 19.34 0 0 0 10.26 3.41 12.12 12.12 0 0 0 4.44-.79c.16-.17-2.09.36-3.23.12-5.88-1.2-8.17-3.34-8.91-3.89h-.06c-.55-.72-.43-.91-.13-1.13 2-1.22 6.13-4.14 11-4.94 6-1 10.4 1.87 15.3 5 4.43 2.84 9.55 6.47 17.6 10 2 .88 4 2.15 6.29 3s9.41 2.94 11.6 5c3.43 3.25 4.25 1.93 7.42 2.94 2.3.74 2.62 2.44 3.56 6.29.85-2.6-.46-9.02-3.56-9.66z"/><path d="M177.15 40.11l-.11-.45c-.85-3.52-1.24-5.13-3.45-5.84a11.45 11.45 0 0 0-2.53-.49c-1.44-.15-2.58-.27-4.89-2.45-1.78-1.69-6.84-3.39-9.87-4.41l-1.73-.6a33.55 33.55 0 0 1-3.82-1.77c-.85-.44-1.66-.85-2.47-1.21a98.66 98.66 0 0 1-15.7-8.73l-1.9-1.23a51.85 51.85 0 0 0-6.25-3.62 15.69 15.69 0 0 0-6.69-1.59 14.59 14.59 0 0 0-2.36.2c-4.41.72-8.3 3.21-10.38 4.54l-.62.39a.51.51 0 0 0-.25.32c0 .18.09.42.38.8l.23.18c.91.72 3.31 2.62 8.68 3.72a3.73 3.73 0 0 0 .73.06 15.08 15.08 0 0 0 1.81-.15c.28 0 .5-.07.61-.07h.08c.01 0 0 0 0 0a12.25 12.25 0 0 1-4.18.79h-.26A19.32 19.32 0 0 1 102 15.17l-.82-.56c-3.81-2.6-9-6.16-13.47-8a9.79 9.79 0 0 0-1-.39c-.3-.09-.59-.18-4.29-1.84a6.26 6.26 0 0 0-2.58-.52 11 11 0 0 0-4.23 1A58.86 58.86 0 0 0 69.13 8c-2.71 1.51-5 2.64-7.5 3.78-1.22.55-4.34 1.81-7.64 3.15-4.2 1.7-9 3.63-10.54 4.38-1.06.5-2.08 1-3.07 1.52a64.81 64.81 0 0 1-9.92 4.25 43.93 43.93 0 0 1-10.55 2A43.55 43.55 0 0 0 11 28.34 14.69 14.69 0 0 0 7.2 30a14 14 0 0 0-3.71 3.49H32.46v1.77H.07c0-.91.34-2.4 2.12-4.37a17.67 17.67 0 0 1 4-3.24 23.69 23.69 0 0 1 9.7-2.93h.22l2.69-.27c5.51-.53 7-.68 14.25-3.61 2-.8 4.31-1.92 6.55-3 1.75-.85 3.41-1.65 4.82-2.26.76-.33 2.06-.86 3.7-1.54 5.2-2.15 13.9-5.75 16.49-7.27C67.5 5 70.28 3.64 73.35 2.12A14.55 14.55 0 0 1 79.58.74a11.54 11.54 0 0 1 3.76.58 22 22 0 0 1 2.54 1.16 17.52 17.52 0 0 0 2.51 1.12c2.09.64 5.77 2.86 11.23 6.77h.12a2.65 2.65 0 0 0 .76.07 5.19 5.19 0 0 0 2.14-.45 31.81 31.81 0 0 0 2.91-1.52c.66-.38 1.41-.81 2.58-1.42a22.52 22.52 0 0 1 7.23-2.39 14.71 14.71 0 0 1 2.18-.16c5.29 0 9.86 2.83 14.28 5.58l.6.37a134.11 134.11 0 0 0 16.7 9.28c.89.39 1.83.85 2.84 1.33a50.54 50.54 0 0 0 5.23 2.3c.8.28 1.56.5 2.29.72a18.26 18.26 0 0 1 5.89 2.58c.44.31.86.64 1.28 1a21.84 21.84 0 0 0 2.12 1.51 6.49 6.49 0 0 0 3 1c.48.07 1.08.16 1.87.33a3.91 3.91 0 0 1 2.36 2.13 11.43 11.43 0 0 1 1.27 3.95 8.09 8.09 0 0 1-.15 3.52zm-59.4-32.4a15.69 15.69 0 0 1 6.69 1.59 51.82 51.82 0 0 1 6.25 3.62l1.9 1.23a98.53 98.53 0 0 0 15.7 8.73c.82.36 1.62.77 2.47 1.21a33.65 33.65 0 0 0 3.82 1.77l1.73.6c3 1 8.08 2.72 9.87 4.41 2.3 2.18 3.44 2.3 4.88 2.45a11.47 11.47 0 0 1 2.53.49c2.21.71 2.6 2.32 3.45 5.84l.11.44a8.14 8.14 0 0 0 .14-3.5 11.4 11.4 0 0 0-1.29-3.95 3.91 3.91 0 0 0-2.44-2.11c-.79-.17-1.39-.26-1.88-.33a6.5 6.5 0 0 1-3-1 21.6 21.6 0 0 1-2.12-1.51c-.41-.32-.84-.65-1.28-1a18.32 18.32 0 0 0-5.88-2.58c-.73-.22-1.48-.44-2.29-.72a50.7 50.7 0 0 1-5.23-2.3c-1-.49-1.95-.95-2.84-1.33a134.26 134.26 0 0 1-16.7-9.28l-.6-.37c-4.42-2.74-9-5.57-14.27-5.57a14.69 14.69 0 0 0-2.17.16 22.51 22.51 0 0 0-7.23 2.39c-1.17.62-1.92 1-2.58 1.42a31.6 31.6 0 0 1-2.84 1.49 5.2 5.2 0 0 1-2.14.45 2.4 2.4 0 0 1-.77-.08h-.12c-5.46-3.91-9.14-6.13-11.23-6.77a17.44 17.44 0 0 1-2.51-1.12 22.05 22.05 0 0 0-2.54-1.15 11.53 11.53 0 0 0-3.76-.58 14.53 14.53 0 0 0-6.23 1.38C70.28 3.65 67.5 5 64.58 6.77 62 8.29 53.29 11.9 48.09 14l-3.69 1.54c-1.4.66-3.07 1.46-4.83 2.31-2.24 1.08-4.56 2.21-6.55 3-7.26 2.93-8.74 3.07-14.25 3.61l-2.69.27h-.22a23.68 23.68 0 0 0-9.69 2.93 17.58 17.58 0 0 0-4 3.24C1.2 32 0 33.65.07 35.29h32.39v-1.74H3.48A14.08 14.08 0 0 1 7.2 30a14.71 14.71 0 0 1 3.8-1.66 43.55 43.55 0 0 1 8.94-1.26 43.91 43.91 0 0 0 10.55-2 64.86 64.86 0 0 0 9.92-4.25c1-.5 2-1 3.07-1.52 1.52-.77 6.32-2.7 10.52-4.4 3.3-1.34 6.42-2.6 7.64-3.15 2.54-1.13 4.78-2.26 7.49-3.76a58.85 58.85 0 0 1 6.5-3.17 11 11 0 0 1 4.23-1 6.25 6.25 0 0 1 2.58.52 46.66 46.66 0 0 0 4.29 1.84 10.4 10.4 0 0 1 1 .39c4.44 1.85 9.66 5.41 13.47 8l.82.56a19.31 19.31 0 0 0 10.26 3.41h.26a12.23 12.23 0 0 0 4.18-.79h-.07c-.11 0-.33 0-.61.06a15.14 15.14 0 0 1-1.81.15 3.77 3.77 0 0 1-.74-.06c-5.37-1.1-7.78-3-8.69-3.72l-.23-.18c-.29-.38-.41-.63-.38-.81a.51.51 0 0 1 .25-.32l.62-.39c2.09-1.34 6-3.82 10.39-4.54a14.62 14.62 0 0 1 2.3-.23zm64.93 31.1a1.54 1.54 0 1 1-1.55-1.54 1.55 1.55 0 0 1 1.55 1.54zm-2.9 0a1.36 1.36 0 1 0 1.34-1.36 1.35 1.35 0 0 0-1.33 1.37zm1.3-.9c.29 0 .66 0 .66.42s-.23.41-.47.44c.19 0 .31.28.37.44a1 1 0 0 0 .14.26.2.2 0 0 0 .16.06v.07h-.11a.42.42 0 0 1-.26-.05.88.88 0 0 1-.18-.32 1.28 1.28 0 0 0-.18-.34c-.07-.07-.18-.06-.27-.06h-.08v.55c0 .11 0 .15.12.16h.09v.07h-.65v-.07h.07c.1 0 .13 0 .13-.13v-1.29c0-.11-.06-.12-.13-.12h-.07v-.07zm-.22.83h.14c.27 0 .53-.06.53-.38s-.16-.36-.4-.36H181c-.13 0-.12.08-.12.19z"/><path d="M71.56 27.13v.71h-3.27a4.74 4.74 0 0 0-.63-.92L66 25.1q-1.8-2.12-1.91-2.23a1.82 1.82 0 0 0-.47-.42.43.43 0 0 0-.2-.06.21.21 0 0 0-.11 0 .11.11 0 0 0-.05.06.82.82 0 0 0 0 .19v3.46a1.91 1.91 0 0 0 .11.8.4.4 0 0 0 .22.15 5.58 5.58 0 0 0 1.06.09v.71q-1.33-.05-2.81-.06-1.32 0-2.35.06v-.71a5.88 5.88 0 0 0 1.15-.14.34.34 0 0 0 .15-.11.55.55 0 0 0 .1-.22 4.38 4.38 0 0 0 .06-.65q.07-1.2.07-1.73v-2.93L61 18.85a9.07 9.07 0 0 0-.07-1.22.53.53 0 0 0-.09-.24.36.36 0 0 0-.17-.09 8.26 8.26 0 0 0-1.08-.1v-.72c.69 0 1.47.06 2.35.06s1.92 0 2.8-.06v.72a3.68 3.68 0 0 0-1.14.13.44.44 0 0 0-.17.31 13.29 13.29 0 0 0-.1 2v2.24l.13.06a25.14 25.14 0 0 0 2.09-2l1.15-1.18.79-.83.72-.84v-.63h3.01v.72a4.59 4.59 0 0 0-1.1.12 2.78 2.78 0 0 0-.85.49q-.5.39-2.07 1.77l-1.54 1.54c.26.32.65.79 1.16 1.39l1.78 2.08q1.23 1.44 1.67 1.91a2.41 2.41 0 0 0 .64.56 2 2 0 0 0 .65.09zm.89.72v-.31a2.9 2.9 0 0 0 .56-.33c0-.16 0-.42.06-.77v-3.98-1.11a2.86 2.86 0 0 0-.08-.78.18.18 0 0 0-.08-.08 3.15 3.15 0 0 0-.82-.1v-.44h5.97v.07l-.11.82c0 .06 0 .33-.06.82h-.44a4.92 4.92 0 0 0-.05-.82.2.2 0 0 0-.07-.11 1.38 1.38 0 0 0-.46-.09 9.91 9.91 0 0 0-1.1-.06h-1a13.74 13.74 0 0 0-.08 1.64v1.17h1.75a1.1 1.1 0 0 0 .36 0 .21.21 0 0 0 .08-.12 2.85 2.85 0 0 0 .08-.72h.46v2.49H77a2.07 2.07 0 0 0-.09-.81.32.32 0 0 0-.25-.14 6.94 6.94 0 0 0-1-.06 8.71 8.71 0 0 0-.92 0v3.06H76.96a1.83 1.83 0 0 0 .64-.09.21.21 0 0 0 .07-.1 6 6 0 0 0 .22-1h.47a17.24 17.24 0 0 0-.13 1.85l-.07.07a9.8 9.8 0 0 1-1 0H74.38zm6.61-.49a6.19 6.19 0 0 0 .77-.06.24.24 0 0 0 .1-.07A.5.5 0 0 0 80 27c0-.15 0-.49.08-1v-4.73a3.07 3.07 0 0 0 0-.54.43.43 0 0 0-.08-.19.37.37 0 0 0-.18-.09 5.13 5.13 0 0 0-.72-.07v-.48h2.4q1.17 1.53 2.84 3.52 1.2 1.44 2 2.25v-1.31q0-3.06-.07-3.6a.4.4 0 0 0-.1-.27 2.1 2.1 0 0 0-.89-.11v-.48H88v.48a2.28 2.28 0 0 0-.82.1.15.15 0 0 0-.06.09 6.48 6.48 0 0 0-.11 1.3v1.5q0 3.78.07 4.59l-.07.05-1-.15q-1.83-2.05-5.2-6.16v4.67a4.38 4.38 0 0 0 .07.8.23.23 0 0 0 .08.11.38.38 0 0 0 .19.06h.66v.46h-2.73zm9.77 0a6.2 6.2 0 0 0 .77-.06.24.24 0 0 0 .1-.07.53.53 0 0 0 .07-.21c0-.15 0-.49.08-1v-4.75a3.25 3.25 0 0 0 0-.54.41.41 0 0 0-.08-.19.35.35 0 0 0-.18-.09 5.07 5.07 0 0 0-.72-.07v-.48h2.4q1.17 1.53 2.84 3.52 1.2 1.44 2 2.25v-1.31c0-2 0-3.24-.07-3.6a.41.41 0 0 0-.1-.27 2.1 2.1 0 0 0-.89-.11v-.48H97.77v.48a2.3 2.3 0 0 0-.82.1.15.15 0 0 0-.06.09 6.49 6.49 0 0 0-.11 1.3v1.5q0 3.78.07 4.59l-.07.05-1-.15q-1.84-2.05-5.2-6.16v4.67a4.52 4.52 0 0 0 .07.8.24.24 0 0 0 .08.11.38.38 0 0 0 .19.06 5.17 5.17 0 0 0 .54 0h.11v.46h-2.73zm10.11.49v-.31a3 3 0 0 0 .56-.33c0-.16 0-.42.06-.77v-3.98-1.11a3.07 3.07 0 0 0-.08-.78.18.18 0 0 0-.09-.08 3.12 3.12 0 0 0-.82-.1v-.44h5.97v.07l-.11.82c0 .06 0 .33-.06.82H104a5.11 5.11 0 0 0-.05-.82.21.21 0 0 0-.07-.11 1.38 1.38 0 0 0-.45-.09 10 10 0 0 0-1.1-.06h-1a13.7 13.7 0 0 0-.08 1.64v1.17H103a1.12 1.12 0 0 0 .36 0 .22.22 0 0 0 .08-.12 2.86 2.86 0 0 0 .08-.72h.46v2.49h-.46a2 2 0 0 0-.09-.81.33.33 0 0 0-.25-.14 7 7 0 0 0-1-.06 8.73 8.73 0 0 0-.92 0v3.06H103.48a1.82 1.82 0 0 0 .64-.11.23.23 0 0 0 .08-.1 6.34 6.34 0 0 0 .21-1h.47a16.85 16.85 0 0 0-.13 1.85l-.07.07a9.79 9.79 0 0 1-1 0H100.9zM111.11 22h-.48a7 7 0 0 0-.06-.93 1.44 1.44 0 0 0-.61-.44 2.33 2.33 0 0 0-1-.19 1.7 1.7 0 0 0-1.19.39 1.21 1.21 0 0 0-.42.92 1.38 1.38 0 0 0 .13.61.9.9 0 0 0 .34.37 2.51 2.51 0 0 0 .65.25l.92.17.76.14a2.85 2.85 0 0 1 .74.29 1.51 1.51 0 0 1 .45.39 1.81 1.81 0 0 1 .27.55 2.38 2.38 0 0 1 .11.75 2.63 2.63 0 0 1-.3 1.28 2.75 2.75 0 0 1-.63.76 3 3 0 0 1-.83.51 4.38 4.38 0 0 1-1.64.27 5.4 5.4 0 0 1-1.24-.13 6.06 6.06 0 0 1-1.2-.45 8.24 8.24 0 0 0 .18-2h.48a6.85 6.85 0 0 0 .06 1 1.79 1.79 0 0 0 .74.62 2.48 2.48 0 0 0 1.14.27 2.36 2.36 0 0 0 1-.19 1.28 1.28 0 0 0 .61-.53 1.55 1.55 0 0 0 .19-.76 1.33 1.33 0 0 0-.13-.62 1 1 0 0 0-.42-.41 4.37 4.37 0 0 0-1-.32q-1-.22-1.35-.31a2 2 0 0 1-.79-.42 1.78 1.78 0 0 1-.45-.67 2.41 2.41 0 0 1-.15-.85 2.58 2.58 0 0 1 .27-1.17 2.07 2.07 0 0 1 .7-.83 2.92 2.92 0 0 1 1-.42 5 5 0 0 1 1.13-.13 6.11 6.11 0 0 1 1.17.11 3.9 3.9 0 0 1 1 .31v.14a7 7 0 0 0-.12.72q-.02.34-.03.95zm.89 5.86v-.47a4.12 4.12 0 0 0 .55-.06.4.4 0 0 0 .15-.08.59.59 0 0 0 .13-.17c0-.08.17-.37.39-.87l.57-1.39 1.48-3.66.5-1.29h.81l2.54 5.93.35.78.23.52a.56.56 0 0 0 .11.15.34.34 0 0 0 .12.07H120.51v.47h-3.58v-.47a3.33 3.33 0 0 0 .78-.08.17.17 0 0 0 .09-.16 1.43 1.43 0 0 0-.13-.46l-.49-1.25h-2.93l-.25.68a4.32 4.32 0 0 0-.28 1 .21.21 0 0 0 .09.19 2.44 2.44 0 0 0 .81.1v.47h-1.31zm2.51-3.07h2.38l-1.22-2.94zm11.14-4.98h.52c.14.39.28.75.42 1.1q.89 2.28 1.07 2.71l.68 1.68.66-2.55q.38-1.51.44-1.85a.94.94 0 0 0 0-.17.26.26 0 0 0-.22-.28l-.72-.06v-.49H131.07v.47H131a1.39 1.39 0 0 0-.44.07.49.49 0 0 0-.15.16 10.32 10.32 0 0 0-.39 1.17q-.31 1.05-.93 3.37t-.67 2.73h-.87l-.61-1.65-1.55-3.95q-.25.54-1.75 4.08l-.64 1.54h-.83l-1.32-6a8.85 8.85 0 0 0-.31-1.2.36.36 0 0 0-.17-.19 1.67 1.67 0 0 0-.59-.08v-.52h3.45v.47h-.55a.41.41 0 0 0-.23.09.26.26 0 0 0-.07.2v.15c0 .06 0 .27.12.66q.21 1.13.31 1.57l.51 2.29.48-1.14.72-1.66.9-2.16c.08-.17.15-.37.23-.56zm-80.4 9.98h-.67a10.19 10.19 0 0 0-.08-1.31 2 2 0 0 0-.86-.62 3.35 3.35 0 0 0-1.37-.27 2.38 2.38 0 0 0-1.68.55 1.69 1.69 0 0 0-.59 1.28 1.92 1.92 0 0 0 .18.85 1.27 1.27 0 0 0 .48.52 3.47 3.47 0 0 0 .92.35l1.29.24 1.07.2a4.12 4.12 0 0 1 1 .4 2.18 2.18 0 0 1 .63.54 2.55 2.55 0 0 1 .39.77 3.47 3.47 0 0 1 .15 1.05 3.68 3.68 0 0 1-.42 1.8 3.8 3.8 0 0 1-.89 1.07 4.24 4.24 0 0 1-1.16.73 6.2 6.2 0 0 1-2.3.38 7.57 7.57 0 0 1-1.75-.18 8.28 8.28 0 0 1-1.59-.63 11.59 11.59 0 0 0 .25-2.77h.67a9.82 9.82 0 0 0 .08 1.43 2.52 2.52 0 0 0 1 .83 3.48 3.48 0 0 0 1.6.37 3.25 3.25 0 0 0 1.4-.21 1.8 1.8 0 0 0 .86-.74 2.13 2.13 0 0 0 .27-1.07 1.86 1.86 0 0 0-.19-.86 1.37 1.37 0 0 0-.59-.58 6.19 6.19 0 0 0-1.41-.45q-1.45-.3-1.9-.44a2.77 2.77 0 0 1-1.11-.6 2.45 2.45 0 0 1-.63-.95 3.35 3.35 0 0 1-.21-1.19 3.64 3.64 0 0 1 .38-1.65 3 3 0 0 1 1-1.17 4.07 4.07 0 0 1 1.39-.59 7 7 0 0 1 1.59-.18 8.84 8.84 0 0 1 1.64.15 5.44 5.44 0 0 1 1.37.44l.07.19a9.13 9.13 0 0 0-.16 1q-.09.53-.12 1.32zM48.4 38v-.46a2.79 2.79 0 0 0 .8-.09.35.35 0 0 0 .17-.22 9.07 9.07 0 0 0 .06-1.45v-3.3-1.53h-1.86a.48.48 0 0 0-.21 0 .38.38 0 0 0-.07.2 5.51 5.51 0 0 0-.08.88h-.46v-1.29c0-.16 0-.34-.06-.53l.05-.06h7.07l.06.06a5.64 5.64 0 0 0-.06.6v1.22h-.46a6.56 6.56 0 0 0-.07-.83.54.54 0 0 0-.07-.24.38.38 0 0 0-.18 0H51v4.88a9.18 9.18 0 0 0 .06 1.45.34.34 0 0 0 .17.22 2.71 2.71 0 0 0 .8.09v.4H48.4zm4.52 0v-.46l.54-.06a.42.42 0 0 0 .15-.08.62.62 0 0 0 .13-.17q.06-.11.38-.84l.56-1.36 1.46-3.56.49-1.26h.79L59.91 36l.35.76.22.51a.61.61 0 0 0 .11.14.34.34 0 0 0 .11.07 1.61 1.61 0 0 0 .33 0h.25V38h-3.55v-.46a3.15 3.15 0 0 0 .76-.07.16.16 0 0 0 .09-.16 1.38 1.38 0 0 0-.13-.45L58 35.69h-2.88l-.24.66a4.12 4.12 0 0 0-.28.95.21.21 0 0 0 .09.19 2.53 2.53 0 0 0 .8.1V38H54.2zm2.46-3h2.34l-1.2-2.86zm6.8 3v-.46a2.77 2.77 0 0 0 .8-.09.35.35 0 0 0 .17-.22 9.07 9.07 0 0 0 .06-1.45v-3.3-1.53h-1.86a.48.48 0 0 0-.21 0 .38.38 0 0 0-.07.2 5.5 5.5 0 0 0-.08.88h-.49v-1.29c0-.16 0-.34-.06-.53v-.06h7.07l.06.06c0 .23-.05.43-.06.6s0 .44 0 1.22H67a6.55 6.55 0 0 0-.07-.83.54.54 0 0 0-.03-.2.39.39 0 0 0-.18 0H64.82v4.88a9.18 9.18 0 0 0 .06 1.45.34.34 0 0 0 .17.22 2.74 2.74 0 0 0 .8.09V38h-3.67zm6.62 0v-.3a2.8 2.8 0 0 0 .55-.32c0-.16 0-.41.06-.76v-3.87-1.09a2.86 2.86 0 0 0-.08-.77.18.18 0 0 0-.09-.08 3.07 3.07 0 0 0-.8-.1v-.43H74.28v.07l-.11.8-.06.8h-.44a5.25 5.25 0 0 0 0-.81.21.21 0 0 0-.07-.11 1.28 1.28 0 0 0-.45-.09 9.53 9.53 0 0 0-1.08-.06h-1a13.63 13.63 0 0 0-.07 1.66v1.15h1.71a1 1 0 0 0 .35 0 .2.2 0 0 0 .08-.12 2.81 2.81 0 0 0 .08-.71h.45v2.45h-.45a2 2 0 0 0-.08-.8.33.33 0 0 0-.24-.14 6.71 6.71 0 0 0-1-.06 8.34 8.34 0 0 0-.9 0v3.02h2.18a1.88 1.88 0 0 0 .63-.11.21.21 0 0 0 .07-.1 6 6 0 0 0 .21-1h.46a17 17 0 0 0-.12 1.82l-.07.07h-3.73zm21.35-.43a5.86 5.86 0 0 0 .75-.06.23.23 0 0 0 .1-.07.48.48 0 0 0 .07-.21c0-.14 0-.49.08-1v-4.65a3.11 3.11 0 0 0 0-.53.38.38 0 0 0-.08-.18.37.37 0 0 0-.18-.09 5.72 5.72 0 0 0-.71-.07v-.47h2.33q1.15 1.5 2.79 3.46 1.18 1.42 2 2.21v-1.3q0-3-.07-3.54a.38.38 0 0 0-.1-.27 2 2 0 0 0-.87-.11v-.47h2.67v.47a2.2 2.2 0 0 0-.81.1.13.13 0 0 0-.06.08 6.2 6.2 0 0 0-.11 1.28v1.47q0 3.72.07 4.51l-.07.05-1-.15Q95.13 36 91.82 32v4.58a4.53 4.53 0 0 0 .07.79.21.21 0 0 0 .08.11.35.35 0 0 0 .19.06h.64V38H90.16zm13.18-7.34v.49a5.51 5.51 0 0 0-.67 0 .39.39 0 0 0-.15.06.18.18 0 0 0-.06.09 1.36 1.36 0 0 0-.06.36v5.28a3 3 0 0 0 .06.75.22.22 0 0 0 .07.12.39.39 0 0 0 .17.07 5 5 0 0 0 .67 0V38h-3.54v-.49h.67a.33.33 0 0 0 .16-.06.17.17 0 0 0 .06-.09v-.52-3.58-1.43a7.2 7.2 0 0 0-.07-.89.21.21 0 0 0-.05-.11.29.29 0 0 0-.13-.07 6.35 6.35 0 0 0-.71 0v-.49h1.61q.91 0 1.97-.04zm4.75 7.86l-.91-2.23-.79-1.86q-.93-2.23-1.15-2.65a1.33 1.33 0 0 0-.32-.49 1.79 1.79 0 0 0-.69-.1v-.49h3.63v.49a3.34 3.34 0 0 0-.68.06.31.31 0 0 0-.17.08.19.19 0 0 0 0 .14 5.11 5.11 0 0 0 .37 1.06l.23.56v.1l1.4 3.4 1.24-3.07.4-1.05c.17-.45.27-.75.31-.9a.77.77 0 0 0 0-.13.25.25 0 0 0 0-.14.16.16 0 0 0-.08-.07h-.81v-.49h2.63v.49a1.87 1.87 0 0 0-.63.11 5.19 5.19 0 0 0-.63 1.27L111 33l-.75 1.8q-1 2.3-1.3 3.26zm5.77-.09v-.3a2.8 2.8 0 0 0 .55-.32c0-.16 0-.41.06-.76v-3.87-1.09a2.87 2.87 0 0 0-.08-.77.17.17 0 0 0-.09-.08 3.06 3.06 0 0 0-.8-.1v-.43h5.84v.07l-.1.8-.06.8h-.43a5 5 0 0 0-.05-.81.19.19 0 0 0-.07-.11 1.28 1.28 0 0 0-.45-.09 9.5 9.5 0 0 0-1.08-.06h-1a12.94 12.94 0 0 0-.08 1.62v1.15H117.73a1 1 0 0 0 .35 0 .21.21 0 0 0 .08-.12 2.79 2.79 0 0 0 .08-.71h.45v2.45h-.45a2.1 2.1 0 0 0-.08-.8.33.33 0 0 0-.24-.14 6.71 6.71 0 0 0-1-.06 8.34 8.34 0 0 0-.9 0v3.02h2.18a1.87 1.87 0 0 0 .63-.11.19.19 0 0 0 .07-.1 5.85 5.85 0 0 0 .21-1h.46a17 17 0 0 0-.12 1.82l-.07.07h-3.73zm6.47-7.31v-.46h4.09a5 5 0 0 1 1.31.13 1.42 1.42 0 0 1 .75.52 1.54 1.54 0 0 1 .31 1 2 2 0 0 1-.42 1.23 2.78 2.78 0 0 1-1.29.88c.09.17.2.33.32.51l.21.32.07.11.87 1.29.37.55q.42.56.51.65a.6.6 0 0 0 .19.14 1.15 1.15 0 0 0 .35 0V38h-2.14a1.35 1.35 0 0 0-.13-.32l-1.2-2c-.34-.57-.63-1-.87-1.34a1.67 1.67 0 0 0-.34-.37l.06-.19a2.27 2.27 0 0 0 1-.14 1.31 1.31 0 0 0 .58-.57 1.82 1.82 0 0 0 .23-.92 1.43 1.43 0 0 0-.25-.86 1.32 1.32 0 0 0-.61-.48 2.86 2.86 0 0 0-.84-.08 3 3 0 0 0-.53 0v6.1a1.23 1.23 0 0 0 .06.41.21.21 0 0 0 .07.08.41.41 0 0 0 .16.06 6.15 6.15 0 0 0 .65 0V38h-3.54v-.49a4.1 4.1 0 0 0 .75-.06.18.18 0 0 0 .1-.06.36.36 0 0 0 0-.16 5.64 5.64 0 0 0 .06-.66v-4.83a3.67 3.67 0 0 0-.07-.84.22.22 0 0 0-.08-.09 3.33 3.33 0 0 0-.76-.12zm13.47 1.58h-.47a6.78 6.78 0 0 0-.06-.92 1.4 1.4 0 0 0-.6-.44 2.33 2.33 0 0 0-1-.19 1.67 1.67 0 0 0-1.18.38 1.19 1.19 0 0 0-.41.9 1.34 1.34 0 0 0 .12.6.91.91 0 0 0 .33.36 2.5 2.5 0 0 0 .64.25l.9.17.75.14a2.86 2.86 0 0 1 .73.28 1.52 1.52 0 0 1 .45.38 1.89 1.89 0 0 1 .27.54 2.41 2.41 0 0 1 .1.73 2.6 2.6 0 0 1-.3 1.26 2.66 2.66 0 0 1-.62.75 3 3 0 0 1-.82.51 4.36 4.36 0 0 1-1.61.27 5.28 5.28 0 0 1-1.22-.13 5.81 5.81 0 0 1-1.18-.44 8.07 8.07 0 0 0 .18-1.94h.47a7 7 0 0 0 .06 1 1.77 1.77 0 0 0 .73.61 2.45 2.45 0 0 0 1.12.26 2.26 2.26 0 0 0 .95-.19 1.25 1.25 0 0 0 .6-.52 1.49 1.49 0 0 0 .19-.75 1.3 1.3 0 0 0-.13-.6 1 1 0 0 0-.41-.4 4.35 4.35 0 0 0-1-.31q-1-.21-1.33-.31a1.94 1.94 0 0 1-.78-.42 1.77 1.77 0 0 1-.44-.66 2.41 2.41 0 0 1-.14-.84 2.57 2.57 0 0 1 .26-1.15 2.1 2.1 0 0 1 .69-.82 2.9 2.9 0 0 1 1-.42 4.87 4.87 0 0 1 1.11-.13 6.2 6.2 0 0 1 1.15.1 3.83 3.83 0 0 1 1 .31v.13a7 7 0 0 0-.12.71q.04.37.02.94zm4.69-2.04v.49a5.54 5.54 0 0 0-.67 0 .39.39 0 0 0-.15.06.2.2 0 0 0-.06.09 1.29 1.29 0 0 0-.06.36v5.28a3.15 3.15 0 0 0 .06.75.21.21 0 0 0 .08.12.37.37 0 0 0 .17.07 4.94 4.94 0 0 0 .67 0V38h-3.54v-.49h.67a.35.35 0 0 0 .16-.06.16.16 0 0 0 .05-.09v-.52-3.58-1.43a6.88 6.88 0 0 0-.07-.89.21.21 0 0 0-.05-.11.27.27 0 0 0-.13-.07 6.44 6.44 0 0 0-.71 0v-.49h1.61c.61 0 1.36-.01 1.97-.04zm2.63 7.77v-.46a2.77 2.77 0 0 0 .8-.09.34.34 0 0 0 .17-.22 8.79 8.79 0 0 0 .06-1.45v-3.3-1.53h-1.86a.49.49 0 0 0-.21 0 .36.36 0 0 0-.07.2 5.5 5.5 0 0 0-.09.88h-.46v-1.29c0-.16 0-.34-.06-.53l.05-.06h7.07l.06.06c0 .23-.05.43-.06.6s0 .44 0 1.22H146a6.53 6.53 0 0 0-.07-.83.56.56 0 0 0-.07-.24.39.39 0 0 0-.18 0H143.78v4.88a9.49 9.49 0 0 0 .06 1.45.33.33 0 0 0 .17.22 2.75 2.75 0 0 0 .8.09v.4h-3.7zm10.57-4.07l.7-1.14 1.06-1.87q.3-.53.39-.7h.88v.25c-.45.61-.94 1.32-1.46 2.14s-.85 1.35-1 1.58a1.74 1.74 0 0 0-.16.42 2.37 2.37 0 0 0 0 .42V37a1.07 1.07 0 0 0 .09.39.29.29 0 0 0 .17.1 4.66 4.66 0 0 0 .74 0V38h-3.63v-.49a5.54 5.54 0 0 0 .75-.05.26.26 0 0 0 .15-.08.77.77 0 0 0 .06-.34v-2.1a1.57 1.57 0 0 0-.21-.53q-.52-1-1.12-1.89a9 9 0 0 0-.91-1.22 2 2 0 0 0-.4-.36 1.89 1.89 0 0 0-.49 0v-.42l1.18-.24.62-.15a2.47 2.47 0 0 1 .5.34 3.63 3.63 0 0 1 .43.56 13.39 13.39 0 0 1 .81 1.39q.71 1.22.85 1.51zm-73.85-3.05v-.65l2.51.06h2.29v.65a2.31 2.31 0 0 0-1.06.15.39.39 0 0 0-.15.28 13 13 0 0 0-.11 2.15v4.53a2.61 2.61 0 0 0 .36 1.19 2 2 0 0 0 .9.73 3.69 3.69 0 0 0 1.54.28 3.38 3.38 0 0 0 1.71-.37 2.15 2.15 0 0 0 .91-1A6.34 6.34 0 0 0 87 36.6V35v-2.54a4.87 4.87 0 0 0-.11-1.2.35.35 0 0 0-.18-.19 3.11 3.11 0 0 0-1.11-.16v-.65l1.66.06h1.93v.65a2.08 2.08 0 0 0-.9.12.45.45 0 0 0-.15.24 11.82 11.82 0 0 0-.11 1.6c0 .95-.05 1.69-.05 2.24v1.85A11 11 0 0 1 88 38.4a3.53 3.53 0 0 1-.4 1.29 3.3 3.3 0 0 1-.86 1 3.84 3.84 0 0 1-1.32.65 6.37 6.37 0 0 1-1.77.22 7.25 7.25 0 0 1-2.19-.32 3.49 3.49 0 0 1-1.21-.64 2.8 2.8 0 0 1-.72-.89 2.88 2.88 0 0 1-.3-.95v-5.07-2a1.59 1.59 0 0 0-.23-.49.66.66 0 0 0-.19-.2z"/><path d="M173.71 29.82c-2.64-.55-3.06-.26-4.86-1.34-1.2-.71-2.24-1.65-3.4-2.47-2.79-2-5.14-2.26-8.18-3.31-2.58-.9-5.62-2.57-8.08-3.65a134.51 134.51 0 0 1-16.72-9.3C127.32 6.57 121.89 3 115.41 4a22.5 22.5 0 0 0-7.23 2.39c-2.81 1.48-3.26 1.85-5.5 2.95a4.2 4.2 0 0 1-2.53.52 1.84 1.84 0 0 1-.58-.25c-4.1-2.94-8.63-5.93-11.16-6.72-1.48-.45-3.36-1.69-5.06-2.28a14.08 14.08 0 0 0-10 .8c-3 1.48-5.83 2.91-8.79 4.66-3.38 2-16.94 7.43-20.21 8.83S36.53 18.71 33 20.14C24.67 23.5 23.92 23.2 16 24a24.1 24.1 0 0 0-9.92 3C3.66 28.4 0 31.66 0 34.59h32.46v-1.75H3.41a13.93 13.93 0 0 1 7.5-5.2 45.47 45.47 0 0 1 9-1.27 43.29 43.29 0 0 0 10.57-2c5.69-1.85 9-3.88 13-5.77 2.82-1.33 15.39-6.29 18.2-7.54s5-2.38 7.5-3.78a59.28 59.28 0 0 1 6.5-3.18c2.5-1.06 4.9-1.3 6.82-.45a54.56 54.56 0 0 0 5.3 2.23c4.78 2 10.57 6 14.3 8.58a19.83 19.83 0 0 0 10.2 3.63 34.15 34.15 0 0 0 4.42-.28c.4-.07-2-.27-3.13-.5-5.89-1.21-8.87-3.94-9.06-4.13-.47-.52-.43-.78-.06-1 2-1.22 6.14-4.14 11-4.94 6-1 10.41 1.87 15.31 5 4.44 2.85 9.56 6.48 17.62 10 2 .88 4 2.15 6.3 3s9.42 2.95 11.6 5c3.44 3.25 4.26 1.93 7.43 2.94 2.36.76 2.85 3.12 3.58 6.52.69-2.6-.5-9.23-3.6-9.88z" fill="#ffc211"/></g></svg>