<svg viewBox="0 0 150.9 148.7" xmlns="http://www.w3.org/2000/svg"><path d="m.2 112.5h150.4" fill="none" stroke="#ffc629" stroke-miterlimit="10"/><path d="m124.8 70.4v-11.2c0-2.1-.3-4.5-1.1-5.8-2.8-4.6-8.9-5.7-13.7-6.8-2-.5-9.9-1.8-19.5-3.4l7.3-8.8c2.9.2 5.7.4 8.3.8v7.2h18.6v-13.7c.1-6.1-6.9-8.3-11.6-9.4-.7-.2-1.5-.3-2.4-.5l15.5-18.8h-37.3l4.9 9.3-6.3 7.7c-4.6-.1-9-.2-12.5-.2h-1.3v-16.8h-26.3l6.5 12.4v4.4h-29.1l4.1 7.3a8.4 8.4 0 0 0 -1.5 4.6v12.6c-.1 8.5 12.3 10.9 18.6 12.2 2.6.4 5.3.9 7.9 1.3v9.8c-2.6-.1-5.2-.4-7.7-.7v-6.6h-18.7v13c-.1 8.7 13.8 9.8 20 10.5 2.2.3 4.3.5 6.5.6v7l-6.5 12.4h26.3v-18.7h3.4c3 0 6 0 9-.1l7.7 9.5-4.9 9.2h37.2l-16.6-20.3c6.5-.7 15.2-2.8 15.2-10m-28.4-5.5-3.2-3.9 9.4 1.5a30.23 30.23 0 0 1 3.5.8v.7c-3.2.5-6.5.7-9.7.9m-42.6-30.5v3.1q-1.2-.15-2.1-.3c-.7-.1-4.7-1-5.7-1.3v-.8a68.48 68.48 0 0 1 7.8-.7"/><g fill="#ffc629"><path d="m53.8 42.4-5.1-.8c-3.7-.7-7.5-2.2-7.5-3.5v-6.4c0-2.5 21.4-2.3 36.1-2.3l6.3-7.6h-50.5l2 3.5c-1.9 1-2.8 2.2-2.8 3.6v12.6c0 2.8 4.6 5.4 14.7 7.5l6.9 1.1v-7.7zm47.8-12.6c5.3.3 9.3.9 9.3 1.9v5.9h8.9v-8.8c0-2.5-4.6-4.4-12.8-5.5zm-17 20.7 4.1 5 14.8 2.3c3.6.7 7.5 2.2 7.5 3.5v5.5c0 1.3-4.6 2-11 2.4l5.7 6.9c9.2-1.1 14.3-3 14.3-5.8v-11.2c0-2.3-.3-3-.5-3.4-1.3-2.3-4.3-3.2-17.5-6l-14.9-2.3zm-43.4 17v-5.2h-9v8.1c0 4.8 19.4 7.1 45.6 7.1h4.2l-6.3-7.7c-8.4 0-34.5 0-34.5-2.3"/><path d="m115.8 4.8h-19l2.7 5.1-30.8 37.5v-13.3c-3.3 0-6.7 0-10 .1v30.7c3.3.1 6.7.1 10 .1v-11.4l30.8 37.6-2.6 4.9h18.8l-37.3-45.6z"/><path d="m58.6 16.8h10.1v-12h-13.4l3.3 6.4z"/><path d="m58.6 89.8-3.3 6.3h13.4v-13.8c-3.3-.1-6.7-.2-10-.4v7.9z"/></g><path d="m120.3 83.6a1.9 1.9 0 0 1 -3.8 0 2 2 0 0 1 1.9-1.9 1.84 1.84 0 0 1 1.9 1.9m-3.4 0a1.47 1.47 0 0 0 1.5 1.5 1.5 1.5 0 0 0 0-3 1.47 1.47 0 0 0 -1.5 1.5m1.2 1h-.4v-1.9c.2 0 .4-.1.7-.1a2.18 2.18 0 0 1 .6.1.52.52 0 0 1 .2.4.43.43 0 0 1 -.4.4.46.46 0 0 1 .3.5 1.34 1.34 0 0 1 .1.5h-.5c-.1-.1-.1-.2-.1-.5s-.1-.3-.4-.3h-.2v.9zm0-1.1h.2c.2 0 .4-.1.4-.3s-.1-.3-.4-.3h-.2z"/><path d="m0 144.4v-5.6h1v5.6c0 2.3 1.1 3.4 3 3.4s3-1.1 3-3.4v-5.6h1v5.6c0 2.8-1.5 4.3-4 4.3s-4-1.5-4-4.3zm26.7-5.7v9.8h-.9l-6.3-8v8h-1v-9.8h.9l6.3 8v-8zm10.4 0h1v9.8h-1zm20.4 0-4.3 9.8h-1l-4.3-9.8h1.1l3.8 8.5 3.8-8.5zm15.8 9v.9h-6.9v-9.8h6.7v.9h-5.7v3.5h5.1v.9h-5.1v3.6zm16.4.8-2.2-3.2h-3.4v3.1h-1v-9.8h3.7c2.5 0 4 1.3 4 3.4a3.12 3.12 0 0 1 -2.2 3.1l2.4 3.4zm0-6.4c0-1.6-1-2.5-3-2.5h-2.6v4.9h2.6c1.9.1 3-.9 3-2.4zm10.1 5.3.4-.8a4.64 4.64 0 0 0 3.2 1.2c1.8 0 2.6-.8 2.6-1.7 0-2.7-6-1-6-4.7 0-1.4 1.1-2.7 3.6-2.7a4.86 4.86 0 0 1 3 .9l-.3.8a5.3 5.3 0 0 0 -2.7-.8c-1.8 0-2.6.8-2.6 1.8 0 2.7 6 1.1 6 4.6 0 1.4-1.1 2.7-3.7 2.7a6.43 6.43 0 0 1 -3.5-1.3zm16.9-8.7h1v9.8h-1zm13.4.9h-3.4v-.9h7.9v.9h-3.4v8.9h-1v-8.9zm16.8 5.6v3.4h-1v-3.4l-3.9-6.4h1.1l3.4 5.5 3.4-5.5h1zm-142.8-15.9-1.5 1.6v2.8h-2.6v-11.2h2.6v5.2l5-5.2h2.9l-4.6 5 4.9 6.2h-3zm16.4 2.3v2.1h-8.7v-11.2h8.5v2.1h-5.9v2.4h5.2v2h-5.2v2.6zm12.4-9.1v11.2h-2.1l-5.6-6.8v6.8h-2.6v-11.2h2.1l5.6 6.8v-6.8zm12.8 0v11.2h-2.1l-5.6-6.8v6.8h-2.6v-11.2h2.1l5.6 6.8v-6.8zm11.3 9.1v2.1h-8.7v-11.2h8.5v2.1h-5.9v2.4h5.2v2h-5.2v2.6zm1.1 1 .9-2a6.53 6.53 0 0 0 3.7 1.2c1.5 0 2.2-.5 2.2-1.2 0-2.1-6.5-.7-6.5-4.8 0-1.9 1.5-3.5 4.7-3.5a7.32 7.32 0 0 1 3.9 1l-.8 2a6.13 6.13 0 0 0 -3.1-.9c-1.5 0-2.1.6-2.1 1.3 0 2.1 6.5.6 6.5 4.7 0 1.9-1.6 3.5-4.7 3.5a8 8 0 0 1 -4.7-1.3zm18.3-1.3h-5.2l-1 2.4h-2.7l5-11.2h2.6l5 11.2h-2.7zm-.8-2-1.8-4.3-1.8 4.3zm21.1-6.8-3.7 11.2h-2.8l-2.5-7.6-2.5 7.6h-2.8l-3.7-11.2h2.7l2.5 7.9 2.6-7.9h2.4l2.6 7.9 2.6-7.9zm5.4 10.1.9-2a6.53 6.53 0 0 0 3.7 1.2c1.5 0 2.2-.5 2.2-1.2 0-2.1-6.5-.7-6.5-4.8 0-1.9 1.5-3.5 4.7-3.5a7.32 7.32 0 0 1 3.9 1l-.8 2a6.13 6.13 0 0 0 -3.1-.9c-1.5 0-2.1.6-2.1 1.3 0 2.1 6.5.6 6.5 4.7 0 1.9-1.6 3.5-4.8 3.5a7.62 7.62 0 0 1 -4.6-1.3zm13.1-8h-3.6v-2.1h9.8v2.1h-3.6v9.1h-2.6zm13.5 6.7h-5.2l-1 2.4h-2.7l5-11.2h2.6l5 11.2h-2.7zm-.8-2-1.8-4.3-1.7 4.3zm6.6-4.7h-3.6v-2.1h9.8v2.1h-3.6v9.1h-2.6zm16.2 7v2.1h-8.7v-11.2h8.5v2.1h-5.9v2.4h5.2v2h-5.2v2.6z"/></svg>