<svg data-name="Layer 1" xmlns="http://www.w3.org/2000/svg" viewBox="0 0 214.92 162.18"><path d="M148.15 63.84h-24.81s-5 8.66-16 18a93.77 93.77 0 0 0 11.71 8.51 83.78 83.78 0 0 0 29.1-26.51" fill="#b6b9bc"/><path d="M91.35 63.84H66.54a83.78 83.78 0 0 0 29.1 26.51 93.71 93.71 0 0 0 11.71-8.51c-11-9.34-16-18-16-18" fill="#b6b9bc"/><path d="M107.35 81.84a93.68 93.68 0 0 1-11.71 8.51 81.3 81.3 0 0 0 11.71 5.2 81.35 81.35 0 0 0 11.71-5.2 93.61 93.61 0 0 1-11.71-8.51" fill="#93999d"/><path d="M117.44 22.91c.36 14.49-7.23 21.18-7.23 21.18C118.84 17.26 105.74 0 105.74 0s1.26 9.52-9.27 25.73-7.56 21.83-.32 30.74l11.19 13.79 12.93-17c9.17-12 1.53-24.8-2.84-30.4" fill="#411b8e"/><path d="M102.74 33.5c8.63-20.9 3-33.5 3-33.5s1.26 9.52-9.27 25.73-7.56 21.83-.32 30.75l11.2 13.79a37 37 0 0 1-4.6-36.77" fill="#18005d"/><path fill="#411b8e" d="M16.54 132.82V119l-5.95 9.04h-.13l-5.89-8.95v13.73H0v-21.17h5.02l5.57 8.95 5.56-8.95h5.02v21.17h-4.63zM24 110.74h4.84v4.08H24zm.12 5.87h4.6v16.21h-4.6zm19.77 16.21v-2.33a6 6 0 0 1-5.05 2.63c-3.78 0-7.38-3-7.38-8.38v-.06c0-5.41 3.54-8.38 7.38-8.38a6.23 6.23 0 0 1 5.05 2.42v-8h4.6v22.08zm.06-8.13c0-2.69-1.78-4.48-3.93-4.48s-4 1.75-4 4.48v.06c0 2.69 1.82 4.48 4 4.48s3.93-1.78 3.93-4.48zm19.14 8.13v-2.33a6 6 0 0 1-5.09 2.63c-3.78 0-7.38-3-7.38-8.38v-.06c0-5.41 3.54-8.38 7.38-8.38a6.23 6.23 0 0 1 5.05 2.42v-8h4.6v22.08zm.06-8.13c0-2.69-1.78-4.48-3.93-4.48s-4 1.75-4 4.48v.06c0 2.69 1.82 4.48 4 4.48s3.93-1.78 3.93-4.48zm7.96-13.95h4.6v22.08h-4.6zm23.38 15.58H83.21a3.76 3.76 0 0 0 4 3.18 5.31 5.31 0 0 0 3.93-1.66l2.63 2.33a8.56 8.56 0 0 1-15.09-5.35v-.06c0-4.63 3.29-8.44 8-8.44 5.41 0 7.89 4.2 7.89 8.8v.06c0 .45 0 .72-.06 1.15M86.65 120c-1.91 0-3.14 1.36-3.51 3.45h6.93c-.27-2.06-1.48-3.45-3.42-3.45M112 133.18c-6.59 0-11.13-4.63-11.13-10.89v-.06a10.87 10.87 0 0 1 11.1-10.95 11.62 11.62 0 0 1 8.32 2.9l-2.93 3.54a7.8 7.8 0 0 0-5.54-2.15 6.36 6.36 0 0 0-6.08 6.59v.06c0 3.87 2.66 6.71 6.41 6.71a7.43 7.43 0 0 0 4.38-1.27v-3h-4.69v-4H121v9.19a13.74 13.74 0 0 1-9 3.36m27.46-6.89h-11.28a3.76 3.76 0 0 0 4 3.18 5.31 5.31 0 0 0 3.93-1.66l2.63 2.33a8.56 8.56 0 0 1-15.09-5.35v-.06c0-4.63 3.3-8.44 8-8.44 5.41 0 7.89 4.2 7.89 8.8v.06c0 .45 0 .72-.06 1.15m-7.85-6.33c-1.91 0-3.15 1.36-3.51 3.45H135c-.27-2.06-1.48-3.45-3.42-3.45m18.71 13.18a8.43 8.43 0 0 1-8.74-8.38v-.06a8.78 8.78 0 0 1 17.54-.06v.06a8.51 8.51 0 0 1-8.8 8.44m4.26-8.44a4.31 4.31 0 0 0-4.26-4.48 4.15 4.15 0 0 0-4.2 4.42v.06a4.31 4.31 0 0 0 4.26 4.48 4.15 4.15 0 0 0 4.2-4.41zm16.45-3.62c-3.05 0-4.93 1.84-4.93 5.71v6h-4.6v-16.22h4.6v3.27c.94-2.24 2.45-3.69 5.17-3.57v4.81zm9.81 16.6a15.38 15.38 0 0 1-7.17-1.69l1.57-3.45a10.59 10.59 0 0 0 5.48 1.48c3.14 0 4.63-1.51 4.63-4.42v-.79a6.34 6.34 0 0 1-5.29 2.63c-3.78 0-7.2-2.75-7.2-7.56v-.06a7.13 7.13 0 0 1 7.2-7.56 6.56 6.56 0 0 1 5.23 2.42v-2.12h4.6v12.55c0 6.11-3 8.56-9 8.56m4.51-13.85a4 4 0 0 0-7.89 0v.06a3.7 3.7 0 0 0 3.93 3.75 3.75 3.75 0 0 0 4-3.75zm7.18-13.12h4.84v4.08h-4.84zm.12 5.87h4.6v16.21h-4.6zm17.81 16.21v-1.75a6.23 6.23 0 0 1-4.9 2.06c-3.05 0-5.56-1.75-5.56-5v-.06c0-3.54 2.69-5.17 6.53-5.17a11.5 11.5 0 0 1 4 .67v-.27c0-1.9-1.18-3-3.48-3a11.92 11.92 0 0 0-4.48.88l-1.15-3.51a14.31 14.31 0 0 1 6.29-1.3c5 0 7.23 2.6 7.23 7v9.41zm.09-6.53a7.14 7.14 0 0 0-2.93-.6c-2 0-3.18.79-3.18 2.24v.07c0 1.24 1 2 2.51 2 2.15 0 3.6-1.18 3.6-2.84zM24.64 148.37c3.91.85 5.72 2.28 5.72 5 0 3-2.51 5-6 5a10.27 10.27 0 0 1-7.17-2.81l1.23-1.46a8.35 8.35 0 0 0 6 2.48c2.36 0 3.91-1.23 3.91-3s-.88-2.58-4.56-3.36c-4-.88-5.89-2.18-5.89-5.09s2.43-4.81 5.77-4.81a9.16 9.16 0 0 1 6.17 2.16L28.67 144a7.71 7.71 0 0 0-5.06-1.9c-2.28 0-3.74 1.25-3.74 2.86s.9 2.61 4.76 3.44m10.66 6.01a1.92 1.92 0 0 0 2.18 2.16 4.06 4.06 0 0 0 1.88-.45v1.65a4.86 4.86 0 0 1-2.33.55c-2.08 0-3.66-1-3.66-3.66v-7.82h-1.8v-1.71h1.8v-3.91h1.93v3.91h4.11v1.71h-4.11zm8.02-6.79l-.57-1.62a10.7 10.7 0 0 1 4.71-1c3.53 0 5.52 1.8 5.52 5.21v7.92h-1.86v-2a5.68 5.68 0 0 1-4.69 2.23c-2.41 0-4.84-1.35-4.84-4.06s2.26-4.21 5.54-4.21a13.74 13.74 0 0 1 4 .55v-.45c0-2.33-1.43-3.54-3.86-3.54a9 9 0 0 0-3.94 1m.23 6.62c0 1.66 1.5 2.61 3.26 2.61 2.38 0 4.34-1.45 4.34-3.51v-1.25a13.51 13.51 0 0 0-3.81-.55c-2.43 0-3.79 1.05-3.79 2.71m15.01.13a1.92 1.92 0 0 0 2.18 2.16 4.06 4.06 0 0 0 1.88-.45v1.65a4.85 4.85 0 0 1-2.33.55c-2.08 0-3.66-1-3.66-3.66v-7.82h-1.8v-1.71h1.8v-3.91h1.93v3.91h4.11v1.71h-4.11zm11.86 2.31a5.36 5.36 0 0 0 4.09-1.83l1.2 1.08a6.69 6.69 0 0 1-5.34 2.43 6.45 6.45 0 0 1-6.47-6.77c0-3.76 2.63-6.77 6.22-6.77 3.84 0 6 3.06 6 6.87a5.4 5.4 0 0 1 0 .6H65.85a4.54 4.54 0 0 0 4.56 4.39m3.79-5.82c-.2-2.36-1.55-4.41-4.14-4.41-2.26 0-4 1.88-4.21 4.41zm25.8-.3c0 5.11-2.93 7.77-7.32 7.77s-7.3-2.66-7.3-7.62v-10.2h2v10.08c0 3.79 2 5.92 5.37 5.92s5.29-2 5.29-5.79v-10.2h2zm4.77 7.5h-1.93v-13h1.93v2.26a4.91 4.91 0 0 1 4.44-2.53c3.13 0 5 2.11 5 5.19v8h-1.93v-7.57c0-2.41-1.3-3.91-3.59-3.91a3.81 3.81 0 0 0-3.89 4.06zm12.56-17.93h2.21v2.13h-2.21zm.13 5h1.93v13h-1.93zm15.26-.04h2.08l-5.64 13.07h-1.71l-5.61-13.07h2.13l4.36 10.76 4.39-10.76zm9.28 11.59a5.36 5.36 0 0 0 4.09-1.83l1.2 1.08a6.69 6.69 0 0 1-5.29 2.43 6.45 6.45 0 0 1-6.47-6.77c0-3.76 2.63-6.77 6.22-6.77 3.84 0 6 3.06 6 6.87a5.19 5.19 0 0 1 0 .6h-10.27a4.54 4.54 0 0 0 4.56 4.39m3.79-5.82c-.2-2.36-1.55-4.41-4.14-4.41-2.26 0-4 1.88-4.21 4.41zm6.52 7.2h-1.93v-13h1.93v3.38a5.55 5.55 0 0 1 5.29-3.61V147h-.15c-2.83 0-5.14 2-5.14 5.94zm11.51.25a8.92 8.92 0 0 1-5.37-1.9l1-1.38a7.58 7.58 0 0 0 4.49 1.65c1.55 0 2.68-.8 2.68-2.06 0-1.3-1.53-1.81-3.23-2.28-2-.58-4.29-1.28-4.29-3.66v-.05c0-2.23 1.85-3.71 4.41-3.71a8.87 8.87 0 0 1 4.66 1.43l-.88 1.45a7.32 7.32 0 0 0-3.83-1.25c-1.53 0-2.51.8-2.51 1.88v.05c0 1.23 1.6 1.71 3.33 2.23 2 .6 4.16 1.38 4.16 3.71v.05c0 2.46-2 3.88-4.61 3.88m6.98-18.22h2.21v2.13h-2.21zm.13 5h1.93v13H171zm8.02 9.24a1.92 1.92 0 0 0 2.18 2.16 4.07 4.07 0 0 0 1.88-.45v1.65a4.86 4.86 0 0 1-2.33.55c-2.08 0-3.66-1-3.66-3.66v-7.82h-1.8v-1.71h1.8v-3.91H179v3.91h4.11v1.71H179zm13.09 4.11c-1.1 2.68-2.36 3.66-4.31 3.66a5.88 5.88 0 0 1-2.76-.65l.65-1.53a4.05 4.05 0 0 0 2 .48c1.15 0 1.88-.6 2.66-2.43l-5.89-12.91h2.13l4.71 10.8 4.16-10.8h2.06z"/></svg>