<svg id="Layer_1" data-name="Layer 1" xmlns="http://www.w3.org/2000/svg" viewBox="0 0 81.61 95.55"><defs><style>.cls-1{fill:#b6b9bc;}.cls-2{fill:#93999d;}.cls-3{fill:#411b8e;}.cls-4{fill:#18005d;}</style></defs><title>middle-georgia-state-college_icon</title><path class="cls-1" d="M81.61,63.84H56.8s-5,8.66-16,18a94,94,0,0,0,11.71,8.51,83.81,83.81,0,0,0,29.1-26.51"/><path class="cls-1" d="M24.81,63.84H0A83.81,83.81,0,0,0,29.1,90.35a94,94,0,0,0,11.71-8.51c-11-9.34-16-18-16-18"/><path class="cls-2" d="M40.81,81.84A94,94,0,0,1,29.1,90.35a81,81,0,0,0,11.71,5.2,81,81,0,0,0,11.71-5.2,94,94,0,0,1-11.71-8.51"/><path class="cls-3" d="M50.9,22.91c.36,14.49-7.23,21.18-7.23,21.18C52.3,17.26,39.2,0,39.2,0s1.26,9.52-9.27,25.73-7.56,21.83-.32,30.74L40.8,70.26l12.93-17c9.17-12,1.53-24.8-2.84-30.4"/><path class="cls-4" d="M36.2,33.5c8.63-20.9,3-33.5,3-33.5s1.26,9.52-9.27,25.73-7.56,21.83-.32,30.75l11.2,13.79a37,37,0,0,1-4.6-36.77"/></svg>