<svg id="institutions" xmlns="http://www.w3.org/2000/svg" width="210" height="160" viewBox="0 0 210 160"><defs><style>.cls-1{fill:#00539f;}.cls-2{fill:#e70;}</style></defs><title>inst_ssu</title><path class="cls-1" d="M1.41,108.48a14.15,14.15,0,0,0,5.39.83A9.7,9.7,0,0,0,12.35,108a6.85,6.85,0,0,0,3.32-6c0-2.91-1.36-5.35-5.73-7.77l-1.36-.75c-3-1.66-3.51-2.79-3.51-4.22,0-2.19,2.15-3.43,4.53-3.43a4.46,4.46,0,0,1,3.7,1.51,3.62,3.62,0,0,1,.87,2.11c0,0.38.11,0.57,0.34,0.57s0.42-.34.42-1c0-2.53.11-3.43,0.11-3.85a0.45,0.45,0,0,0-.45-0.41,19.64,19.64,0,0,0-4.72-.53c-4.6,0-8.37,2.53-8.37,6.45,0,2.83,1.28,5,5.2,7.28l1.92,1.13c2.94,1.74,3.28,3.13,3.28,4.53,0,2.26-1.73,4.07-4.6,4.07-2.07,0-4.56-.79-5.28-3.17a5.9,5.9,0,0,1-.3-1.66,0.42,0.42,0,0,0-.34-0.53c-0.26,0-.41.34-0.41,0.83s-0.19,2.53-.19,4.26a0.89,0.89,0,0,0,.64,1.09"/><path class="cls-1" d="M32.86,99H26.45c-0.11,0-.19-0.08-0.11-0.23l3.2-8a0.37,0.37,0,0,1,.19-0.3,0.47,0.47,0,0,1,.15.3l3.13,8c0,0.11,0,.19-0.15.19m3.32,9.2c-0.34,0-.42.15-0.42,0.34s0.38,0.23,1,.26c2.79,0.08,5.21.08,6.37,0.08s1.43-.08,1.43-0.34-0.15-.34-0.45-0.34a8.06,8.06,0,0,1-1.25-.11c-0.6-.11-1.55-0.53-2.83-3.43-2.11-4.87-7.66-17.84-8.45-19.61-0.34-.72-0.49-1-1-1-0.34,0-.6.38-1,1.28l-8.68,20c-0.68,1.62-1.24,2.6-2.75,2.83-0.3,0-.68,0-1,0a0.33,0.33,0,0,0-.38.34c0,0.26.19,0.34,0.6,0.34,1.74,0,3.51-.11,3.85-0.11,1.06,0,2.6.11,3.7,0.11,0.34,0,.53-0.08.53-0.34s-0.08-.34-0.49-0.34H24.53c-1,0-1.32-.34-1.32-0.91a5.82,5.82,0,0,1,.49-2L25.47,101a0.26,0.26,0,0,1,.3-0.22h7.81a0.32,0.32,0,0,1,.34.22l2.56,6.49a0.5,0.5,0,0,1-.3.72"/><path class="cls-1" d="M53.27,109.31c0.45,0,.76-0.49,1.58-2.34,0.75-1.62,2.3-5.13,4.41-9.8,1.81-3.92,2.68-5.66,4-8.67,0.87-2,1.32-2.53,1.74-2.83a2.62,2.62,0,0,1,1.62-.38c0.34,0,.53-0.11.53-0.34s-0.26-.3-0.68-0.3c-1,0-2.57.08-3.13,0.08-0.41,0-1.89-.08-3.54-0.08-0.64,0-.94.08-0.94,0.3a0.47,0.47,0,0,0,.56.34,5.09,5.09,0,0,1,1.32.15,0.53,0.53,0,0,1,.45.57,4.44,4.44,0,0,1-.3,1.17c-0.79,2.11-5.05,12.45-6.49,15.76H54.29L48.7,88.57a9.26,9.26,0,0,1-.76-2.41,0.7,0.7,0,0,1,.34-0.64,2.44,2.44,0,0,1,1.28-.23,0.43,0.43,0,0,0,.53-0.34c0-.23-0.38-0.3-0.79-0.3-1.66,0-3.4.08-4.22,0.08-1.17,0-3.06-.08-4.83-0.08-0.49,0-.83,0-0.83.3a0.31,0.31,0,0,0,.38.34,5.9,5.9,0,0,1,1.28.11c1.21,0.3,1.7.61,2.45,2.38l8.37,19.61c0.64,1.51.91,1.92,1.36,1.92"/><path class="cls-1" d="M77.9,99H71.48c-0.11,0-.19-0.08-0.11-0.23l3.2-8a0.37,0.37,0,0,1,.19-0.3,0.47,0.47,0,0,1,.15.3l3.13,8c0,0.11,0,.19-0.15.19m3.32,9.2c-0.34,0-.42.15-0.42,0.34s0.38,0.23,1,.26c2.79,0.08,5.21.08,6.37,0.08s1.43-.08,1.43-0.34-0.15-.34-0.45-0.34a8.06,8.06,0,0,1-1.25-.11c-0.6-.11-1.55-0.53-2.83-3.43-2.11-4.87-7.66-17.84-8.45-19.61-0.34-.72-0.49-1-1-1-0.34,0-.6.38-1,1.28l-8.68,20c-0.68,1.62-1.24,2.6-2.75,2.83-0.3,0-.68,0-1,0a0.33,0.33,0,0,0-.38.34c0,0.26.19,0.34,0.6,0.34,1.74,0,3.51-.11,3.85-0.11,1.06,0,2.6.11,3.7,0.11,0.34,0,.53-0.08.53-0.34s-0.08-.34-0.49-0.34H69.56c-1,0-1.32-.34-1.32-0.91a5.82,5.82,0,0,1,.49-2L70.5,101a0.26,0.26,0,0,1,.3-0.22h7.81A0.31,0.31,0,0,1,79,101l2.57,6.49a0.5,0.5,0,0,1-.3.72"/><path class="cls-1" d="M103.54,99.35c3.47,3.36,7.62,7.32,9.69,9.24a2,2,0,0,0,1.36.68c0.26,0,.53-0.3.53-1L115.5,88c0-1.81.3-2.38,1.21-2.64a3.4,3.4,0,0,1,1-.11c0.38,0,.57-0.15.57-0.34s-0.3-.3-0.75-0.3c-1.62,0-2.87.08-3.25,0.08-0.72,0-2.49-.08-4.22-0.08-0.49,0-.83,0-0.83.3s0.11,0.34.53,0.34a5.56,5.56,0,0,1,1.74.19c0.79,0.3,1.09.87,1.13,2.83L113,102.56h-0.15c-0.49-.45-4.9-5-7.17-7.2-4.83-4.71-9.81-9.8-10.22-10.22A2.84,2.84,0,0,0,94,84.08c-0.34,0-.57.45-0.57,1.09l-0.3,19c0,2.79-.15,3.66-1,3.88a6.75,6.75,0,0,1-1.51.15,0.46,0.46,0,0,0-.53.34c0,0.3.3,0.34,0.76,0.34,1.7,0,3.28-.11,3.58-0.11,0.6,0,2.15.11,4.3,0.11,0.45,0,.75-0.08.75-0.34s-0.19-.34-0.57-0.34a5.55,5.55,0,0,1-1.74-.23c-0.64-.23-1.06-1-1.13-3.47L95.66,91.43h0.11c0.64,0.56,4.15,4.45,7.77,7.92"/><path class="cls-1" d="M136,99.35c3.47,3.36,7.62,7.32,9.69,9.24a2,2,0,0,0,1.36.68c0.26,0,.52-0.3.52-1L148,88c0-1.81.3-2.38,1.21-2.64a3.4,3.4,0,0,1,1-.11c0.38,0,.57-0.15.57-0.34s-0.3-.3-0.75-0.3c-1.62,0-2.87.08-3.25,0.08-0.72,0-2.49-.08-4.22-0.08-0.49,0-.83,0-0.83.3s0.11,0.34.53,0.34a5.56,5.56,0,0,1,1.73.19c0.79,0.3,1.09.87,1.13,2.83l0.34,14.26h-0.15c-0.49-.45-4.9-5-7.16-7.2-4.83-4.71-9.8-9.8-10.22-10.22a2.83,2.83,0,0,0-1.43-1.05c-0.34,0-.56.45-0.56,1.09l-0.3,19c0,2.79-.15,3.66-1,3.88a6.73,6.73,0,0,1-1.51.15,0.46,0.46,0,0,0-.53.34c0,0.3.3,0.34,0.75,0.34,1.7,0,3.28-.11,3.58-0.11,0.6,0,2.15.11,4.3,0.11,0.45,0,.75-0.08.75-0.34s-0.19-.34-0.56-0.34a5.57,5.57,0,0,1-1.74-.23c-0.64-.23-1.05-1-1.13-3.47l-0.38-13.08h0.11c0.64,0.56,4.15,4.45,7.77,7.92"/><path class="cls-1" d="M167.43,99H161c-0.11,0-.19-0.08-0.11-0.23l3.21-8a0.37,0.37,0,0,1,.19-0.3,0.44,0.44,0,0,1,.15.3l3.13,8c0,0.11,0,.19-0.15.19m3.32,9.2c-0.34,0-.41.15-0.41,0.34s0.38,0.23,1,.26c2.79,0.08,5.21.08,6.37,0.08s1.43-.08,1.43-0.34-0.15-.34-0.45-0.34a8.05,8.05,0,0,1-1.25-.11c-0.6-.11-1.55-0.53-2.83-3.43-2.11-4.87-7.65-17.84-8.45-19.61-0.34-.72-0.49-1-1-1-0.34,0-.61.38-1,1.28l-8.67,20c-0.68,1.62-1.25,2.6-2.76,2.83-0.3,0-.68,0-1,0a0.33,0.33,0,0,0-.38.34c0,0.26.19,0.34,0.61,0.34,1.74,0,3.51-.11,3.85-0.11,1.05,0,2.6.11,3.7,0.11,0.34,0,.53-0.08.53-0.34s-0.08-.34-0.49-0.34H159.1c-1,0-1.32-.34-1.32-0.91a5.81,5.81,0,0,1,.49-2L160,101a0.26,0.26,0,0,1,.3-0.22h7.81a0.32,0.32,0,0,1,.34.22l2.56,6.49a0.5,0.5,0,0,1-.3.72"/><path class="cls-1" d="M198.25,84.64c-0.49,0-.72.08-0.72,0.3s0.19,0.34.57,0.34a6,6,0,0,1,1.28.11,1.57,1.57,0,0,1,1.43,1.74c0,1,.08,2.19.08,7.05v0.68a0.19,0.19,0,0,1-.19.23H188.18a0.2,0.2,0,0,1-.23-0.23V94.19c0-4.87,0-6,.08-7.05s0.34-1.58,1.24-1.74a5,5,0,0,1,.94-0.11c0.41,0,.6-0.11.6-0.34s-0.22-.3-0.68-0.3c-1.32,0-3.62.08-4.41,0.08s-3.09-.08-4.87-0.08c-0.45,0-.72.08-0.72,0.3s0.23,0.34.57,0.34a6.19,6.19,0,0,1,1.32.11,1.57,1.57,0,0,1,1.44,1.74c0,1,0,1.92,0,6.79v5.66c0,2.94,0,5.47-.15,6.83-0.11.94-.3,1.55-1,1.7a4.83,4.83,0,0,1-1.17.11c-0.42,0-.53.19-0.53,0.34s0.23,0.34.64,0.34c1.32,0,3.51-.11,4.26-0.11,0.94,0,3.24.11,5.39,0.11,0.41,0,.68-0.11.68-0.34a0.44,0.44,0,0,0-.53-0.34,12.22,12.22,0,0,1-1.7-.11c-1-.15-1.17-0.75-1.28-1.66C188,105,188,102.6,188,99.66V97.2a0.19,0.19,0,0,1,.23-0.19H200.7a0.2,0.2,0,0,1,.19.19v2.45c0,2.94,0,5.39-.15,6.75-0.11.94-.3,1.55-1,1.7a5,5,0,0,1-1.21.11,0.44,0.44,0,0,0-.53.34c0,0.23.26,0.34,0.72,0.34,1.28,0,3.62-.11,4.38-0.11,0.91,0,3.09.11,5.24,0.11,0.42,0,.68-0.11.68-0.34a0.47,0.47,0,0,0-.53-0.34,11.84,11.84,0,0,1-1.69-.11c-1-.15-1.21-0.75-1.32-1.66-0.15-1.4-.15-3.92-0.15-6.87V93.92c0-4.87,0-5.77.08-6.79s0.34-1.58,1.21-1.74a5.69,5.69,0,0,1,1-.11c0.38,0,.6-0.11.6-0.34s-0.22-.3-0.72-0.3c-1.28,0-3.47.08-4.26,0.08s-3.21-.08-5-0.08"/><path class="cls-1" d="M5.78,135.75L5,135.31c-1.73-1-2-1.62-2-2.46,0-1.27,1.25-2,2.63-2a2.59,2.59,0,0,1,2.15.88A2.11,2.11,0,0,1,8.23,133c0,0.22.07,0.33,0.2,0.33s0.24-.2.24-0.59c0-1.47.07-2,.07-2.24a0.26,0.26,0,0,0-.26-0.24,11.3,11.3,0,0,0-2.74-.31c-2.68,0-4.87,1.47-4.87,3.75,0,1.64.75,2.9,3,4.23L5,138.56c1.71,1,1.91,1.82,1.91,2.63a2.42,2.42,0,0,1-2.68,2.37,3,3,0,0,1-3.07-1.84,3.43,3.43,0,0,1-.18-1,0.24,0.24,0,0,0-.2-0.31c-0.15,0-.24.2-0.24,0.48s-0.11,1.47-.11,2.48a0.51,0.51,0,0,0,.37.63,8.15,8.15,0,0,0,3.14.49,5.64,5.64,0,0,0,3.23-.77,4,4,0,0,0,1.93-3.49c0-1.69-.79-3.11-3.33-4.52"/><path class="cls-1" d="M21.75,131.37c1.73,0,2.24.59,2.28,1.08l0,0.2c0,0.28.07,0.37,0.22,0.37s0.15-.11.18-0.31c0-.48,0-1.86,0-2.26s0-.4-0.15-0.4-0.22,0-.53.09a8.86,8.86,0,0,1-1.32.08H14.66a18.67,18.67,0,0,1-1.93-.08c-0.48-.07-0.68-0.22-0.83-0.22s-0.18.11-.22,0.35-0.42,2-.42,2.26,0,0.31.18,0.31a0.24,0.24,0,0,0,.22-0.24A2.19,2.19,0,0,1,12,132c0.29-.41.75-0.55,1.86-0.57l2.87-.07v7.55c0,1.71,0,3.18-.09,4a0.92,0.92,0,0,1-.57,1,2.61,2.61,0,0,1-.68.07c-0.24,0-.31.11-0.31,0.2s0.13,0.2.37,0.2c0.77,0,2.08-.07,2.52-0.07s1.84,0.07,3.12.07c0.22,0,.37-0.07.37-0.2a0.25,0.25,0,0,0-.31-0.2,7,7,0,0,1-1-.07,0.87,0.87,0,0,1-.74-1c-0.09-.81-0.11-2.28-0.11-4v-7.55Z"/><path class="cls-1" d="M32.12,138.54H28.39c-0.07,0-.11,0-0.07-0.13l1.87-4.65a0.21,0.21,0,0,1,.11-0.17,0.25,0.25,0,0,1,.09.17l1.82,4.67c0,0.07,0,.11-0.09.11m6.54,5.35a4.74,4.74,0,0,1-.73-0.07c-0.35-.07-0.9-0.31-1.64-2-1.23-2.83-4.46-10.38-4.92-11.41-0.2-.42-0.28-0.59-0.57-0.59a0.92,0.92,0,0,0-.57.75l-5,11.64c-0.4.94-.73,1.52-1.6,1.65l-0.57,0a0.19,0.19,0,0,0-.22.2c0,0.16.11,0.2,0.35,0.2,1,0,2-.07,2.24-0.07,0.61,0,1.51.07,2.15,0.07,0.2,0,.31,0,0.31-0.2s0-.2-0.28-0.2H27.27c-0.59,0-.77-0.2-0.77-0.53a3.37,3.37,0,0,1,.29-1.14l1-2.52a0.15,0.15,0,0,1,.18-0.13h4.54a0.18,0.18,0,0,1,.2.13l1.49,3.77a0.29,0.29,0,0,1-.18.42c-0.2,0-.24.09-0.24,0.2s0.22,0.13.57,0.16c1.62,0,3,0,3.71,0s0.83,0,.83-0.2-0.09-.2-0.26-0.2"/><path class="cls-1" d="M50.22,130c-0.06,0-.22,0-0.53.09a8.46,8.46,0,0,1-1.32.09H40.54a18.2,18.2,0,0,1-1.93-.09c-0.48-.07-0.68-0.22-0.83-0.22s-0.18.11-.22,0.35-0.42,2-.42,2.26,0,0.31.18,0.31a0.24,0.24,0,0,0,.22-0.24,2.22,2.22,0,0,1,.33-0.64c0.29-.42.75-0.55,1.87-0.57l2.87-.07v7.55c0,1.71,0,3.18-.09,4a0.92,0.92,0,0,1-.57,1,2.76,2.76,0,0,1-.68.06c-0.24,0-.31.11-0.31,0.2s0.13,0.2.37,0.2c0.77,0,2.08-.07,2.52-0.07s1.84,0.07,3.12.07c0.22,0,.37-0.07.37-0.2a0.26,0.26,0,0,0-.31-0.2,7.3,7.3,0,0,1-1-.06,0.87,0.87,0,0,1-.75-1c-0.09-.81-0.11-2.28-0.11-4v-7.55l2.44,0c1.73,0,2.23.59,2.28,1.07l0,0.2c0,0.29.07,0.37,0.22,0.37s0.15-.11.17-0.31c0-.48,0-1.86,0-2.26s0-.4-0.15-0.4"/><path class="cls-1" d="M62.44,141.35c-0.13,0-.18.09-0.22,0.28a1.57,1.57,0,0,1-.83,1.38,5.27,5.27,0,0,1-1.82.24c-2,0-2.56-.29-2.61-1.56,0-.55,0-2.13,0-2.76v-1.49c0-.11,0-0.2.11-0.2,0.48,0,2.68,0,3,.09a1,1,0,0,1,1.07.72c0,0.24,0,.48.07,0.68a0.15,0.15,0,0,0,.17.15c0.18,0,.2-0.26.2-0.42s0-.88.09-1.25c0.11-.94.15-1.25,0.15-1.36a0.18,0.18,0,0,0-.15-0.2,0.77,0.77,0,0,0-.31.24,1.53,1.53,0,0,1-.92.29c-0.44,0-2.94,0-3.38,0-0.11,0-.13-0.09-0.13-0.2v-4.61a0.14,0.14,0,0,1,.13-0.18c0.39,0,2.7,0,3,.09a1.18,1.18,0,0,1,1.27.68,1.77,1.77,0,0,1,.13.68c0,0.15,0,.24.15,0.24a0.33,0.33,0,0,0,.22-0.31c0-.22.09-1,0.11-1.23a8.11,8.11,0,0,1,.16-1.21A0.14,0.14,0,0,0,62,130a2.52,2.52,0,0,0-.31.09c-0.15,0-.46.09-0.81,0.11s-4.65,0-5.26,0-1.78,0-2.79,0c-0.28,0-.44,0-0.44.17s0.13,0.2.33,0.2a3.42,3.42,0,0,1,.77.07,0.92,0.92,0,0,1,.83,1c0,0.59,0,1.12,0,3.95v3.29c0,1.71,0,3.18-.09,4a0.92,0.92,0,0,1-.57,1,2.89,2.89,0,0,1-.68.06c-0.24,0-.31.11-0.31,0.2s0.13,0.2.37,0.2,0.88,0,1.34,0l1.1,0c0.57,0,1.3,0,2.24,0s2.1,0.07,3.55.07c0.72,0,.9,0,1-0.48a12.61,12.61,0,0,0,.26-2.06c0-.2,0-0.44-0.18-0.44"/><path class="cls-1" d="M87,130.18c-0.75,0-2,0-2.26,0,0,0-1.32,0-2.3,0-0.26,0-.39,0-0.39.17s0.11,0.2.33,0.2a3.34,3.34,0,0,1,.7.07,0.9,0.9,0,0,1,.81,1c0,0.59,0,1.12,0,3.95v2.35c0,1.91,0,3.53-1.12,4.54a4.1,4.1,0,0,1-5,.24c-0.94-.75-1.47-1.8-1.47-4.52v-2.61c0-2.83,0-3.35,0-3.95a0.84,0.84,0,0,1,.7-1,2.7,2.7,0,0,1,.57-0.07c0.2,0,.31-0.06.31-0.2s-0.13-.17-0.42-0.17c-0.7,0-2,0-2.48,0s-1.87,0-2.9,0c-0.28,0-.41,0-0.41.17s0.11,0.2.33,0.2a3.5,3.5,0,0,1,.75.07,0.9,0.9,0,0,1,.83,1c0,0.59,0,1.12,0,3.95v2.74c0,2.7.77,4.08,1.75,4.94a6.68,6.68,0,0,0,4.41,1.27,6,6,0,0,0,4.08-1.34c1.62-1.34,1.84-3.53,1.84-5.62v-2c0-2.83,0-3.35,0-3.95s0.18-.92.7-1a2.7,2.7,0,0,1,.57-0.07c0.22,0,.33-0.06.33-0.2s-0.13-.17-0.4-0.17"/><path class="cls-1" d="M104.84,130.18c-0.94,0-1.67,0-1.89,0-0.42,0-1.45,0-2.46,0-0.28,0-.48,0-0.48.17s0.07,0.2.31,0.2a3.17,3.17,0,0,1,1,.11c0.46,0.17.64,0.5,0.66,1.64l0.2,8.29H102.1c-0.28-.26-2.85-2.9-4.17-4.19-2.81-2.74-5.7-5.7-5.95-5.94a1.67,1.67,0,0,0-.83-0.61c-0.2,0-.33.26-0.33,0.64l-0.18,11.05c0,1.62-.09,2.13-0.59,2.26a4,4,0,0,1-.88.09,0.26,0.26,0,0,0-.31.2c0,0.17.17,0.2,0.44,0.2,1,0,1.91-.07,2.08-0.07,0.35,0,1.25.07,2.5,0.07,0.26,0,.44,0,0.44-0.2s-0.11-.2-0.33-0.2a3.32,3.32,0,0,1-1-.13c-0.37-.13-0.61-0.57-0.66-2l-0.22-7.61h0.07c0.37,0.33,2.41,2.59,4.52,4.61s4.43,4.25,5.64,5.37a1.14,1.14,0,0,0,.79.4c0.15,0,.31-0.17.31-0.59l0.22-11.76c0-1.05.18-1.38,0.7-1.54a1.9,1.9,0,0,1,.59-0.07c0.22,0,.33-0.09.33-0.2s-0.18-.17-0.44-0.17"/><path class="cls-1" d="M114.45,143.89a7.27,7.27,0,0,1-1-.07,0.82,0.82,0,0,1-.77-0.88c-0.09-.79-0.09-2.28-0.09-4.08v-3.29c0-2.83,0-3.36,0-3.95a0.84,0.84,0,0,1,.73-1,2.75,2.75,0,0,1,.57-0.07c0.2,0,.31,0,0.31-0.22s-0.15-.15-0.39-0.15c-0.75,0-2,0-2.48,0s-1.86,0-2.59,0c-0.31,0-.46,0-0.46.15s0.11,0.22.31,0.22a2.43,2.43,0,0,1,.7.09,0.89,0.89,0,0,1,.66,1c0,0.59,0,1.12,0,3.95v3.29c0,1.8,0,3.29-.09,4.06a0.81,0.81,0,0,1-.57.9,2.85,2.85,0,0,1-.68.07c-0.24,0-.31.11-0.31,0.2s0.13,0.2.37,0.2c0.77,0,2.09-.07,2.52-0.07s1.84,0.07,3.12.07c0.22,0,.37-0.07.37-0.2a0.25,0.25,0,0,0-.31-0.2"/><path class="cls-1" d="M130.9,130.18c-0.59,0-1.49,0-1.82,0s-1.09,0-2.06,0c-0.37,0-.55,0-0.55.17a0.27,0.27,0,0,0,.33.2,3,3,0,0,1,.77.09,0.31,0.31,0,0,1,.26.33,2.56,2.56,0,0,1-.17.68c-0.46,1.23-2.94,7.24-3.77,9.17h-0.07l-3.25-8.36a5.36,5.36,0,0,1-.44-1.4,0.41,0.41,0,0,1,.2-0.37,1.45,1.45,0,0,1,.75-0.13c0.17,0,.31-0.06.31-0.2s-0.22-.17-0.46-0.17c-1,0-2,0-2.45,0-0.68,0-1.78,0-2.81,0-0.29,0-.48,0-0.48.17a0.18,0.18,0,0,0,.22.2,3.33,3.33,0,0,1,.75.07,1.76,1.76,0,0,1,1.42,1.38l4.87,11.4c0.38,0.88.53,1.12,0.79,1.12s0.44-.29.92-1.36,1.34-3,2.56-5.7c1.05-2.28,1.56-3.29,2.33-5a3.55,3.55,0,0,1,1-1.64,1.53,1.53,0,0,1,.94-0.22c0.2,0,.31-0.06.31-0.2s-0.15-.17-0.39-0.17"/><path class="cls-1" d="M141.87,141.35c-0.13,0-.17.09-0.22,0.28a1.57,1.57,0,0,1-.83,1.38,5.24,5.24,0,0,1-1.82.24c-2,0-2.57-.29-2.61-1.56,0-.55,0-2.13,0-2.76v-1.49c0-.11,0-0.2.11-0.2,0.48,0,2.67,0,3,.09a1,1,0,0,1,1.07.72c0,0.24,0,.48.07,0.68a0.15,0.15,0,0,0,.17.15c0.17,0,.2-0.26.2-0.42s0-.88.09-1.25c0.11-.94.15-1.25,0.15-1.36a0.18,0.18,0,0,0-.15-0.2,0.78,0.78,0,0,0-.31.24,1.52,1.52,0,0,1-.92.29c-0.44,0-2.94,0-3.38,0-0.11,0-.13-0.09-0.13-0.2v-4.61a0.14,0.14,0,0,1,.13-0.18c0.39,0,2.7,0,3,.09a1.18,1.18,0,0,1,1.27.68,1.74,1.74,0,0,1,.13.68c0,0.15,0,.24.15,0.24a0.33,0.33,0,0,0,.22-0.31c0-.22.09-1,0.11-1.23a8.47,8.47,0,0,1,.16-1.21,0.14,0.14,0,0,0-.13-0.17,2.5,2.5,0,0,0-.31.09c-0.15,0-.46.09-0.81,0.11s-4.65,0-5.26,0-1.78,0-2.78,0c-0.29,0-.44,0-0.44.17s0.13,0.2.33,0.2a3.43,3.43,0,0,1,.77.07,0.91,0.91,0,0,1,.83,1c0,0.59,0,1.12,0,3.95v3.29c0,1.71,0,3.18-.09,4a0.92,0.92,0,0,1-.57,1,2.9,2.9,0,0,1-.68.06c-0.24,0-.31.11-0.31,0.2s0.13,0.2.38,0.2c0.39,0,.88,0,1.34,0l1.1,0c0.57,0,1.29,0,2.24,0s2.11,0.07,3.56.07c0.72,0,.9,0,1-0.48a12.75,12.75,0,0,0,.26-2.06c0-.2,0-0.44-0.18-0.44"/><path class="cls-1" d="M151.89,137.22a1.92,1.92,0,0,1-1.36.31,5.31,5.31,0,0,1-1.47-.18,0.3,0.3,0,0,1-.18-0.33v-5.55a0.23,0.23,0,0,1,.18-0.26,7,7,0,0,1,1.14-.06c1.14,0,2.94.68,2.94,3.31a3.15,3.15,0,0,1-1.25,2.76m7.77,6.67a1.79,1.79,0,0,1-.46,0,3.61,3.61,0,0,1-2.06-1.23c-1.16-1.17-2.52-2.85-4.23-5,1.89-1.51,2.67-2.74,2.67-4.12a3.26,3.26,0,0,0-1.36-2.56,6.77,6.77,0,0,0-3.66-.79l-3,0c-0.4,0-1.62,0-2.63,0-0.29,0-.44,0-0.44.17s0.13,0.2.33,0.2a3.69,3.69,0,0,1,.77.07,0.91,0.91,0,0,1,.83,1c0,0.59,0,1.12,0,3.95v3.29c0,1.71,0,3.18-.09,4a0.92,0.92,0,0,1-.57,1,2.88,2.88,0,0,1-.68.07c-0.24,0-.31.11-0.31,0.2s0.13,0.2.37,0.2c0.77,0,2-.07,2.37-0.07s1.89,0.07,3,.07c0.24,0,.39-0.07.39-0.2a0.22,0.22,0,0,0-.24-0.2,7.31,7.31,0,0,1-.94-0.07,0.86,0.86,0,0,1-.75-1c-0.09-.79-0.11-2.24-0.11-4V138.6a0.14,0.14,0,0,1,.15-0.15l1.73,0a0.45,0.45,0,0,1,.35.13c0.24,0.29,1.05,1.54,1.82,2.55a8.74,8.74,0,0,0,2.63,2.74,4.21,4.21,0,0,0,2.11.37h1.84c0.24,0,.38,0,0.38-0.2a0.22,0.22,0,0,0-.24-0.2"/><path class="cls-1" d="M165.5,135.75l-0.79-.44c-1.73-1-2-1.62-2-2.46,0-1.27,1.25-2,2.63-2a2.58,2.58,0,0,1,2.15.88A2.11,2.11,0,0,1,168,133c0,0.22.07,0.33,0.2,0.33s0.24-.2.24-0.59c0-1.47.07-2,.07-2.24a0.26,0.26,0,0,0-.26-0.24,11.3,11.3,0,0,0-2.74-.31c-2.67,0-4.87,1.47-4.87,3.75,0,1.64.74,2.9,3,4.23l1.12,0.66c1.71,1,1.91,1.82,1.91,2.63a2.42,2.42,0,0,1-2.68,2.37,3,3,0,0,1-3.07-1.84,3.46,3.46,0,0,1-.18-1c0-.13,0-0.31-0.2-0.31s-0.24.2-.24,0.48-0.11,1.47-.11,2.48a0.51,0.51,0,0,0,.37.63,8.14,8.14,0,0,0,3.13.49,5.64,5.64,0,0,0,3.23-.77,4,4,0,0,0,1.93-3.49c0-1.69-.79-3.11-3.33-4.52"/><path class="cls-1" d="M177.87,143.89a7.27,7.27,0,0,1-1-.07,0.81,0.81,0,0,1-.77-0.88c-0.09-.79-0.09-2.28-0.09-4.08v-3.29c0-2.83,0-3.36,0-3.95a0.84,0.84,0,0,1,.72-1,2.82,2.82,0,0,1,.57-0.07c0.2,0,.31,0,0.31-0.22s-0.15-.15-0.39-0.15c-0.75,0-2,0-2.48,0s-1.86,0-2.59,0c-0.31,0-.46,0-0.46.15s0.11,0.22.31,0.22a2.45,2.45,0,0,1,.7.09,0.89,0.89,0,0,1,.66,1c0,0.59,0,1.12,0,3.95v3.29c0,1.8,0,3.29-.09,4.06a0.81,0.81,0,0,1-.57.9,2.88,2.88,0,0,1-.68.07c-0.24,0-.31.11-0.31,0.2s0.13,0.2.38,0.2c0.77,0,2.08-.07,2.52-0.07s1.84,0.07,3.12.07c0.22,0,.37-0.07.37-0.2a0.25,0.25,0,0,0-.31-0.2"/><path class="cls-1" d="M207.77,130.18l-2.06,0c-0.57,0-1.25,0-1.89,0-0.22,0-.33,0-0.33.17s0.18,0.18.35,0.22a0.42,0.42,0,0,1,.42.41,2.46,2.46,0,0,1-.28,1c-0.29.57-2.63,4.56-2.88,5-0.33-.53-2.85-4.89-3.21-5.46a1.48,1.48,0,0,1-.24-0.64,0.3,0.3,0,0,1,.26-0.28c0.31-.09.44-0.09,0.44-0.24s-0.11-.17-0.28-0.17c-0.88,0-1.78,0-2.19,0-0.64,0-2.08,0-2.41,0a0.32,0.32,0,0,0-.34.13c0-.17,0-0.26-0.15-0.26s-0.22,0-.52.09a8.8,8.8,0,0,1-1.31.09h-7.83a19,19,0,0,1-1.93-.09c-0.48-.07-0.68-0.22-0.83-0.22s-0.18.11-.22,0.35-0.41,2-.41,2.26,0,0.31.18,0.31,0.17-.09.22-0.24a2.27,2.27,0,0,1,.33-0.64c0.28-.42.75-0.55,1.87-0.57l2.87-.07v7.55c0,1.71,0,3.18-.09,4a0.93,0.93,0,0,1-.57,1,2.84,2.84,0,0,1-.68.06c-0.24,0-.31.11-0.31,0.2s0.13,0.2.38,0.2c0.77,0,2.08-.07,2.52-0.07s1.84,0.07,3.12.07c0.22,0,.37-0.07.37-0.2a0.25,0.25,0,0,0-.31-0.2,7.52,7.52,0,0,1-1-.06,0.87,0.87,0,0,1-.74-1c-0.09-.81-0.11-2.28-0.11-4v-7.55l2.43,0c1.73,0,2.23.59,2.28,1.07l0,0.2c0,0.28.07,0.37,0.22,0.37s0.15-.11.17-0.31c0-.48,0-1.86,0-2.26a0.17,0.17,0,0,0,0,0,0.27,0.27,0,0,0,.25.13,2,2,0,0,1,.81.24,4.3,4.3,0,0,1,1.25,1.32c0.68,1,3.31,5.09,3.44,5.38a3.7,3.7,0,0,1,.44,2V141c0,0.31,0,1.08-.07,1.86a0.91,0.91,0,0,1-.59,1,3.07,3.07,0,0,1-.68.06,0.26,0.26,0,0,0-.31.2c0,0.15.15,0.2,0.42,0.2,0.72,0,2-.07,2.5-0.07s1.82,0.07,3,.07c0.26,0,.42-0.07.42-0.2a0.28,0.28,0,0,0-.33-0.2,7.73,7.73,0,0,1-1-.06,0.89,0.89,0,0,1-.79-1c0-.79,0-1.56,0-1.86v-1.49a4.34,4.34,0,0,1,.24-1.86,62.23,62.23,0,0,1,3.75-6,2.56,2.56,0,0,1,1-.88,2.34,2.34,0,0,1,.83-0.22,0.31,0.31,0,0,0,.37-0.22c0-.11-0.13-0.15-0.35-0.15"/><path class="cls-2" d="M189.23,122.1a6.32,6.32,0,0,1-4.38-1.6,5.73,5.73,0,0,0-7.29,0,6.78,6.78,0,0,1-8.75,0,5.72,5.72,0,0,0-7.29,0,6.78,6.78,0,0,1-8.75,0,5.73,5.73,0,0,0-7.29,0,6.77,6.77,0,0,1-8.75,0,5.73,5.73,0,0,0-7.29,0,6.77,6.77,0,0,1-8.75,0,5.73,5.73,0,0,0-7.29,0,6.77,6.77,0,0,1-8.75,0,5.73,5.73,0,0,0-7.29,0,6.77,6.77,0,0,1-8.75,0,5.73,5.73,0,0,0-7.29,0,6.78,6.78,0,0,1-8.75,0,5.73,5.73,0,0,0-7.29,0,6.78,6.78,0,0,1-8.75,0,5.73,5.73,0,0,0-7.29,0,6.77,6.77,0,0,1-8.75,0,5.73,5.73,0,0,0-7.29,0,6.77,6.77,0,0,1-8.75,0,5.73,5.73,0,0,0-7.29,0,6.78,6.78,0,0,1-8.75,0,5.73,5.73,0,0,0-7.29,0l-0.73-.75a6.77,6.77,0,0,1,8.75,0,5.74,5.74,0,0,0,7.29,0,6.77,6.77,0,0,1,8.75,0,5.74,5.74,0,0,0,7.29,0,6.78,6.78,0,0,1,8.75,0,5.74,5.74,0,0,0,7.29,0,6.77,6.77,0,0,1,8.75,0,5.74,5.74,0,0,0,7.29,0,6.77,6.77,0,0,1,8.75,0,5.74,5.74,0,0,0,7.29,0,6.77,6.77,0,0,1,8.75,0,5.74,5.74,0,0,0,7.29,0,6.77,6.77,0,0,1,8.75,0,5.74,5.74,0,0,0,7.29,0,6.77,6.77,0,0,1,8.75,0,5.74,5.74,0,0,0,7.29,0,6.77,6.77,0,0,1,8.75,0,5.73,5.73,0,0,0,7.29,0,6.77,6.77,0,0,1,8.75,0,5.74,5.74,0,0,0,7.29,0,6.77,6.77,0,0,1,8.75,0,5.74,5.74,0,0,0,7.29,0,6.77,6.77,0,0,1,8.75,0,5.73,5.73,0,0,0,7.29,0,6.78,6.78,0,0,1,8.75,0,5.74,5.74,0,0,0,7.29,0l0.73,0.75a6.77,6.77,0,0,1-8.75,0,5.74,5.74,0,0,0-7.29,0A6.33,6.33,0,0,1,189.23,122.1Z"/><path class="cls-2" d="M92.34,30.61a16,16,0,0,1,9.18-3.15,8.17,8.17,0,0,0-3.84,2.93,7.68,7.68,0,0,0-1.16,4.23c0,0.78,0,1.27,0,1.27a11.57,11.57,0,0,0-5,0,8.67,8.67,0,0,0-5.6,3.3s0.41-4.38,6.44-8.55"/><path class="cls-2" d="M102.18,28.67V40.15a9,9,0,0,0-4-3.63V34.95A7,7,0,0,1,99,31.31a7.67,7.67,0,0,1,3.19-2.64"/><rect class="cls-2" x="67.59" y="51.46" width="11.64" height="19.04"/><path class="cls-2" d="M89.16,38.34a9.52,9.52,0,0,1,7.36-.78V44.7H85a8.47,8.47,0,0,1,4.17-6.36"/><rect class="cls-2" x="86.35" y="50.14" width="15.53" height="20.36"/><path class="cls-2" d="M98,44.78V38.17c3.53,1.91,4.17,6.61,4.17,6.61H98Z"/><path class="cls-2" d="M116,30.61c6,4.17,6.44,8.55,6.44,8.55a8.68,8.68,0,0,0-5.6-3.3,11.57,11.57,0,0,0-5,0s0-.49,0-1.27a7.68,7.68,0,0,0-1.16-4.23,8.17,8.17,0,0,0-3.84-2.93A16,16,0,0,1,116,30.61"/><path class="cls-2" d="M106.6,28.67a7.69,7.69,0,0,1,3.19,2.64,7,7,0,0,1,.86,3.64v1.57a9,9,0,0,0-4,3.63V28.67Z"/><path class="cls-2" d="M110.37,38.17v6.61h-4.18s0.65-4.7,4.18-6.61"/><rect class="cls-2" x="106.69" y="50.14" width="15.53" height="20.36"/><path class="cls-2" d="M111.85,44.7V37.56a9.53,9.53,0,0,1,7.36.78,8.47,8.47,0,0,1,4.16,6.36H111.85Z"/><rect class="cls-2" x="129.26" y="51.46" width="11.64" height="19.04"/><polygon class="cls-2" points="104.25 15.47 52.8 45.06 33.46 70.5 38.37 70.5 55.33 48.46 104.25 19.61 153.18 48.31 170.44 70.35 175.79 70.35 155.68 45.06 104.25 15.47"/><polygon class="cls-2" points="0.45 15.47 0.45 70.5 29.3 70.5 50.72 42.54 98.01 15.47 0.45 15.47"/><polygon class="cls-2" points="110.8 15.47 158.09 42.54 179.51 70.5 208.36 70.5 208.36 15.47 110.8 15.47"/></svg>