<svg id="institutions" xmlns="http://www.w3.org/2000/svg" xmlns:xlink="http://www.w3.org/1999/xlink" width="210" height="160" viewBox="0 0 210 160"><defs><style>.cls-1,.cls-6{fill:none;}.cls-2{fill:#fff;}.cls-3{clip-path:url(#clip-path);}.cls-4{fill:#006eb5;}.cls-5{fill:#b2b5b6;}.cls-6{stroke:#006eb5;stroke-miterlimit:10;stroke-width:1.55px;}</style><clipPath id="clip-path"><path class="cls-1" d="M137.8,8.55c-0.29-1.88,1.28-3.71,2.81-4.77l4.7-3.37H64.72l3.55,3.07c0.37,0.36,3,1.85,2.6,4.77-0.15,1.22.06,4.34-.36,7.67-1.35,10.64-2.17,14-2.24,15.16l-0.71,5.69c-0.38,6,0,26.57,15.92,41.22l1.84,1.53a34.21,34.21,0,0,0,21,8.59h0.21l0.21,0a39.71,39.71,0,0,0,15.13-6.85c7.13-5.12,16.21-15,19.05-33.17a33,33,0,0,0,.57-11.44C140.41,28.16,138.2,11.13,137.8,8.55Z"/></clipPath></defs><title>inst_sgsc</title><path class="cls-2" d="M141.47,36.95s-3.6-25.58-4.06-28.35,5.4-6.4,8-8.32H64.55C68.34,3.42,71.25,5.75,71,8.55c-0.5,6.69-3.24,27.86-3.24,27.86a41,41,0,0,0,.36,12.16C74.51,84.41,102.46,88,104.42,88.32h-0.06c2.43,0.15,30.12-3.91,36.34-39.21A53.27,53.27,0,0,0,141.47,36.95Z"/><g class="cls-3"><path class="cls-4" d="M139.5,37S136.2,11.68,135.79,9s1.41-5.28,3.7-6.6H69.41c2.29,1.32,4.11,4,3.7,6.6S69.41,37,69.41,37a48.3,48.3,0,0,0,.66,11.62c5.36,32.38,32.53,37.71,34.23,38h0c-1.31,0-17.84,0,.15,0s1.46,0,.15,0h0c1.7-.3,28.87-5.63,34.23-38A48.3,48.3,0,0,0,139.5,37Z"/><path class="cls-2" d="M127.52,34.82c-5.72-6.39-13.82-9.62-24.06-9.62h-0.74c-14.13.22-18.49,6.72-19.63,9.15a2.85,2.85,0,0,0-.54.57,12,12,0,0,0-2.37,2,9.94,9.94,0,0,0-1.77,2.81c-2.88,2.19-4.28,6-3.84,10.59,0,0.67.66,7.47,6,11.1L84.34,64,83.6,59.44a14.91,14.91,0,0,1-.13-2l0.1-.42,1.5,0.72c4.92,2.37,5.88,4,6,4.81a2.1,2.1,0,0,1-.57,1.83c-2.25,2.71-15.66,5.49-15.14,4.45L75,70.65l3.28,2a1.59,1.59,0,0,1-.68-0.14l0.43,0.26c0.32,0.2.76,0.47,1.3,0.76a2,2,0,0,0-.15.31c-0.47,1.26.39,2.3,1.23,3.29a19.31,19.31,0,0,0,1.67,1.77,17.25,17.25,0,0,0,8.19,3.48l-2.74,1.44,3.26,1.74a30.17,30.17,0,0,0,12.87,3.12,20.11,20.11,0,0,0,10-2.53,2,2,0,0,0,1.35.5h0c1.54,0,8-3.33,9.59-4.37l0.42-.27,0.11-.2c3.75-3.08,9.56-12.59,10.42-20.39C136.41,54.17,134.76,42.9,127.52,34.82Z"/><path class="cls-4" d="M109.38,63.41c-3.32-13.52-22.91-12.17-22.91-12.17-1.22-1.83,4.33-4.4,8.2-6-0.13,0-.87.14-1,0.15-3.56.57-6.29,1.68-8.28,3.54a11.69,11.69,0,0,0-3.15,5.22L85.92,56c2.37,1.14,6.6,3.36,7.1,6.24C94,68,82.25,70.59,78.3,70.64c0.62,0,5.69,4.86,16.51,3.55,0.71-.09-1.07,4.55-13.61,0-0.73-.27,2.64,3.19,3.5,3.64,5.35,2.77,9.74,3.81,19-1.82C110.35,72.5,109.74,64.85,109.38,63.41Z"/><path class="cls-4" d="M96.79,45.58s-7.27-1.6-8.72-3.05c-2.23-.29-4.61,1.72-4.61,1.72C83.79,42.11,87,41.31,87,41.31l0.15,0.06c-0.91-1.24-1.87-2.46-4.86-2.18-1.63.16-1.71,1.12-2.21,1.7a1.27,1.27,0,0,1-.23.21c-2.06,1.45-3.75,4.36-3.29,9,0,0,.38,6.4,5.14,9.63a17.63,17.63,0,0,1,.53-7.21,11.5,11.5,0,0,1,1-2.32c1.65-2.88,4.86-5.23,11-4.92h0.14l0.65,0C95.55,45.42,96.15,45.49,96.79,45.58Z"/><path class="cls-5" d="M128.39,70.21a29.36,29.36,0,0,1-3.92,6.87c3.15-1.11,8.33-7.9,9.21-15.92,1.18-10.74-3.51-34.42-30.92-34-16,.24-18.17,8.76-18.17,8.76l0.3-.07L84.8,36a9.12,9.12,0,0,0-3.18,2.25A8.45,8.45,0,0,0,80,40.89c0.5-.58.59-1.54,2.21-1.7,3-.29,3.94.93,4.86,2.18h0L87,41.31s-3.18.81-3.51,2.94c0,0,2.38-2,4.61-1.72,0.86,0.86,3.78,1.78,6,2.38l0.37,0.36-0.39.15c-3.87,1.56-8.8,4-7.58,5.82,0,0,8.38-.13,13.78,2.21,6.27,1.91,15.24,13,3.47,22.52A57,57,0,0,1,94,82.26s19,3.73,27.52-10.14l0.23-.39"/><path class="cls-4" d="M112.93,33.72a23.84,23.84,0,0,0-11.75-1.16,17.68,17.68,0,0,0-5.68,1.69c-2.09,1.12-3.26,3.06-6.05,2.51a4,4,0,0,1-1.65-.59,1.18,1.18,0,0,1,0-.55,15.46,15.46,0,0,1,3.41-4.73A11.47,11.47,0,0,0,86,35a2.55,2.55,0,0,1-1.22.54C84.6,35.69,84,36,84.1,36.3A2.08,2.08,0,0,1,84.79,36,2.73,2.73,0,0,1,87,37a8.44,8.44,0,0,1,1.49,1.27c0.66,0.58,1.35.92,1.46,1.84a2.12,2.12,0,0,0,.75,1.53,5.46,5.46,0,0,0,2.87,1.53,16.9,16.9,0,0,1,3.08.53c1.82,0.62,3.59,1.29,5.43,1.83a28.06,28.06,0,0,1,3.18.85c-3.64-1.78-11-5-11-5a10,10,0,0,1,4.2-2.88,2.08,2.08,0,1,0,3.8-1.19,26.86,26.86,0,0,1,19.94,2.9C124.21,41.48,120.24,36.33,112.93,33.72Z"/><circle class="cls-2" cx="101.83" cy="38.24" r="1.11"/><circle class="cls-6" cx="101.07" cy="38.34" r="3.87"/></g><path class="cls-2" d="M83,19.32V17.38A9.84,9.84,0,0,0,85,18a7.35,7.35,0,0,0,1.2.11,2.13,2.13,0,0,0,1.47-.44,1.39,1.39,0,0,0,.49-1.06,1.44,1.44,0,0,0-.27-0.85,4.58,4.58,0,0,0-1.33-1l-0.76-.42a7.15,7.15,0,0,1-2.21-1.68,3,3,0,0,1,.39-4,4,4,0,0,1,2.8-.91,14,14,0,0,1,3.07.39v1.81A8.56,8.56,0,0,0,87,9.41a2,2,0,0,0-1.29.37,1.12,1.12,0,0,0-.44.89,1.16,1.16,0,0,0,.27.74,4.89,4.89,0,0,0,1.32.94l0.81,0.45a7.25,7.25,0,0,1,2.38,1.81,3.21,3.21,0,0,1-.55,4.11,4.83,4.83,0,0,1-3.36,1A15.75,15.75,0,0,1,83,19.32Z"/><path class="cls-2" d="M103,19.15a18.48,18.48,0,0,1-2.2.47,12.52,12.52,0,0,1-1.46.08q-3.17,0-4.61-1.68a6.31,6.31,0,0,1-1.44-4.25,7,7,0,0,1,.63-3,4.77,4.77,0,0,1,1.92-2.11,6.77,6.77,0,0,1,3.48-.77A15.79,15.79,0,0,1,103,8.3v1.83a14.4,14.4,0,0,0-2.2-.62,8.86,8.86,0,0,0-1.28-.1,3.2,3.2,0,0,0-2.85,1.28,5.37,5.37,0,0,0-.87,3.1,4.62,4.62,0,0,0,1,3.16,3.65,3.65,0,0,0,2.89,1.17,4.64,4.64,0,0,0,.94-0.11V14.3H103v4.85Z"/><path class="cls-2" d="M127.06,19a7.07,7.07,0,0,1-1.29.44,12.88,12.88,0,0,1-2.62.28A5.54,5.54,0,0,1,118.75,18a6.23,6.23,0,0,1-1.45-4.25,6.24,6.24,0,0,1,1.45-4.26,5.74,5.74,0,0,1,4.56-1.66A15.71,15.71,0,0,1,127,8.3v1.83q-0.88-.3-1.43-0.44a9.68,9.68,0,0,0-1.05-.21,7.35,7.35,0,0,0-1-.07,3.2,3.2,0,0,0-2.82,1.25,5.26,5.26,0,0,0-.88,3.09,4.74,4.74,0,0,0,1,3.13,3.63,3.63,0,0,0,3,1.2,7.51,7.51,0,0,0,3.33-.83V19Z"/><path class="cls-2" d="M106.93,19.32V17.38a9.85,9.85,0,0,0,2,.66,7.36,7.36,0,0,0,1.2.11,2.14,2.14,0,0,0,1.47-.44,1.39,1.39,0,0,0,.49-1.06,1.44,1.44,0,0,0-.27-0.85,4.57,4.57,0,0,0-1.33-1l-0.76-.42a7.15,7.15,0,0,1-2.21-1.68,3,3,0,0,1,.39-4,4,4,0,0,1,2.8-.91,14,14,0,0,1,3.07.39v1.81A8.56,8.56,0,0,0,111,9.41a2,2,0,0,0-1.29.37,1.12,1.12,0,0,0-.45.89,1.17,1.17,0,0,0,.27.74,4.88,4.88,0,0,0,1.32.94l0.81,0.45A7.23,7.23,0,0,1,114,14.61a3.21,3.21,0,0,1-.55,4.11,4.83,4.83,0,0,1-3.36,1A15.75,15.75,0,0,1,106.93,19.32Z"/><path class="cls-4" d="M117.33,49.21c5.85,4.5,8.46,11.05,6.89,16.59a25,25,0,0,1-2.74,6.33,17.44,17.44,0,0,1-1.38,2.42c-0.91,1.31-6.12,7.31-5.94,7.23C132.75,74.52,135.39,55,117.33,49.21Z"/><path class="cls-4" d="M21.23,113.83v-2.77a18.75,18.75,0,0,0,3.48,1.32,10.07,10.07,0,0,0,2,.23,3.76,3.76,0,0,0,2.68-.92,2.93,2.93,0,0,0,1-2.22,3.34,3.34,0,0,0-.51-1.8,7.92,7.92,0,0,0-2.6-2l-1.36-.79a11.88,11.88,0,0,1-3.66-2.82,4.69,4.69,0,0,1-.94-2.83,5,5,0,0,1,.74-2.62,5.28,5.28,0,0,1,2-1.92A6.45,6.45,0,0,1,27.22,94a16.89,16.89,0,0,1,4.83.76v2.56a24.71,24.71,0,0,0-3-1,7.68,7.68,0,0,0-1.64-.18,3.3,3.3,0,0,0-2.54.89A2.69,2.69,0,0,0,24,98.82a2.54,2.54,0,0,0,.39,1.3,3.71,3.71,0,0,0,1,1.13,21,21,0,0,0,1.81,1.12l1.42,0.8A11.64,11.64,0,0,1,32.35,106a5.05,5.05,0,0,1,.92,3,5.36,5.36,0,0,1-1.76,4,7.2,7.2,0,0,1-5.18,1.69,14.55,14.55,0,0,1-2-.14A25.92,25.92,0,0,1,21.23,113.83Z"/><path class="cls-4" d="M41.5,114.54a7.28,7.28,0,0,1-3.59-.85A5.9,5.9,0,0,1,35.49,111,9.08,9.08,0,0,1,34.6,107a9.41,9.41,0,0,1,.81-3.91,5.85,5.85,0,0,1,2.36-2.72,7.18,7.18,0,0,1,3.72-.92,7.38,7.38,0,0,1,3.6.84,5.8,5.8,0,0,1,2.42,2.66,9.15,9.15,0,0,1,.89,4,9.34,9.34,0,0,1-.83,3.94,5.91,5.91,0,0,1-2.36,2.72A7.15,7.15,0,0,1,41.5,114.54Zm0-2a3.57,3.57,0,0,0,3-1.46A6.85,6.85,0,0,0,45.62,107a6.78,6.78,0,0,0-1.09-4.14,3.91,3.91,0,0,0-6.07,0,8.45,8.45,0,0,0,0,8.27A3.55,3.55,0,0,0,41.49,112.57Z"/><path class="cls-4" d="M60.08,114.2v-2.72a7.62,7.62,0,0,1-2.33,2.26,5.25,5.25,0,0,1-2.74.79,4,4,0,0,1-3-1.16,4.41,4.41,0,0,1-1.15-3.24V99.75H53.5v9.53a4.76,4.76,0,0,0,.27,2,1.87,1.87,0,0,0,.75.74,2.1,2.1,0,0,0,1,.27,4.48,4.48,0,0,0,2.08-.6,7.73,7.73,0,0,0,2.44-2.55V99.75H62.7V114.2H60.08Z"/><path class="cls-4" d="M73,114.2a8.12,8.12,0,0,1-2.1.33,4.21,4.21,0,0,1-3.09-1.12,4.28,4.28,0,0,1-1.14-3.2v-8.49H64.81v-2h1.81V97.13l2.62-.25v2.87H73v2H69.24v8a3.25,3.25,0,0,0,.59,2.18,2.38,2.38,0,0,0,1.86.66,5.72,5.72,0,0,0,1.26-.17v1.81Z"/><path class="cls-4" d="M75.26,114.2v-21h2.62v9.26a7.52,7.52,0,0,1,2.32-2.24A5.28,5.28,0,0,1,83,99.42a4,4,0,0,1,3,1.17,4.41,4.41,0,0,1,1.14,3.23V114.2H84.45v-9.54a4.77,4.77,0,0,0-.27-2,1.84,1.84,0,0,0-.75-0.74,2.12,2.12,0,0,0-1-.26,4.49,4.49,0,0,0-2.1.6,7.74,7.74,0,0,0-2.44,2.56v9.37H75.26Z"/><path class="cls-4" d="M112.62,113.67a26.61,26.61,0,0,1-3.77.88,21.09,21.09,0,0,1-2.47.14,10.4,10.4,0,0,1-5.57-1.28,8,8,0,0,1-3.09-3.69,13.23,13.23,0,0,1-1.06-5.38,11.28,11.28,0,0,1,2.4-7.44q2.4-2.9,7.31-2.9a23.44,23.44,0,0,1,6.21.89v2.58a30.3,30.3,0,0,0-4.11-1.2,13.46,13.46,0,0,0-2.12-.18,5.68,5.68,0,0,0-5.13,2.42,10.44,10.44,0,0,0-1.58,5.85,11.52,11.52,0,0,0,.67,4,6.64,6.64,0,0,0,2.25,3.05,6.82,6.82,0,0,0,4.25,1.21,10.45,10.45,0,0,0,1.28-.07,11.27,11.27,0,0,0,1.74-.42V105.7h2.79v8Z"/><path class="cls-4" d="M126.92,113.74a16.43,16.43,0,0,1-4.58.8,6.73,6.73,0,0,1-5.37-2.27,7.94,7.94,0,0,1-2-5.36,9,9,0,0,1,.86-3.87,6.31,6.31,0,0,1,2.26-2.73,6,6,0,0,1,3.29-.89,5,5,0,0,1,4.05,1.8,8.18,8.18,0,0,1,1.51,5.38v0.8h-9.29a7.43,7.43,0,0,0,.84,3,4.43,4.43,0,0,0,1.66,1.62,5.38,5.38,0,0,0,2.64.58,9.44,9.44,0,0,0,1.62-.14,16.55,16.55,0,0,0,2.47-.74v2.08Zm-9.12-8.32h6.56a4.48,4.48,0,0,0-.87-3.1,2.91,2.91,0,0,0-2.23-.93,3,3,0,0,0-2.42,1A5.26,5.26,0,0,0,117.81,105.42Z"/><path class="cls-4" d="M135.65,114.54a7.28,7.28,0,0,1-3.59-.85,5.9,5.9,0,0,1-2.42-2.66,9.07,9.07,0,0,1-.89-4.06,9.41,9.41,0,0,1,.81-3.91,5.85,5.85,0,0,1,2.36-2.72,7.18,7.18,0,0,1,3.72-.92,7.38,7.38,0,0,1,3.6.84,5.81,5.81,0,0,1,2.42,2.66,9.15,9.15,0,0,1,.89,4,9.34,9.34,0,0,1-.83,3.94,5.91,5.91,0,0,1-2.36,2.72A7.15,7.15,0,0,1,135.65,114.54Zm0-2a3.57,3.57,0,0,0,3-1.46,6.85,6.85,0,0,0,1.08-4.14,6.78,6.78,0,0,0-1.09-4.14,3.91,3.91,0,0,0-6.07,0,8.46,8.46,0,0,0,0,8.27A3.56,3.56,0,0,0,135.65,112.57Z"/><path class="cls-4" d="M145.19,114.2V99.75h2.62v2.7a5.8,5.8,0,0,1,1.94-2.24,4.58,4.58,0,0,1,2.59-.79,5.6,5.6,0,0,1,.84.07v2.45a3.77,3.77,0,0,0-1.2-.23,3.87,3.87,0,0,0-2.28.74,6.69,6.69,0,0,0-1.88,2.22v9.54h-2.62Z"/><path class="cls-4" d="M155,119l0.31-2.28a10.67,10.67,0,0,0,4.55,1.08q2.52,0,3.49-1.27a5.49,5.49,0,0,0,1-3.43v-2.28a5.82,5.82,0,0,1-1.8,2.12,5.45,5.45,0,0,1-7.35-1.22,8.8,8.8,0,0,1-1.37-4.86,9.28,9.28,0,0,1,.81-3.86,6.07,6.07,0,0,1,7-3.42,5,5,0,0,1,1.32.56,6.36,6.36,0,0,1,1.36,1.22V99.75h2.62v10.51q0,4.59-.77,6.28a4.86,4.86,0,0,1-2.41,2.46,9.12,9.12,0,0,1-3.91.77q-0.74,0-1.59-.08t-1.52-.21A14.73,14.73,0,0,1,155,119Zm9.33-9.81v-6a6.29,6.29,0,0,0-1.83-1.35,4.65,4.65,0,0,0-2-.45,3.41,3.41,0,0,0-2.85,1.41,6.6,6.6,0,0,0-1.07,4.07,6.49,6.49,0,0,0,.8,3.4,2.8,2.8,0,0,0,2.6,1.31,4.61,4.61,0,0,0,2.25-.6A7.73,7.73,0,0,0,164.28,109.2Z"/><path class="cls-4" d="M170.45,97.13V94.51h2.62v2.62h-2.62Zm0,17.07V99.75h2.62V114.2h-2.62Z"/><path class="cls-4" d="M184.46,112.37a9.71,9.71,0,0,1-2.34,1.62,5.26,5.26,0,0,1-2.26.55,4.69,4.69,0,0,1-2.89-1,3.48,3.48,0,0,1-1.34-3,4.23,4.23,0,0,1,1.86-3.52q1.86-1.39,6-1.39h0.62v-1.75a3.06,3.06,0,0,0-.28-1.51,1.88,1.88,0,0,0-.89-0.74,3.68,3.68,0,0,0-1.5-.27,9.88,9.88,0,0,0-4.52,1.28V100.5a13.57,13.57,0,0,1,5.05-1.08,6.74,6.74,0,0,1,2.38.41A3.73,3.73,0,0,1,186,101.1a4.77,4.77,0,0,1,.65,2.8v6.55a4.11,4.11,0,0,0,.17,1.47,1.27,1.27,0,0,0,1.21.78,3.57,3.57,0,0,0,.51-0.05l0.19,1.45a4.51,4.51,0,0,1-2,.43,2.38,2.38,0,0,1-1.38-.47A2.76,2.76,0,0,1,184.46,112.37Zm-0.39-1.42V107.2l-0.86,0a7.15,7.15,0,0,0-3.53.8,2.42,2.42,0,0,0-1.43,2.17,2.1,2.1,0,0,0,.7,1.6,2.32,2.32,0,0,0,1.64.65,4.4,4.4,0,0,0,1.71-.37A7.54,7.54,0,0,0,184.07,110.94Z"/><path class="cls-4" d="M28.74,141v-2.77a18.76,18.76,0,0,0,3.48,1.32,10.1,10.1,0,0,0,2,.23,3.76,3.76,0,0,0,2.68-.92,2.93,2.93,0,0,0,1-2.22,3.33,3.33,0,0,0-.51-1.8,7.9,7.9,0,0,0-2.6-2L33.44,132a11.87,11.87,0,0,1-3.66-2.82,4.69,4.69,0,0,1-.94-2.83,5,5,0,0,1,.74-2.62,5.29,5.29,0,0,1,2-1.92,6.45,6.45,0,0,1,3.15-.69,16.89,16.89,0,0,1,4.83.76v2.56a24.69,24.69,0,0,0-3-1,7.68,7.68,0,0,0-1.64-.18,3.3,3.3,0,0,0-2.54.89,2.69,2.69,0,0,0-.82,1.82,2.53,2.53,0,0,0,.39,1.3,3.71,3.71,0,0,0,1,1.13,21,21,0,0,0,1.81,1.12l1.42,0.8a11.63,11.63,0,0,1,3.68,2.85,5.06,5.06,0,0,1,.92,3,5.36,5.36,0,0,1-1.76,4,7.2,7.2,0,0,1-5.18,1.69,14.61,14.61,0,0,1-2-.14A25.93,25.93,0,0,1,28.74,141Z"/><path class="cls-4" d="M49.69,141.32a8.11,8.11,0,0,1-2.1.33,4.21,4.21,0,0,1-3.09-1.12,4.28,4.28,0,0,1-1.14-3.2v-8.49H41.55v-2h1.81v-2.62L46,124v2.87h3.78v2H46v8a3.25,3.25,0,0,0,.59,2.18,2.37,2.37,0,0,0,1.86.66,5.74,5.74,0,0,0,1.26-.17v1.81Z"/><path class="cls-4" d="M59.57,139.49a9.73,9.73,0,0,1-2.34,1.62,5.26,5.26,0,0,1-2.26.55,4.69,4.69,0,0,1-2.89-1,3.48,3.48,0,0,1-1.34-3,4.23,4.23,0,0,1,1.86-3.52q1.86-1.39,6-1.39h0.62V131a3.06,3.06,0,0,0-.28-1.52,1.88,1.88,0,0,0-.89-0.74,3.69,3.69,0,0,0-1.5-.27A9.88,9.88,0,0,0,52,129.79v-2.17a13.57,13.57,0,0,1,5.05-1.08,6.74,6.74,0,0,1,2.38.41,3.73,3.73,0,0,1,1.73,1.28,4.77,4.77,0,0,1,.65,2.8v6.55a4.12,4.12,0,0,0,.17,1.47,1.27,1.27,0,0,0,1.21.78,3.51,3.51,0,0,0,.51-0.05l0.19,1.45a4.51,4.51,0,0,1-2,.43,2.38,2.38,0,0,1-1.38-.47A2.76,2.76,0,0,1,59.57,139.49Zm-0.39-1.42v-3.74l-0.86,0a7.15,7.15,0,0,0-3.53.8,2.42,2.42,0,0,0-1.43,2.17,2.1,2.1,0,0,0,.7,1.6,2.32,2.32,0,0,0,1.64.65,4.39,4.39,0,0,0,1.71-.37A7.53,7.53,0,0,0,59.19,138.06Z"/><path class="cls-4" d="M72,141.32a8.11,8.11,0,0,1-2.1.33,4.21,4.21,0,0,1-3.09-1.12,4.28,4.28,0,0,1-1.14-3.2v-8.49H63.9v-2h1.81v-2.62l2.62-.25v2.87h3.78v2H68.33v8a3.25,3.25,0,0,0,.59,2.18,2.37,2.37,0,0,0,1.86.66,5.75,5.75,0,0,0,1.26-.17v1.81Z"/><path class="cls-4" d="M85.12,140.86a16.44,16.44,0,0,1-4.58.8,6.73,6.73,0,0,1-5.37-2.27,7.93,7.93,0,0,1-2-5.36,9,9,0,0,1,.86-3.87,6.3,6.3,0,0,1,2.26-2.73,6,6,0,0,1,3.29-.89,5,5,0,0,1,4.05,1.8,8.19,8.19,0,0,1,1.51,5.38v0.8H75.88a7.45,7.45,0,0,0,.84,3,4.43,4.43,0,0,0,1.66,1.62,5.37,5.37,0,0,0,2.64.58,9.48,9.48,0,0,0,1.62-.14,16.63,16.63,0,0,0,2.48-.74v2.08ZM76,132.54h6.56a4.48,4.48,0,0,0-.87-3.1,2.91,2.91,0,0,0-2.23-.93,3,3,0,0,0-2.42,1A5.26,5.26,0,0,0,76,132.54Z"/><path class="cls-4" d="M110,140.31a13.91,13.91,0,0,1-2.16.92,12,12,0,0,1-2,.44,16.49,16.49,0,0,1-2.22.14q-5,0-7.29-2.94A11.6,11.6,0,0,1,94,131.49a11.32,11.32,0,0,1,2.4-7.45q2.39-2.91,7.35-2.91A26.67,26.67,0,0,1,110,122v2.62a31.18,31.18,0,0,0-4.11-1.21,13.1,13.1,0,0,0-2.14-.19,5.7,5.7,0,0,0-5.13,2.4A10.43,10.43,0,0,0,97,131.52a9,9,0,0,0,1.83,5.88,6.31,6.31,0,0,0,5.18,2.24,10.46,10.46,0,0,0,1.86-.17,11.67,11.67,0,0,0,1.84-.49,17,17,0,0,0,2.28-1.06v2.4Z"/><path class="cls-4" d="M118.44,141.66a7.29,7.29,0,0,1-3.59-.85,5.9,5.9,0,0,1-2.42-2.66,9.07,9.07,0,0,1-.89-4.06,9.41,9.41,0,0,1,.81-3.91,5.85,5.85,0,0,1,2.36-2.72,7.18,7.18,0,0,1,3.72-.92,7.37,7.37,0,0,1,3.6.84,5.8,5.8,0,0,1,2.42,2.66,9.15,9.15,0,0,1,.89,4,9.34,9.34,0,0,1-.83,3.94,5.91,5.91,0,0,1-2.36,2.72A7.15,7.15,0,0,1,118.44,141.66Zm0-2a3.57,3.57,0,0,0,3-1.46,8.43,8.43,0,0,0,0-8.27,3.91,3.91,0,0,0-6.07,0,8.45,8.45,0,0,0,0,8.27A3.55,3.55,0,0,0,118.43,139.69Z"/><path class="cls-4" d="M128,141.32v-21h2.62v21H128Z"/><path class="cls-4" d="M134.41,141.32v-21H137v21h-2.62Z"/><path class="cls-4" d="M151.61,140.86a16.44,16.44,0,0,1-4.58.8,6.73,6.73,0,0,1-5.37-2.27,7.93,7.93,0,0,1-2-5.36,9,9,0,0,1,.86-3.87,6.3,6.3,0,0,1,2.26-2.73,6,6,0,0,1,3.29-.89,5,5,0,0,1,4.05,1.8,8.19,8.19,0,0,1,1.51,5.38v0.8h-9.29a7.45,7.45,0,0,0,.84,3,4.43,4.43,0,0,0,1.66,1.62,5.37,5.37,0,0,0,2.64.58,9.48,9.48,0,0,0,1.62-.14,16.63,16.63,0,0,0,2.48-.74v2.08Zm-9.12-8.32h6.56a4.48,4.48,0,0,0-.87-3.1,2.91,2.91,0,0,0-2.23-.93,3,3,0,0,0-2.42,1A5.26,5.26,0,0,0,142.5,132.54Z"/><path class="cls-4" d="M154.64,146.13l0.31-2.28a10.67,10.67,0,0,0,4.55,1.08q2.52,0,3.49-1.27a5.49,5.49,0,0,0,1-3.43V138a5.82,5.82,0,0,1-1.8,2.12,5.45,5.45,0,0,1-7.35-1.22,8.8,8.8,0,0,1-1.37-4.86,9.28,9.28,0,0,1,.81-3.86,6.07,6.07,0,0,1,7-3.42,4.94,4.94,0,0,1,1.32.56,6.35,6.35,0,0,1,1.36,1.22v-1.64h2.62v10.51q0,4.59-.77,6.28a4.86,4.86,0,0,1-2.41,2.46,9.12,9.12,0,0,1-3.91.77q-0.74,0-1.59-.08t-1.52-.21A14.63,14.63,0,0,1,154.64,146.13Zm9.33-9.81v-6a6.29,6.29,0,0,0-1.83-1.35,4.64,4.64,0,0,0-2-.45,3.41,3.41,0,0,0-2.85,1.41,6.61,6.61,0,0,0-1.07,4.07,6.48,6.48,0,0,0,.8,3.4,2.8,2.8,0,0,0,2.6,1.31,4.61,4.61,0,0,0,2.25-.6A7.73,7.73,0,0,0,164,136.32Z"/><path class="cls-4" d="M180.9,140.86a16.44,16.44,0,0,1-4.58.8,6.73,6.73,0,0,1-5.37-2.27,7.93,7.93,0,0,1-2-5.36,9,9,0,0,1,.86-3.87,6.3,6.3,0,0,1,2.26-2.73,6,6,0,0,1,3.29-.89,5,5,0,0,1,4.05,1.8,8.19,8.19,0,0,1,1.51,5.38v0.8h-9.29a7.45,7.45,0,0,0,.84,3,4.43,4.43,0,0,0,1.66,1.62,5.37,5.37,0,0,0,2.64.58,9.48,9.48,0,0,0,1.62-.14,16.63,16.63,0,0,0,2.48-.74v2.08Zm-9.12-8.32h6.56a4.48,4.48,0,0,0-.87-3.1,2.91,2.91,0,0,0-2.23-.93,3,3,0,0,0-2.42,1A5.26,5.26,0,0,0,171.79,132.54Z"/><path class="cls-4" d="M63.65,156.44l-2.06-4.68H62.7l1.6,3.79,3-3.79h1.21l-3.79,4.68L64,159.59H63Z"/><path class="cls-4" d="M70.65,153.79A2.12,2.12,0,0,1,73,156.13c0,1.85-1.15,3.58-3.14,3.58a2.24,2.24,0,0,1-2.39-2.37A3.3,3.3,0,0,1,70.65,153.79ZM70,158.9c1.36,0,2.1-1.57,2.1-2.69a1.43,1.43,0,0,0-1.49-1.6c-1.42,0-2.17,1.56-2.17,2.73A1.43,1.43,0,0,0,70,158.9Z"/><path class="cls-4" d="M78.42,159.59h-0.9l0.18-.86h0a2.51,2.51,0,0,1-2,1,1.33,1.33,0,0,1-1.58-1.46,6,6,0,0,1,.16-1.11l0.69-3.23h0.93l-0.72,3.31a6.26,6.26,0,0,0-.13.88,0.84,0.84,0,0,0,1,.79,2.22,2.22,0,0,0,2-1.84l0.66-3.14h0.93Z"/><path class="cls-4" d="M85.65,151.76h1.45l1,6.73h0L92,151.76h1.45l-1.66,7.83h-1l1.6-6.85h0l-4,6.85h-1l-1-6.85h0L85,159.59H84Z"/><path class="cls-4" d="M94.36,155.63a2.24,2.24,0,0,1,2.46-1.84c1.1,0,2.07.3,2.07,1.45a5.47,5.47,0,0,1-.18,1l-0.36,1.55a4.65,4.65,0,0,0-.15.81,0.28,0.28,0,0,0,.27.35,1,1,0,0,0,.3-0.08l-0.14.69a1.45,1.45,0,0,1-.57.13,0.66,0.66,0,0,1-.73-0.8l0,0a2.13,2.13,0,0,1-1.9.82,1.52,1.52,0,0,1-1.73-1.6c0-1.64,1.61-1.75,2.86-1.86,1-.09,1.42-0.14,1.42-0.9a0.94,0.94,0,0,0-1.14-.75,1.36,1.36,0,0,0-1.52,1H94.36Zm1.26,3.27a1.76,1.76,0,0,0,1.59-.75,4,4,0,0,0,.49-1.46h0a5.57,5.57,0,0,1-1.82.38,1.14,1.14,0,0,0-1.26,1A0.89,0.89,0,0,0,95.62,158.9Z"/><path class="cls-4" d="M102.21,153.92h1.13l-0.18.82H102l-0.7,3.33c0,0.13,0,.24,0,0.37a0.45,0.45,0,0,0,.56.38,1.79,1.79,0,0,0,.54-0.1l-0.16.86a3.34,3.34,0,0,1-.66.07c-0.69,0-1.27-.2-1.27-0.92a2.4,2.4,0,0,1,.05-0.47l0.75-3.52h-1l0.18-.82h1l0.35-1.68h0.93Z"/><path class="cls-4" d="M106,153.92h1.13l-0.18.82h-1.13l-0.7,3.33c0,0.13,0,.24,0,0.37a0.45,0.45,0,0,0,.56.38,1.79,1.79,0,0,0,.54-0.1l-0.16.86a3.34,3.34,0,0,1-.66.07c-0.69,0-1.27-.2-1.27-0.92a2.39,2.39,0,0,1,.05-0.47l0.75-3.52h-1l0.18-.82h1l0.35-1.68h0.93Z"/><path class="cls-4" d="M108.43,157a3.74,3.74,0,0,0,0,.49,1.38,1.38,0,0,0,1.47,1.37,1.61,1.61,0,0,0,1.63-1.09h0.93a2.47,2.47,0,0,1-2.57,1.91,2.17,2.17,0,0,1-2.4-2.28c0-2.17,1.36-3.65,2.92-3.65s2.4,0.91,2.4,2.51a3.65,3.65,0,0,1-.09.73h-4.26Zm3.42-.82a1.32,1.32,0,0,0-1.33-1.6,2,2,0,0,0-2,1.6h3.29Z"/><path class="cls-4" d="M114.7,153.92h0.88l-0.27,1.22h0a2.34,2.34,0,0,1,2.06-1.35,1.65,1.65,0,0,1,.33,0l-0.22,1h-0.27a1.9,1.9,0,0,0-.56.05,2.06,2.06,0,0,0-1.21.92,3.77,3.77,0,0,0-.47,1.33l-0.54,2.51h-0.93Z"/><path class="cls-4" d="M122.75,151.76h1.05l-0.71,3.37h4.1l0.7-3.37h1l-1.64,7.83h-1L127,156h-4.1l-0.76,3.58h-1Z"/><path class="cls-4" d="M130.35,157a3.68,3.68,0,0,0,0,.49,1.38,1.38,0,0,0,1.47,1.37,1.61,1.61,0,0,0,1.63-1.09h0.93a2.47,2.47,0,0,1-2.57,1.91,2.17,2.17,0,0,1-2.4-2.28c0-2.17,1.36-3.65,2.92-3.65s2.4,0.91,2.4,2.51a3.59,3.59,0,0,1-.09.73h-4.26Zm3.42-.82a1.32,1.32,0,0,0-1.33-1.6,2,2,0,0,0-2,1.6h3.29Z"/><path class="cls-4" d="M136.62,153.92h0.88l-0.27,1.22h0a2.34,2.34,0,0,1,2.06-1.35,1.65,1.65,0,0,1,.33,0l-0.22,1h-0.27a1.9,1.9,0,0,0-.56.05,2.06,2.06,0,0,0-1.21.92,3.77,3.77,0,0,0-.47,1.33l-0.54,2.51h-0.93Z"/><path class="cls-4" d="M140.61,157a3.68,3.68,0,0,0,0,.49A1.38,1.38,0,0,0,142,158.9a1.61,1.61,0,0,0,1.63-1.09h0.93a2.47,2.47,0,0,1-2.57,1.91,2.17,2.17,0,0,1-2.4-2.28c0-2.17,1.36-3.65,2.92-3.65s2.4,0.91,2.4,2.51a3.59,3.59,0,0,1-.09.73h-4.26Zm3.42-.82a1.32,1.32,0,0,0-1.33-1.6,2,2,0,0,0-2,1.6H144Z"/><path class="cls-4" d="M146.18,158.37h1.22l-0.26,1.22h-1.22Z"/></svg>