<svg id="Layer_1" data-name="Layer 1" xmlns="http://www.w3.org/2000/svg" xmlns:xlink="http://www.w3.org/1999/xlink" viewBox="0 0 80.86 88.4"><defs><style>.cls-1,.cls-6{fill:none;}.cls-2{fill:#fff;}.cls-3{clip-path:url(#clip-path);}.cls-4{fill:#006eb5;}.cls-5{fill:#b2b5b6;}.cls-6{stroke:#006eb5;stroke-miterlimit:10;stroke-width:1.55px;}</style><clipPath id="clip-path"><path class="cls-1" d="M73.25,8.27C73,6.39,74.53,4.56,76.06,3.5L80.76.13H.17L3.72,3.2c.37.36,3,1.85,2.6,4.77-.15,1.22.06,4.34-.36,7.67-1.35,10.64-2.17,14-2.24,15.16L3,36.49c-.38,6,0,26.57,15.92,41.22l1.84,1.53a34.21,34.21,0,0,0,21,8.59h.42A39.72,39.72,0,0,0,57.32,81c7.13-5.12,16.21-15,19.05-33.17a32.84,32.84,0,0,0,.57-11.44C75.86,27.88,73.65,10.85,73.25,8.27Z"/></clipPath></defs><title>south-georgia-state-college_icon</title><path class="cls-2" d="M76.92,36.67s-3.6-25.58-4.06-28.35,5.4-6.4,8-8.32H0C3.79,3.14,6.7,5.47,6.45,8.27,6,15,3.21,36.13,3.21,36.13a41,41,0,0,0,.36,12.16C10,84.13,37.91,87.72,39.87,88h-.06c2.43.15,30.12-3.91,36.34-39.21A53.28,53.28,0,0,0,76.92,36.67Z"/><g class="cls-3"><path class="cls-4" d="M75,36.72s-3.3-25.32-3.71-28,1.41-5.28,3.7-6.6H4.86c2.29,1.32,4.11,4,3.7,6.6s-3.7,28-3.7,28a48.12,48.12,0,0,0,.66,11.62c5.36,32.38,32.53,37.71,34.23,38h.3c1.7-.3,28.87-5.63,34.23-38A48.12,48.12,0,0,0,75,36.72Z"/><path class="cls-2" d="M63,34.54c-5.72-6.39-13.82-9.62-24.06-9.62h-.74c-14.13.22-18.49,6.72-19.63,9.15a2.65,2.65,0,0,0-.54.57,11.92,11.92,0,0,0-2.37,2,10,10,0,0,0-1.77,2.81C11,41.64,9.58,45.45,10,50c0,.67.66,7.47,6,11.1l3.77,2.58-.74-4.56a14.82,14.82,0,0,1-.13-2l.1-.42,1.5.72c4.92,2.37,5.88,4,6,4.81A2.09,2.09,0,0,1,26,64.1c-2.25,2.71-15.66,5.49-15.14,4.45l-.36,1.82,3.28,2a1.59,1.59,0,0,1-.68-.14l.43.26c.32.2.76.47,1.3.76a1.77,1.77,0,0,0-.15.31c-.47,1.26.39,2.3,1.23,3.29a20,20,0,0,0,1.67,1.77,17.17,17.17,0,0,0,8.19,3.48L23,83.54l3.26,1.74A30.12,30.12,0,0,0,39.11,88.4a20.1,20.1,0,0,0,10-2.53,2,2,0,0,0,1.35.5h0c1.54,0,8-3.33,9.59-4.37l.42-.27.11-.2C64.33,78.45,70.14,68.94,71,61.14,71.86,53.89,70.21,42.62,63,34.54Z"/><path class="cls-4" d="M44.83,63.13C41.51,49.61,21.92,51,21.92,51c-1.22-1.83,4.33-4.4,8.2-6-.13,0-.87.14-1,.15-3.56.57-6.29,1.68-8.28,3.54a11.71,11.71,0,0,0-3.15,5.22l3.68,1.85c2.37,1.14,6.6,3.36,7.1,6.24,1,5.76-10.77,8.35-14.72,8.4.62,0,5.69,4.86,16.51,3.55.71-.09-1.07,4.55-13.61,0-.73-.27,2.64,3.19,3.5,3.64,5.35,2.77,9.74,3.81,19-1.82C45.8,72.22,45.19,64.57,44.83,63.13Z"/><path class="cls-4" d="M32.24,45.3s-7.27-1.6-8.72-3C21.29,42,18.91,44,18.91,44c.33-2.14,3.54-2.94,3.54-2.94l.15.06c-.91-1.24-1.87-2.46-4.86-2.18-1.63.16-1.71,1.12-2.21,1.7a1.51,1.51,0,0,1-.23.21c-2.06,1.45-3.75,4.36-3.29,9,0,0,.38,6.4,5.14,9.63a17.74,17.74,0,0,1,.53-7.21,11.36,11.36,0,0,1,1-2.32c1.65-2.88,4.86-5.23,11-4.92h.79A15.86,15.86,0,0,0,32.24,45.3Z"/><path class="cls-5" d="M63.84,69.93a29.22,29.22,0,0,1-3.92,6.87c3.15-1.11,8.33-7.9,9.21-15.92,1.18-10.74-3.51-34.42-30.92-34C22.21,27.12,20,35.64,20,35.64l.3-.07-.09.15A9.13,9.13,0,0,0,17.07,38a8.36,8.36,0,0,0-1.62,2.64c.5-.58.59-1.54,2.21-1.7,3-.29,3.94.93,4.86,2.18h0L22.45,41s-3.18.81-3.51,2.94c0,0,2.38-2,4.61-1.72.86.86,3.78,1.78,6,2.38l.37.36-.39.15c-3.87,1.56-8.8,4-7.58,5.82,0,0,8.38-.13,13.78,2.21C42,55.08,51,66.17,39.2,75.69A57.12,57.12,0,0,1,29.45,82s19,3.73,27.52-10.14l.23-.39"/><path class="cls-4" d="M48.38,33.44a23.85,23.85,0,0,0-11.75-1.16A17.66,17.66,0,0,0,31,34c-2.09,1.12-3.26,3.06-6.05,2.51a3.9,3.9,0,0,1-1.65-.59,1.28,1.28,0,0,1,0-.55,15.49,15.49,0,0,1,3.41-4.73,11.51,11.51,0,0,0-5.21,4.11,2.5,2.5,0,0,1-1.22.54c-.18.15-.78.46-.68.76a2.13,2.13,0,0,1,.69-.3,2.73,2.73,0,0,1,2.21,1A8.56,8.56,0,0,1,23.94,38c.66.58,1.35.92,1.46,1.84a2.15,2.15,0,0,0,.75,1.53A5.48,5.48,0,0,0,29,42.89a17,17,0,0,1,3.08.53c1.82.62,3.59,1.29,5.43,1.83a26.6,26.6,0,0,1,3.18.85c-3.64-1.78-11-5-11-5a9.94,9.94,0,0,1,4.2-2.88A2.08,2.08,0,1,0,37.71,37a26.84,26.84,0,0,1,19.94,2.9C59.66,41.2,55.69,36.05,48.38,33.44Z"/><circle class="cls-2" cx="37.28" cy="37.96" r="1.11"/><circle class="cls-6" cx="36.52" cy="38.06" r="3.87"/></g><path class="cls-2" d="M18.45,19V17.1a9.27,9.27,0,0,0,2,.62,7,7,0,0,0,1.2.11,2.16,2.16,0,0,0,1.47-.44,1.38,1.38,0,0,0,.49-1.06,1.46,1.46,0,0,0-.27-.85,4.65,4.65,0,0,0-1.33-1l-.76-.42A7.13,7.13,0,0,1,19,12.38a3,3,0,0,1,.39-4,4,4,0,0,1,2.8-.91,14.5,14.5,0,0,1,3.07.39V9.67a8.68,8.68,0,0,0-2.85-.54,2,2,0,0,0-1.29.37,1.11,1.11,0,0,0-.44.89,1.18,1.18,0,0,0,.27.74,5,5,0,0,0,1.32.94l.81.45a7.28,7.28,0,0,1,2.38,1.81A3.22,3.22,0,0,1,25,18.44a4.84,4.84,0,0,1-3.36,1A15.79,15.79,0,0,1,18.45,19Z"/><path class="cls-2" d="M38.45,18.87a18.32,18.32,0,0,1-2.2.47,11.8,11.8,0,0,1-1.46.08q-3.16,0-4.61-1.68a6.31,6.31,0,0,1-1.44-4.25,7.06,7.06,0,0,1,.63-3,4.78,4.78,0,0,1,1.92-2.11,6.78,6.78,0,0,1,3.48-.77A15.73,15.73,0,0,1,38.45,8V9.85a15.3,15.3,0,0,0-2.2-.62A9.08,9.08,0,0,0,35,9.13a3.2,3.2,0,0,0-2.85,1.28,5.4,5.4,0,0,0-.87,3.1,4.62,4.62,0,0,0,1,3.16,3.66,3.66,0,0,0,2.89,1.17,4.24,4.24,0,0,0,.94-.11V14h2.37Z"/><path class="cls-2" d="M62.51,18.72a6.55,6.55,0,0,1-1.29.44,12.81,12.81,0,0,1-2.62.28,5.56,5.56,0,0,1-4.4-1.72,6.26,6.26,0,0,1-1.45-4.25A6.24,6.24,0,0,1,54.2,9.21a5.74,5.74,0,0,1,4.56-1.66A15.88,15.88,0,0,1,62.45,8V9.85c-.59-.2-1.06-.35-1.43-.44A9.75,9.75,0,0,0,60,9.2a6.73,6.73,0,0,0-1-.07,3.21,3.21,0,0,0-2.82,1.25,5.21,5.21,0,0,0-.88,3.09,4.72,4.72,0,0,0,1,3.13,3.63,3.63,0,0,0,3,1.2A7.56,7.56,0,0,0,62.6,17v1.75Z"/><path class="cls-2" d="M42.38,19V17.1a10,10,0,0,0,2,.66,7,7,0,0,0,1.2.11,2.16,2.16,0,0,0,1.47-.44,1.38,1.38,0,0,0,.49-1.06,1.46,1.46,0,0,0-.27-.85,4.65,4.65,0,0,0-1.33-1l-.76-.42A7.13,7.13,0,0,1,43,12.42a3,3,0,0,1,.39-4,4,4,0,0,1,2.8-.91,14.5,14.5,0,0,1,3.07.39V9.71a8.57,8.57,0,0,0-2.78-.58,2,2,0,0,0-1.29.37,1.12,1.12,0,0,0-.45.89,1.18,1.18,0,0,0,.27.74,5,5,0,0,0,1.32.94l.81.45a7.26,7.26,0,0,1,2.34,1.81,3.22,3.22,0,0,1-.55,4.11,4.84,4.84,0,0,1-3.36,1A16.08,16.08,0,0,1,42.38,19Z"/><path class="cls-4" d="M52.78,48.93c5.85,4.5,8.46,11,6.89,16.59a25.07,25.07,0,0,1-2.74,6.33,17.55,17.55,0,0,1-1.38,2.42c-.91,1.31-6.12,7.31-5.94,7.23C68.2,74.24,70.84,54.72,52.78,48.93Z"/></svg>