<svg id="institutions" xmlns="http://www.w3.org/2000/svg" width="210" height="160"><defs><style>.cls-1{fill:#fff}.cls-2{fill:#ba0c2f}</style></defs><path class="cls-1" d="M135.38.5v68.79c0 13.12-16.42 22.36-32.3 25-15.88-2.69-32.3-11.93-32.3-25V.5z"/><path d="M114.2 16.66a17.12 17.12 0 0 0-28 9.49h33.54a17.19 17.19 0 0 0-5.54-9.49zm-14.05 12.88H86.82a1.24 1.24 0 0 0-1.06 1.17v27.13a1.66 1.66 0 0 0 .9 1.48.28.28 0 0 1 .15.25v7l2.1-2h11.26v-5a.28.28 0 0 1 .15-.25 1.66 1.66 0 0 0 .9-1.48V30.77a1.24 1.24 0 0 0-1.07-1.23zm18.97 0h-13.33a1.24 1.24 0 0 0-1.06 1.17v27.13a1.66 1.66 0 0 0 .9 1.48.29.29 0 0 1 .15.25v7l2.1-2h11.26v-5a.28.28 0 0 1 .15-.25 1.66 1.66 0 0 0 .9-1.48V30.77a1.24 1.24 0 0 0-1.07-1.23z"/><path class="cls-2" d="M82.66 83.34a52.7 52.7 0 0 0 20.43 8 52.7 52.7 0 0 0 20.43-8c4.09-2.88 9-7.65 9-14.05v-1.55h-7.71v5.52a.28.28 0 0 1-.28.28h-5a.28.28 0 0 1-.28-.28v-5.52h-13.46v5.52a.28.28 0 0 1-.28.28h-5a.28.28 0 0 1-.28-.28v-5.52H86.81v5.52a.28.28 0 0 1-.28.28h-5a.28.28 0 0 1-.28-.28v-5.52H73.7v1.56c0 6.4 4.87 11.17 8.96 14.04z"/><path d="M81.2 59.57a.28.28 0 0 1 .15-.25 1.66 1.66 0 0 0 .9-1.48V30.77a1.24 1.24 0 0 0-1.06-1.22.28.28 0 0 1-.24-.28v-2.84a.28.28 0 0 1 .28-.28h2a20 20 0 0 1 39.43 0h2a.28.28 0 0 1 .28.28v2.83a.28.28 0 0 1-.25.28 1.24 1.24 0 0 0-1.07 1.17v27.13a1.66 1.66 0 0 0 .9 1.48.29.29 0 0 1 .15.25v7l2.1-2h5.61V3.42H73.7v61.15h7.5z"/><path class="cls-1" d="M94.13 83.49v-5.41l-2.86.2v.37h.07a1.31 1.31 0 0 1 .93.23.8.8 0 0 1 .19.61v4c0 .37-.37.45-1.13.48v.38h4V84c-.83-.06-1.2-.15-1.2-.51zm3.29-3.1c.18-.75.38-1 1.28-1h2.3v.06l-3.36 4.62v.35h1.31l1.27-2.56 1.77-3.13v-.66h-4.87l-.06 2.29zm9.58.4h.08c.82-.31 1.24-.76 1.24-1.33s-.73-1.5-2.32-1.5-2.44.77-2.44 2a1.77 1.77 0 0 0 1 1.54h.07-.07c-.82.32-1.23.8-1.23 1.43 0 1 1 1.6 2.65 1.6 1.43 0 2.5-.85 2.5-2 0-.74-.47-1.31-1.44-1.73zm-1.14-2.44a1.08 1.08 0 0 1 1.21 1.08 1.66 1.66 0 0 1-.47 1.19c-.83-.3-1.63-.66-1.63-1.4a.88.88 0 0 1 .91-.87zm.14 5.75a1.33 1.33 0 0 1-1.34-1.31 1.52 1.52 0 0 1 .44-1.09 2.28 2.28 0 0 0 .34.12c1.19.39 1.61.73 1.61 1.3a1 1 0 0 1-1.05.98zm7-3.53a3.39 3.39 0 0 0-1.48.3h-.05v-.06l.07-1.47H115l.1-1.27H111l-.13 3.12.31.25a2.64 2.64 0 0 1 1.38-.39c.84 0 1.32.53 1.32 1.45s-.44 1.55-1.31 1.55a1.89 1.89 0 0 1-.88-.22h.05a.9.9 0 0 0 .47-.77.78.78 0 0 0-.8-.83.83.83 0 0 0-.89.86c0 .9.93 1.44 2.48 1.44a2.2 2.2 0 0 0 2.49-2.07c-.1-1.4-1.34-1.89-2.49-1.89z"/><path class="cls-2" d="M80.51 127.6c-11.32 0-17.24 8-17.24 16 0 9.09 7.16 16 16.64 16 9.81 0 16.93-6.87 16.93-16.33-.03-8.98-7.04-15.67-16.33-15.67zm8.61 16.86c0 7.58-3.27 12.48-8.32 12.48-5.72 0-9.86-6-9.86-14.21 0-7.42 3.55-12.6 8.64-12.6 5.8 0 9.54 5.62 9.54 14.33zm-57.97 1.69v11.63l-1.21.27a45.74 45.74 0 0 1-9.7 1.44c-11.33 0-18.66-6.15-18.66-15.67 0-11.15 9.66-16.23 18.64-16.23a47.19 47.19 0 0 1 9.91 1.61v7.27s-2.81-6.35-9.7-6.35A11.18 11.18 0 0 0 10 138a16.73 16.73 0 0 0-.76 5c0 9.64 5.76 14 11.47 14a5.91 5.91 0 0 0 2.66-.53 2.59 2.59 0 0 0 1-2.38v-6.87a5.33 5.33 0 0 0-2.86-5.14h11.71s-2.07.52-2.07 4.07zm126.58 0v11.63l-1.21.27a45.74 45.74 0 0 1-9.7 1.44c-11.33 0-18.66-6.15-18.66-15.67 0-11.15 9.66-16.23 18.64-16.23a47.19 47.19 0 0 1 9.91 1.61v7.27s-2.81-6.35-9.7-6.35a11.18 11.18 0 0 0-10.38 7.88 16.73 16.73 0 0 0-.81 5.09c0 9.64 5.76 14 11.47 14a5.91 5.91 0 0 0 2.66-.53 2.59 2.59 0 0 0 1-2.38v-6.87a5.33 5.33 0 0 0-2.86-5.14h11.71s-2.07.43-2.07 3.98zm-107.11 10a9.91 9.91 0 0 1-3.87-.42c-.82-.35-1-1.42-1-3.56v-7.53h3.75c3.39 0 5.7.19 6.39 1.84v-6.67c-.65 1.64-2.86 1.93-6.39 1.93h-3.71v-9.52c0-1.33 0-1.33 1.68-1.33H52c2.77 0 4.13.46 5.27 1.86a13.58 13.58 0 0 1 1.86 3.49v-7.94H36.36c.72.48 2.58 2.18 2.58 6.9v16.53c0 5.84-2.85 7.06-2.85 7.06h23.58v-8.54a23.5 23.5 0 0 1-2.82 4.27c-1.54 1.75-5.64 1.63-6.23 1.63zm65.52-19.05a6.48 6.48 0 0 1-2.17 5.3c-.89.78-2.38 1.16-4.57 1.16h-.89v-11c0-.87.09-1.29.31-1.49a3.37 3.37 0 0 1 2-.44c2.58.03 5.32 1.72 5.32 6.47zm6 14.83c-1.34-2.21-3.39-5.52-4.4-7.39 2.17-.9 5.47-3 5.47-7.43v-.67a7.48 7.48 0 0 0-3.24-6.37c-1.93-1.3-4.29-1.78-8.72-1.78h-12c.72.48 2.58 2.18 2.58 6.9v16.53c0 5.84-2.85 7.06-2.85 7.06h12.34s-2.85-1.22-2.85-7.06v-5.79h.64a3 3 0 0 1 2.94 1.78c.47.83.92 1.66 1.36 2.47.86 1.59 2 3.7 2.78 4.95 1.91 2.93 3.76 4.2 9.63 4 0 0 1 0 1.76-.1.03-.03-1.98-1.45-5.41-7.11zm53.14 6.85s-2.85-1.22-2.85-7.06v-16.53c0-4.72 1.87-6.42 2.58-6.9h-11.8c.72.48 2.58 2.18 2.58 6.9v16.53c0 5.84-2.85 7.06-2.85 7.06zm33.14 0c-2.61-1.62-3.32-3.16-4.82-7.08-2.54-6.54-6-15.85-8.79-23.23l-.07-.18h-3.24l-9.7 23.56c-1.06 2.63-3 5.8-5.16 6.92h8.53c-1.83-.76-1.41-3.16-.66-5 .14-.4.73-1.86 1.51-3.75h9.66l1.45 4a4.19 4.19 0 0 1-1 4.78zM187.27 147c1.84-4.46 3.92-9.45 3.92-9.45l3.42 9.45z"/><path d="M6.63 115.85v-6.7c0-.61-.2-.79-1.68-.85v-.89h6.86v.89c-1 .06-1.56.2-1.56.85V116c0 2.32 1.06 3.31 3.2 3.31a2.77 2.77 0 0 0 2-.73 3.84 3.84 0 0 0 .92-3v-4.28c0-1.9-.42-2.81-2.32-3v-.89h5.4v.89c-1.78.22-1.86 1.09-1.86 3v4.6c0 3-1.66 4.87-5.22 4.87s-5.74-1.39-5.74-4.92zm19.95-4.67h-.12v5.39c0 1.92.24 2.81 2.16 3v.89h-5.33v-.89c1.78-.2 2-1.05 2-3v-6.38c0-1.05-.38-1.84-2-1.88v-.89H28l6.88 8.58H35v-4.7c0-1.9-.42-2.81-2.32-3v-.89H38v.89c-1.78.22-1.86 1.09-1.86 3v9.27h-2zm15.32 8.38c1.48-.06 1.72-.24 1.72-.85v-9.55c0-.61-.24-.79-1.72-.85v-.89H49v.89c-1.48.06-1.72.24-1.72.85v9.55c0 .61.24.79 1.72.85v.89h-7.1zm12.66-9.97c-.32-.83-.68-1-1.94-1.29v-.89H60v.89c-1.74.1-2 .46-1.74 1.13l2.82 8h.2l2.36-6.76c.6-1.72.6-2.14-1.28-2.42v-.89h5.06v.89c-1.36.28-1.54.75-2.18 2.4l-3.76 9.87h-2.8zm15.98 9.97c1.48-.06 1.68-.24 1.68-.85v-9.55c0-.61-.2-.79-1.68-.85v-.89h11.68l.18 4.68h-1.08c-.78-2.24-1.54-3.76-4-3.76h-1.5v5h.3c1.28 0 1.72-.18 2.42-1.94h.9v4.89h-.9c-.7-1.76-1.14-2-2.42-2h-.3v5.13h1.3c2.92 0 3.72-1.57 4.64-4.1h1.08l-.2 5h-12.1zm22.52-.85c0 .65.58.79 1.56.85v.89h-6.87v-.89c1.48-.06 1.68-.24 1.68-.85v-9.55c0-.61-.2-.79-1.68-.85v-.89h7.1c4 0 5.18 1.53 5.18 3.17s-.9 2.81-3.94 3.27v.06c2.8 0 3.58 1.11 3.74 2.62L100 118c.14 1.33.34 1.53 1.76 1.6v.89c-.78.06-1.44.08-2 .08-2.92 0-3.36-.75-3.48-2.32l-.12-1.53c-.08-1.9-.5-2.3-2.56-2.3h-.5zm.8-5.23c2.06 0 2.48-.65 2.48-2.63 0-1.62-.56-2.48-2.62-2.48h-.66v5.11zm12.2 2.65h1.08c1 2.18 2.4 3.65 4.06 3.65a1.91 1.91 0 0 0 2.12-1.9c0-1.27-.72-1.78-2.88-2.42s-4.3-1.64-4.3-4.08 1.84-4.28 4.7-4.28a6.28 6.28 0 0 1 2.74.63l.54-.71h1v4.12h-1.08c-1-1.88-2.08-3.05-3.46-3.05a1.69 1.69 0 0 0-1.8 1.74c0 1.27.78 1.68 3.06 2.38 1.84.55 3.9 1.49 3.9 3.94s-1.48 4.62-4.94 4.62a7.38 7.38 0 0 1-3.2-.63l-.54.71h-1zm14.02 3.43c1.48-.06 1.72-.24 1.72-.85v-9.55c0-.61-.24-.79-1.72-.85v-.89h7.06v.89c-1.48.06-1.72.24-1.72.85v9.55c0 .61.24.79 1.72.85v.89h-7.06zm14.36 0c1.66 0 2-.24 2-.85v-10.34h-.16c-1.46 0-2.32 1.41-3.32 3.76h-1l.1-4.68h12.47l.1 4.68h-1c-1-2.44-1.86-3.76-3.32-3.76H140v10.34c0 .61.32.81 2 .85v.89h-7.58zm24.12-9.02c.92-1.53.8-2.06-.78-2.24v-.89h4.86v.89c-1.2.18-1.6.69-2.46 2l-2.72 4.26v4.1c0 .61.24.79 1.72.85v.89h-7.06v-.89c1.48-.06 1.72-.24 1.72-.85V115l-3.32-5.53a2.13 2.13 0 0 0-2-1.21v-.89h7.2v.89c-1.7.08-1.68.44-1.24 1.23l2.24 4.06zm13.73 3.46c0-4.18 2.66-6.87 6.74-6.87s6.74 2.62 6.74 6.8-2.66 6.87-6.74 6.87-6.74-2.63-6.74-6.8zm9.6 0c0-4.24-.82-5.84-2.94-5.84s-2.78 1.6-2.78 5.84.82 5.84 2.94 5.84 2.79-1.65 2.79-5.91zm7.57 5.56c1.48-.06 1.68-.24 1.68-.85v-9.55c0-.61-.2-.79-1.68-.85v-.89h11.69v4.68h-1.08c-.84-2.38-1.76-3.76-4.2-3.76h-1.1v5.19h.34c1.28 0 1.72-.14 2.38-1.78h.9v4.73h-.9c-.7-1.76-1.1-2-2.38-2h-.34v4.2c0 .65 0 .83 1.8.89v.85h-7.1zm-58.71-34.64H130v-.48h2v.48h-.71v1.9h-.54zm1.76-.48h.57l.63 1 .63-1h.56v2.38h-.51v-1.61l-.66 1-.66-1v1.61h-.51z"/></svg>