<svg id="Layer_1" data-name="Layer 1" xmlns="http://www.w3.org/2000/svg" viewBox="0 0 64.6 93.79"><defs><style>.cls-1{fill:#fff;}.cls-2{fill:#ba0c2f;}</style></defs><title>university-georgia_icon</title><path class="cls-1" d="M64.6,0H0V68.79c0,13.07,16.42,22.31,32.3,25,15.88-2.64,32.3-11.88,32.3-25ZM2.92,2.92H61.6V64.07H56l-2.1,2v-7a.29.29,0,0,0-.15-.25,1.68,1.68,0,0,1-.9-1.48V30.21A1.24,1.24,0,0,1,53.91,29a.29.29,0,0,0,.25-.28V25.93a.29.29,0,0,0-.28-.28h-2a20,20,0,0,0-39.43,0h-2a.29.29,0,0,0-.28.28v2.84a.28.28,0,0,0,.24.28,1.24,1.24,0,0,1,1.06,1.22V57.34a1.68,1.68,0,0,1-.9,1.48.29.29,0,0,0-.15.25v5H2.92Zm31.93,55.9a1.68,1.68,0,0,1-.9-1.48V30.21A1.25,1.25,0,0,1,35,29H48.34a1.24,1.24,0,0,1,1.07,1.23V57.34a1.68,1.68,0,0,1-.9,1.48.29.29,0,0,0-.15.25v5H37.1l-2.1,2v-7A.29.29,0,0,0,34.85,58.82Zm-19,0a1.68,1.68,0,0,1-.9-1.48V30.21A1.25,1.25,0,0,1,16,29H29.37a1.24,1.24,0,0,1,1.07,1.23V57.34a1.68,1.68,0,0,1-.9,1.48.29.29,0,0,0-.15.25v5H18.13l-2.1,2v-7A.29.29,0,0,0,15.88,58.82Zm-.46-33.17a17.12,17.12,0,0,1,33.54,0ZM61.74,68.79c0,6.4-4.91,11.17-9,14a52.6,52.6,0,0,1-20.43,8,52.6,52.6,0,0,1-20.43-8c-4.09-2.87-9-7.64-9-14V67.24h7.55v5.52a.29.29,0,0,0,.28.28h5a.29.29,0,0,0,.28-.28V67.24H29.45v5.52a.29.29,0,0,0,.28.28h5a.29.29,0,0,0,.28-.28V67.24H48.47v5.52a.29.29,0,0,0,.28.28h5a.29.29,0,0,0,.28-.28V67.24h7.71Z"/><path d="M43.42,16.16a17.13,17.13,0,0,0-28,9.49H49A17.18,17.18,0,0,0,43.42,16.16Z"/><path d="M18.13,64.07H29.39v-5a.29.29,0,0,1,.15-.25,1.68,1.68,0,0,0,.9-1.48V30.27A1.24,1.24,0,0,0,29.37,29H16A1.25,1.25,0,0,0,15,30.21V57.34a1.68,1.68,0,0,0,.9,1.48.29.29,0,0,1,.15.25v7Z"/><path d="M37.1,64.07H48.36v-5a.29.29,0,0,1,.15-.25,1.68,1.68,0,0,0,.9-1.48V30.27A1.24,1.24,0,0,0,48.34,29H35A1.25,1.25,0,0,0,34,30.21V57.34a1.68,1.68,0,0,0,.9,1.48.29.29,0,0,1,.15.25v7Z"/><path class="cls-2" d="M34.66,81.32a2,2,0,0,1-.34-.12,1.49,1.49,0,0,0-.44,1.09,1.33,1.33,0,0,0,1.34,1.31h0a1,1,0,0,0,1-1C36.27,82.05,35.85,81.71,34.66,81.32Z"/><path class="cls-2" d="M35.82,80.12a1.66,1.66,0,0,0,.47-1.19.66.66,0,0,0,0-.14,1.08,1.08,0,0,0-1.2-.94h0a.87.87,0,0,0-.89.87C34.19,79.46,35,79.82,35.82,80.12Z"/><path class="cls-2" d="M54,72.76a.29.29,0,0,1-.28.28h-5a.29.29,0,0,1-.28-.28V67.24H35v5.52a.29.29,0,0,1-.28.28h-5a.29.29,0,0,1-.28-.28V67.24H16v5.52a.29.29,0,0,1-.28.28h-5a.29.29,0,0,1-.28-.28V67.24H2.92V68.8c0,6.4,4.87,11.17,9,14a52.6,52.6,0,0,0,20.43,8,52.6,52.6,0,0,0,20.43-8c4.09-2.88,9-7.65,9-14V67.24H54ZM24.55,83.85h-4v-.38c.76,0,1.13-.11,1.13-.48V79a.8.8,0,0,0-.19-.61,1.33,1.33,0,0,0-.93-.23h-.07v-.37l2.86-.2V83c0,.36.37.45,1.2.51Zm6.66-5.62-1.77,3.13-1.27,2.56H26.86v-.35L30.22,79v-.06h-2.3c-.9,0-1.1.25-1.28,1l-.36,0,.06-2.29h4.87Zm4,5.8c-1.65,0-2.65-.6-2.65-1.6,0-.63.41-1.11,1.23-1.43a1.78,1.78,0,0,1-1-1.54c0-1.23.85-2,2.44-2s2.32.93,2.32,1.5-.42,1-1.24,1.33h0c1,.42,1.44,1,1.44,1.73A2.23,2.23,0,0,1,35.2,84Zm9.49-1.89A2.2,2.2,0,0,1,42.22,84c-1.55,0-2.48-.54-2.48-1.44V82.5a.84.84,0,0,1,.89-.77h.07a.78.78,0,0,1,.73.83.91.91,0,0,1-.47.77h-.05a1.91,1.91,0,0,0,.88.22c.87,0,1.31-.63,1.31-1.55s-.48-1.45-1.32-1.45a2.69,2.69,0,0,0-1.38.39l-.31-.25.13-3.12h4.1l-.1,1.27H40.76l-.07,1.47v.06h.05a3.41,3.41,0,0,1,1.48-.3c1.15,0,2.39.49,2.49,1.89A1.1,1.1,0,0,1,44.69,82.14Z"/><path d="M10.42,59.07a.29.29,0,0,1,.15-.25,1.68,1.68,0,0,0,.9-1.48V30.27a1.24,1.24,0,0,0-1.06-1.22.28.28,0,0,1-.24-.28V25.93a.29.29,0,0,1,.28-.28h2a20,20,0,0,1,39.43,0h2a.29.29,0,0,1,.28.28v2.83a.29.29,0,0,1-.25.28,1.24,1.24,0,0,0-1.07,1.17V57.34a1.68,1.68,0,0,0,.9,1.48.29.29,0,0,1,.15.25v7l2.1-2H61.6V2.92H2.92V64.07h7.5Z"/><path class="cls-1" d="M26.28,79.86l.36,0c.18-.75.38-1,1.28-1h2.3V79l-3.36,4.62v.35h1.31l1.27-2.56,1.77-3.13v-.66H26.34Z"/><path class="cls-1" d="M42.22,80.07a3.41,3.41,0,0,0-1.48.3h-.05v-.06l.07-1.47h3.46l.1-1.27h-4.1l-.13,3.12.31.25a2.69,2.69,0,0,1,1.38-.39c.84,0,1.32.53,1.32,1.45s-.44,1.55-1.31,1.55a1.91,1.91,0,0,1-.88-.22H41a.91.91,0,0,0,.47-.77.78.78,0,0,0-.73-.83h-.07a.84.84,0,0,0-.89.77v.09c0,.9.93,1.44,2.48,1.44a2.2,2.2,0,0,0,2.47-1.89,1.1,1.1,0,0,0,0-.18C44.61,80.56,43.37,80.07,42.22,80.07Z"/><path class="cls-1" d="M23.35,83V77.58l-2.86.2v.37h.07a1.33,1.33,0,0,1,.93.23.8.8,0,0,1,.19.61v4c0,.37-.37.45-1.13.48v.38h4V83.5C23.72,83.44,23.35,83.35,23.35,83Z"/><path class="cls-1" d="M36.26,80.3h0c.82-.31,1.24-.76,1.24-1.33s-.73-1.5-2.32-1.5-2.44.77-2.44,2a1.78,1.78,0,0,0,1,1.54h0c-.82.32-1.23.8-1.23,1.43,0,1,1,1.6,2.65,1.6a2.23,2.23,0,0,0,2.5-2C37.7,81.29,37.23,80.72,36.26,80.3Zm-1.18-2.45h0a1.08,1.08,0,0,1,1.2.94.66.66,0,0,1,0,.14,1.66,1.66,0,0,1-.47,1.19c-.83-.3-1.63-.66-1.63-1.4A.87.87,0,0,1,35.08,77.85Zm.17,5.75h0a1.33,1.33,0,0,1-1.34-1.31,1.49,1.49,0,0,1,.44-1.09,2,2,0,0,0,.34.12c1.19.39,1.61.73,1.61,1.3A1,1,0,0,1,35.25,83.6Z"/><polygon points="61.22 83.94 59.22 83.94 59.22 84.42 59.97 84.42 59.97 86.32 60.51 86.32 60.51 84.42 61.22 84.42 61.22 83.94"/><polygon points="64.12 86.32 64.12 83.94 63.56 83.94 62.93 84.94 62.3 83.94 61.73 83.94 61.78 86.32 62.29 86.32 62.29 84.71 62.95 85.71 63.61 84.71 63.61 86.32 64.12 86.32"/></svg>