<svg data-name="Layer 1" xmlns="http://www.w3.org/2000/svg" viewBox="0 0 34.42 36.52"><defs><clipPath id="a" transform="translate(-.54)"><path fill="none" d="M0 0H36.59V36.52H0z"/></clipPath></defs><path d="M2.96 4.12L.08 12.26l-.07 1.51s.4 8.91 3.89 13.43S17.07 36 17.07 36s7.4-2.17 11.48-6.3 5.84-15.89 5.84-15.89v-1L31.9 4.12l-7.44-.76L17.34.72l-6.21 2.64z" fill="#fff"/><g clip-path="url(#a)"><path d="M9.05 6.22c-.45 0-.73.18-.73.83v2.39c0 .65.29.83.73.83s.73-.18.73-.83V7c0-.65-.28-.83-.73-.83" fill="#fc1a22"/><path d="M32.05 3.62A29.9 29.9 0 0 1 17.24 0 27.72 27.72 0 0 1 2.56 3.52S.06 8.27.06 12.78h34.3a22.39 22.39 0 0 0-2.3-9.16M4.85 10.27c.42 0 .68-.31.68-.81V9.1h-.78v-.93h1.91v3h-.59l-.17-.49a1.39 1.39 0 0 1-1.05.57c-1.09 0-1.85-.52-1.85-2V7.2c0-1.45.76-2 1.85-2s1.77.66 1.81 2H5.54c0-.76-.28-1-.68-1s-.73.18-.73.83v2.41c0 .65.28.83.73.83m6.06-1c0 1.45-.77 2-1.85 2s-1.86-.52-1.86-2V7.2c0-1.45.77-2 1.86-2s1.85.52 1.85 2zm7.32 1.89h-1.1l-.82-4-.89 4h-1.09l-1.23-5.85h1l.79 3.84.81-3.84h1.08l.81 3.84.86-3.84h1.05zm4.82 0h-3.17V5.31h3.07v1h-2v1.34h1.5v1h-1.45v1.55h2zm2.26.08a1.91 1.91 0 0 1-1.92-1.65l1.06-.21c.13.71.54 1 .87 1a.66.66 0 0 0 .69-.7c0-1.11-2.51-1.12-2.51-2.77a1.55 1.55 0 0 1 1.77-1.64 1.75 1.75 0 0 1 1.81 1.42l-1 .29c-.19-.55-.43-.79-.82-.79a.58.58 0 0 0-.62.64c0 .89 2.51 1 2.51 2.79a1.65 1.65 0 0 1-1.87 1.68m5.92-5h-1.29v4.88H28.8V6.3h-1.34v-1h3.74z" fill="#fc1a22"/><path d="M34.39 13.77H.01C-.54 33.44 17.2 36.52 17.2 36.52c18.85-4 17.18-22.76 17.18-22.76M6.69 27a5.19 5.19 0 0 1-3.7-4 39.32 39.32 0 0 1-.67-8.29h2.24a47.28 47.28 0 0 0 .52 8.86 1.68 1.68 0 0 0 1.31 1.56c.75.17 1-.21.94-1.11a60.27 60.27 0 0 1-.39-9.3h2.25a79.91 79.91 0 0 0 .27 9.65c.18 2.2-.85 3.22-2.77 2.68m12.27 6.51c-.37-4-1-8.19-1.65-12.35-.63 4.16-1.24 8.34-1.68 12.41-.66 0-1.33-.1-2-.19-1.28-6.27-2.72-12.62-3.57-18.59h2.58c.49 3.9 1.16 7.91 1.8 11.93.47-4 1.09-8 1.69-11.93h2.33c.67 4 1.31 8 1.75 11.88.65-4 1.26-8 1.65-11.88h2.6c-.74 5.91-2.13 12.16-3.5 18.46q-1 .18-2 .27m4.72-5.61h-.27v.77h-.19v-.77h-.27v-.16h.73zm1 .77h-.17V28l-.18.73h-.18l-.18-.73v.73h-.17v-.92h.28l.17.63.17-.63h.28zm6.77-11v.71l-2.08.21c.07-1.75-.36-2.18-1.24-2.16-.54 0-1 .34-1 1.37a59.16 59.16 0 0 1-.42 6.33c-.1.79.08 1.25.81 1.09s1.22-.74 1.4-1.91l.15-1.14-1.37.23q.09-.83.15-1.65c1.19-.15 2.37-.32 3.54-.52a46.41 46.41 0 0 1-1 5.64l-1 .34c-.06-.24-.12-.49-.19-.74a4.22 4.22 0 0 1-2.25 1.63c-1.6.44-2.55-.61-2.37-2.65.2-2.19.31-4.39.32-6.57a3 3 0 0 1 3.23-3.24c2.25 0 3.45 1.39 3.36 3" fill="#1c3694"/></g></svg>