<svg id="institutions" xmlns="http://www.w3.org/2000/svg" width="210" height="160"><defs><style>.cls-1,.cls-19{fill:#cf0a2c}.cls-1,.cls-15,.cls-19,.cls-20,.cls-22,.cls-3,.cls-5,.cls-6,.cls-9{fill-rule:evenodd}.cls-10,.cls-11,.cls-12,.cls-13,.cls-14,.cls-16,.cls-17,.cls-18,.cls-2,.cls-20,.cls-21,.cls-23,.cls-4,.cls-7,.cls-8{fill:none}.cls-10,.cls-11,.cls-12,.cls-13,.cls-14,.cls-15,.cls-18,.cls-19,.cls-2,.cls-20,.cls-21,.cls-22,.cls-23,.cls-5,.cls-7,.cls-8,.cls-9{stroke:#231f20}.cls-10,.cls-11,.cls-12,.cls-13,.cls-14,.cls-15,.cls-16,.cls-17,.cls-18,.cls-2,.cls-20,.cls-21,.cls-22,.cls-23,.cls-3,.cls-4,.cls-5,.cls-7,.cls-8,.cls-9{stroke-miterlimit:2.61}.cls-2{stroke-width:.37px}.cls-15,.cls-3{fill:#fff}.cls-16,.cls-3,.cls-4{stroke:#fff}.cls-15,.cls-3,.cls-4,.cls-5,.cls-7{stroke-width:.01px}.cls-22,.cls-24,.cls-5,.cls-6,.cls-9{fill:#231f20}.cls-16,.cls-8,.cls-9{stroke-width:.15px}.cls-10{stroke-width:.07px}.cls-11{stroke-width:.1px}.cls-12,.cls-20{stroke-width:.15px}.cls-13{stroke-width:.29px}.cls-14,.cls-19{stroke-width:.3px}.cls-17{stroke:#cf0a2c;stroke-width:1.47px}.cls-18{stroke-width:.1px}.cls-21{stroke-width:.15px}.cls-22{stroke-width:0}.cls-23{stroke-width:1.1px}</style></defs><path class="cls-1" d="M106 50.36l-17.73.06c-5.3 0-12.57 0-16 .5l-.36-.25-.18-.38 1.36-.6v-.07l1.13-.52v-.06l1.19-.67v-.09l1.38-.88-.06-.09 1-.76v-.07l1.2-.91-.06-.1 1.14-.87v-.08l.99-.82v-.09l1.23-.81v-.07l1.25-.83-.05-.1 1.54-.86v-.08l1.03-.55v-.07l1.32-.56v-.08l1.37-.6v-.07l1.17-.4v-.11l1.4-.42v-.1l1.37-.38v-.12l.92-.22.01-.18 5.88-1.11v-.3l3.71-.21h5.37l3.82.19v.28l5.81 1.15.93.37v.08l1.26.3v.09l1.59.55-.05.1 1.53.52-.06.08 1.17.48v.08l1 .44v.09l1.2.64-.05.06.88.45v.07l1.11.48-.07.11 1.17.72-.08.1 1.33.9-.07.1 1.16.74-.09.1.99.89-.09.08 1.2.9-.08.11 1.22.82-.08.1 1.18.8-.06.1 1.27.68-.05.09 1.29.62v.08l1.3.63v.15l-.3.36-16.18-.64-17.62-.06z"/><path class="cls-2" d="M66.83 65.14l-2.74.21c-.13 0-.27 0-.28.16h-.34v.23a.16.16 0 0 1 .1.13.56.56 0 0 1 .53.63v.8h1.62v.17c.54 0 .35.58 1 .57v.13a.48.48 0 0 1 .51.54c-.24 0-.35 0-.35.08s.06.08.12.09.15.15 0 .16v8.29h4.49m10.88-9.83v.18c.54 0 .34.57 1 .55v.13a.47.47 0 0 1 .51.54c-.22 0-.35 0-.35.08s-.02.02.05.02.15.17 0 .17M73 65.51h-9.53v.23a.22.22 0 0 1 .1.13.57.57 0 0 1 .53.63v.8h9.34m-9.84-1.43H73m14.64-.32h-7.51v.25a.18.18 0 0 1 .09.13.6.6 0 0 1 .52.68v.85h6.89m-7.4-1.56h7.4m-7.52-.43H73m7.81 1.89l-5.2-.1h-2.18m6.83-1.41H73M67 69h4.49m12.39-3.72h40m-36.2.19h36.2m0 .39h-36.2m36.2 1.52h-36.2"/><path class="cls-3" d="M105.85 50.36c-11.57.22-26.08-.4-33.63.55l-.36-.24-.18-.35c.1-.06.11.1.2.1s.08-.09.12-.1a.65.65 0 0 1 .18.1.74.74 0 0 1 .14-.17c.11 0 .08.16.18.15s0-.2.13-.22a2.44 2.44 0 0 1 .25.18c.09 0 0-.21.13-.22s.13.21.23.19a1.25 1.25 0 0 1 .1-.21 2.09 2.09 0 0 0 .28.19c.13 0 0-.24.14-.25a1.53 1.53 0 0 1 .3.22.68.68 0 0 1 .2-.22c.14 0 .08.21.22.21s0-.28.3-.26a1.84 1.84 0 0 0 .22.23.94.94 0 0 1 .24-.24c.15 0 .21.3.35.29s0-.3.26-.26a1.19 1.19 0 0 0 .34.22c.14 0 0-.21.25-.22s.14.22.29.22a1.79 1.79 0 0 1 .35-.25c.18 0 .23.26.42.26a.62.62 0 0 1 .33-.26 4.53 4.53 0 0 0 .38.26c.25 0 .08-.39.32-.4a1.75 1.75 0 0 0 .48.3 2.3 2.3 0 0 0 .3-.34 1.16 1.16 0 0 0 .52.24 1.13 1.13 0 0 1 .36-.27c.2 0 .25.32.45.31a2.23 2.23 0 0 1 .4-.26 3.65 3.65 0 0 0 .5.25 1.33 1.33 0 0 1 .4-.23 3.37 3.37 0 0 0 .51.22 3.32 3.32 0 0 1 .4-.3 3.89 3.89 0 0 0 .55.31 2.13 2.13 0 0 1 .5-.33 3.53 3.53 0 0 0 .55.32 2.72 2.72 0 0 1 .45-.31c.27 0 .29.32.55.32a1.85 1.85 0 0 1 .47-.35 1.92 1.92 0 0 0 .61.31 1.67 1.67 0 0 1 .47-.32c.29 0 .25.34.59.36a2.52 2.52 0 0 1 .41-.33c.25 0 .32.28.51.29a2.93 2.93 0 0 0 .56-.35 6.12 6.12 0 0 1 .62.31 1.94 1.94 0 0 0 .55-.26c.34 0 .29.26.62.26a3.45 3.45 0 0 1 .53-.26A3.34 3.34 0 0 0 92 50a3.94 3.94 0 0 1 .55-.34 2.37 2.37 0 0 0 .58.32c.21 0 .35-.28.56-.28a5 5 0 0 0 .71.3 4.86 4.86 0 0 1 .6-.28c.3 0 .34.32.62.32s.32-.33.66-.34.32.3.55.3a2.9 2.9 0 0 1 .65-.31 2.54 2.54 0 0 0 .63.29c.41 0 .24-.36.64-.35s.31.37.61.37.3-.32.6-.31a6.27 6.27 0 0 0 .63.29c.32 0 .33-.34.66-.34s.31.29.67.3.31-.32.62-.31.32.28.61.3c.45 0 .3-.36.73-.33s.34.32.61.31.3-.35.67-.34.28.33.63.32.28-.31.65-.32.26.33.66.34.29-.29.6-.31.29.35.74.33a5.6 5.6 0 0 1 .61-.3c.31 0 .32.32.61.31s.31-.29.67-.3.36.36.67.36a6.32 6.32 0 0 0 .63-.29c.3 0 .28.32.61.31s.27-.33.6-.34.24.34.64.35a2.59 2.59 0 0 0 .63-.29 2.92 2.92 0 0 1 .65.31c.24 0 .34-.32.6-.31s.36.26.64.26.32-.3.61-.32a3.33 3.33 0 0 1 .55.31 5.6 5.6 0 0 0 .72-.3c.2 0 .35.29.56.28a2.39 2.39 0 0 0 .58-.32 4 4 0 0 1 .55.34 3.41 3.41 0 0 0 .62-.28 3.71 3.71 0 0 1 .54.26c.33 0 .28-.27.62-.26a1.87 1.87 0 0 0 .55.26 6.83 6.83 0 0 1 .62-.31 2.89 2.89 0 0 0 .56.35c.19 0 .26-.27.51-.29a2.4 2.4 0 0 1 .45.32c.34 0 .31-.36.59-.36a1.69 1.69 0 0 1 .44.31 2.08 2.08 0 0 0 .61-.31 1.93 1.93 0 0 1 .46.35c.26 0 .28-.31.55-.32a2.94 2.94 0 0 1 .45.31 3.51 3.51 0 0 0 .56-.32 2 2 0 0 1 .49.33 4 4 0 0 0 .56-.31 3.24 3.24 0 0 1 .39.3 3.58 3.58 0 0 0 .52-.22 1.31 1.31 0 0 1 .39.31 4.59 4.59 0 0 0 .58-.29 2.34 2.34 0 0 1 .33.36c.2 0 .25-.32.45-.31a1.42 1.42 0 0 1 .36.36 1.05 1.05 0 0 0 .53-.34 2.07 2.07 0 0 0 .3.34 1.61 1.61 0 0 0 .48-.29c.24 0 .07.36.31.4a3.32 3.32 0 0 0 .38-.26c.28 0 .1.3.23.3s.27-.3.45-.3a1.1 1.1 0 0 1 .24.3c.15 0 .24-.26.4-.25s.12.33.27.33a2 2 0 0 0 .39-.24c.27 0 .1.3.23.3s.17-.3.32-.31a1 1 0 0 1 .23.29 2.34 2.34 0 0 0 .27-.26c.26 0 .1.31.24.31s.14-.25.28-.26 0 .27.12.26a2.26 2.26 0 0 1 .38-.25c.13 0 0 .26.09.28a2.67 2.67 0 0 0 .33-.22 1.92 1.92 0 0 1 .06.24c.09 0 .17-.23.27-.22s0 .25.09.25a3.23 3.23 0 0 1 .28-.22c.1 0 0 .28.06.3s.14-.23.25-.22a1.27 1.27 0 0 1 .1.23 1.06 1.06 0 0 0 .23-.13 1.67 1.67 0 0 1 .08.15.38.38 0 0 1 .24-.07c.09.06-.1.19-.12.28s0 .31-.17.29c-11.4-1.1-22.5-.63-33.77-.93zM104.51 58v-2.33c0-1 .36-1.59 1.27-1.61s1.4.48 1.38 1.58V58h-2.66zm6.64.14v-2.33c0-1 .34-1.59 1.18-1.61s1.31.56 1.29 1.58v2.34h-2.48zm6.32.05v-2.32c0-1 .33-1.59 1.12-1.61s1.22.56 1.2 1.58v2.34h-2.34zm6.01-.04v-2.22c0-1 .33-1.64 1-1.65s1.06.6 1.05 1.62v2.24h-2.1zm5.22.06v-2.17c0-1 .21-1.6.74-1.61s.72.58.71 1.57v2.2h-1.4zm4.01.01v-2.17c0-1 .07-1.51.41-1.51s.51.49.51 1.48v2.18h-.89zm3.13.12v-2.06a4.19 4.19 0 0 1 .09-1.43 4.33 4.33 0 0 1 .1 1.4v2.06h-.18z"/><path class="cls-3" d="M138.18 58.82L138.18 59.45 126.33 59.53 105.8 59.63 105.8 58.9 107.94 58.9 107.94 58.49 110.53 58.5 110.53 58.88 114.62 58.89 114.63 58.5 117.06 58.5 117.07 58.94 120.92 58.95 120.92 58.56 123.37 58.56 123.37 59.03 126.75 59.05 126.75 58.62 128.6 58.63 128.61 59.03 131.3 59.05 131.29 58.67 132.65 58.68 132.65 59.03 134.75 59.05 134.74 58.77 135.72 58.77 135.72 59.02 137.05 59.04 137.05 58.75 137.64 58.75 137.64 58.97 138.01 58.98 138.01 58.82 138.18 58.82 138.18 58.82z"/><path class="cls-3" d="M100.45 58.12v-2.33c0-1-.34-1.59-1.18-1.61s-1.31.56-1.28 1.58v2.34h2.48zm-6.33.06v-2.33c0-1-.32-1.6-1.12-1.62s-1.23.56-1.21 1.58v2.34h2.33zm-6-.04v-2.23c0-1-.34-1.63-1-1.65s-1.12.6-1.12 1.62v2.24h2.09zm-5.22.06v-2.17c0-1-.21-1.6-.74-1.61s-.68.58-.67 1.58v2.18h1.41zm-4.01.01v-2.16c0-1-.07-1.5-.41-1.52S78 55 78 56v2.18h.89zm-3.13.11v-2.05a4.2 4.2 0 0 0-.08-1.43 4 4 0 0 0-.1 1.4v2.07h.18z"/><path class="cls-3" d="M73.62 58.8L73.61 59.43 85.38 59.51 105.8 59.62 105.8 58.89 103.71 58.89 103.71 58.48 101.09 58.48 101.09 58.87 97.03 58.88 97.03 58.48 94.59 58.48 94.59 58.92 90.77 58.94 90.77 58.55 88.33 58.55 88.33 59.02 84.96 59.04 84.96 58.6 83.13 58.62 83.12 59.02 80.44 59.03 80.45 58.66 79.1 58.66 79.1 59.02 77.01 59.03 77.02 58.76 76.04 58.75 76.04 59.01 74.72 59.02 74.72 58.74 74.14 58.73 74.14 58.95 73.77 58.96 73.77 58.81 73.62 58.8 73.62 58.8z"/><path class="cls-3" d="M139.51 52.61a4.67 4.67 0 0 1-1.33.24c-6.9-.69-21.59-.52-32.22-.71-10.45-.19-28.43.09-32.24.44a6 6 0 0 1-1.4-.15 6.68 6.68 0 0 1 1.45-.13c11-.45 20.73-.64 32.2-.46 10.35.11 22.41 0 32.22.68l1.32.1zM104.5 28.2v-.9a1.39 1.39 0 0 1 1.37-1.37 1.22 1.22 0 0 1 1.29 1.21 8.35 8.35 0 0 1 0 1 1.21 1.21 0 0 0-1.32-1.33 1.35 1.35 0 0 0-1.35 1.38zm4.2-.57a1.6 1.6 0 0 1 .49-1.48 1.44 1.44 0 0 1 .81 1.61 1 1 0 0 0-.71-1 .85.85 0 0 0-.59.85zm-5.7.05a1.55 1.55 0 0 0-.49-1.47c-.61.11-.78.85-.78 1.6.1-.54.24-1 .68-1a.86.86 0 0 1 .59.86z"/><path class="cls-3" d="M105.86 30.45L107.11 31.26 104.6 31.28 105.86 30.45 105.86 30.45z"/><path class="cls-3" d="M102.94 31.08L101.65 31.48 102.94 31.08 102.94 31.08z"/><path class="cls-4" d="M108.75 32.4L110.05 32.49 110.05 32.9"/><path class="cls-4" d="M102.82 23.09v1.19h-.25v.21l.32.11a.25.25 0 0 0 .21.18V25a.1.1 0 0 0 0 .19v.18c-.12 0-.13.27 0 .27l-.05 1-.05 5.82h-.09v.33l-.71.07v.92l-1.81.11m2.73 1.49v-2.6"/><path class="cls-3" d="M111.28 23.28l.62.07-.12.12a.94.94 0 0 1-.5-.18z"/><path class="cls-4" d="M107.19 24.34v.17h.2a.23.23 0 0 0 .2.22v.14c-.11 0-.09.23 0 .24v.21c-.1 0-.11.22 0 .24v6.83h-.09v.31h-.28v.87m-2.77-9.27v.17h-.16a.21.21 0 0 1-.22.24V25a.1.1 0 0 1 0 .19v.18a.17.17 0 0 1 0 .28l.06 1v5.83l.09.05v.29h.3v.82h2.69m3.59-8.86a.19.19 0 0 0 .16.21v.15a.14.14 0 0 0 0 .26v.2c-.1 0-.11.24 0 .25v6.82h-.08V33M101 24.65v.16a.41.41 0 0 1-.11 0 .18.18 0 0 1-.19.21v.18c.1 0 .1.21 0 .22v.2c.1 0 .09.26 0 .25v6.83l.07.06v.31m8.23-8.65l-.3.1a.19.19 0 0 1-.2.22v.16a.12.12 0 0 1 0 .22v.22c.11 0 .1.24 0 .25l.06 1 .11 5.84h.13v.37h-1.61"/><path class="cls-3" d="M104.01 23.05L107.59 23.01 107.34 23.23 104.24 23.25 104.01 23.05 104.01 23.05z"/><path class="cls-3" d="M111.33 23.29L110.84 23.42 108.78 23.18 108.78 23.03 111.33 23.29 111.33 23.29z"/><path class="cls-4" d="M100.34 23.45l.44.09m0 .72l-.44-.06"/><path class="cls-3" d="M100.33 23.37L102.82 23.09 102.82 23.27 100.78 23.49 100.33 23.37 100.33 23.37z"/><path class="cls-3" d="M100.33 23.38a.85.85 0 0 1-.47.12l-.12-.06.58-.06zm2.47-.28l.45-.05h.75a2.4 2.4 0 0 1-1.23 0zm4.79-.1h1.19a3.39 3.39 0 0 1-1.18 0zm-.4 1.52l.45-.11H109l-.31.11a2.6 2.6 0 0 0-1.34 0h-.2z"/><path class="cls-5" d="M109.03 24.39L110.62 24.55 110.62 24.65 108.83 24.49 109.03 24.42 109.03 24.39 109.03 24.39z"/><path class="cls-3" d="M110.62 24.74h1l.58.1h-.31a2.24 2.24 0 0 0-1.17-.06h-.14zm-8.06-.25H104l.41.08h-.17a2.7 2.7 0 0 0-1.36 0l-.32-.1zm-3.16.39l.55-.12 1.05.06-.13.05a2.37 2.37 0 0 0-1.18 0h-.3z"/><path class="cls-3" d="M107.17 30.69L107.17 31.05 106.01 30.31 107.17 30.69 107.17 30.69z"/><path class="cls-3" d="M104.49 31.05L104.49 30.73 105.74 30.3 104.49 31.05 104.49 31.05z"/><path class="cls-4" d="M102.94 31.51l-1.27.09m.56-.17l-.56.06m8.09-.06h.26m-7.08 0l-1.28.11m2.82-.19h2.69m-2.68-.15l1.35-.85 1.32.82m-2.68-.54l1.36-.46 1.31.42"/><path class="cls-3" d="M99.75 23.44L99.85 23.49 99.85 23.8 99.75 23.44 99.75 23.44z"/><path class="cls-3" d="M111.92 23.34L111.92 23.44 111.86 23.49 111.78 23.82 111.78 23.47 111.92 23.34 111.92 23.34z"/><path class="cls-6" d="M37.76 118.49h.36c1.33-3.39 2.08-5.38 2.35-6l4.17-10.09c2.09-5 3.41-7.62 6.16-7.62h.2v-.6h-9.53v.6c2.58.13 3.71.67 3.71 2.12 0 1-.6 2.89-1.73 5.63L39 113.38l-4.47-10.86a23.08 23.08 0 0 1-1.86-5.89c0-1.22 1.1-1.83 3.34-1.86v-.6H25.28v.6c2.52.1 3.48 1.72 4.7 4.74l7.78 19zM160 117.26c1.41-.05 2.9-.08 4.42-.08s3.22 0 4.9.08v-.57c-2.55-.06-3.77-.7-3.77-2.12a19.47 19.47 0 0 1 1.26-5.07l.63-1.89h7.85l1.75 4.91a7.2 7.2 0 0 1 .5 2.24c0 1-.93 1.79-2.65 1.93v.57c1.65-.05 3.31-.08 4.93-.08s3.31 0 4.93.08v-.57c-2.52-.1-3.34-1.39-4.37-4.14L173 92.78a4.79 4.79 0 0 1-2.35 1.82l.13.67-3.78 10c-2.19 5.82-3.38 9.24-4.17 10.12a4.71 4.71 0 0 1-2.9 1.3v.57zm8-11.06l3.24-9.2 3.44 9.18h-6.76zM43.56 117.26c1.18 0 2.42-.07 3.69-.07s2.67 0 4.08.07v-.48c-2.13-.06-3.15-.58-3.15-1.76a16.42 16.42 0 0 1 1-4.23l.53-1.57h6.54l1.47 4.09a6.14 6.14 0 0 1 .41 1.88c0 .83-.77 1.49-2.21 1.6v.48c1.38 0 2.76-.07 4.12-.07s2.75 0 4.1.07v-.48c-2.1-.08-2.79-1.16-3.64-3.45l-6.05-16.48a4.08 4.08 0 0 1-2 1.52l.1.55-3.14 8.33c-1.82 4.86-2.81 7.7-3.48 8.44a3.88 3.88 0 0 1-2.42 1.08v.48zm6.65-9.26l2.79-7.61 2.83 7.61h-5.62zm14.59 9.26h7.47c3.23 0 6 0 8.39.06l1.57-5.32-.36-.17a9.69 9.69 0 0 1-3.09 3.86c-1.1.69-2.48.72-4.27.72s-3-.05-3.26-.58c-.36-.69-.36-1.94-.36-3.78v-9.35c0-3 .47-4 3.56-4.23V98H64.8v.49c3.2.31 3.58 1.22 3.58 4.23v9.35c0 3.33-.28 4.44-3.58 4.69v.48zm18.35 0c3.81 0 6.76.08 8.8.08 7.84 0 12.28-3.82 12.28-9.62 0-6-4.66-9.82-12.88-9.82-1.14 0-3.78.08-7.89.11v.49c2.71.31 3.31 1.13 3.31 3.56V113c0 2.7-.57 3.56-3.62 3.81v.48zm6.27-5.05V98.54h.25c7.12 0 11.2 3.7 11.2 9.69 0 5.13-3.15 8.42-7.36 8.42-3.45 0-4.09-1.22-4.09-4.44zm18.5-4.67c0 6.12 4.08 10.08 10.29 10.08 6.37 0 10.45-4 10.45-9.81 0-6.1-4-10.13-10.29-10.13s-10.45 3.89-10.45 9.85zm3.28-.39c0-5.32 2.88-8.66 6.87-8.66a6.41 6.41 0 0 1 5.62 3.28 11.47 11.47 0 0 1 1.72 6.26c0 5.41-2.84 8.75-6.93 8.75s-7.29-3.86-7.29-9.63zm19.48 4.31a36.3 36.3 0 0 0 .66 4.77 9.52 9.52 0 0 0 5.3 1.5c3.8 0 6.71-2.44 6.71-5.55 0-2.07-1-3.62-3.2-4.94l-3.2-1.93a4.4 4.4 0 0 1-2.4-3.53 3.32 3.32 0 0 1 3.45-3.4c2.18 0 3.54 1.58 3.94 4.69h.5c0-1.55.13-3 .3-4.22a8.61 8.61 0 0 0-4.44-1.21c-3.64 0-6.17 2.37-6.17 5.38 0 2 1.13 3.61 3.48 5l2.2 1.3q2.81 1.65 2.81 4.14a3.45 3.45 0 0 1-3.7 3.39c-2.73 0-4.75-1.85-5.74-5.4h-.5zm24.87.03V99h2.06c3.09 0 4.61 1 5.27 3.64l.44-.08-.46-5.38h-.22l-.91.88h-15.01l-.83-.88h-.33l-.56 5.28.48.08c.77-2.8 2.25-3.54 5.52-3.54h1.91v12.52c0 2.2-.08 3.54-.74 4.17a5.74 5.74 0 0 1-3 1.13v.48c1.71 0 3.39-.07 5.11-.07s3.39 0 5.07.07v-.48a5.62 5.62 0 0 1-3-1.13c-.66-.63-.74-2-.74-4.17z"/><path class="cls-2" d="M144.74 65.14l2.74.21c.13 0 .27 0 .28.16h.33v.23a.18.18 0 0 0-.09.13.56.56 0 0 0-.52.63v.8h-1.63v.17c-.53 0-.34.58-1 .57v.13a.47.47 0 0 0-.5.54c.23 0 .35 0 .35.08s-.06.08-.12.09-.15.15 0 .16v7.85m-15.37-9.42v.18c-.54 0-.34.57-1 .55v.13a.47.47 0 0 0-.5.54c.23 0 .35 0 .35.08S128 69 128 69s-.15.17 0 .17m12.71-1.9v.17c-.39 0-.2.58-.44.55v.13a.45.45 0 0 0-.35.54c.23 0 .35 0 .35.08a.1.1 0 0 1-.12.08c-.14 0-.16.17 0 .17m-1.54-3.54h9.51v.23a.23.23 0 0 0-.09.13.57.57 0 0 0-.52.63v.8h-9.33m9.82-1.37h-9.45m-14.74-.32h7.62v.25a.18.18 0 0 0-.09.13.6.6 0 0 0-.52.68v.85h-7m7.51-1.57h-7.4m7.51-.43h7.19m-7.82 2l5.2-.17h2.17m-6.83-1.41h7.27m6 3.17h-4.49m-12.39-3.72h-3.84m-52.45-3.54h-4.62v3.56h4.63v-3.56zm0 0H83.8v3.56H71.46v-3.56zm12.13 7.41l-12.13-.13v8.24l12.19 7.08-.06-15.19z"/><path class="cls-5" d="M104.51 58v-2.33c0-1 .36-1.59 1.27-1.61s1.4.48 1.38 1.58V58h-2.66z"/><path class="cls-7" d="M117.07 58.93v-3.51a1.86 1.86 0 0 1 1.89-2 1.83 1.83 0 0 1 2 2v3.52h-3.85z"/><path class="cls-5" d="M111.15 58.14v-2.33c0-1 .34-1.59 1.18-1.61s1.31.56 1.29 1.58v2.34h-2.48zm6.32.05v-2.32c0-1 .33-1.59 1.12-1.61s1.22.56 1.2 1.58v2.34h-2.34zm6.01-.04v-2.22c0-1 .33-1.64 1-1.65s1.06.6 1.05 1.62v2.24h-2.1zm5.22.06v-2.17c0-1 .21-1.6.74-1.61s.72.58.71 1.57v2.2h-1.4zm4.01.01v-2.17c0-1 .07-1.51.41-1.51s.51.49.51 1.48v2.18h-.89zm3.13.12v-2.06a4.19 4.19 0 0 1 .09-1.43 4.33 4.33 0 0 1 .1 1.4v2.06h-.18z"/><path class="cls-5" d="M138.18 58.82L138.18 59.45 126.33 59.53 105.8 59.63 105.8 58.9 107.94 58.9 107.94 58.49 110.53 58.5 110.53 58.88 114.62 58.89 114.63 58.5 117.06 58.5 117.07 58.94 120.92 58.95 120.92 58.56 123.37 58.56 123.37 59.03 126.75 59.05 126.75 58.62 128.6 58.63 128.61 59.03 131.3 59.05 131.29 58.67 132.65 58.68 132.65 59.03 134.75 59.05 134.74 58.77 135.72 58.77 135.72 59.02 137.05 59.04 137.05 58.75 137.64 58.75 137.64 58.97 138.01 58.98 138.01 58.82 138.18 58.82 138.18 58.82z"/><path class="cls-2" d="M105.89 51.81c-11.36-.09-21.79 0-32.22.74v6.24h.14v-3c0-2.17.34-2.31.36-.28v3.25h.58v-2.89c.09-2.95 1.17-2.43 1.31-.27v3.16h1v-2.88c-.08-1.36.47-2.12.91-2.2s1.2.69 1.2 1.89v3.09h1.32v-3.1a1.9 1.9 0 0 1 1.06-1.95c.83-.22 1.59.5 1.64 1.92v3.07H85v-3.3a1.9 1.9 0 0 1 1.72-1.92 1.74 1.74 0 0 1 1.67 1.72v3.44h2.44v-3.27a1.91 1.91 0 0 1 3.82 0v3.26H97v-3.3c0-2.55 4.12-2.58 4.12.12v3.11h2.6v-3.11a2.06 2.06 0 0 1 2.14-2.07 2 2 0 0 1 2.07 2v3.19h2.59v-3.11c0-2.7 4-2.65 4.07-.13v3.27h2.45v-3.25a1.93 1.93 0 0 1 3.85 0v3.28h2.48v-3.42a1.73 1.73 0 0 1 1.67-1.72 1.89 1.89 0 0 1 1.72 1.92v3.31h1.83v-3.07c.05-1.41.81-2.13 1.63-1.91.52.14 1 .75 1.08 1.94v3.09h1.32v-3.09c0-1.19.66-2 1.2-1.88s1 .84.91 2.2v2.87h1v-3.16c.15-2.15 1.23-2.67 1.31.27v2.86h.59v-3.25c0-2 .39-1.89.37.28v3h.19v-6.23c-10.54-.61-21-.49-32.29-.74z"/><path class="cls-5" d="M100.45 58.12v-2.33c0-1-.34-1.59-1.18-1.61s-1.31.56-1.28 1.58v2.34h2.48zm-6.33.06v-2.33c0-1-.32-1.6-1.12-1.62s-1.23.56-1.21 1.58v2.34h2.33zm-6-.04v-2.23c0-1-.34-1.63-1-1.65s-1.12.6-1.12 1.62v2.24h2.09zm-5.22.06v-2.17c0-1-.21-1.6-.74-1.61s-.68.58-.67 1.58v2.18h1.41zm-4.01.01v-2.16c0-1-.07-1.5-.41-1.52S78 55 78 56v2.18h.89zm-3.13.11v-2.05a4.2 4.2 0 0 0-.08-1.43 4 4 0 0 0-.1 1.4v2.07h.18z"/><path class="cls-5" d="M73.62 58.8L73.61 59.43 85.38 59.51 105.8 59.62 105.8 58.89 103.71 58.89 103.71 58.48 101.09 58.48 101.09 58.87 97.03 58.88 97.03 58.48 94.59 58.48 94.59 58.92 90.77 58.94 90.77 58.55 88.33 58.55 88.33 59.02 84.96 59.04 84.96 58.6 83.13 58.62 83.12 59.02 80.44 59.03 80.45 58.66 79.1 58.66 79.1 59.02 77.01 59.03 77.02 58.76 76.04 58.75 76.04 59.01 74.72 59.02 74.72 58.74 74.14 58.73 74.14 58.95 73.77 58.96 73.77 58.81 73.62 58.8 73.62 58.8z"/><path class="cls-5" d="M139.51 52.61a4.67 4.67 0 0 1-1.33.24c-6.9-.69-21.59-.52-32.22-.71-10.45-.19-28.43.09-32.24.44a6 6 0 0 1-1.4-.15 6.68 6.68 0 0 1 1.45-.13c11-.45 20.73-.64 32.2-.46 10.35.11 22.41 0 32.22.68l1.32.1z"/><path class="cls-8" d="M106 51.83c-10.85.07-21.76-.05-32.29.46a6.77 6.77 0 0 0-1.39.12v-.89a3.33 3.33 0 0 1 1.39-.22c9.43-.46 21.11-.46 32.25-.51 11.63 0 23-.12 33.58.87v.94c-11-.81-22.23-.63-33.55-.78zm-33.72-.33a.78.78 0 0 1-.09-.57c10.2-.77 16.84-.5 33.75-.59 11.21.22 22.36-.11 33.66.95 0 .13 0 .26-.06.39-11.2-1-22.4-1-33.6-.88-10.89.2-26.17-.12-32.94.54a2.29 2.29 0 0 0-.71.16zm40-28.92l.09.08-.08.09v.42h-.14v.07l-.15.07v.1l-.05.05-.09.33v.69l.48.1v.22h-.32c0 .09-.05.15-.22.18v.14c.11 0 .07.26 0 .26v.22a.16.16 0 0 1 0 .26l.08.88.14 5.93h.1V33h.33v2.56l-3.82-.18h-5.37l-3.72.19v-2.38h.27v-.37h.09l.09-6.13.07-.71c-.11 0-.1-.26 0-.26v-.2c-.14 0-.13-.22 0-.22v-.22a.19.19 0 0 1-.23-.21h-.43v-.18l.46-.13v-.74l-.1-.38v-.11h-.12v-.09h-.17l-.06-.37-.14-.1v-.14l.15-.18L101 22l4.88-.32 4.94.32 1.39.3.05.26zm-10.6 10v-4.81a1 1 0 0 1 .66-1 .81.81 0 0 1 .6.86v4.83l-1.28.1zm8.32-1.15l-1.26-.43v-3.37a.78.78 0 0 1 .64-.89.94.94 0 0 1 .66.91v3.75zm-5.55-.83v-2.48a1.43 1.43 0 0 1 1.36-1.34 1.15 1.15 0 0 1 1.3 1.29v2.5l-1.31-.41-1.36.44z"/><path class="cls-5" d="M104.5 28.2v-.9a1.39 1.39 0 0 1 1.37-1.37 1.22 1.22 0 0 1 1.29 1.21 8.35 8.35 0 0 1 0 1 1.21 1.21 0 0 0-1.32-1.33 1.35 1.35 0 0 0-1.35 1.38z"/><path class="cls-9" d="M108.7 27.63a1.6 1.6 0 0 1 .49-1.48 1.44 1.44 0 0 1 .81 1.61 1 1 0 0 0-.71-1 .85.85 0 0 0-.59.85zm-5.7.05a1.55 1.55 0 0 0-.49-1.47c-.61.11-.78.85-.78 1.6.1-.54.24-1 .68-1a.86.86 0 0 1 .59.86z"/><path class="cls-8" d="M111.43 33.85l-1-.93h-.34l-.09-5.27c0-.88-.31-1.45-.8-1.5.63-.43 1.46.12 1.42 1.59v5.27h.79v.84zm-11 .07l.9-.94h.33V27.8c0-1 .3-1.54.78-1.59-.65-.45-1.4.19-1.42 1.58v5.33h-.61v.82z"/><path class="cls-5" d="M105.86 30.45L107.11 31.26 104.6 31.28 105.86 30.45 105.86 30.45z"/><path class="cls-8" d="M107.18 32.79h-2.7v-5.28a1.43 1.43 0 0 1 1.35-1.6c.72 0 1.37.39 1.32 1.69v5.18zm-2.68-1.38h2.67v1h-2.67v-1z"/><path class="cls-7" d="M102.94 31.08L101.65 31.48 102.94 31.08 102.94 31.08z"/><path class="cls-8" d="M110.05 32.89L109.38 32.85 108.78 32.8 108.78 32.43 108.75 32.42 108.74 31.47 110.04 31.56 110.05 32.89 110.05 32.89z"/><path class="cls-7" d="M108.73 31.03L110.04 31.43 110.04 31.56 108.74 31.47 108.73 31.03 108.73 31.03z"/><path class="cls-8" d="M108.75 32.4L110.05 32.49 110.05 32.9"/><path class="cls-8" d="M102.82 23.09v1.19h-.25v.21l.32.11a.25.25 0 0 0 .21.18V25a.1.1 0 0 0 0 .19v.18c-.12 0-.13.27 0 .27l-.05 1-.05 5.82h-.09v.33l-.71.07v.92l-1.81.11m2.73 1.49v-2.6"/><path class="cls-5" d="M111.28 23.28l.62.07-.12.12a.94.94 0 0 1-.5-.18z"/><path class="cls-8" d="M108.78 23.07L108.78 24.24"/><path class="cls-10" d="M107.64 24.22L109.03 24.24 109.02 24.42 107.64 24.41 107.64 24.22 107.64 24.22z"/><path class="cls-8" d="M107.19 24.34v.17h.2a.23.23 0 0 0 .2.22v.14c-.11 0-.09.23 0 .24v.21c-.1 0-.11.22 0 .24v6.83h-.09v.31h-.28v.87m-2.77-9.27v.17h-.16a.21.21 0 0 1-.22.24V25a.1.1 0 0 1 0 .19v.18a.17.17 0 0 1 0 .28l.06 1v5.83l.09.05v.29h.3v.82h2.69m3.59-8.86a.19.19 0 0 0 .16.21v.15a.14.14 0 0 0 0 .26v.2c-.1 0-.11.24 0 .25v6.82h-.08V33M101 24.65v.16a.41.41 0 0 1-.11 0 .18.18 0 0 1-.19.21v.18c.1 0 .1.21 0 .22v.2c.1 0 .09.26 0 .25v6.83l.07.06v.31m8.23-8.65l-.3.1a.19.19 0 0 1-.2.22v.16a.12.12 0 0 1 0 .22v.22c.11 0 .1.24 0 .25l.06 1 .11 5.84h.13v.37h-1.61"/><path class="cls-10" d="M102.56 24.28L104.01 24.25 104.01 24.46 102.57 24.49 102.56 24.28 102.56 24.28z"/><path class="cls-7" d="M104 24.25l.4.11v.18l-.4-.08v-.21zm3.63 0v.19l-.46.1v-.19l.46-.14z"/><path class="cls-10" d="M107.58 23.03L107.58 24.22 107.35 24.29 107.35 23.21 107.58 23.03 107.58 23.03z"/><path class="cls-5" d="M104.01 23.05L107.59 23.01 107.34 23.23 104.24 23.25 104.01 23.05 104.01 23.05z"/><path class="cls-10" d="M104.03 23.08L104.24 23.25 104.26 24.32 104.04 24.25 104.03 23.08 104.03 23.08z"/><path class="cls-11" d="M111.29 23.3L111.28 24.49 110.83 24.52 110.84 23.41 111.29 23.3 111.29 23.3z"/><path class="cls-5" d="M111.33 23.29L110.84 23.42 108.78 23.18 108.78 23.03 111.33 23.29 111.33 23.29z"/><path class="cls-12" d="M100.78 24.61L100.34 24.57 100.33 23.38 100.77 23.48 100.78 24.61 100.78 24.61z"/><path class="cls-5" d="M100.33 23.37L102.82 23.09 102.82 23.27 100.78 23.49 100.33 23.37 100.33 23.37z"/><path class="cls-5" d="M100.33 23.38a.85.85 0 0 1-.47.12l-.12-.06.58-.06zm2.47-.28l.45-.05h.75a2.4 2.4 0 0 1-1.23 0zm4.79-.1h1.19a3.39 3.39 0 0 1-1.18 0zm-.4 1.52l.45-.11H109l-.31.11a2.6 2.6 0 0 0-1.34 0h-.2z"/><path class="cls-10" d="M111.67 24.48L111.67 24.69 110.63 24.73 110.62 24.54 111.67 24.48 111.67 24.48z"/><path class="cls-7" d="M111.67 24.48L112.25 24.61 112.25 24.78 111.67 24.69 111.67 24.48 111.67 24.48z"/><path class="cls-5" d="M110.62 24.74h1l.58.1h-.31a2.24 2.24 0 0 0-1.17-.06h-.14zm-8.06-.25H104l.41.08h-.17a2.7 2.7 0 0 0-1.36 0l-.32-.1z"/><path class="cls-8" d="M104.41 24.47L107.19 24.45"/><path class="cls-10" d="M99.96 24.54L101.01 24.63 101.01 24.81 99.95 24.75 99.96 24.54 99.96 24.54z"/><path class="cls-7" d="M100 24.54v.22l-.55.12v-.19l.56-.15zm-.1-1.05v.31"/><path class="cls-8" d="M101.01 24.74L102.8 24.57"/><path class="cls-5" d="M99.4 24.88l.55-.12 1.05.06-.13.05a2.37 2.37 0 0 0-1.18 0h-.3z"/><path class="cls-8" d="M108.35 23v-.35h.07V22m-5.24 1v-.92"/><path class="cls-7" d="M111.78 23.47L111.78 23.82"/><path class="cls-13" d="M99.27 22.56L103.15 22.11 108.47 22.11 112.26 22.49"/><path class="cls-8" d="M108.51 32.78v2.66m.88-2.58v.9l2 .1m-8.48-1h1.25m-3.77.29l-1 .09m12.9-.14l-.86-.1m-4.36.86h-2.37v1.21h2.37v-1.2zm2.48.05l1.75.09v1.19l-1.75-.09v-1.18z"/><path class="cls-8" d="M101.31 32.99L102.24 32.94"/><path class="cls-5" d="M107.17 30.69L107.17 31.05 106.01 30.31 107.17 30.69 107.17 30.69z"/><path class="cls-5" d="M104.49 31.05L104.49 30.73 105.74 30.3 104.49 31.05 104.49 31.05z"/><path class="cls-7" d="M102.94 31.51l-1.27.09m.56-.17l-.56.06m8.09-.06h.26"/><path class="cls-8" d="M102.94 31.46L101.67 31.57"/><path class="cls-8" d="M102.94 31.13L101.78 31.49"/><path class="cls-7" d="M108.74 31.07L110.02 31.47"/><path class="cls-5" d="M99.75 23.44L99.85 23.49 99.85 23.8 99.75 23.44 99.75 23.44z"/><path class="cls-5" d="M111.92 23.34L111.92 23.44 111.86 23.49 111.78 23.82 111.78 23.47 111.92 23.34 111.92 23.34z"/><path class="cls-2" d="M141.86 65.53v.31a1 1 0 0 0-.25.66v.78m-70.65 0v.18c.39 0 .19.59.44.56v.13a.46.46 0 0 1 .36.54c-.23 0-.36 0-.36.09s.06.08.13.09.15.16 0 .17m-1.74-3.52v.2h.06v.11a1 1 0 0 1 .25.66v.77"/><path class="cls-12" d="M105.89 77.24c-2.58 0-10.4.57-12.29 5.65h-1.38c-.89 2-4 2.92-7.87 3v-.69h-.15v-.25c4.11-.09 7-.73 7.25-2.92h1.43c1.71-4.05 7.68-5.6 13-5.65s11.32 1.6 13 5.65h1.42c.27 2.2 3.15 2.83 7.25 2.92v.22h-.15v.67c-3.91 0-7-.93-7.87-3h-1.39c-1.88-5.09-9.71-5.66-12.29-5.66z"/><path class="cls-14" d="M84.36 85.31c4.07-.09 6.92-.76 7.33-3h1.4c1.9-4.93 10.09-5.7 12.81-5.64s10.92.71 12.82 5.64h1.4c.41 2.19 3.24 2.87 7.32 3m-43 .59c0 .09.09.18.11.38h.17c3.55-.09 6.81-1 7.68-3h1.4c1.44-4.47 7.94-5.7 12.09-5.68s10.65 1.22 12.09 5.68h1.4c.87 2 4 2.88 7.6 3h.26a3.21 3.21 0 0 1 .1-.39"/><path class="cls-6" d="M54.35 136.4a25.72 25.72 0 0 0 .51 3.68 7.33 7.33 0 0 0 4.14 1.16c2.94 0 5.17-1.88 5.17-4.29 0-1.59-.79-2.79-2.47-3.8l-2.47-1.49a3.37 3.37 0 0 1-1.85-2.73 2.56 2.56 0 0 1 2.62-2.62c1.68 0 2.72 1.22 3 3.62h.39c0-1.19.11-2.28.23-3.25a6.58 6.58 0 0 0-3.42-.94c-2.81 0-4.76 1.83-4.76 4.15 0 1.56.87 2.79 2.67 3.85l1.71 1a3.71 3.71 0 0 1 2.18 3.19 2.67 2.67 0 0 1-2.85 2.62c-2.11 0-3.66-1.43-4.42-4.17h-.39zm27.65.02v-9.67h1.59c2.38 0 3.55.75 4.06 2.81l.34-.06-.36-4.15h-.19l-.7.68H75.16l-.63-.68h-.27l-.41 4.1.37.06c.57-2.17 1.72-2.77 4.24-2.77h1.47v9.67c0 1.7-.06 2.72-.57 3.21a4.42 4.42 0 0 1-2.34.87v.37c1.32 0 2.61-.06 3.94-.06s2.62 0 3.91.06v-.37a4.34 4.34 0 0 1-2.32-.87c-.55-.47-.55-1.49-.55-3.2zm14.65 4.46c.9 0 1.86-.06 2.84-.06s2.06 0 3.15.06v-.37c-1.64 0-2.43-.44-2.43-1.36a12.46 12.46 0 0 1 .81-3.26l.41-1.21h5l1.13 3.14a4.93 4.93 0 0 1 .31 1.45c0 .64-.6 1.15-1.7 1.23v.37c1.07 0 2.13-.06 3.17-.06s2.13 0 3.17.06v-.37c-1.62-.07-2.15-.9-2.81-2.66l-4.7-12.7a3.13 3.13 0 0 1-1.51 1.16l.09.42-2.43 6.43c-1.41 3.74-2.17 5.93-2.68 6.51a3 3 0 0 1-1.86.83v.37zm5.11-7.12l2.13-5.9 2.21 5.9h-4.34zm27.15 2.66v-9.67h1.59c2.39 0 3.55.75 4.07 2.81l.34-.06-.36-4.15h-.16l-.71.68h-11.57l-.64-.68h-.27l-.41 4.1.37.06c.58-2.17 1.73-2.77 4.24-2.77h1.47v9.67c0 1.7-.07 2.72-.57 3.21a4.46 4.46 0 0 1-2.35.87v.37c1.32 0 2.61-.06 3.93-.06s2.62 0 3.92.06v-.37a4.32 4.32 0 0 1-2.32-.87c-.51-.49-.57-1.51-.57-3.21zm15.09 4.46h5c2.81 0 5.2 0 7.19.07a15.6 15.6 0 0 0 .81-4.37h-.33c-.5 2.59-1.88 3.79-4.39 3.79-2.92 0-3.47-.66-3.47-2.83v-3.79H151c2.12 0 3 .41 3.19 2h.32v-1.24c0-1.34 0-2.57.09-3.77h-.34c-.28 1.72-1.17 2.07-3.28 2.07h-2.15v-6.13h2.8c2.51 0 3.49.6 3.64 2.79h.31c.06-1.1.15-2.25.3-3.38H144.26v.38c2.24.09 2.58.9 2.58 3v8.15c0 2-.25 2.64-2.81 3v.37z"/><path class="cls-15" d="M105.85 50.36c-11.57.22-26.08-.4-33.63.55l-.36-.24-.18-.35c.1-.06.11.1.2.1s.08-.09.12-.1a.65.65 0 0 1 .18.1.74.74 0 0 1 .14-.17c.11 0 .08.16.18.15s0-.2.13-.22a2.44 2.44 0 0 1 .25.18c.09 0 0-.21.13-.22s.13.21.23.19a1.25 1.25 0 0 1 .1-.21 2.09 2.09 0 0 0 .28.19c.13 0 0-.24.14-.25a1.53 1.53 0 0 1 .3.22.68.68 0 0 1 .2-.22c.14 0 .08.21.22.21s0-.28.3-.26a1.84 1.84 0 0 0 .22.23.94.94 0 0 1 .24-.24c.15 0 .21.3.35.29s0-.3.26-.26a1.19 1.19 0 0 0 .34.22c.14 0 0-.21.25-.22s.14.22.29.22a1.79 1.79 0 0 1 .35-.25c.18 0 .23.26.42.26a.62.62 0 0 1 .33-.26 4.53 4.53 0 0 0 .38.26c.25 0 .08-.39.32-.4a1.75 1.75 0 0 0 .48.3 2.3 2.3 0 0 0 .3-.34 1.16 1.16 0 0 0 .52.24 1.13 1.13 0 0 1 .36-.27c.2 0 .25.32.45.31a2.23 2.23 0 0 1 .4-.26 3.65 3.65 0 0 0 .5.25 1.33 1.33 0 0 1 .4-.23 3.37 3.37 0 0 0 .51.22 3.32 3.32 0 0 1 .4-.3 3.89 3.89 0 0 0 .55.31 2.13 2.13 0 0 1 .5-.33 3.53 3.53 0 0 0 .55.32 2.72 2.72 0 0 1 .45-.31c.27 0 .29.32.55.32a1.85 1.85 0 0 1 .47-.35 1.92 1.92 0 0 0 .61.31 1.67 1.67 0 0 1 .47-.32c.29 0 .25.34.59.36a2.52 2.52 0 0 1 .41-.33c.25 0 .32.28.51.29a2.93 2.93 0 0 0 .56-.35 6.12 6.12 0 0 1 .62.31 1.94 1.94 0 0 0 .55-.26c.34 0 .29.26.62.26a3.45 3.45 0 0 1 .53-.26A3.34 3.34 0 0 0 92 50a3.94 3.94 0 0 1 .55-.34 2.37 2.37 0 0 0 .58.32c.21 0 .35-.28.56-.28a5 5 0 0 0 .71.3 4.86 4.86 0 0 1 .6-.28c.3 0 .34.32.62.32s.32-.33.66-.34.32.3.55.3a2.9 2.9 0 0 1 .65-.31 2.54 2.54 0 0 0 .63.29c.41 0 .24-.36.64-.35s.31.37.61.37.3-.32.6-.31a6.27 6.27 0 0 0 .63.29c.32 0 .33-.34.66-.34s.31.29.67.3.31-.32.62-.31.32.28.61.3c.45 0 .3-.36.73-.33s.34.32.61.31.3-.35.67-.34.28.33.63.32.28-.31.65-.32.26.33.66.34.29-.29.6-.31.29.35.74.33a5.6 5.6 0 0 1 .61-.3c.31 0 .32.32.61.31s.31-.29.67-.3.36.36.67.36a6.32 6.32 0 0 0 .63-.29c.3 0 .28.32.61.31s.27-.33.6-.34.24.34.64.35a2.59 2.59 0 0 0 .63-.29 2.92 2.92 0 0 1 .65.31c.24 0 .34-.32.6-.31s.36.26.64.26.32-.3.61-.32a3.33 3.33 0 0 1 .55.31 5.6 5.6 0 0 0 .72-.3c.2 0 .35.29.56.28a2.39 2.39 0 0 0 .58-.32 4 4 0 0 1 .55.34 3.41 3.41 0 0 0 .62-.28 3.71 3.71 0 0 1 .54.26c.33 0 .28-.27.62-.26a1.87 1.87 0 0 0 .55.26 6.83 6.83 0 0 1 .62-.31 2.89 2.89 0 0 0 .56.35c.19 0 .26-.27.51-.29a2.4 2.4 0 0 1 .45.32c.34 0 .31-.36.59-.36a1.69 1.69 0 0 1 .44.31 2.08 2.08 0 0 0 .61-.31 1.93 1.93 0 0 1 .46.35c.26 0 .28-.31.55-.32a2.94 2.94 0 0 1 .45.31 3.51 3.51 0 0 0 .56-.32 2 2 0 0 1 .49.33 4 4 0 0 0 .56-.31 3.24 3.24 0 0 1 .39.3 3.58 3.58 0 0 0 .52-.22 1.31 1.31 0 0 1 .39.31 4.59 4.59 0 0 0 .58-.29 2.34 2.34 0 0 1 .33.36c.2 0 .25-.32.45-.31a1.42 1.42 0 0 1 .36.36 1.05 1.05 0 0 0 .53-.34 2.07 2.07 0 0 0 .3.34 1.61 1.61 0 0 0 .48-.29c.24 0 .07.36.31.4a3.32 3.32 0 0 0 .38-.26c.28 0 .1.3.23.3s.27-.3.45-.3a1.1 1.1 0 0 1 .24.3c.15 0 .24-.26.4-.25s.12.33.27.33a2 2 0 0 0 .39-.24c.27 0 .1.3.23.3s.17-.3.32-.31a1 1 0 0 1 .23.29 2.34 2.34 0 0 0 .27-.26c.26 0 .1.31.24.31s.14-.25.28-.26 0 .27.12.26a2.26 2.26 0 0 1 .38-.25c.13 0 0 .26.09.28a2.67 2.67 0 0 0 .33-.22 1.92 1.92 0 0 1 .06.24c.09 0 .17-.23.27-.22s0 .25.09.25a3.23 3.23 0 0 1 .28-.22c.1 0 0 .28.06.3s.14-.23.25-.22a1.27 1.27 0 0 1 .1.23 1.06 1.06 0 0 0 .23-.13 1.67 1.67 0 0 1 .08.15.38.38 0 0 1 .24-.07c.09.06-.1.19-.12.28s0 .31-.17.29c-11.4-1.1-22.5-.63-33.77-.93z"/><path class="cls-16" d="M77.84 89.46c.14 0 .09.34.22.34h6.54a1.63 1.63 0 0 0 .17-.34"/><path class="cls-14" d="M84.77 88.77h-6.93v.69h6.92v-.69zm-6.92.69c.14 0 .09.34.22.34h6.53a1.63 1.63 0 0 0 .17-.34m-.02-3.32v2.27M127 86.14v2.32"/><path class="cls-17" d="M50.19 121.98L162.32 121.98"/><path class="cls-2" d="M105.85 84.57l1.15 1.88a1.33 1.33 0 0 1 2.11.85h2.45l-1.37 2.13a1.41 1.41 0 0 1-.07 2.51l1.15 1.92h-2.35a1.45 1.45 0 0 1-2 1.38l-1.11 1.91-1.16-2.08a1.66 1.66 0 0 1-2.09-1.19h-2.32l1.31-1.88a1.56 1.56 0 0 1 0-2.39l-1.35-2.31h2.65a1.21 1.21 0 0 1 1.94-.94l1.07-1.79z"/><path class="cls-18" d="M105.85 85.2l1.05 1.7a1.17 1.17 0 0 1 1.86.79h2.13l-1.27 1.92a1.2 1.2 0 0 1 0 2.18l1 1.67h-2a1.25 1.25 0 0 1-1.73 1.22l-1 1.6-1-1.75a1.34 1.34 0 0 1-1.83-1h-2l1-1.7a1.33 1.33 0 0 1 0-2.08l-1.19-2 2.27-.07a1.08 1.08 0 0 1 1.73-.84l1-1.62z"/><path class="cls-18" d="M105.86 86.89l.73 1.19a.84.84 0 0 1 1.33.53h1.55l-.86 1.39a.89.89 0 0 1 0 1.58l.72 1.21h-1.47a.92.92 0 0 1-1.25.87l-.71 1.2-.73-1.32a1 1 0 0 1-1.31-.75h-1.46l.79-1.23a1 1 0 0 1 0-1.5l-.83-1.43H104a.76.76 0 0 1 1.22-.59l.68-1.13z"/><path class="cls-19" d="M77.69 88.4h6.91v-1h-.94V84l-.66-.43c0-.65-.83-1.08-.83-.51l-1-.55c0-.52-.92-1.17-1-.56l-.94-.54c0-.53-1-1.2-.92-.52l-.92-.57c0-.73-.92-1.08-.89-.48l-.87-.53c0-1-.87-1.3-.87-.52l-.76-.44c0-1-.93-1.16-.92-.55l-1-.62c0-.63-.89-.88-.87-.31h-1a.46.46 0 0 0-.92 0h-1a.45.45 0 0 0-.89 0H67v-3.39h-.61c-.1-.42-.68-.45-.71 0h-1.74a.32.32 0 1 0-.63 0h-1.76a.34.34 0 0 0-.68 0h-1.84a.31.31 0 1 0-.62 0H56.7a.34.34 0 0 0-.69 0h-.81v15.41h22.49z"/><path class="cls-20" d="M102.17 33.99L100.42 34.11 100.42 35.3 102.17 35.21 102.17 33.99 102.17 33.99z"/><path class="cls-21" d="M84.91 88.44L77.7 88.44 77.7 88.66 84.91 88.66 84.91 88.44 84.91 88.44z"/><path class="cls-1" d="M107.44 17a4.4 4.4 0 0 1 .73.15v.08a6.92 6.92 0 0 1 1.1.44l-.07.1a11 11 0 0 1 1.21.83l-.09.12a8.11 8.11 0 0 1 1 1l-.09.09a6.85 6.85 0 0 1 .81 1.22l-.14.11a5.08 5.08 0 0 1 .44 1.31c0-.17-.13 0-.21 0a.87.87 0 0 0-.18-.13 2 2 0 0 0-.35.07 1.81 1.81 0 0 1-.26-.16c-.16 0-.27.08-.43.08a1.38 1.38 0 0 1-.21-.17 4.28 4.28 0 0 0-.47.09 1.57 1.57 0 0 0-.39-.2 3.92 3.92 0 0 0-.47.09c-.33 0-.09-.16-.47-.16a5.16 5.16 0 0 1-.75.13 2.89 2.89 0 0 1-.58-.18c-.38 0-.25.15-.57.15s-.16-.11-.44-.12c-.48 0-.09.17-.67.18-.29 0-.28-.21-.62-.19a4.4 4.4 0 0 1-.54.18c-.32 0-.18-.13-.56-.13a3.67 3.67 0 0 1-.68.17c-.25 0-.27-.12-.51-.12a4.29 4.29 0 0 1-.43.19 4.25 4.25 0 0 0-.51-.15 1.43 1.43 0 0 1-.53.21 4.56 4.56 0 0 0-.5-.12 1.1 1.1 0 0 1-.37.2 2.58 2.58 0 0 0-.38-.12 3.84 3.84 0 0 1-.34.2c-.11 0-.15-.1-.3-.09a1 1 0 0 0-.15.13c-.05 0-.1-.1-.17 0s-.08.16-.13 0a13.23 13.23 0 0 1 .55-1.23l-.11-.09a7.91 7.91 0 0 1 .76-1.23l-.09-.1 1-1-.07-.12a9.2 9.2 0 0 1 1.16-.8v-.14c.31-.14.85-.34 1.18-.46v-.1l.8-.2a9.35 9.35 0 0 1 3.12 0z"/><path class="cls-3" d="M105.78 14.07a.66.66 0 0 1 .56 1c-.24.28-.23.49 0 .51.11 0 .07.08 0 .14s.08.1 0 .17 0 .08 0 .11c0 .47.62.66 1.1.88V17a11.09 11.09 0 0 0-1.66-.14 8.42 8.42 0 0 0-1.44.14v-.07a1.14 1.14 0 0 0 .95-.88c-.07 0 0-.07 0-.11v-.17c0-.03-.12-.11 0-.14.27 0 .24-.23 0-.51a.66.66 0 0 1 .55-1z"/><path class="cls-5" d="M105.78 14.07a.66.66 0 0 1 .56 1c-.24.28-.23.49 0 .51.11 0 .07.08 0 .14s.08.1 0 .17 0 .08 0 .11c0 .47.62.66 1.1.88V17a11.09 11.09 0 0 0-1.66-.14 8.42 8.42 0 0 0-1.44.14v-.07a1.14 1.14 0 0 0 .95-.88c-.07 0 0-.07 0-.11v-.17c0-.03-.12-.11 0-.14.27 0 .24-.23 0-.51a.66.66 0 0 1 .55-1z"/><path class="cls-9" d="M73.62 59.43L73.62 59.69 69 60.02 69.02 60.96 66.79 61.3 66.77 61.84 144.7 61.82 144.7 61.33 142.6 60.97 142.6 60.03 138.18 59.69 138.18 59.43 73.62 59.43 73.62 59.43z"/><path class="cls-2" d="M140.12 61.79h4.62v3.56h-4.64v-3.56zm0 0h-12.36v3.56h12.34v-3.56zM128 69.2l12.13-.13v8.24l-12.2 7.08.07-15.19zm-44.45 0H128"/><path class="cls-19" d="M133.91 88.73v-.33h-6.66v-1h.63V84l.69-.41c0-.65.83-1.09.83-.51l1-.55c0-.52.92-1.17 1-.56l.93-.54c0-.53 1-1.2.92-.52l.93-.57c0-.73.92-1.09.89-.48l.87-.52c0-1 .87-1.3.87-.53l.81-.44c0-1 .93-1.15.92-.54l1-.63c0-.62.88-.87.86-.31h1a.46.46 0 0 1 .92 0h1a.45.45 0 0 1 .89 0h.47v-3.43h.62a.35.35 0 0 1 .7 0h1.71a.32.32 0 1 1 .64 0H150a.34.34 0 0 1 .69 0h1.85a.31.31 0 1 1 .62 0h1.71a.34.34 0 0 1 .69 0h1.18v15.28h-22.83z"/><path class="cls-22" d="M105.87 87.29l.66 1.06a.7.7 0 0 1 1.19.49h1.39l-.77 1.16a.8.8 0 0 1 0 1.42l.66 1.13h-1.33a.77.77 0 0 1-1.12.78l-.63 1.08-.66-1.18a.82.82 0 0 1-1.19-.68h-1.31l.71-1.11a.8.8 0 0 1 0-1.35l-.74-1.28h1.5c-.08-.69.59-.86 1.09-.53l.62-1z"/><path class="cls-18" d="M105.85 84.58v3.31m-5.65-.59l2.87 1.82m-2.78 4.78l2.55-1.36m1.92-6.16l.47 2m-2.42-1l1.34 1.59m2.85-2.52l-.5 1.93m2.6-1.08l-1.42 1.56m2.52.57l-1.9.63m1.83 1.89l-1.86-.48m3 2.39l-2.52-1.4m.19 1.4l-1.39-1.35m-1.07.8l.52 1.91m-1.1-1.12v3m-.64-3.9l-.52 1.82m-.74-2.46l-1.42 1.29m.83-2.39l-1.9.49m2-1.82l-2-.57m10.06-2.27l-2.64 1.63"/><path class="cls-21" d="M126.61 88.48L133.82 88.48 133.82 88.7 126.61 88.7 126.61 88.48 126.61 88.48z"/><path class="cls-14" d="M126.75 88.81h6.92v.69h-6.92v-.69zm6.92.69c-.14 0-.08.34-.21.34h-6.54a1.37 1.37 0 0 1-.17-.34"/><path class="cls-23" d="M55.16 88.89V41c0-24.08 27-39.8 50.68-40.13s50.91 16 50.91 40.13v47.89"/><path class="cls-1" d="M54.53 145.32h102.53v13.87H54.53v-13.87zm3.47 4.63c0-1.12-.07-1.19-.61-1.3l-.3-.06a.29.29 0 0 1 0-.42H60.62a.35.35 0 0 1 0 .42h-.29c-.55.09-.61.19-.61 1.32v2.79c0 1.41.16 3 2 3 1.55 0 2-1.36 2-3v-1.46a8.35 8.35 0 0 0-.18-2.21.83.83 0 0 0-.7-.39l-.33-.06a.37.37 0 0 1 0-.42h2.96a.37.37 0 0 1 0 .42h-.22a.82.82 0 0 0-.65.4 8.81 8.81 0 0 0-.18 2.21v1.35a4.18 4.18 0 0 1-.77 2.91 3.24 3.24 0 0 1-2.39.87 3.65 3.65 0 0 1-2.39-.68A3.36 3.36 0 0 1 58 153v-3zm18.39 4.18v1.94a1 1 0 0 1-.72.28s-.41-.62-1-1.32L72 151.57a17.41 17.41 0 0 0-1.33-1.57 2.18 2.18 0 0 0-.06.78v2.34a8.46 8.46 0 0 0 .18 2.21.81.81 0 0 0 .7.39h.34a.39.39 0 0 1 0 .42h-2.97a.37.37 0 0 1 0-.42h.21a.75.75 0 0 0 .66-.41 8.18 8.18 0 0 0 .17-2.21v-3.07a2.76 2.76 0 0 0-.09-1 .77.77 0 0 0-.69-.41l-.34-.05a.32.32 0 0 1 .05-.42h2.66a10.35 10.35 0 0 0 2 2.76l1 1.2c.53.63.88 1.05 1.16 1.33a1.77 1.77 0 0 0 0-.55v-1.66a8.51 8.51 0 0 0-.18-2.21.8.8 0 0 0-.7-.39l-.33-.05a.38.38 0 0 1 0-.42h2.97a.38.38 0 0 1 0 .42h-.22a.75.75 0 0 0-.66.4 8.53 8.53 0 0 0-.18 2.21v2.89zm7.16.28c0 1.14.07 1.22.63 1.31l.33.06a.34.34 0 0 1 0 .42H80.86a.36.36 0 0 1 0-.42l.34-.06c.55-.09.63-.17.63-1.31V150c0-1.14-.08-1.21-.63-1.31l-.34-.06a.36.36 0 0 1 0-.42h3.66a.33.33 0 0 1 0 .42l-.33.06c-.56.1-.63.18-.63 1.31v4.44zm9.76-1.23c-.62 1.46-.95 2.41-1.22 3.09a.81.81 0 0 1-.43.1.52.52 0 0 1-.33-.1c-.13-.32-.33-1-.5-1.37l-2-4.92c-.46-1.16-.52-1.18-.91-1.28l-.48-.12a.31.31 0 0 1 .05-.42h3.46a.37.37 0 0 1 0 .42l-.36.07c-.21.05-.3.12-.3.23a10.56 10.56 0 0 0 .47 1.33l1.07 2.72c.17.44.29.72.38.93.1-.21.24-.53.39-.9l.44-1.13c.31-.77.81-2.12 1-2.52a1.47 1.47 0 0 0 .12-.44c0-.08 0-.13-.32-.2l-.35-.08a.29.29 0 0 1 0-.42H96.1a.34.34 0 0 1 0 .42l-.31.06a.84.84 0 0 0-.67.42 12.81 12.81 0 0 0-1 2zm8.27-1.84c0 .34 0 .36.34.36h.83c.63 0 .78-.08.89-.67l.06-.3a.35.35 0 0 1 .44 0v2.56a.35.35 0 0 1-.44 0l-.06-.31c-.12-.58-.26-.68-.89-.68H102c-.33 0-.34 0-.34.38v1.43a2.2 2.2 0 0 0 .2 1.15c.16.22.38.32 1.26.32 1.05 0 1.46 0 2.13-1.4a.29.29 0 0 1 .44.06 6.67 6.67 0 0 1-.5 1.93H98.73a.34.34 0 0 1 0-.42l.56-.08c.55-.09.62-.16.62-1.28v-4.5c0-1.1-.07-1.17-.62-1.28l-.3-.06a.3.3 0 0 1 0-.42h5.92c0 .19.1 1.06.16 1.87a.31.31 0 0 1-.44 0 2.92 2.92 0 0 0-.46-1 1.58 1.58 0 0 0-1.18-.37h-1c-.4 0-.4 0-.4.47v2.11zm8.33-1.18c0-1.21 0-1.34-.53-1.41h-.33a.28.28 0 0 1 0-.43c.91-.06 1.85-.11 3-.11a5.12 5.12 0 0 1 2.36.43 2 2 0 0 1 1.06 1.8 2 2 0 0 1-1.28 1.81c-.12.05-.12.13-.06.26a9.81 9.81 0 0 0 1.88 3 1.47 1.47 0 0 0 .8.34.22.22 0 0 1 0 .31 2.86 2.86 0 0 1-1 .11 2.45 2.45 0 0 1-2.34-1.27 13.69 13.69 0 0 1-.95-1.87.61.61 0 0 0-.64-.42c-.43 0-.44 0-.44.26v1.48c0 1.12.07 1.2.61 1.29l.33.06a.41.41 0 0 1 0 .42h-3.54a.34.34 0 0 1 0-.42l.32-.06c.54-.09.62-.17.62-1.29v-4.27zm1.66 1.53c0 .43 0 .46.75.46a1.13 1.13 0 0 0 .92-.34 1.73 1.73 0 0 0 .44-1.3 1.6 1.6 0 0 0-1.58-1.8c-.5 0-.52 0-.52.62v2.35zm10.6 4.68a4.17 4.17 0 0 1-2.05-.46 3.91 3.91 0 0 1-.39-2 .3.3 0 0 1 .46 0 2.59 2.59 0 0 0 2.08 1.9 1.21 1.21 0 0 0 1.31-1.22 2.42 2.42 0 0 0-1.65-1.92 2.79 2.79 0 0 1-1.82-2.36c0-1.37 1-2.31 2.8-2.31a4.93 4.93 0 0 1 1.38.19l.41.1a5.72 5.72 0 0 1 .3 1.71.33.33 0 0 1-.47 0 1.94 1.94 0 0 0-1.6-1.5 1.12 1.12 0 0 0-1.23 1.12 1.76 1.76 0 0 0 1.1 1.37l.8.43a2.76 2.76 0 0 1 1.71 2.43c-.04 1.56-1.31 2.52-3.09 2.52zm9.4-2c0 1.14.07 1.22.63 1.31l.33.06a.35.35 0 0 1 0 .42H128.88a.34.34 0 0 1 0-.42l.33-.06c.56-.09.63-.17.63-1.31V150c0-1.14-.07-1.21-.63-1.31l-.33-.06a.33.33 0 0 1 0-.42H132.53a.33.33 0 0 1 0 .42l-.33.06c-.56.1-.63.18-.63 1.31v4.44zm7.35-5.3c0-.29 0-.35-.29-.35h-.75c-.88 0-1.14.49-1.5 1.36a.34.34 0 0 1-.38-.08 14.73 14.73 0 0 0 .4-2.05.29.29 0 0 1 .16-.06.27.27 0 0 1 .17.05c.05.21.1.25 1 .25h4.49c.8 0 1 0 1.09-.26a.25.25 0 0 1 .15 0 .29.29 0 0 1 .18.08 8.45 8.45 0 0 0-.18 2.08.37.37 0 0 1-.44 0c-.21-.78-.37-1.34-1.29-1.34H141c-.3 0-.33 0-.33.35v5.32c0 1.12.07 1.22.62 1.29l.49.06a.39.39 0 0 1 0 .42h-3.99a.34.34 0 0 1 0-.42l.54-.06c.55-.06.62-.17.62-1.29v-5.32zm12.25 5.32c0 1.12.08 1.22.62 1.29l.48.06a.39.39 0 0 1 0 .42h-3.9a.36.36 0 0 1 0-.42l.42-.06c.54-.08.61-.17.61-1.29v-.6a2.46 2.46 0 0 0-.33-1.44l-1.43-3a1 1 0 0 0-.77-.76l-.41-.07a.27.27 0 0 1 0-.42H149.93a.32.32 0 0 1 0 .42l-.41.1a.46.46 0 0 0-.29.11 3 3 0 0 0 .31.84l.57 1.29c.18.4.41.88.55 1.18.35-.59.69-1.3 1-1.91a5.22 5.22 0 0 0 .63-1.4c0-.07-.12-.12-.41-.17l-.27-.05a.31.31 0 0 1 0-.42H154.14a.3.3 0 0 1 .05.42l-.32.06a.94.94 0 0 0-.58.29 12.39 12.39 0 0 0-1.06 1.72l-.57 1.42a2.69 2.69 0 0 0-.44 1.56v.84z"/><path class="cls-24" d="M158.92 156.47h-1v-.37h2.34v.37h-1v2.68h-.41v-2.68zm2.13 2.68h-.38v-3.05h.59l.75 2.33.08.25a1.43 1.43 0 0 1 .06-.25l.79-2.33h.59v3.05h-.4v-2.6a1.75 1.75 0 0 1-.07.27l-.78 2.33h-.39l-.77-2.33c0-.08 0-.17-.06-.27v2.6z"/></svg>