<svg id="Layer_1" data-name="Layer 1" xmlns="http://www.w3.org/2000/svg" viewBox="0 0 92.08 71"><defs><style>.cls-1,.cls-3{stroke:#000;stroke-miterlimit:2.61;}.cls-1,.cls-3,.cls-4{fill-rule:evenodd;}.cls-2{fill:#c00;stroke:#fff;stroke-miterlimit:2.61;stroke-width:0.83px;}.cls-3,.cls-4{fill:#fff;}</style></defs><title>valdosta-state-university_icon</title><path class="cls-1" d="M2.76.5H42.94V12.84H35.39l12,32.36L60,12.84H50.9V.5H90V12.84H81.44L56.2,70.5H36.76L11.6,12.84H2.77V.5Z"/><path class="cls-2" d="M4.44,2.21H41.26v8.94H32.92L47.45,50.08l15-38.93H52.58V2.21H88.27v8.94h-8L55.05,68.85H37.88L12.77,11.15H4.44V2.21Z"/><path class="cls-1" d="M.51,28.71c-.1-1,.51-1.07,1.16-1,1.3.09,2.37,0,3.7,0,2.15,0,4.79-1.55,6.83-1.21.72.14,1.1,1.41.31,3.15C29.25,16,60.2,14.8,79.5,29.53c-.76-2.4-.35-3.68,2-3.05a28,28,0,0,0,4.39,1.07,23.73,23.73,0,0,0,4.84,0c.75,0,1,.43.66,1.32L86.16,43.64c-.28.88-.32,1-1.11,1.14-2.51.57-3.5,2.15-4.31,5.36a1.67,1.67,0,0,1-1.19,1c-1.26,0-2,0-3.8,0a.77.77,0,0,1-.86-.45C56.57,34.27,30.52,37.22,17,51.07a.54.54,0,0,1-.49.2,21.2,21.2,0,0,0-3.84-.09,1.62,1.62,0,0,1-1.4-1.13c-.38-1-.71-2-1.15-2.94a4.85,4.85,0,0,0-3-2.18c-1.06-.15-1-.63-1.13-1L.51,28.71Z"/><path class="cls-3" d="M80.46,27.66c-.11.89,1.37,3.62,2.67,5.41a.56.56,0,0,1,0,.54l-6.5,16.08c1.46-.14,2.88.46,3.56-2.39l6.37-14.5c.49-1.35.39-2.21-1.12-3.28A12.8,12.8,0,0,0,80.46,27.66Zm-68.88.14a13.13,13.13,0,0,0-4.84,1.75C5.23,30.61,5,31.49,5.67,33.24c2.29,4.81,4.44,9.94,6.47,15.2.53,1.41,1.06,1.27,3.24,1.31L9,34a1,1,0,0,1-.08-.73C10.05,31.4,11.07,30.07,11.58,27.8ZM89.88,29H87.09a3.71,3.71,0,0,1,.82,4.12c-1.51,3.46-3.22,7.45-4.74,10.9a7.77,7.77,0,0,1,1.6-.63ZM5,29.15l-2.8,0L7.28,43.47a4.65,4.65,0,0,1,1.59.67C7.35,40.69,5.84,37,4.32,33.5,3.35,30.94,4.2,30.09,5,29.15Z"/><path class="cls-4" d="M10.29,33.54c16-16.47,51.52-18.63,71.4-.21L75.34,49.17c-19.67-16.42-42.9-13.29-58.63.1L10.29,33.54Z"/><path class="cls-1" d="M43.07,23.91l-1.74,8.9h-.86v2.38h3.75l.36-2.74h1.9l.35,2.75,3.81,0V32.84h-.8l-1.65-8.91-5.12,0Zm-4,.16-9.76,2,.86,4.13,2.26-.47L32,27.93l1.06-.22,1.32,6.41-.86.18L34,36.62l4.85-1-.47-2.33-.86.18-1.33-6.41,1.05-.22.38,1.83,2.26-.46-.86-4.14Zm12.81.11L51,28.32l2.26.46L53.65,27l1.05.21-1.3,6.42-.85-.18-.47,2.33,4.85,1,.47-2.33-.86-.17,1.3-6.42,1,.21-.37,1.84,2.26.45.84-4.14-9.76-2Zm-6.3,1.66.72,4.55H44.8l.76-4.54ZM64,26.78,63.12,29l.84.35-2.52,6L60.6,35l-.92,2.19,8,3.33,1.49-3.57-2.56-1.07L66,37.25l-1.66-.69.91-2.19,2.22.92.79-1.9-2.22-.93.82-1.95,1.66.7-.48,1.15,2.41,1L71.85,30,64,26.78Zm-37.5.4-5,2a2.07,2.07,0,0,0-1.15,2.92l.78,1.93A2.07,2.07,0,0,0,24,35.36l2.53-1,.85,2.11-1.62.66-.43-1-2.75,1.11,1.31,3.24,5.22-2.11a2.07,2.07,0,0,0,1.16-2.92l-.87-2.15a2.08,2.08,0,0,0-2.86-1.3l-2.47,1L23.28,31l1.63-.66.37.92,2.5-1-1.25-3.1Z"/></svg>