<svg id="institutions" xmlns="http://www.w3.org/2000/svg" width="210" height="160" viewBox="0 0 210 160"><defs><style>.cls-1,.cls-19{fill:#cf0a2c;}.cls-1,.cls-15,.cls-19,.cls-20,.cls-22,.cls-3,.cls-5,.cls-6,.cls-9{fill-rule:evenodd;}.cls-10,.cls-11,.cls-12,.cls-13,.cls-14,.cls-16,.cls-17,.cls-18,.cls-2,.cls-20,.cls-21,.cls-23,.cls-4,.cls-7,.cls-8{fill:none;}.cls-10,.cls-11,.cls-12,.cls-13,.cls-14,.cls-15,.cls-18,.cls-19,.cls-2,.cls-20,.cls-21,.cls-22,.cls-23,.cls-5,.cls-7,.cls-8,.cls-9{stroke:#231f20;}.cls-10,.cls-11,.cls-12,.cls-13,.cls-14,.cls-15,.cls-16,.cls-17,.cls-18,.cls-2,.cls-20,.cls-21,.cls-22,.cls-23,.cls-3,.cls-4,.cls-5,.cls-7,.cls-8,.cls-9{stroke-miterlimit:2.61;}.cls-2{stroke-width:0.37px;}.cls-15,.cls-3{fill:#fff;}.cls-16,.cls-3,.cls-4{stroke:#fff;}.cls-15,.cls-3,.cls-4,.cls-5,.cls-7{stroke-width:0.01px;}.cls-22,.cls-24,.cls-5,.cls-6,.cls-9{fill:#231f20;}.cls-16,.cls-8,.cls-9{stroke-width:0.15px;}.cls-10{stroke-width:0.07px;}.cls-11{stroke-width:0.1px;}.cls-12,.cls-20{stroke-width:0.15px;}.cls-13{stroke-width:0.29px;}.cls-14,.cls-19{stroke-width:0.3px;}.cls-17{stroke:#cf0a2c;stroke-width:1.47px;}.cls-18{stroke-width:0.1px;}.cls-21{stroke-width:0.15px;}.cls-22{stroke-width:0px;}.cls-23{stroke-width:1.1px;}</style></defs><title>inst_vsu</title><path class="cls-1" d="M106,50.36l-17.73.06c-5.3,0-12.57,0-16,.5l-0.36-.25-0.18-.38,1.36-.6,0-.07,1.13-.52,0-.06,1.19-.67,0-.09,1.38-.88-0.06-.09,1-.76,0-.07,1.2-.91-0.06-.1,1.14-.87,0-.08L81,43.7l0-.09,1.23-.81,0-.07,1.25-.83-0.05-.1,1.54-.86,0-.08L86,40.31l0-.07,1.32-.56,0-.08L88.69,39l0-.07,1.17-.4,0-.11L91.26,38l0-.1,1.37-.38,0-.12,0.92-.22L93.56,37l5.88-1.11v-0.3l3.71-.21h5.37l3.82,0.19v0.28L118.15,37l0.93,0.37,0,0.08,1.26,0.3,0,0.09,1.59,0.55-0.05.1,1.53,0.52-0.06.08,1.17,0.48,0,0.08,1,0.44,0,0.09,1.2,0.64-0.05.06,0.88,0.45,0,0.07,1.11,0.48-0.07.11,1.17,0.72-0.08.1,1.33,0.9-0.07.1,1.16,0.74-0.09.1L133,45.54l-0.09.08,1.2,0.9-0.08.11,1.22,0.82-0.08.1,1.18,0.8-0.06.1,1.27,0.68-0.05.09,1.29,0.62,0,0.08,1.3,0.63,0,0.15-0.3.36-16.18-.64L106,50.36h0Z"/><path class="cls-2" d="M66.83,65.14l-2.74.21c-0.13,0-.27,0-0.28.16H63.47v0.23a0.16,0.16,0,0,1,.1.13,0.56,0.56,0,0,1,.53.63v0.8h1.62v0.17c0.54,0,.35.58,1,0.57v0.13a0.48,0.48,0,0,1,.51.54c-0.24,0-.35,0-0.35.08s0.06,0.08.12,0.09,0.15,0.15,0,.16v8.29l4.49,0m10.88-9.83v0.18c0.54,0,.34.57,1,0.55v0.13a0.47,0.47,0,0,1,.51.54c-0.22,0-.35,0-0.35.08S83.51,69,83.58,69s0.15,0.17,0,.17M73,65.51H63.47v0.23a0.22,0.22,0,0,1,.1.13,0.57,0.57,0,0,1,.53.63v0.8h9.34m-9.84-1.43H73m14.64-.32-7.51,0v0.25a0.18,0.18,0,0,1,.09.13,0.6,0.6,0,0,1,.52.68v0.85l6.89,0m-7.4-1.56,7.4,0m-7.52-.43H73m7.81,1.89-5.2-.1H73.43m6.83-1.41-5.07,0H73M67,69l4.49,0m12.39-3.72h40m-36.2.19h36.2m0,0.39H87.68m36.2,1.52H87.68"/><path class="cls-3" d="M105.85,50.36c-11.57.22-26.08-.4-33.63,0.55l-0.36-.24-0.18-.35c0.1-.06.11,0.1,0.2,0.1s0.08-.09.12-0.1a0.65,0.65,0,0,1,.18.1,0.74,0.74,0,0,1,.14-0.17c0.11,0,.08.16,0.18,0.15s0-.2.13-0.22a2.44,2.44,0,0,1,.25.18c0.09,0,0-.21.13-0.22s0.13,0.21.23,0.19a1.25,1.25,0,0,1,.1-0.21,2.09,2.09,0,0,0,.28.19c0.13,0,0-.24.14-0.25a1.53,1.53,0,0,1,.3.22,0.68,0.68,0,0,1,.2-0.22c0.14,0,.08.21,0.22,0.21s0-.28.3-0.26a1.84,1.84,0,0,0,.22.23A0.94,0.94,0,0,1,75.24,50c0.15,0,.21.3,0.35,0.29s0-.3.26-0.26a1.19,1.19,0,0,0,.34.22c0.14,0,0-.21.25-0.22s0.14,0.22.29,0.22A1.79,1.79,0,0,1,77.08,50c0.18,0,.23.26,0.42,0.26A0.62,0.62,0,0,1,77.83,50a4.53,4.53,0,0,0,.38.26c0.25,0,.08-0.39.32-0.4a1.75,1.75,0,0,0,.48.3,2.3,2.3,0,0,0,.3-0.34,1.16,1.16,0,0,0,.52.24,1.13,1.13,0,0,1,.36-0.27c0.2,0,.25.32,0.45,0.31a2.23,2.23,0,0,1,.4-0.26,3.65,3.65,0,0,0,.5.25,1.33,1.33,0,0,1,.4-0.23,3.37,3.37,0,0,0,.51.22,3.32,3.32,0,0,1,.4-0.3,3.89,3.89,0,0,0,.55.31,2.13,2.13,0,0,1,.5-0.33,3.53,3.53,0,0,0,.55.32,2.72,2.72,0,0,1,.45-0.31c0.27,0,.29.32,0.55,0.32a1.85,1.85,0,0,1,.47-0.35,1.92,1.92,0,0,0,.61.31A1.67,1.67,0,0,1,87,49.73c0.29,0,.25.34,0.59,0.36A2.52,2.52,0,0,1,88,49.76c0.25,0,.32.28,0.51,0.29a2.93,2.93,0,0,0,.56-0.35,6.12,6.12,0,0,1,.62.31,1.94,1.94,0,0,0,.55-0.26c0.34,0,.29.26,0.62,0.26a3.45,3.45,0,0,1,.53-0.26A3.34,3.34,0,0,0,92,50a3.94,3.94,0,0,1,.55-0.34,2.37,2.37,0,0,0,.58.32c0.21,0,.35-0.28.56-0.28a5,5,0,0,0,.71.3A4.86,4.86,0,0,1,95,49.72c0.3,0,.34.32,0.62,0.32s0.32-.33.66-0.34S96.6,50,96.83,50a2.9,2.9,0,0,1,.65-0.31,2.54,2.54,0,0,0,.63.29c0.41,0,.24-0.36.64-0.35S99.06,50,99.36,50s0.3-.32.6-0.31a6.27,6.27,0,0,0,.63.29c0.32,0,.33-0.34.66-0.34s0.31,0.29.67,0.3,0.31-.32.62-0.31,0.32,0.28.61,0.3c0.45,0,.3-0.36.73-0.33s0.34,0.32.61,0.31,0.3-.35.67-0.34,0.28,0.33.63,0.32,0.28-.31.65-0.32,0.26,0.33.66,0.34,0.29-.29.6-0.31,0.29,0.35.74,0.33a5.6,5.6,0,0,1,.61-0.3c0.31,0,.32.32,0.61,0.31s0.31-.29.67-0.3S110.69,50,111,50a6.32,6.32,0,0,0,.63-0.29c0.3,0,.28.32,0.61,0.31s0.27-.33.6-0.34,0.24,0.34.64,0.35a2.59,2.59,0,0,0,.63-0.29,2.92,2.92,0,0,1,.65.31c0.24,0,.34-0.32.6-0.31S115.72,50,116,50s0.32-.3.61-0.32a3.33,3.33,0,0,1,.55.31,5.6,5.6,0,0,0,.72-0.3c0.2,0,.35.29,0.56,0.28a2.39,2.39,0,0,0,.58-0.32,4,4,0,0,1,.55.34,3.41,3.41,0,0,0,.62-0.28,3.71,3.71,0,0,1,.54.26c0.33,0,.28-0.27.62-0.26a1.87,1.87,0,0,0,.55.26,6.83,6.83,0,0,1,.62-0.31,2.89,2.89,0,0,0,.56.35c0.19,0,.26-0.27.51-0.29a2.4,2.4,0,0,1,.45.32c0.34,0,.31-0.36.59-0.36a1.69,1.69,0,0,1,.44.31,2.08,2.08,0,0,0,.61-0.31,1.93,1.93,0,0,1,.46.35c0.26,0,.28-0.31.55-0.32a2.94,2.94,0,0,1,.45.31,3.51,3.51,0,0,0,.56-0.32,2,2,0,0,1,.49.33,4,4,0,0,0,.56-0.31,3.24,3.24,0,0,1,.39.3,3.58,3.58,0,0,0,.52-0.22,1.31,1.31,0,0,1,.39.31,4.59,4.59,0,0,0,.58-0.29,2.34,2.34,0,0,1,.33.36c0.2,0,.25-0.32.45-0.31a1.42,1.42,0,0,1,.36.36,1.05,1.05,0,0,0,.53-0.34,2.07,2.07,0,0,0,.3.34,1.61,1.61,0,0,0,.48-0.29c0.24,0,.07.36,0.31,0.4a3.32,3.32,0,0,0,.38-0.26c0.28,0,.1.3,0.23,0.3s0.27-.3.45-0.3a1.1,1.1,0,0,1,.24.3c0.15,0,.24-0.26.4-0.25s0.12,0.33.27,0.33a2,2,0,0,0,.39-0.24c0.27,0,.1.3,0.23,0.3s0.17-.3.32-0.31a1,1,0,0,1,.23.29,2.34,2.34,0,0,0,.27-0.26c0.26,0,.1.31,0.24,0.31s0.14-.25.28-0.26,0,0.27.12,0.26a2.26,2.26,0,0,1,.38-0.25c0.13,0,0,.26.09,0.28a2.67,2.67,0,0,0,.33-0.22,1.92,1.92,0,0,1,.06.24c0.09,0,.17-0.23.27-0.22s0,0.25.09,0.25a3.23,3.23,0,0,1,.28-0.22c0.1,0,0,.28.06,0.3s0.14-.23.25-0.22a1.27,1.27,0,0,1,.1.23,1.06,1.06,0,0,0,.23-0.13,1.67,1.67,0,0,1,.08.15,0.38,0.38,0,0,1,.24-0.07c0.09,0.06-.1.19-0.12,0.28s0,0.31-.17.29c-11.4-1.1-22.5-.63-33.77-0.93h0Z"/><path class="cls-3" d="M104.51,58l0-2.33c0-1,.36-1.59,1.27-1.61s1.4,0.48,1.38,1.58V58h-2.66Z"/><path class="cls-3" d="M111.15,58.14V55.81c0-1,.34-1.59,1.18-1.61s1.31,0.56,1.29,1.58v2.34l-2.48,0h0Z"/><path class="cls-3" d="M117.47,58.19V55.87c0-1,.33-1.59,1.12-1.61s1.22,0.56,1.2,1.58v2.34h-2.34Z"/><path class="cls-3" d="M123.48,58.15l0-2.22c0-1,.33-1.64,1-1.65s1.06,0.6,1.05,1.62v2.24h-2.1Z"/><path class="cls-3" d="M128.7,58.21l0-2.17c0-1,.21-1.6.74-1.61s0.72,0.58.71,1.57V58.2h-1.4Z"/><path class="cls-3" d="M132.71,58.22l0-2.17c0-1,.07-1.51.41-1.51s0.51,0.49.51,1.48v2.18h-0.89Z"/><path class="cls-3" d="M135.84,58.34V56.28a4.19,4.19,0,0,1,.09-1.43,4.33,4.33,0,0,1,.1,1.4v2.06l-0.18,0h0Z"/><polygon class="cls-3" points="138.18 58.82 138.18 59.45 126.33 59.53 105.8 59.63 105.8 58.9 107.94 58.9 107.94 58.49 110.53 58.5 110.53 58.88 114.62 58.89 114.63 58.5 117.06 58.5 117.07 58.94 120.92 58.95 120.92 58.56 123.37 58.56 123.37 59.03 126.75 59.05 126.75 58.62 128.6 58.63 128.61 59.03 131.3 59.05 131.29 58.67 132.65 58.68 132.65 59.03 134.75 59.05 134.74 58.77 135.72 58.77 135.72 59.02 137.05 59.04 137.05 58.75 137.64 58.75 137.64 58.97 138.01 58.98 138.01 58.82 138.18 58.82 138.18 58.82"/><path class="cls-3" d="M100.45,58.12l0-2.33c0-1-.34-1.59-1.18-1.61s-1.31.56-1.28,1.58v2.34h2.48Z"/><path class="cls-3" d="M94.12,58.18V55.85c0-1-.32-1.6-1.12-1.62s-1.23.56-1.21,1.58v2.34l2.33,0h0Z"/><path class="cls-3" d="M88.12,58.14V55.91c0-1-.34-1.63-1-1.65S86,54.86,86,55.88v2.24l2.09,0h0Z"/><path class="cls-3" d="M82.9,58.2l0-2.17c0-1-.21-1.6-0.74-1.61S81.48,55,81.49,56v2.18l1.41,0h0Z"/><path class="cls-3" d="M78.89,58.21l0-2.16c0-1-.07-1.5-0.41-1.52S78,55,78,56v2.18l0.89,0h0Z"/><path class="cls-3" d="M75.76,58.32V56.27a4.2,4.2,0,0,0-.08-1.43,4,4,0,0,0-.1,1.4v2.07h0.18Z"/><polygon class="cls-3" points="73.62 58.8 73.61 59.43 85.38 59.51 105.8 59.62 105.8 58.89 103.71 58.89 103.71 58.48 101.09 58.48 101.09 58.87 97.03 58.88 97.03 58.48 94.59 58.48 94.59 58.92 90.77 58.94 90.77 58.55 88.33 58.55 88.33 59.02 84.96 59.04 84.96 58.6 83.13 58.62 83.12 59.02 80.44 59.03 80.45 58.66 79.1 58.66 79.1 59.02 77.01 59.03 77.02 58.76 76.04 58.75 76.04 59.01 74.72 59.02 74.72 58.74 74.14 58.73 74.14 58.95 73.77 58.96 73.77 58.81 73.62 58.8 73.62 58.8"/><path class="cls-3" d="M139.51,52.61a4.67,4.67,0,0,1-1.33.24c-6.9-.69-21.59-0.52-32.22-0.71-10.45-.19-28.43.09-32.24,0.44a6,6,0,0,1-1.4-.15,6.68,6.68,0,0,1,1.45-.13c11-.45,20.73-0.64,32.2-0.46,10.35,0.11,22.41,0,32.22.68l1.32,0.1h0Z"/><path class="cls-3" d="M104.5,28.2c0-.31,0-0.6,0-0.9a1.39,1.39,0,0,1,1.37-1.37,1.22,1.22,0,0,1,1.29,1.21,8.35,8.35,0,0,1,0,1,1.21,1.21,0,0,0-1.32-1.33,1.35,1.35,0,0,0-1.35,1.38h0Z"/><path class="cls-3" d="M108.7,27.63a1.6,1.6,0,0,1,.49-1.48,1.44,1.44,0,0,1,.81,1.61,1,1,0,0,0-.71-1,0.85,0.85,0,0,0-.59.85h0Z"/><path class="cls-3" d="M103,27.68a1.55,1.55,0,0,0-.49-1.47c-0.61.11-.78,0.85-0.78,1.6,0.1-.54.24-1,0.68-1a0.86,0.86,0,0,1,.59.86h0Z"/><polygon class="cls-3" points="105.86 30.45 107.11 31.26 104.6 31.28 105.86 30.45 105.86 30.45"/><polygon class="cls-3" points="102.94 31.08 101.65 31.48 102.94 31.08 102.94 31.08"/><polyline class="cls-4" points="108.75 32.4 110.05 32.49 110.05 32.9"/><path class="cls-4" d="M102.82,23.09v1.19h-0.25v0.21l0.32,0.11a0.25,0.25,0,0,0,.21.18V25a0.1,0.1,0,0,0,0,.19v0.18c-0.12,0-.13.27,0,0.27l-0.05,1L103,32.46l-0.09,0v0.33l-0.71.07v0.92l-1.81.11m2.73,1.49v-2.6"/><path class="cls-3" d="M111.28,23.28l0.62,0.07-0.12.12a0.94,0.94,0,0,1-.5-0.18h0Z"/><path class="cls-4" d="M107.19,24.34v0.17h0.2a0.23,0.23,0,0,0,.2.22v0.14c-0.11,0-.09.23,0,0.24v0.21c-0.1,0-.11.22,0,0.24l0,1,0,5.83-0.09,0v0.31h-0.28v0.87m-2.77-9.27v0.17h-0.16a0.21,0.21,0,0,1-.22.24V25a0.1,0.1,0,0,1,0,.19v0.18a0.17,0.17,0,0,1,0,.28l0.06,1,0,5.83,0.09,0.05v0.29h0.3v0.82h2.69m3.59-8.86a0.19,0.19,0,0,0,.16.21v0.15a0.14,0.14,0,0,0,0,.26V25.6c-0.1,0-.11.24,0,0.25l0,6.82-0.08,0V33M101,24.65c0,0.06,0,.1,0,0.16a0.41,0.41,0,0,1-.11,0,0.18,0.18,0,0,1-.19.21v0.18c0.1,0,.1.21,0,0.22v0.2c0.1,0,.09.26,0,0.25l0,6.83,0.07,0.06v0.31M109,24.42l-0.3.1a0.19,0.19,0,0,1-.2.22v0.16a0.12,0.12,0,0,1,0,.22v0.22c0.11,0,.1.24,0,0.25l0.06,1,0.11,5.84h0.13V32.8l-0.29,0h-1.32"/><polygon class="cls-3" points="104.01 23.05 107.59 23.01 107.34 23.23 104.24 23.25 104.01 23.05 104.01 23.05"/><polygon class="cls-3" points="111.33 23.29 110.84 23.42 108.78 23.18 108.78 23.03 111.33 23.29 111.33 23.29"/><path class="cls-4" d="M100.34,23.45l0.44,0.09m0,0.72-0.44-.06"/><polygon class="cls-3" points="100.33 23.37 102.82 23.09 102.82 23.27 100.78 23.49 100.33 23.37 100.33 23.37"/><path class="cls-3" d="M100.33,23.38a0.85,0.85,0,0,1-.47.12l-0.12-.06,0.58-.06h0Z"/><path class="cls-3" d="M102.8,23.1l0.45-.05H104a2.4,2.4,0,0,1-1.23,0h0Z"/><path class="cls-3" d="M107.59,23l0.74,0,0.45,0v0a3.39,3.39,0,0,1-1.18,0,0,0,0,0,0,0,0h0Z"/><path class="cls-3" d="M107.19,24.52l0.45-.11H109l-0.31.11a2.6,2.6,0,0,0-1.34,0h-0.2Z"/><polygon class="cls-5" points="109.03 24.39 110.62 24.55 110.62 24.65 108.83 24.49 109.03 24.42 109.03 24.39 109.03 24.39"/><path class="cls-3" d="M110.62,24.74l1,0,0.58,0.1-0.31,0a2.24,2.24,0,0,0-1.17-.06l-0.14,0h0Z"/><path class="cls-3" d="M102.56,24.49l1.44,0,0.41,0.08-0.17,0a2.7,2.7,0,0,0-1.36,0l-0.32-.1h0Z"/><path class="cls-3" d="M99.4,24.88l0.55-.12L101,24.82l-0.13.05a2.37,2.37,0,0,0-1.18,0l-0.3,0h0Z"/><polygon class="cls-3" points="107.17 30.69 107.17 31.05 106.01 30.31 107.17 30.69 107.17 30.69"/><polygon class="cls-3" points="104.49 31.05 104.49 30.73 105.74 30.3 104.49 31.05 104.49 31.05"/><path class="cls-4" d="M102.94,31.51l-1.27.09m0.56-.17-0.56.06m8.09-.06,0.26,0m-7.08,0-1.28.11m2.82-.19h2.69m-2.68-.15,1.35-.85,1.32,0.82m-2.68-.54,1.36-.46,1.31,0.42"/><polygon class="cls-3" points="99.75 23.44 99.85 23.49 99.85 23.8 99.75 23.44 99.75 23.44"/><polygon class="cls-3" points="111.92 23.34 111.92 23.44 111.86 23.49 111.78 23.82 111.78 23.47 111.92 23.34 111.92 23.34"/><path class="cls-6" d="M37.76,118.49h0.36c1.33-3.39,2.08-5.38,2.35-6l4.17-10.09c2.09-5,3.41-7.62,6.16-7.62H51v-0.6c-1.46,0-3,0-4.6,0s-3.21,0-4.93,0v0.6c2.58,0.13,3.71.67,3.71,2.12,0,1-.6,2.89-1.73,5.63L39,113.38l-4.47-10.86a23.08,23.08,0,0,1-1.86-5.89c0-1.22,1.1-1.83,3.34-1.86v-0.6c-1.88,0-3.74,0-5.53,0s-3.51,0-5.2,0v0.6c2.52,0.1,3.48,1.72,4.7,4.74l7.78,19h0Z"/><path class="cls-6" d="M160,117.26c1.41-.05,2.9-0.08,4.42-0.08s3.22,0,4.9.08v-0.57c-2.55-.06-3.77-0.7-3.77-2.12a19.47,19.47,0,0,1,1.26-5.07l0.63-1.89h7.85l1.75,4.91a7.2,7.2,0,0,1,.5,2.24c0,1-.93,1.79-2.65,1.93v0.57c1.65-.05,3.31-0.08,4.93-0.08s3.31,0,4.93.08v-0.57c-2.52-.1-3.34-1.39-4.37-4.14L173,92.78a4.79,4.79,0,0,1-2.35,1.82l0.13,0.67-3.78,10c-2.19,5.82-3.38,9.24-4.17,10.12a4.71,4.71,0,0,1-2.9,1.3v0.57h0Zm8-11.06L171.24,97l3.44,9.18h-6.76Z"/><path class="cls-6" d="M43.56,117.26c1.18,0,2.42-.07,3.69-0.07s2.67,0,4.08.07v-0.48c-2.13-.06-3.15-0.58-3.15-1.76a16.42,16.42,0,0,1,1-4.23l0.53-1.57h6.54l1.47,4.09a6.14,6.14,0,0,1,.41,1.88c0,0.83-.77,1.49-2.21,1.6v0.48c1.38,0,2.76-.07,4.12-0.07s2.75,0,4.1.07v-0.48c-2.1-.08-2.79-1.16-3.64-3.45L54.45,96.86a4.08,4.08,0,0,1-2,1.52l0.1,0.55-3.14,8.33c-1.82,4.86-2.81,7.7-3.48,8.44a3.88,3.88,0,0,1-2.42,1.08v0.48h0ZM50.21,108L53,100.39,55.83,108H50.21Z"/><path class="cls-6" d="M64.8,117.26c2.7,0,5.21,0,7.47,0,3.23,0,6,0,8.39.06L82.23,112l-0.36-.17a9.69,9.69,0,0,1-3.09,3.86c-1.1.69-2.48,0.72-4.27,0.72s-3-.05-3.26-0.58c-0.36-.69-0.36-1.94-0.36-3.78v-9.35c0-3,.47-4,3.56-4.23V98c-1.66,0-3.28,0-4.88,0s-3.2,0-4.77,0v0.49c3.2,0.31,3.58,1.22,3.58,4.23v9.35c0,3.33-.28,4.44-3.58,4.69v0.48h0Z"/><path class="cls-6" d="M83.15,117.26c3.81,0,6.76.08,8.8,0.08,7.84,0,12.28-3.82,12.28-9.62,0-6-4.66-9.82-12.88-9.82-1.14,0-3.78.08-7.89,0.11v0.49c2.71,0.31,3.31,1.13,3.31,3.56V113c0,2.7-.57,3.56-3.62,3.81v0.48h0Zm6.27-5.05V98.54h0.25c7.12,0,11.2,3.7,11.2,9.69,0,5.13-3.15,8.42-7.36,8.42-3.45,0-4.09-1.22-4.09-4.44h0Z"/><path class="cls-6" d="M107.92,107.54c0,6.12,4.08,10.08,10.29,10.08,6.37,0,10.45-4,10.45-9.81,0-6.1-4-10.13-10.29-10.13s-10.45,3.89-10.45,9.85h0Zm3.28-.39c0-5.32,2.88-8.66,6.87-8.66a6.41,6.41,0,0,1,5.62,3.28,11.47,11.47,0,0,1,1.72,6.26c0,5.41-2.84,8.75-6.93,8.75s-7.29-3.86-7.29-9.63h0Z"/><path class="cls-6" d="M130.68,111.46a36.3,36.3,0,0,0,.66,4.77,9.52,9.52,0,0,0,5.3,1.5c3.8,0,6.71-2.44,6.71-5.55,0-2.07-1-3.62-3.2-4.94l-3.2-1.93a4.4,4.4,0,0,1-2.4-3.53,3.32,3.32,0,0,1,3.45-3.4c2.18,0,3.54,1.58,3.94,4.69h0.5c0-1.55.13-3,.3-4.22a8.61,8.61,0,0,0-4.44-1.21c-3.64,0-6.17,2.37-6.17,5.38,0,2,1.13,3.61,3.48,5l2.2,1.3q2.81,1.65,2.81,4.14a3.45,3.45,0,0,1-3.7,3.39c-2.73,0-4.75-1.85-5.74-5.4l-0.5,0h0Z"/><path class="cls-6" d="M155.55,111.49V99h2.06c3.09,0,4.61,1,5.27,3.64l0.44-.08-0.46-5.38h-0.22l-0.91.88-7.42,0-7.59,0-0.83-.88h-0.33L145,102.46l0.48,0.08C146.25,99.74,147.73,99,151,99h1.91v12.52c0,2.2-.08,3.54-0.74,4.17a5.74,5.74,0,0,1-3,1.13v0.48c1.71,0,3.39-.07,5.11-0.07s3.39,0,5.07.07v-0.48a5.62,5.62,0,0,1-3-1.13c-0.66-.63-0.74-2-0.74-4.17h0Z"/><path class="cls-2" d="M144.74,65.14l2.74,0.21c0.13,0,.27,0,0.28.16h0.33v0.23a0.18,0.18,0,0,0-.09.13,0.56,0.56,0,0,0-.52.63v0.8h-1.63v0.17c-0.53,0-.34.58-1,0.57v0.13a0.47,0.47,0,0,0-.5.54c0.23,0,.35,0,0.35.08s-0.06.08-.12,0.09-0.15.15,0,.16v7.85m-15.37-9.42v0.18c-0.54,0-.34.57-1,0.55v0.13a0.47,0.47,0,0,0-.5.54c0.23,0,.35,0,0.35.08S128,69,128,69s-0.15.17,0,.17m12.71-1.9v0.17c-0.39,0-.2.58-0.44,0.55v0.13a0.45,0.45,0,0,0-.35.54c0.23,0,.35,0,0.35.08a0.1,0.1,0,0,1-.12.08c-0.14,0-.16.17,0,0.17m-1.54-3.54h9.51v0.23a0.23,0.23,0,0,0-.09.13,0.57,0.57,0,0,0-.52.63v0.8h-9.33M148,65.87h-9.45m-14.74-.32,7.62,0v0.25a0.18,0.18,0,0,0-.09.13,0.6,0.6,0,0,0-.52.68l0,0.85-7,0m7.51-1.57-7.4,0m7.51-.43h7.19m-7.82,2,5.2-.17h2.17m-6.83-1.41,5.06,0h2.21m6,3.17-4.49,0m-12.39-3.72h-3.84M71.45,61.79H66.83v3.56h4.63V61.79h0Zm0,0H83.8v3.56H71.46V61.79h0ZM83.58,69.2l-12.13-.13v8.24l12.19,7.08L83.58,69.2h0Z"/><path class="cls-5" d="M104.51,58l0-2.33c0-1,.36-1.59,1.27-1.61s1.4,0.48,1.38,1.58V58h-2.66Z"/><path class="cls-7" d="M117.07,58.93l0-3.51a1.86,1.86,0,0,1,1.89-2,1.83,1.83,0,0,1,2,2l0,3.52-3.85,0h0Z"/><path class="cls-5" d="M111.15,58.14V55.81c0-1,.34-1.59,1.18-1.61s1.31,0.56,1.29,1.58v2.34l-2.48,0h0Z"/><path class="cls-5" d="M117.47,58.19V55.87c0-1,.33-1.59,1.12-1.61s1.22,0.56,1.2,1.58v2.34h-2.34Z"/><path class="cls-5" d="M123.48,58.15l0-2.22c0-1,.33-1.64,1-1.65s1.06,0.6,1.05,1.62v2.24h-2.1Z"/><path class="cls-5" d="M128.7,58.21l0-2.17c0-1,.21-1.6.74-1.61s0.72,0.58.71,1.57V58.2h-1.4Z"/><path class="cls-5" d="M132.71,58.22l0-2.17c0-1,.07-1.51.41-1.51s0.51,0.49.51,1.48v2.18h-0.89Z"/><path class="cls-5" d="M135.84,58.34V56.28a4.19,4.19,0,0,1,.09-1.43,4.33,4.33,0,0,1,.1,1.4v2.06l-0.18,0h0Z"/><polygon class="cls-5" points="138.18 58.82 138.18 59.45 126.33 59.53 105.8 59.63 105.8 58.9 107.94 58.9 107.94 58.49 110.53 58.5 110.53 58.88 114.62 58.89 114.63 58.5 117.06 58.5 117.07 58.94 120.92 58.95 120.92 58.56 123.37 58.56 123.37 59.03 126.75 59.05 126.75 58.62 128.6 58.63 128.61 59.03 131.3 59.05 131.29 58.67 132.65 58.68 132.65 59.03 134.75 59.05 134.74 58.77 135.72 58.77 135.72 59.02 137.05 59.04 137.05 58.75 137.64 58.75 137.64 58.97 138.01 58.98 138.01 58.82 138.18 58.82 138.18 58.82"/><path class="cls-2" d="M105.89,51.81c-11.36-.09-21.79,0-32.22.74l0,6.24h0.14v-3c0-2.17.34-2.31,0.36-.28v3.25h0.58V55.87c0.09-2.95,1.17-2.43,1.31-.27v3.16h1V55.88c-0.08-1.36.47-2.12,0.91-2.2s1.2,0.69,1.2,1.89v3.09h1.32V55.56a1.9,1.9,0,0,1,1.06-1.95c0.83-.22,1.59.5,1.64,1.92v3.07H85V55.3a1.9,1.9,0,0,1,1.72-1.92,1.74,1.74,0,0,1,1.67,1.72v3.44h2.44V55.27a1.91,1.91,0,0,1,3.82,0v3.26l2.35,0V55.23c0-2.55,4.12-2.58,4.12.12l0,3.11h2.6l0-3.11a2.06,2.06,0,0,1,2.14-2.07,2,2,0,0,1,2.07,2v3.19h2.59V55.36c0-2.7,4-2.65,4.07-.13V58.5h2.45V55.25a1.93,1.93,0,0,1,3.85,0l0,3.28h2.48V55.11a1.73,1.73,0,0,1,1.67-1.72,1.89,1.89,0,0,1,1.72,1.92v3.31h1.83V55.55c0.05-1.41.81-2.13,1.63-1.91,0.52,0.14,1,.75,1.08,1.94v3.09h1.32V55.58c0-1.19.66-2,1.2-1.88s1,0.84.91,2.2v2.87h1V55.61c0.15-2.15,1.23-2.67,1.31.27v2.86h0.59V55.49c0-2,.39-1.89.37,0.28v3h0.19V52.54c-10.54-.61-21-0.49-32.29-0.74h0Z"/><path class="cls-5" d="M100.45,58.12l0-2.33c0-1-.34-1.59-1.18-1.61s-1.31.56-1.28,1.58v2.34h2.48Z"/><path class="cls-5" d="M94.12,58.18V55.85c0-1-.32-1.6-1.12-1.62s-1.23.56-1.21,1.58v2.34l2.33,0h0Z"/><path class="cls-5" d="M88.12,58.14V55.91c0-1-.34-1.63-1-1.65S86,54.86,86,55.88v2.24l2.09,0h0Z"/><path class="cls-5" d="M82.9,58.2l0-2.17c0-1-.21-1.6-0.74-1.61S81.48,55,81.49,56v2.18l1.41,0h0Z"/><path class="cls-5" d="M78.89,58.21l0-2.16c0-1-.07-1.5-0.41-1.52S78,55,78,56v2.18l0.89,0h0Z"/><path class="cls-5" d="M75.76,58.32V56.27a4.2,4.2,0,0,0-.08-1.43,4,4,0,0,0-.1,1.4v2.07h0.18Z"/><polygon class="cls-5" points="73.62 58.8 73.61 59.43 85.38 59.51 105.8 59.62 105.8 58.89 103.71 58.89 103.71 58.48 101.09 58.48 101.09 58.87 97.03 58.88 97.03 58.48 94.59 58.48 94.59 58.92 90.77 58.94 90.77 58.55 88.33 58.55 88.33 59.02 84.96 59.04 84.96 58.6 83.13 58.62 83.12 59.02 80.44 59.03 80.45 58.66 79.1 58.66 79.1 59.02 77.01 59.03 77.02 58.76 76.04 58.75 76.04 59.01 74.72 59.02 74.72 58.74 74.14 58.73 74.14 58.95 73.77 58.96 73.77 58.81 73.62 58.8 73.62 58.8"/><path class="cls-5" d="M139.51,52.61a4.67,4.67,0,0,1-1.33.24c-6.9-.69-21.59-0.52-32.22-0.71-10.45-.19-28.43.09-32.24,0.44a6,6,0,0,1-1.4-.15,6.68,6.68,0,0,1,1.45-.13c11-.45,20.73-0.64,32.2-0.46,10.35,0.11,22.41,0,32.22.68l1.32,0.1h0Z"/><path class="cls-8" d="M106,51.83c-10.85.07-21.76-.05-32.29,0.46a6.77,6.77,0,0,0-1.39.12V51.52a3.33,3.33,0,0,1,1.39-.22c9.43-.46,21.11-0.46,32.25-0.51,11.63,0,23-.12,33.58.87V52.6c-11-.81-22.23-0.63-33.55-0.78h0ZM72.28,51.5a0.78,0.78,0,0,1-.09-0.57c10.2-.77,16.84-0.5,33.75-0.59,11.21,0.22,22.36-.11,33.66.95,0,0.13,0,.26-0.06.39-11.2-1-22.4-1-33.6-.88C95.05,51,79.77,50.68,73,51.34a2.29,2.29,0,0,0-.71.16h0Zm40-28.92,0.09,0.08-0.08.09,0,0.42-0.14,0v0.07l-0.15.07v0.1l-0.05.05-0.09.33v0.69l0.48,0.1V24.8h-0.32c0,0.09-.05.15-0.22,0.18v0.14c0.11,0,.07.26,0,0.26V25.6a0.16,0.16,0,0,1,0,.26l0.08,0.88,0.14,5.93,0.1,0V33l0.33,0v2.56l-3.82-.18h-5.37l-3.72.19V33.19l0.27,0V32.82l0.09,0,0.09-6.13,0.07-.71c-0.11,0-.1-0.26,0-0.26v-0.2c-0.14,0-.13-0.22,0-0.22V25.08a0.19,0.19,0,0,1-.23-0.21H99.4V24.69l0.46-.13V23.82l-0.1-.38,0-.11-0.12,0,0-.09-0.17,0-0.06-.37-0.14-.1,0-.14v0l0.15-.18L101,22l4.88-.32L110.82,22l1.39,0.3,0.05,0.26h0Zm-10.6,10,0-4.81a1,1,0,0,1,.66-1,0.81,0.81,0,0,1,.6.86l0,4.83-1.28.1h0ZM110,31.43L108.74,31l0-3.37a0.78,0.78,0,0,1,.64-0.89,0.94,0.94,0,0,1,.66.91l0,3.75h0Zm-5.55-.83,0-2.48a1.43,1.43,0,0,1,1.36-1.34,1.15,1.15,0,0,1,1.3,1.29l0,2.5-1.31-.41-1.36.44h0Z"/><path class="cls-5" d="M104.5,28.2c0-.31,0-0.6,0-0.9a1.39,1.39,0,0,1,1.37-1.37,1.22,1.22,0,0,1,1.29,1.21,8.35,8.35,0,0,1,0,1,1.21,1.21,0,0,0-1.32-1.33,1.35,1.35,0,0,0-1.35,1.38h0Z"/><path class="cls-9" d="M108.7,27.63a1.6,1.6,0,0,1,.49-1.48,1.44,1.44,0,0,1,.81,1.61,1,1,0,0,0-.71-1,0.85,0.85,0,0,0-.59.85h0Z"/><path class="cls-9" d="M103,27.68a1.55,1.55,0,0,0-.49-1.47c-0.61.11-.78,0.85-0.78,1.6,0.1-.54.24-1,0.68-1a0.86,0.86,0,0,1,.59.86h0Z"/><path class="cls-8" d="M111.43,33.85l-1-.93-0.34,0L110,27.65c0-.88-0.31-1.45-0.8-1.5,0.63-.43,1.46.12,1.42,1.59l0,5.27h0.79v0.84h0Zm-11,.07,0.9-.94h0.33l0-5.18c0-1,.3-1.54.78-1.59-0.65-.45-1.4.19-1.42,1.58l0,5.33h-0.61v0.82h0Z"/><polygon class="cls-5" points="105.86 30.45 107.11 31.26 104.6 31.28 105.86 30.45 105.86 30.45"/><path class="cls-8" d="M107.18,32.79l-2.7,0,0-5.28a1.43,1.43,0,0,1,1.35-1.6c0.72,0,1.37.39,1.32,1.69v5.18h0Zm-2.68-1.38h2.67v1H104.5v-1h0Z"/><polygon class="cls-7" points="102.94 31.08 101.65 31.48 102.94 31.08 102.94 31.08"/><polygon class="cls-8" points="110.05 32.89 109.38 32.85 108.78 32.8 108.78 32.43 108.75 32.42 108.74 31.47 110.04 31.56 110.05 32.89 110.05 32.89"/><polygon class="cls-7" points="108.73 31.03 110.04 31.43 110.04 31.56 108.74 31.47 108.73 31.03 108.73 31.03"/><polyline class="cls-8" points="108.75 32.4 110.05 32.49 110.05 32.9"/><path class="cls-8" d="M102.82,23.09v1.19h-0.25v0.21l0.32,0.11a0.25,0.25,0,0,0,.21.18V25a0.1,0.1,0,0,0,0,.19v0.18c-0.12,0-.13.27,0,0.27l-0.05,1L103,32.46l-0.09,0v0.33l-0.71.07v0.92l-1.81.11m2.73,1.49v-2.6"/><path class="cls-5" d="M111.28,23.28l0.62,0.07-0.12.12a0.94,0.94,0,0,1-.5-0.18h0Z"/><line class="cls-8" x1="108.78" y1="23.07" x2="108.78" y2="24.24"/><polygon class="cls-10" points="107.64 24.22 109.03 24.24 109.02 24.42 107.64 24.41 107.64 24.22 107.64 24.22"/><path class="cls-8" d="M107.19,24.34v0.17h0.2a0.23,0.23,0,0,0,.2.22v0.14c-0.11,0-.09.23,0,0.24v0.21c-0.1,0-.11.22,0,0.24l0,1,0,5.83-0.09,0v0.31h-0.28v0.87m-2.77-9.27v0.17h-0.16a0.21,0.21,0,0,1-.22.24V25a0.1,0.1,0,0,1,0,.19v0.18a0.17,0.17,0,0,1,0,.28l0.06,1,0,5.83,0.09,0.05v0.29h0.3v0.82h2.69m3.59-8.86a0.19,0.19,0,0,0,.16.21v0.15a0.14,0.14,0,0,0,0,.26V25.6c-0.1,0-.11.24,0,0.25l0,6.82-0.08,0V33M101,24.65c0,0.06,0,.1,0,0.16a0.41,0.41,0,0,1-.11,0,0.18,0.18,0,0,1-.19.21v0.18c0.1,0,.1.21,0,0.22v0.2c0.1,0,.09.26,0,0.25l0,6.83,0.07,0.06v0.31M109,24.42l-0.3.1a0.19,0.19,0,0,1-.2.22v0.16a0.12,0.12,0,0,1,0,.22v0.22c0.11,0,.1.24,0,0.25l0.06,1,0.11,5.84h0.13V32.8l-0.29,0h-1.32"/><polygon class="cls-10" points="102.56 24.28 104.01 24.25 104.01 24.46 102.57 24.49 102.56 24.28 102.56 24.28"/><path class="cls-7" d="M104,24.25l0.4,0.11v0.18L104,24.46V24.25h0Zm3.63,0v0.19l-0.46.1V24.35l0.46-.14h0Z"/><polygon class="cls-10" points="107.58 23.03 107.58 24.22 107.35 24.29 107.35 23.21 107.58 23.03 107.58 23.03"/><polygon class="cls-5" points="104.01 23.05 107.59 23.01 107.34 23.23 104.24 23.25 104.01 23.05 104.01 23.05"/><polygon class="cls-10" points="104.03 23.08 104.24 23.25 104.26 24.32 104.04 24.25 104.03 23.08 104.03 23.08"/><polygon class="cls-11" points="111.29 23.3 111.28 24.49 110.83 24.52 110.84 23.41 111.29 23.3 111.29 23.3"/><polygon class="cls-5" points="111.33 23.29 110.84 23.42 108.78 23.18 108.78 23.03 111.33 23.29 111.33 23.29"/><polygon class="cls-12" points="100.78 24.61 100.34 24.57 100.33 23.38 100.77 23.48 100.78 24.61 100.78 24.61"/><polygon class="cls-5" points="100.33 23.37 102.82 23.09 102.82 23.27 100.78 23.49 100.33 23.37 100.33 23.37"/><path class="cls-5" d="M100.33,23.38a0.85,0.85,0,0,1-.47.12l-0.12-.06,0.58-.06h0Z"/><path class="cls-5" d="M102.8,23.1l0.45-.05H104a2.4,2.4,0,0,1-1.23,0h0Z"/><path class="cls-5" d="M107.59,23l0.74,0,0.45,0v0a3.39,3.39,0,0,1-1.18,0,0,0,0,0,0,0,0h0Z"/><path class="cls-5" d="M107.19,24.52l0.45-.11H109l-0.31.11a2.6,2.6,0,0,0-1.34,0h-0.2Z"/><polygon class="cls-10" points="111.67 24.48 111.67 24.69 110.63 24.73 110.62 24.54 111.67 24.48 111.67 24.48"/><polygon class="cls-7" points="111.67 24.48 112.25 24.61 112.25 24.78 111.67 24.69 111.67 24.48 111.67 24.48"/><path class="cls-5" d="M110.62,24.74l1,0,0.58,0.1-0.31,0a2.24,2.24,0,0,0-1.17-.06l-0.14,0h0Z"/><path class="cls-5" d="M102.56,24.49l1.44,0,0.41,0.08-0.17,0a2.7,2.7,0,0,0-1.36,0l-0.32-.1h0Z"/><line class="cls-8" x1="104.41" y1="24.47" x2="107.19" y2="24.45"/><polygon class="cls-10" points="99.96 24.54 101.01 24.63 101.01 24.81 99.95 24.75 99.96 24.54 99.96 24.54"/><path class="cls-7" d="M100,24.54v0.22l-0.55.12V24.69l0.56-.15h0Zm-0.1-1.05V23.8"/><line class="cls-8" x1="101.01" y1="24.74" x2="102.8" y2="24.57"/><path class="cls-5" d="M99.4,24.88l0.55-.12L101,24.82l-0.13.05a2.37,2.37,0,0,0-1.18,0l-0.3,0h0Z"/><path class="cls-8" d="M108.35,23V22.65l0.07,0V22.42l0-.14V22m-5.24,1V22.7l0,0V22.48l0-.15V22.08"/><line class="cls-7" x1="111.78" y1="23.47" x2="111.78" y2="23.82"/><polyline class="cls-13" points="99.27 22.56 103.15 22.11 108.47 22.11 112.26 22.49"/><path class="cls-8" d="M108.51,32.78v2.66m0.88-2.58v0.9l2,0.1m-8.48-1h1.25m-3.77.29-1,.09m12.9-.14L111.43,33m-4.36.86h-2.37v1.21h2.37V33.87h0Zm2.48,0.05L111.3,34v1.19l-1.75-.09V33.92h0Z"/><line class="cls-8" x1="101.31" y1="32.99" x2="102.24" y2="32.94"/><polygon class="cls-5" points="107.17 30.69 107.17 31.05 106.01 30.31 107.17 30.69 107.17 30.69"/><polygon class="cls-5" points="104.49 31.05 104.49 30.73 105.74 30.3 104.49 31.05 104.49 31.05"/><path class="cls-7" d="M102.94,31.51l-1.27.09m0.56-.17-0.56.06m8.09-.06,0.26,0"/><line class="cls-8" x1="102.94" y1="31.46" x2="101.67" y2="31.57"/><line class="cls-8" x1="102.94" y1="31.13" x2="101.78" y2="31.49"/><line class="cls-7" x1="108.74" y1="31.07" x2="110.02" y2="31.47"/><polygon class="cls-5" points="99.75 23.44 99.85 23.49 99.85 23.8 99.75 23.44 99.75 23.44"/><polygon class="cls-5" points="111.92 23.34 111.92 23.44 111.86 23.49 111.78 23.82 111.78 23.47 111.92 23.34 111.92 23.34"/><path class="cls-2" d="M141.86,65.53v0.21h0v0.1a1,1,0,0,0-.25.66v0.78m-70.65,0v0.18c0.39,0,.19.59,0.44,0.56v0.13a0.46,0.46,0,0,1,.36.54c-0.23,0-.36,0-0.36.09s0.06,0.08.13,0.09,0.15,0.16,0,.17m-1.74-3.52v0.2h0.06v0.11a1,1,0,0,1,.25.66v0.77"/><path class="cls-12" d="M105.89,77.24c-2.58,0-10.4.57-12.29,5.65H92.22c-0.89,2-4,2.92-7.87,3V85.2l-0.15,0V84.95c4.11-.09,7-0.73,7.25-2.92h1.43c1.71-4.05,7.68-5.6,13-5.65s11.32,1.6,13,5.65h1.42c0.27,2.2,3.15,2.83,7.25,2.92v0.22l-0.15,0v0.67c-3.91,0-7-.93-7.87-3h-1.39c-1.88-5.09-9.71-5.66-12.29-5.66h0Z"/><path class="cls-14" d="M84.36,85.31c4.07-.09,6.92-0.76,7.33-3h1.4c1.9-4.93,10.09-5.7,12.81-5.64s10.92,0.71,12.82,5.64h1.4c0.41,2.19,3.24,2.87,7.32,3m-43,.59c0,0.09.09,0.18,0.11,0.38h0.17c3.55-.09,6.81-1,7.68-3h1.4c1.44-4.47,7.94-5.7,12.09-5.68s10.65,1.22,12.09,5.68h1.4c0.87,2,4,2.88,7.6,3h0.26a3.21,3.21,0,0,1,.1-0.39"/><path class="cls-6" d="M54.35,136.4a25.72,25.72,0,0,0,.51,3.68A7.33,7.33,0,0,0,59,141.24c2.94,0,5.17-1.88,5.17-4.29,0-1.59-.79-2.79-2.47-3.8l-2.47-1.49a3.37,3.37,0,0,1-1.85-2.73A2.56,2.56,0,0,1,60,126.31c1.68,0,2.72,1.22,3,3.62h0.39c0-1.19.11-2.28,0.23-3.25a6.58,6.58,0,0,0-3.42-.94c-2.81,0-4.76,1.83-4.76,4.15,0,1.56.87,2.79,2.67,3.85l1.71,1A3.71,3.71,0,0,1,62,137.93a2.67,2.67,0,0,1-2.85,2.62c-2.11,0-3.66-1.43-4.42-4.17l-0.39,0h0Z"/><path class="cls-6" d="M82,136.42v-9.67h1.59c2.38,0,3.55.75,4.06,2.81l0.34-.06-0.36-4.15H87.44l-0.7.68-5.72,0-5.86,0-0.63-.68H74.26l-0.41,4.1,0.37,0.06c0.57-2.17,1.72-2.77,4.24-2.77h1.47v9.67c0,1.7-.06,2.72-0.57,3.21a4.42,4.42,0,0,1-2.34.87v0.37c1.32,0,2.61-.06,3.94-0.06s2.62,0,3.91.06v-0.37a4.34,4.34,0,0,1-2.32-.87C82,139.15,82,138.13,82,136.42h0Z"/><path class="cls-6" d="M96.65,140.88c0.9,0,1.86-.06,2.84-0.06s2.06,0,3.15.06v-0.37c-1.64,0-2.43-.44-2.43-1.36a12.46,12.46,0,0,1,.81-3.26l0.41-1.21h5l1.13,3.14a4.93,4.93,0,0,1,.31,1.45c0,0.64-.6,1.15-1.7,1.23v0.37c1.07,0,2.13-.06,3.17-0.06s2.13,0,3.17.06v-0.37c-1.62-.07-2.15-0.9-2.81-2.66l-4.7-12.7a3.13,3.13,0,0,1-1.51,1.16l0.09,0.42-2.43,6.43c-1.41,3.74-2.17,5.93-2.68,6.51a3,3,0,0,1-1.86.83v0.37h0Zm5.11-7.12,2.13-5.9,2.21,5.9h-4.34Z"/><path class="cls-6" d="M128.91,136.42v-9.67h1.59c2.39,0,3.55.75,4.07,2.81l0.34-.06-0.36-4.15h-0.16l-0.71.68-5.72,0-5.85,0-0.64-.68H121.2l-0.41,4.1,0.37,0.06c0.58-2.17,1.73-2.77,4.24-2.77h1.47v9.67c0,1.7-.07,2.72-0.57,3.21a4.46,4.46,0,0,1-2.35.87v0.37c1.32,0,2.61-.06,3.93-0.06s2.62,0,3.92.06v-0.37a4.32,4.32,0,0,1-2.32-.87c-0.51-.49-0.57-1.51-0.57-3.21h0Z"/><path class="cls-6" d="M144,140.88c1.79,0,3.45,0,5,0,2.81,0,5.2,0,7.19.07a15.6,15.6,0,0,0,.81-4.37l-0.33,0c-0.5,2.59-1.88,3.79-4.39,3.79-2.92,0-3.47-.66-3.47-2.83v-3.79H151c2.12,0,3,.41,3.19,2h0.32v-1.24c0-1.34,0-2.57.09-3.77h-0.34c-0.28,1.72-1.17,2.07-3.28,2.07h-2.15v-6.13h2.8c2.51,0,3.49.6,3.64,2.79h0.31c0.06-1.1.15-2.25,0.3-3.38-1.83,0-3.83,0-6,0-1.77,0-3.64,0-5.62,0v0.38c2.24,0.09,2.58.9,2.58,3v8.15c0,2-.25,2.64-2.81,3v0.37h0Z"/><path class="cls-15" d="M105.85,50.36c-11.57.22-26.08-.4-33.63,0.55l-0.36-.24-0.18-.35c0.1-.06.11,0.1,0.2,0.1s0.08-.09.12-0.1a0.65,0.65,0,0,1,.18.1,0.74,0.74,0,0,1,.14-0.17c0.11,0,.08.16,0.18,0.15s0-.2.13-0.22a2.44,2.44,0,0,1,.25.18c0.09,0,0-.21.13-0.22s0.13,0.21.23,0.19a1.25,1.25,0,0,1,.1-0.21,2.09,2.09,0,0,0,.28.19c0.13,0,0-.24.14-0.25a1.53,1.53,0,0,1,.3.22,0.68,0.68,0,0,1,.2-0.22c0.14,0,.08.21,0.22,0.21s0-.28.3-0.26a1.84,1.84,0,0,0,.22.23A0.94,0.94,0,0,1,75.24,50c0.15,0,.21.3,0.35,0.29s0-.3.26-0.26a1.19,1.19,0,0,0,.34.22c0.14,0,0-.21.25-0.22s0.14,0.22.29,0.22A1.79,1.79,0,0,1,77.08,50c0.18,0,.23.26,0.42,0.26A0.62,0.62,0,0,1,77.83,50a4.53,4.53,0,0,0,.38.26c0.25,0,.08-0.39.32-0.4a1.75,1.75,0,0,0,.48.3,2.3,2.3,0,0,0,.3-0.34,1.16,1.16,0,0,0,.52.24,1.13,1.13,0,0,1,.36-0.27c0.2,0,.25.32,0.45,0.31a2.23,2.23,0,0,1,.4-0.26,3.65,3.65,0,0,0,.5.25,1.33,1.33,0,0,1,.4-0.23,3.37,3.37,0,0,0,.51.22,3.32,3.32,0,0,1,.4-0.3,3.89,3.89,0,0,0,.55.31,2.13,2.13,0,0,1,.5-0.33,3.53,3.53,0,0,0,.55.32,2.72,2.72,0,0,1,.45-0.31c0.27,0,.29.32,0.55,0.32a1.85,1.85,0,0,1,.47-0.35,1.92,1.92,0,0,0,.61.31A1.67,1.67,0,0,1,87,49.73c0.29,0,.25.34,0.59,0.36A2.52,2.52,0,0,1,88,49.76c0.25,0,.32.28,0.51,0.29a2.93,2.93,0,0,0,.56-0.35,6.12,6.12,0,0,1,.62.31,1.94,1.94,0,0,0,.55-0.26c0.34,0,.29.26,0.62,0.26a3.45,3.45,0,0,1,.53-0.26A3.34,3.34,0,0,0,92,50a3.94,3.94,0,0,1,.55-0.34,2.37,2.37,0,0,0,.58.32c0.21,0,.35-0.28.56-0.28a5,5,0,0,0,.71.3A4.86,4.86,0,0,1,95,49.72c0.3,0,.34.32,0.62,0.32s0.32-.33.66-0.34S96.6,50,96.83,50a2.9,2.9,0,0,1,.65-0.31,2.54,2.54,0,0,0,.63.29c0.41,0,.24-0.36.64-0.35S99.06,50,99.36,50s0.3-.32.6-0.31a6.27,6.27,0,0,0,.63.29c0.32,0,.33-0.34.66-0.34s0.31,0.29.67,0.3,0.31-.32.62-0.31,0.32,0.28.61,0.3c0.45,0,.3-0.36.73-0.33s0.34,0.32.61,0.31,0.3-.35.67-0.34,0.28,0.33.63,0.32,0.28-.31.65-0.32,0.26,0.33.66,0.34,0.29-.29.6-0.31,0.29,0.35.74,0.33a5.6,5.6,0,0,1,.61-0.3c0.31,0,.32.32,0.61,0.31s0.31-.29.67-0.3S110.69,50,111,50a6.32,6.32,0,0,0,.63-0.29c0.3,0,.28.32,0.61,0.31s0.27-.33.6-0.34,0.24,0.34.64,0.35a2.59,2.59,0,0,0,.63-0.29,2.92,2.92,0,0,1,.65.31c0.24,0,.34-0.32.6-0.31S115.72,50,116,50s0.32-.3.61-0.32a3.33,3.33,0,0,1,.55.31,5.6,5.6,0,0,0,.72-0.3c0.2,0,.35.29,0.56,0.28a2.39,2.39,0,0,0,.58-0.32,4,4,0,0,1,.55.34,3.41,3.41,0,0,0,.62-0.28,3.71,3.71,0,0,1,.54.26c0.33,0,.28-0.27.62-0.26a1.87,1.87,0,0,0,.55.26,6.83,6.83,0,0,1,.62-0.31,2.89,2.89,0,0,0,.56.35c0.19,0,.26-0.27.51-0.29a2.4,2.4,0,0,1,.45.32c0.34,0,.31-0.36.59-0.36a1.69,1.69,0,0,1,.44.31,2.08,2.08,0,0,0,.61-0.31,1.93,1.93,0,0,1,.46.35c0.26,0,.28-0.31.55-0.32a2.94,2.94,0,0,1,.45.31,3.51,3.51,0,0,0,.56-0.32,2,2,0,0,1,.49.33,4,4,0,0,0,.56-0.31,3.24,3.24,0,0,1,.39.3,3.58,3.58,0,0,0,.52-0.22,1.31,1.31,0,0,1,.39.31,4.59,4.59,0,0,0,.58-0.29,2.34,2.34,0,0,1,.33.36c0.2,0,.25-0.32.45-0.31a1.42,1.42,0,0,1,.36.36,1.05,1.05,0,0,0,.53-0.34,2.07,2.07,0,0,0,.3.34,1.61,1.61,0,0,0,.48-0.29c0.24,0,.07.36,0.31,0.4a3.32,3.32,0,0,0,.38-0.26c0.28,0,.1.3,0.23,0.3s0.27-.3.45-0.3a1.1,1.1,0,0,1,.24.3c0.15,0,.24-0.26.4-0.25s0.12,0.33.27,0.33a2,2,0,0,0,.39-0.24c0.27,0,.1.3,0.23,0.3s0.17-.3.32-0.31a1,1,0,0,1,.23.29,2.34,2.34,0,0,0,.27-0.26c0.26,0,.1.31,0.24,0.31s0.14-.25.28-0.26,0,0.27.12,0.26a2.26,2.26,0,0,1,.38-0.25c0.13,0,0,.26.09,0.28a2.67,2.67,0,0,0,.33-0.22,1.92,1.92,0,0,1,.06.24c0.09,0,.17-0.23.27-0.22s0,0.25.09,0.25a3.23,3.23,0,0,1,.28-0.22c0.1,0,0,.28.06,0.3s0.14-.23.25-0.22a1.27,1.27,0,0,1,.1.23,1.06,1.06,0,0,0,.23-0.13,1.67,1.67,0,0,1,.08.15,0.38,0.38,0,0,1,.24-0.07c0.09,0.06-.1.19-0.12,0.28s0,0.31-.17.29c-11.4-1.1-22.5-.63-33.77-0.93h0Z"/><path class="cls-16" d="M77.84,89.46c0.14,0,.09.34,0.22,0.34H84.6a1.63,1.63,0,0,0,.17-0.34"/><path class="cls-14" d="M84.77,88.77H77.84v0.69h6.92V88.77h0Zm-6.92.69c0.14,0,.09.34,0.22,0.34H84.6a1.63,1.63,0,0,0,.17-0.34"/><path class="cls-14" d="M84.75,86.14v2.27M127,86.14v2.32"/><line class="cls-17" x1="50.19" y1="121.98" x2="162.32" y2="121.98"/><path class="cls-2" d="M105.85,84.57L107,86.45a1.33,1.33,0,0,1,2.11.85h2.45l-1.37,2.13a1.41,1.41,0,0,1-.07,2.51l1.15,1.92h-2.35a1.45,1.45,0,0,1-2,1.38l-1.11,1.91-1.16-2.08a1.66,1.66,0,0,1-2.09-1.19l-2.32,0L101.55,92a1.56,1.56,0,0,1,0-2.39L100.2,87.3h2.65a1.21,1.21,0,0,1,1.94-.94l1.07-1.79h0Z"/><path class="cls-18" d="M105.85,85.2l1.05,1.7a1.17,1.17,0,0,1,1.86.79l2.13,0-1.27,1.92a1.2,1.2,0,0,1,0,2.18l1,1.67-2,0a1.25,1.25,0,0,1-1.73,1.22l-1,1.6-1-1.75a1.34,1.34,0,0,1-1.83-1l-2,0,1-1.7a1.33,1.33,0,0,1,0-2.08l-1.19-2,2.27-.07a1.08,1.08,0,0,1,1.73-.84l1-1.62h0Z"/><path class="cls-18" d="M105.86,86.89l0.73,1.19a0.84,0.84,0,0,1,1.33.53h1.55L108.61,90a0.89,0.89,0,0,1,0,1.58l0.72,1.21h-1.47a0.92,0.92,0,0,1-1.25.87l-0.71,1.2-0.73-1.32a1,1,0,0,1-1.31-.75l-1.46,0,0.79-1.23a1,1,0,0,1,0-1.5l-0.83-1.43H104a0.76,0.76,0,0,1,1.22-.59l0.68-1.13h0Z"/><path class="cls-19" d="M77.69,88.4H84.6l0-1-0.94,0V84L83,83.57c0-.65-0.83-1.08-0.83-0.51l-1-.55c0-.52-0.92-1.17-1-0.56l-0.94-.54c0-.53-1-1.2-0.92-0.52l-0.92-.57c0-.73-0.92-1.08-0.89-0.48l-0.87-.53c0-1-.87-1.3-0.87-0.52L74,78.35c0-1-.93-1.16-0.92-0.55l-1-.62c0-.63-0.89-0.88-0.87-0.31h-1a0.46,0.46,0,0,0-.92,0h-1a0.45,0.45,0,0,0-.89,0H67V73.48l-0.61,0c-0.1-.42-0.68-0.45-0.71,0H63.94a0.32,0.32,0,1,0-.63,0H61.55a0.34,0.34,0,0,0-.68,0l-1.84,0a0.31,0.31,0,1,0-.62,0H56.7a0.34,0.34,0,0,0-.69,0H55.2l0,15.41,22.49,0Z"/><polygon class="cls-20" points="102.17 33.99 100.42 34.11 100.42 35.3 102.17 35.21 102.17 33.99 102.17 33.99"/><polygon class="cls-21" points="84.91 88.44 77.7 88.44 77.7 88.66 84.91 88.66 84.91 88.44 84.91 88.44"/><path class="cls-1" d="M107.44,17a4.4,4.4,0,0,1,.73.15l0,0.08a6.92,6.92,0,0,1,1.1.44l-0.07.1a11,11,0,0,1,1.21.83l-0.09.12a8.11,8.11,0,0,1,1,1l-0.09.09a6.85,6.85,0,0,1,.81,1.22l-0.14.11a5.08,5.08,0,0,1,.44,1.31c0-.17-0.13,0-0.21,0a0.87,0.87,0,0,0-.18-0.13,2,2,0,0,0-.35.07,1.81,1.81,0,0,1-.26-0.16c-0.16,0-.27.08-0.43,0.08a1.38,1.38,0,0,1-.21-0.17,4.28,4.28,0,0,0-.47.09,1.57,1.57,0,0,0-.39-0.2,3.92,3.92,0,0,0-.47.09c-0.33,0-.09-0.16-0.47-0.16a5.16,5.16,0,0,1-.75.13,2.89,2.89,0,0,1-.58-0.18c-0.38,0-.25.15-0.57,0.15s-0.16-.11-0.44-0.12c-0.48,0-.09.17-0.67,0.18-0.29,0-.28-0.21-0.62-0.19a4.4,4.4,0,0,1-.54.18c-0.32,0-.18-0.13-0.56-0.13a3.67,3.67,0,0,1-.68.17c-0.25,0-.27-0.12-0.51-0.12a4.29,4.29,0,0,1-.43.19,4.25,4.25,0,0,0-.51-0.15,1.43,1.43,0,0,1-.53.21,4.56,4.56,0,0,0-.5-0.12,1.1,1.1,0,0,1-.37.2,2.58,2.58,0,0,0-.38-0.12,3.84,3.84,0,0,1-.34.2c-0.11,0-.15-0.1-0.3-0.09a1,1,0,0,0-.15.13c-0.05,0-.1-0.1-0.17,0s-0.08.16-.13,0a13.23,13.23,0,0,1,.55-1.23l-0.11-.09a7.91,7.91,0,0,1,.76-1.23l-0.09-.1,1-1-0.07-.12a9.2,9.2,0,0,1,1.16-.8l0-.14c0.31-.14.85-0.34,1.18-0.46l0-.1,0.8-.2a9.35,9.35,0,0,1,3.12,0h0Z"/><path class="cls-3" d="M105.78,14.07a0.66,0.66,0,0,1,.56,1c-0.24.28-.23,0.49,0,0.51,0.11,0,.07.08,0,0.14s0.08,0.1,0,.17,0,0.08,0,.11c0,0.47.62,0.66,1.1,0.88V17a11.09,11.09,0,0,0-1.66-.14,8.42,8.42,0,0,0-1.44.14V16.93a1.14,1.14,0,0,0,.95-0.88c-0.07,0,0-.07,0-0.11s0-.14,0-0.17-0.12-.11,0-0.14c0.27,0,.24-0.23,0-0.51a0.66,0.66,0,0,1,.55-1h0Z"/><path class="cls-5" d="M105.78,14.07a0.66,0.66,0,0,1,.56,1c-0.24.28-.23,0.49,0,0.51,0.11,0,.07.08,0,0.14s0.08,0.1,0,.17,0,0.08,0,.11c0,0.47.62,0.66,1.1,0.88V17a11.09,11.09,0,0,0-1.66-.14,8.42,8.42,0,0,0-1.44.14V16.93a1.14,1.14,0,0,0,.95-0.88c-0.07,0,0-.07,0-0.11s0-.14,0-0.17-0.12-.11,0-0.14c0.27,0,.24-0.23,0-0.51a0.66,0.66,0,0,1,.55-1h0Z"/><polygon class="cls-9" points="73.62 59.43 73.62 59.69 69 60.02 69.02 60.96 66.79 61.3 66.77 61.84 144.7 61.82 144.7 61.33 142.6 60.97 142.6 60.03 138.18 59.69 138.18 59.43 73.62 59.43 73.62 59.43"/><path class="cls-2" d="M140.12,61.79h4.62v3.56H140.1l0-3.56h0Zm0,0H127.76v3.56H140.1l0-3.56h0ZM128,69.2l12.13-.13,0,8.24-12.2,7.08L128,69.2h0Zm-44.45,0H128"/><path class="cls-19" d="M133.91,88.73V88.4h-6.66l0-1h0.63V84l0.69-.41c0-.65.83-1.09,0.83-0.51l1-.55c0-.52.92-1.17,1-0.56l0.93-.54c0-.53,1-1.2.92-0.52l0.93-.57c0-.73.92-1.09,0.89-0.48l0.87-.52c0-1,.87-1.3.87-0.53l0.81-.44c0-1,.93-1.15.92-0.54l1-.63c0-.62.88-0.87,0.86-0.31h1a0.46,0.46,0,0,1,.92,0h1a0.45,0.45,0,0,1,.89,0h0.47V73.46l0.62,0a0.35,0.35,0,0,1,.7,0h1.71a0.32,0.32,0,1,1,.64,0H150a0.34,0.34,0,0,1,.69,0l1.85,0a0.31,0.31,0,1,1,.62,0h1.71a0.34,0.34,0,0,1,.69,0l1.18,0V88.74H133.91Z"/><path class="cls-22" d="M105.87,87.29l0.66,1.06a0.7,0.7,0,0,1,1.19.49h1.39L108.34,90a0.8,0.8,0,0,1,0,1.42L109,92.55h-1.33a0.77,0.77,0,0,1-1.12.78l-0.63,1.08-0.66-1.18a0.82,0.82,0,0,1-1.19-.68l-1.31,0,0.71-1.11a0.8,0.8,0,0,1,0-1.35l-0.74-1.28h1.5c-0.08-.69.59-0.86,1.09-0.53l0.62-1h0Z"/><path class="cls-18" d="M105.85,84.58v3.31m-5.65-.59,2.87,1.82m-2.78,4.78,2.55-1.36m1.92-6.16,0.47,2m-2.42-1,1.34,1.59M107,86.45l-0.5,1.93m2.6-1.08-1.42,1.56m2.52,0.57-1.9.63m1.83,1.89-1.86-.48m3,2.39-2.52-1.4m0.19,1.4-1.39-1.35m-1.07.8L107,95.22m-1.1-1.12v3m-0.64-3.9-0.52,1.82M104,92.56l-1.42,1.29m0.83-2.39-1.9.49m2-1.82-2-.57m10.06-2.27-2.64,1.63"/><polygon class="cls-21" points="126.61 88.48 133.82 88.48 133.82 88.7 126.61 88.7 126.61 88.48 126.61 88.48"/><path class="cls-14" d="M126.75,88.81h6.92V89.5h-6.92V88.81h0Zm6.92,0.69c-0.14,0-.08.34-0.21,0.34h-6.54a1.37,1.37,0,0,1-.17-0.34"/><path class="cls-23" d="M55.16,88.89V41c0-24.08,27-39.8,50.68-40.13S156.75,16.87,156.75,41V88.89"/><path class="cls-1" d="M54.53,145.32H157.06v13.87H54.53V145.32h0ZM58,149.95c0-1.12-.07-1.19-0.61-1.3l-0.3-.06a0.29,0.29,0,0,1,0-.42c0.58,0,1.18,0,1.76,0s1.18,0,1.77,0a0.35,0.35,0,0,1,0,.42l-0.29,0c-0.55.09-.61,0.19-0.61,1.32v2.79c0,1.41.16,3,2,3,1.55,0,2-1.36,2-3v-1.46a8.35,8.35,0,0,0-.18-2.21,0.83,0.83,0,0,0-.7-0.39l-0.33-.06a0.37,0.37,0,0,1,0-.42c0.65,0,1.12,0,1.61,0s0.9,0,1.35,0a0.37,0.37,0,0,1,0,.42l-0.22,0a0.82,0.82,0,0,0-.65.4,8.81,8.81,0,0,0-.18,2.21v1.35a4.18,4.18,0,0,1-.77,2.91,3.24,3.24,0,0,1-2.39.87,3.65,3.65,0,0,1-2.39-.68A3.36,3.36,0,0,1,58,153v-3Zm18.39,4.18c0,0.78,0,1.54,0,1.94a1,1,0,0,1-.72.28s-0.41-.62-1-1.32L72,151.57A17.41,17.41,0,0,0,70.67,150a2.18,2.18,0,0,0-.06.78v2.34a8.46,8.46,0,0,0,.18,2.21,0.81,0.81,0,0,0,.7.39l0.34,0a0.39,0.39,0,0,1,0,.42c-0.65,0-1.14,0-1.62,0s-0.89,0-1.35,0a0.37,0.37,0,0,1,0-.42l0.21,0a0.75,0.75,0,0,0,.66-0.41,8.18,8.18,0,0,0,.17-2.21v-3.07a2.76,2.76,0,0,0-.09-1,0.77,0.77,0,0,0-.69-0.41l-0.34-.05a0.32,0.32,0,0,1,.05-0.42c0.56,0,1.17,0,1.66,0s0.76,0,1,0a10.35,10.35,0,0,0,2,2.76l1,1.2c0.53,0.63.88,1.05,1.16,1.33a1.77,1.77,0,0,0,0-.55v-1.66a8.51,8.51,0,0,0-.18-2.21,0.8,0.8,0,0,0-.7-0.39l-0.33-.05a0.38,0.38,0,0,1,0-.42c0.65,0,1.12,0,1.62,0s0.87,0,1.35,0a0.38,0.38,0,0,1,0,.42l-0.22,0a0.75,0.75,0,0,0-.66.4,8.53,8.53,0,0,0-.18,2.21v2.89Zm7.16,0.28c0,1.14.07,1.22,0.63,1.31l0.33,0.06a0.34,0.34,0,0,1,0,.42c-0.65,0-1.24,0-1.81,0s-1.18,0-1.84,0a0.36,0.36,0,0,1,0-.42l0.34-.06c0.55-.09.63-0.17,0.63-1.31V150c0-1.14-.08-1.21-0.63-1.31l-0.34-.06a0.36,0.36,0,0,1,0-.42c0.66,0,1.26,0,1.84,0s1.17,0,1.82,0a0.33,0.33,0,0,1,0,.42l-0.33.06c-0.56.1-.63,0.18-0.63,1.31v4.44Zm9.76-1.23c-0.62,1.46-.95,2.41-1.22,3.09a0.81,0.81,0,0,1-.43.1,0.52,0.52,0,0,1-.33-0.1c-0.13-.32-0.33-1-0.5-1.37l-2-4.92c-0.46-1.16-.52-1.18-0.91-1.28l-0.48-.12a0.31,0.31,0,0,1,.05-0.42c0.61,0,1,0,1.64,0s1.08,0,1.82,0a0.37,0.37,0,0,1,0,.42l-0.36.07c-0.21.05-.3,0.12-0.3,0.23a10.56,10.56,0,0,0,.47,1.33l1.07,2.72c0.17,0.44.29,0.72,0.38,0.93,0.1-.21.24-0.53,0.39-0.9l0.44-1.13c0.31-.77.81-2.12,1-2.52a1.47,1.47,0,0,0,.12-0.44c0-.08,0-0.13-0.32-0.2l-0.35-.08a0.29,0.29,0,0,1,0-.42c0.57,0,1,0,1.49,0s0.77,0,1.12,0a0.34,0.34,0,0,1,0,.42l-0.31.06a0.84,0.84,0,0,0-.67.42,12.81,12.81,0,0,0-1,2Zm8.27-1.84c0,0.34,0,.36.34,0.36h0.83c0.63,0,.78-0.08.89-0.67l0.06-.3a0.35,0.35,0,0,1,.44,0c0,0.39,0,.82,0,1.28s0,0.9,0,1.28a0.35,0.35,0,0,1-.44,0l-0.06-.31c-0.12-.58-0.26-0.68-0.89-0.68H102c-0.33,0-.34,0-0.34.38v1.43a2.2,2.2,0,0,0,.2,1.15c0.16,0.22.38,0.32,1.26,0.32,1.05,0,1.46,0,2.13-1.4a0.29,0.29,0,0,1,.44.06,6.67,6.67,0,0,1-.5,1.93c-0.64,0-1.8,0-2.79,0H100.8c-0.57,0-1.17,0-2.07,0a0.34,0.34,0,0,1,0-.42l0.56-.08c0.55-.09.62-0.16,0.62-1.28v-4.5c0-1.1-.07-1.17-0.62-1.28l-0.3-.06a0.3,0.3,0,0,1,0-.42c0.56,0,1.16,0,1.74,0h2.56c0.77,0,1.46,0,1.62,0,0,0.19.1,1.06,0.16,1.87a0.31,0.31,0,0,1-.44,0,2.92,2.92,0,0,0-.46-1,1.58,1.58,0,0,0-1.18-.37h-1c-0.4,0-.4,0-0.4.47v2.11Zm8.33-1.18c0-1.21,0-1.34-.53-1.41l-0.33,0a0.28,0.28,0,0,1,0-.43c0.91-.06,1.85-0.11,3-0.11a5.12,5.12,0,0,1,2.36.43,2,2,0,0,1,1.06,1.8,2,2,0,0,1-1.28,1.81c-0.12.05-.12,0.13-0.06,0.26a9.81,9.81,0,0,0,1.88,3,1.47,1.47,0,0,0,.8.34,0.22,0.22,0,0,1,0,.31,2.86,2.86,0,0,1-1,.11,2.45,2.45,0,0,1-2.34-1.27,13.69,13.69,0,0,1-.95-1.87,0.61,0.61,0,0,0-.64-0.42c-0.43,0-.44,0-0.44.26v1.48c0,1.12.07,1.2,0.61,1.29l0.33,0.06a0.41,0.41,0,0,1,0,.42c-0.64,0-1.2,0-1.78,0s-1.14,0-1.76,0a0.34,0.34,0,0,1,0-.42l0.32-.06c0.54-.09.62-0.17,0.62-1.29v-4.27Zm1.66,1.53c0,0.43,0,.46.75,0.46a1.13,1.13,0,0,0,.92-0.34,1.73,1.73,0,0,0,.44-1.3,1.6,1.6,0,0,0-1.58-1.8c-0.5,0-.52,0-0.52.62v2.35Zm10.6,4.68a4.17,4.17,0,0,1-2.05-.46,3.91,3.91,0,0,1-.39-2,0.3,0.3,0,0,1,.46,0,2.59,2.59,0,0,0,2.08,1.9,1.21,1.21,0,0,0,1.31-1.22,2.42,2.42,0,0,0-1.65-1.92,2.79,2.79,0,0,1-1.82-2.36c0-1.37,1-2.31,2.8-2.31a4.93,4.93,0,0,1,1.38.19l0.41,0.1A5.72,5.72,0,0,1,125,150a0.33,0.33,0,0,1-.47,0,1.94,1.94,0,0,0-1.6-1.5,1.12,1.12,0,0,0-1.23,1.12,1.76,1.76,0,0,0,1.1,1.37l0.8,0.43a2.76,2.76,0,0,1,1.71,2.43C125.27,155.41,124,156.37,122.22,156.37Zm9.4-2c0,1.14.07,1.22,0.63,1.31l0.33,0.06a0.35,0.35,0,0,1,0,.42c-0.66,0-1.24,0-1.82,0s-1.18,0-1.83,0a0.34,0.34,0,0,1,0-.42l0.33-.06c0.56-.09.63-0.17,0.63-1.31V150c0-1.14-.07-1.21-0.63-1.31l-0.33-.06a0.33,0.33,0,0,1,0-.42c0.65,0,1.25,0,1.83,0s1.17,0,1.82,0a0.33,0.33,0,0,1,0,.42l-0.33.06c-0.56.1-.63,0.18-0.63,1.31v4.44Zm7.35-5.3c0-.29,0-0.35-0.29-0.35h-0.75c-0.88,0-1.14.49-1.5,1.36A0.34,0.34,0,0,1,136,150a14.73,14.73,0,0,0,.4-2.05,0.29,0.29,0,0,1,.16-0.06,0.27,0.27,0,0,1,.17.05c0.05,0.21.1,0.25,1,.25h4.49c0.8,0,1,0,1.09-.26a0.25,0.25,0,0,1,.15,0,0.29,0.29,0,0,1,.18.08,8.45,8.45,0,0,0-.18,2.08,0.37,0.37,0,0,1-.44,0c-0.21-.78-0.37-1.34-1.29-1.34H141c-0.3,0-.33,0-0.33.35v5.32c0,1.12.07,1.22,0.62,1.29l0.49,0.06a0.39,0.39,0,0,1,0,.42c-0.79,0-1.39,0-1.93,0s-1.21,0-2.06,0a0.34,0.34,0,0,1,0-.42l0.54-.06c0.55-.06.62-0.17,0.62-1.29v-5.32Zm12.25,5.32c0,1.12.08,1.22,0.62,1.29l0.48,0.06a0.39,0.39,0,0,1,0,.42c-0.78,0-1.38,0-2,0s-1.18,0-1.9,0a0.36,0.36,0,0,1,0-.42l0.42-.06c0.54-.08.61-0.17,0.61-1.29v-0.6a2.46,2.46,0,0,0-.33-1.44l-1.43-3a1,1,0,0,0-.77-0.76l-0.41-.07a0.27,0.27,0,0,1,0-.42c0.54,0,1,0,1.7,0s1.36,0,1.77,0a0.32,0.32,0,0,1,0,.42l-0.41.1a0.46,0.46,0,0,0-.29.11,3,3,0,0,0,.31.84l0.57,1.29c0.18,0.4.41,0.88,0.55,1.18,0.35-.59.69-1.3,1-1.91a5.22,5.22,0,0,0,.63-1.4c0-.07-0.12-0.12-0.41-0.17l-0.27-.05a0.31,0.31,0,0,1,0-.42c0.48,0,.92,0,1.35,0s0.83,0,1.18,0a0.3,0.3,0,0,1,.05.42l-0.32.06a0.94,0.94,0,0,0-.58.29,12.39,12.39,0,0,0-1.06,1.72L151.66,152a2.69,2.69,0,0,0-.44,1.56v0.84Z"/><path class="cls-24" d="M158.92,156.47h-1V156.1h2.34v0.37h-1v2.68h-0.41v-2.68Z"/><path class="cls-24" d="M161.05,159.15h-0.38V156.1h0.59l0.75,2.33,0.08,0.25a1.43,1.43,0,0,1,.06-0.25l0.79-2.33h0.59v3.05h-0.4v-2.6a1.75,1.75,0,0,1-.07.27l-0.78,2.33h-0.39l-0.77-2.33c0-.08,0-0.17-0.06-0.27v2.6Z"/></svg>