<svg enable-background="new 0 0 683.5 161.9" height="161.9" viewBox="0 0 683.5 161.9" width="683.5" xmlns="http://www.w3.org/2000/svg"><path d="m213.1 31.1-7.7 4.8c-6.7-8.8-15.7-13.3-27.2-13.3-9.2 0-16.8 3-22.9 8.9s-9.1 13.1-9.1 21.6c0 5.5 1.4 10.7 4.2 15.5s6.6 8.6 11.5 11.3 10.3 4 16.4 4c11.1 0 20.1-4.4 27.2-13.3l7.7 5.1c-3.6 5.4-8.5 9.7-14.5 12.6-6.1 3-13 4.5-20.8 4.5-11.9 0-21.8-3.8-29.7-11.4s-11.8-16.8-11.8-27.7c0-7.3 1.8-14.1 5.5-20.4s8.7-11.2 15.2-14.7 13.6-5.3 21.6-5.3c5 0 9.8.8 14.5 2.3 4.6 1.5 8.6 3.5 11.8 6s5.8 5.7 8.1 9.5z"/><path d="m307 15.5v75.5h-9.6v-13c-4.1 5-8.6 8.7-13.7 11.2s-10.6 3.7-16.6 3.7c-10.7 0-19.8-3.9-27.4-11.6s-11.3-17.2-11.3-28.3c0-10.9 3.8-20.2 11.5-27.9s16.8-11.6 27.6-11.6c6.2 0 11.8 1.3 16.8 4 5 2.6 9.4 6.6 13.2 11.9v-13.9zm-38.9 7.4c-5.4 0-10.4 1.3-15 4s-8.2 6.4-10.9 11.2-4.1 9.9-4.1 15.3c0 5.3 1.4 10.4 4.1 15.3s6.4 8.6 11 11.3 9.5 4.1 14.8 4.1 10.4-1.3 15.1-4c4.8-2.7 8.4-6.3 11-10.9s3.8-9.7 3.8-15.5c0-8.7-2.9-16-8.6-21.9-5.7-6-12.8-8.9-21.2-8.9z"/><path d="m328.7 15.5h9.7v13c3.4-4.8 6.9-8.3 10.4-10.5 4.9-3 10.1-4.4 15.5-4.4 3.7 0 7.1.7 10.4 2.2s6 3.3 8.1 5.7 3.9 5.8 5.4 10.2c3.2-5.9 7.3-10.4 12.1-13.5s10.1-4.6 15.6-4.6c5.2 0 9.8 1.3 13.8 4 4 2.6 7 6.3 8.9 11s2.9 11.8 2.9 21.2v41.2h-9.9v-41.3c0-8.1-.6-13.7-1.7-16.7s-3.1-5.5-5.9-7.3c-2.8-1.9-6.1-2.8-10-2.8-4.7 0-9 1.4-12.9 4.2s-6.7 6.5-8.5 11.1-2.7 12.4-2.7 23.2v29.6h-9.7v-38.7c0-9.1-.6-15.3-1.7-18.6s-3.1-5.9-5.9-7.8-6.2-2.9-10.1-2.9c-4.5 0-8.7 1.4-12.6 4.1s-6.8 6.4-8.7 10.9-2.8 11.6-2.8 21v32h-9.7z"/><path d="m462.3 15.5h9.7v13.9c3.8-5.3 8.2-9.2 13.2-11.9 5-2.6 10.6-4 16.7-4 10.7 0 19.9 3.9 27.5 11.6s11.4 17 11.4 27.9c0 11.1-3.8 20.5-11.3 28.3-7.6 7.7-16.7 11.6-27.4 11.6-6 0-11.5-1.2-16.6-3.7-5-2.5-9.6-6.2-13.7-11.2v40.6h-9.7v-103.1zm38.8 7.4c-8.4 0-15.5 2.9-21.2 8.8s-8.6 13.2-8.6 21.9c0 5.7 1.3 10.9 3.8 15.5 2.6 4.6 6.2 8.2 11 10.9s9.8 4 15.1 4c5.2 0 10.1-1.4 14.7-4.1s8.3-6.5 11-11.3c2.7-4.9 4.1-9.9 4.1-15.3s-1.4-10.4-4-15.3c-2.7-4.8-6.3-8.5-10.9-11.2-4.6-2.6-9.6-3.9-15-3.9z"/><path d="m557.8 15.5h9.7v35.3c0 8.6.5 14.5 1.4 17.8 1.4 4.6 4 8.3 8 11s8.6 4 14 4 10-1.3 13.8-3.9 6.4-6 7.8-10.3c1-2.9 1.5-9.1 1.5-18.5v-35.4h9.9v37.1c0 10.4-1.2 18.3-3.6 23.5-2.4 5.3-6.1 9.4-11 12.4s-11 4.5-18.4 4.5-13.5-1.5-18.4-4.5-8.6-7.1-11-12.5c-2.4-5.3-3.6-13.4-3.6-24.1v-36.4z"/><path d="m683.5 23.7-6.2 6.5c-5.2-5-10.3-7.6-15.2-7.6-3.2 0-5.9 1-8.1 3.1-2.3 2.1-3.4 4.5-3.4 7.3 0 2.5.9 4.8 2.8 7 1.9 2.3 5.7 4.9 11.7 8 7.2 3.7 12.2 7.4 14.7 10.8 2.6 3.5 3.8 7.5 3.8 11.9 0 6.2-2.2 11.5-6.5 15.8-4.4 4.3-9.8 6.5-16.3 6.5-4.4 0-8.5-.9-12.5-2.8s-7.2-4.5-9.8-7.8l6.1-6.9c5 5.6 10.2 8.4 15.8 8.4 3.9 0 7.2-1.2 9.9-3.7s4.1-5.4 4.1-8.8c0-2.8-.9-5.3-2.7-7.4s-5.9-4.8-12.2-8.1c-6.8-3.5-11.5-7-13.9-10.4-2.5-3.4-3.7-7.3-3.7-11.7 0-5.7 2-10.5 5.9-14.3s8.9-5.7 14.8-5.7c6.8-.3 13.8 3.1 20.9 9.9z"/><path d="m15.6 37.8 6.7 3 7.8 1.1s6.2-27.3 33.1-26.7c27.7.6 32 26.9 32 26.9l8.1-1.3 6.3-2.4s-7.6-38.4-46.4-38.4c-40.6 0-47.6 37.8-47.6 37.8z" fill="#6ec2b4"/><path d="m14.5 49.3 8.4 3.4 7.9 2.7s3.7 24.5 33 25.7c17.9-.8 26.2-14.7 26.2-14.7s1.3 1.3 6.9 2.9c5.7 1.6 8.1 1.2 8.1 1.2s-11.4 25.5-43.9 25.5c-45-4-46.6-46.7-46.6-46.7z" fill="#6ec2b4"/><path d="m0 32.1v10.8s29.8 17.5 64.9 17.5c35.2 0 63-17.8 63-17.8v-10.8s-30.1 13.7-64 13.6c-34-.1-63.9-13.3-63.9-13.3z" fill="#c8212a"/><path d="m14.6 110.2h432.5" fill="none" stroke="#c8212b" stroke-miterlimit="10" stroke-width="3"/><path d="m484.4 110.2h195.4" fill="none" stroke="#c8212b" stroke-miterlimit="10" stroke-width="3"/><g fill="#545554"><path d="m18.7 155.5c1.2 1.4 2.9 2.2 5 2.2s3.8-.7 5-2.2c1.2-1.4 1.8-3.4 1.8-5.8v-14.9h4.5v15.1c0 3.9-1.1 6.8-3.2 8.9s-4.9 3.1-8.2 3.1-6.1-1-8.2-3.1-3.2-5.1-3.2-8.9v-15.1h4.5v14.9c.1 2.4.8 4.3 2 5.8z"/><path d="m62.3 134.7h4.5v26.9h-4.9l-15.2-19.6v19.6h-4.5v-26.9h4.5l15.6 20.1z"/><path d="m74.3 134.7h4.5v26.9h-4.5z"/><path d="m98.5 161.6h-5.1l-10.8-26.9h5.1l8.3 20.1 8.3-20.1h5.1z"/><path d="m132 134.7v4.3h-14.3v7.1h12.9v4h-12.9v7.2h14.8v4.3h-19.3v-26.9z"/><path d="m159.7 143.5c0 4.4-1.9 7.2-5.8 8.4l7 9.8h-5.8l-6.4-9h-6v9h-4.5v-26.9h10c4.1 0 7 .7 8.8 2.1 1.9 1.3 2.7 3.5 2.7 6.6zm-6 3.8c.9-.8 1.4-2.1 1.4-3.8 0-1.8-.5-3-1.4-3.6-.9-.7-2.6-1-5.1-1h-5.8v9.6h5.6c2.7 0 4.4-.4 5.3-1.2z"/><path d="m174.4 138.3c-1.3 0-2.4.3-3.2.8s-1.3 1.4-1.3 2.4.4 1.9 1.3 2.5c.8.6 2.6 1.2 5.4 1.9s4.8 1.6 6.2 2.8 2.1 3 2.1 5.3-.9 4.2-2.7 5.7-4.1 2.2-7 2.2c-4.2 0-7.9-1.4-11.2-4.3l2.8-3.4c2.7 2.4 5.5 3.5 8.5 3.5 1.5 0 2.6-.3 3.5-.9s1.3-1.5 1.3-2.5-.4-1.8-1.2-2.4-2.2-1.1-4.2-1.6-3.5-.9-4.5-1.3-1.9-.9-2.7-1.6c-1.6-1.2-2.4-3-2.4-5.5s.9-4.4 2.7-5.7 4-2 6.7-2c1.7 0 3.4.3 5.1.8 1.7.6 3.2 1.4 4.4 2.4l-2.4 3.4c-.8-.7-1.9-1.3-3.2-1.8s-2.7-.7-4-.7z"/><path d="m190.5 134.7h4.5v26.9h-4.5z"/><path d="m212.6 138.9v22.7h-4.5v-22.7h-8.1v-4.2h20.8v4.2z"/><path d="m236.3 161.6h-4.6v-10.6l-10-16.3h5l7.3 12.2 7.3-12.2h5l-10 16.3z"/><path d="m268.3 138.3c-1.3 0-2.4.3-3.2.8s-1.3 1.4-1.3 2.4.4 1.9 1.3 2.5c.8.6 2.6 1.2 5.4 1.9s4.8 1.6 6.2 2.8 2.1 3 2.1 5.3-.9 4.2-2.7 5.7-4.1 2.2-7 2.2c-4.2 0-7.9-1.4-11.2-4.3l2.8-3.4c2.7 2.4 5.5 3.5 8.5 3.5 1.5 0 2.6-.3 3.5-.9s1.3-1.5 1.3-2.5-.4-1.8-1.2-2.4-2.2-1.1-4.2-1.6-3.5-.9-4.5-1.3-1.9-.9-2.7-1.6c-1.6-1.2-2.4-3-2.4-5.5s.9-4.4 2.7-5.7 4-2 6.7-2c1.7 0 3.4.3 5.1.8 1.7.6 3.2 1.4 4.4 2.4l-2.4 3.4c-.8-.7-1.9-1.3-3.2-1.8s-2.7-.7-4-.7z"/><path d="m294.7 161.6h-4.6v-10.6l-10-16.3h5l7.3 12.2 7.3-12.2h5l-10 16.3z"/><path d="m315.9 138.3c-1.3 0-2.4.3-3.2.8s-1.3 1.4-1.3 2.4.4 1.9 1.3 2.5c.8.6 2.6 1.2 5.4 1.9s4.8 1.6 6.2 2.8 2.1 3 2.1 5.3-.9 4.2-2.7 5.7-4.1 2.2-7 2.2c-4.2 0-7.9-1.4-11.2-4.3l2.8-3.4c2.7 2.4 5.5 3.5 8.5 3.5 1.5 0 2.6-.3 3.5-.9s1.3-1.5 1.3-2.5-.4-1.8-1.2-2.4-2.2-1.1-4.2-1.6-3.5-.9-4.5-1.3-1.9-.9-2.7-1.6c-1.6-1.2-2.4-3-2.4-5.5s.9-4.4 2.7-5.7 4-2 6.7-2c1.7 0 3.4.3 5.1.8 1.7.6 3.2 1.4 4.4 2.4l-2.4 3.4c-.8-.7-1.9-1.3-3.2-1.8s-2.7-.7-4-.7z"/><path d="m342.1 138.9v22.7h-4.5v-22.7h-8.1v-4.2h20.8v4.2z"/><path d="m374.1 134.7v4.3h-14.3v7.1h12.9v4h-12.9v7.2h14.8v4.3h-19.3v-26.9z"/><path d="m384.9 161.6h-4.5v-26.9h7.1l8.1 16.9 8.1-16.9h7v26.9h-4.5v-21l-9.4 18.6h-2.5l-9.3-18.6v21z"/><path d="m451.1 157.9c-2.7 2.7-6.1 4-10.1 4s-7.4-1.3-10.1-4-4.1-6-4.1-9.9c0-4 1.4-7.3 4.1-9.9 2.7-2.7 6.1-4 10.1-4s7.4 1.3 10.1 4 4.1 6 4.1 9.9-1.4 7.2-4.1 9.9zm-3.3-16.8c-1.8-1.9-4.1-2.8-6.7-2.8-2.7 0-4.9.9-6.7 2.8s-2.7 4.2-2.7 6.9.9 5 2.7 6.9 4.1 2.8 6.7 2.8c2.7 0 4.9-.9 6.7-2.8s2.7-4.2 2.7-6.9-.9-5-2.7-6.9z"/><path d="m465.5 139v7.4h11.9v4.2h-11.9v11.1h-4.5v-26.9h17.9v4.2z"/><path d="m513.3 148.5h4.5v9.2c-2.5 2.8-6.2 4.2-10.9 4.2-4 0-7.3-1.3-10-3.9s-4-5.9-4-9.9 1.4-7.3 4.1-10 6-4 9.9-4 7.1 1.1 9.6 3.4l-2.4 3.5c-1.1-.9-2.1-1.5-3.2-1.9-1.1-.3-2.3-.5-3.7-.5-2.7 0-5 .9-6.8 2.6-1.8 1.8-2.8 4.1-2.8 6.9 0 2.9.9 5.1 2.7 6.9 1.8 1.7 4 2.6 6.5 2.6s4.7-.6 6.4-1.7v-7.4z"/><path d="m542.6 134.7v4.3h-14.3v7.1h12.9v4h-12.9v7.2h14.8v4.3h-19.3v-26.9z"/><path d="m571 157.9c-2.7 2.7-6.1 4-10.1 4s-7.4-1.3-10.1-4-4.1-6-4.1-9.9c0-4 1.4-7.3 4.1-9.9 2.7-2.7 6.1-4 10.1-4s7.4 1.3 10.1 4 4.1 6 4.1 9.9c-.1 3.9-1.4 7.2-4.1 9.9zm-3.4-16.8c-1.8-1.9-4.1-2.8-6.7-2.8-2.7 0-4.9.9-6.7 2.8s-2.7 4.2-2.7 6.9.9 5 2.7 6.9 4.1 2.8 6.7 2.8c2.7 0 4.9-.9 6.7-2.8s2.7-4.2 2.7-6.9c.1-2.7-.8-5-2.7-6.9z"/><path d="m602.2 143.5c0 4.4-1.9 7.2-5.8 8.4l7 9.8h-5.8l-6.4-9h-6v9h-4.5v-26.9h10c4.1 0 7 .7 8.8 2.1 1.8 1.3 2.7 3.5 2.7 6.6zm-6 3.8c.9-.8 1.4-2.1 1.4-3.8 0-1.8-.5-3-1.4-3.6-.9-.7-2.6-1-5.1-1h-5.8v9.6h5.6c2.6 0 4.4-.4 5.3-1.2z"/><path d="m627.3 148.5h4.5v9.2c-2.5 2.8-6.2 4.2-10.9 4.2-4 0-7.3-1.3-10-3.9s-4-5.9-4-9.9 1.4-7.3 4.1-10 6-4 9.9-4 7.1 1.1 9.6 3.4l-2.4 3.5c-1.1-.9-2.1-1.5-3.2-1.9-1.1-.3-2.3-.5-3.7-.5-2.7 0-5 .9-6.8 2.6-1.8 1.8-2.8 4.1-2.8 6.9 0 2.9.9 5.1 2.7 6.9 1.8 1.7 4 2.6 6.5 2.6s4.7-.6 6.4-1.7v-7.4z"/><path d="m637.8 134.7h4.5v26.9h-4.5z"/><path d="m653.6 155.5-2.7 6.1h-4.8l11.8-26.9h4.8l11.8 26.9h-4.8l-2.7-6.1zm11.6-4.2-4.9-11.1-4.9 11.1z"/></g></svg>