<svg id="Layer_1" data-name="Layer 1" xmlns="http://www.w3.org/2000/svg" viewBox="0 0 683.6 161.9"><title>ecampus-logo-white</title><g id="_Group_" data-name="&lt;Group&gt;"><g id="_Group_2" data-name="&lt;Group&gt;"><path id="_Path_" data-name="&lt;Path&gt;" d="M213.1,31.1l-7.7,4.8c-6.7-8.8-15.7-13.3-27.2-13.3-9.2,0-16.8,3-22.9,8.9a28.86,28.86,0,0,0-9.1,21.6,30.33,30.33,0,0,0,4.2,15.5,29.73,29.73,0,0,0,11.5,11.3,33.2,33.2,0,0,0,16.4,4c11.1,0,20.1-4.4,27.2-13.3l7.7,5.1a36.18,36.18,0,0,1-14.5,12.6,46.42,46.42,0,0,1-20.8,4.5q-17.85,0-29.7-11.4a36.9,36.9,0,0,1-11.8-27.7,39.54,39.54,0,0,1,5.5-20.4,38.39,38.39,0,0,1,15.2-14.7,44.58,44.58,0,0,1,21.6-5.3,47.29,47.29,0,0,1,14.5,2.3,38.49,38.49,0,0,1,11.8,6A34.26,34.26,0,0,1,213.1,31.1Z" transform="translate(0 0)" fill="#fff"/><path id="_Compound_Path_" data-name="&lt;Compound Path&gt;" d="M307,15.5V91h-9.6V78a41.07,41.07,0,0,1-13.7,11.2,38.48,38.48,0,0,1-44-7.9c-7.6-7.7-11.3-17.2-11.3-28.3a38,38,0,0,1,11.5-27.9,37.55,37.55,0,0,1,27.6-11.6,34.75,34.75,0,0,1,16.8,4,38,38,0,0,1,13.2,11.9V15.5Zm-38.9,7.4a29.28,29.28,0,0,0-25.9,15.2,30.78,30.78,0,0,0-4.1,15.3,31.35,31.35,0,0,0,4.1,15.3,29.16,29.16,0,0,0,11,11.3A28.71,28.71,0,0,0,268,84.1a30,30,0,0,0,15.1-4,28.12,28.12,0,0,0,11-10.9,30.71,30.71,0,0,0,3.8-15.5,30.33,30.33,0,0,0-8.6-21.9A28,28,0,0,0,268.1,22.9Z" transform="translate(0 0)" fill="#fff"/><path id="_Path_2" data-name="&lt;Path&gt;" d="M328.7,15.5h9.7v13A38.35,38.35,0,0,1,348.8,18a29.19,29.19,0,0,1,15.5-4.4,24.59,24.59,0,0,1,10.4,2.2,23.16,23.16,0,0,1,8.1,5.7,30.28,30.28,0,0,1,5.4,10.2,36.31,36.31,0,0,1,12.1-13.5,28.39,28.39,0,0,1,15.6-4.6,24,24,0,0,1,13.8,4,23.14,23.14,0,0,1,8.9,11c1.9,4.7,2.9,11.8,2.9,21.2V91h-9.9V49.7c0-8.1-.6-13.7-1.7-16.7a14.53,14.53,0,0,0-5.9-7.3,17.28,17.28,0,0,0-10-2.8,21.63,21.63,0,0,0-12.9,4.2,24.11,24.11,0,0,0-8.5,11.1c-1.8,4.6-2.7,12.4-2.7,23.2V91h-9.7V52.3c0-9.1-.6-15.3-1.7-18.6a14.9,14.9,0,0,0-5.9-7.8A17.66,17.66,0,0,0,362.5,23a21.77,21.77,0,0,0-12.6,4.1A24.64,24.64,0,0,0,341.2,38c-1.9,4.5-2.8,11.6-2.8,21V91h-9.7V15.5Z" transform="translate(0 0)" fill="#fff"/><path id="_Compound_Path_2" data-name="&lt;Compound Path&gt;" d="M462.3,15.5H472V29.4a39,39,0,0,1,13.2-11.9,35.81,35.81,0,0,1,16.7-4,37.33,37.33,0,0,1,27.5,11.6A38.27,38.27,0,0,1,540.8,53a39.33,39.33,0,0,1-11.3,28.3,38.48,38.48,0,0,1-44,7.9A42.08,42.08,0,0,1,471.8,78v40.6h-9.7V15.5Zm38.8,7.4a28.3,28.3,0,0,0-21.2,8.8,30.33,30.33,0,0,0-8.6,21.9,32,32,0,0,0,3.8,15.5,28.12,28.12,0,0,0,11,10.9,30.22,30.22,0,0,0,15.1,4,28.62,28.62,0,0,0,14.7-4.1,29.86,29.86,0,0,0,11-11.3A31.06,31.06,0,0,0,531,53.3,32,32,0,0,0,527,38a29.34,29.34,0,0,0-10.9-11.2A30,30,0,0,0,501.1,22.9Z" transform="translate(0 0)" fill="#fff"/><path id="_Path_3" data-name="&lt;Path&gt;" d="M557.8,15.5h9.7V50.8c0,8.6.5,14.5,1.4,17.8a19.75,19.75,0,0,0,8,11,24.24,24.24,0,0,0,14,4,23.85,23.85,0,0,0,13.8-3.9,19.48,19.48,0,0,0,7.8-10.3c1-2.9,1.5-9.1,1.5-18.5V15.5h9.9V52.6c0,10.4-1.2,18.3-3.6,23.5a27.6,27.6,0,0,1-11,12.4c-4.9,3-11,4.5-18.4,4.5s-13.5-1.5-18.4-4.5a27.34,27.34,0,0,1-11-12.5c-2.4-5.3-3.6-13.4-3.6-24.1V15.5Z" transform="translate(0 0)" fill="#fff"/><path id="_Path_4" data-name="&lt;Path&gt;" d="M683.5,23.7l-6.2,6.5c-5.2-5-10.3-7.6-15.2-7.6a11.25,11.25,0,0,0-8.1,3.1,9.52,9.52,0,0,0-3.4,7.3,10.44,10.44,0,0,0,2.8,7c1.9,2.3,5.7,4.9,11.7,8,7.2,3.7,12.2,7.4,14.7,10.8a19.43,19.43,0,0,1,3.8,11.9,21.58,21.58,0,0,1-6.5,15.8A22.4,22.4,0,0,1,660.8,93a28.54,28.54,0,0,1-12.5-2.8,27,27,0,0,1-9.8-7.8l6.1-6.9c5,5.6,10.2,8.4,15.8,8.4a14,14,0,0,0,9.9-3.7,11.63,11.63,0,0,0,4.1-8.8,11.07,11.07,0,0,0-2.7-7.4c-1.8-2.1-5.9-4.8-12.2-8.1-6.8-3.5-11.5-7-13.9-10.4a19.19,19.19,0,0,1-3.7-11.7,19.23,19.23,0,0,1,5.9-14.3,20.45,20.45,0,0,1,14.8-5.7C669.4,13.5,676.4,16.9,683.5,23.7Z" transform="translate(0 0)" fill="#fff"/></g><path d="M127.9,42.6V31.8a155.25,155.25,0,0,1-18.31,6.55C109.36,37.24,101.43,0,63.2,0,24,0,16.12,35.26,15.63,37.66A152.32,152.32,0,0,1,0,32.1V42.9a123.92,123.92,0,0,0,14.53,6.9C14.88,54.58,19,92.25,61.1,96,93.6,96,105,70.5,105,70.5s-2.4.4-8.1-1.2S90,66.4,90,66.4A33.42,33.42,0,0,1,63.8,81.1c-29.3-1.2-33-25.7-33-25.7l-.08,0a126.53,126.53,0,0,0,34.18,5C100.1,60.4,127.9,42.6,127.9,42.6ZM30.21,41.47c.91-3.42,8.05-26.83,33-26.27,26.71.58,31.66,25,32,26.79A151.12,151.12,0,0,1,63.9,45.4,160.7,160.7,0,0,1,30.21,41.47Z" transform="translate(0 0)" fill="#fff"/></g><line id="_Path_5" data-name="&lt;Path&gt;" x1="14.6" y1="110.2" x2="447.1" y2="110.2" fill="#fff" stroke="#fff" stroke-miterlimit="10" stroke-width="3"/><line id="_Path_6" data-name="&lt;Path&gt;" x1="484.4" y1="110.2" x2="679.8" y2="110.2" fill="#fff" stroke="#fff" stroke-miterlimit="10" stroke-width="3"/><path d="M18.7,155.5a6.35,6.35,0,0,0,5,2.2,6.05,6.05,0,0,0,5-2.2,8.75,8.75,0,0,0,1.8-5.8V134.8H35v15.1c0,3.9-1.1,6.8-3.2,8.9a11.16,11.16,0,0,1-8.2,3.1,11.16,11.16,0,0,1-8.2-3.1c-2.1-2.1-3.2-5.1-3.2-8.9V134.8h4.5v14.9A9.63,9.63,0,0,0,18.7,155.5Z" transform="translate(0 0)" fill="#fff"/><path d="M62.3,134.7h4.5v26.9H61.9L46.7,142v19.6H42.2V134.7h4.5l15.6,20.1Z" transform="translate(0 0)" fill="#fff"/><path d="M74.3,134.7h4.5v26.9H74.3Z" transform="translate(0 0)" fill="#fff"/><path d="M98.5,161.6H93.4L82.6,134.7h5.1L96,154.8l8.3-20.1h5.1Z" transform="translate(0 0)" fill="#fff"/><path d="M132,134.7V139H117.7v7.1h12.9v4H117.7v7.2h14.8v4.3H113.2V134.7H132Z" transform="translate(0 0)" fill="#fff"/><path d="M159.7,143.5c0,4.4-1.9,7.2-5.8,8.4l7,9.8h-5.8l-6.4-9h-6v9h-4.5V134.8h10c4.1,0,7,.7,8.8,2.1S159.7,140.4,159.7,143.5Zm-6,3.8a4.91,4.91,0,0,0,1.4-3.8c0-1.8-.5-3-1.4-3.6s-2.6-1-5.1-1h-5.8v9.6h5.6C151.1,148.5,152.8,148.1,153.7,147.3Z" transform="translate(0 0)" fill="#fff"/><path d="M174.4,138.3a6.06,6.06,0,0,0-3.2.8,2.81,2.81,0,0,0-1.3,2.4,2.88,2.88,0,0,0,1.3,2.5c.8.6,2.6,1.2,5.4,1.9a14.94,14.94,0,0,1,6.2,2.8,6.64,6.64,0,0,1,2.1,5.3,7.1,7.1,0,0,1-2.7,5.7,10.49,10.49,0,0,1-7,2.2,16.4,16.4,0,0,1-11.2-4.3l2.8-3.4a12.48,12.48,0,0,0,8.5,3.5,6.05,6.05,0,0,0,3.5-.9,3,3,0,0,0,.1-4.9,12.61,12.61,0,0,0-4.2-1.6,39.33,39.33,0,0,1-4.5-1.3,9.19,9.19,0,0,1-2.7-1.6,6.39,6.39,0,0,1-2.4-5.5,6.59,6.59,0,0,1,2.7-5.7,11.1,11.1,0,0,1,6.7-2,18.07,18.07,0,0,1,5.1.8,14.27,14.27,0,0,1,4.4,2.4l-2.4,3.4a10.74,10.74,0,0,0-3.2-1.8A11.25,11.25,0,0,0,174.4,138.3Z" transform="translate(0 0)" fill="#fff"/><path d="M190.5,134.7H195v26.9h-4.5Z" transform="translate(0 0)" fill="#fff"/><path d="M212.6,138.9v22.7h-4.5V138.9H200v-4.2h20.8v4.2Z" transform="translate(0 0)" fill="#fff"/><path d="M236.3,161.6h-4.6V151l-10-16.3h5l7.3,12.2,7.3-12.2h5l-10,16.3Z" transform="translate(0 0)" fill="#fff"/><path d="M268.3,138.3a6.06,6.06,0,0,0-3.2.8,2.81,2.81,0,0,0-1.3,2.4,2.88,2.88,0,0,0,1.3,2.5c.8.6,2.6,1.2,5.4,1.9a14.94,14.94,0,0,1,6.2,2.8,6.64,6.64,0,0,1,2.1,5.3,7.1,7.1,0,0,1-2.7,5.7,10.49,10.49,0,0,1-7,2.2,16.4,16.4,0,0,1-11.2-4.3l2.8-3.4a12.48,12.48,0,0,0,8.5,3.5,6.05,6.05,0,0,0,3.5-.9,3,3,0,0,0,.1-4.9,12.61,12.61,0,0,0-4.2-1.6,39.33,39.33,0,0,1-4.5-1.3,9.19,9.19,0,0,1-2.7-1.6,6.39,6.39,0,0,1-2.4-5.5,6.59,6.59,0,0,1,2.7-5.7,11.1,11.1,0,0,1,6.7-2,18.07,18.07,0,0,1,5.1.8,14.27,14.27,0,0,1,4.4,2.4l-2.4,3.4a10.74,10.74,0,0,0-3.2-1.8A11.25,11.25,0,0,0,268.3,138.3Z" transform="translate(0 0)" fill="#fff"/><path d="M294.7,161.6h-4.6V151l-10-16.3h5l7.3,12.2,7.3-12.2h5l-10,16.3v10.6Z" transform="translate(0 0)" fill="#fff"/><path d="M315.9,138.3a6.06,6.06,0,0,0-3.2.8,2.81,2.81,0,0,0-1.3,2.4,2.88,2.88,0,0,0,1.3,2.5c.8.6,2.6,1.2,5.4,1.9a14.94,14.94,0,0,1,6.2,2.8,6.64,6.64,0,0,1,2.1,5.3,7.1,7.1,0,0,1-2.7,5.7,10.49,10.49,0,0,1-7,2.2,16.4,16.4,0,0,1-11.2-4.3l2.8-3.4a12.48,12.48,0,0,0,8.5,3.5,6.05,6.05,0,0,0,3.5-.9,3,3,0,0,0,.1-4.9,12.61,12.61,0,0,0-4.2-1.6,39.33,39.33,0,0,1-4.5-1.3,9.19,9.19,0,0,1-2.7-1.6,6.39,6.39,0,0,1-2.4-5.5,6.59,6.59,0,0,1,2.7-5.7,11.1,11.1,0,0,1,6.7-2,18.07,18.07,0,0,1,5.1.8,14.27,14.27,0,0,1,4.4,2.4l-2.4,3.4a10.74,10.74,0,0,0-3.2-1.8A11.25,11.25,0,0,0,315.9,138.3Z" transform="translate(0 0)" fill="#fff"/><path d="M342.1,138.9v22.7h-4.5V138.9h-8.1v-4.2h20.8v4.2Z" transform="translate(0 0)" fill="#fff"/><path d="M374.1,134.7V139H359.8v7.1h12.9v4H359.8v7.2h14.8v4.3H355.3V134.7h18.8Z" transform="translate(0 0)" fill="#fff"/><path d="M384.9,161.6h-4.5V134.7h7.1l8.1,16.9,8.1-16.9h7v26.9h-4.5v-21l-9.4,18.6h-2.5L385,140.6v21Z" transform="translate(0 0)" fill="#fff"/><path d="M451.1,157.9a14.75,14.75,0,0,1-20.2,0,13.51,13.51,0,0,1-4.1-9.9,13.19,13.19,0,0,1,4.1-9.9,14.75,14.75,0,0,1,20.2,0,14,14,0,0,1,0,19.8Zm-3.3-16.8a8.91,8.91,0,0,0-6.7-2.8,8.76,8.76,0,0,0-6.7,2.8,10.17,10.17,0,0,0,0,13.8,8.91,8.91,0,0,0,6.7,2.8,8.76,8.76,0,0,0,6.7-2.8,10.17,10.17,0,0,0,0-13.8Z" transform="translate(0 0)" fill="#fff"/><path d="M465.5,139v7.4h11.9v4.2H465.5v11.1H461V134.8h17.9V139Z" transform="translate(0 0)" fill="#fff"/><path d="M513.3,148.5h4.5v9.2c-2.5,2.8-6.2,4.2-10.9,4.2a13.81,13.81,0,0,1-10-3.9,13.11,13.11,0,0,1-4-9.9,13.58,13.58,0,0,1,4.1-10,13.42,13.42,0,0,1,9.9-4,13.59,13.59,0,0,1,9.6,3.4l-2.4,3.5a10.79,10.79,0,0,0-3.2-1.9,13.8,13.8,0,0,0-3.7-.5,9.61,9.61,0,0,0-6.8,2.6,9.42,9.42,0,0,0-2.8,6.9,9.07,9.07,0,0,0,9.2,9.5,11.73,11.73,0,0,0,6.4-1.7v-7.4Z" transform="translate(0 0)" fill="#fff"/><path d="M542.6,134.7V139H528.3v7.1h12.9v4H528.3v7.2h14.8v4.3H523.8V134.7h18.8Z" transform="translate(0 0)" fill="#fff"/><path d="M571,157.9a14.75,14.75,0,0,1-20.2,0,13.51,13.51,0,0,1-4.1-9.9,13.2,13.2,0,0,1,4.1-9.9,14.75,14.75,0,0,1,20.2,0,13.51,13.51,0,0,1,4.1,9.9A13.91,13.91,0,0,1,571,157.9Zm-3.4-16.8a8.91,8.91,0,0,0-6.7-2.8,8.76,8.76,0,0,0-6.7,2.8,10.17,10.17,0,0,0,0,13.8,8.91,8.91,0,0,0,6.7,2.8,8.76,8.76,0,0,0,6.7-2.8,9.67,9.67,0,0,0,2.7-6.9A8.9,8.9,0,0,0,567.6,141.1Z" transform="translate(0 0)" fill="#fff"/><path d="M602.2,143.5c0,4.4-1.9,7.2-5.8,8.4l7,9.8h-5.8l-6.4-9h-6v9h-4.5V134.8h10c4.1,0,7,.7,8.8,2.1S602.2,140.4,602.2,143.5Zm-6,3.8a4.9,4.9,0,0,0,1.4-3.8c0-1.8-.5-3-1.4-3.6s-2.6-1-5.1-1h-5.8v9.6h5.6C593.5,148.5,595.3,148.1,596.2,147.3Z" transform="translate(0 0)" fill="#fff"/><path d="M627.3,148.5h4.5v9.2c-2.5,2.8-6.2,4.2-10.9,4.2a13.81,13.81,0,0,1-10-3.9,13.11,13.11,0,0,1-4-9.9,13.58,13.58,0,0,1,4.1-10,13.42,13.42,0,0,1,9.9-4,13.59,13.59,0,0,1,9.6,3.4l-2.4,3.5a10.79,10.79,0,0,0-3.2-1.9,13.8,13.8,0,0,0-3.7-.5,9.61,9.61,0,0,0-6.8,2.6,9.42,9.42,0,0,0-2.8,6.9,9.07,9.07,0,0,0,9.2,9.5,11.73,11.73,0,0,0,6.4-1.7v-7.4Z" transform="translate(0 0)" fill="#fff"/><path d="M637.8,134.7h4.5v26.9h-4.5Z" transform="translate(0 0)" fill="#fff"/><path d="M653.6,155.5l-2.7,6.1h-4.8l11.8-26.9h4.8l11.8,26.9h-4.8l-2.7-6.1Zm11.6-4.2-4.9-11.1-4.9,11.1Z" transform="translate(0 0)" fill="#fff"/></svg>