<svg id="Layer_1" data-name="Layer 1" xmlns="http://www.w3.org/2000/svg" viewBox="0 0 407.86 189.19"><defs><style>.cls-1{fill:#e67242;}.cls-2{fill:#231f20;}.cls-3{fill:#26c6da;}</style></defs><title>goml-logo</title><path class="cls-1" d="M192.57,63.65a21.7,21.7,0,0,0-8.07,1.1c-.83.26-7.3,2.33-7.27,3.07,0,0-.28-7.92-1.34-10.59-.81-2.07-2.2-5.93-4.63-6.35a3.29,3.29,0,0,0-1.36,0,3.08,3.08,0,0,0-1.16.76c-.53.49-1,1-1.55,1.49-1.9,1.88-.87,3.41.16,5.59,2,4.25,2.72,9.16,1.66,12.47l-.17-.39c-1.49-3.45-4.52-5.33-8.18-6.37-11.62-3.31-26,1.28-34.67,11-9.49,10.54-12.22,22.41-10.73,35.11.95,8.05,4.32,22.59,5.91,24s4.9.38,4.9.38,17.28,10.66,29.63,10.83c19.26.28,42-20.92,40.2-38.24s-14.29-21.28-14.29-21.28a30.22,30.22,0,0,0,14.69.54c6-1.49,11.37-6.8,13.61-12.51a1.84,1.84,0,0,0-.39-1.64C204.92,68.58,198.85,64.12,192.57,63.65ZM167.06,83a30,30,0,0,0-8,4.92,51.83,51.83,0,0,0-11.24,14.36,27.41,27.41,0,0,0-2.38,6.42c-.28,1.29-.32,4.44-1.5,5.31-.67.49-.7-3.07-.69-3.32a19.24,19.24,0,0,1,1-6.72,48.15,48.15,0,0,1,17.21-21,36.34,36.34,0,0,1,7-3.7,15.47,15.47,0,0,0,2.31,2.15C169.46,81.86,168.26,82.42,167.06,83Z"/><path class="cls-2" d="M49.58,109.78H72.26a22,22,0,0,1-6.77,11.13c-2.11,1.83-7,5.07-16.33,5.07-7.19,0-13.52-1.69-19-7.33-3.94-3.94-7.89-10.84-7.89-21.55,0-8.73,2.82-16.76,8-22.25,4.51-4.79,10.85-7.61,19.44-7.61a23.58,23.58,0,0,1,14.37,4.51A28.5,28.5,0,0,1,72.4,81.89L92,71.33A51.8,51.8,0,0,0,76.76,54.57c-8.73-5.78-18.59-7-26.34-7-11.12,0-25.35,1.7-36.9,13.67C5.63,69.21,0,81.47,0,96.82,0,115.56,8.31,127,13.8,132.6c11,11.27,23.1,13.1,34.37,13.1s23.1-2,33.52-12.82S96.2,104.71,96.2,93.3v-1H49.58Z"/><polygon class="cls-2" points="304.06 49.64 280.68 105.84 257.3 49.64 239.27 49.64 224.2 143.58 245.89 143.58 253.35 87.53 276.88 143.58 284.48 143.58 308 87.53 315.47 143.58 337.16 143.58 322.09 49.64 304.06 49.64"/><polygon class="cls-2" points="375.03 125.27 375.03 49.64 353.34 49.64 353.34 143.58 404.19 143.58 404.19 125.27 375.03 125.27"/><path class="cls-3" d="M93.54,28.81l9.73,9.86c16.68-16.09,36.6-24.61,59.85-24.61s43.15,8.58,59.78,24.6l9.88-9.77C194.11-10.64,129.14-8.58,93.54,28.81Z"/><path class="cls-3" d="M115.26,50.44,125,60.36c21.59-21.2,55.81-20.41,76.25-.06l9.83-9.83C185.35,24.5,141.92,23.76,115.26,50.44Z"/><path class="cls-2" d="M26.22,176.68H37.15v.23c0,2.67-1,6.73-3.4,9.27a10.09,10.09,0,0,1-7.86,3,10.34,10.34,0,0,1-8-3.07,12.53,12.53,0,0,1-.07-16.74c2.71-2.8,6-3.2,8.65-3.2a11.09,11.09,0,0,1,6.17,1.65,12.19,12.19,0,0,1,3.57,3.93l-4.59,2.48a6.68,6.68,0,0,0-1.95-2.38,5.49,5.49,0,0,0-3.36-1.06,5.94,5.94,0,0,0-4.56,1.79,7.51,7.51,0,0,0-1.88,5.21,6.89,6.89,0,0,0,1.85,5,5.77,5.77,0,0,0,4.45,1.72A5.62,5.62,0,0,0,30,183.38a5.09,5.09,0,0,0,1.59-2.61H26.22Z"/><path class="cls-2" d="M56.68,171H49.32v4.26h7v4.29h-7v4.88h7.36v4.29H44.24v-22H56.68Z"/><path class="cls-2" d="M83.61,169.38a11.72,11.72,0,0,1,0,16.57,11.76,11.76,0,0,1-8.51,3.24A12.11,12.11,0,0,1,66.51,186a11.24,11.24,0,0,1-3.43-8.18,12.29,12.29,0,0,1,3.4-8.35,11.81,11.81,0,0,1,8.62-3.24A11.77,11.77,0,0,1,83.61,169.38Zm-13.37,3.37a6.76,6.76,0,0,0-1.94,5,6.6,6.6,0,0,0,2,5A6.48,6.48,0,0,0,75,184.5a6.51,6.51,0,0,0,6.8-6.8,6.93,6.93,0,0,0-1.92-4.95,7,7,0,0,0-4.85-1.88A6.76,6.76,0,0,0,70.24,172.75Z"/><path class="cls-2" d="M101.86,166.68a7.89,7.89,0,0,1,5.61,1.91,6.66,6.66,0,0,1,1.91,4.92,6,6,0,0,1-1.71,4.49,7,7,0,0,1-3.07,1.68l6.76,9h-6.2L99.22,180v8.68H94.13v-22Zm-2.64,10h1.15a4.18,4.18,0,0,0,3-1,3,3,0,0,0,.82-2.14,2.67,2.67,0,0,0-1-2.25,4.91,4.91,0,0,0-2.8-.69H99.22Z"/><path class="cls-2" d="M128.06,176.68H139v.23c0,2.67-1,6.73-3.4,9.27a10.1,10.1,0,0,1-7.86,3,10.34,10.34,0,0,1-8-3.07,12.53,12.53,0,0,1-.07-16.74c2.71-2.8,6-3.2,8.65-3.2a11.13,11.13,0,0,1,6.17,1.65,12,12,0,0,1,3.56,3.93l-4.58,2.48a6.68,6.68,0,0,0-1.95-2.38,5.5,5.5,0,0,0-3.37-1.06,5.91,5.91,0,0,0-4.55,1.79,7.51,7.51,0,0,0-1.88,5.21,6.89,6.89,0,0,0,1.85,5,5.77,5.77,0,0,0,4.45,1.72,5.65,5.65,0,0,0,3.83-1.19,5.17,5.17,0,0,0,1.58-2.61h-5.31Z"/><path class="cls-2" d="M151.26,166.68v22h-5.08v-22Z"/><path class="cls-2" d="M172.41,184.53h-8.32l-1.68,4.16h-5.28l8.88-22h4.65l8.68,22h-5.28ZM171,180.64l-2.71-7.39-2.74,7.39Z"/><path class="cls-2" d="M215.61,169.38a11.72,11.72,0,0,1,0,16.57,11.77,11.77,0,0,1-8.52,3.24,12.1,12.1,0,0,1-8.58-3.24,11.24,11.24,0,0,1-3.43-8.18,12.29,12.29,0,0,1,3.4-8.35,13,13,0,0,1,17.13,0Zm-13.37,3.37a6.72,6.72,0,0,0-2,5,6.57,6.57,0,0,0,2,5A6.48,6.48,0,0,0,207,184.5a6.51,6.51,0,0,0,6.8-6.8,6.93,6.93,0,0,0-1.92-4.95,7,7,0,0,0-4.85-1.88A6.76,6.76,0,0,0,202.24,172.75Z"/><path class="cls-2" d="M226.13,188.69v-22h4.43l11.94,14.19V166.68h5.09v22h-4.43l-11.94-14.26v14.26Z"/><path class="cls-2" d="M265.66,188.69l3.54-22h4.22l5.48,13.17,5.48-13.17h4.22l3.54,22h-5.09l-1.75-13.13-5.51,13.13H278l-5.51-13.13-1.75,13.13Z"/><path class="cls-2" d="M304.7,178.43l-7.88-11.75h6l4.43,6.83,4.42-6.83h6l-7.89,11.75v10.26H304.7Z"/><path class="cls-2" d="M339.45,166.68V184.4h6.83v4.29H334.37v-22Z"/><path class="cls-2" d="M357.64,166.68v22h-5.09v-22Z"/><path class="cls-2" d="M365.85,188.69v-22h4.42l12,14.19V166.68h5.08v22h-4.42l-11.95-14.26v14.26Z"/><path class="cls-2" d="M407.86,171H400.5v4.26h7v4.29h-7v4.88h7.36v4.29H395.42v-22h12.44Z"/></svg>