<svg id="Layer_1" data-name="Layer 1" xmlns="http://www.w3.org/2000/svg" viewBox="0 0 82 42"><defs><style>.cls-1{fill:#006e62;}.cls-2{fill:#3fbfad;}.cls-3{fill:#a5d400;}</style></defs><title>logo_AACSB</title><path class="cls-1" d="M32.51,34.68l1.93-5.13h1.11l1.93,5.13H36.35L36,33.8H33.93l-.31.88ZM35,30.85l-.71,2H35.7l-.71-2Z"/><path class="cls-1" d="M40.25,29.44a2.37,2.37,0,0,1,2.49,2H41.61a1.3,1.3,0,0,0-1.36-1c-.94,0-1.47.65-1.47,1.66s.53,1.66,1.47,1.66a1.3,1.3,0,0,0,1.36-1h1.13a2.37,2.37,0,0,1-2.49,2,2.67,2.67,0,0,1,0-5.33Z"/><path class="cls-1" d="M45.94,29.44a2.37,2.37,0,0,1,2.49,2H47.3a1.3,1.3,0,0,0-1.36-1c-.94,0-1.47.65-1.47,1.66s.53,1.66,1.47,1.66a1.3,1.3,0,0,0,1.36-1h1.13a2.37,2.37,0,0,1-2.49,2,2.67,2.67,0,0,1,0-5.33Z"/><path class="cls-1" d="M52.08,34.68l-1-1.94h-1v1.94H49.05V29.55h2.33a1.53,1.53,0,0,1,1.71,1.6,1.48,1.48,0,0,1-.91,1.47l1.12,2.06Zm-.7-4.16H50.11v1.25h1.27a.58.58,0,0,0,.66-.61A.59.59,0,0,0,51.38,30.52Z"/><path class="cls-1" d="M57.75,34.68H54.06V29.55h3.69v1H55.11v1.08h2.53v1H55.11v1.15h2.64Z"/><path class="cls-1" d="M58.79,34.68V29.55h1.84a2.57,2.57,0,1,1,0,5.13Zm1.81-4.16h-.76v3.19h.76a1.45,1.45,0,0,0,1.62-1.6A1.45,1.45,0,0,0,60.6,30.52Z"/><path class="cls-1" d="M65.08,34.68H64V29.55h1.05Z"/><path class="cls-1" d="M69.59,30.54H68.18v4.14H67.13V30.54H65.72v-1h3.87Z"/><path class="cls-1" d="M73.68,34.68H70V29.55h3.69v1H71v1.08h2.53v1H71v1.15h2.64Z"/><path class="cls-1" d="M74.53,34.68V29.55h1.84a2.57,2.57,0,1,1,0,5.13Zm1.81-4.16h-.76v3.19h.76A1.45,1.45,0,0,0,78,32.11,1.45,1.45,0,0,0,76.34,30.52Z"/><polygon class="cls-2" points="18.3 16.7 18.3 25.4 27 34.1 27 16.7 18.3 16.7"/><polygon class="cls-3" points="18.3 8 0.9 8 9.6 16.7 18.3 16.7 18.3 8"/><rect class="cls-1" x="18.3" y="8" width="8.7" height="8.7"/><polygon class="cls-2" points="8.7 26.3 8.7 17.6 0 8.9 0 26.3 8.7 26.3"/><polygon class="cls-3" points="8.7 35 26.1 35 17.4 26.3 8.7 26.3 8.7 35"/><rect class="cls-1" y="26.3" width="8.7" height="8.7"/><path class="cls-1" d="M32,27.41l4-10.75h2.33l4,10.75H40l-.65-1.85H35l-.65,1.85Zm5.16-8-1.48,4.19h3l-1.48-4.19Z"/><path class="cls-1" d="M41.93,27.41l4-10.75h2.33l4,10.75H50l-.65-1.85H44.9l-.65,1.85Zm5.16-8-1.48,4.19h3l-1.48-4.19Z"/><path class="cls-1" d="M68.62,24.41c0-2.12-5.75-.45-5.75-4.66,0-1.82,1.44-3.31,3.92-3.31a3.69,3.69,0,0,1,4,3.59H68.62a1.68,1.68,0,0,0-1.86-1.62c-1,0-1.71.51-1.71,1.21,0,2.15,5.81.45,5.81,4.72,0,1.92-1.7,3.28-4.25,3.28-3,0-4.09-1.85-4.15-3.62h2.18c.06.88.7,1.65,2.09,1.65C67.91,25.65,68.62,25.2,68.62,24.41Z"/><path class="cls-1" d="M71.59,27.41V16.66h4.54c2.47,0,3.57,1.32,3.57,3A2.48,2.48,0,0,1,78.2,22a2.47,2.47,0,0,1,1.65,2.38c0,1.85-1.2,3-3.53,3Zm2.15-8.74V21h2.38c.85,0,1.36-.39,1.36-1.17s-.39-1.17-1.36-1.17Zm0,4.3v2.45h2.53c.94,0,1.36-.47,1.36-1.23S77.2,23,76.27,23Z"/><path class="cls-1" d="M59.73,24a2.76,2.76,0,0,1-2.63,1.5c-2,0-3.07-1.36-3.07-3.48s1.1-3.48,3.07-3.48a2.71,2.71,0,0,1,2.85,2.1H62.3a5,5,0,0,0-5.21-4.21A5.27,5.27,0,0,0,51.7,22a5.27,5.27,0,0,0,5.4,5.58A5,5,0,0,0,62.17,24Z"/></svg>