<svg id="starburst_copy" data-name="starburst copy" xmlns="http://www.w3.org/2000/svg" viewBox="0 0 193.26 228.23"><title>ACBSP_Accredited</title><path d="M20.86,141.66c.68-1.87.9-2.21,1.24-2.21s.57.28,1.24,2c.85,2.15,9.73,25.5,13.18,34.1,2,5,3.68,5.94,4.86,6.28a7.31,7.31,0,0,0,2.26.34c.34,0,.57.06.57.34s-.51.45-1.13.45c-.85,0-5,0-8.88-.11-1.07-.06-1.7-.06-1.7-.4s.17-.34.4-.4.68-.62.34-1.53L28,166.65a.49.49,0,0,0-.51-.34H15.31a.6.6,0,0,0-.57.45l-3.39,10a11.94,11.94,0,0,0-.79,3.79c0,1.13,1.19,1.64,2.15,1.64h.57c.4,0,.57.11.57.34s-.34.45-.85.45c-1.36,0-3.79-.17-4.41-.17s-3.73.17-6.39.17c-.74,0-1.07-.11-1.07-.45s.23-.34.51-.34,1.19-.06,1.64-.11c2.6-.34,3.73-2.49,4.75-5.32Zm5.88,22.62c.28,0,.28-.17.23-.4l-5.37-15.27q-.42-1.27-.85,0l-5,15.27c-.11.28,0,.4.17.4Z" fill="#09367b"/><path d="M52.69,177.68c-5.48-4.92-6.84-11.37-6.84-16.74a22.58,22.58,0,0,1,6.33-15.44c3.39-3.39,8.54-6.05,17.25-6.05a48.44,48.44,0,0,1,8.2.68,49,49,0,0,0,5.77.85c.62.06.73.28.73.62s-.17,1.13-.28,3.17c-.11,1.87-.11,5-.17,5.82s-.17,1.19-.51,1.19-.45-.4-.45-1.19a7.83,7.83,0,0,0-2.37-5.77c-2-1.7-6.33-3.22-11.31-3.22-7.52,0-11,2.21-13,4.13-4.13,4-5.09,9-5.09,14.76,0,10.8,8.31,20.7,20.41,20.7,4.24,0,7.58-.51,9.84-2.83a10.76,10.76,0,0,0,2.09-4.75c.11-.62.23-.85.57-.85s.4.4.4.85A58.65,58.65,0,0,1,83,180.84c-.34,1.08-.45,1.19-1.47,1.64-2.26.9-6.56,1.3-10.18,1.3C62.87,183.79,57.16,181.69,52.69,177.68Z" fill="#09367b"/><path d="M97.82,156.64c0-8.82,0-10.4-.11-12.21s-.57-2.83-2.43-3.22a10.56,10.56,0,0,0-1.92-.17c-.23,0-.45-.11-.45-.34s.28-.45.9-.45c2.54,0,6.11.17,6.39.17,1.36,0,3.56-.17,6.16-.17,9.27,0,11.31,5.65,11.31,8.48,0,4.64-2.66,7.41-5.32,10.18,4.18,1.3,9.78,5.32,9.78,11.93,0,6.05-4.75,12.33-14.42,12.33-1.3,0-7.07-.34-7.52-.34-.28,0-3.85.17-5.54.17-.62,0-.9-.11-.9-.45,0-.17.11-.34.45-.34a8.71,8.71,0,0,0,1.7-.23c1.13-.23,1.41-1.47,1.64-3.11.28-2.38.28-6.84.28-12.27Zm4.52,1.24c0,.4.11.51.4.62a19.93,19.93,0,0,0,3.45.23c3.17,0,4-.11,5.15-1.47a8.74,8.74,0,0,0,2-5.71c0-4.69-2.09-9.73-7.63-9.73a12.62,12.62,0,0,0-2.71.28c-.51.11-.68.28-.68.62Zm0,6c0,4.35,0,11.37.06,12.21.17,2.77.17,3.56,1.92,4.41a13.29,13.29,0,0,0,5,.85c3.05,0,8-1.64,8-8,0-3.39-1.13-8.31-5.49-11.31a9.36,9.36,0,0,0-4.69-1.64c-.73-.11-3.56-.11-4.41-.11-.23,0-.34.11-.34.4Z" fill="#09367b"/><path d="M133.06,182.26c-.79-.4-.85-.62-.85-2.15,0-2.83.23-5.09.28-6,.06-.62.17-.9.45-.9s.4.17.4.62a9.93,9.93,0,0,0,.17,2.09c.85,4.18,4.58,5.77,8.37,5.77,5.43,0,8.09-3.9,8.09-7.52,0-3.9-1.64-6.16-6.5-10.18l-2.54-2.09c-6-4.92-7.35-8.43-7.35-12.27,0-6.05,4.52-10.18,11.71-10.18a21.93,21.93,0,0,1,5.26.57,9.22,9.22,0,0,0,2,.28c.45,0,.57.11.57.4s-.23,2.15-.23,6c0,.9-.11,1.3-.4,1.3s-.4-.28-.45-.74a9.92,9.92,0,0,0-.74-2.83c-.34-.62-1.87-3-7.07-3-3.9,0-7,2.43-7,6.56,0,3.22,1.58,5.15,6.9,9.5l1.58,1.24C152.4,164,154,167.5,154,172a11.72,11.72,0,0,1-4.81,9.39,14.87,14.87,0,0,1-8.54,2.38A17.16,17.16,0,0,1,133.06,182.26Z" fill="#09367b"/><path d="M168.91,156.64c0-8.82,0-10.4-.11-12.21s-.57-2.83-2.43-3.22a10.57,10.57,0,0,0-1.92-.17c-.23,0-.45-.11-.45-.34s.28-.45.91-.45c2.54,0,5.94.17,6.39.17,1.24,0,4.52-.17,7.13-.17,7.07,0,9.61,2.38,10.52,3.22a9.82,9.82,0,0,1,2.83,6.73c0,8-5.88,13.46-13.91,13.46a8.35,8.35,0,0,1-1.19-.06c-.28,0-.62-.11-.62-.4,0-.45.34-.51,1.53-.51,5.49,0,9.78-4,9.78-9.22a12,12,0,0,0-3.17-8.71,9.82,9.82,0,0,0-7.75-2.83,7,7,0,0,0-2.43.34c-.34.11-.45.51-.45,1.07v23.24c0,5.43,0,9.9.28,12.27.17,1.64.51,2.88,2.21,3.11a24.6,24.6,0,0,0,2.54.23c.34,0,.45.17.45.34s-.28.45-.91.45c-3.11,0-6.67-.17-7-.17s-3.73.17-5.43.17c-.62,0-.91-.11-.91-.45,0-.17.11-.34.45-.34A8.71,8.71,0,0,0,167,182c1.13-.23,1.41-1.47,1.64-3.11.28-2.38.28-6.84.28-12.27Z" fill="#09367b"/><rect x="0.42" y="193.57" width="191.1" height="3" fill="#ff690b"/><path d="M84.3,109.14,66.8,55,56.37,73l27.68,36.2Z" fill="#ff690b"/><polygon points="79.36 33.39 67.94 53.05 88.69 103.38 79.36 33.39" fill="#ff690b"/><path d="M98.61,23.37l3.1,85.07h.18l16-74.83L98.74,0,79.67,32.85l15.5,72.4Z" fill="#ff690b"/><path d="M172.55,129.51l-30.19-53L120.67,110A129.78,129.78,0,0,1,172.55,129.51Z" fill="#ff690b"/><path d="M113.88,109.17l27-35.28L130.66,56l-17.18,53.13Z" fill="#ff690b"/><polygon points="129.5 53.97 118.24 34.21 108.97 103.75 129.5 53.97" fill="#ff690b"/><path d="M54.89,75.53,22.48,131.34c15.21-10.67,34-18.2,54.73-21.33Z" fill="#ff690b"/><path d="M113.88,109.17l-.4,0" fill="#ff690b"/><line x1="101.71" y1="108.45" x2="101.73" y2="109.17" fill="#ff690b"/><path d="M84.3,109.14l-.24,0,.43.57Z" fill="#ff690b"/><path d="M9.25,207.43H11.4l9.25,20.45H18.19l-2.38-5.37H4.76l-2.41,5.37H0Zm5.66,13L10.3,210.1,5.66,220.42Z" fill="#09367b"/><path d="M22.56,217.78v-.06a10.23,10.23,0,0,1,10.27-10.5,10.57,10.57,0,0,1,7.92,3.22l-1.57,1.68a8.83,8.83,0,0,0-6.38-2.78c-4.5,0-7.86,3.65-7.86,8.32v.06c0,4.7,3.39,8.38,7.86,8.38a8.82,8.82,0,0,0,6.56-2.93l1.51,1.48a10.57,10.57,0,0,1-8.12,3.57A10.13,10.13,0,0,1,22.56,217.78Z" fill="#09367b"/><path d="M43.38,217.78v-.06a10.23,10.23,0,0,1,10.27-10.5,10.57,10.57,0,0,1,7.92,3.22L60,212.13a8.83,8.83,0,0,0-6.38-2.78c-4.5,0-7.86,3.65-7.86,8.32v.06c0,4.7,3.39,8.38,7.86,8.38a8.82,8.82,0,0,0,6.56-2.93l1.51,1.48a10.57,10.57,0,0,1-8.12,3.57A10.13,10.13,0,0,1,43.38,217.78Z" fill="#09367b"/><path d="M65.68,207.57h8.73a8,8,0,0,1,5.77,2,5.61,5.61,0,0,1,1.57,4v.06c0,3.37-2.32,5.34-5.51,5.92l6.24,8.3H79.66L73.78,220H68v7.89H65.68Zm8.53,10.36c3,0,5.22-1.57,5.22-4.18v-.06c0-2.49-1.91-4-5.19-4H68v8.24Z" fill="#09367b"/><path d="M86.65,207.57h14.68v2.09H88.94v6.93H100v2.09H88.94v7.11h12.53v2.09H86.65Z" fill="#09367b"/><path d="M106.08,207.57h7c6.38,0,10.79,4.38,10.79,10.09v.06c0,5.71-4.41,10.15-10.79,10.15h-7Zm2.29,2.12v16.07h4.76c5.13,0,8.41-3.48,8.41-8v-.06c0-4.5-3.28-8-8.41-8Z" fill="#09367b"/><path d="M129,207.57h2.29v20.3H129Z" fill="#09367b"/><path d="M142.56,209.69h-6.82v-2.12h16v2.12h-6.82v18.19h-2.32Z" fill="#09367b"/><path d="M156,207.57h14.68v2.09H158.28v6.93h11.08v2.09H158.28v7.11h12.53v2.09H156Z" fill="#09367b"/><path d="M175.42,207.57h7c6.38,0,10.79,4.38,10.79,10.09v.06c0,5.71-4.41,10.15-10.79,10.15h-7Zm2.29,2.12v16.07h4.76c5.13,0,8.41-3.48,8.41-8v-.06c0-4.5-3.28-8-8.41-8Z" fill="#09367b"/></svg>